<?xml version="1.0" encoding="UTF-8" standalone="no"?>
<!-- Creator: Corel DESIGNER -->

<svg
   xmlns:dc="http://purl.org/dc/elements/1.1/"
   xmlns:cc="http://creativecommons.org/ns#"
   xmlns:rdf="http://www.w3.org/1999/02/22-rdf-syntax-ns#"
   xmlns:svg="http://www.w3.org/2000/svg"
   xmlns="http://www.w3.org/2000/svg"
   xmlns:xlink="http://www.w3.org/1999/xlink"
   xmlns:sodipodi="http://sodipodi.sourceforge.net/DTD/sodipodi-0.dtd"
   xmlns:inkscape="http://www.inkscape.org/namespaces/inkscape"
   xml:space="preserve"
   width="320"
   height="320"
   style="fill-rule:evenodd"
   viewBox="0 0 12.78064 11.703886"
   id="svg2"
   sodipodi:version="0.32"
   inkscape:version="0.48.3.1 r9886"
   sodipodi:docname="censorship-glove.svg"
   inkscape:output_extension="org.inkscape.output.svg.inkscape"
   version="1.0"
   inkscape:export-filename="/mnt/worksp/home/ckhung/public_html/m/13/censorship-glove.png"
   inkscape:export-xdpi="199.96875"
   inkscape:export-ydpi="199.96875"><sodipodi:namedview
   inkscape:window-height="719"
   inkscape:window-width="1024"
   inkscape:pageshadow="2"
   inkscape:pageopacity="0.0"
   guidetolerance="10.0"
   gridtolerance="10.0"
   objecttolerance="10.0"
   borderopacity="1.0"
   bordercolor="#666666"
   pagecolor="#ffffff"
   id="base"
   showgrid="false"
   width="300px"
   borderlayer="true"
   inkscape:zoom="1.615625"
   inkscape:cx="161.74565"
   inkscape:cy="157.00098"
   inkscape:window-x="-1"
   inkscape:window-y="-4"
   inkscape:current-layer="svg2"
   fit-margin-top="0"
   fit-margin-left="0"
   fit-margin-right="0"
   fit-margin-bottom="0"
   inkscape:window-maximized="1" />
 <defs
   id="defs4"><linearGradient
   id="linearGradient3836"><stop
     style="stop-color:#ffff00;stop-opacity:1;"
     offset="0"
     id="stop3838" /><stop
     id="stop3846"
     offset="0.64719725"
     style="stop-color:#ffff00;stop-opacity:0.75229359;" /><stop
     style="stop-color:#ffff00;stop-opacity:0;"
     offset="1"
     id="stop3840" /></linearGradient><marker
   inkscape:stockid="Arrow1Lend"
   orient="auto"
   refY="0"
   refX="0"
   id="Arrow1Lend"
   style="overflow:visible"><path
     id="path3809"
     d="M 0,0 5,-5 -12.5,0 5,5 0,0 z"
     style="fill-rule:evenodd;stroke:#000000;stroke-width:1pt;marker-start:none"
     transform="matrix(-0.8,0,0,-0.8,-10,0)"
     inkscape:connector-curvature="0" /></marker>
  <style
   type="text/css"
   id="style6">
   
    .str2 {stroke:black;stroke-width:0.00562512;stroke-linecap:round}
    .str7 {stroke:black;stroke-width:0.0058717;stroke-linecap:round}
    .str1 {stroke:black;stroke-width:0.00920054;stroke-linecap:round}
    .str4 {stroke:black;stroke-width:0.00959738;stroke-linecap:round}
    .str3 {stroke:white;stroke-width:0.0147332;stroke-linecap:round}
    .str6 {stroke:black;stroke-width:0.0153574;stroke-linecap:round}
    .str8 {stroke:white;stroke-width:0.0153574;stroke-linecap:round}
    .str0 {stroke:black;stroke-width:0.0221537;stroke-linecap:round}
    .str5 {stroke:black;stroke-width:0.0230938;stroke-linecap:round}
    .fil0 {fill:none;fill-rule:nonzero}
   
  </style>
 
  <metadata
   id="CorelCorpID_0Corel-Layer" />
  
  
  
  
  
  
  
  
  
  
  
  
  
  
  
  
  
  
  
 <radialGradient
   inkscape:collect="always"
   xlink:href="#linearGradient3836"
   id="radialGradient3844"
   cx="6.8723712"
   cy="10.993859"
   fx="6.8723712"
   fy="10.993859"
   r="5.265521"
   gradientTransform="matrix(0.97183092,0.00469484,-0.00112266,0.23239118,0.20593046,8.4067189)"
   gradientUnits="userSpaceOnUse" /></defs>
 
<metadata
   id="metadata11"><rdf:RDF><cc:Work><dc:format>image/svg+xml</dc:format><dc:type
         rdf:resource="http://purl.org/dc/dcmitype/StillImage" /><cc:license
         rdf:resource="http://creativecommons.org/licenses/publicdomain/" /><dc:publisher><cc:Agent
           rdf:about="http://openclipart.org/"><dc:title>Open Clip Art Library</dc:title></cc:Agent></dc:publisher><dc:title>Various Clothing</dc:title><dc:date>2006-11-30T07:03:56</dc:date><dc:description /><dc:source>http://openclipart.org/detail/11225/various-clothing-by-jicjac-11225</dc:source><dc:creator><cc:Agent><dc:title>JicJac</dc:title></cc:Agent></dc:creator><dc:subject><rdf:Bag><rdf:li>cap</rdf:li><rdf:li>cap</rdf:li><rdf:li>clip art</rdf:li><rdf:li>clipart</rdf:li><rdf:li>clothing</rdf:li><rdf:li>clothing</rdf:li><rdf:li>glove</rdf:li><rdf:li>glove</rdf:li><rdf:li>image</rdf:li><rdf:li>jacket</rdf:li><rdf:li>jacket</rdf:li><rdf:li>media</rdf:li><rdf:li>pants</rdf:li><rdf:li>pants</rdf:li><rdf:li>png</rdf:li><rdf:li>public domain</rdf:li><rdf:li>scarf</rdf:li><rdf:li>scarf</rdf:li><rdf:li>svg</rdf:li></rdf:Bag></dc:subject></cc:Work><cc:License
       rdf:about="http://creativecommons.org/licenses/publicdomain/"><cc:permits
         rdf:resource="http://creativecommons.org/ns#Reproduction" /><cc:permits
         rdf:resource="http://creativecommons.org/ns#Distribution" /><cc:permits
         rdf:resource="http://creativecommons.org/ns#DerivativeWorks" /></cc:License></rdf:RDF></metadata><image
   y="-0.53837699"
   x="0"
   id="image3015"
   xlink:href="file:///home/ckhung/public_html/m/13/many-hands.jpg"
   height="12.78064"
   width="12.78064" /><g
   id="g2638"
   transform="matrix(-1.4998723,-1.4998723,-1.4998723,1.4998723,18.238331,-9.5910798)"><path
     class="fil0 str0"
     d="m 0.747324,9.62387 c 0.0149104,0.160262 0.0335311,0.26462 0.0186323,0.327983 -0.0149104,0.063367 -0.0409902,0.104361 0.0111732,0.104361 0.0521788,0 0.0819881,0.0037 0.167698,0.0037 0.0857099,0 0.167698,-0.0074 0.238509,-0.0037 0.070803,0.0037 0.085714,-0.0037 0.13043,-0.0037 0.044716,0 0.037268,0.01117 0.081988,0.01117 0.044716,0 0.059626,0 0.093157,-0.0149 0.033546,-0.01491 0.119256,-0.02237 0.089436,-0.059642 C 1.5485385,9.951874 1.5448165,9.78789 1.5522635,9.612717 m 0,0 c 0.070799,-0.134182 0.156509,-0.272083 0.163972,-0.398802 0.00745,-0.126731 0.01491,-0.134178 0.078262,-0.242262 0.063352,-0.108095 0.089436,-0.171447 0.141599,-0.234814 0.052183,-0.063363 0.100624,-0.108083 0.074541,-0.186357 -0.026084,-0.078262 -0.074541,-0.111809 -0.152788,-0.108083 -0.078262,0.00373 -0.141614,0.059642 -0.216151,0.152815 -0.074525,0.093173 -0.108072,0.149073 -0.14534,0.227351 m 0,0 c 0,-0.14163 0.00374,-0.365255 0.018636,-0.503159 0.01491,-0.137904 0.026095,-0.186357 0.029821,-0.272067 0.00372,-0.085725 -0.00746,-0.242266 -0.04472,-0.305629 -0.037268,-0.063367 -0.048453,-0.074537 -0.10062,-0.067089 -0.052179,0.00746 -0.052179,0.040994 -0.074537,0.052179 -0.022358,0.011185 -0.037257,0.040994 -0.048442,0.119268 -0.011173,0.078278 -0.04472,0.331713 -0.033546,0.510607 m 0,0 C 1.2317775,8.118151 1.2243185,7.942978 1.1982345,7.834883 1.1721505,7.7268 1.1348825,7.648537 1.0901665,7.611254 1.0454465,7.573986 0.993268,7.570264 0.9671845,7.596359 0.9411009,7.622443 0.9411009,7.648538 0.9261905,7.663433 0.9112955,7.678343 0.8889221,7.696979 0.9001107,7.782705 0.9112954,7.868427 0.9522895,8.196413 0.959737,8.293324 m 0,0 C 0.9224698,8.1628493 0.8814758,8.0473193 0.8628397,7.9876773 0.844219,7.9280472 0.8106763,7.8236893 0.7845927,7.7752323 0.7584975,7.7267792 0.7137778,7.6895108 0.6727877,7.6895108 c -0.0409825,0 -0.0894356,0.01491 -0.100624,0.070811 -0.0111693,0.055905 0.007463,0.067093 -0.003722,0.089451 -0.0111732,0.022373 0,0.078274 0.0149104,0.141626 0.0149104,0.063367 0.108068,0.354082 0.141614,0.428623 m 0,0 c -0.0894356,-0.178898 -0.115531,-0.320539 -0.163972,-0.387613 -0.0484415,-0.067093 -0.134155,-0.108099 -0.178871,-0.074552 -0.0447313,0.033543 -0.0782624,0.100632 -0.048457,0.182632 0.0298209,0.082003 0.13043,0.313077 0.171424,0.402528 0.040994,0.089447 0.0260952,0.063352 0.0372684,0.193805 0.0111847,0.130441 0.0149104,0.368981 0.0298054,0.491975 0.0149104,0.123005 0.0857253,0.335446 0.175161,0.395076"
     id="path10"
     style="fill:none;stroke:#000000;stroke-width:0.0221537;stroke-linecap:round"
     inkscape:connector-curvature="0" /><path
     class="fil0 str1"
     d="M 0.77713,9.60896 C 0.818124,9.571688 0.8218613,9.597787 0.8628399,9.597787 c 0.040994,0 0.0782624,0.022358 0.104346,0 0.0260836,-0.022358 0.0819881,-0.026099 0.089451,-0.033546 0.00745,-0.00746 0.022358,-0.00372 0.029805,0.00745 0.00745,0.011189 0.074537,0.029821 0.10062,0.011189 0.026084,-0.018636 0.033531,-0.01491 0.052167,-0.018636 0.018632,-0.00372 0.044716,0.00745 0.059626,0.01491 0.01491,0.00745 0.055905,0.022358 0.074537,0.011173 0.018621,-0.011173 -0.018632,-0.00745 0.022362,-0.022358 0.04099,-0.01491 0.04099,0.00372 0.044716,0.01491 0.00373,0.011185 -0.00746,0.037268 0.026084,0.022358 0.033543,-0.01491 0.033543,-0.022358 0.037268,-0.00745 m -0.696872,0.022358 c 0.0372684,0.126716 0.0111732,0.301888 0.0111732,0.346619 0,0.044719 -0.0186361,0.037268 -0.0223579,0.048457 m 0.72079,-0.3874243 c -0.00338,0.027143 -0.012814,0.292687 0.011801,0.33795 m -0.043171,-0.341876 c -0.00372,0.029817 -0.011185,0.331709 0.018636,0.36153 m -0.637242,0.026831 c 0.002936,-0.01048 0.0193527,-0.0047 0.019083,-0.046269 -0.001753,-0.048415 0.022331,-0.228835 -0.0108881,-0.345452 M 0.9373786,10.009253 C 0.9395246,9.999483 0.953757,10.003553 0.9531983,9.965177 0.9496923,9.913064 0.9717651,9.7274 0.9425953,9.620893 m 0.0655828,0.385387 c 0.00137,-0.00907 0.013389,-0.00666 0.012545,-0.041908 -0.00523,-0.055793 0.020035,-0.273901 -0.00508,-0.37031 m 0.063352,0.409225 c 5.818e-4,-0.00836 0.010395,-0.00762 0.00927,-0.039701 -0.00699,-0.059491 0.011061,-0.255639 -0.010017,-0.341946 m 0.071547,0.378671 c -2.042e-4,-0.00765 0.00741,-0.0086 0.00601,-0.037525 -0.00874,-0.063175 0.0073,-0.26457 -0.00973,-0.340778 m 0.074525,0.375315 c -9.786e-4,-0.00695 0.00443,-0.00957 0.00273,-0.035338 -0.01048,-0.066862 0.00355,-0.273497 -0.00943,-0.339596 m 0.077515,0.371955 c -0.00178,-0.00624 0.00143,-0.010545 -5.433e-4,-0.03315 -0.012233,-0.070557 -2.196e-4,-0.282439 -0.00915,-0.33844 m 0.080489,0.368615 c -0.00255,-0.00555 -0.00156,-0.011543 -0.00381,-0.030977 -0.013986,-0.07424 -0.00398,-0.29137 -0.00886,-0.337272 m 0.083468,0.365255 C 1.4296688,9.983555 1.4284688,9.975873 1.4259388,9.959602 1.4102118,9.881667 1.4181988,9.65929 1.4173588,9.623501 m 0.060374,0.369347 c -0.044731,-0.00447 -0.055905,0.014911 -0.096895,0.018636 -0.040994,0.0037 -0.14534,0.01118 -0.212418,0.0075 -0.067074,-0.0037 -0.18260501,-0.0037 -0.20124101,0.0075 m 0.45464901,0.0037 c 0.055905,-0.01117 0.108072,-0.02608 0.108072,-0.02608 M 1.0193642,9.5381451 C 0.97091109,9.4002411 0.90011119,9.3219791 0.89266019,9.2511641 m 0.29067601,0.294444 c 0.011173,-0.078278 -0.01491,-0.067093 0.00373,-0.15654"
     id="path12"
     style="fill:none;stroke:#000000;stroke-width:0.00920054;stroke-linecap:round"
     inkscape:connector-curvature="0" /><path
     class="fil0 str2"
     d="M 1.51714,9.59381 1.550101,9.532469 C 1.609238,9.423423 1.670402,9.313952 1.676424,9.211552 1.678764,9.171714 1.681184,9.14313 1.685104,9.119562 1.694594,9.062625 1.711962,9.033567 1.759737,8.952068 L 1.812394,8.858367 1.8121782,8.85876 c 0.032036,-0.058555 0.05654,-0.102863 0.09313,-0.147282 L 1.9217672,8.691809 C 1.9480282,8.660643 1.9727902,8.635049 1.9773862,8.601846 1.9790062,8.590103 1.977575,8.577435 1.9727862,8.563083 1.9629362,8.533493 1.9498732,8.51169 1.9308442,8.498302 1.9122772,8.485225 1.8886252,8.480853 1.8597292,8.482224 c -0.018212,8.707e-4 -0.035365,0.00546 -0.052044,0.013308 -0.045679,0.021472 -0.08734,0.065186 -0.134845,0.124581 -0.072009,0.090021 -0.104481,0.14398 -0.14047,0.219592 m -0.046769,0.737157 0.039006,-0.07246 c 0.054544,-0.100497 0.11053,-0.200617 0.116078,-0.294941 0.00243,-0.041483 0.00503,-0.07125 0.00912,-0.095785 0.010152,-0.060959 0.027891,-0.092452 0.079048,-0.179711 l -3.236e-4,5.702e-4 0.052803,-0.093974 c 0.032714,-0.059792 0.058351,-0.105702 0.096355,-0.151847 l 0.025332,-0.030121 c 0.017996,-0.021067 0.035693,-0.038409 0.038902,-0.061653 9.516e-4,-0.00683 -3.005e-4,-0.014163 -0.00309,-0.022535 -0.00701,-0.021025 -0.015072,-0.037311 -0.028584,-0.046823 -0.01268,-0.00893 -0.0291,-0.010534 -0.048823,-0.0096 -0.013481,6.396e-4 -0.026164,0.00413 -0.038505,0.00994 -0.041672,0.019588 -0.078806,0.060389 -0.122138,0.114568 -0.069724,0.087162 -0.101244,0.139384 -0.136109,0.212603 m -0.104111,-0.032537 c 0,-0.142716 0.00382,-0.368041 0.018836,-0.507005 l 0.015727,-0.129628 c 0.00677,-0.05177 0.011701,-0.089243 0.013916,-0.140158 0.00348,-0.080112 -0.00499,-0.2267 -0.039811,-0.285922 -0.014691,-0.024982 -0.023159,-0.040732 -0.034113,-0.048727 -0.00154,-0.00111 -0.00316,-0.00181 -0.005,-0.00217 -0.00685,-0.00139 -0.014964,-4.2e-4 -0.025591,0.0011 -0.00617,8.823e-4 -0.011189,0.00223 -0.015292,0.0041 -0.00901,0.00408 -0.01305,0.010738 -0.017168,0.016174 -0.00631,0.00833 -0.012545,0.015793 -0.020143,0.021611 -0.00338,0.00259 -0.00703,0.00489 -0.01098,0.00688 -0.00202,9.941e-4 -0.00364,0.00269 -0.00527,0.00494 -0.010726,0.014749 -0.017168,0.041318 -0.023745,0.087371 -0.011023,0.07716 -0.044269,0.326978 -0.033261,0.503321 m -0.068707,0.00378 -0.00104,-0.022181 c -0.010495,-0.224404 -0.017835,-0.390006 -0.04279,-0.4934 -0.023922,-0.09911 -0.056105,-0.171828 -0.097114,-0.205999 -0.016663,-0.013889 -0.034494,-0.022004 -0.050819,-0.023745 -0.00633,-6.781e-4 -0.012356,-3.661e-4 -0.017711,0.00123 -0.003818,0.00111 -0.007259,0.00291 -0.009936,0.00559 -0.0111847,0.011185 -0.0156271,0.022589 -0.0197727,0.03221 -0.005983,0.013905 -0.0120015,0.025648 -0.0212175,0.03488 l -0.001699,0.00168 c -0.004446,0.0044 -0.0100597,0.00938 -0.0134964,0.019491 -0.001715,0.00503 -0.002936,0.011146 -0.003629,0.018648 -0.001225,0.013238 -7.0891e-4,0.030052 0.002134,0.051813 l 0.0596802,0.511054 m -0.300274,0.146904 C 0.6464035,8.3446512 0.6168677,8.2625702 0.592595,8.1949652 0.5705877,8.1336782 0.5538857,8.0850212 0.5313621,8.0538252 0.5039069,8.0158092 0.4626277,7.9867242 0.4273431,7.9828482 c -0.008765,-9.516e-4 -0.0170025,-4.353e-4 -0.023298,0.00428 -0.0118089,0.00887 -0.0225467,0.02084 -0.0306068,0.0353 -0.008114,0.014556 -0.0134579,0.031628 -0.0143941,0.050603 -8.2835e-4,0.017003 0.001876,0.035446 0.008985,0.05498 0.0296012,0.081441 0.129586,0.310954 0.170291,0.399792 0.0333154,0.072687 0.0330842,0.077053 0.0355847,0.130345 l -4.238e-5,-6.665e-4 0.004989,0.077122 c 0.004743,0.055361 0.00821,0.131555 0.0117434,0.210021 0.00465,0.103082 0.00942,0.210145 0.0178617,0.279804 0.00996,0.082177 0.045995,0.20623 0.0960509,0.292768 0.0192487,0.033288 0.0401117,0.060963 0.0630823,0.076278 m -0.141345,-0.929548 c -0.0123136,0.00982 -0.008576,0.067633 -0.008576,0.067633 0.004774,0.055496 0.008264,0.132264 0.0118282,0.211312 0.004604,0.101996 0.00927,0.207945 0.0176151,0.276868 0.009459,0.078016 0.043587,0.195804 0.0911039,0.27797 0.0158081,0.027347 0.0321056,0.050776 0.0509844,0.063364 m 0.141083,-1.25933 c -0.0257831,-0.090237 -0.0533616,-0.173285 -0.0739935,-0.235465 l -0.0226854,-0.069443 c -0.0181429,-0.058089 -0.050576,-0.159854 -0.0759931,-0.207058 -0.0150299,-0.027929 -0.0371451,-0.051786 -0.0609054,-0.063325 -0.007948,-0.00386 -0.0160085,-0.00628 -0.0239183,-0.00628 -0.0151031,0 -0.0316432,0.00226 -0.0454787,0.00995 -0.004866,0.0027 -0.009366,0.00611 -0.0131844,0.01048 -0.005683,0.00648 -0.009759,0.014991 -0.0119091,0.025756 -0.004947,0.024735 -0.002813,0.038833 -0.00121,0.049432 0.001795,0.011759 0.002558,0.021206 5.7407e-4,0.031181 -0.001048,0.00529 -0.005737,0.016529 -0.005737,0.016529 0,0 0.0047,0.067213 0.01733,0.120913 0.0147062,0.062535 0.106627,0.34949 0.139723,0.423063 m -0.0700096,0.081795 c 0.0235947,-0.018879 0.0471894,-0.056652 0.09911,-0.056652 m 0.132167,-0.070815 c 0.0330418,-0.018879 0.080235,-0.023595 0.10384491,-0.014163 m 0.174625,0.056652 c 0.047205,0 0.080247,0 0.084966,0.00945 m 0.056636,0.500385 c -0.084963,0.00945 -0.169913,0.070815 -0.184076,0.141614"
     id="path14"
     style="fill:none;stroke:#000000;stroke-width:0.00562512;stroke-linecap:round"
     inkscape:connector-curvature="0" /></g><image
   y="1.0223544"
   x="2.9575729"
   id="image3061"
   xlink:href="file:///home/ckhung/public_html/m/13/cyberangel.jpg"
   height="1.4733199"
   width="0.99013436" /><text
   xml:space="preserve"
   style="font-size:1.59757996px;font-style:normal;font-weight:normal;line-height:125%;letter-spacing:0px;word-spacing:0px;fill:#000000;fill-opacity:1;stroke:none;font-family:Sans"
   x="4.3881311"
   y="0.47389674"
   id="text3064"
   sodipodi:linespacing="125%"><tspan
     sodipodi:role="line"
     id="tspan3066"
     x="4.3881311"
     y="0.47389674" /></text>











<text
   xml:space="preserve"
   style="font-size:0.319516px;font-style:normal;font-weight:normal;line-height:125%;letter-spacing:0px;word-spacing:0px;fill:#000000;fill-opacity:1;stroke:none;font-family:Sans"
   x="1.6605957"
   y="2.8728199"
   id="text3072"
   sodipodi:linespacing="125%"><tspan
     sodipodi:role="line"
     id="tspan3074"
     x="1.6605957"
     y="2.8728199">白絲帶關懷協會</tspan></text>








<image
   y="-0.35680166"
   x="7.2703118"
   id="image3121"
   xlink:href="file:///home/ckhung/public_html/m/13/censorship.jpg"
   height="3.8171649"
   width="5.0895534" /><text
   xml:space="preserve"
   style="font-size:0.479274px;font-style:normal;font-weight:normal;text-align:center;line-height:125%;letter-spacing:0px;word-spacing:0px;text-anchor:middle;fill:#000000;fill-opacity:1;stroke:none;font-family:Sans"
   x="11.021588"
   y="5.8219709"
   id="text3124"
   sodipodi:linespacing="125%"><tspan
     sodipodi:role="line"
     id="tspan3126"
     x="11.021588"
     y="5.8219709">國防部</tspan><tspan
     sodipodi:role="line"
     x="11.021588"
     y="6.4210634"
     id="tspan3128">「洪仲丘懶人包」</tspan></text>








<text
   xml:space="preserve"
   style="font-size:0.479274px;font-style:normal;font-weight:normal;line-height:125%;letter-spacing:0px;word-spacing:0px;fill:#000000;fill-opacity:1;stroke:none;font-family:Sans"
   x="8.0816383"
   y="4.6733928"
   id="text3130"
   sodipodi:linespacing="125%"><tspan
     sodipodi:role="line"
     id="tspan3132"
     x="8.0816383"
     y="4.6733928" /></text>








<text
   xml:space="preserve"
   style="font-size:0.479274px;font-style:normal;font-weight:normal;text-align:center;line-height:125%;letter-spacing:0px;word-spacing:0px;text-anchor:middle;fill:#000000;fill-opacity:1;stroke:none;font-family:Sans"
   x="6.553947"
   y="7.7960973"
   id="text3134"
   sodipodi:linespacing="125%"><tspan
     sodipodi:role="line"
     id="tspan3136"
     x="6.553947"
     y="7.7960973">衛生署</tspan><tspan
     sodipodi:role="line"
     x="6.553947"
     y="8.3951902"
     id="tspan3138">「不能戳的秘密」</tspan></text>








<text
   xml:space="preserve"
   style="font-size:0.479274px;font-style:normal;font-weight:normal;text-align:center;line-height:125%;letter-spacing:0px;word-spacing:0px;text-anchor:middle;fill:#000000;fill-opacity:1;stroke:none;font-family:Sans"
   x="2.265116"
   y="8.9582033"
   id="text3140"
   sodipodi:linespacing="125%"><tspan
     sodipodi:role="line"
     id="tspan3142"
     x="2.265116"
     y="8.9582033">教育部</tspan><tspan
     sodipodi:role="line"
     x="2.265116"
     y="9.5572958"
     id="tspan3144">「智財洗腦」</tspan></text>








<text
   xml:space="preserve"
   style="font-size:0.479274px;font-style:normal;font-weight:normal;text-align:center;line-height:125%;letter-spacing:0px;word-spacing:0px;text-anchor:middle;fill:#000000;fill-opacity:1;stroke:none;font-family:Sans"
   x="9.1996088"
   y="6.9936523"
   id="text3146"
   sodipodi:linespacing="125%"><tspan
     sodipodi:role="line"
     id="tspan3148"
     x="9.1996088"
     y="6.9936523">NCC</tspan><tspan
     sodipodi:role="line"
     x="9.1996088"
     y="7.6408172"
     id="tspan3150">「挑戰總開關」</tspan></text>








<text
   xml:space="preserve"
   style="font-size:0.479274px;font-style:normal;font-weight:normal;text-align:center;line-height:125%;letter-spacing:0px;word-spacing:0px;text-anchor:middle;fill:#000000;fill-opacity:1;stroke:none;font-family:Sans"
   x="10.825931"
   y="8.2874861"
   id="text3152"
   sodipodi:linespacing="125%"><tspan
     sodipodi:role="line"
     id="tspan3154"
     x="10.825931"
     y="8.2874861">法務部</tspan><tspan
     sodipodi:role="line"
     x="10.825931"
     y="8.8865786"
     id="tspan3156">「司法改革雜誌</tspan><tspan
     sodipodi:role="line"
     x="10.825931"
     y="9.485671"
     id="tspan3158">銷毀」</tspan></text>








<text
   xml:space="preserve"
   style="font-size:0.479274px;font-style:normal;font-weight:normal;text-align:center;line-height:125%;letter-spacing:0px;word-spacing:0px;text-anchor:middle;fill:#000000;fill-opacity:1;stroke:none;font-family:Sans"
   x="6.6510267"
   y="6.1580644"
   id="text3015"
   sodipodi:linespacing="125%"><tspan
     sodipodi:role="line"
     id="tspan3017"
     x="6.6510267"
     y="6.1580644">智財局</tspan><tspan
     sodipodi:role="line"
     x="6.6510267"
     y="6.7571568"
     id="tspan3019">「智財洗腦」</tspan></text>







<text
   xml:space="preserve"
   style="font-size:0.479274px;font-style:normal;font-weight:normal;line-height:125%;letter-spacing:0px;word-spacing:0px;fill:#000000;fill-opacity:1;stroke:none;font-family:Sans"
   x="4.541708"
   y="4.1494155"
   id="text3021"
   sodipodi:linespacing="125%"><tspan
     sodipodi:role="line"
     x="4.541708"
     y="4.1494155"
     id="tspan3025">國防布白手套借我! 我也有</tspan><tspan
     sodipodi:role="line"
     x="4.541708"
     y="4.748508"
     id="tspan3027">網頁跟關鍵詞要「處理」!</tspan></text>







<path
   style="fill:none;stroke:#000000;stroke-width:0.0399395px;stroke-linecap:butt;stroke-linejoin:miter;stroke-opacity:1"
   d="m 2.487441,7.3502521 c 0,0 1.3427239,-2.0483547 1.437108,-2.3197092 C 4.0189331,4.7591887 3.9077014,4.053007 4.1436617,3.7580567 4.3796219,3.4631064 10.106204,3.4653559 10.507336,3.6777201 c 0.401133,0.2123642 -0.0092,0.7372944 0.170199,0.9994569 0.136152,0.1989586 0.485944,0.638217 0.485944,0.638217 0,0 -1.125008,-0.5276131 -1.3095796,-0.3657379 C 9.6566063,5.122688 10.062395,7.8165209 10.062395,7.8165209 L 9.3819791,4.831676 8.929953,5.5233626 c 0,0 0.2396617,-0.5147167 0.098085,-0.5855047 -0.1415755,-0.070788 -1.3637746,-0.0866 -1.5809328,0.035394 -0.2171583,0.1219936 -0.6803601,0.698859 -0.6803601,0.698859 0,0 0.1039324,-0.1690733 -0.00225,-0.4522256 C 6.6583132,4.936733 6.3616878,4.9260598 6.1729197,5.020444 5.9841517,5.114828 4.7768059,6.8361891 4.7768059,6.8361891 c 0,0 0.6050729,-1.264613 0.4163044,-1.524169 C 5.0043423,5.0524637 4.6391782,5.1030301 4.474006,5.2564042 4.3088338,5.4097783 2.487441,7.3502521 2.487441,7.3502521 z"
   id="path3031"
   inkscape:connector-curvature="0"
   sodipodi:nodetypes="csssscscccszcsscssc" /><text
   xml:space="preserve"
   style="font-size:0.479274px;font-style:normal;font-weight:normal;text-align:center;line-height:125%;letter-spacing:0px;word-spacing:0px;text-anchor:middle;fill:#000000;fill-opacity:1;stroke:none;font-family:Sans"
   x="5.9620438"
   y="9.1351404"
   id="text4247"
   sodipodi:linespacing="125%"><tspan
     sodipodi:role="line"
     id="tspan4249"
     x="5.9620438"
     y="9.1351404">經濟部</tspan><tspan
     sodipodi:role="line"
     x="5.9620438"
     y="9.7342329"
     id="tspan4253">「反核名人 關鍵字」</tspan></text>







<rect
   style="fill:#ffff00;fill-opacity:0.54109593;stroke:none"
   id="rect3822"
   width="8.355608"
   height="2.101258"
   x="4.3261352"
   y="9.9679508" /><text
   xml:space="preserve"
   style="font-size:0.71891099px;font-style:normal;font-weight:normal;text-align:center;line-height:125%;letter-spacing:0px;word-spacing:0px;text-anchor:middle;fill:#0000ff;fill-opacity:1;stroke:none;font-family:Sans"
   x="8.4258575"
   y="10.826803"
   id="text3068"
   sodipodi:linespacing="125%"><tspan
     id="tspan3810"
     sodipodi:role="line"
     x="8.4258575"
     y="10.826803">「Win網路贏家單e窗口」</tspan><tspan
     sodipodi:role="line"
     x="8.4258575"
     y="11.802297"
     id="tspan3824">真實版國防布準備啟動</tspan></text>





<path
   style="fill:none;stroke:#000000;stroke-width:0.0399395px;stroke-linecap:butt;stroke-linejoin:miter;stroke-opacity:1"
   d="M 4.6475054,3.8372002 5.908265,4.1091286"
   id="path3816"
   inkscape:connector-curvature="0"
   sodipodi:nodetypes="cc" /><text
   xml:space="preserve"
   style="font-size:0.479274px;font-style:normal;font-weight:normal;text-align:center;line-height:125%;letter-spacing:0px;word-spacing:0px;text-anchor:middle;fill:#000000;fill-opacity:1;stroke:none;font-family:Sans"
   x="1.7207906"
   y="10.561251"
   id="text3035"
   sodipodi:linespacing="125%"><tspan
     sodipodi:role="line"
     id="tspan3037"
     x="1.7207906"
     y="10.561251">國家政策</tspan><tspan
     sodipodi:role="line"
     x="1.7207906"
     y="11.160343"
     id="tspan3041">研究基金會</tspan><tspan
     sodipodi:role="line"
     x="1.7207906"
     y="11.759436"
     id="tspan3039">「TPP 侵權」</tspan></text>




<text
   xml:space="preserve"
   style="font-size:0.479274px;font-style:normal;font-weight:normal;text-align:start;line-height:125%;letter-spacing:0px;word-spacing:0px;text-anchor:start;fill:#000000;fill-opacity:1;stroke:none;font-family:Sans"
   x="0.38183838"
   y="5.5429325"
   id="text3038"
   sodipodi:linespacing="125%"><tspan
     sodipodi:role="line"
     id="tspan3040"
     x="0.38183838"
     y="5.5429325">苗栗縣政府</tspan><tspan
     sodipodi:role="line"
     x="0.38183838"
     y="6.142025"
     id="tspan3043">「臉書挺大埔」</tspan><tspan
     sodipodi:role="line"
     x="0.38183838"
     y="6.7411175"
     id="tspan3044">「<tspan
   style="fill:#ff0000"
   id="tspan3050">劉政宗 賴紹本</tspan>」</tspan><tspan
     sodipodi:role="line"
     x="0.38183838"
     y="7.34021"
     id="tspan3047">「<tspan
   style="fill:#ff0000"
   id="tspan3049">陳萬連 墜樓</tspan>」</tspan><tspan
     sodipodi:role="line"
     x="0.38183838"
     y="7.9393024"
     id="tspan3046">(劉有死亡筆記本嗎?)</tspan></text>



</svg>