<?xml version="1.0" encoding="UTF-8" standalone="no"?>
<!-- Generated by graphviz version 2.26.3 (20100126.1600)
 -->

<!-- Title: 樹狀結構 Pages: 1 -->

<svg
   xmlns:dc="http://purl.org/dc/elements/1.1/"
   xmlns:cc="http://creativecommons.org/ns#"
   xmlns:rdf="http://www.w3.org/1999/02/22-rdf-syntax-ns#"
   xmlns:svg="http://www.w3.org/2000/svg"
   xmlns="http://www.w3.org/2000/svg"
   xmlns:sodipodi="http://sodipodi.sourceforge.net/DTD/sodipodi-0.dtd"
   xmlns:inkscape="http://www.inkscape.org/namespaces/inkscape"
   width="1602.8324"
   height="852.49609"
   viewBox="0 0 1281.5395 682.04702"
   id="svg2"
   version="1.1"
   inkscape:version="0.48.3.1 r9886"
   sodipodi:docname="hierarchy-vs-p2p.svg"
   inkscape:export-filename="/mnt/worksp/home/ckhung/public_html/m/13/hierarchy-vs-p2p.png"
   inkscape:export-xdpi="90"
   inkscape:export-ydpi="90">
  <metadata
     id="metadata300">
    <rdf:RDF>
      <cc:Work
         rdf:about="">
        <dc:format>image/svg+xml</dc:format>
        <dc:type
           rdf:resource="http://purl.org/dc/dcmitype/StillImage" />
        <dc:title></dc:title>
      </cc:Work>
    </rdf:RDF>
  </metadata>
  <defs
     id="defs298">
    <marker
       inkscape:stockid="Arrow1Mend"
       orient="auto"
       refY="0.0"
       refX="0.0"
       id="Arrow1Mend"
       style="overflow:visible;">
      <path
         id="path4442"
         d="M 0.0,0.0 L 5.0,-5.0 L -12.5,0.0 L 5.0,5.0 L 0.0,0.0 z "
         style="fill-rule:evenodd;stroke:#000000;stroke-width:1.0pt;"
         transform="scale(0.4) rotate(180) translate(10,0)" />
    </marker>
    <marker
       inkscape:stockid="Arrow1Lend"
       orient="auto"
       refY="0.0"
       refX="0.0"
       id="Arrow1Lend"
       style="overflow:visible;">
      <path
         id="path4436"
         d="M 0.0,0.0 L 5.0,-5.0 L -12.5,0.0 L 5.0,5.0 L 0.0,0.0 z "
         style="fill-rule:evenodd;stroke:#000000;stroke-width:1.0pt;"
         transform="scale(0.8) rotate(180) translate(12.5,0)" />
    </marker>
  </defs>
  <sodipodi:namedview
     pagecolor="#ffffff"
     bordercolor="#666666"
     borderopacity="1"
     objecttolerance="10"
     gridtolerance="10"
     guidetolerance="10"
     inkscape:pageopacity="1"
     inkscape:pageshadow="2"
     inkscape:window-width="1024"
     inkscape:window-height="719"
     id="namedview296"
     showgrid="false"
     fit-margin-top="0"
     fit-margin-left="0"
     fit-margin-right="0"
     fit-margin-bottom="0"
     inkscape:zoom="0.55963431"
     inkscape:cx="801.4162"
     inkscape:cy="422.67429"
     inkscape:window-x="-1"
     inkscape:window-y="-4"
     inkscape:window-maximized="1"
     inkscape:current-layer="svg2" />
  <g
     class="node"
     id="node1"
     transform="translate(4.3604998,676.547)">
    <title
       id="title10">principal</title>
    <ellipse
       style="fill:none;stroke:#000000"
       sodipodi:ry="18"
       sodipodi:rx="30.186899"
       sodipodi:cy="-336.02399"
       sodipodi:cx="378.76999"
       d="m 408.95689,-336.02399 c 0,9.94113 -13.51514,18 -30.1869,18 -16.67177,0 -30.1869,-8.05887 -30.1869,-18 0,-9.94112 13.51513,-18 30.1869,-18 16.67176,0 30.1869,8.05888 30.1869,18 z"
       id="ellipse12"
       ry="18"
       rx="30.186899"
       cy="-336.02399"
       cx="378.76999" />
    <text
       style="font-size:14px;text-anchor:middle;font-family:'Times Roman,serif'"
       id="text14"
       font-size="14.00"
       y="-331.42401"
       x="378.76999">校長</text>
  </g>
  <g
     class="node"
     id="node2"
     transform="translate(4.3604998,676.547)">
    <title
       id="title17">d_management</title>
    <ellipse
       style="fill:none;stroke:#000000"
       sodipodi:ry="18"
       sodipodi:rx="67.924202"
       sodipodi:cy="-429.70801"
       sodipodi:cx="507.715"
       d="m 575.6392,-429.70801 c 0,9.94113 -30.4107,18 -67.9242,18 -37.5135,0 -67.92421,-8.05887 -67.92421,-18 0,-9.94112 30.41071,-18 67.92421,-18 37.5135,0 67.9242,8.05888 67.9242,18 z"
       id="ellipse19"
       ry="18"
       rx="67.924202"
       cy="-429.70801"
       cx="507.715" />
    <text
       style="font-size:14px;text-anchor:middle;font-family:'Times Roman,serif'"
       id="text21"
       font-size="14.00"
       y="-425.108"
       x="507.715">管理學院院長</text>
  </g>
  <g
     class="edge"
     id="edge3"
     transform="translate(4.3604998,676.547)">
    <title
       id="title24">principal-&gt;d_management</title>
    <path
       style="fill:none;stroke:#000000"
       inkscape:connector-curvature="0"
       id="path26"
       d="m 398.074,-350.049 c 20.614,-14.977 53.608,-38.948 78.023,-56.687" />
    <polygon
       style="fill:#000000;stroke:#000000"
       id="polygon28"
       points="474.193,-409.679 484.341,-412.725 478.308,-404.016 474.193,-409.679 " />
  </g>
  <g
     class="node"
     id="node6"
     transform="translate(4.3604998,676.547)">
    <title
       id="title31">d_engineering</title>
    <ellipse
       style="fill:none;stroke:#000000"
       sodipodi:ry="18"
       sodipodi:rx="67.924202"
       sodipodi:cy="-487.608"
       sodipodi:cx="329.517"
       d="m 397.4412,-487.608 c 0,9.94112 -30.4107,18 -67.9242,18 -37.5135,0 -67.9242,-8.05888 -67.9242,-18 0,-9.94113 30.4107,-18 67.9242,-18 37.5135,0 67.9242,8.05887 67.9242,18 z"
       id="ellipse33"
       ry="18"
       rx="67.924202"
       cy="-487.608"
       cx="329.517" />
    <text
       style="font-size:14px;text-anchor:middle;font-family:'Times Roman,serif'"
       id="text35"
       font-size="14.00"
       y="-483.008"
       x="329.517">理工學院院長</text>
  </g>
  <g
     class="edge"
     id="edge4"
     transform="translate(4.3604998,676.547)">
    <title
       id="title38">principal-&gt;d_engineering</title>
    <path
       style="fill:none;stroke:#000000"
       inkscape:connector-curvature="0"
       id="path40"
       d="m 373.024,-353.709 c -8.481,-26.102 -24.429,-75.182 -34.481,-106.119" />
    <polygon
       style="fill:#000000;stroke:#000000"
       id="polygon42"
       points="335.141,-458.973 335.38,-469.565 341.798,-461.136 335.141,-458.973 " />
  </g>
  <g
     class="node"
     id="node10"
     transform="translate(4.3604998,676.547)">
    <title
       id="title45">d_design</title>
    <ellipse
       style="fill:none;stroke:#000000"
       sodipodi:ry="18"
       sodipodi:rx="67.924202"
       sodipodi:cy="-336.02399"
       sodipodi:cx="219.38499"
       d="m 287.3092,-336.02399 c 0,9.94113 -30.4107,18 -67.92421,18 -37.5135,0 -67.9242,-8.05887 -67.9242,-18 0,-9.94112 30.4107,-18 67.9242,-18 37.51351,0 67.92421,8.05888 67.92421,18 z"
       id="ellipse47"
       ry="18"
       rx="67.924202"
       cy="-336.02399"
       cx="219.38499" />
    <text
       style="font-size:14px;text-anchor:middle;font-family:'Times Roman,serif'"
       id="text49"
       font-size="14.00"
       y="-331.42401"
       x="219.38499">設計學院院長</text>
  </g>
  <g
     class="edge"
     id="edge5"
     transform="translate(4.3604998,676.547)">
    <title
       id="title52">principal-&gt;d_design</title>
    <path
       style="fill:none;stroke:#000000"
       inkscape:connector-curvature="0"
       id="path54"
       d="m 348.416,-336.024 c -14.556,0 -32.732,0 -50.807,0" />
    <polygon
       style="fill:#000000;stroke:#000000"
       id="polygon56"
       points="297.601,-332.524 287.601,-336.024 297.601,-339.524 297.601,-332.524 " />
  </g>
  <g
     class="node"
     id="node14"
     transform="translate(4.3604998,676.547)">
    <title
       id="title59">d_humanities</title>
    <ellipse
       style="fill:none;stroke:#000000"
       sodipodi:ry="18"
       sodipodi:rx="87.877502"
       sodipodi:cy="-184.44"
       sodipodi:cx="329.517"
       d="m 417.3945,-184.44 c 0,9.94112 -39.3441,18 -87.8775,18 -48.53341,0 -87.8775,-8.05888 -87.8775,-18 0,-9.94113 39.34409,-18 87.8775,-18 48.5334,0 87.8775,8.05887 87.8775,18 z"
       id="ellipse61"
       ry="18"
       rx="87.877502"
       cy="-184.44"
       cx="329.517" />
    <text
       style="font-size:14px;text-anchor:middle;font-family:'Times Roman,serif'"
       id="text63"
       font-size="14.00"
       y="-179.84"
       x="329.517">人文社會學院院長</text>
  </g>
  <g
     class="edge"
     id="edge6"
     transform="translate(4.3604998,676.547)">
    <title
       id="title66">principal-&gt;d_humanities</title>
    <path
       style="fill:none;stroke:#000000"
       inkscape:connector-curvature="0"
       id="path68"
       d="m 373.024,-318.338 c -8.481,26.102 -24.429,75.182 -34.481,106.119" />
    <polygon
       style="fill:#000000;stroke:#000000"
       id="polygon70"
       points="341.798,-210.911 335.38,-202.482 335.141,-213.074 341.798,-210.911 " />
  </g>
  <g
     class="node"
     id="node18"
     transform="translate(4.3604998,676.547)">
    <title
       id="title73">d_info</title>
    <ellipse
       style="fill:none;stroke:#000000"
       sodipodi:ry="18"
       sodipodi:rx="67.924202"
       sodipodi:cy="-242.339"
       sodipodi:cx="507.715"
       d="m 575.6392,-242.339 c 0,9.94112 -30.4107,18 -67.9242,18 -37.5135,0 -67.92421,-8.05888 -67.92421,-18 0,-9.94113 30.41071,-18 67.92421,-18 37.5135,0 67.9242,8.05887 67.9242,18 z"
       id="ellipse75"
       ry="18"
       rx="67.924202"
       cy="-242.339"
       cx="507.715" />
    <text
       style="font-size:14px;text-anchor:middle;font-family:'Times Roman,serif'"
       id="text77"
       font-size="14.00"
       y="-237.739"
       x="507.715">資訊學院院長</text>
  </g>
  <g
     class="edge"
     id="edge7"
     transform="translate(4.3604998,676.547)">
    <title
       id="title80">principal-&gt;d_info</title>
    <path
       style="fill:none;stroke:#000000"
       inkscape:connector-curvature="0"
       id="path82"
       d="m 398.074,-321.998 c 20.614,14.977 53.608,38.948 78.023,56.687" />
    <polygon
       style="fill:#000000;stroke:#000000"
       id="polygon84"
       points="478.308,-268.031 484.341,-259.322 474.193,-262.368 478.308,-268.031 " />
  </g>
  <g
     class="node"
     id="node3"
     transform="translate(4.3604998,676.547)">
    <title
       id="title87">h_finance</title>
    <ellipse
       style="fill:none;stroke:#000000"
       sodipodi:ry="18"
       sodipodi:rx="59.0322"
       sodipodi:cy="-402.29999"
       sodipodi:cx="690.57397"
       d="m 749.60617,-402.29999 c 0,9.94113 -26.42961,18 -59.0322,18 -32.60258,0 -59.0322,-8.05887 -59.0322,-18 0,-9.94112 26.42962,-18 59.0322,-18 32.60259,0 59.0322,8.05888 59.0322,18 z"
       id="ellipse89"
       ry="18"
       rx="59.0322"
       cy="-402.29999"
       cx="690.57397" />
    <text
       style="font-size:14px;text-anchor:middle;font-family:'Times Roman,serif'"
       id="text91"
       font-size="14.00"
       y="-397.70001"
       x="690.57397">企管系主任</text>
  </g>
  <g
     class="edge"
     id="edge10"
     transform="translate(4.3604998,676.547)">
    <title
       id="title94">d_management-&gt;h_finance</title>
    <path
       style="fill:none;stroke:#000000"
       inkscape:connector-curvature="0"
       id="path96"
       d="m 567.084,-420.809 c 19.271,2.888 40.717,6.103 60.258,9.032" />
    <polygon
       style="fill:#000000;stroke:#000000"
       id="polygon98"
       points="627.995,-415.218 637.366,-410.275 626.957,-408.296 627.995,-415.218 " />
  </g>
  <g
     class="node"
     id="node4"
     transform="translate(4.3604998,676.547)">
    <title
       id="title101">h_leisure</title>
    <ellipse
       style="fill:none;stroke:#000000"
       sodipodi:ry="18"
       sodipodi:rx="59.0322"
       sodipodi:cy="-523.39203"
       sodipodi:cx="636.65997"
       d="m 695.69217,-523.39203 c 0,9.94113 -26.42961,18 -59.0322,18 -32.60258,0 -59.0322,-8.05887 -59.0322,-18 0,-9.94112 26.42962,-18 59.0322,-18 32.60259,0 59.0322,8.05888 59.0322,18 z"
       id="ellipse103"
       ry="18"
       rx="59.0322"
       cy="-523.39203"
       cx="636.65997" />
    <text
       style="font-size:14px;text-anchor:middle;font-family:'Times Roman,serif'"
       id="text105"
       font-size="14.00"
       y="-518.79199"
       x="636.65997">休閒系主任</text>
  </g>
  <g
     class="edge"
     id="edge11"
     transform="translate(4.3604998,676.547)">
    <title
       id="title108">d_management-&gt;h_leisure</title>
    <path
       style="fill:none;stroke:#000000"
       inkscape:connector-curvature="0"
       id="path110"
       d="m 531.066,-446.673 c 20.722,-15.055 51.171,-37.178 74.053,-53.803" />
    <polygon
       style="fill:#000000;stroke:#000000"
       id="polygon112"
       points="603.335,-503.506 613.483,-506.552 607.45,-497.843 603.335,-503.506 " />
  </g>
  <g
     class="node"
     id="node5"
     transform="translate(4.3604998,676.547)">
    <title
       id="title115">h_marketing</title>
    <ellipse
       style="fill:none;stroke:#000000"
       sodipodi:ry="18"
       sodipodi:rx="59.0322"
       sodipodi:cy="-612.086"
       sodipodi:cx="538.15503"
       d="m 597.18723,-612.086 c 0,9.94113 -26.42962,18 -59.0322,18 -32.60258,0 -59.0322,-8.05887 -59.0322,-18 0,-9.94112 26.42962,-18 59.0322,-18 32.60258,0 59.0322,8.05888 59.0322,18 z"
       id="ellipse117"
       ry="18"
       rx="59.0322"
       cy="-612.086"
       cx="538.15503" />
    <text
       style="font-size:14px;text-anchor:middle;font-family:'Times Roman,serif'"
       id="text119"
       font-size="14.00"
       y="-607.48602"
       x="538.15503">行銷系主任</text>
  </g>
  <g
     class="edge"
     id="edge12"
     transform="translate(4.3604998,676.547)">
    <title
       id="title122">d_management-&gt;h_marketing</title>
    <path
       style="fill:none;stroke:#000000"
       inkscape:connector-curvature="0"
       id="path124"
       d="m 510.745,-447.862 c 5.31,-31.817 16.335,-97.869 22.665,-135.795" />
    <polygon
       style="fill:#000000;stroke:#000000"
       id="polygon126"
       points="530.038,-584.718 535.137,-594.006 536.943,-583.566 530.038,-584.718 " />
  </g>
  <g
     class="node"
     id="node7"
     transform="translate(4.3604998,676.547)">
    <title
       id="title129">h_construction</title>
    <ellipse
       style="fill:none;stroke:#000000"
       sodipodi:ry="18"
       sodipodi:rx="59.0322"
       sodipodi:cy="-653.047"
       sodipodi:cx="412.09"
       d="m 471.1222,-653.047 c 0,9.94113 -26.42962,18 -59.0322,18 -32.60259,0 -59.0322,-8.05887 -59.0322,-18 0,-9.94112 26.42961,-18 59.0322,-18 32.60258,0 59.0322,8.05888 59.0322,18 z"
       id="ellipse131"
       ry="18"
       rx="59.0322"
       cy="-653.047"
       cx="412.09" />
    <text
       style="font-size:14px;text-anchor:middle;font-family:'Times Roman,serif'"
       id="text133"
       font-size="14.00"
       y="-648.44702"
       x="412.09">營建系主任</text>
  </g>
  <g
     class="edge"
     id="edge15"
     transform="translate(4.3604998,676.547)">
    <title
       id="title136">d_engineering-&gt;h_construction</title>
    <path
       style="fill:none;stroke:#000000"
       inkscape:connector-curvature="0"
       id="path138"
       d="m 338.511,-505.627 c 14.457,-28.965 42.957,-86.067 59.931,-120.076" />
    <polygon
       style="fill:#000000;stroke:#000000"
       id="polygon140"
       points="395.51,-627.665 403.107,-635.049 401.773,-624.539 395.51,-627.665 " />
  </g>
  <g
     class="node"
     id="node8"
     transform="translate(4.3604998,676.547)">
    <title
       id="title143">h_chemistry</title>
    <ellipse
       style="fill:none;stroke:#000000"
       sodipodi:ry="18"
       sodipodi:rx="59.0322"
       sodipodi:cy="-639.19202"
       sodipodi:cx="280.26501"
       d="m 339.29721,-639.19202 c 0,9.94113 -26.42961,18 -59.0322,18 -32.60258,0 -59.0322,-8.05887 -59.0322,-18 0,-9.94112 26.42962,-18 59.0322,-18 32.60259,0 59.0322,8.05888 59.0322,18 z"
       id="ellipse145"
       ry="18"
       rx="59.0322"
       cy="-639.19202"
       cx="280.26501" />
    <text
       style="font-size:14px;text-anchor:middle;font-family:'Times Roman,serif'"
       id="text147"
       font-size="14.00"
       y="-634.59198"
       x="280.26501">應化系主任</text>
  </g>
  <g
     class="edge"
     id="edge16"
     transform="translate(4.3604998,676.547)">
    <title
       id="title150">d_engineering-&gt;h_chemistry</title>
    <path
       style="fill:none;stroke:#000000"
       inkscape:connector-curvature="0"
       id="path152"
       d="m 323.674,-505.592 c -8.517,-26.21 -24.412,-75.13 -34.423,-105.943" />
    <polygon
       style="fill:#000000;stroke:#000000"
       id="polygon154"
       points="285.862,-610.639 286.1,-621.231 292.519,-612.802 285.862,-610.639 " />
  </g>
  <g
     class="node"
     id="node9"
     transform="translate(4.3604998,676.547)">
    <title
       id="title157">h_environment</title>
    <ellipse
       style="fill:none;stroke:#000000"
       sodipodi:ry="18"
       sodipodi:rx="59.0322"
       sodipodi:cy="-572.91602"
       sodipodi:cx="165.47099"
       d="m 224.50319,-572.91602 c 0,9.94113 -26.42961,18 -59.0322,18 -32.60258,0 -59.0322,-8.05887 -59.0322,-18 0,-9.94112 26.42962,-18 59.0322,-18 32.60259,0 59.0322,8.05888 59.0322,18 z"
       id="ellipse159"
       ry="18"
       rx="59.0322"
       cy="-572.91602"
       cx="165.47099" />
    <text
       style="font-size:14px;text-anchor:middle;font-family:'Times Roman,serif'"
       id="text161"
       font-size="14.00"
       y="-568.31598"
       x="165.47099">環工系主任</text>
  </g>
  <g
     class="edge"
     id="edge17"
     transform="translate(4.3604998,676.547)">
    <title
       id="title164">d_engineering-&gt;h_environment</title>
    <path
       style="fill:none;stroke:#000000"
       inkscape:connector-curvature="0"
       id="path166"
       d="m 298.661,-503.653 c -26.716,-13.893 -65.49,-34.057 -94.319,-49.049" />
    <polygon
       style="fill:#000000;stroke:#000000"
       id="polygon168"
       points="202.616,-549.655 195.359,-557.373 205.845,-555.865 202.616,-549.655 " />
  </g>
  <g
     class="node"
     id="node11"
     transform="translate(4.3604998,676.547)">
    <title
       id="title171">h_visual</title>
    <ellipse
       style="fill:none;stroke:#000000"
       sodipodi:ry="18"
       sodipodi:rx="59.0322"
       sodipodi:cy="-465.67899"
       sodipodi:cx="87.559097"
       d="m 146.5913,-465.67899 c 0,9.94113 -26.42962,18 -59.032203,18 -32.602583,0 -59.0322,-8.05887 -59.0322,-18 0,-9.94112 26.429617,-18 59.0322,-18 32.602583,0 59.032203,8.05888 59.032203,18 z"
       id="ellipse173"
       ry="18"
       rx="59.0322"
       cy="-465.67899"
       cx="87.559097" />
    <text
       style="font-size:14px;text-anchor:middle;font-family:'Times Roman,serif'"
       id="text175"
       font-size="14.00"
       y="-461.07901"
       x="87.559097">視傳系主任</text>
  </g>
  <g
     class="edge"
     id="edge20"
     transform="translate(4.3604998,676.547)">
    <title
       id="title178">d_design-&gt;h_visual</title>
    <path
       style="fill:none;stroke:#000000"
       inkscape:connector-curvature="0"
       id="path180"
       d="m 201.606,-353.509 c -23.027,-22.649 -63.288,-62.247 -89.295,-87.826" />
    <polygon
       style="fill:#000000;stroke:#000000"
       id="polygon182"
       points="109.731,-438.963 105.056,-448.47 114.64,-443.953 109.731,-438.963 " />
  </g>
  <g
     class="node"
     id="node12"
     transform="translate(4.3604998,676.547)">
    <title
       id="title185">h_industrial</title>
    <ellipse
       style="fill:none;stroke:#000000"
       sodipodi:ry="18"
       sodipodi:rx="59.0322"
       sodipodi:cy="-336.02399"
       sodipodi:cx="60"
       d="m 119.0322,-336.02399 c 0,9.94113 -26.429616,18 -59.0322,18 -32.602584,0 -59.03219986,-8.05887 -59.03219986,-18 0,-9.94112 26.42961586,-18 59.03219986,-18 32.602584,0 59.0322,8.05888 59.0322,18 z"
       id="ellipse187"
       ry="18"
       rx="59.0322"
       cy="-336.02399"
       cx="60" />
    <text
       style="font-size:14px;text-anchor:middle;font-family:'Times Roman,serif'"
       id="text189"
       font-size="14.00"
       y="-331.42401"
       x="60">工設系主任</text>
  </g>
  <g
     class="edge"
     id="edge21"
     transform="translate(4.3604998,676.547)">
    <title
       id="title192">d_design-&gt;h_industrial</title>
    <path
       style="fill:none;stroke:#000000"
       inkscape:connector-curvature="0"
       id="path194"
       d="m 151.329,-336.024 c -7.246,0 -14.623,0 -21.885,0" />
    <polygon
       style="fill:#000000;stroke:#000000"
       id="polygon196"
       points="129.28,-332.524 119.28,-336.024 129.28,-339.524 129.28,-332.524 " />
  </g>
  <g
     class="node"
     id="node13"
     transform="translate(4.3604998,676.547)">
    <title
       id="title199">h_urban</title>
    <ellipse
       style="fill:none;stroke:#000000"
       sodipodi:ry="18"
       sodipodi:rx="59.0322"
       sodipodi:cy="-206.368"
       sodipodi:cx="87.559097"
       d="m 146.5913,-206.368 c 0,9.94113 -26.42962,18 -59.032203,18 -32.602583,0 -59.0322,-8.05887 -59.0322,-18 0,-9.94112 26.429617,-18 59.0322,-18 32.602583,0 59.032203,8.05888 59.032203,18 z"
       id="ellipse201"
       ry="18"
       rx="59.0322"
       cy="-206.368"
       cx="87.559097" />
    <text
       style="font-size:14px;text-anchor:middle;font-family:'Times Roman,serif'"
       id="text203"
       font-size="14.00"
       y="-201.76801"
       x="87.559097">都設系主任</text>
  </g>
  <g
     class="edge"
     id="edge22"
     transform="translate(4.3604998,676.547)">
    <title
       id="title206">d_design-&gt;h_urban</title>
    <path
       style="fill:none;stroke:#000000"
       inkscape:connector-curvature="0"
       id="path208"
       d="m 201.606,-318.538 c -23.027,22.649 -63.288,62.247 -89.295,87.826" />
    <polygon
       style="fill:#000000;stroke:#000000"
       id="polygon210"
       points="114.64,-228.094 105.056,-223.577 109.731,-233.085 114.64,-228.094 " />
  </g>
  <g
     class="node"
     id="node15"
     transform="translate(4.3604998,676.547)">
    <title
       id="title213">h_language</title>
    <ellipse
       style="fill:none;stroke:#000000"
       sodipodi:ry="18"
       sodipodi:rx="59.0322"
       sodipodi:cy="-99.131401"
       sodipodi:cx="165.47099"
       d="m 224.50319,-99.131401 c 0,9.941125 -26.42961,18 -59.0322,18 -32.60258,0 -59.0322,-8.058875 -59.0322,-18 0,-9.941129 26.42962,-17.999999 59.0322,-17.999999 32.60259,0 59.0322,8.05887 59.0322,17.999999 z"
       id="ellipse215"
       ry="18"
       rx="59.0322"
       cy="-99.131401"
       cx="165.47099" />
    <text
       style="font-size:14px;text-anchor:middle;font-family:'Times Roman,serif'"
       id="text217"
       font-size="14.00"
       y="-94.531403"
       x="165.47099">應外系主任</text>
  </g>
  <g
     class="edge"
     id="edge25"
     transform="translate(4.3604998,676.547)">
    <title
       id="title220">d_humanities-&gt;h_language</title>
    <path
       style="fill:none;stroke:#000000"
       inkscape:connector-curvature="0"
       id="path222"
       d="m 297.107,-167.585 c -26.594,13.829 -64.333,33.454 -92.589,48.148" />
    <polygon
       style="fill:#000000;stroke:#000000"
       id="polygon224"
       points="205.816,-116.167 195.329,-114.658 202.586,-122.377 205.816,-116.167 " />
  </g>
  <g
     class="node"
     id="node16"
     transform="translate(4.3604998,676.547)">
    <title
       id="title227">h_social</title>
    <ellipse
       style="fill:none;stroke:#000000"
       sodipodi:ry="18"
       sodipodi:rx="59.0322"
       sodipodi:cy="-32.855499"
       sodipodi:cx="280.26501"
       d="m 339.29721,-32.855499 c 0,9.941125 -26.42961,18 -59.0322,18 -32.60258,0 -59.0322,-8.058875 -59.0322,-18 0,-9.941126 26.42962,-18 59.0322,-18 32.60259,0 59.0322,8.058874 59.0322,18 z"
       id="ellipse229"
       ry="18"
       rx="59.0322"
       cy="-32.855499"
       cx="280.26501" />
    <text
       style="font-size:14px;text-anchor:middle;font-family:'Times Roman,serif'"
       id="text231"
       font-size="14.00"
       y="-28.255501"
       x="280.26501">社工系主任</text>
  </g>
  <g
     class="edge"
     id="edge26"
     transform="translate(4.3604998,676.547)">
    <title
       id="title234">d_humanities-&gt;h_social</title>
    <path
       style="fill:none;stroke:#000000"
       inkscape:connector-curvature="0"
       id="path236"
       d="m 323.674,-166.456 c -8.517,26.211 -24.412,75.131 -34.423,105.9436" />
    <polygon
       style="fill:#000000;stroke:#000000"
       id="polygon238"
       points="292.519,-59.245 286.1,-50.816 285.862,-61.4081 292.519,-59.245 " />
  </g>
  <g
     class="node"
     id="node17"
     transform="translate(4.3604998,676.547)">
    <title
       id="title241">h_childhood</title>
    <ellipse
       style="fill:none;stroke:#000000"
       sodipodi:ry="18"
       sodipodi:rx="59.0322"
       sodipodi:cy="-19"
       sodipodi:cx="412.09"
       d="m 471.1222,-19 c 0,9.9411255 -26.42962,18 -59.0322,18 -32.60259,0 -59.0322,-8.0588745 -59.0322,-18 0,-9.941125 26.42961,-18 59.0322,-18 32.60258,0 59.0322,8.058875 59.0322,18 z"
       id="ellipse243"
       ry="18"
       rx="59.0322"
       cy="-19"
       cx="412.09" />
    <text
       style="font-size:14px;text-anchor:middle;font-family:'Times Roman,serif'"
       id="text245"
       font-size="14.00"
       y="-14.4"
       x="412.09">幼保系主任</text>
  </g>
  <g
     class="edge"
     id="edge27"
     transform="translate(4.3604998,676.547)">
    <title
       id="title248">d_humanities-&gt;h_childhood</title>
    <path
       style="fill:none;stroke:#000000"
       inkscape:connector-curvature="0"
       id="path250"
       d="m 338.511,-166.42 c 14.457,28.965 42.957,86.0669 59.931,120.0755" />
    <polygon
       style="fill:#000000;stroke:#000000"
       id="polygon252"
       points="401.773,-47.5081 403.107,-36.9976 395.51,-44.3821 401.773,-47.5081 " />
  </g>
  <g
     class="node"
     id="node19"
     transform="translate(4.3604998,676.547)">
    <title
       id="title255">h_im</title>
    <ellipse
       style="fill:none;stroke:#000000"
       sodipodi:ry="18"
       sodipodi:rx="59.0322"
       sodipodi:cy="-59.9608"
       sodipodi:cx="538.15503"
       d="m 597.18723,-59.9608 c 0,9.941125 -26.42962,18 -59.0322,18 -32.60258,0 -59.0322,-8.058875 -59.0322,-18 0,-9.941126 26.42962,-18 59.0322,-18 32.60258,0 59.0322,8.058874 59.0322,18 z"
       id="ellipse257"
       ry="18"
       rx="59.0322"
       cy="-59.9608"
       cx="538.15503" />
    <text
       style="font-size:14px;text-anchor:middle;font-family:'Times Roman,serif'"
       id="text259"
       font-size="14.00"
       y="-55.360802"
       x="538.15503">資管系主任</text>
  </g>
  <g
     class="edge"
     id="edge30"
     transform="translate(4.3604998,676.547)">
    <title
       id="title262">d_info-&gt;h_im</title>
    <path
       style="fill:none;stroke:#000000"
       inkscape:connector-curvature="0"
       id="path264"
       d="m 510.745,-224.186 c 5.31,31.818 16.335,97.87 22.665,135.7958" />
    <polygon
       style="fill:#000000;stroke:#000000"
       id="polygon266"
       points="536.943,-88.4811 535.137,-78.0413 530.038,-87.3286 536.943,-88.4811 " />
  </g>
  <g
     class="node"
     id="node20"
     transform="translate(4.3604998,676.547)">
    <title
       id="title269">h_csie</title>
    <ellipse
       style="fill:none;stroke:#000000"
       sodipodi:ry="18"
       sodipodi:rx="59.0322"
       sodipodi:cy="-148.655"
       sodipodi:cx="636.65997"
       d="m 695.69217,-148.655 c 0,9.94113 -26.42961,18 -59.0322,18 -32.60258,0 -59.0322,-8.05887 -59.0322,-18 0,-9.94112 26.42962,-18 59.0322,-18 32.60259,0 59.0322,8.05888 59.0322,18 z"
       id="ellipse271"
       ry="18"
       rx="59.0322"
       cy="-148.655"
       cx="636.65997" />
    <text
       style="font-size:14px;text-anchor:middle;font-family:'Times Roman,serif'"
       id="text273"
       font-size="14.00"
       y="-144.05499"
       x="636.65997">資工系主任</text>
  </g>
  <g
     class="edge"
     id="edge31"
     transform="translate(4.3604998,676.547)">
    <title
       id="title276">d_info-&gt;h_csie</title>
    <path
       style="fill:none;stroke:#000000"
       inkscape:connector-curvature="0"
       id="path278"
       d="m 531.066,-225.374 c 20.722,15.055 51.171,37.178 74.053,53.803" />
    <polygon
       style="fill:#000000;stroke:#000000"
       id="polygon280"
       points="607.45,-174.204 613.483,-165.495 603.335,-168.541 607.45,-174.204 " />
  </g>
  <g
     class="node"
     id="node21"
     transform="translate(4.3604998,676.547)">
    <title
       id="title283">h_ice</title>
    <ellipse
       style="fill:none;stroke:#000000"
       sodipodi:ry="18"
       sodipodi:rx="59.0322"
       sodipodi:cy="-269.74799"
       sodipodi:cx="690.57397"
       d="m 749.60617,-269.74799 c 0,9.94113 -26.42961,18 -59.0322,18 -32.60258,0 -59.0322,-8.05887 -59.0322,-18 0,-9.94112 26.42962,-18 59.0322,-18 32.60259,0 59.0322,8.05888 59.0322,18 z"
       id="ellipse285"
       ry="18"
       rx="59.0322"
       cy="-269.74799"
       cx="690.57397" />
    <text
       style="font-size:14px;text-anchor:middle;font-family:'Times Roman,serif'"
       id="text287"
       font-size="14.00"
       y="-265.14801"
       x="690.57397">資通系主任</text>
  </g>
  <g
     class="edge"
     id="edge32"
     transform="translate(4.3604998,676.547)">
    <title
       id="title290">d_info-&gt;h_ice</title>
    <path
       style="fill:none;stroke:#000000"
       inkscape:connector-curvature="0"
       id="path292"
       d="m 567.084,-251.238 c 19.271,-2.889 40.717,-6.103 60.258,-9.032" />
    <polygon
       style="fill:#000000;stroke:#000000"
       id="polygon294"
       points="626.957,-263.751 637.366,-261.772 627.995,-256.829 626.957,-263.751 " />
  </g>
  <g
     transform="matrix(1.4195055,0,0,1.4195055,852.68256,557.66394)"
     class="graph"
     id="graph1-7">
    <title
       id="title3447">P2P</title>
    <polygon
       id="polygon3449"
       points="302.097,-328 302.097,5 -4,5 -4,5 -4,-328 "
       style="fill:#ffffff;stroke:#ffffff" />
    <!-- P01 -->
    <g
       class="node"
       id="node1-2">
      <title
         id="title3452">P01</title>
      <ellipse
         id="ellipse3454"
         ry="18"
         rx="34.049198"
         cy="-306"
         cx="108.965"
         sodipodi:cx="108.965"
         sodipodi:cy="-306"
         sodipodi:rx="34.049198"
         sodipodi:ry="18"
         style="fill:none;stroke:#000000"
         d="m 143.01419,-306 c 0,9.94113 -15.24434,18 -34.04919,18 -18.804857,0 -34.049202,-8.05887 -34.049202,-18 0,-9.94113 15.244345,-18 34.049202,-18 18.80485,0 34.04919,8.05887 34.04919,18 z" />
      <text
         id="text3456"
         font-size="14.00"
         y="-301.89999"
         x="108.965"
         style="font-size:14px;text-anchor:middle;font-family:'Times Roman,serif'">Alice</text>
    </g>
    <!-- P02 -->
    <g
       class="node"
       id="node2-1">
      <title
         id="title3459">P02</title>
      <ellipse
         id="ellipse3461"
         ry="18"
         rx="29.8799"
         cy="-234"
         cx="195.965"
         sodipodi:cx="195.965"
         sodipodi:cy="-234"
         sodipodi:rx="29.8799"
         sodipodi:ry="18"
         style="fill:none;stroke:#000000"
         d="m 225.8449,-234 c 0,9.94113 -13.37769,18 -29.8799,18 -16.50222,0 -29.8799,-8.05887 -29.8799,-18 0,-9.94113 13.37768,-18 29.8799,-18 16.50221,0 29.8799,8.05887 29.8799,18 z" />
      <text
         id="text3463"
         font-size="14.00"
         y="-229.89999"
         x="195.965"
         style="font-size:14px;text-anchor:middle;font-family:'Times Roman,serif'">Bob</text>
    </g>
    <!-- P01&#45;&#45;P02 -->
    <g
       class="edge"
       id="edge2">
      <title
         id="title3466">P01--P02</title>
      <path
         id="path3468"
         d="m 127.416,-290.731 c 14.963,12.384 35.926,29.733 50.72,41.976"
         inkscape:connector-curvature="0"
         style="fill:none;stroke:#000000" />
    </g>
    <!-- P03 -->
    <g
       class="node"
       id="node3-1">
      <title
         id="title3471">P03</title>
      <ellipse
         id="ellipse3473"
         ry="18"
         rx="46.754601"
         cy="-162"
         cx="62.965099"
         sodipodi:cx="62.965099"
         sodipodi:cy="-162"
         sodipodi:rx="46.754601"
         sodipodi:ry="18"
         style="fill:none;stroke:#000000"
         d="m 109.7197,-162 c 0,9.94113 -20.932748,18 -46.754601,18 -25.821853,0 -46.7546,-8.05887 -46.7546,-18 0,-9.94113 20.932747,-18 46.7546,-18 25.821853,0 46.754601,8.05887 46.754601,18 z" />
      <text
         id="text3475"
         font-size="14.00"
         y="-157.89999"
         x="62.965099"
         style="font-size:14px;text-anchor:middle;font-family:'Times Roman,serif'">Charles</text>
    </g>
    <!-- P01&#45;&#45;P03 -->
    <g
       class="edge"
       id="edge4-8">
      <title
         id="title3478">P01--P03</title>
      <path
         id="path3480"
         d="m 103.232,-288.053 c -8.8147,27.594 -25.6036,80.15 -34.4618,107.88"
         inkscape:connector-curvature="0"
         style="fill:none;stroke:#000000" />
    </g>
    <!-- P05 -->
    <g
       class="node"
       id="node5-7">
      <title
         id="title3483">P05</title>
      <ellipse
         id="ellipse3485"
         ry="18"
         rx="47.946899"
         cy="-90"
         cx="101.965"
         sodipodi:cx="101.965"
         sodipodi:cy="-90"
         sodipodi:rx="47.946899"
         sodipodi:ry="18"
         style="fill:none;stroke:#000000"
         d="m 149.9119,-90 c 0,9.941125 -21.46656,18 -47.9469,18 -26.480345,0 -47.946903,-8.058875 -47.946903,-18 0,-9.941125 21.466558,-18 47.946903,-18 26.48034,0 47.9469,8.058875 47.9469,18 z" />
      <text
         id="text3487"
         font-size="14.00"
         y="-85.900002"
         x="101.965"
         style="font-size:14px;text-anchor:middle;font-family:'Times Roman,serif'">Edward</text>
    </g>
    <!-- P01&#45;&#45;P05 -->
    <g
       class="edge"
       id="edge6-3">
      <title
         id="title3490">P01--P05</title>
      <path
         id="path3492"
         d="m 112.585,-287.907 c 5.455,30.058 14.342,92.103 6.38,143.907 -1.881,12.24 -6.029,25.513 -9.756,35.837"
         inkscape:connector-curvature="0"
         style="fill:none;stroke:#000000" />
    </g>
    <!-- P06 -->
    <g
       class="node"
       id="node6-5">
      <title
         id="title3495">P06</title>
      <ellipse
         id="ellipse3497"
         ry="18"
         rx="36.8288"
         cy="-18"
         cx="101.965"
         sodipodi:cx="101.965"
         sodipodi:cy="-18"
         sodipodi:rx="36.8288"
         sodipodi:ry="18"
         style="fill:none;stroke:#000000"
         d="m 138.7938,-18 c 0,9.9411255 -16.48882,18 -36.8288,18 -20.339988,0 -36.828804,-8.0588745 -36.828804,-18 0,-9.941125 16.488816,-18 36.828804,-18 20.33998,0 36.8288,8.058875 36.8288,18 z" />
      <text
         id="text3499"
         font-size="14.00"
         y="-13.9"
         x="101.965"
         style="font-size:14px;text-anchor:middle;font-family:'Times Roman,serif'">Fiona</text>
    </g>
    <!-- P01&#45;&#45;P06 -->
    <g
       class="edge"
       id="edge8">
      <title
         id="title3502">P01--P06</title>
      <path
         id="path3504"
         d="M 90.5693,-290.824 C 65.9862,-269.216 23.5901,-226.959 6.96507,-180 c -16.58663,46.851 -0.4404,67.958 29.00003,108 11.6638,15.8641 29.0224,29.8197 43.0104,39.5679"
         inkscape:connector-curvature="0"
         style="fill:none;stroke:#000000" />
    </g>
    <!-- P02&#45;&#45;P03 -->
    <g
       class="edge"
       id="edge10-8">
      <title
         id="title3507">P02--P03</title>
      <path
         id="path3509"
         d="m 173.403,-221.786 c -22.974,12.437 -58.614,31.731 -83.1597,45.019"
         inkscape:connector-curvature="0"
         style="fill:none;stroke:#000000" />
    </g>
    <!-- P04 -->
    <g
       class="node"
       id="node4-9">
      <title
         id="title3512">P04</title>
      <ellipse
         id="ellipse3514"
         ry="18"
         rx="39.106899"
         cy="-90"
         cx="244.965"
         sodipodi:cx="244.965"
         sodipodi:cy="-90"
         sodipodi:rx="39.106899"
         sodipodi:ry="18"
         style="fill:none;stroke:#000000"
         d="m 284.0719,-90 c 0,9.941125 -17.50876,18 -39.1069,18 -21.59815,0 -39.1069,-8.058875 -39.1069,-18 0,-9.941125 17.50875,-18 39.1069,-18 21.59814,0 39.1069,8.058875 39.1069,18 z" />
      <text
         id="text3516"
         font-size="14.00"
         y="-85.900002"
         x="244.965"
         style="font-size:14px;text-anchor:middle;font-family:'Times Roman,serif'">Diane</text>
    </g>
    <!-- P02&#45;&#45;P04 -->
    <g
       class="edge"
       id="edge12-0">
      <title
         id="title3519">P02--P04</title>
      <path
         id="path3521"
         d="m 201.973,-216.343 c 9.405,27.638 27.5,80.815 36.935,108.541"
         inkscape:connector-curvature="0"
         style="fill:none;stroke:#000000" />
    </g>
    <!-- P02&#45;&#45;P06 -->
    <g
       class="edge"
       id="edge14">
      <title
         id="title3524">P02--P06</title>
      <path
         id="path3526"
         d="m 195.209,-215.753 c -2.011,31.359 -9.366,96.645 -36.244,143.753 -8.849,15.5104 -23.568,29.2871 -35.831,39.0429"
         inkscape:connector-curvature="0"
         style="fill:none;stroke:#000000" />
    </g>
    <!-- P07 -->
    <g
       class="node"
       id="node7-1">
      <title
         id="title3529">P07</title>
      <ellipse
         id="ellipse3531"
         ry="18"
         rx="39.106899"
         cy="-18"
         cx="244.965"
         sodipodi:cx="244.965"
         sodipodi:cy="-18"
         sodipodi:rx="39.106899"
         sodipodi:ry="18"
         style="fill:none;stroke:#000000"
         d="m 284.0719,-18 c 0,9.9411255 -17.50876,18 -39.1069,18 -21.59815,0 -39.1069,-8.0588745 -39.1069,-18 0,-9.941125 17.50875,-18 39.1069,-18 21.59814,0 39.1069,8.058875 39.1069,18 z" />
      <text
         id="text3533"
         font-size="14.00"
         y="-13.9"
         x="244.965"
         style="font-size:14px;text-anchor:middle;font-family:'Times Roman,serif'">Grace</text>
    </g>
    <!-- P02&#45;&#45;P07 -->
    <g
       class="edge"
       id="edge16-5">
      <title
         id="title3536">P02--P07</title>
      <path
         id="path3538"
         d="m 213.083,-218.992 c 23.339,21.729 64.05,64.473 79.882,110.992 5.155,15.1468 5.686,21.0445 0,36 -5.706,15.0074 -17.706,28.5074 -28.279,38.2555"
         inkscape:connector-curvature="0"
         style="fill:none;stroke:#000000" />
    </g>
    <!-- P03&#45;&#45;P05 -->
    <g
       class="edge"
       id="edge18">
      <title
         id="title3541">P03--P05</title>
      <path
         id="path3543"
         d="m 72.6055,-144.202 c 6.0001,11.077 13.6902,25.274 19.6949,36.359"
         inkscape:connector-curvature="0"
         style="fill:none;stroke:#000000" />
    </g>
    <!-- P03&#45;&#45;P06 -->
    <g
       class="edge"
       id="edge20-4">
      <title
         id="title3546">P03--P06</title>
      <path
         id="path3548"
         d="m 53.3411,-144.1 c -8.6584,18.645 -18.5758,48.3868 -8.376,72.1 7.0559,16.4041 21.8163,30.1599 34.5485,39.6822"
         inkscape:connector-curvature="0"
         style="fill:none;stroke:#000000" />
    </g>
    <!-- P04&#45;&#45;P06 -->
    <g
       class="edge"
       id="edge22-5">
      <title
         id="title3551">P04--P06</title>
      <path
         id="path3553"
         d="m 218.403,-76.6261 c -25.847,13.0137 -64.869,32.6611 -90.5,45.5666"
         inkscape:connector-curvature="0"
         style="fill:none;stroke:#000000" />
    </g>
    <!-- P04&#45;&#45;P07 -->
    <g
       class="edge"
       id="edge24">
      <title
         id="title3556">P04--P07</title>
      <path
         id="path3558"
         d="m 244.965,-71.8314 c 0,10.8314 0,24.5438 0,35.4181"
         inkscape:connector-curvature="0"
         style="fill:none;stroke:#000000" />
    </g>
    <!-- P05&#45;&#45;P06 -->
    <g
       class="edge"
       id="edge26-1">
      <title
         id="title3561">P05--P06</title>
      <path
         id="path3563"
         d="m 101.965,-71.8314 c 0,10.8314 0,24.5438 0,35.4181"
         inkscape:connector-curvature="0"
         style="fill:none;stroke:#000000" />
    </g>
    <!-- P05&#45;&#45;P07 -->
    <g
       class="edge"
       id="edge28">
      <title
         id="title3566">P05--P07</title>
      <path
         id="path3568"
         d="m 130.903,-75.4297 c 25.626,12.9026 62.721,31.5794 87.578,44.0952"
         inkscape:connector-curvature="0"
         style="fill:none;stroke:#000000" />
    </g>
  </g>
  <text
     xml:space="preserve"
     style="font-size:25.60188293px;font-style:normal;font-weight:normal;line-height:125%;letter-spacing:0px;word-spacing:0px;fill:#ff0000;fill-opacity:1;stroke:none;font-family:Sans"
     x="700.68567"
     y="333.47208"
     id="text3649"
     sodipodi:linespacing="125%"><tspan
       sodipodi:role="line"
       id="tspan3651"
       x="700.68567"
       y="333.47208">廿世紀:</tspan><tspan
       sodipodi:role="line"
       x="700.68567"
       y="365.47443"
       id="tspan5243">樹狀結構</tspan></text>
  <text
     xml:space="preserve"
     style="font-size:25.60188293px;font-style:normal;font-weight:normal;line-height:125%;letter-spacing:0px;word-spacing:0px;fill:#ff0000;fill-opacity:1;stroke:none;font-family:Sans"
     x="758.56232"
     y="133.53473"
     id="text3653"
     sodipodi:linespacing="125%"><tspan
       sodipodi:role="line"
       id="tspan3655"
       x="758.56232"
       y="133.53473">廿一世紀:</tspan><tspan
       sodipodi:role="line"
       x="758.56232"
       y="162.96918"
       id="tspan5245">P2P</tspan></text>
  <path
     style="fill:none;stroke:#ff0000;stroke-width:4.00029410999999957;stroke-linecap:butt;stroke-linejoin:miter;stroke-opacity:1;stroke-miterlimit:4;stroke-dasharray:none;marker-end:url(#Arrow1Mend)"
     d="m 679.63965,333.47207 c 0,0 -12.81966,16.44401 -50.64201,18.41528 -37.82235,1.97128 -62.48043,-9.20764 -62.48043,-9.20764"
     id="path3657"
     inkscape:connector-curvature="0"
     sodipodi:nodetypes="czc" />
  <path
     style="fill:none;stroke:#ff0000;stroke-width:5.00000000999999994;stroke-linecap:butt;stroke-linejoin:miter;stroke-opacity:1;stroke-miterlimit:4;stroke-dasharray:none;marker-end:url(#Arrow1Mend)"
     d="m 1037.4275,188.27946 c 0,0 -8.2205,39.45841 3.2882,62.47582 11.5087,23.01741 50.9671,34.52611 50.9671,34.52611"
     id="path3659"
     inkscape:connector-curvature="0"
     transform="matrix(0.80005882,0,0,0.80005882,-0.41034939,0)" />
</svg>
