<?xml version="1.0" encoding="UTF-8" standalone="no"?>
<!-- Generated by graphviz version 2.26.3 (20100126.1600)
 -->

<!-- Title: packages Pages: 1 -->

<svg
   xmlns:dc="http://purl.org/dc/elements/1.1/"
   xmlns:cc="http://creativecommons.org/ns#"
   xmlns:rdf="http://www.w3.org/1999/02/22-rdf-syntax-ns#"
   xmlns:svg="http://www.w3.org/2000/svg"
   xmlns="http://www.w3.org/2000/svg"
   xmlns:sodipodi="http://sodipodi.sourceforge.net/DTD/sodipodi-0.dtd"
   xmlns:inkscape="http://www.inkscape.org/namespaces/inkscape"
   width="1000"
   height="1400"
   viewBox="0 0 800 1120"
   id="svg2"
   version="1.1"
   inkscape:version="0.48.3.1 r9886"
   sodipodi:docname="large-pkg-dep.svg">
  <metadata
     id="metadata517">
    <rdf:RDF>
      <cc:Work
         rdf:about="">
        <dc:format>image/svg+xml</dc:format>
        <dc:type
           rdf:resource="http://purl.org/dc/dcmitype/StillImage" />
      </cc:Work>
    </rdf:RDF>
  </metadata>
  <defs
     id="defs515" />
  <sodipodi:namedview
     pagecolor="#ffffff"
     bordercolor="#666666"
     borderopacity="1"
     objecttolerance="10"
     gridtolerance="10"
     guidetolerance="10"
     inkscape:pageopacity="0"
     inkscape:pageshadow="2"
     inkscape:window-width="1920"
     inkscape:window-height="1031"
     id="namedview513"
     showgrid="false"
     fit-margin-top="0"
     fit-margin-left="0"
     fit-margin-right="0"
     fit-margin-bottom="0"
     inkscape:zoom="0.29925797"
     inkscape:cx="474.375"
     inkscape:cy="1427.5"
     inkscape:window-x="-1"
     inkscape:window-y="-4"
     inkscape:window-maximized="1"
     inkscape:current-layer="svg2" />
  <g
     class="node"
     id="node1"
     transform="translate(14.886231,1082.0741)">
    <title
       id="title10">libreoffice-calc\n19386</title>
    <polygon
       style="fill:none;stroke:#000000"
       id="polygon12"
       points="84,-216 84,-174 196,-174 196,-216 196,-216 " />
    <text
       style="font-size:14px;text-anchor:middle;font-family:'Times Roman,serif'"
       id="text14"
       font-size="14.00"
       y="-199.39999"
       x="140">libreoffice-calc</text>
    <text
       style="font-size:14px;text-anchor:middle;font-family:'Times Roman,serif'"
       id="text16"
       font-size="14.00"
       y="-182.39999"
       x="140">19386</text>
  </g>
  <g
     class="node"
     id="node3"
     transform="translate(14.886231,1082.0741)">
    <title
       id="title19">libreoffice-core\n112686</title>
    <polygon
       style="fill:none;stroke:#000000"
       id="polygon21"
       points="342,-216 342,-174 458,-174 458,-216 458,-216 " />
    <text
       style="font-size:14px;text-anchor:middle;font-family:'Times Roman,serif'"
       id="text23"
       font-size="14.00"
       y="-199.39999"
       x="400">libreoffice-core</text>
    <text
       style="font-size:14px;text-anchor:middle;font-family:'Times Roman,serif'"
       id="text25"
       font-size="14.00"
       y="-182.39999"
       x="400">112686</text>
  </g>
  <g
     class="edge"
     id="edge2"
     transform="translate(14.886231,1082.0741)">
    <title
       id="title28">libreoffice-calc\n19386-&gt;libreoffice-core\n112686</title>
    <path
       style="fill:none;stroke:#000000"
       inkscape:connector-curvature="0"
       id="path30"
       d="m 206.761,-195 c 38.115,0 85.817,0 124.29,0" />
    <polygon
       style="fill:#000000;stroke:#000000"
       id="polygon32"
       points="206.737,-191.5 196.737,-195 206.737,-198.5 206.737,-191.5 " />
    <polygon
       style="fill:#000000;stroke:#000000"
       id="polygon34"
       points="331.13,-198.5 341.13,-195 331.13,-191.5 331.13,-198.5 " />
  </g>
  <g
     class="node"
     id="node10"
     transform="translate(14.886231,1082.0741)">
    <title
       id="title37">libreoffice-common\n65738</title>
    <polygon
       style="fill:none;stroke:#000000"
       id="polygon39"
       points="520,-260 520,-218 666,-218 666,-260 666,-260 " />
    <text
       style="font-size:14px;text-anchor:middle;font-family:'Times Roman,serif'"
       id="text41"
       font-size="14.00"
       y="-243.39999"
       x="593">libreoffice-common</text>
    <text
       style="font-size:14px;text-anchor:middle;font-family:'Times Roman,serif'"
       id="text43"
       font-size="14.00"
       y="-226.39999"
       x="593">65738</text>
  </g>
  <g
     class="edge"
     id="edge8"
     transform="translate(14.886231,1082.0741)">
    <title
       id="title46">libreoffice-core\n112686-&gt;libreoffice-common\n65738</title>
    <path
       style="fill:none;stroke:#000000"
       inkscape:connector-curvature="0"
       id="path48"
       d="m 468.835,-210.693 c 13.332,-3.039 27.434,-6.254 41.163,-9.384" />
    <polygon
       style="fill:#000000;stroke:#000000"
       id="polygon50"
       points="469.22,-207.191 458.692,-208.381 467.664,-214.016 469.22,-207.191 " />
    <polygon
       style="fill:#000000;stroke:#000000"
       id="polygon52"
       points="509.386,-223.527 519.914,-222.338 510.942,-216.703 509.386,-223.527 " />
  </g>
  <g
     class="node"
     id="node12"
     transform="translate(14.886231,1082.0741)">
    <title
       id="title55">libicu48\n21723</title>
    <polygon
       style="fill:none;stroke:#000000"
       id="polygon57"
       points="702,-162 702,-120 772,-120 772,-162 772,-162 " />
    <text
       style="font-size:14px;text-anchor:middle;font-family:'Times Roman,serif'"
       id="text59"
       font-size="14.00"
       y="-145.39999"
       x="737">libicu48</text>
    <text
       style="font-size:14px;text-anchor:middle;font-family:'Times Roman,serif'"
       id="text61"
       font-size="14.00"
       y="-128.39999"
       x="737">21723</text>
  </g>
  <g
     class="edge"
     id="edge10"
     transform="translate(14.886231,1082.0741)">
    <title
       id="title64">libreoffice-core\n112686-&gt;libicu48\n21723</title>
    <path
       style="fill:none;stroke:#000000"
       inkscape:connector-curvature="0"
       id="path66"
       d="m 458.719,-194.884 c 54.482,1.32 137.442,6.431 207.281,23.884 8.772,2.192 17.86,5.317 26.486,8.73" />
    <polygon
       style="fill:#000000;stroke:#000000"
       id="polygon68"
       points="694.091,-165.394 701.987,-158.329 691.409,-158.928 694.091,-165.394 " />
  </g>
  <g
     class="node"
     id="node16"
     transform="translate(14.886231,1082.0741)">
    <title
       id="title71">libreoffice-writer\n25171</title>
    <polygon
       style="fill:none;stroke:#000000"
       id="polygon73"
       points="528,-162 528,-120 658,-120 658,-162 658,-162 " />
    <text
       style="font-size:14px;text-anchor:middle;font-family:'Times Roman,serif'"
       id="text75"
       font-size="14.00"
       y="-145.39999"
       x="593">libreoffice-writer</text>
    <text
       style="font-size:14px;text-anchor:middle;font-family:'Times Roman,serif'"
       id="text77"
       font-size="14.00"
       y="-128.39999"
       x="593">25171</text>
  </g>
  <g
     class="edge"
     id="edge16"
     transform="translate(14.886231,1082.0741)">
    <title
       id="title80">libreoffice-core\n112686-&gt;libreoffice-writer\n25171</title>
    <path
       style="fill:none;stroke:#00ff7f"
       inkscape:connector-curvature="0"
       id="path82"
       d="m 468.504,-175.833 c 15.796,4.42 32.688,9.146 48.771,13.646" />
    <polygon
       style="fill:#00ff7f;stroke:#00ff7f"
       id="polygon84"
       points="467.38,-172.513 458.692,-178.578 469.266,-179.254 467.38,-172.513 " />
    <polygon
       style="fill:#00ff7f;stroke:#00ff7f"
       id="polygon86"
       points="518.481,-165.484 527.168,-159.419 516.595,-158.743 518.481,-165.484 " />
  </g>
  <g
     class="node"
     id="node4"
     transform="translate(14.886231,1082.0741)">
    <title
       id="title89">mysql-server-5.5\n30772</title>
    <polygon
       style="fill:none;stroke:#000000"
       id="polygon91"
       points="74,-306 74,-264 206,-264 206,-306 206,-306 " />
    <text
       style="font-size:14px;text-anchor:middle;font-family:'Times Roman,serif'"
       id="text93"
       font-size="14.00"
       y="-289.39999"
       x="140">mysql-server-5.5</text>
    <text
       style="font-size:14px;text-anchor:middle;font-family:'Times Roman,serif'"
       id="text95"
       font-size="14.00"
       y="-272.39999"
       x="140">30772</text>
  </g>
  <g
     class="node"
     id="node6"
     transform="translate(14.886231,1082.0741)">
    <title
       id="title98">mysql-client-5.5\n35322</title>
    <polygon
       style="fill:none;stroke:#000000"
       id="polygon100"
       points="337,-351 337,-309 463,-309 463,-351 463,-351 " />
    <text
       style="font-size:14px;text-anchor:middle;font-family:'Times Roman,serif'"
       id="text102"
       font-size="14.00"
       y="-334.39999"
       x="400">mysql-client-5.5</text>
    <text
       style="font-size:14px;text-anchor:middle;font-family:'Times Roman,serif'"
       id="text104"
       font-size="14.00"
       y="-317.39999"
       x="400">35322</text>
  </g>
  <g
     class="edge"
     id="edge4"
     transform="translate(14.886231,1082.0741)">
    <title
       id="title107">mysql-server-5.5\n30772-&gt;mysql-client-5.5\n35322</title>
    <path
       style="fill:none;stroke:#000000"
       inkscape:connector-curvature="0"
       id="path109"
       d="m 206.282,-296.472 c 36.599,-6.334 82.15,-14.218 119.885,-20.749" />
    <polygon
       style="fill:#000000;stroke:#000000"
       id="polygon111"
       points="325.633,-320.681 336.083,-318.938 326.827,-313.783 325.633,-320.681 " />
  </g>
  <g
     class="node"
     id="node8"
     transform="translate(14.886231,1082.0741)">
    <title
       id="title114">mysql-server-core-5.5\n17968</title>
    <polygon
       style="fill:none;stroke:#000000"
       id="polygon116"
       points="317,-291 317,-249 483,-249 483,-291 483,-291 " />
    <text
       style="font-size:14px;text-anchor:middle;font-family:'Times Roman,serif'"
       id="text118"
       font-size="14.00"
       y="-274.39999"
       x="400">mysql-server-core-5.5</text>
    <text
       style="font-size:14px;text-anchor:middle;font-family:'Times Roman,serif'"
       id="text120"
       font-size="14.00"
       y="-257.39999"
       x="400">17968</text>
  </g>
  <g
     class="edge"
     id="edge6"
     transform="translate(14.886231,1082.0741)">
    <title
       id="title123">mysql-server-5.5\n30772-&gt;mysql-server-core-5.5\n17968</title>
    <path
       style="fill:none;stroke:#000000"
       inkscape:connector-curvature="0"
       id="path125"
       d="m 206.282,-281.176 c 30.269,1.746 66.661,3.846 99.69,5.751" />
    <polygon
       style="fill:#000000;stroke:#000000"
       id="polygon127"
       points="306.323,-278.91 316.104,-274.84 305.919,-271.922 306.323,-278.91 " />
  </g>
  <g
     class="edge"
     id="edge20"
     transform="translate(14.886231,1082.0741)">
    <title
       id="title130">libreoffice-writer\n25171-&gt;libicu48\n21723</title>
    <path
       style="fill:none;stroke:#000000"
       inkscape:connector-curvature="0"
       id="path132"
       d="m 658.679,-141 c 11.127,0 22.456,0 32.914,0" />
    <polygon
       style="fill:#000000;stroke:#000000"
       id="polygon134"
       points="691.722,-144.5 701.722,-141 691.722,-137.5 691.722,-144.5 " />
  </g>
  <g
     class="node"
     id="node19"
     transform="translate(14.886231,1082.0741)">
    <title
       id="title137">libreoffice-help-en-us\n21091</title>
    <polygon
       style="fill:none;stroke:#000000"
       id="polygon139"
       points="320,-156 320,-114 480,-114 480,-156 480,-156 " />
    <text
       style="font-size:14px;text-anchor:middle;font-family:'Times Roman,serif'"
       id="text141"
       font-size="14.00"
       y="-139.39999"
       x="400">libreoffice-help-en-us</text>
    <text
       style="font-size:14px;text-anchor:middle;font-family:'Times Roman,serif'"
       id="text143"
       font-size="14.00"
       y="-122.4"
       x="400">21091</text>
  </g>
  <g
     class="edge"
     id="edge22"
     transform="translate(14.886231,1082.0741)">
    <title
       id="title146">libreoffice-help-en-us\n21091-&gt;libreoffice-writer\n25171</title>
    <path
       style="fill:none;stroke:#000000"
       inkscape:connector-curvature="0"
       id="path148"
       d="m 480.731,-137.51 c 11.984,-0.372 24.301,-0.755 36.186,-1.125" />
    <polygon
       style="fill:#000000;stroke:#000000"
       id="polygon150"
       points="517.126,-142.143 527.23,-138.955 517.343,-135.146 517.126,-142.143 " />
  </g>
  <g
     class="node"
     id="node21"
     transform="translate(14.886231,1082.0741)">
    <title
       id="title153">digikam\n20875</title>
    <polygon
       style="fill:none;stroke:#000000"
       id="polygon155"
       points="105,-441 105,-399 175,-399 175,-441 175,-441 " />
    <text
       style="font-size:14px;text-anchor:middle;font-family:'Times Roman,serif'"
       id="text157"
       font-size="14.00"
       y="-424.39999"
       x="140">digikam</text>
    <text
       style="font-size:14px;text-anchor:middle;font-family:'Times Roman,serif'"
       id="text159"
       font-size="14.00"
       y="-407.39999"
       x="140">20875</text>
  </g>
  <g
     class="node"
     id="node23"
     transform="translate(14.886231,1082.0741)">
    <title
       id="title162">libqtwebkit4\n24410</title>
    <polygon
       style="fill:none;stroke:#000000"
       id="polygon164"
       points="349,-471 349,-429 451,-429 451,-471 451,-471 " />
    <text
       style="font-size:14px;text-anchor:middle;font-family:'Times Roman,serif'"
       id="text166"
       font-size="14.00"
       y="-454.39999"
       x="400">libqtwebkit4</text>
    <text
       style="font-size:14px;text-anchor:middle;font-family:'Times Roman,serif'"
       id="text168"
       font-size="14.00"
       y="-437.39999"
       x="400">24410</text>
  </g>
  <g
     class="edge"
     id="edge24"
     transform="translate(14.886231,1082.0741)">
    <title
       id="title171">digikam\n20875-&gt;libqtwebkit4\n24410</title>
    <path
       style="fill:none;stroke:#000000"
       inkscape:connector-curvature="0"
       id="path173"
       d="m 175.065,-424.046 c 41.626,-4.803 111.806,-12.901 162.724,-18.776" />
    <polygon
       style="fill:#000000;stroke:#000000"
       id="polygon175"
       points="337.687,-446.333 348.022,-444.003 338.489,-439.379 337.687,-446.333 " />
  </g>
  <g
     class="node"
     id="node25"
     transform="translate(14.886231,1082.0741)">
    <title
       id="title178">digikam-data\n31716</title>
    <polygon
       style="fill:none;stroke:#000000"
       id="polygon180"
       points="347,-411 347,-369 453,-369 453,-411 453,-411 " />
    <text
       style="font-size:14px;text-anchor:middle;font-family:'Times Roman,serif'"
       id="text182"
       font-size="14.00"
       y="-394.39999"
       x="400">digikam-data</text>
    <text
       style="font-size:14px;text-anchor:middle;font-family:'Times Roman,serif'"
       id="text184"
       font-size="14.00"
       y="-377.39999"
       x="400">31716</text>
  </g>
  <g
     class="edge"
     id="edge26"
     transform="translate(14.886231,1082.0741)">
    <title
       id="title187">digikam\n20875-&gt;digikam-data\n31716</title>
    <path
       style="fill:none;stroke:#000000"
       inkscape:connector-curvature="0"
       id="path189"
       d="m 175.065,-415.954 c 41.237,4.758 110.497,12.75 161.291,18.61" />
    <polygon
       style="fill:#000000;stroke:#000000"
       id="polygon191"
       points="337.043,-400.788 346.576,-396.164 336.241,-393.834 337.043,-400.788 " />
  </g>
  <g
     class="node"
     id="node26"
     transform="translate(14.886231,1082.0741)">
    <title
       id="title194">gimp\n15255</title>
    <polygon
       style="fill:none;stroke:#000000"
       id="polygon196"
       points="369,-66 369,-24 431,-24 431,-66 431,-66 " />
    <text
       style="font-size:14px;text-anchor:middle;font-family:'Times Roman,serif'"
       id="text198"
       font-size="14.00"
       y="-49.400002"
       x="400">gimp</text>
    <text
       style="font-size:14px;text-anchor:middle;font-family:'Times Roman,serif'"
       id="text200"
       font-size="14.00"
       y="-32.400002"
       x="400">15255</text>
  </g>
  <g
     class="node"
     id="node28"
     transform="translate(14.886231,1082.0741)">
    <title
       id="title203">gimp-data\n42613</title>
    <polygon
       style="fill:none;stroke:#000000"
       id="polygon205"
       points="550,-102 550,-60 636,-60 636,-102 636,-102 " />
    <text
       style="font-size:14px;text-anchor:middle;font-family:'Times Roman,serif'"
       id="text207"
       font-size="14.00"
       y="-85.400002"
       x="593">gimp-data</text>
    <text
       style="font-size:14px;text-anchor:middle;font-family:'Times Roman,serif'"
       id="text209"
       font-size="14.00"
       y="-68.400002"
       x="593">42613</text>
  </g>
  <g
     class="edge"
     id="edge28"
     transform="translate(14.886231,1082.0741)">
    <title
       id="title212">gimp\n15255-&gt;gimp-data\n42613</title>
    <path
       style="fill:none;stroke:#000000"
       inkscape:connector-curvature="0"
       id="path214"
       d="m 440.932,-52.635 c 28.872,-5.3854 67.81,-12.6486 99.057,-18.4769" />
    <polygon
       style="fill:#000000;stroke:#000000"
       id="polygon216"
       points="441.481,-49.1771 431.009,-50.784 440.197,-56.0584 441.481,-49.1771 " />
    <polygon
       style="fill:#000000;stroke:#000000"
       id="polygon218"
       points="539.369,-74.5565 549.841,-72.9496 540.652,-67.6752 539.369,-74.5565 " />
  </g>
  <g
     class="node"
     id="node31"
     transform="translate(14.886231,1082.0741)">
    <title
       id="title221">libwebkitgtk-1.0-0\n23332</title>
    <polygon
       style="fill:none;stroke:#000000"
       id="polygon223"
       points="521,-42 521,-1.06581e-14 665,0 665,-42 665,-42 " />
    <text
       style="font-size:14px;text-anchor:middle;font-family:'Times Roman,serif'"
       id="text225"
       font-size="14.00"
       y="-25.4"
       x="593">libwebkitgtk-1.0-0</text>
    <text
       style="font-size:14px;text-anchor:middle;font-family:'Times Roman,serif'"
       id="text227"
       font-size="14.00"
       y="-8.3999996"
       x="593">23332</text>
  </g>
  <g
     class="edge"
     id="edge32"
     transform="translate(14.886231,1082.0741)">
    <title
       id="title230">gimp\n15255-&gt;libwebkitgtk-1.0-0\n23332</title>
    <path
       style="fill:none;stroke:#000000"
       inkscape:connector-curvature="0"
       id="path232"
       d="m 431.009,-41.144 c 21.542,2.6789 51.33,6.383 79.492,9.885" />
    <polygon
       style="fill:#000000;stroke:#000000"
       id="polygon234"
       points="511.293,-34.6875 520.784,-29.9802 510.429,-27.741 511.293,-34.6875 " />
  </g>
  <g
     class="edge"
     id="edge38"
     transform="translate(14.886231,1082.0741)">
    <title
       id="title237">libwebkitgtk-1.0-0\n23332-&gt;libicu48\n21723</title>
    <path
       style="fill:none;stroke:#000000"
       inkscape:connector-curvature="0"
       id="path239"
       d="m 652.238,-42.1854 c 4.836,-2.6617 9.496,-5.596 13.762,-8.8146 21.767,-16.4241 40.573,-41.0485 53.351,-60.39" />
    <polygon
       style="fill:#000000;stroke:#000000"
       id="polygon241"
       points="716.439,-113.333 724.787,-119.857 722.33,-109.551 716.439,-113.333 " />
  </g>
  <g
     class="node"
     id="node36"
     transform="translate(14.886231,1082.0741)">
    <title
       id="title244">libgtk2.0-common\n20627</title>
    <polygon
       style="fill:none;stroke:#000000"
       id="polygon246"
       points="70,-501 70,-459 210,-459 210,-501 210,-501 " />
    <text
       style="font-size:14px;text-anchor:middle;font-family:'Times Roman,serif'"
       id="text248"
       font-size="14.00"
       y="-484.39999"
       x="140">libgtk2.0-common</text>
    <text
       style="font-size:14px;text-anchor:middle;font-family:'Times Roman,serif'"
       id="text250"
       font-size="14.00"
       y="-467.39999"
       x="140">20627</text>
  </g>
  <g
     class="node"
     id="node37"
     transform="translate(14.886231,1082.0741)">
    <title
       id="title253">xulrunner-22.0\n38101</title>
    <polygon
       style="fill:none;stroke:#000000"
       id="polygon255"
       points="80,-561 80,-519 200,-519 200,-561 200,-561 " />
    <text
       style="font-size:14px;text-anchor:middle;font-family:'Times Roman,serif'"
       id="text257"
       font-size="14.00"
       y="-544.40002"
       x="140">xulrunner-22.0</text>
    <text
       style="font-size:14px;text-anchor:middle;font-family:'Times Roman,serif'"
       id="text259"
       font-size="14.00"
       y="-527.40002"
       x="140">38101</text>
  </g>
  <g
     class="node"
     id="node38"
     transform="translate(14.886231,1082.0741)">
    <title
       id="title262">libflite1\n19794</title>
    <polygon
       style="fill:none;stroke:#000000"
       id="polygon264"
       points="106,-621 106,-579 174,-579 174,-621 174,-621 " />
    <text
       style="font-size:14px;text-anchor:middle;font-family:'Times Roman,serif'"
       id="text266"
       font-size="14.00"
       y="-604.40002"
       x="140">libflite1</text>
    <text
       style="font-size:14px;text-anchor:middle;font-family:'Times Roman,serif'"
       id="text268"
       font-size="14.00"
       y="-587.40002"
       x="140">19794</text>
  </g>
  <g
     class="node"
     id="node39"
     transform="translate(14.886231,1082.0741)">
    <title
       id="title271">smbclient\n42128</title>
    <polygon
       style="fill:none;stroke:#000000"
       id="polygon273"
       points="99,-681 99,-639 181,-639 181,-681 181,-681 " />
    <text
       style="font-size:14px;text-anchor:middle;font-family:'Times Roman,serif'"
       id="text275"
       font-size="14.00"
       y="-664.40002"
       x="140">smbclient</text>
    <text
       style="font-size:14px;text-anchor:middle;font-family:'Times Roman,serif'"
       id="text277"
       font-size="14.00"
       y="-647.40002"
       x="140">42128</text>
  </g>
  <g
     class="node"
     id="node40"
     transform="translate(14.886231,1082.0741)">
    <title
       id="title280">nmap\n14886</title>
    <polygon
       style="fill:none;stroke:#000000"
       id="polygon282"
       points="109,-741 109,-699 171,-699 171,-741 171,-741 " />
    <text
       style="font-size:14px;text-anchor:middle;font-family:'Times Roman,serif'"
       id="text284"
       font-size="14.00"
       y="-724.40002"
       x="140">nmap</text>
    <text
       style="font-size:14px;text-anchor:middle;font-family:'Times Roman,serif'"
       id="text286"
       font-size="14.00"
       y="-707.40002"
       x="140">14886</text>
  </g>
  <g
     class="node"
     id="node41"
     transform="translate(14.886231,1082.0741)">
    <title
       id="title289">iso-codes\n15019</title>
    <polygon
       style="fill:none;stroke:#000000"
       id="polygon291"
       points="101,-801 101,-759 179,-759 179,-801 179,-801 " />
    <text
       style="font-size:14px;text-anchor:middle;font-family:'Times Roman,serif'"
       id="text293"
       font-size="14.00"
       y="-784.40002"
       x="140">iso-codes</text>
    <text
       style="font-size:14px;text-anchor:middle;font-family:'Times Roman,serif'"
       id="text295"
       font-size="14.00"
       y="-767.40002"
       x="140">15019</text>
  </g>
  <g
     class="node"
     id="node42"
     transform="translate(14.886231,1082.0741)">
    <title
       id="title298">oxygen-icon-theme\n29704</title>
    <polygon
       style="fill:none;stroke:#000000"
       id="polygon300"
       points="66,-861 66,-819 214,-819 214,-861 214,-861 " />
    <text
       style="font-size:14px;text-anchor:middle;font-family:'Times Roman,serif'"
       id="text302"
       font-size="14.00"
       y="-844.40002"
       x="140">oxygen-icon-theme</text>
    <text
       style="font-size:14px;text-anchor:middle;font-family:'Times Roman,serif'"
       id="text304"
       font-size="14.00"
       y="-827.40002"
       x="140">29704</text>
  </g>
  <g
     class="node"
     id="node43"
     transform="translate(14.886231,1082.0741)">
    <title
       id="title307">nautilus-data\n14076</title>
    <polygon
       style="fill:none;stroke:#000000"
       id="polygon309"
       points="86,-921 86,-879 194,-879 194,-921 194,-921 " />
    <text
       style="font-size:14px;text-anchor:middle;font-family:'Times Roman,serif'"
       id="text311"
       font-size="14.00"
       y="-904.40002"
       x="140">nautilus-data</text>
    <text
       style="font-size:14px;text-anchor:middle;font-family:'Times Roman,serif'"
       id="text313"
       font-size="14.00"
       y="-887.40002"
       x="140">14076</text>
  </g>
  <g
     class="node"
     id="node44"
     transform="translate(14.886231,1082.0741)">
    <title
       id="title316">pidgin-data\n25059</title>
    <polygon
       style="fill:none;stroke:#000000"
       id="polygon318"
       points="93,-981 93,-939 187,-939 187,-981 187,-981 " />
    <text
       style="font-size:14px;text-anchor:middle;font-family:'Times Roman,serif'"
       id="text320"
       font-size="14.00"
       y="-964.40002"
       x="140">pidgin-data</text>
    <text
       style="font-size:14px;text-anchor:middle;font-family:'Times Roman,serif'"
       id="text322"
       font-size="14.00"
       y="-947.40002"
       x="140">25059</text>
  </g>
  <g
     class="node"
     id="node45"
     transform="translate(14.886231,1082.0741)">
    <title
       id="title325">linux-image-3.7.10-antix.3-486-smp\n79661</title>
    <polygon
       style="fill:none;stroke:#000000"
       id="polygon327"
       points="7,-1041 7,-999 273,-999 273,-1041 273,-1041 " />
    <text
       style="font-size:14px;text-anchor:middle;font-family:'Times Roman,serif'"
       id="text329"
       font-size="14.00"
       y="-1024.4"
       x="140">linux-image-3.7.10-antix.3-486-smp</text>
    <text
       style="font-size:14px;text-anchor:middle;font-family:'Times Roman,serif'"
       id="text331"
       font-size="14.00"
       y="-1007.4"
       x="140">79661</text>
  </g>
  <g
     class="node"
     id="node46"
     transform="translate(247.46149,1630.0963)">
    <title
       id="title334">gcc-4.7\n17427</title>
    <polygon
       style="fill:none;stroke:#000000"
       id="polygon336"
       points="107,-1059 173,-1059 173,-1101 173,-1101 107,-1101 " />
    <text
       style="font-size:14px;text-anchor:middle;font-family:'Times Roman,serif'"
       id="text338"
       font-size="14.00"
       y="-1084.4"
       x="140">gcc-4.7</text>
    <text
       style="font-size:14px;text-anchor:middle;font-family:'Times Roman,serif'"
       id="text340"
       font-size="14.00"
       y="-1067.4"
       x="140">17427</text>
  </g>
  <g
     class="node"
     id="node47"
     transform="translate(247.46149,1630.0963)">
    <title
       id="title343">fonts-arphic-ukai\n17279</title>
    <polygon
       style="fill:none;stroke:#000000"
       id="polygon345"
       points="74,-1119 206,-1119 206,-1161 206,-1161 74,-1161 " />
    <text
       style="font-size:14px;text-anchor:middle;font-family:'Times Roman,serif'"
       id="text347"
       font-size="14.00"
       y="-1144.4"
       x="140">fonts-arphic-ukai</text>
    <text
       style="font-size:14px;text-anchor:middle;font-family:'Times Roman,serif'"
       id="text349"
       font-size="14.00"
       y="-1127.4"
       x="140">17279</text>
  </g>
  <g
     class="node"
     id="node48"
     transform="translate(247.46149,1630.0963)">
    <title
       id="title352">coreutils\n14026</title>
    <polygon
       style="fill:none;stroke:#000000"
       id="polygon354"
       points="103,-1179 177,-1179 177,-1221 177,-1221 103,-1221 " />
    <text
       style="font-size:14px;text-anchor:middle;font-family:'Times Roman,serif'"
       id="text356"
       font-size="14.00"
       y="-1204.4"
       x="140">coreutils</text>
    <text
       style="font-size:14px;text-anchor:middle;font-family:'Times Roman,serif'"
       id="text358"
       font-size="14.00"
       y="-1187.4"
       x="140">14026</text>
  </g>
  <g
     class="node"
     id="node49"
     transform="translate(247.46149,1630.0963)">
    <title
       id="title361">libgtk-3-common\n20036</title>
    <polygon
       style="fill:none;stroke:#000000"
       id="polygon363"
       points="74,-1239 206,-1239 206,-1281 206,-1281 74,-1281 " />
    <text
       style="font-size:14px;text-anchor:middle;font-family:'Times Roman,serif'"
       id="text365"
       font-size="14.00"
       y="-1264.4"
       x="140">libgtk-3-common</text>
    <text
       style="font-size:14px;text-anchor:middle;font-family:'Times Roman,serif'"
       id="text367"
       font-size="14.00"
       y="-1247.4"
       x="140">20036</text>
  </g>
  <g
     class="node"
     id="node50"
     transform="translate(247.46149,1630.0963)">
    <title
       id="title370">samba-common-bin\n18215</title>
    <polygon
       style="fill:none;stroke:#000000"
       id="polygon372"
       points="65,-1299 215,-1299 215,-1341 215,-1341 65,-1341 " />
    <text
       style="font-size:14px;text-anchor:middle;font-family:'Times Roman,serif'"
       id="text374"
       font-size="14.00"
       y="-1324.4"
       x="140">samba-common-bin</text>
    <text
       style="font-size:14px;text-anchor:middle;font-family:'Times Roman,serif'"
       id="text376"
       font-size="14.00"
       y="-1307.4"
       x="140">18215</text>
  </g>
  <g
     class="node"
     id="node51"
     transform="translate(247.46149,1630.0963)">
    <title
       id="title379">locales\n15118</title>
    <polygon
       style="fill:none;stroke:#000000"
       id="polygon381"
       points="140,-1359 202,-1401 140,-1443 140,-1443 78,-1401 " />
    <text
       style="font-size:14px;text-anchor:middle;font-family:'Times Roman,serif'"
       id="text383"
       font-size="14.00"
       y="-1405.4"
       x="140">locales</text>
    <text
       style="font-size:14px;text-anchor:middle;font-family:'Times Roman,serif'"
       id="text385"
       font-size="14.00"
       y="-1388.4"
       x="140">15118</text>
  </g>
  <g
     class="node"
     id="node52"
     transform="translate(247.46149,1630.0963)">
    <title
       id="title388">fonts-arphic-uming\n21044</title>
    <polygon
       style="fill:none;stroke:#000000"
       id="polygon390"
       points="67,-1461 213,-1461 213,-1503 213,-1503 67,-1503 " />
    <text
       style="font-size:14px;text-anchor:middle;font-family:'Times Roman,serif'"
       id="text392"
       font-size="14.00"
       y="-1486.4"
       x="140">fonts-arphic-uming</text>
    <text
       style="font-size:14px;text-anchor:middle;font-family:'Times Roman,serif'"
       id="text394"
       font-size="14.00"
       y="-1469.4"
       x="140">21044</text>
  </g>
  <g
     class="node"
     id="node53"
     transform="translate(247.46149,1630.0963)">
    <title
       id="title397">chromium\n106342</title>
    <polygon
       style="fill:none;stroke:#000000"
       id="polygon399"
       points="98,-1521 182,-1521 182,-1563 182,-1563 98,-1563 " />
    <text
       style="font-size:14px;text-anchor:middle;font-family:'Times Roman,serif'"
       id="text401"
       font-size="14.00"
       y="-1546.4"
       x="140">chromium</text>
    <text
       style="font-size:14px;text-anchor:middle;font-family:'Times Roman,serif'"
       id="text403"
       font-size="14.00"
       y="-1529.4"
       x="140">106342</text>
  </g>
  <g
     class="node"
     id="node54"
     transform="translate(490.72987,2349.2083)">
    <title
       id="title406">mediterranean-themes\n15688</title>
    <polygon
       style="fill:none;stroke:#000000"
       id="polygon408"
       points="53,-1581 227,-1581 227,-1623 227,-1623 53,-1623 " />
    <text
       style="font-size:14px;text-anchor:middle;font-family:'Times Roman,serif'"
       id="text410"
       font-size="14.00"
       y="-1606.4"
       x="140">mediterranean-themes</text>
    <text
       style="font-size:14px;text-anchor:middle;font-family:'Times Roman,serif'"
       id="text412"
       font-size="14.00"
       y="-1589.4"
       x="140">15688</text>
  </g>
  <g
     class="node"
     id="node55"
     transform="translate(490.72987,2349.2083)">
    <title
       id="title415">openjdk-6-jre-headless\n80178</title>
    <polygon
       style="fill:none;stroke:#000000"
       id="polygon417"
       points="54,-1641 226,-1641 226,-1683 226,-1683 54,-1683 " />
    <text
       style="font-size:14px;text-anchor:middle;font-family:'Times Roman,serif'"
       id="text419"
       font-size="14.00"
       y="-1666.4"
       x="140">openjdk-6-jre-headless</text>
    <text
       style="font-size:14px;text-anchor:middle;font-family:'Times Roman,serif'"
       id="text421"
       font-size="14.00"
       y="-1649.4"
       x="140">80178</text>
  </g>
  <g
     class="node"
     id="node56"
     transform="translate(490.72987,2349.2083)">
    <title
       id="title424">stellarium-data\n51657</title>
    <polygon
       style="fill:none;stroke:#000000"
       id="polygon426"
       points="80,-1701 200,-1701 200,-1743 200,-1743 80,-1743 " />
    <text
       style="font-size:14px;text-anchor:middle;font-family:'Times Roman,serif'"
       id="text428"
       font-size="14.00"
       y="-1726.4"
       x="140">stellarium-data</text>
    <text
       style="font-size:14px;text-anchor:middle;font-family:'Times Roman,serif'"
       id="text430"
       font-size="14.00"
       y="-1709.4"
       x="140">51657</text>
  </g>
  <g
     class="node"
     id="node57"
     transform="translate(490.72987,2349.2083)">
    <title
       id="title433">perl-modules\n14082</title>
    <polygon
       style="fill:none;stroke:#000000"
       id="polygon435"
       points="88,-1761 192,-1761 192,-1803 192,-1803 88,-1803 " />
    <text
       style="font-size:14px;text-anchor:middle;font-family:'Times Roman,serif'"
       id="text437"
       font-size="14.00"
       y="-1786.4"
       x="140">perl-modules</text>
    <text
       style="font-size:14px;text-anchor:middle;font-family:'Times Roman,serif'"
       id="text439"
       font-size="14.00"
       y="-1769.4"
       x="140">14082</text>
  </g>
  <g
     class="node"
     id="node58"
     transform="translate(490.72987,2349.2083)">
    <title
       id="title442">libgl1-mesa-dri\n88963</title>
    <polygon
       style="fill:none;stroke:#000000"
       id="polygon444"
       points="81,-1821 199,-1821 199,-1863 199,-1863 81,-1863 " />
    <text
       style="font-size:14px;text-anchor:middle;font-family:'Times Roman,serif'"
       id="text446"
       font-size="14.00"
       y="-1846.4"
       x="140">libgl1-mesa-dri</text>
    <text
       style="font-size:14px;text-anchor:middle;font-family:'Times Roman,serif'"
       id="text448"
       font-size="14.00"
       y="-1829.4"
       x="140">88963</text>
  </g>
  <g
     class="node"
     id="node59"
     transform="translate(490.72987,2349.2083)">
    <title
       id="title451">libavcodec53\n15249</title>
    <polygon
       style="fill:none;stroke:#000000"
       id="polygon453"
       points="88,-1881 192,-1881 192,-1923 192,-1923 88,-1923 " />
    <text
       style="font-size:14px;text-anchor:middle;font-family:'Times Roman,serif'"
       id="text455"
       font-size="14.00"
       y="-1906.4"
       x="140">libavcodec53</text>
    <text
       style="font-size:14px;text-anchor:middle;font-family:'Times Roman,serif'"
       id="text457"
       font-size="14.00"
       y="-1889.4"
       x="140">15249</text>
  </g>
  <g
     class="node"
     id="node60"
     transform="translate(490.72987,2349.2083)">
    <title
       id="title460">vim-runtime\n22368</title>
    <polygon
       style="fill:none;stroke:#000000"
       id="polygon462"
       points="90,-1941 190,-1941 190,-1983 190,-1983 90,-1983 " />
    <text
       style="font-size:14px;text-anchor:middle;font-family:'Times Roman,serif'"
       id="text464"
       font-size="14.00"
       y="-1966.4"
       x="140">vim-runtime</text>
    <text
       style="font-size:14px;text-anchor:middle;font-family:'Times Roman,serif'"
       id="text466"
       font-size="14.00"
       y="-1949.4"
       x="140">22368</text>
  </g>
  <g
     class="node"
     id="node61"
     transform="translate(490.72987,2349.2083)">
    <title
       id="title469">vlc-data\n26400</title>
    <polygon
       style="fill:none;stroke:#000000"
       id="polygon471"
       points="105,-2001 175,-2001 175,-2043 175,-2043 105,-2043 " />
    <text
       style="font-size:14px;text-anchor:middle;font-family:'Times Roman,serif'"
       id="text473"
       font-size="14.00"
       y="-2026.4"
       x="140">vlc-data</text>
    <text
       style="font-size:14px;text-anchor:middle;font-family:'Times Roman,serif'"
       id="text475"
       font-size="14.00"
       y="-2009.4"
       x="140">26400</text>
  </g>
  <g
     class="node"
     id="node62"
     transform="translate(490.72987,2349.2083)">
    <title
       id="title478">marble-data\n23222</title>
    <polygon
       style="fill:none;stroke:#000000"
       id="polygon480"
       points="90,-2061 190,-2061 190,-2103 190,-2103 90,-2103 " />
    <text
       style="font-size:14px;text-anchor:middle;font-family:'Times Roman,serif'"
       id="text482"
       font-size="14.00"
       y="-2086.3999"
       x="140">marble-data</text>
    <text
       style="font-size:14px;text-anchor:middle;font-family:'Times Roman,serif'"
       id="text484"
       font-size="14.00"
       y="-2069.3999"
       x="140">23222</text>
  </g>
  <g
     class="node"
     id="node63"
     transform="translate(490.72987,2349.2083)">
    <title
       id="title487">inkscape\n78924</title>
    <polygon
       style="fill:none;stroke:#000000"
       id="polygon489"
       points="102,-2121 178,-2121 178,-2163 178,-2163 102,-2163 " />
    <text
       style="font-size:14px;text-anchor:middle;font-family:'Times Roman,serif'"
       id="text491"
       font-size="14.00"
       y="-2146.3999"
       x="140">inkscape</text>
    <text
       style="font-size:14px;text-anchor:middle;font-family:'Times Roman,serif'"
       id="text493"
       font-size="14.00"
       y="-2129.3999"
       x="140">78924</text>
  </g>
  <g
     class="node"
     id="node64"
     transform="translate(490.72987,2349.2083)">
    <title
       id="title496">brit-icons\n18412</title>
    <polygon
       style="fill:none;stroke:#000000"
       id="polygon498"
       points="100,-2181 180,-2181 180,-2223 180,-2223 100,-2223 " />
    <text
       style="font-size:14px;text-anchor:middle;font-family:'Times Roman,serif'"
       id="text500"
       font-size="14.00"
       y="-2206.3999"
       x="140">brit-icons</text>
    <text
       style="font-size:14px;text-anchor:middle;font-family:'Times Roman,serif'"
       id="text502"
       font-size="14.00"
       y="-2189.3999"
       x="140">18412</text>
  </g>
  <g
     class="node"
     id="node65"
     transform="translate(490.72987,2349.2083)">
    <title
       id="title505">linux-headers-3.7.10-antix.3-486-smp\n43449</title>
    <polygon
       style="fill:none;stroke:#000000"
       id="polygon507"
       points="0,-2241 280,-2241 280,-2283 280,-2283 5.68434e-14,-2283 " />
    <text
       style="font-size:14px;text-anchor:middle;font-family:'Times Roman,serif'"
       id="text509"
       font-size="14.00"
       y="-2266.3999"
       x="140">linux-headers-3.7.10-antix.3-486-smp</text>
    <text
       style="font-size:14px;text-anchor:middle;font-family:'Times Roman,serif'"
       id="text511"
       font-size="14.00"
       y="-2249.3999"
       x="140">43449</text>
  </g>
</svg>
