<?xml version="1.0" encoding="UTF-8" standalone="no"?>
<!-- Created with Inkscape (http://www.inkscape.org/) -->

<svg
   xmlns:dc="http://purl.org/dc/elements/1.1/"
   xmlns:cc="http://creativecommons.org/ns#"
   xmlns:rdf="http://www.w3.org/1999/02/22-rdf-syntax-ns#"
   xmlns:svg="http://www.w3.org/2000/svg"
   xmlns="http://www.w3.org/2000/svg"
   xmlns:xlink="http://www.w3.org/1999/xlink"
   xmlns:sodipodi="http://sodipodi.sourceforge.net/DTD/sodipodi-0.dtd"
   xmlns:inkscape="http://www.inkscape.org/namespaces/inkscape"
   width="681"
   height="566"
   id="svg5994"
   version="1.1"
   inkscape:version="0.48.3.1 r9886"
   sodipodi:docname="nasa-as-pirate.svg"
   inkscape:export-filename="/mnt/worksp/home/ckhung/public_html/m/13/nasa-as-pirate.png"
   inkscape:export-xdpi="90"
   inkscape:export-ydpi="90">
  <defs
     id="defs5996" />
  <sodipodi:namedview
     id="base"
     pagecolor="#ffffff"
     bordercolor="#666666"
     borderopacity="1.0"
     inkscape:pageopacity="0.0"
     inkscape:pageshadow="2"
     inkscape:zoom="0.96289753"
     inkscape:cx="340.5"
     inkscape:cy="283"
     inkscape:document-units="px"
     inkscape:current-layer="layer1"
     showgrid="false"
     fit-margin-top="0"
     fit-margin-left="0"
     fit-margin-right="0"
     fit-margin-bottom="0"
     inkscape:window-width="1024"
     inkscape:window-height="719"
     inkscape:window-x="-1"
     inkscape:window-y="-4"
     inkscape:window-maximized="1" />
  <metadata
     id="metadata5999">
    <rdf:RDF>
      <cc:Work
         rdf:about="">
        <dc:format>image/svg+xml</dc:format>
        <dc:type
           rdf:resource="http://purl.org/dc/dcmitype/StillImage" />
        <dc:title></dc:title>
      </cc:Work>
    </rdf:RDF>
  </metadata>
  <g
     inkscape:label="Layer 1"
     inkscape:groupmode="layer"
     id="layer1"
     transform="translate(-582.35712,-463.64789)">
    <image
       y="463.64789"
       x="582.35712"
       id="image6129"
       xlink:href="file:///home/ckhung/public_html/m/13/mars-rover-takedown.jpg"
       height="566"
       width="681" />
    <image
       y="553.85803"
       x="795.01349"
       id="image6175"
       xlink:href="file:///home/ckhung/public_html/m/13/mars-curiosity.jpg"
       height="222.69643"
       width="389.55646" />
    <g
       id="layer1-0"
       transform="matrix(0.23176808,0,0,0.23176808,1050.5442,535.60845)">
      <g
         id="Layer_1"
         transform="translate(20.320127,125.63051)">
        <path
           id="path2763"
           d="m 474.178,59.672 c -0.24,5.823 2.291,17.688 -19.773,54.514 -24.644,41.138 -62.644,75.318 -99.903,102.989 -22.475,16.694 -45.501,30.249 -69.409,42.238 -6.224,-2.032 -13.88,-4.705 -22.446,-8.048 -0.057,-0.019 -0.108,-0.047 -0.165,-0.065 5.936,-2.952 12.353,-6.247 19.382,-9.991 68.814,-36.618 81.563,-58.697 80.965,-59.296 -0.598,-0.599 -17.901,19.557 -77.217,54.096 -8.638,5.026 -17.496,9.595 -26.511,13.748 -6.676,-2.758 -13.229,-5.771 -18.821,-8.608 28.807,-12.494 59.509,-28.038 84.666,-44.672 38.717,-25.591 75.161,-55.576 104.066,-89.258 26.407,-30.763 37.261,-46.604 38.925,-49.726 2.615,-4.908 6.816,-11.669 6.241,2.079 z m -17.553,33.847 c -0.83,-0.278 -6.657,14.979 -27.473,40.501 -20.768,25.468 -39.409,40.779 -38.575,41.611 0.835,0.832 16.751,-10.464 41.074,-40.779 21.881,-27.274 25.809,-41.058 24.974,-41.333 z m -153.382,19.537 c -3.051,0.832 -4.563,-2.89 -4.795,-5.945 -0.557,-7.213 0.67,-11.527 0.075,-15.376 -0.674,-4.359 1.707,-11.415 -3.725,-9.076 -3.083,1.327 -0.519,4.757 0.595,8.362 1.112,3.606 0.829,15.751 0.829,18.312 0,4.437 2.499,7.039 9.161,9.432 7.661,2.751 1.565,20.69 -5.827,22.746 -7.681,2.14 -11.99,-3.159 -17.487,-2.218 -9.712,1.664 -7.77,11.096 -9.712,14.148 -1.942,3.05 -1.942,3.05 -5.271,6.381 -2.451,2.447 -4.05,4.411 -5.766,5.957 0.269,0.231 0.462,0.632 0.509,1.306 0.213,2.914 2.551,5.15 2.551,8.062 0,2.916 -0.929,3.953 -4.677,4.783 -3.743,0.835 -5.394,-0.622 -5.601,-1.867 -0.208,-1.249 0.311,-5.801 0.914,-8.234 0.198,-0.801 0.472,-1.29 0.759,-1.615 -3.04,0.549 -6.836,0.762 -9.5,0.762 -0.099,0 -0.197,0.002 -0.297,0.002 0.646,0.432 1.344,1.167 1.787,2.497 1.056,3.164 1.217,5.547 1.424,7.418 0.207,1.872 -2.291,2.499 -4.79,2.706 -2.499,0.208 -5.412,-0.622 -5.827,-1.669 -0.415,-1.037 0.273,-5.372 0.697,-7.621 0.26,-1.37 1.65,-2.546 2.726,-3.274 -2.811,0.063 -5.809,0.165 -8.869,0.212 0.816,0.875 1.613,1.952 1.806,2.989 0.422,2.249 1.351,5.62 1.143,7.072 -0.21,1.457 -0.834,1.876 -4.788,2.084 -3.956,0.207 -5.29,-0.415 -5.707,-1.245 -0.417,-0.834 0.302,-5.822 0.801,-7.885 0.269,-1.101 1.091,-2.188 1.846,-2.999 -2.468,-0.028 -4.927,-0.123 -7.319,-0.325 0.587,1.631 3.267,4.42 2.558,8.908 -0.396,2.499 -1.57,3.536 -6.961,3.546 -3.121,0.005 -4.566,-2.084 -4.573,-3.536 -0.021,-3.989 1.669,-6.771 2.555,-9.623 -2.996,-0.339 -4.813,-0.583 -6.294,-1.2 0.205,1.344 1.011,4.894 1.447,8.531 0.276,2.282 -0.832,3.536 -3.536,3.536 -2.706,0 -4.373,-1.451 -4.373,-2.704 0,-3.328 4.891,-9.519 5.292,-9.785 0.04,-0.026 0.087,-0.066 0.137,-0.104 -0.285,-0.172 -0.566,-0.363 -0.849,-0.584 -2.499,-1.94 -5.549,-4.706 -7.173,-11.745 -1.626,-7.039 -1.044,-11.332 -6.464,-14.58 -5.417,-3.248 -15.179,4.524 -20.056,4.015 -5.431,-0.568 -12.298,-11.431 -12.739,-16.548 -0.517,-5.983 5.32,-3.206 8.642,-10.778 2.112,-4.821 0.012,-10.844 0.012,-24.379 0,-13.538 4.656,-20.431 7.598,-27.074 2.14,-4.835 -0.828,-8.43 2.946,-21.065 3.225,-10.79 6.131,-14.804 6.131,-14.804 0,0 -5.193,4.273 -8.243,14.342 -2.702,8.911 -1.876,13.404 -4.045,20.443 -2.167,7.039 -5.443,11.676 -7.069,22.505 -1.625,10.83 1.098,24.035 -1.625,28.408 -1.834,2.944 -7.916,-0.238 -8.708,-11.108 -0.681,-9.323 -1.891,-27.76 -0.264,-38.589 1.624,-10.83 2.583,-6.803 8.312,-26.716 6.749,-23.469 36.19,-37.757 71.342,-38.236 30.707,-0.419 41.927,9.528 51.96,19 10.462,9.88 17.76,23.698 19.98,32.576 2.22,8.878 4.163,12.562 5.549,20.054 1.392,7.489 0.642,18.368 -0.712,23.778 -1.506,6.022 -4.462,16.547 -8.442,17.634 z M 219.006,89.219 c -3.953,-6.242 -14.578,-7.322 -22.685,-7.699 -8.951,-0.417 -13.85,2.338 -14.778,9.156 -0.75,5.497 0.208,13.731 2.082,19.764 1.629,5.248 8.116,12.277 13.736,11.445 4.514,-0.669 14.148,-7.878 19.773,-14.356 3.362,-3.876 3.779,-15.304 1.872,-18.31 z m 12.49,16.852 c -2.086,0.146 -5.203,7.074 -6.66,15.813 -0.959,5.759 -4.776,13.8 -3.956,18.724 0.552,3.31 3.623,3.784 5.413,0.208 1.457,-2.911 2.289,-5.617 4.37,-5.617 2.081,0 6.674,12.192 9.366,11.859 3.106,-0.382 6.935,-5.195 6.454,-11.235 -0.42,-5.2 -2.499,-10.403 -5.62,-15.813 -3.121,-5.41 -7.298,-14.082 -9.367,-13.939 z m 50.573,-16.852 c -3.121,-4.163 -8.533,-7.699 -19.146,-7.074 -8.778,0.516 -17.524,4.062 -18.316,9.986 -0.829,6.242 0.943,9.5 4.376,13.731 3.535,4.37 13.526,12.901 19.976,13.316 6.454,0.417 12.074,-1.04 12.904,-7.489 0.833,-6.45 3.327,-18.31 0.206,-22.47 z m -14.36,101.327 c 4.997,-4.997 4.167,-13.526 6.247,-24.346 2.079,-10.818 5.827,-14.148 8.321,-17.892 2.498,-3.746 8.462,-3.234 9.16,-1.664 0.835,1.872 -1.711,14.507 -4.163,22.677 -3.743,12.485 -3.951,17.477 -4.163,23.927 -0.175,5.507 -8.948,9.778 -13.526,14.148 -4.582,4.366 -8.741,12.484 -14.36,14.148 -5.62,1.664 -13.531,-1.249 -22.065,-1.042 -8.534,0.208 -17.067,2.292 -21.645,0.623 -4.578,-1.66 -9.783,-9.363 -15.61,-14.56 -5.827,-5.205 -12.696,-8.326 -14.775,-13.318 -2.082,-4.993 0,-11.028 -0.417,-18.727 -0.417,-7.697 -2.497,-12.482 -4.58,-17.06 -2.08,-4.578 -0.698,-7.878 2.706,-9.153 4.995,-1.872 8.534,2.289 11.032,10.193 2.607,8.253 4.92,13.097 5.41,19.976 0.625,8.736 1.874,10.4 4.788,13.521 1.66,1.782 4.719,2.848 7.933,3.734 -0.592,-1.561 -1.122,-3.593 -0.856,-7.271 0.137,-1.876 1.665,-2.498 4.995,-2.706 3.331,-0.207 5.535,0.627 5.62,2.292 0.28,5.487 -1.056,7.835 -2.016,9.679 1.792,0.273 4.432,0.438 7.473,0.528 -1.125,-2.259 -2.327,-4.865 -2.336,-9.17 -0.005,-2.466 1.874,-2.079 4.995,-2.287 3.124,-0.207 6.334,-0.245 6.452,1.872 0.238,4.281 -1.221,7.063 -2.556,9.675 2.242,0.004 4.524,-0.015 6.711,-0.048 -0.91,-2.819 -1.716,-6.459 -1.242,-9.627 0.188,-1.254 2.916,-1.664 5.415,-1.872 2.494,-0.207 5.53,1.028 5.619,2.494 0.189,3.244 -0.801,6.384 -1.923,8.845 1.499,-0.037 2.8,-0.075 3.79,-0.104 0.943,-0.028 1.886,-0.095 2.834,-0.198 -1.07,-2.027 -2.117,-4.582 -1.994,-6.666 0.089,-1.679 3.743,-5.205 6.656,-4.998 2.32,0.17 4.81,0.66 4.937,1.914 0.273,2.631 -0.552,5.493 -1.569,7.883 3.265,-1.219 6.278,-3.001 8.702,-5.42 z m 65.953,86.76 c 0,0 0.315,4.309 -9.406,7.906 -5.719,2.117 -6.808,3.229 -37.278,-7.699 -9.18,-3.291 -59.186,-17.595 -99.771,-41.404 -58.875,-34.539 -75.64,-54.897 -76.639,-54.096 -0.999,0.801 12.06,22.678 80.356,59.296 54.051,28.981 72.919,32.253 95.229,40.155 27.354,9.693 30.155,9.9 33.88,14.36 4.055,4.861 2.475,15.394 2.475,15.394 0,0 -49.603,-14.092 -86.759,-29.754 C 194.236,263.968 155.807,244.85 118.83,217.175 81.855,189.504 44.136,155.323 19.676,114.186 -2.22,77.359 0.293,65.495 0.053,59.672 c -0.57,-13.748 3.598,-6.987 6.198,-2.079 1.652,3.121 12.42,18.962 38.627,49.726 28.693,33.682 64.862,63.667 103.287,89.258 35.27,23.493 73.699,40.594 110.757,55.666 41.016,16.69 74.74,25.063 74.74,25.063 z M 49.17,288.748 c 8.753,0 14.154,6.864 14.154,15.186 0,13.951 -12.428,13.211 -12.694,15.605 -0.267,2.4 3.628,4.088 9.78,3.121 4.18,-0.655 7.978,-7.063 9.576,-5.2 1.598,1.863 -8.722,14.563 -18.524,14.563 -10.615,0 -20.815,-9.151 -20.815,-22.263 -10e-4,-14.982 8.118,-21.012 18.523,-21.012 z m 22.479,-0.208 c 7.242,0 8.3,2.527 10.408,9.359 1.968,6.393 6.334,7.958 7.284,7.911 0.95,-0.052 -2.657,-2.834 -4.58,-8.119 -1.665,-4.573 -4.092,-9.985 5.205,-9.985 8.958,0 8.915,3.828 10.198,7.284 2.082,5.615 7.685,9.83 8.533,9.778 0.848,-0.052 -4.37,-5.408 -5.62,-10.198 -0.959,-3.673 -0.844,-6.657 4.371,-6.657 4.37,0 7.077,4.998 10.822,11.655 3.27,5.808 6.605,18.967 0.21,19.556 -9.456,0.868 -37.635,1.697 -41.418,-0.622 -6.69,-4.111 -9.158,-9.363 -11.032,-17.063 -2.278,-9.363 -2.023,-12.899 5.619,-12.899 z m 32.261,-15.19 c -1.04,1.25 -1.247,8.114 -9.366,8.114 -8.116,0 -13.943,-5.822 -13.943,-16.228 0,-10.401 7.284,-15.813 17.064,-15.813 9.783,0 17.692,4.37 25.393,13.314 7.633,8.873 10.316,19.627 14.154,22.89 5.554,4.719 13.121,3.493 13.653,4.559 0.532,1.066 -6.994,4.593 -6.876,14.668 0.102,8.745 0.714,18.222 3.421,22.805 2.706,4.573 5.827,7.901 6.869,7.694 1.04,-0.208 1.245,-7.279 7.909,-7.279 7.284,0 11.03,4.78 11.03,14.771 0,9.985 -7.909,12.692 -18.106,12.692 -10.197,0 -18.941,-6.242 -22.27,-17.478 -3.331,-11.235 -6.452,-26.426 -10.615,-37.453 -4.163,-11.023 -11.447,-23.3 -13.529,-25.384 -2.082,-2.079 -3.746,-3.121 -4.788,-1.872 z m 46.298,12.126 c -10.422,-0.636 -11.365,-8.17 -11.365,-8.17 0,0 20.122,-5.932 48.097,-15.577 6.869,3.894 10.514,5.836 17.925,8.985 -10.288,3.466 -16.683,5.795 -19.783,6.799 -24.078,7.798 -28.54,8.349 -34.874,7.963 z m 82.146,-2.485 c -37.743,15.436 -83.07,28.227 -83.07,28.227 0,0 -1.589,-10.532 2.496,-15.394 4.371,-5.205 11.657,-6.449 34.134,-14.36 8.375,-2.942 15.275,-5.248 24.698,-8.478 10.351,5.248 15.301,7.327 21.742,10.005 z m 77.343,45.082 c 6.619,0 6.817,7.071 7.854,7.279 1.028,0.207 4.13,-3.121 6.817,-7.694 2.683,-4.583 4.135,-15.002 3.725,-23.738 -0.415,-8.736 -5.719,-11.137 -5.318,-12.734 0.396,-1.599 6.681,-2.527 11.514,-6.559 5.148,-4.295 6.671,-13.017 14.248,-21.89 7.642,-8.944 15.492,-13.314 25.199,-13.314 9.708,0 16.94,5.412 16.94,15.813 0,10.405 -5.785,16.228 -13.843,16.228 -8.053,0 -8.26,-6.864 -9.297,-8.114 -1.028,-1.249 -2.683,-0.207 -4.748,1.872 -2.065,2.084 -9.293,14.36 -13.427,25.384 -4.131,11.027 -7.229,26.218 -10.538,37.453 -3.3,11.235 -11.979,17.478 -22.102,17.478 -10.118,0 -17.973,-2.707 -17.973,-12.692 0.002,-9.991 3.722,-14.772 10.949,-14.772 z m 54.332,-40.16 c 5.177,0 5.29,2.984 4.337,6.657 -1.239,4.79 -5.577,10.198 -5.577,10.198 0,0 6.402,-4.163 8.473,-9.778 1.268,-3.456 1.226,-7.284 10.117,-7.284 9.231,0 6.817,5.412 5.167,9.985 -1.909,5.285 -4.545,8.119 -4.545,8.119 0,0 5.271,-1.519 7.228,-7.911 2.089,-6.832 3.141,-9.359 10.33,-9.359 7.586,0 7.836,3.536 5.577,12.899 -1.862,7.699 -4.313,12.951 -10.952,17.063 -3.752,2.319 -31.72,1.49 -41.102,0.622 -6.351,-0.589 -3.036,-13.748 0.207,-19.556 3.715,-6.657 6.402,-11.655 10.74,-11.655 z m 46.685,34.747 c 6.162,0.51 9.91,-1.32 9.707,-3.121 -0.198,-1.796 -12.602,-1.654 -12.602,-15.605 0,-8.321 5.365,-15.186 14.049,-15.186 10.33,0 18.383,6.03 18.383,21.013 0,13.111 -10.122,22.531 -20.655,22.263 -15.723,-0.396 -20.386,-12.965 -18.387,-14.563 1.999,-1.599 3.96,4.747 9.505,5.199 z"
           inkscape:connector-curvature="0" />
      </g>
    </g>
  </g>
</svg>
