<?xml version="1.0" encoding="UTF-8" standalone="no"?>
<!-- Created with Inkscape (http://www.inkscape.org/) -->

<svg
   xmlns:dc="http://purl.org/dc/elements/1.1/"
   xmlns:cc="http://creativecommons.org/ns#"
   xmlns:rdf="http://www.w3.org/1999/02/22-rdf-syntax-ns#"
   xmlns:svg="http://www.w3.org/2000/svg"
   xmlns="http://www.w3.org/2000/svg"
   xmlns:xlink="http://www.w3.org/1999/xlink"
   xmlns:sodipodi="http://sodipodi.sourceforge.net/DTD/sodipodi-0.dtd"
   xmlns:inkscape="http://www.inkscape.org/namespaces/inkscape"
   width="840"
   height="600"
   id="svg2"
   version="1.1"
   inkscape:version="0.48.3.1 r9886"
   sodipodi:docname="nsakey.svg"
   inkscape:export-filename="/mnt/worksp/home/ckhung/public_html/m/13/nsakey.png"
   inkscape:export-xdpi="90"
   inkscape:export-ydpi="90">
  <defs
     id="defs4">
    <marker
       inkscape:stockid="Arrow1Send"
       orient="auto"
       refY="0"
       refX="0"
       id="Arrow1Send"
       style="overflow:visible">
      <path
         id="path4024"
         d="M 0,0 5,-5 -12.5,0 5,5 0,0 z"
         style="fill-rule:evenodd;stroke:#000000;stroke-width:1pt"
         transform="matrix(-0.2,0,0,-0.2,-1.2,0)"
         inkscape:connector-curvature="0" />
    </marker>
    <marker
       inkscape:stockid="Arrow1Lend"
       orient="auto"
       refY="0"
       refX="0"
       id="Arrow1Lend"
       style="overflow:visible">
      <path
         id="path4012"
         d="M 0,0 5,-5 -12.5,0 5,5 0,0 z"
         style="fill-rule:evenodd;stroke:#000000;stroke-width:1pt"
         transform="matrix(-0.8,0,0,-0.8,-10,0)"
         inkscape:connector-curvature="0" />
    </marker>
    <inkscape:perspective
       sodipodi:type="inkscape:persp3d"
       inkscape:vp_x="0 : 0.5 : 1"
       inkscape:vp_y="0 : 1000 : 0"
       inkscape:vp_z="1 : 0.5 : 1"
       inkscape:persp3d-origin="0.5 : 0.33333333 : 1"
       id="perspective5436" />
    <inkscape:perspective
       sodipodi:type="inkscape:persp3d"
       inkscape:vp_x="0 : 0.5 : 1"
       inkscape:vp_y="0 : 1000 : 0"
       inkscape:vp_z="1 : 0.5 : 1"
       inkscape:persp3d-origin="0.5 : 0.33333333 : 1"
       id="perspective5413" />
    <filter
       height="3.1509435"
       y="-1.0754718"
       width="3.1509435"
       x="-1.0754718"
       id="filter5371-4"
       inkscape:collect="always"
       color-interpolation-filters="sRGB">
      <feGaussianBlur
         id="feGaussianBlur5373-8"
         stdDeviation="19.681861"
         inkscape:collect="always" />
    </filter>
    <inkscape:perspective
       sodipodi:type="inkscape:persp3d"
       inkscape:vp_x="0 : 0.5 : 1"
       inkscape:vp_y="0 : 1000 : 0"
       inkscape:vp_z="1 : 0.5 : 1"
       inkscape:persp3d-origin="0.5 : 0.33333333 : 1"
       id="perspective5383" />
    <filter
       height="3.1509435"
       y="-1.0754718"
       width="3.1509435"
       x="-1.0754718"
       id="filter5371"
       inkscape:collect="always"
       color-interpolation-filters="sRGB">
      <feGaussianBlur
         id="feGaussianBlur5373"
         stdDeviation="19.681861"
         inkscape:collect="always" />
    </filter>
    <filter
       id="filter5329"
       inkscape:collect="always"
       color-interpolation-filters="sRGB">
      <feGaussianBlur
         id="feGaussianBlur5331"
         stdDeviation="1.6493015"
         inkscape:collect="always" />
    </filter>
    <inkscape:perspective
       sodipodi:type="inkscape:persp3d"
       inkscape:vp_x="0 : 0.5 : 1"
       inkscape:vp_y="0 : 1000 : 0"
       inkscape:vp_z="1 : 0.5 : 1"
       inkscape:persp3d-origin="0.5 : 0.33333333 : 1"
       id="perspective5142" />
    <inkscape:perspective
       sodipodi:type="inkscape:persp3d"
       inkscape:vp_x="0 : 0.5 : 1"
       inkscape:vp_y="0 : 1000 : 0"
       inkscape:vp_z="1 : 0.5 : 1"
       inkscape:persp3d-origin="0.5 : 0.33333333 : 1"
       id="perspective5118" />
    <inkscape:perspective
       id="perspective10"
       inkscape:persp3d-origin="372.04724 : 350.78739 : 1"
       inkscape:vp_z="744.09448 : 526.18109 : 1"
       inkscape:vp_y="0 : 1000 : 0"
       inkscape:vp_x="0 : 526.18109 : 1"
       sodipodi:type="inkscape:persp3d" />
    <linearGradient
       gradientUnits="userSpaceOnUse"
       y2="397.82999"
       x2="438.46768"
       y1="413.95215"
       x1="437.9165"
       id="linearGradient3019"
       xlink:href="#linearGradient3011"
       inkscape:collect="always" />
    <linearGradient
       id="linearGradient3011"
       inkscape:collect="always">
      <stop
         id="stop3013"
         offset="0"
         style="stop-color:#d38d5f;stop-opacity:1" />
      <stop
         id="stop3015"
         offset="1"
         style="stop-color:#c87137;stop-opacity:0;" />
    </linearGradient>
  </defs>
  <sodipodi:namedview
     id="base"
     pagecolor="#ffffff"
     bordercolor="#666666"
     borderopacity="1.0"
     inkscape:pageopacity="0.0"
     inkscape:pageshadow="2"
     inkscape:zoom="0.86166667"
     inkscape:cx="529.78"
     inkscape:cy="295.35784"
     inkscape:document-units="px"
     inkscape:current-layer="layer1"
     showgrid="false"
     inkscape:window-width="1920"
     inkscape:window-height="1031"
     inkscape:window-x="-1"
     inkscape:window-y="-4"
     inkscape:window-maximized="1"
     fit-margin-top="0"
     fit-margin-left="0"
     fit-margin-right="0"
     fit-margin-bottom="0" />
  <metadata
     id="metadata7">
    <rdf:RDF>
      <cc:Work
         rdf:about="">
        <dc:format>image/svg+xml</dc:format>
        <dc:type
           rdf:resource="http://purl.org/dc/dcmitype/StillImage" />
        <dc:title />
      </cc:Work>
    </rdf:RDF>
  </metadata>
  <g
     inkscape:label="Layer 1"
     inkscape:groupmode="layer"
     id="layer1"
     transform="translate(162.85715,-209.14794)">
    <image
       y="310.22137"
       x="-94.658112"
       id="image3060"
       xlink:href="file:///home/ckhung/public_html/m/13/many-bridges.jpg"
       height="485"
       width="400" />
    <path
       style="fill:none;stroke:#000000;stroke-width:1px;stroke-linecap:butt;stroke-linejoin:miter;stroke-opacity:1"
       d="m 305.84812,391.8112 130.92235,0.9102 0.12655,51.21469 -129.73473,-1.03675"
       id="path3063"
       inkscape:connector-curvature="0"
       sodipodi:nodetypes="cccc" />
    <path
       style="fill:none;stroke:#000000;stroke-width:1px;stroke-linecap:butt;stroke-linejoin:miter;stroke-opacity:1"
       d="m 307.28884,650.5114 131.17547,-10e-6 0.91019,24.0304 -131.9591,0"
       id="path3065"
       inkscape:connector-curvature="0"
       sodipodi:nodetypes="cccc" />
    <path
       style="fill:none;stroke:#000000;stroke-width:1px;stroke-linecap:butt;stroke-linejoin:miter;stroke-opacity:1"
       d="m 308.49084,494.13835 130.15806,0 0.91019,228.45924 -132.88864,1e-5"
       id="path3067"
       inkscape:connector-curvature="0"
       sodipodi:nodetypes="cccc" />
    <path
       style="fill:none;stroke:#000000;stroke-width:1px;stroke-linecap:butt;stroke-linejoin:miter;stroke-opacity:1"
       d="m 307.58064,525.99522 130.15806,-0.9102 1.40992,16.93986 -130.65778,-0.9102"
       id="path3069"
       inkscape:connector-curvature="0"
       sodipodi:nodetypes="cccc" />
    <path
       style="fill:none;stroke:#000000;stroke-width:1px;stroke-linecap:butt;stroke-linejoin:miter;stroke-opacity:1"
       d="m 307.58064,598.81091 131.06826,0 0,21.84471 -132.88865,0"
       id="path3071"
       inkscape:connector-curvature="0"
       sodipodi:nodetypes="cccc" />
    <g
       id="layer1-3"
       inkscape:label="Layer 1"
       transform="matrix(0.09012207,0,0,0.09012207,-106.19491,220.66359)">
      <path
         sodipodi:nodetypes="cccccc"
         id="path2816"
         d="M 420.85159,559.53095 C 298.32983,390.65577 157.73739,537.71276 151.00278,744.00366 c 30.42633,22.47896 61.76179,30.00188 82.034,-14.20307 47.66071,37.77968 224.0806,28.37394 281.35105,-4.08911 10.55808,14.62286 20.05807,62.77415 85.18638,15.43503 C 594.51067,537.71919 475.12615,354.16254 420.85159,559.53095 z"
         style="fill:#001370;fill-opacity:1;stroke:#000000;stroke-width:9;stroke-linecap:round;stroke-linejoin:round;stroke-miterlimit:4;stroke-opacity:1;stroke-dasharray:none"
         inkscape:connector-curvature="0" />
      <path
         transform="matrix(2.4217964,0,0,2.2948502,-429.68122,-803.53872)"
         d="m 317.99258,606.99689 c 0,12.12862 -9.83219,21.96081 -21.96081,21.96081 -12.12862,0 -21.96081,-9.83219 -21.96081,-21.96081 0,-12.12863 9.83219,-21.96082 21.96081,-21.96082 12.12862,0 21.96081,9.83219 21.96081,21.96082 z"
         sodipodi:ry="21.960814"
         sodipodi:rx="21.960814"
         sodipodi:cy="606.99689"
         sodipodi:cx="296.03177"
         id="path5341"
         style="fill:#ffffff;fill-opacity:1;fill-rule:nonzero;stroke:none;filter:url(#filter5371)"
         sodipodi:type="arc" />
      <path
         id="path3602"
         d="m 307.45139,462.05551 -112.43937,45.67849 45.6785,43.92163 103.65504,-75.5452 -36.89417,-14.05492 z"
         style="fill:#000000;fill-opacity:1;fill-rule:nonzero;stroke:#000000;stroke-width:5;stroke-linecap:round;stroke-linejoin:round;stroke-miterlimit:4;stroke-opacity:1;stroke-dasharray:none"
         inkscape:connector-curvature="0" />
      <path
         sodipodi:nodetypes="ccccc"
         id="path3602-1"
         d="m 431.56724,467.0516 105.37753,30.6677 9.7016,-28.07662 -124.42726,-13.56494 9.34813,10.97386 z"
         style="fill:#000000;fill-opacity:1;fill-rule:nonzero;stroke:#000000;stroke-width:5;stroke-linecap:round;stroke-linejoin:round;stroke-miterlimit:4;stroke-opacity:1;stroke-dasharray:none"
         inkscape:connector-curvature="0" />
      <path
         transform="matrix(0.99993103,0,0,1.0519613,-59.969655,9.0538836)"
         d="m 625.71428,286.64789 c 0,102.56716 -83.14712,185.71428 -185.71428,185.71428 -102.56716,0 -185.71428,-83.14712 -185.71428,-185.71428 0,-102.56717 83.14712,-185.71428 185.71428,-185.71428 102.56716,0 185.71428,83.14711 185.71428,185.71428 z"
         sodipodi:ry="185.71428"
         sodipodi:rx="185.71428"
         sodipodi:cy="286.64789"
         sodipodi:cx="440"
         id="path2818"
         style="fill:#ffc6b1;fill-opacity:1;fill-rule:evenodd;stroke:#000000;stroke-width:8.77521133;stroke-linecap:butt;stroke-linejoin:miter;stroke-miterlimit:4;stroke-opacity:1;stroke-dasharray:none"
         sodipodi:type="arc" />
      <path
         sodipodi:nodetypes="ccc"
         id="path3594-4"
         d="m 323.66017,203.21112 c 194.66125,30.06028 201.38199,3.30134 198.52576,-26.35298 157.10743,160.30012 -114.76216,202.02164 -198.52576,26.35298 z"
         style="opacity:0.4375;fill:#000000;fill-opacity:1;stroke:#000000;stroke-width:5;stroke-linecap:butt;stroke-linejoin:miter;stroke-miterlimit:4;stroke-opacity:1;stroke-dasharray:none;filter:url(#filter5329)"
         inkscape:connector-curvature="0" />
      <path
         sodipodi:nodetypes="ccccc"
         id="path3592"
         d="m 177.44337,121.22369 c -34.76423,11.53665 16.90102,38.92804 40.4079,101.89817 92.88023,-70.74184 149.36943,3.58555 314.47885,-29.8667 -8.00557,-42.17425 15.07472,-59.08538 8.78433,-126.494287 C 416.2147,88.294028 335.93183,36.711701 177.44337,121.22369 z"
         style="fill:#001370;fill-opacity:1;stroke:#000000;stroke-width:9;stroke-linecap:round;stroke-linejoin:round;stroke-miterlimit:4;stroke-opacity:1;stroke-dasharray:none"
         inkscape:connector-curvature="0" />
      <path
         sodipodi:nodetypes="ccc"
         id="path3594"
         d="m 319.74944,184.47083 c 194.66125,30.06028 197.65512,16.96654 209.70638,-10.20318 237.92317,142.73146 -125.94278,185.87184 -209.70638,10.20318 z"
         style="fill:#000000;fill-opacity:1;stroke:#000000;stroke-width:5;stroke-linecap:round;stroke-linejoin:round;stroke-miterlimit:4;stroke-opacity:1;stroke-dasharray:none"
         inkscape:connector-curvature="0" />
      <path
         id="rect3598"
         d="m 404.15948,-246.50262 70.27461,0 0,70.2746 -70.27461,0 0,-70.2746 z"
         style="fill:#ffd018;fill-opacity:1;stroke:#000000;stroke-width:5;stroke-linecap:round;stroke-linejoin:round;stroke-miterlimit:4;stroke-opacity:1"
         transform="matrix(0.74039053,0.67217696,-0.67217696,0.74039053,0,0)"
         inkscape:connector-curvature="0" />
      <path
         sodipodi:nodetypes="cc"
         id="path5132"
         d="m 202.03948,214.33754 c 68.32283,-26.15983 120.80259,-23.99089 182.71397,-7.02745"
         style="fill:none;stroke:#000000;stroke-width:32;stroke-linecap:butt;stroke-linejoin:miter;stroke-miterlimit:4;stroke-opacity:1;stroke-dasharray:none"
         inkscape:connector-curvature="0" />
      <path
         transform="matrix(1.2519331,0,0,1.186309,-100.74774,-586.7747)"
         d="m 317.99258,606.99689 c 0,12.12862 -9.83219,21.96081 -21.96081,21.96081 -12.12862,0 -21.96081,-9.83219 -21.96081,-21.96081 0,-12.12863 9.83219,-21.96082 21.96081,-21.96082 12.12862,0 21.96081,9.83219 21.96081,21.96082 z"
         sodipodi:ry="21.960814"
         sodipodi:rx="21.960814"
         sodipodi:cy="606.99689"
         sodipodi:cx="296.03177"
         id="path5341-8"
         style="fill:#ffffff;fill-opacity:1;fill-rule:nonzero;stroke:none;filter:url(#filter5371-4)"
         sodipodi:type="arc" />
      <path
         sodipodi:nodetypes="cc"
         id="path5403"
         d="m 228.1976,502.78313 26.3347,26.95583"
         style="fill:none;stroke:#ffd018;stroke-width:12;stroke-linecap:round;stroke-linejoin:round;stroke-miterlimit:4;stroke-opacity:1;stroke-dasharray:none"
         inkscape:connector-curvature="0" />
      <path
         sodipodi:nodetypes="cc"
         id="path5403-2"
         d="m 530.44082,474.73572 -3.92173,10.61119"
         style="fill:none;stroke:#ffd018;stroke-width:12;stroke-linecap:round;stroke-linejoin:round;stroke-miterlimit:4;stroke-opacity:1;stroke-dasharray:none"
         inkscape:connector-curvature="0" />
      <path
         transform="translate(18.447083,18.447083)"
         d="m 332.92594,327.21613 c 0,15.28206 -10.02884,27.67062 -22.40003,27.67062 -12.3712,0 -22.40003,-12.38856 -22.40003,-27.67062 0,-15.28207 10.02883,-27.67063 22.40003,-27.67063 12.37119,0 22.40003,12.38856 22.40003,27.67063 z"
         sodipodi:ry="27.670626"
         sodipodi:rx="22.40003"
         sodipodi:cy="327.21613"
         sodipodi:cx="310.52591"
         id="path3045"
         style="fill:#ffffff;fill-opacity:1;stroke:none"
         sodipodi:type="arc" />
      <path
         transform="translate(147.57667,18.447083)"
         sodipodi:type="arc"
         style="fill:#ffffff;fill-opacity:1;stroke:none"
         id="path3060"
         sodipodi:cx="310.52591"
         sodipodi:cy="327.21613"
         sodipodi:rx="22.40003"
         sodipodi:ry="27.670626"
         d="m 332.92594,327.21613 c 0,15.28206 -10.02884,27.67062 -22.40003,27.67062 -12.3712,0 -22.40003,-12.38856 -22.40003,-27.67062 0,-15.28207 10.02883,-27.67063 22.40003,-27.67063 12.37119,0 22.40003,12.38856 22.40003,27.67063 z" />
      <path
         d="m 400.56523,390.02405 c 0,2.91087 -1.96644,5.27059 -4.39216,5.27059 -2.42573,0 -4.39217,-2.35972 -4.39217,-5.27059 0,-2.91087 1.96644,-5.2706 4.39217,-5.2706 2.42572,0 4.39216,2.35973 4.39216,5.2706 z"
         sodipodi:ry="5.2705951"
         sodipodi:rx="4.3921628"
         sodipodi:cy="390.02405"
         sodipodi:cx="396.17307"
         id="path3062"
         style="fill:#ffffff;fill-opacity:1;stroke:none"
         sodipodi:type="arc" />
      <path
         inkscape:connector-curvature="0"
         id="path3064"
         d="m 326.8853,433.942 c 1.49528,15.22442 18.36325,27.25 38.96875,27.25 20.6055,0 37.50472,-12.02558 39,-27.25 l -77.96875,0 z"
         style="fill:#ffffff;fill-opacity:1;stroke:none" />
      <path
         d="m 339.9534,356.20441 c 0,4.12373 -3.34294,7.46667 -7.46668,7.46667 -4.12373,0 -7.46667,-3.34294 -7.46667,-7.46667 0,-4.12373 3.34294,-7.46668 7.46667,-7.46668 4.12374,0 7.46668,3.34295 7.46668,7.46668 z"
         sodipodi:ry="7.4666767"
         sodipodi:rx="7.4666767"
         sodipodi:cy="356.20441"
         sodipodi:cx="332.48672"
         id="path3069-7"
         style="fill:#000000;fill-opacity:1;stroke:none"
         sodipodi:type="arc" />
      <path
         transform="translate(130.00802,1.7568651)"
         sodipodi:type="arc"
         style="fill:#000000;fill-opacity:1;stroke:none"
         id="path3071-3"
         sodipodi:cx="332.48672"
         sodipodi:cy="356.20441"
         sodipodi:rx="7.4666767"
         sodipodi:ry="7.4666767"
         d="m 339.9534,356.20441 c 0,4.12373 -3.34294,7.46667 -7.46668,7.46667 -4.12373,0 -7.46667,-3.34294 -7.46667,-7.46667 0,-4.12373 3.34294,-7.46668 7.46667,-7.46668 4.12374,0 7.46668,3.34295 7.46668,7.46668 z" />
    </g>
    <path
       style="fill:none;stroke:#ff0000;stroke-width:1px;stroke-linecap:butt;stroke-linejoin:miter;stroke-opacity:1;marker-mid:url(#Arrow1Lend);marker-end:url(#Arrow1Lend)"
       d="m 383.78678,353.26351 0.70544,37.56756 0.68265,21.61716 -0.22755,28.89873"
       id="path3233"
       inkscape:connector-curvature="0"
       sodipodi:nodetypes="cccc" />
    <path
       style="fill:none;stroke:#000000;stroke-width:1px;stroke-linecap:butt;stroke-linejoin:miter;stroke-opacity:1;marker-mid:url(#Arrow1Lend);marker-end:url(#Arrow1Lend)"
       d="m 331.90561,352.26213 1.84319,39.42288 0.68264,22.01474 c -0.28151,9.06846 -0.55534,18.19841 -0.45121,30.352 0.10412,12.15358 0.5862,27.33079 1.8165,48.49375 l 0.9102,33.90481 -0.9102,16.61108 0,53.01893 0,22.98245 0,30.26403 0.9102,25.71304 0,45.73736"
       id="path3235"
       inkscape:connector-curvature="0"
       sodipodi:nodetypes="cccscccccccc" />
    <path
       style="fill:none;stroke:#000000;stroke-width:1;stroke-linecap:butt;stroke-linejoin:miter;stroke-miterlimit:4;stroke-opacity:1;stroke-dasharray:8, 8;stroke-dashoffset:0"
       d="M 435.91831,415.86148 309.40104,409.4901"
       id="path4631"
       inkscape:connector-curvature="0" />
    <text
       xml:space="preserve"
       style="font-size:18px;font-style:normal;font-weight:normal;line-height:125%;letter-spacing:0px;word-spacing:0px;fill:#000000;fill-opacity:1;stroke:none;font-family:Sans"
       x="380.16919"
       y="343.91122"
       id="text4997"
       sodipodi:linespacing="125%"><tspan
         sodipodi:role="line"
         id="tspan4999"
         x="380.16919"
         y="343.91122"
         style="fill:#ff0000">NSAKEY</tspan></text>
    <text
       xml:space="preserve"
       style="font-size:18px;font-style:normal;font-weight:normal;line-height:125%;letter-spacing:0px;word-spacing:0px;fill:#000000;fill-opacity:1;stroke:none;font-family:Sans"
       x="316.43225"
       y="322.77115"
       id="text5001"
       sodipodi:linespacing="125%"><tspan
         sodipodi:role="line"
         id="tspan5003"
         x="316.43225"
         y="322.77115">(微軟的)</tspan><tspan
         sodipodi:role="line"
         x="316.43225"
         y="343.46573"
         id="tspan3063">KEY</tspan></text>
    <text
       xml:space="preserve"
       style="font-size:27.5794754px;font-style:normal;font-weight:normal;line-height:125%;letter-spacing:0px;word-spacing:0px;fill:#ff0000;fill-opacity:1;stroke:none;font-family:Sans"
       x="-25.48649"
       y="618.11157"
       id="text5005"
       sodipodi:linespacing="125%"
       transform="matrix(0.70710678,-0.70710678,0.70710678,0.70710678,0,0)"><tspan
         sodipodi:role="line"
         id="tspan5007"
         x="-25.48649"
         y="618.11157">Suite B</tspan></text>
    <path
       style="fill:none;stroke:#0000ff;stroke-width:12;stroke-linecap:butt;stroke-linejoin:miter;stroke-miterlimit:4;stroke-opacity:1;stroke-dasharray:none;marker-end:url(#Arrow1Send)"
       d="m 492.98711,235.98416 c 0,0 -85.62807,-10.92235 -109.29317,-4.55098 -23.6651,6.37137 -36.31667,49.26499 -36.31667,49.26499"
       id="path5031"
       inkscape:connector-curvature="0"
       sodipodi:nodetypes="csc" />
    <path
       style="fill:none;stroke:#0000ff;stroke-width:12;stroke-linecap:butt;stroke-linejoin:miter;stroke-miterlimit:4;stroke-opacity:1;stroke-dasharray:none;marker-end:url(#Arrow1Send)"
       d="m 587.01088,500.50973 c 0,0 -70.08511,-2.73059 -85.55845,-13.65294 C 485.9791,475.93443 459.58341,458.6407 459.58341,458.6407"
       id="path5215"
       inkscape:connector-curvature="0"
       sodipodi:nodetypes="csc" />
    <use
       x="0"
       y="0"
       xlink:href="#path5215"
       id="use5399"
       transform="matrix(1,0,0,-1,-7.8041665e-7,1003.2948)"
       width="744.09448"
       height="1052.3622" />
    <text
       xml:space="preserve"
       style="font-size:18px;font-style:normal;font-weight:normal;line-height:125%;letter-spacing:0px;word-spacing:0px;fill:#0000ff;fill-opacity:1;stroke:none;font-family:Sans"
       x="496.90143"
       y="252.93636"
       id="text5401"
       sodipodi:linespacing="125%"><tspan
         sodipodi:role="line"
         id="tspan5403"
         x="496.90143"
         y="252.93636">造橋申請路線</tspan></text>
    <text
       xml:space="preserve"
       style="font-size:18px;font-style:normal;font-weight:normal;line-height:125%;letter-spacing:0px;word-spacing:0px;fill:#0000ff;fill-opacity:1;stroke:none;font-family:Sans"
       x="502.36261"
       y="546.01947"
       id="text5405"
       sodipodi:linespacing="125%"><tspan
         sodipodi:role="line"
         id="tspan5407"
         x="502.36261"
         y="546.01947">需要加解密服務</tspan><tspan
         sodipodi:role="line"
         x="502.36261"
         y="568.51947"
         id="tspan5409">的 apps 所走路線</tspan></text>
    <text
       xml:space="preserve"
       style="font-size:14px;font-style:normal;font-weight:normal;line-height:125%;letter-spacing:0px;word-spacing:0px;fill:#000000;fill-opacity:1;stroke:none;font-family:Sans"
       x="360.37201"
       y="711.67523"
       id="text5411"
       sodipodi:linespacing="125%"><tspan
         sodipodi:role="line"
         id="tspan5413"
         x="360.37201"
         y="711.67523">CTR_DRBG</tspan></text>
    <text
       xml:space="preserve"
       style="font-size:14px;font-style:normal;font-weight:normal;line-height:125%;letter-spacing:0px;word-spacing:0px;fill:#ff0000;fill-opacity:1;stroke:none;font-family:Sans"
       x="343.57565"
       y="464.53625"
       id="text5415"
       sodipodi:linespacing="125%"><tspan
         sodipodi:role="line"
         id="tspan5417"
         x="343.57565"
         y="464.53625">Dual EC DRBG</tspan></text>
    <text
       xml:space="preserve"
       style="font-size:14px;font-style:normal;font-weight:normal;line-height:125%;letter-spacing:0px;word-spacing:0px;fill:#000000;fill-opacity:1;stroke:none;font-family:Sans"
       x="359.46182"
       y="670.71637"
       id="text5419"
       sodipodi:linespacing="125%"><tspan
         sodipodi:role="line"
         id="tspan5421"
         x="359.46182"
         y="670.71637">RSA</tspan></text>
    <text
       xml:space="preserve"
       style="font-size:14px;font-style:normal;font-weight:normal;line-height:125%;letter-spacing:0px;word-spacing:0px;fill:#000000;fill-opacity:1;stroke:none;font-family:Sans"
       x="362.19241"
       y="640.67993"
       id="text5423"
       sodipodi:linespacing="125%"><tspan
         sodipodi:role="line"
         id="tspan5425"
         x="362.19241"
         y="640.67993">...</tspan></text>
    <text
       xml:space="preserve"
       style="font-size:14px;font-style:normal;font-weight:normal;line-height:125%;letter-spacing:0px;word-spacing:0px;fill:#000000;fill-opacity:1;stroke:none;font-family:Sans"
       x="352.84012"
       y="423.50778"
       id="text5427"
       sodipodi:linespacing="125%"><tspan
         sodipodi:role="line"
         id="tspan5429"
         x="352.84012"
         y="423.50778">...</tspan></text>
    <path
       style="fill:none;stroke:#000000;stroke-width:1px;stroke-linecap:butt;stroke-linejoin:miter;stroke-opacity:1"
       d="m -24.747065,236.80151 c 0,0 39.13844,-13.65294 55.52197,-15.47334 16.38353,-1.8204 173.653905,-2.47396 192.507325,6.62172 22.24561,10.73221 22.48135,51.94915 2.45704,63.7817 -20.02432,11.83255 -178.171338,9.76182 -187.273298,-0.25034 -9.10196,-10.01216 -13.152247,-41.02681 2.321083,-50.12876 7.72672,-4.54513 -7.77639,-9.41522 -26.39569,-5.46119 -17.1953496,3.65163 -39.13843,0.91021 -39.13843,0.91021 z"
       id="path5450"
       inkscape:connector-curvature="0"
       sodipodi:nodetypes="cssssssc" />
    <text
       xml:space="preserve"
       style="font-size:32px;font-style:normal;font-weight:normal;line-height:125%;letter-spacing:0px;word-spacing:0px;fill:#000000;fill-opacity:1;stroke:none;font-family:Sans"
       x="397.41153"
       y="383.22919"
       id="text3065"
       sodipodi:linespacing="125%"><tspan
         sodipodi:role="line"
         id="tspan3067"
         x="397.41153"
         y="383.22919"
         style="fill:#ff0000">?</tspan></text>
    <text
       xml:space="preserve"
       style="font-size:14px;font-style:normal;font-variant:normal;font-weight:normal;font-stretch:normal;text-align:start;line-height:125%;letter-spacing:0px;word-spacing:0px;writing-mode:tb-rl;text-anchor:start;fill:#000000;fill-opacity:1;stroke:none;font-family:Sans;-inkscape-font-specification:Sans"
       x="-132.95598"
       y="332.16534"
       id="text3849"
       sodipodi:linespacing="125%"><tspan
         sodipodi:role="line"
         id="tspan3851"
         x="332.16534"
         y="-132.95598">這頭已加密, 不怕竊聽, 安心啦!</tspan></text>
    <path
       sodipodi:nodetypes="csc"
       inkscape:connector-curvature="0"
       id="path3061"
       d="m 545.21149,316.06152 c 0,0 -65.89886,-52.70185 -89.56396,-46.33048 -23.6651,6.37137 -37.47721,34.17795 -37.47721,34.17795"
       style="fill:none;stroke:#0000ff;stroke-width:12;stroke-linecap:butt;stroke-linejoin:miter;stroke-miterlimit:4;stroke-opacity:1;stroke-dasharray:none;marker-end:url(#Arrow1Send)" />
    <text
       xml:space="preserve"
       style="font-size:18px;font-style:normal;font-weight:normal;line-height:125%;letter-spacing:0px;word-spacing:0px;fill:#0000ff;fill-opacity:1;stroke:none;font-family:Sans"
       x="417.41367"
       y="324.04156"
       id="text3066"
       sodipodi:linespacing="125%"><tspan
         sodipodi:role="line"
         id="tspan3068"
         x="417.41367"
         y="324.04156">維修工事路線</tspan></text>
    <text
       xml:space="preserve"
       style="font-size:14px;font-style:normal;font-weight:normal;line-height:125%;letter-spacing:0px;word-spacing:0px;fill:#000000;fill-opacity:1;stroke:none;font-family:Sans"
       x="222.82397"
       y="27.853001"
       id="text3070"
       sodipodi:linespacing="125%"
       transform="translate(-162.85715,209.14794)"><tspan
         sodipodi:role="line"
         id="tspan3072"
         x="222.82397"
         y="27.853001">BXA 出口文件無誤,</tspan><tspan
         sodipodi:role="line"
         x="222.82397"
         y="46.849655"
         id="tspan3074">就可以申請造橋。</tspan><tspan
         sodipodi:role="line"
         x="222.82397"
         y="64.349655"
         id="tspan3076">以後如果需要維修, 請自便。</tspan><tspan
         sodipodi:role="line"
         x="222.82397"
         y="81.849655"
         id="tspan3078">(我們會核對身份。)</tspan></text>
    <text
       xml:space="preserve"
       style="font-size:14px;font-style:normal;font-weight:normal;line-height:125%;letter-spacing:0px;word-spacing:0px;fill:#000000;fill-opacity:1;stroke:none;font-family:Sans"
       x="118.37524"
       y="59.187622"
       id="text3080"
       sodipodi:linespacing="125%"
       transform="translate(-162.85715,209.14794)"><tspan
         sodipodi:role="line"
         id="tspan3082"
         x="118.37524"
         y="59.187622">Microsoft</tspan></text>
    <text
       xml:space="preserve"
       style="font-size:24px;font-style:normal;font-weight:normal;line-height:125%;letter-spacing:0px;word-spacing:0px;fill:#000000;fill-opacity:1;stroke:none;font-family:Sans"
       x="459.19315"
       y="672.20404"
       id="text3084"
       sodipodi:linespacing="125%"><tspan
         sodipodi:role="line"
         x="459.19315"
         y="672.20404"
         id="tspan3096">Windows 的 CAPI</tspan><tspan
         sodipodi:role="line"
         x="459.19315"
         y="710.19733"
         id="tspan3088">系統及 NSA 要求</tspan><tspan
         sodipodi:role="line"
         x="459.19315"
         y="748.19067"
         id="tspan3112">微軟安置的後門</tspan></text>
    <path
       style="fill:none;stroke:#000000;stroke-width:1px;stroke-linecap:butt;stroke-linejoin:miter;stroke-opacity:1"
       d="m 55.705996,38.297875 c 0,0 -42.527242,33.753029 -44.10058,46.421663 C 8.1237913,112.75385 9.2843326,351.6441 16.247582,365.5706 c 6.96325,13.9265 10.444874,19.72921 22.05029,0 C 49.903288,345.84139 56.866537,123.01741 41.779497,106.76982 26.692456,90.522246 23.210832,94.003871 23.210832,94.003871 c 0,0 -0.474042,-17.27483 9.284332,-25.531916 9.758374,-8.257085 23.210832,-30.17408 23.210832,-30.17408 z"
       id="path3092"
       inkscape:connector-curvature="0"
       transform="translate(-162.85715,209.14794)"
       sodipodi:nodetypes="cssssczc" />
    <text
       xml:space="preserve"
       style="font-size:14px;font-style:normal;font-weight:normal;line-height:125%;letter-spacing:0px;word-spacing:0px;fill:#000000;fill-opacity:1;stroke:none;font-family:Sans"
       x="507.15668"
       y="565.18378"
       id="text3114"
       sodipodi:linespacing="125%"
       transform="translate(-162.85715,209.14794)"><tspan
         sodipodi:role="line"
         id="tspan3116"
         x="507.15668"
         y="565.18378">(每座橋代表一個 CSP)</tspan></text>
    <g
       transform="matrix(-0.20038654,0,0,0.20038654,652.33399,215.00004)"
       style="display:inline"
       inkscape:label="burglar"
       id="layer2">
      <path
         transform="matrix(1.2957562,-0.00309598,0.00401165,0.99999521,-67.379397,-0.01852844)"
         d="m 463.54659,762.43884 c 0,7.91469 -51.32897,14.33081 -114.64647,14.33081 -63.3175,0 -114.64648,-6.41612 -114.64648,-14.33081 0,-7.91469 51.32898,-14.33081 114.64648,-14.33081 63.3175,0 114.64647,6.41612 114.64647,14.33081 z"
         sodipodi:ry="14.330811"
         sodipodi:rx="114.64648"
         sodipodi:cy="762.43884"
         sodipodi:cx="348.90012"
         id="path4171"
         style="fill:#241f1c;fill-opacity:1;stroke:none"
         sodipodi:type="arc" />
      <path
         sodipodi:nodetypes="ccccccccsccccccssscccscssssscssssscscsssssccssscsccssssscsccssscccccccccccsccsccssccssccssccccscsscccccscsssssssssscssscccccccsssscccccccssscsscsccssssscsssccsssccssscsssssssscsscscsscccccccccccccccccccccsssssssscssssscssscsccsscccsssccsssccscscsssssccccssssscssssssscsssssccssccccccccccccccccccccccsssscscssccccccccsscccccccccsscc"
         inkscape:connector-curvature="0"
         id="path4111"
         d="m 367.875,295.28125 c -4.09309,0.084 -7.96903,0.4836 -11.40625,1.3125 -0.01,0.002 -0.0217,-0.002 -0.0312,0 -0.36996,0.0873 -0.6961,0.1686 -1,0.25 -0.0104,-7e-5 -0.0208,-7e-5 -0.0312,0 -0.26148,0.0722 -0.48418,0.16663 -0.65625,0.21875 -0.007,0.002 -0.024,-0.002 -0.0312,0 -0.43154,0.12786 -0.79455,0.27272 -1.09375,0.375 -1.38171,0.47806 -2.69808,1.01208 -3.90625,1.71875 -4.75465,2.78102 -8.40116,6.98992 -11,11.78125 -0.11799,0.21733 -0.15405,0.33957 -0.15625,0.34375 -0.36309,0.68499 -0.67735,1.3365 -0.96875,1.96875 0.27859,-0.60539 0.24744,-0.58411 -0.0625,0.0937 -2.85248,6.2364 -4.16852,13.2435 -4.25,19.75 -0.003,0.2803 -8e-4,0.54078 0,0.78125 0.0149,4.61139 0.63691,8.96709 1.9375,12.625 2.25556,6.34376 4.66786,11.03866 6.59375,14.375 0.96294,1.66817 1.77792,3.00131 2.40625,4 0.62833,0.99869 1.04974,1.77931 1.0625,1.8125 0.76325,1.98445 2.2892,2.6253 3.53125,3.25 0.33964,0.17083 0.43762,0.17855 0.75,0.3125 -0.47718,1.39462 -1.04581,2.78056 -1.28125,4.1875 -0.16162,0.96579 -0.26973,1.86902 -0.3125,2.75 -3.05405,-2.8473 -8.22435,-6.3514 -14.65625,-9.65625 -7.09697,-3.64659 -15.14996,-6.80528 -22.03125,-7.1875 -11.13791,-0.61865 -27.60986,2.15486 -38.65625,7.96875 -6.07607,3.19793 -11.11584,10.38748 -15.375,17.125 -2.12958,3.36876 -4.01902,6.63919 -5.5625,9.21875 -1.54348,2.57956 -2.98661,4.59971 -3.21875,4.8125 -1.02485,0.93945 -1.37135,2.00226 -1.6875,3.21875 -0.31615,1.21649 -0.50452,2.64624 -0.625,4.25 -0.24096,3.20752 -0.15728,7.15254 0.25,11.375 0.81457,8.44491 2.831,17.84835 6.65625,23.96875 4.35829,6.97327 13.2812,10.46471 21,12.53125 4.97127,1.33095 8.75657,1.90054 11.375,2.21875 -2.37489,4.97368 -4.19609,9.30299 -4.3125,12.5625 -0.0302,0.8455 0.0148,1.57983 0.0312,2.34375 -0.94386,0.48528 -1.92099,0.98508 -2.65625,1.40625 -1.07388,0.61514 -1.80308,1.02183 -2.53125,1.75 -1.85563,1.85563 -2.06738,4.35131 -1.90625,6.5625 0.16113,2.21119 0.76259,4.29395 1.4375,5.8125 0.81393,1.83133 2.29856,3.54986 3.65625,5.09375 0.59908,0.68124 0.67416,0.74081 1.125,1.21875 -0.29858,0.33212 -0.34833,0.29982 -0.65625,0.71875 -0.52139,0.70938 -1.03474,1.53044 -1.34375,2.5625 -0.30901,1.03206 -0.34679,2.45138 0.40625,3.65625 0.99275,1.58839 2.44536,2.73 3.96875,3.59375 0.8994,0.50995 1.79689,0.9034 2.75,1.125 -0.0948,1.3948 -0.24877,2.44959 -0.15625,4.96875 0.14081,3.83391 0.3989,8.16276 3.0625,11.03125 0.2721,0.29304 0.64741,0.60049 0.96875,0.90625 -0.80872,6.64339 -1.58779,12.76584 -1.84375,13.875 -0.75483,3.27092 0.22249,6.34101 1.5,8.6875 1.27751,2.34649 2.73144,3.97826 3.96875,4.90625 0.50278,0.37708 0.80001,0.48244 1.34375,0.75 0.54374,0.26756 1.23306,0.60378 2.0625,0.96875 1.35942,0.59817 3.27223,1.35757 5.25,2.125 0.49739,2.85974 1.1811,5.43347 2.34375,7.46875 1.3465,2.35712 3.66685,4.19069 6.46875,4.09375 1.10476,-0.0382 2.21183,-0.0983 3.3125,-0.15625 0.0697,4.9366 0.24995,19.83756 0.28125,35.9375 0.0167,8.56799 -0.0198,17.04333 -0.15625,23.65625 -0.0682,3.30646 -0.15847,6.15469 -0.28125,8.28125 -0.12278,2.12656 -0.42547,3.80766 -0.375,3.65625 -1.26111,3.78335 -4.96875,4.59375 -4.96875,4.59375 -0.79607,0.16894 -1.47338,0.80863 -1.6875,1.59375 l -1.84375,6.5 -4.84375,1.3125 c -0.71073,0.19552 -1.3063,0.76678 -1.53125,1.46875 l -3.53135,11.0313 -23.75,7.9375 c -0.45659,0.15925 -0.85826,0.47166 -1.125,0.875 -3.93482,-0.22041 -7.61827,0.009 -10.3125,0.75 -0.10712,0.0337 -0.21168,0.0755 -0.3125,0.125 -3.3582,1.51119 -5.3832,4.34479 -6.5,7.4375 -1.1168,3.09271 -1.52701,6.51711 -1.96875,10 -0.0143,0.14536 -0.0143,0.29214 0,0.4375 0.56646,8.65757 0.84603,21.21319 1.75,33.46875 0.90397,12.25556 2.3502,24.14177 5.5625,31.96875 0.15855,0.37289 0.42101,0.70096 0.75,0.9375 2.01518,1.4909 5.89382,3.32001 10.6875,5.03125 4.79368,1.71124 10.24238,3.15625 14.875,3.15625 9.2617,0 14.4375,-6.34375 14.4375,-6.34375 0.33672,-0.42981 0.50717,-0.9866 0.46875,-1.53125 0,0 -0.12452,-2.66341 -0.875,-5.65625 -0.75048,-2.99284 -1.94567,-6.66033 -5.3125,-8.34375 -4.12029,-2.06015 -10.04775,-4.38792 -11.5,-4.96875 -0.0192,-1.06821 -0.0666,-5.4739 -0.125,-11 0.13845,-0.15472 0.37249,-0.28537 0.46875,-0.4375 0.50503,-0.79815 0.64016,-1.54406 0.71875,-2.28125 0.15718,-1.47437 0.20053,-2.91408 -1,-4.46875 -0.0732,-0.0948 -0.17091,-0.16025 -0.25,-0.25 -9.8e-4,-0.36656 2e-4,-0.71002 0,-1.0625 0.12926,-0.14987 0.34323,-0.29058 0.4375,-0.4375 0.45789,-0.71359 0.64453,-1.40689 0.78125,-2.125 0.2539,-1.33363 0.41061,-2.70929 -0.53125,-4.25 0.63793,-0.53386 1.07549,-1.10611 1.375,-1.71875 0.34468,-0.70503 0.59305,-1.43162 0.71875,-2.21875 0.1257,-0.78713 0.19885,-1.61787 -0.21875,-2.625 -0.0178,-0.043 -0.044,-0.0525 -0.0625,-0.0937 0.80717,-1.36319 1.71875,-2.84375 1.71875,-2.84375 0.0105,-0.0103 0.0209,-0.0207 0.0312,-0.0312 0.28061,-0.37415 0.29509,-0.86217 0.46875,-1.28125 3.2985,-0.16564 6.08479,-0.9055 8.0625,-2.4375 2.31321,-1.79188 3.60774,-4.26073 4.4375,-6.75 -0.0273,0.0818 0.49492,-0.87248 1.46875,-1.9375 0.97383,-1.06502 2.36032,-2.39819 4,-3.90625 3.27936,-3.01611 7.60931,-6.73561 12.09375,-10.65625 8.96888,-7.84128 18.47236,-16.20006 21.96875,-22.875 3.20599,-6.12053 9.05668,-20.88035 14.375,-35.03125 2.65916,-7.07545 5.18171,-13.96422 7.09375,-19.4375 1.91204,-5.47328 3.18451,-9.26631 3.5625,-11.15625 0.1214,-0.60698 0.7789,-1.69862 2.03125,-2.78125 1.25235,-1.08263 2.99511,-2.13939 4.84375,-3 1.84864,-0.86061 3.80827,-1.51598 5.46875,-1.84375 1.66048,-0.32777 3.05983,-0.23538 3.4375,-0.0937 0.57588,0.21595 2.15247,1.20114 3.96875,2.59375 1.81628,1.39261 3.96994,3.18411 6.3125,5.09375 4.68513,3.81927 10.02822,8.08994 15.0625,10.625 12.08962,6.08783 25.06446,16.97585 27.125,18.71875 l -1.84375,3.3125 c -0.3211,0.56223 -0.37986,1.26737 -0.15625,1.875 l 1.75,4.78125 -5.15625,5.625 c -0.44764,0.50162 -0.64923,1.21312 -0.53125,1.875 l 2,11.34375 c -0.93881,0.72248 -5.97841,4.58664 -11.84375,9.5 -3.19473,2.67621 -6.35963,5.44725 -8.71875,7.78125 -1.17956,1.167 -2.14962,2.21684 -2.875,3.1875 -0.36269,0.48533 -0.66376,0.94296 -0.90625,1.5 -0.24249,0.55704 -0.55917,1.32081 -0.125,2.40625 0.0543,0.13562 0.16242,0.164 0.21875,0.28125 -2.98703,1.60789 -5.83609,3.32668 -9.1875,5.21875 -0.73709,0.41632 -1.19506,1.28137 -1.125,2.125 1.32766,16.78492 4.86069,22.11873 11.03125,29.71875 0.52934,0.64399 1.44013,0.94759 2.25,0.75 l 2.0625,-0.5 c 0.58271,1.10792 1.80177,3.32871 3.46875,6.9375 1.01671,2.20104 1.99635,4.50053 2.625,6.3125 0.31433,0.90599 0.52248,1.6781 0.625,2.21875 0.10252,0.54065 -0.0389,0.89405 0.15625,0.40625 -0.5899,1.47474 -0.59425,2.89324 -0.59375,4.9375 5e-4,2.04426 0.15333,4.47432 0.4375,7.0625 0.56835,5.17635 1.61171,6.78636 3.53125,10.625 1.88522,3.77044 5.53057,8.02503 8.75,11.53125 3.21943,3.50622 6.03125,6.1875 6.03125,6.1875 0.60201,0.56969 1.53617,0.75905 2.3125,0.46875 0,0 3.1348,-1.18087 6.125,-3.40625 1.4951,-1.11269 3.01906,-2.5223 4.09375,-4.3125 1.07469,-1.7902 1.64672,-4.07257 1.09375,-6.46875 -0.91612,-3.96986 -3.26392,-9.67104 -5.59375,-15.96875 -2.32983,-6.29771 -4.59662,-9.11384 -5.375,-14.5625 -0.15037,-1.05261 -0.38884,-2.42031 -0.59375,-3.71875 0.31794,-0.25784 0.6691,-0.48659 0.875,-0.84375 0.61404,-1.06515 0.52129,-2.20159 0.25,-3.0625 -0.27129,-0.86091 -0.72839,-1.59631 -1.375,-2.1875 -0.19517,-0.17844 -0.47284,-0.3137 -0.71875,-0.46875 -0.0486,-0.33726 -0.10771,-0.68844 -0.15625,-1.03125 0.3146,-0.25181 0.66733,-0.46212 0.875,-0.8125 0.6305,-1.06379 0.55062,-2.22745 0.28125,-3.09375 -0.26937,-0.8663 -0.72741,-1.56254 -1.375,-2.15625 -0.17748,-0.16271 -0.43695,-0.29283 -0.65625,-0.4375 -0.0515,-0.43377 -0.10719,-0.87472 -0.15625,-1.3125 0.36276,-0.24854 0.75204,-0.46998 1,-0.84375 0.69761,-1.05158 0.66014,-2.26416 0.40625,-3.15625 -0.25389,-0.89209 -0.72593,-1.60717 -1.375,-2.21875 -0.19748,-0.18607 -0.46781,-0.33797 -0.71875,-0.5 0.87393,0.27901 1.72236,0.48531 2.78125,0.25 1.95702,-0.4349 3.42231,-1.95917 4.21875,-3.59375 0.79644,-1.63458 1.20053,-3.47917 1.625,-5.59375 0.84894,-4.22916 1.6642,-9.52638 4.03125,-15.3125 2.49499,-6.09887 7.05475,-17.67369 11.0625,-28.375 2.00388,-5.35066 3.873,-10.46828 5.28125,-14.59375 1.40825,-4.12547 2.34758,-6.94077 2.5625,-8.875 0.33006,-2.97061 -0.15472,-6.77523 -1.03125,-10.46875 -0.70954,-2.98987 -1.71617,-5.64602 -3.03125,-7.8125 0.73894,0.71029 1.50698,1.425 2.21875,2.03125 0.98889,0.84229 1.80056,1.52528 2.75,2 2.57118,1.28559 4.53845,0.50092 5.71875,-0.125 0.81651,0.37106 2.38028,1.10593 3.9375,1.625 0.94544,0.31515 1.32974,0.19762 1.96875,0.15625 0.63901,-0.0414 1.38567,-0.13958 2.21875,-0.28125 1.66617,-0.28334 3.69356,-0.77662 5.78125,-1.46875 3.37868,-1.12014 6.95409,-2.67734 9.09375,-5.4375 l 38.46875,20.1875 c -0.12165,1.06599 -0.20961,2.50183 -0.0937,4.0625 0.0219,0.29549 0.0661,0.60256 0.125,0.9375 0.0574,0.32652 0.13594,0.67211 0.21875,1.03125 l -0.0312,0 c 1.16086,5.05865 4.8125,14.75 4.8125,14.75 0.0643,0.16546 0.1484,0.3232 0.25,0.46875 l 2.15625,3.125 3.90625,5.6875 c 0.53212,0.78145 1.5967,1.15405 2.5,0.875 l 10.75,-3.3125 c 1.18051,-0.3748 1.86171,-1.86106 1.375,-3 -0.12793,-0.29656 -0.23799,-0.60965 -0.34375,-0.90625 -0.1893,-0.53005 -0.20395,-0.52941 -0.0312,-0.0312 7e-5,-0.0104 7e-5,-0.0208 0,-0.0312 -0.0545,-0.15502 -0.0918,-0.36549 -0.15625,-0.59375 l 1.96875,2.46875 c 0.5852,0.72894 1.6577,1.02023 2.53125,0.6875 l 8.28125,-3.03125 c 1.15232,-0.42471 1.76801,-1.91775 1.25,-3.03125 0,0 -2.04199,-4.45599 -4.875,-9.8125 -2.83301,-5.35651 -6.39286,-11.58305 -9.8125,-15.5 -1.75161,-2.00635 -4.0598,-3.77458 -6.21875,-5.3125 -2.15895,-1.53792 -4.21284,-2.85494 -5.15625,-3.5625 -0.38341,-0.28756 -0.48117,-0.29501 -0.75,-0.4375 -0.26883,-0.14249 -0.61702,-0.32544 -1.03125,-0.53125 -0.82845,-0.41161 -1.96161,-0.95203 -3.375,-1.625 -2.82678,-1.34593 -6.76383,-3.2069 -11.5,-5.40625 -9.18034,-4.26311 -21.48361,-9.92345 -34.34375,-15.8125 -0.41134,-3.50702 -0.88813,-6.90207 -1.4375,-9.625 -0.62247,-3.08523 -1.15369,-5.29739 -2.03125,-6.90625 -0.80531,-1.4764 -2.02633,-2.49332 -3.65625,-3.9375 -1.62992,-1.44418 -3.62553,-3.08581 -5.59375,-4.6875 -1.96822,-1.60169 -3.93546,-3.17493 -5.46875,-4.5 -1.53329,-1.32507 -2.71975,-2.65792 -2.71875,-2.65625 -0.18546,-0.3091 -1.48704,-2.94332 -3.09375,-6.3125 -1.60671,-3.36918 -3.64686,-7.67912 -5.75,-12.09375 -4.20629,-8.82925 -8.55901,-17.86951 -10.75,-21.3125 -2.45,-3.85 -6.73964,-8.89078 -10.09375,-12.6875 1.91448,-1.47428 3.87624,-2.99093 5.375,-4.28125 1.01124,-0.8706 1.88732,-1.65187 2.53125,-2.3125 0.32197,-0.33031 0.59168,-0.62403 0.84375,-0.96875 0.12604,-0.17236 0.24224,-0.33298 0.375,-0.625 0.13276,-0.29202 0.37908,-0.73367 0.15625,-1.625 -0.48028,-1.92113 -1.65003,-2.35853 -2.46875,-2.875 -0.0195,-0.0123 -0.0118,-0.0192 -0.0312,-0.0312 0.0343,-0.25008 0.0258,-0.25198 0.0625,-0.53125 0.14305,-1.08696 0.28125,-2.01873 0.28125,-2.9375 0,-0.96671 -0.43136,-1.48916 -0.71875,-1.8125 -0.28739,-0.32334 -0.52856,-0.505 -0.78125,-0.6875 -0.50539,-0.365 -1.03626,-0.658 -1.5,-0.9375 -0.43869,-0.26441 -0.80663,-0.5363 -1,-0.6875 -0.19153,-1.09525 -0.63874,-1.91383 -1.25,-2.78125 -0.77092,-1.09398 -1.66011,-2.46875 -3.84375,-2.46875 -0.58331,0 -0.66252,0.0722 -0.875,0.125 -0.21248,0.0528 -0.40492,0.11164 -0.65625,0.1875 -0.12048,0.0364 -0.30498,0.0833 -0.4375,0.125 -2.5826,-2.67802 -6.34548,-7.68381 -6.8125,-15.15625 -0.14531,-2.32509 -0.21397,-5.21568 -0.21875,-8.21875 1.38516,-5.00297 2.44339,-8.87135 2.65625,-11 0.1041,-1.04097 0.0503,-1.93926 0.0312,-2.84375 2.92424,-2.41174 5.34659,-5.22495 7.21875,-7.6875 2.06455,-2.7156 3.88459,-5.10142 4.1875,-5.34375 1.35048,-1.08038 3.8526,-2.83216 6.15625,-5.03125 2.30365,-2.19909 4.53479,-4.90224 5.0625,-8.34375 0.62457,-4.0732 0.18578,-7.74773 -0.40625,-10.40625 -0.29601,-1.32926 -0.60859,-2.39435 -0.875,-3.15625 -0.0136,-0.0388 -0.0181,-0.0566 -0.0312,-0.0937 1.00096,-1.41917 1.80407,-3.08742 2.15625,-5.09375 0.0807,-0.45981 0.0272,-0.89111 0.0625,-1.34375 9.23569,-0.12058 14.64087,-0.53887 17.8125,-2.4375 1.72962,-1.0354 2.78417,-2.89502 2.90625,-4.625 0.12208,-1.72998 -0.32636,-3.28703 -0.78125,-5 -0.4898,-1.84443 -1.66946,-3.35424 -3.0625,-4.96875 -1.39304,-1.61451 -3.06577,-3.24324 -4.6875,-4.71875 -2.15341,-1.95925 -3.03401,-2.61277 -4.1875,-3.53125 0.54712,-0.49032 1.04786,-0.90823 1.625,-1.5625 0.91674,-1.03926 1.83174,-2.29057 2.40625,-3.78125 0.57451,-1.49068 0.79612,-3.32007 0.125,-5.09375 -0.92113,-2.43442 -2.88985,-4.89196 -5.5625,-7.75 -2.67265,-2.85804 -6.06611,-6.01992 -9.84375,-9.28125 -0.22679,-0.19579 -0.48141,-0.39521 -0.75,-0.625 -1.04307,-0.89239 -2.11766,-1.80873 -3.21875,-2.71875 -0.31574,-0.26095 -0.56318,-0.44045 -0.75,-0.59375 -5.17307,-4.24472 -10.71475,-8.50958 -15.9375,-12.3125 -0.42805,-0.31169 -0.83435,-0.58871 -1.1875,-0.84375 -0.75635,-0.54623 -1.50467,-1.06423 -2.25,-1.59375 -0.42298,-0.3005 -0.86144,-0.62965 -1.34375,-0.96875 -5.71223,-4.01606 -10.59286,-7.22548 -13.65625,-8.875 -1.85299,-0.99776 -4.30996,-1.97041 -7.1875,-2.9375 -0.60471,-0.20318 -1.28437,-0.41202 -1.96875,-0.625 -0.301,-0.0936 -0.52763,-0.14844 -0.65625,-0.1875 -0.72436,-0.21998 -1.46717,-0.43043 -2.15625,-0.625 -7.76168,-2.19164 -17.52555,-4.12775 -27.0625,-4.90625 0.0286,0.002 -0.0563,-0.0134 -0.28125,-0.0312 -0.74149,-0.0588 -1.50521,-0.11175 -2.25,-0.15625 -0.0534,-0.004 0.01,0.002 -0.0312,0 -0.24665,-0.0137 -0.38283,-0.0133 -0.1875,0 -0.0104,-7e-5 -0.0208,-7e-5 -0.0312,0 -2.46471,-0.1414 -4.88528,-0.20479 -7.25,-0.15625 z m -2.1875,77.34375 30.46875,2.3125 c 0.33252,0.10394 10.57093,3.19073 23.1875,6.125 -0.46581,0.63542 -0.7707,1.41066 -1.125,2.15625 l -52.0625,-9.84375 c -0.0639,-0.12391 -0.36104,-0.5484 -0.46875,-0.75 z m 67.75,11.34375 c 3.8572,0.682 7.70424,1.25222 11.46875,1.65625 -0.003,0.044 -0.0289,0.0808 -0.0312,0.125 -0.0486,0.90487 0.1951,1.74337 0.40625,2.59375 l -11.5,-2.1875 c -0.031,-0.76348 -0.17659,-1.47863 -0.34375,-2.1875 z m -14.25,147.96875 c 0.32179,0.63776 1.10298,2.06115 1.28125,2.4375 1.05442,2.22599 3.11138,3.73214 5.75,5.625 2.63862,1.89286 5.86714,3.91381 9.15625,5.90625 3.28911,1.99244 6.63537,3.95929 9.40625,5.71875 2.77088,1.75946 5.01057,3.39905 5.84375,4.28125 -0.12305,-0.13029 0.56196,1.2269 0.78125,2.59375 0.11497,0.71659 0.0369,1.06878 0.0312,1.6875 -5.66358,-2.53928 -11.13621,-5.00833 -15.03125,-6.78125 -2.34399,-1.06692 -4.2789,-1.93903 -5.71875,-2.625 -1.43985,-0.68597 -2.49495,-1.2686 -2.5625,-1.3125 -0.94877,-0.6167 -2.56617,-2.25288 -3.78125,-3.6875 -1.21503,-1.43462 -2.0937,-2.65625 -2.0937,-2.65625 -0.45651,-0.62782 -1.2591,-0.9859 -2.03125,-0.90625 l -5.40625,0.5625 c -1.34104,0.13502 -2.32933,1.69981 -1.875,2.96875 0,0 0.95458,2.73231 2.4375,5.75 -4.01226,-2.97061 -8.69401,-6.03082 -13.625,-8.96875 0.63293,-0.0886 1.2657,-0.16799 1.96875,-0.34375 3.92331,-0.98083 7.41928,-2.02369 10.1875,-3.5 2.76822,-1.47631 5.07629,-3.67573 5.28125,-6.75 z m -27.75,2.40625 1.53125,0.21875 c 0.14697,1.16912 0.31995,2.32552 0.65625,3.34375 -1.10743,-0.62024 -2.38785,-1.39439 -3.375,-1.9375 L 391.0625,535 c 0.16106,-0.19533 0.28849,-0.41832 0.375,-0.65625 z m 37.625,29.25 26.09375,13.59375 c 0.0586,2.80835 0.0562,6.03661 0,8.8125 -0.0644,3.17948 -0.15625,5.39108 -0.15625,6.125 0,0.1722 0.0495,0.20841 0.0625,0.34375 -4.86627,-5.87316 -14.59699,-17.49056 -26,-28.875 z"
         style="fill:#000000;fill-opacity:1;stroke:none" />
      <path
         sodipodi:nodetypes="ccccsscsscc"
         inkscape:connector-curvature="0"
         id="path3071-2"
         d="m 417.24706,667.63504 c -8.8994,0.62999 -14.03628,4.84738 -22.0474,9.37014 1.30837,16.54108 4.37749,20.94495 10.51169,28.50019 l 3.81912,-0.94093 c 0,0 8.81896,16.53555 7.71659,19.29147 -1.10237,2.75593 0,14.18911 3.30711,20.80333 3.30711,6.61422 14.33081,17.08673 14.33081,17.08673 0,0 11.57489,-4.40948 9.92133,-11.57488 -1.65355,-7.16541 -9.37014,-19.14977 -11.0237,-30.72466 -1.65355,-11.57488 -6.06304,-35.27584 -2.20474,-40.78769 z"
         style="fill:#917c6f;fill-opacity:1;stroke:none" />
      <path
         sodipodi:nodetypes="ccccscscscc"
         inkscape:connector-curvature="0"
         id="path3069-5"
         d="m 277.79725,675.35163 c -6.56321,-1.93504 -13.59789,-1.663 -17.63792,-0.55118 -5.51185,2.48033 -6.28112,8.73661 -7.16541,15.70877 1.14456,17.49303 1.17028,50.16277 7.15156,64.73654 2.97241,2.19909 15.99821,7.74429 24.26599,7.74429 8.26778,0 12.67726,-5.51185 12.67726,-5.51185 0,0 -0.55119,-9.92133 -4.96067,-12.12607 -4.40948,-2.20474 -12.67726,-5.51185 -12.67726,-5.51185 0,0 -0.55118,-23.70096 0,-28.66162 0.55119,-4.96067 4.47061,-9.9882 4.47061,-9.9882 3.50772,-4.67696 -6.12416,-25.83883 -6.12416,-25.83883 z"
         style="fill:#917c6f;fill-opacity:1;stroke:none" />
      <path
         sodipodi:nodetypes="cscccccsssssscccccsssssacc"
         inkscape:connector-curvature="0"
         id="path3067-3"
         d="m 315.82902,560.15396 c 0,0 1.10237,72.20524 -0.55119,77.1659 -1.65355,4.96067 -6.61422,6.06304 -6.61422,6.06304 l -2.20474,7.71659 -6.06303,1.65355 -3.8583,12.12607 -24.80333,8.26778 c 0,0 1.10238,24.80333 10.47252,25.9057 9.37015,1.10237 12.67726,-2.75592 14.33082,-7.71659 1.743,-5.22901 33.62228,-28.11044 39.68531,-39.68533 6.06304,-11.57488 23.70096,-59.52798 24.80333,-65.03983 1.10237,-5.51185 14.33081,-11.0237 18.74029,-9.37014 4.40948,1.65355 16.19125,13.68251 25.57134,18.40594 13.50887,6.80251 28.99598,20.17701 28.99598,20.17701 l -2.75593,4.96066 2.20474,6.06304 -6.06304,6.61422 2.20474,12.67725 c 0,0 -25.90569,19.84266 -24.80332,22.59859 1.10237,2.75592 24.80332,23.70096 29.76399,22.59859 4.96067,-1.10238 3.30711,-11.02371 8.26778,-23.14978 4.96066,-12.12607 18.1891,-46.29954 18.74029,-51.2602 0.55118,-4.96067 -1.65356,-14.882 -4.40948,-18.18911 -2.75593,-3.30711 -25.35708,-30.99705 -40.7877,-43.54362 -10.68383,-8.68698 -35.27584,-21.49621 -35.27584,-21.49621 z"
         style="fill:#483e37;fill-opacity:1;stroke:none" />
      <path
         sodipodi:nodetypes="ccscsssccsc"
         inkscape:connector-curvature="0"
         id="path3060-7"
         d="M 420.4274,544.43184 415.03125,545 c 0,0 3.76428,10.72797 8,12.9375 l 56.3125,29.375 c -0.0102,-0.60914 -0.0101,-0.61894 -0.0312,-1.34375 -0.0689,-2.35976 -0.19316,-5.08439 -0.46875,-6.53125 -0.1378,-0.72343 -0.0742,-1.43387 0.0937,-2.125 0.16794,-0.69113 0.42593,-1.34645 0.71875,-1.90625 0.007,-0.0129 -0.007,-0.0184 0,-0.0312 -26.25017,-11.99354 -50.35178,-22.47241 -52.75,-24.03125 -2.75593,-1.79135 -6.47885,-6.91191 -6.47885,-6.91191 z"
         style="fill:#800000;fill-opacity:1;stroke:none" />
      <path
         inkscape:connector-curvature="0"
         id="path3942"
         d="m 415.90625,544.90625 -0.875,0.0937 c 0,0 3.76428,10.72797 8,12.9375 l 56.3125,29.375 c -0.0102,-0.60914 -0.0102,-0.61894 -0.0312,-1.34375 -0.0213,-0.72841 -0.0591,-1.46912 -0.0937,-2.21875 -28.08239,-13.96908 -56.3484,-28.00908 -56.9375,-28.5 -0.95702,-0.79752 -4.77956,-7.52139 -6.375,-10.34375 z"
         style="opacity:0.5;fill:#501616;fill-opacity:1;stroke:none" />
      <path
         sodipodi:nodetypes="csssccccscc"
         inkscape:connector-curvature="0"
         id="path3058"
         d="m 437.9165,491.53143 c 0,0 10.47251,11.29929 14.33081,17.36232 3.85829,6.06304 17.91351,36.9294 19.56707,39.68532 1.65355,2.75593 15.70877,12.67726 17.36232,15.70878 1.65356,3.03152 4.09381,16.85554 4.13389,28.66162 l -30.72857,-0.41339 0.90071,-13.91279 -10.27085,-24.53236 -29.62619,-21.22063 c -4.71033,-3.37391 -17.91352,-31.14195 -17.91352,-31.14195 z"
         style="fill:#e9c6af;fill-opacity:1;stroke:none" />
      <path
         inkscape:connector-curvature="0"
         id="path3027"
         d="m 381.69563,530.66556 24.52773,3.5827 2.20474,-42.71683 -8.54337,-1.37797 z"
         style="fill:#28170b;fill-opacity:1;stroke:none" />
      <path
         inkscape:connector-curvature="0"
         id="path4146"
         d="M 303.5,527.03125 347.8125,501.1875 353.875,458.75 343.9375,405.8125 330.53125,401.25 c -5.5908,2.5159 -10.26758,4.94141 -12.09375,6.875 -6.6257,7.01544 -34.70401,50.64959 -35.09375,61.5625 -0.38975,10.91291 3.125,15.59375 3.125,15.59375 l 19.09375,20.65625 c 0,0 -1.2583,9.94873 -2.0625,21.09375 z"
         style="fill:#b7c4c8;fill-opacity:1;stroke:none" />
      <path
         sodipodi:nodetypes="ccccscccccsscccscccccc"
         inkscape:connector-curvature="0"
         id="path4144"
         d="m 367.15625,387.46875 c 0,0 -21.93126,7.16896 -36.625,13.78125 l 13.40625,4.5625 2.75,28.125 c 0,0 -3.11748,17.28924 -6.59321,19.8292 -7.1654,5.23626 -27.03179,22.0458 -27.03179,22.0458 l 29.21875,5.53125 8.5,-0.875 -2.96875,20.71875 -44.3125,25.84375 c -1.18903,16.4781 -1.21028,36.24631 6.8125,35.96875 13.78878,-0.47704 26.41716,-2.48632 45.125,-10.28125 18.70784,-7.79494 30.40625,-14.8125 30.40625,-14.8125 l 3.5,-4.3125 -4.28125,-0.75 c 0,0 4.6875,-2.34726 4.6875,-3.90625 0,-1.55898 -1.9375,-2.34375 -1.9375,-2.34375 l 24.4375,-48.15625 0.0312,-3.71875 19.09375,-47.65625 c 0.20181,-4.09224 0.46875,-9.21875 0.46875,-9.21875 z"
         style="fill:#93a7ac;fill-opacity:1;stroke:none" />
      <path
         inkscape:connector-curvature="0"
         id="path3021"
         d="m 431.375,427.0625 -19.09375,47.65625 -0.0312,3.71875 1.28125,-2.5 1.5625,5.4375 26.09375,-7.40625 c 0,0 -9.34551,-6.62186 -10.125,-19.09375 -0.51994,-8.31905 -0.0918,-19.61487 0.3125,-27.8125 z"
         style="fill:#b7c4c8;fill-opacity:1;stroke:none" />
      <path
         sodipodi:nodetypes="ccssssccsscsccccsscsccc"
         inkscape:connector-curvature="0"
         id="path4129"
         d="m 437.90625,491.53125 -32.21875,10.1875 c 0,0 14.30091,26.45124 16.78125,31.6875 2.48033,5.23625 25.09617,16.00808 29.78125,20.96875 1.26938,1.34405 1.92619,6.0396 1.375,7.96875 -0.55118,1.92915 1.65329,6.62204 3.03125,8 0.22305,0.22305 5.2115,6.42758 5.33237,7.43668 -2.21675,-0.87903 -2.46915,-1.15089 -4.35497,-1.79284 -0.51675,6.35063 -0.41492,15.39918 -0.41492,16.13741 0,1.10237 6.60776,7.71013 8.8125,8.8125 2.20474,1.10237 4.6875,-0.5625 4.6875,-0.5625 0,0 3.03394,1.38632 4.6875,1.9375 1.51543,0.50515 15.28489,-2.09775 17.5625,-7.75 L 479.375,587 c 0,0 -1.14501,4.28125 -3.09375,4.28125 -5.08468,0.28732 -6.25667,-1.16089 -10.53652,-3.50176 0,0 3.69663,-3.87851 3.69663,-6.60674 0,-2.72823 -5.83603,-9.18716 -7.00527,-11.91538 -1.16924,-2.72823 -2.93609,-12.66362 -2.93609,-12.66362 0,0 -11.85584,-11.90457 -16.54038,-14.80899 -9.74366,-6.04108 -22.02212,-34.69101 -22.02212,-34.69101 8.42268,-1.45662 15.19692,-4.93432 21.65625,-10.3125 -2.56469,-2.92456 -4.6875,-5.25 -4.6875,-5.25 z"
         style="fill:#deaa87;fill-opacity:1;stroke:none" />
      <path
         inkscape:connector-curvature="0"
         id="path3056"
         d="m 414.76673,481.3345 c 1.65355,-0.27559 25.90569,-9.64574 27.28366,-9.64574 1.37796,0 3.03151,2.75593 3.03151,3.8583 0,1.10237 3.8583,2.48033 3.8583,3.30711 0,0.82678 -0.55119,4.68507 -0.55119,4.68507 0,0 2.48034,1.10237 2.75593,2.20474 0.27559,1.10237 -15.43318,13.50404 -18.74029,14.33081 -3.30711,0.82678 -20.66944,2.75593 -20.66944,2.75593 z"
         style="fill:#dbe2e3;fill-opacity:1;stroke:none" />
      <path
         sodipodi:nodetypes="cccscsassssc"
         inkscape:connector-curvature="0"
         id="path4161"
         d="m 415.875,483.34375 c 0,0 -1.50817,5.4963 -2.84375,10.375 l -1.28125,9.125 c 0,0 17.34914,-1.95447 20.65625,-2.78125 1.33069,-0.33267 4.6903,-2.53446 8.1875,-5.125 -2.8322,0.90096 -9.79274,3.0859 -11.875,3.40625 -2.53335,0.38974 -4.81224,-1.62614 -5.65625,-3.71875 -0.67113,-1.66396 -0.59048,-5.0093 1.1875,-5.25 3.76191,-0.50928 6.81601,-0.59727 8.375,-2.15625 1.1363,-1.13629 -2.34902,-1.342 -4.6875,-0.5625 -2.33848,0.77949 -5.88335,3.19127 -8.38799,2.5165 -2.53706,-0.68349 -3.67451,-5.829 -3.67451,-5.829 z"
         style="fill:#b7c4c8;fill-opacity:1;stroke:none" />
      <path
         inkscape:connector-curvature="0"
         id="path3025"
         d="m 424.68806,429.52311 c 0,0 -17.63792,44.92158 -18.74029,50.70902 -1.10237,5.78745 -12.12607,41.89006 -11.2993,49.60665 0.82678,7.71659 0.82678,12.12607 8.54337,10.19693 7.71659,-1.92915 13.50403,-4.13389 13.77963,-8.26778 0.27559,-4.13389 0,-36.37821 2.48033,-46.02395 2.48033,-9.64574 13.50403,-44.92158 14.05522,-50.43343 0.55118,-5.51185 -1.10237,-9.09455 -1.10237,-9.09455 z"
         style="fill:#483e37;fill-opacity:1;stroke:none" />
      <path
         sodipodi:nodetypes="ccsscc"
         inkscape:connector-curvature="0"
         id="path3035"
         d="m 357.16789,385.7039 -1.37796,4.96067 c 0,0 28.63868,36.07969 36.92939,44.37039 6.61423,6.61422 10.47252,17.91352 16.25997,15.43319 5.78744,-2.48034 20.11825,-23.42537 20.11825,-23.42537 z"
         style="fill:#216778;fill-opacity:1;stroke:none" />
      <path
         sodipodi:nodetypes="csssssssscc"
         inkscape:connector-curvature="0"
         id="path2997"
         d="m 364.76101,375.3681 c 0,0 -5.28214,-10.56427 -9.09702,-9.97737 -3.81488,0.58691 -6.1625,10.85773 -5.28214,14.37916 0.88036,3.52142 7.18951,10.3652 9.39047,9.97737 3.43212,-0.60477 5.28214,1.17381 6.16249,2.34762 0.88036,1.1738 4.93639,9.96903 7.83391,13.23598 6.16607,6.95222 32.24648,32.23124 50.85652,30.19493 11.51058,-1.25949 18.19403,-15.25951 21.12855,-17.60713 2.93453,-2.34761 9.63745,-6.76665 10.43927,-11.99582 1.13953,-7.43162 -1.63272,-13.53898 -1.6357,-13.53451 z"
         style="fill:#e9c6af;fill-opacity:1;stroke:none" />
      <path
         sodipodi:nodetypes="csscc"
         inkscape:connector-curvature="0"
         id="path3009"
         d="m 429.23533,406.92452 c 0,0 2.48965,7.64243 8.26778,8.40558 7.3032,0.96457 10.35217,-1.73732 11.0237,-6.20084 1.52716,-10.15056 -4.54728,-11.85047 -4.54728,-11.85047 z"
         style="fill:url(#linearGradient3019);fill-opacity:1;stroke:none" />
      <path
         sodipodi:nodetypes="ccccsscc"
         inkscape:connector-curvature="0"
         id="path2999"
         d="m 360.19941,368.61717 102.24482,-0.2756 c 0.24591,11.23796 2.78004,22.24709 -3.85829,34.17347 -7.32311,3.24468 -11.33142,-3.68443 -15.43318,-3.5827 -3.58271,0.27559 -5.78745,9.09455 -18.74029,9.37015 -12.95285,0.27559 -30.31518,-4.40948 -38.30736,-12.40167 -7.99219,-7.99218 -23.14977,-22.0474 -23.14977,-22.0474 z"
         style="fill:#000000;fill-opacity:1;stroke:none" />
      <path
         sodipodi:nodetypes="sssss"
         inkscape:connector-curvature="0"
         id="path3001"
         d="m 426.85292,379.62167 c -3.64485,-0.76242 -6.96992,2.78797 -7.89924,7.89924 -0.92932,5.11127 0.92932,9.75787 3.71729,9.75787 2.78797,0 7.29147,-3.50286 8.3639,-6.9699 1.64911,-5.33137 -0.43757,-9.90396 -4.18195,-10.68721 z"
         style="fill:#f9f9f9;fill-opacity:1;stroke:none" />
      <path
         inkscape:transform-center-y="-3.3845971"
         inkscape:transform-center-x="2.068365"
         style="fill:#f9f9f9;fill-opacity:1;stroke:none"
         d="m 453.25191,378.94784 c 2.98105,0.44265 4.51059,4.07022 3.78366,8.21146 -0.72692,4.14122 -3.4404,7.14828 -5.55718,6.36691 -2.1168,-0.78138 -4.55438,-4.70313 -4.39694,-7.63609 0.2421,-4.51006 3.10798,-7.39702 6.17046,-6.94228 z"
         id="path3003"
         inkscape:connector-curvature="0"
         sodipodi:nodetypes="sssss" />
      <path
         sodipodi:nodetypes="scsccsscsssss"
         inkscape:connector-curvature="0"
         id="path3005"
         d="m 347.38436,365.86124 c 0.68898,1.79135 5.09845,3.16931 5.09845,3.16931 0,0 2.20475,-2.89372 4.1339,-3.16931 1.92915,-0.27559 4.27168,4.13389 4.27168,4.13389 l 35.68923,2.75592 c 0,0 36.04221,11.2993 58.70121,11.2993 23.70095,0 23.61071,-2.44538 21.7718,-9.37015 -1.20869,-4.55157 -13.22844,-13.77962 -13.22844,-13.77962 0,0 7.30493,-4.90692 5.51186,-9.64575 -3.8583,-10.19692 -42.71684,-38.58294 -53.46495,-44.37039 -10.74811,-5.78744 -50.43343,-14.33081 -65.03984,-5.78744 -14.6064,8.54337 -17.96349,32.10376 -13.50403,44.64599 4.40948,12.40167 9.34079,18.25056 10.05913,20.11825 z"
         style="fill:#536c67;fill-opacity:1;stroke:none" />
      <path
         sodipodi:nodetypes="cscsssssssccc"
         inkscape:connector-curvature="0"
         id="path3023"
         d="m 331.28467,406.55196 c 14.47915,12.72363 18.31809,46.7696 16.7591,55.34403 -1.55898,8.57442 -52.6158,26.11302 -52.6158,26.11302 0,0 -4.67696,43.65163 -5.8462,48.71833 -1.16924,5.06671 3.11798,10.13342 4.67696,11.30266 1.55899,1.16924 26.89252,12.08214 39.36442,10.13341 12.47189,-1.94873 14.03819,-5.3545 17.14885,-9.35392 5.45645,-7.01544 8.82446,-13.4206 13.64113,-58.85174 3.19584,-30.14338 -8.18468,-75.22111 -11.6924,-82.6263 -3.50772,-7.40518 -10.71847,-9.97992 -17.92834,-8.96417 l -17.48296,2.46306 1.81679,6.5169 c 3.07851,-2.11602 9.40265,-2.95905 12.15845,-0.79528 z"
         style="fill:#483e37;fill-opacity:1;stroke:none" />
      <path
         sodipodi:nodetypes="ccssscsccc"
         inkscape:connector-curvature="0"
         id="path3029"
         d="m 327.12831,468.65725 -10.74811,-1.51576 c 0,0 -4.96066,-3.44491 -10.74811,-2.61813 -5.78744,0.82678 -25.90569,9.92133 -28.11043,12.12607 -2.20474,2.20474 -1.10237,7.441 0,9.92133 1.10237,2.48033 5.78744,7.16541 5.78744,7.16541 0,0 -4.13389,3.5827 -2.75593,5.78744 1.37797,2.20474 4.96067,4.13389 6.61423,3.85829 4.86696,-5.96196 7.98157,-15.94195 13.77962,-19.01588 4.40948,-2.20474 26.18129,-15.70877 26.18129,-15.70877 z"
         style="fill:#dbe2e3;fill-opacity:1;stroke:none" />
      <path
         sodipodi:nodetypes="cscccssssscssssssc"
         inkscape:connector-curvature="0"
         id="path3033"
         d="m 352.48282,433.38141 c 0,0 -14.6064,-28.66163 -19.29148,-30.59077 -4.68507,-1.92915 -13.50403,1.92914 -13.50403,1.92914 l -0.96457,3.03152 c -11.07766,14.94796 -20.77547,30.99981 -30.02722,47.4085 0,0 -26.22646,-1.98821 -33.77245,-14.0618 -6.88981,-11.0237 -8.26777,-36.9294 -4.96066,-39.96092 3.30711,-3.03152 13.22843,-25.35451 23.70095,-30.86636 10.47251,-5.51185 26.85895,-8.30656 37.48059,-7.71659 12.53927,0.69649 31.69313,12.12607 36.3782,17.08674 4.68508,4.96066 26.73248,45.47276 26.73248,45.47276 0,0 13.50403,38.85854 14.6064,40.78769 1.10237,1.92915 12.67726,12.67726 11.85048,15.98437 -0.82678,3.30711 -10.19692,5.78744 -11.0237,10.47251 -0.82678,4.68508 -0.27559,9.92133 -5.23626,9.92133 -4.96066,0 -3.85829,-9.09455 -7.71659,-10.19692 -3.85829,-1.10237 -12.95285,-10.47252 -11.29929,-11.29929 1.65355,-0.82678 -12.95285,-47.40191 -12.95285,-47.40191 z"
         style="fill:#e9ddaf;fill-opacity:1;stroke:none" />
      <path
         sodipodi:nodetypes="scccsssss"
         inkscape:connector-curvature="0"
         id="path3952"
         d="m 334.29371,396.58981 c 19.74066,23.79652 47.53971,82.40216 47.53971,82.40216 0,0 1.79135,3.99609 1.65356,4.54727 0.217,1.49732 -3.12257,1.1811 -3.30711,0.68898 0,0 -12.67726,-32.24432 -14.05522,-34.72465 -1.37797,-2.48034 -30.45298,-50.84682 -32.79551,-51.2602 -2.34254,-0.41339 -9.78353,-2.34254 -12.67725,-4.27169 -2.89372,-1.92915 -8.40558,-7.02761 -6.75202,-6.75202 1.65355,0.27559 16.04396,4.12655 20.39384,9.37015 z"
         style="fill:#d1c594;fill-opacity:1;stroke:none" />
      <path
         sodipodi:nodetypes="csssssccssssssssscsssc"
         inkscape:connector-curvature="0"
         id="path3031"
         d="m 287.71858,502.83072 c 0,0 -1.37796,13.22844 2.20474,17.08673 3.5827,3.8583 12.40166,9.09456 20.66944,6.06304 8.26777,-3.03152 26.45688,-25.6301 29.4884,-29.4884 3.03151,-3.85829 19.84266,-30.03958 21.49621,-31.96873 1.65356,-1.92915 3.49116,0.722 6.61422,-0.82678 3.20928,-1.59153 18.13106,-5.25087 19.01588,-0.82678 l 2.06695,3.72051 c 0,0 6.47642,-4.27169 7.02761,-7.5788 0.55118,-3.30711 -0.82678,-9.09455 -0.82678,-10.19692 0,-1.10237 0.27559,-4.96067 0,-6.06304 -0.27559,-1.10237 -3.03152,-1.37796 -3.03152,-3.03152 0,-1.65355 10e-6,-4.40948 -0.82677,-5.78744 -0.4659,-0.7765 -3.20907,-1.78942 -4.91955,-3.35212 -1.32492,-1.21045 -1.6444,-2.97123 -2.24586,-3.81328 -1.37796,-1.92915 -9.64574,-6.33863 -13.50403,-5.51185 -3.8583,0.82677 -9.61425,6.43283 -16.39775,12.26386 -0.83088,0.71421 -2.75593,-1.24016 -2.75593,-1.24016 0,0 -6.20084,9.09455 -5.64965,12.67725 0.55118,3.5827 -2.20473,6.88981 -3.3071,9.09455 -1.10237,2.20474 -39.96092,27.83485 -43.54363,30.86637 -3.5827,3.03152 -11.57488,17.91351 -11.57488,17.91351 z"
         style="fill:#e9c6af;fill-opacity:1;stroke:none" />
      <path
         sodipodi:nodetypes="ccsssccsccccccascc"
         inkscape:connector-curvature="0"
         id="path3065-0"
         d="m 479.65625,575.375 c -0.007,0.0128 0.007,0.0183 0,0.0312 -0.29282,0.5598 -0.55081,1.21512 -0.71875,1.90625 -0.16794,0.69113 -0.23155,1.40157 -0.0937,2.125 0.27559,1.44686 0.39985,4.17149 0.46875,6.53125 0.0212,0.72481 0.0211,0.73461 0.0312,1.34375 l 55.30092,29.05388 c 0,0 -0.50094,2.51465 -0.30607,5.13971 0.24483,3.29803 5.00515,16.08766 5.00515,16.08766 l 6.0625,8.8125 10.75,-3.3125 c -1.24787,-2.89256 -1.64259,-5.92291 -0.83244,-8.95326 l 6.05119,7.57826 8.28125,-3.03125 c 0,0 -8.06675,-17.59139 -14.34375,-24.78125 -3.0613,-3.50651 -8.82651,-6.90894 -11.03125,-8.5625 -1.20005,-0.90003 -33.27072,-15.64317 -64.625,-29.96875 z"
         style="fill:#800000;fill-opacity:1;stroke:none" />
      <path
         inkscape:connector-curvature="0"
         id="path3073"
         d="m 354.96315,372.19987 c 0,0 5.37406,6.20083 5.37406,7.85438 0,1.65356 -5.09846,-1.65355 -5.09846,-1.65355 0,0 1.92914,0.27559 1.79135,-0.55119 -0.1378,-0.82677 -2.06695,-5.64964 -2.06695,-5.64964 z"
         style="fill:#a05a2c;fill-opacity:1;stroke:none" />
      <path
         inkscape:connector-curvature="0"
         id="path3077"
         d="m 372.75,297.53125 c -1.10408,0.31179 -2.16672,0.69899 -3.1875,1.15625 -3.15482,-0.29368 -6.27531,-0.45706 -9.15625,-0.5625 -2.56928,0.38226 -4.93186,0.91951 -6.96875,1.71875 3.84204,-0.0614 8.59228,-0.0274 13.375,0.28125 -4.19703,2.58265 -7.52554,6.37005 -10.15625,10.53125 -5.90815,0.0848 -12.38338,0.85511 -15.96875,1.34375 -0.40221,0.74153 -0.77129,1.50794 -1.125,2.28125 3.53175,-0.728 9.74634,-1.73507 15.96875,-1.78125 -3.63802,6.38202 -5.70816,13.28622 -6.625,17.84375 -4.23054,-0.13578 -10.31795,0.99454 -13.375,1.625 -0.0235,0.64199 -0.0333,1.2747 -0.0312,1.90625 3.41921,-0.73984 9.04771,-1.75909 13.0625,-1.59375 -0.11211,0.73553 -0.18585,1.3768 -0.21875,1.875 -0.28973,4.38795 -0.0547,9.7175 0.4375,14.90625 -2.64296,0.19565 -6.62768,1.44257 -9.21875,2.3125 0.37226,0.8606 0.72798,1.69229 1.09375,2.46875 2.49389,-0.73301 5.8865,-1.61377 8.46875,-1.84375 0.82255,7.26466 2.03686,13.8717 2.84375,16.84375 0.24426,0.0859 0.5,0.1875 0.5,0.1875 0,0 0.48345,-0.60712 1.15625,-1.28125 -1.00362,-3.35544 -2.46024,-9.34608 -3.4375,-15.8125 0.96158,-0.0133 2.0244,0.05 3.125,0.15625 0.3877,2.61115 2.1875,14.1875 2.1875,14.1875 0.37078,-0.20479 0.75707,-0.35369 1.125,-0.40625 0.36172,-0.0517 0.72113,0.0322 1.09375,0.25 l 0.125,0 c 0,0 -2.75471,-9.66982 -3.59375,-13.90625 6.70894,0.80621 15.23348,3.39073 22.125,5.78125 1.25694,0.84844 2.5625,1.375 2.5625,1.375 0,0 -2.06815,3.03542 -2.34375,4 -0.26607,0.93124 -0.89253,7.29564 -0.9375,7.75 l 1.5,0.125 c 0.0273,-1.06658 0.22166,-6.47202 1.21875,-7.59375 1.10237,-1.24017 1.53125,-4 1.53125,-4 0,0 -0.14624,-0.23104 -0.375,-0.5625 1.16912,0.42382 2.14399,0.81624 3.125,1.1875 0.87452,1.23308 3.3125,1.59375 3.3125,1.59375 l -2.40625,9.875 1.46875,0.125 1.75,-9.71875 c 0,0 -3.03125,-2.34792 -3.03125,-3.3125 0.44646,-5.58365 1.44076,-10.8239 2.84375,-15.6875 8.06313,3.21013 15.65496,6.69246 21.78125,9.9375 -1.72887,4.20747 -3.35274,8.34157 -5.03125,12.34375 l 2.75,0.15625 c 0.76103,-3.81014 2.00139,-7.81215 3.53125,-11.84375 1.69083,0.91686 3.28343,1.83214 4.6875,2.6875 -1.2267,3.23277 -2.46637,6.44248 -3.6875,9.6875 l 1.53125,0 c 0.82407,-2.95613 1.83402,-6.03979 2.96875,-9.1875 4.30773,2.69989 6.98315,4.99102 7.09375,6.4375 0.15247,1.9941 -1.30539,2.35119 -2.03125,2.40625 l 2.125,0.0625 c 1.50438,0.16075 4.30029,-0.40262 4.3125,-2.75 0.01,-1.90636 -4.08684,-5.11128 -10.53125,-8.8125 1.40168,-3.69091 2.99006,-7.41156 4.625,-11.03125 10.97965,8.92415 18.11234,16.89608 17.875,19.3125 -0.26837,2.73243 -2.875,3.15625 -2.875,3.15625 l 2.75,-0.28125 c 0,0 2.56416,-0.7173 3.03125,-3.28125 0.50251,-2.75842 -7.61658,-11.62783 -19.71875,-21.25 1.72428,-3.69524 3.48843,-7.22502 5.25,-10.46875 7.88052,6.14809 14.94917,12.14127 20.28125,17 -1.26997,6.27088 -2.68118,12.04315 -3.59375,13.3125 -1.7986,2.50179 -2.21875,4.4375 -2.21875,4.4375 0,0 2.3005,0.0484 4.40625,-6.34375 0.99226,-3.01206 1.79027,-6.69225 2.46875,-10.40625 1.4699,1.35539 2.80015,2.6362 3.9375,3.75 -0.49639,2.62006 -1.14466,5.02489 -2,6.90625 -1.06406,2.34044 -5.09375,5.8125 -5.09375,5.8125 0,0 4.42624,-2.30295 6.1875,-5.09375 0.82633,-1.30935 1.45453,-3.75263 1.90625,-6.65625 2.40944,2.41888 3.88253,4.08799 3.90625,4.5625 0.1378,2.75593 -3.71875,6.75 -3.71875,6.75 l 2.0625,-0.6875 c 0,0 3.30684,-2.19141 3.03125,-6.1875 -0.0549,-0.79625 -1.92497,-3.09445 -5.03125,-6.28125 0.4634,-3.64966 0.70472,-7.74295 0.84375,-11.21875 7.59677,7.06646 12.62667,12.81064 11.90625,14.875 -0.82632,2.36781 -5.09375,7.3125 -5.09375,7.3125 0,0 5.97873,-4.2245 6.3125,-7.4375 0.31819,-3.06305 -5.09636,-9.5107 -13.03125,-16.9375 0.0328,-1.12233 0.0486,-1.92934 0.0625,-2.78125 -0.24372,-0.21041 -0.47175,-0.41368 -0.71875,-0.625 -0.0187,0.81992 -0.0226,1.63466 -0.0625,2.75 -1.07805,-0.99823 -2.21809,-2.00545 -3.375,-3.03125 0.15181,-1.42253 0.1702,-1.5679 0.25,-2.40625 -0.24822,-0.20515 -0.49972,-0.38838 -0.75,-0.59375 -0.0498,0.67092 -0.10639,1.42894 -0.21875,2.34375 -5.05669,-4.4467 -10.72272,-9.04377 -16.4375,-13.40625 0.27296,-0.39421 0.54379,-0.78249 0.8125,-1.15625 -0.39063,-0.28444 -0.80122,-0.56479 -1.1875,-0.84375 -0.24984,0.38529 -0.4971,0.77378 -0.75,1.15625 -0.76548,-0.57936 -1.51782,-1.15111 -2.28125,-1.71875 0.27471,-0.36758 0.54226,-0.67911 0.8125,-1.03125 -0.45379,-0.32239 -0.89923,-0.65622 -1.34375,-0.96875 -0.27496,0.33838 -0.57159,0.66314 -0.84375,1 -5.32371,-3.91555 -10.50045,-7.55179 -15.0625,-10.40625 0.14315,-0.0904 0.2945,-0.16085 0.4375,-0.25 -0.55627,-0.24402 -1.20591,-0.50182 -1.84375,-0.75 -0.0387,0.0333 -0.0863,0.0606 -0.125,0.0937 -0.28612,-0.17431 -0.53298,-0.30139 -0.8125,-0.46875 -1.30133,-0.48023 -2.7292,-0.96092 -4.28125,-1.4375 1.3153,0.7932 2.7248,1.68078 4.21875,2.65625 -2.41195,2.0857 -4.59327,4.06527 -6.5625,5.9375 -2.56662,-1.6195 -5.09742,-3.13491 -7.59375,-4.53125 2.8726,-1.85501 6.07351,-3.29007 9.625,-4.15625 -0.6722,-0.20414 -1.38272,-0.39298 -2.09375,-0.59375 -2.63759,0.81897 -5.56529,2.20366 -8.5625,4.1875 -3.80534,-2.08619 -7.48902,-3.86666 -10.9375,-5.21875 -0.73542,-0.28835 -1.55984,-0.56659 -2.40625,-0.8125 1.41809,-0.90943 2.58963,-1.57095 3.4375,-2.03125 -0.91759,-0.13302 -1.82806,-0.25983 -2.75,-0.375 -0.96655,0.42625 -2.03087,1.00873 -3.15625,1.78125 -2.04766,-0.46147 -4.28351,-0.82963 -6.59375,-1.125 1.6554,-0.53353 3.14007,-0.93856 4.3125,-1.25 -1.67209,-0.13649 -3.33503,-0.25479 -4.96875,-0.3125 z m -2.96875,2.84375 c 2.9372,0.26956 5.79039,0.65471 8.34375,1.21875 -3.16201,2.50832 -6.67333,6.09255 -10.0625,10.34375 -1.48495,-0.35632 -2.95719,-0.66672 -4.40625,-0.90625 -1.74158,-0.28789 -3.86798,-0.41056 -6.125,-0.40625 1.52411,-2.45139 3.3467,-4.69261 5.5625,-6.625 1.57827,-1.3764 4.08632,-2.60496 6.6875,-3.625 z m 10.6875,1.8125 c 0.61917,0.17942 1.21936,0.35624 1.78125,0.5625 3.68355,1.35213 7.62782,3.20563 11.71875,5.40625 -3.26354,2.43 -6.50648,5.62049 -9.40625,9.59375 -5.18121,-2.33051 -10.35464,-4.23852 -15.375,-5.53125 3.92384,-4.42206 7.98038,-7.73043 11.28125,-10.03125 z m 31.84375,4.71875 c 4.58991,3.05207 9.84145,6.80481 15.21875,10.875 -1.76525,2.25849 -3.41562,4.54238 -4.9375,6.875 -5.66099,-4.28694 -11.55815,-8.4791 -17.375,-12.1875 2.27744,-2.08921 4.64401,-3.93375 7.09375,-5.5625 z M 395,308.71875 c 2.6126,1.43434 5.25237,3.01363 7.9375,4.6875 -3.45466,3.38089 -6.21616,6.43561 -8.4375,9.28125 -2.84262,-1.55371 -5.71034,-3.00693 -8.59375,-4.34375 2.52788,-3.62838 5.52409,-6.97052 9.09375,-9.625 z m -38.5625,3.8125 c 2.59596,0.0227 5.14394,0.19934 7.46875,0.6875 0.87621,0.18399 1.77496,0.40635 2.65625,0.625 -3.94967,5.25189 -7.59579,11.36862 -10.125,17.625 -2.11536,-0.42347 -4.13775,-0.76744 -6.03125,-1 1.34443,-6.07233 3.04933,-12.41977 6.03125,-17.9375 z m 47.25,1.34375 c 6.00167,3.77782 12.09451,8.02064 17.90625,12.375 -2.09172,3.3316 -3.99506,6.71914 -5.71875,10.125 -6.14587,-4.51961 -12.99216,-9.0367 -20.09375,-13 2.40015,-3.52662 5.05484,-6.69867 7.90625,-9.5 z m -36.09375,0.21875 c 5.18042,1.35891 10.42068,3.2808 15.59375,5.59375 -3.07399,4.67977 -5.63254,10.37663 -7.25,17.15625 -6.48503,-2.16842 -12.83121,-3.99144 -18.53125,-5.1875 2.48368,-7.23772 5.66213,-11.43914 7.46875,-14.03125 0.87124,-1.25004 1.80228,-2.40942 2.71875,-3.53125 z m 61.34375,4.75 c 0.77016,0.58816 1.54035,1.18311 2.3125,1.78125 -1.54702,2.41017 -2.98831,4.84703 -4.34375,7.3125 -0.90103,-0.70553 -1.83268,-1.39041 -2.75,-2.09375 1.65009,-2.53594 3.24745,-4.89721 4.78125,-7 z m -44.375,1.46875 c 2.86307,1.32077 5.68256,2.76474 8.46875,4.28125 -4.11959,5.71998 -6.04551,10.66602 -7.28125,15.75 -2.84432,-1.08209 -5.71061,-2.12247 -8.5625,-3.09375 1.55053,-5.4756 3.94109,-11.48651 7.375,-16.9375 z m 47.78125,1.1875 c 5.97681,4.66142 11.85187,9.51097 17.0625,14.09375 -0.41819,2.94678 -1.01931,6.43272 -1.71875,10.03125 -5.3173,-4.94568 -12.19162,-10.87776 -19.75,-16.84375 1.51598,-2.7155 3.01043,-5.16534 4.40625,-7.28125 z m -37.875,3.90625 c 7.29241,4.06792 14.21421,8.62949 20.3125,13.1875 -1.96243,4.03496 -3.70469,8.09126 -5.375,12.09375 -6.44409,-3.25865 -14.1515,-6.66134 -22.125,-9.75 1.84769,-5.72357 4.28524,-10.90881 7.1875,-15.53125 z m 28.65625,2.03125 c 0.96196,0.72927 1.93185,1.42602 2.875,2.15625 -1.85581,3.48738 -3.53974,7.02431 -5.125,10.59375 -1.17462,-0.9224 -2.38347,-1.8518 -3.625,-2.78125 1.90682,-3.49332 3.89579,-6.85366 5.875,-9.96875 z M 350,332.375 c 1.8087,0.25512 3.73896,0.58514 5.71875,1 -1.99135,5.45485 -3.06332,10.95182 -2.6875,16.09375 -0.99523,-0.15804 -1.99658,-0.298 -3.03125,-0.40625 -0.0653,-0.007 -0.1496,0.004 -0.21875,0 -0.70031,-5.64177 -0.93599,-11.2928 -0.0625,-15.4375 0.0866,-0.41077 0.19263,-0.83512 0.28125,-1.25 z m 6.78125,1.25 c 5.81068,1.27748 12.19871,3.18329 18.65625,5.40625 -0.96779,4.82437 -1.44864,10.18932 -1.3125,16.09375 0.0124,0.53828 0.28272,1.05112 0.6875,1.53125 -6.48255,-2.91346 -13.07298,-5.6698 -20.75,-7.03125 0.41765,-6.46766 1.42793,-11.71819 2.71875,-16 z m 93.40625,2.65625 c 1.20024,1.0636 2.39311,2.13634 3.5,3.15625 -0.168,3.29406 -0.46789,7.20038 -1.0625,10.9375 -1.16245,-1.16746 -2.46338,-2.42165 -3.90625,-3.78125 0.62775,-3.7053 1.1247,-7.34747 1.46875,-10.3125 z m -73.59375,3.15625 c 2.89126,1.01223 5.77291,2.07048 8.625,3.1875 -0.99462,4.88234 -1.55239,10.05355 -2.84375,16.34375 -0.0885,0.43099 -0.017,0.80648 0.15625,1.125 -1.14007,-0.49574 -2.27879,-0.99144 -3.40625,-1.5 -0.73708,-0.99718 -1.89526,-2.40746 -3.21875,-3.0625 -1.4352,-0.71033 -1.43766,-7.5509 0.6875,-16.09375 z m 39.5,0.15625 c 1.28872,0.98074 2.54444,1.97034 3.75,2.9375 -1.60594,3.73622 -3.1052,7.5238 -4.5625,11.3125 -1.46098,-0.82357 -3.05353,-1.70429 -4.71875,-2.5625 1.61142,-3.9459 3.51999,-7.86489 5.53125,-11.6875 z"
         style="fill:#1c2422;fill-opacity:1;stroke:none" />
      <path
         sodipodi:nodetypes="ssscssss"
         inkscape:connector-curvature="0"
         id="path3075"
         d="m 371.22311,353.32178 c 3.00393,0.30437 16.95367,8.30613 31.55534,11.43709 4.81774,1.03305 38.44516,0.68899 52.22478,-1.10237 1.23739,-0.16086 8.12998,-2.48033 8.12998,-2.48033 0,0 -8.95676,4.13388 -13.64183,4.68507 -4.68507,0.55118 -44.78378,0.68898 -59.25239,-0.41339 -4.85775,-0.37011 -18.45367,-2.16287 -21.08282,-3.30711 -7.56775,-3.29357 -3.94748,-9.42836 2.06694,-8.81896 z"
         style="opacity:0.5;fill:#1c2422;fill-opacity:1;stroke:none" />
      <path
         inkscape:connector-curvature="0"
         id="path3877"
         d="m 393.34375,474.46875 c -4.16918,0.01 -8.50024,2.96382 -9.84375,4.53125 -1.65356,1.92914 1.64789,4.53542 -0.28125,5.5 -1.92915,0.96457 -8.28098,-1.24704 -11.3125,-2.625 -3.03152,-1.37797 -2.48842,-7.44464 -4.96875,-7.03125 -1.24017,0.20669 -1.63263,1.54994 -1.71875,3.03125 0.002,0.009 -0.002,0.022 0,0.0312 0.32363,1.66481 0.45096,2.75889 0.21875,2.875 -0.0372,0.0186 -0.0673,0.0354 -0.0937,0.0625 0.0344,0.31537 0.0749,0.69913 0.0937,0.90625 0,0 -6e-5,0.0931 0,0.0937 1.23246,2.67025 8.0956,9.33088 11.3125,10.25 3.8583,1.10237 2.72684,10.1875 7.6875,10.1875 4.96067,0 4.42322,-5.25242 5.25,-9.9375 0.82678,-4.68507 10.20447,-7.16164 11.03125,-10.46875 0.31773,-1.27092 -1.20288,-3.64157 -3.25,-6.1875 -0.40918,-0.26212 -0.84205,-0.49932 -1.3125,-0.6875 -0.90429,-0.36171 -1.85038,-0.53347 -2.8125,-0.53125 z"
         style="fill:#b4a875;fill-opacity:1;stroke:none" />
      <path
         inkscape:connector-curvature="0"
         id="path3937"
         d="m 566.21875,631.65625 -10.53125,2.96875 5.6875,7.09375 8.28125,-3.03125 c 0,0 -1.39302,-3.02536 -3.4375,-7.03125 z m -11.03125,3.09375 -11.78125,3.3125 -1.90625,2.65625 3.90625,5.6875 10.75,-3.3125 c -1.16384,-2.69777 -1.57448,-5.51805 -0.96875,-8.34375 z"
         style="fill:#999999;fill-opacity:1;stroke:none" />
      <path
         sodipodi:nodetypes="sccs"
         inkscape:connector-curvature="0"
         id="path3935"
         d="m 557.5326,633.92042 c 0.7795,0.77949 3.8424,7.79828 3.8424,7.79828 l -6.05119,-7.57826 c 0,0 1.4293,-0.99951 2.20879,-0.22002 z"
         style="opacity:0.5;fill:#2b0000;fill-opacity:1;stroke:none" />
      <path
         inkscape:connector-curvature="0"
         id="path3944"
         d="m 479.21875,583.75 c 0.0346,0.74963 0.0725,1.49034 0.0937,2.21875 0.0212,0.72481 0.0211,0.73461 0.0312,1.34375 l 55.3125,29.0625 c 0,0 -0.50737,2.49994 -0.3125,5.125 0.24483,3.29803 5,16.09375 5,16.09375 l 6.0625,8.8125 0.34375,-0.0937 c -1.72221,-5.34555 -6.57531,-20.37564 -7.8125,-23.25 -2.74316,-6.37314 -2.33831,-7.50896 -1.65625,-9.75 0.17322,-0.72296 0.43069,-0.58304 -1.34375,-1.75 -0.5655,-0.3719 -28.06331,-14.0558 -55.71875,-27.8125 z"
         style="opacity:0.5;fill:#501616;fill-opacity:1;stroke:none" />
      <path
         sodipodi:nodetypes="cccscccsccccsccc"
         inkscape:connector-curvature="0"
         id="path3954"
         d="m 396.4475,480.96215 c -1.33166,0.42391 -10.41081,2.28364 -10.99543,6.47342 l 3.51668,4.97068 c 0,0 0.97526,-2.50173 2.77115,-3.97147 1.73742,-1.42189 7.34823,-4.12755 8.3226,-6.46603 0,0 -2.28333,-1.43052 -3.615,-1.0066 z m -26.885,4.22535 c -0.44854,0.37378 6.85936,7.30645 8.5,6.71875 0.61534,-0.22042 -1.65625,-3.21875 -1.65625,-3.21875 z m 15.91169,9.06057 c -1.35196,0.65751 -2.90442,2.45005 -5.26106,1.34937 0,0 1.24087,3.7205 1.63062,4.40256 0.38974,0.68206 0.49421,2.23722 3.125,1.75 2.72823,0.19488 3.03125,-2.625 3.03125,-2.625 z"
         style="fill:#d1c594;fill-opacity:1;stroke:none" />
      <path
         inkscape:connector-curvature="0"
         id="path3970"
         d="m 326.57712,402.51504 c 0,0 -18.46469,-7.44099 -25.90569,-4.96066 -7.441,2.48033 -11.29929,3.85829 -6.33863,5.23626 4.96067,1.37796 15.98437,-0.2756 19.56707,-0.55119 3.5827,-0.27559 12.67725,0.27559 12.67725,0.27559 z"
         style="fill:#d1c594;fill-opacity:1;stroke:none" />
      <path
         sodipodi:nodetypes="ccccc"
         inkscape:connector-curvature="0"
         id="path3972"
         d="m 335.94727,562.63429 c -3.39897,10.5049 -9.27828,17.70908 -16.81114,20.11826 l 0.55118,4.68507 c 9.41307,-7.14696 15.27111,-13.45697 18.18911,-22.32299 -1.92915,-2.75593 -1.92915,-2.48034 -1.92915,-2.48034 z"
         style="fill:#6c5d53;fill-opacity:1;stroke:none" />
      <path
         inkscape:connector-curvature="0"
         id="path3974"
         d="m 318.65625,565.03125 c -5.62583,-0.0943 -11.29925,3.58143 -13.75,8.84375 -0.87032,0.0803 -1.72863,0.35348 -2.5,0.875 -1.98634,1.34295 -2.81458,3.83057 -2.1875,6.03125 l -12.5,8.4375 -1.9375,-2.875 -2.25,1.59375 0.6875,1 -1.875,1.1875 -1.71875,-2.5 -2.71875,1.84375 2.96875,4.375 -1.3125,0.90625 1.53125,2.21875 20.5,-13.875 c 0.98162,0.98609 2.27891,1.48038 3.625,1.53125 0.64205,1.00857 1.47814,1.88306 2.46875,2.59375 -0.14672,2.06078 0.88717,4.02213 2.625,5.0625 l -3.6875,16.40625 -3.6875,-0.84375 -0.65625,2.90625 -1.96875,-0.4375 -0.96875,4.28125 5.65625,1.28125 -0.15625,0.71875 2.59375,0.59375 5.46875,-24.15625 c 2.53732,0.0728 4.85959,-1.65408 5.4375,-4.21875 0.0273,-0.12111 0.0437,-0.25407 0.0625,-0.375 4.51927,-1.51964 8.45231,-5.24112 9.875,-9.90625 0.68516,-2.24672 0.69272,-4.4181 0.15625,-6.34375 0.20307,-0.0394 0.40479,-0.0625 0.625,-0.0625 0.8551,0 1.57478,0.31608 2.09375,0.8125 0.54044,-0.82396 1.03986,-1.68609 1.53125,-2.59375 -1.01197,-0.75582 -2.26738,-1.21875 -3.625,-1.21875 -0.6557,0 -1.27933,0.11948 -1.875,0.3125 -1.53509,-2.31662 -4.0603,-3.93058 -7.28125,-4.3125 -0.41434,-0.0491 -0.83377,-0.0868 -1.25,-0.0937 z M 318.25,567 c 0.3491,0.006 0.71462,0.0525 1.0625,0.0937 2.6006,0.30837 4.64159,1.55928 5.9375,3.375 -1.26921,1.025 -2.09375,2.55034 -2.09375,4.28125 0,1.84933 0.92385,3.47103 2.34375,4.5 0.22226,-0.17843 0.43785,-0.37672 0.65625,-0.5625 -1.25392,3.61536 -4.26821,6.52915 -7.78125,7.8125 -0.42587,-2.00289 -1.96983,-3.67766 -4.09375,-4.15625 -2.38559,-0.53755 -4.79079,0.59414 -5.9375,2.625 -0.26572,-0.24192 -0.5216,-0.47615 -0.75,-0.75 0.3087,-0.1327 0.58729,-0.27423 0.875,-0.46875 2.46838,-1.66885 3.1376,-5.06287 1.46875,-7.53125 -0.74386,-1.10023 -1.83819,-1.81692 -3.03125,-2.15625 2.13042,-4.23053 6.74659,-7.14315 11.34375,-7.0625 z m 8.3125,6.40625 c 0.20353,0.91616 0.26159,1.89196 0.15625,2.90625 -0.35494,-0.44693 -0.5625,-0.98558 -0.5625,-1.5625 0,-0.48527 0.14958,-0.9479 0.40625,-1.34375 z m -20.65625,3.46875 c 5.4e-4,-0.003 0.0307,0.003 0.0312,0 0.59242,0.12796 1.1259,0.47792 1.5,1.03125 0.76076,1.12523 0.50023,2.58299 -0.625,3.34375 -0.2066,0.13968 -0.43232,0.24088 -0.65625,0.3125 -0.45882,-1.42097 -0.59535,-3.01713 -0.25,-4.6875 z m -2.09375,0.59375 c -0.19183,1.26022 -0.17415,2.4758 0.0312,3.625 -0.15284,-0.13459 -0.28543,-0.29005 -0.40625,-0.46875 -0.69139,-1.02262 -0.5075,-2.35098 0.375,-3.15625 z m 9.3125,7.71875 c 0.16248,0.005 0.33437,0.0252 0.5,0.0625 0.98285,0.22147 1.67499,0.96349 1.84375,1.875 -0.75927,0.0741 -1.52189,0.09 -2.28125,0 -0.82703,-0.0981 -1.60078,-0.28443 -2.3125,-0.5625 0.40587,-0.86269 1.28975,-1.4017 2.25,-1.375 z m -2.1875,3.5625 c 0.53062,0.14434 1.08045,0.27547 1.65625,0.34375 0.77702,0.0921 1.564,0.0853 2.34375,0.0312 -0.55328,0.70542 -1.45968,1.08829 -2.40625,0.875 -0.72474,-0.16331 -1.27277,-0.64998 -1.59375,-1.25 z"
         style="font-size:medium;font-style:normal;font-variant:normal;font-weight:normal;font-stretch:normal;text-indent:0;text-align:start;text-decoration:none;line-height:normal;letter-spacing:normal;word-spacing:normal;text-transform:none;direction:ltr;block-progression:tb;writing-mode:lr-tb;text-anchor:start;baseline-shift:baseline;color:#000000;fill:#000000;fill-opacity:1;stroke:none;stroke-width:2.40653419;marker:none;visibility:visible;display:inline;overflow:visible;enable-background:accumulate;font-family:Sans;-inkscape-font-specification:Sans" />
      <path
         sodipodi:nodetypes="sssas"
         inkscape:connector-curvature="0"
         id="path4009"
         d="m 269.88071,702.77845 c -1.55713,0.19884 -4.25624,5.03024 -1.13942,4.82803 5.1762,-0.33581 7.51919,-0.24339 10.93389,2.86358 1.23058,1.11968 2.85325,-2.68954 2.25148,-4.14085 -1.60339,-3.86688 -10.40572,-3.76021 -12.04595,-3.55076 z"
         style="fill:#483e37;fill-opacity:1;stroke:none" />
      <path
         style="fill:#483e37;fill-opacity:1;stroke:none"
         d="m 267.64762,712.33979 c -1.90331,0.69346 -1.42298,5.46742 1.51576,4.40947 3.44491,-1.24016 6.84886,-1.1372 9.78353,0.82679 1.38267,0.92533 2.1592,-3.273 1.24017,-4.54728 -2.44871,-3.39521 -10.20076,-1.54107 -12.53946,-0.68898 z"
         id="path4011"
         inkscape:connector-curvature="0"
         sodipodi:nodetypes="sssas" />
      <path
         sodipodi:nodetypes="sssas"
         inkscape:connector-curvature="0"
         id="path4013"
         d="m 269.05902,720.72339 c -1.46983,0.55118 -2.98704,5.87337 0,4.96066 4.96067,-1.51576 6.15988,-1.27499 10.05912,0.4134 1.52675,0.66109 1.76839,-3.32792 0.82678,-4.54728 -2.22419,-2.88026 -9.33763,-1.40738 -10.8859,-0.82678 z"
         style="fill:#483e37;fill-opacity:1;stroke:none" />
      <path
         sodipodi:nodetypes="sssss"
         inkscape:connector-curvature="0"
         id="path4015"
         d="m 427.16839,695.19429 c -1.00864,0.0807 -2.61983,3.97327 0.41339,3.7205 l 3.30711,-0.27559 c 3.14085,-0.26174 1.28742,-3.84554 -0.27559,-3.7205 z"
         style="fill:#483e37;fill-opacity:1;stroke:none" />
      <path
         style="fill:#483e37;fill-opacity:1;stroke:none"
         d="m 427.99517,703.18647 c -1.00864,0.0807 -2.61983,3.97327 0.41339,3.7205 l 3.30711,-0.27559 c 3.14085,-0.26174 1.28742,-3.84554 -0.27559,-3.7205 z"
         id="path4017"
         inkscape:connector-curvature="0"
         sodipodi:nodetypes="sssss" />
      <path
         sodipodi:nodetypes="sssss"
         inkscape:connector-curvature="0"
         id="path4019"
         d="m 429.09754,710.76526 c -1.00864,0.0807 -2.61983,3.97327 0.41339,3.7205 l 3.30711,-0.27559 c 3.14085,-0.26174 1.28742,-3.84554 -0.27559,-3.7205 z"
         style="fill:#483e37;fill-opacity:1;stroke:none" />
      <path
         inkscape:connector-curvature="0"
         id="path4124"
         d="m 388.5625,457.21875 c 0,0 -24.93925,1.55126 -25.71875,3.5 -0.77949,1.94873 -9.34375,5.46875 -9.34375,5.46875 0,0 -44.41679,42.08954 -49.09375,47.15625 -2.48665,2.69387 -9.36976,4.37139 -15.28125,5.375 0.23748,0.45185 0.50667,0.85815 0.8125,1.1875 3.5827,3.8583 12.38847,9.09402 20.65625,6.0625 8.26777,-3.03152 26.46848,-25.61045 29.5,-29.46875 3.03151,-3.85829 19.8152,-30.0396 21.46875,-31.96875 1.65356,-1.92915 3.50194,0.70503 6.625,-0.84375 3.20928,-1.59153 18.14643,-5.23659 19.03125,-0.8125 l 2.0625,3.71875 c 0,0 1.68328,-1.12998 3.40625,-2.65625 l -4.125,-6.71875 z"
         style="fill:#deaa87;fill-opacity:1;stroke:none" />
      <path
         sodipodi:nodetypes="sscscs"
         inkscape:connector-curvature="0"
         id="path4134"
         d="m 428.68789,379.31697 c 13.4175,2.48435 28.8487,4.01481 38.22455,3.11798 3.36301,-0.32168 5.72513,0.0427 7.87566,-0.23691 -2.38863,0.8239 -3.86042,1.00906 -9.61972,1.33522 -28.87318,1.63513 -65.87292,-10.30464 -65.87292,-10.30464 0,0 20.26743,4.3988 29.39243,6.08835 z"
         style="fill:#6f918a;fill-opacity:1;stroke:none" />
      <path
         sodipodi:nodetypes="csssscscc"
         inkscape:connector-curvature="0"
         id="path4136"
         d="m 311.5625,417.84375 c -8.58774,7.01086 -19.80731,15.77952 -23.9375,17.15625 -7.01544,2.33848 -16.36377,1.16924 -18.3125,0 -1.94874,-1.16924 -6.24389,-9.45256 -5.89763,-6.71848 0.57888,4.57091 -0.72141,6.7097 -4.22913,7.48919 -1.58435,0.35208 -5.21696,0.86596 -7.87324,-3.36446 0.97305,3.31481 2.16443,6.35058 3.625,8.6875 7.54599,12.07359 33.75,14.0625 33.75,14.0625 7.20282,-12.77476 14.69081,-25.32284 22.875,-37.3125 z"
         style="fill:#d1c594;fill-opacity:1;stroke:none" />
      <path
         sodipodi:nodetypes="ccccccc"
         inkscape:connector-curvature="0"
         id="path4151"
         d="m 298.1875,479.125 c 0,0 -6.95186,3.6648 -9.375,6.0625 -1.98463,1.76313 -6.62691,4.26988 -11.28125,1.375 1.10237,2.48033 5.78125,7.1875 5.78125,7.1875 0,0 -1.66494,1.41838 -2.53125,3.03125 l 0.0625,0 z"
         style="fill:#b7c4c8;fill-opacity:1;stroke:none" />
      <path
         sodipodi:nodetypes="caccscsssssscccccccccsccccsc"
         inkscape:connector-curvature="0"
         id="path4166"
         d="m 397.9375,572.1875 c 0,0 -23.83972,1.38955 -33.91152,7.03125 -7.61772,4.26705 -17.93223,19.09375 -17.93223,19.09375 l 14.4375,-13.65625 c 0,0 -20.26891,57.4756 -22.62782,62.36483 -3.99357,8.27734 -48.21595,48.45351 -62.21593,45.66642 1.5274,3.42808 3.64012,6.03487 6.53125,6.375 9.37015,1.10237 12.65894,-2.75808 14.3125,-7.71875 1.743,-5.22901 33.62447,-28.11261 39.6875,-39.6875 6.06304,-11.57488 23.71013,-59.5194 24.8125,-65.03125 1.10237,-5.51185 14.34052,-11.02856 18.75,-9.375 4.40948,1.65355 16.18241,13.68282 25.5625,18.40625 13.37935,6.73729 28.61372,19.81032 28.90625,20.0625 l 6.15625,-3.375 -48.3125,-29.25 c 1.95976,-3.75776 22.08333,-0.25 33.125,-0.375 l -39.375,-4.28125 c -2.16714,-2.79187 7.30172,-4.25363 12.09375,-6.25 z m 44.4375,43.65625 -10.625,5.46875 2.00737,5.55337 5.77657,-5.6385 c 1.76396,-1.7218 2.84106,-5.38362 2.84106,-5.38362 z m -5.84375,19.5 -7.8125,3.875 0.83638,7.27036 c 0,0 1.09911,-2.59425 4.22612,-3.73911 3.1646,-1.15862 3.03522,-6.62014 2.75,-7.40625 z"
         style="fill:#241f1c;fill-opacity:1;stroke:none" />
    </g>
    <text
       xml:space="preserve"
       style="font-size:18px;font-style:normal;font-weight:normal;line-height:125%;letter-spacing:0px;word-spacing:0px;fill:#ff0000;fill-opacity:1;stroke:none;font-family:Sans"
       x="557.83917"
       y="391.35297"
       id="text3336"
       sodipodi:linespacing="125%"><tspan
         sodipodi:role="line"
         id="tspan3338"
         x="557.83917"
         y="391.35297">NSA</tspan></text>
    <text
       xml:space="preserve"
       style="font-size:48px;font-style:normal;font-weight:normal;line-height:125%;letter-spacing:0px;word-spacing:0px;fill:#0000ff;fill-opacity:1;stroke:none;font-family:Sans"
       x="-74.655991"
       y="767.36847"
       id="text3132"
       sodipodi:linespacing="125%"><tspan
         sodipodi:role="line"
         id="tspan3134"
         x="-74.655991"
         y="767.36847">『微軟 NSA 後門』</tspan></text>
  </g>
</svg>
