<?xml version="1.0" encoding="UTF-8" standalone="no"?>
<svg
   xmlns:dc="http://purl.org/dc/elements/1.1/"
   xmlns:cc="http://creativecommons.org/ns#"
   xmlns:rdf="http://www.w3.org/1999/02/22-rdf-syntax-ns#"
   xmlns:svg="http://www.w3.org/2000/svg"
   xmlns="http://www.w3.org/2000/svg"
   xmlns:xlink="http://www.w3.org/1999/xlink"
   xmlns:sodipodi="http://sodipodi.sourceforge.net/DTD/sodipodi-0.dtd"
   xmlns:inkscape="http://www.inkscape.org/namespaces/inkscape"
   width="600"
   height="480"
   viewBox="0 0 600 480"
   id="svg2"
   version="1.1"
   inkscape:version="0.48.3.1 r9886"
   sodipodi:docname="potential-vs-angle.svg"
   inkscape:export-filename="/mnt/worksp/home/ckhung/public_html/m/13/potential-vs-angle.png"
   inkscape:export-xdpi="90"
   inkscape:export-ydpi="90">
  <metadata
     id="metadata164">
    <rdf:RDF>
      <cc:Work
         rdf:about="">
        <dc:format>image/svg+xml</dc:format>
        <dc:type
           rdf:resource="http://purl.org/dc/dcmitype/StillImage" />
        <dc:title>Gnuplot</dc:title>
      </cc:Work>
    </rdf:RDF>
  </metadata>
  <defs
     id="defs162" />
  <sodipodi:namedview
     pagecolor="#ffffff"
     bordercolor="#666666"
     borderopacity="1"
     objecttolerance="10"
     gridtolerance="10"
     guidetolerance="10"
     inkscape:pageopacity="1"
     inkscape:pageshadow="2"
     inkscape:window-width="1024"
     inkscape:window-height="719"
     id="namedview160"
     showgrid="false"
     inkscape:zoom="0.49166667"
     inkscape:cx="300"
     inkscape:cy="235.9322"
     inkscape:window-x="-1"
     inkscape:window-y="-4"
     inkscape:window-maximized="1"
     inkscape:current-layer="svg2" />
  <title
     id="title4">Gnuplot</title>
  <desc
     id="desc6">Produced by GNUPLOT 4.6 patchlevel 0 </desc>
  <g
     id="gnuplot_canvas">
    <rect
       x="0"
       y="0"
       width="600"
       height="480"
       fill="none"
       id="rect9" />
    <defs
       id="defs11">
      <circle
         id="gpDot"
         r="0.5"
         stroke-width="0.5" />
      <path
         id="gpPt0"
         stroke-width="0.222"
         stroke="currentColor"
         d="M-1,0 h2 M0,-1 v2" />
      <path
         id="gpPt1"
         stroke-width="0.222"
         stroke="currentColor"
         d="M-1,-1 L1,1 M1,-1 L-1,1" />
      <path
         id="gpPt2"
         stroke-width="0.222"
         stroke="currentColor"
         d="M-1,0 L1,0 M0,-1 L0,1 M-1,-1 L1,1 M-1,1 L1,-1" />
      <rect
         id="gpPt3"
         stroke-width="0.222"
         stroke="currentColor"
         x="-1"
         y="-1"
         width="2"
         height="2" />
      <rect
         id="gpPt4"
         stroke-width="0.222"
         stroke="currentColor"
         fill="currentColor"
         x="-1"
         y="-1"
         width="2"
         height="2" />
      <circle
         id="gpPt5"
         stroke-width="0.222"
         stroke="currentColor"
         cx="0"
         cy="0"
         r="1" />
      <use
         xlink:href="#gpPt5"
         id="gpPt6"
         fill="currentColor"
         stroke="none" />
      <path
         id="gpPt7"
         stroke-width="0.222"
         stroke="currentColor"
         d="M0,-1.33 L-1.33,0.67 L1.33,0.67 z" />
      <use
         xlink:href="#gpPt7"
         id="gpPt8"
         fill="currentColor"
         stroke="none" />
      <use
         xlink:href="#gpPt7"
         id="gpPt9"
         stroke="currentColor"
         transform="rotate(180)" />
      <use
         xlink:href="#gpPt9"
         id="gpPt10"
         fill="currentColor"
         stroke="none" />
      <use
         xlink:href="#gpPt3"
         id="gpPt11"
         stroke="currentColor"
         transform="rotate(45)" />
      <use
         xlink:href="#gpPt11"
         id="gpPt12"
         fill="currentColor"
         stroke="none" />
    </defs>
    <g
       style="fill:none; color:white; stroke:currentColor; stroke-width:1.00; stroke-linecap:butt; stroke-linejoin:miter"
       id="g27" />
    <g
       style="fill:none; color:black; stroke:currentColor; stroke-width:1.00; stroke-linecap:butt; stroke-linejoin:miter"
       id="g29">
      <path
         d="M53.9,444.0 L62.9,444.0 M575.0,444.0 L566.0,444.0  h0.01"
         id="path31" />
      <g
         transform="translate(45.6,448.5)"
         style="stroke:none; fill:black; font-family:Arial; font-size:12.00pt; text-anchor:end"
         id="g33">
        <text
           id="text35">-1</text>
      </g>
      <path
         d="M53.9,401.3 L62.9,401.3 M575.0,401.3 L566.0,401.3  h0.01"
         id="path37" />
      <g
         transform="translate(45.6,405.8)"
         style="stroke:none; fill:black; font-family:Arial; font-size:12.00pt; text-anchor:end"
         id="g39">
        <text
           id="text41">-0.8</text>
      </g>
      <path
         d="M53.9,358.5 L62.9,358.5 M575.0,358.5 L566.0,358.5  h0.01"
         id="path43" />
      <g
         transform="translate(45.6,363.0)"
         style="stroke:none; fill:black; font-family:Arial; font-size:12.00pt; text-anchor:end"
         id="g45">
        <text
           id="text47">-0.6</text>
      </g>
      <path
         d="M53.9,315.8 L62.9,315.8 M575.0,315.8 L566.0,315.8  h0.01"
         id="path49" />
      <g
         transform="translate(45.6,320.3)"
         style="stroke:none; fill:black; font-family:Arial; font-size:12.00pt; text-anchor:end"
         id="g51">
        <text
           id="text53">-0.4</text>
      </g>
      <path
         d="M53.9,273.1 L62.9,273.1 M575.0,273.1 L566.0,273.1  h0.01"
         id="path55" />
      <g
         transform="translate(45.6,277.6)"
         style="stroke:none; fill:black; font-family:Arial; font-size:12.00pt; text-anchor:end"
         id="g57">
        <text
           id="text59">-0.2</text>
      </g>
      <path
         d="M53.9,230.4 L62.9,230.4 M575.0,230.4 L566.0,230.4  h0.01"
         id="path61" />
      <g
         transform="translate(45.6,234.9)"
         style="stroke:none; fill:black; font-family:Arial; font-size:12.00pt; text-anchor:end"
         id="g63">
        <text
           id="text65"> 0</text>
      </g>
      <path
         d="M53.9,187.6 L62.9,187.6 M575.0,187.6 L566.0,187.6  h0.01"
         id="path67" />
      <g
         transform="translate(45.6,192.1)"
         style="stroke:none; fill:black; font-family:Arial; font-size:12.00pt; text-anchor:end"
         id="g69">
        <text
           id="text71"> 0.2</text>
      </g>
      <path
         d="M53.9,144.9 L62.9,144.9 M575.0,144.9 L566.0,144.9  h0.01"
         id="path73" />
      <g
         transform="translate(45.6,149.4)"
         style="stroke:none; fill:black; font-family:Arial; font-size:12.00pt; text-anchor:end"
         id="g75">
        <text
           id="text77"> 0.4</text>
      </g>
      <path
         d="M53.9,102.2 L62.9,102.2 M575.0,102.2 L566.0,102.2  h0.01"
         id="path79" />
      <g
         transform="translate(45.6,106.7)"
         style="stroke:none; fill:black; font-family:Arial; font-size:12.00pt; text-anchor:end"
         id="g81">
        <text
           id="text83"> 0.6</text>
      </g>
      <path
         d="M53.9,59.4 L62.9,59.4 M575.0,59.4 L566.0,59.4  h0.01"
         id="path85" />
      <g
         transform="translate(45.6,63.9)"
         style="stroke:none; fill:black; font-family:Arial; font-size:12.00pt; text-anchor:end"
         id="g87">
        <text
           id="text89"> 0.8</text>
      </g>
      <path
         d="M53.9,16.7 L62.9,16.7 M575.0,16.7 L566.0,16.7  h0.01"
         id="path91" />
      <g
         transform="translate(45.6,21.2)"
         style="stroke:none; fill:black; font-family:Arial; font-size:12.00pt; text-anchor:end"
         id="g93">
        <text
           id="text95"> 1</text>
      </g>
      <path
         d="M53.9,444.0 L53.9,435.0 M53.9,16.7 L53.9,25.7  h0.01"
         id="path97" />
      <g
         transform="translate(53.9,466.5)"
         style="stroke:none; fill:black; font-family:Arial; font-size:12.00pt; text-anchor:middle"
         id="g99">
        <text
           id="text101"> 0</text>
      </g>
      <path
         d="M140.7,444.0 L140.7,435.0 M140.7,16.7 L140.7,25.7  h0.01"
         id="path103" />
      <g
         transform="translate(140.7,466.5)"
         style="stroke:none; fill:black; font-family:Arial; font-size:12.00pt; text-anchor:middle"
         id="g105">
        <text
           id="text107"> 60</text>
      </g>
      <path
         d="M227.6,444.0 L227.6,435.0 M227.6,16.7 L227.6,25.7  h0.01"
         id="path109" />
      <g
         transform="translate(227.6,466.5)"
         style="stroke:none; fill:black; font-family:Arial; font-size:12.00pt; text-anchor:middle"
         id="g111">
        <text
           id="text113"> 120</text>
      </g>
      <path
         d="M314.4,444.0 L314.4,435.0 M314.4,16.7 L314.4,25.7  h0.01"
         id="path115" />
      <g
         transform="translate(314.4,466.5)"
         style="stroke:none; fill:black; font-family:Arial; font-size:12.00pt; text-anchor:middle"
         id="g117">
        <text
           id="text119"> 180</text>
      </g>
      <path
         d="M401.3,444.0 L401.3,435.0 M401.3,16.7 L401.3,25.7  h0.01"
         id="path121" />
      <g
         transform="translate(401.3,466.5)"
         style="stroke:none; fill:black; font-family:Arial; font-size:12.00pt; text-anchor:middle"
         id="g123">
        <text
           id="text125"> 240</text>
      </g>
      <path
         d="M488.1,444.0 L488.1,435.0 M488.1,16.7 L488.1,25.7  h0.01"
         id="path127" />
      <g
         transform="translate(488.1,466.5)"
         style="stroke:none; fill:black; font-family:Arial; font-size:12.00pt; text-anchor:middle"
         id="g129">
        <text
           id="text131"> 300</text>
      </g>
      <path
         d="M575.0,444.0 L575.0,435.0 M575.0,16.7 L575.0,25.7  h0.01"
         id="path133" />
      <g
         transform="translate(575.0,466.5)"
         style="stroke:none; fill:black; font-family:Arial; font-size:12.00pt; text-anchor:middle"
         id="g135">
        <text
           id="text137"> 360</text>
      </g>
      <path
         d="M53.9,16.7 L53.9,444.0 L575.0,444.0 L575.0,16.7 L53.9,16.7 Z  h0.01"
         id="path139" />
      <g
         transform="translate(401.3,63.9)"
         style="stroke:none; fill:black; font-family:Arial; font-size:12.00pt; text-anchor:start"
         id="g141">
        <text
           id="text143">系統位能 vs 轉盤角度</text>
      </g>
      <g
         transform="translate(531.6,437.8)"
         style="stroke:none; fill:black; font-family:Arial; font-size:12.00pt; text-anchor:start"
         id="g145">
        <text
           id="text147">角度</text>
      </g>
    </g>
    <g
       id="gnuplot_plot_1">
      <title
         id="title150">gnuplot_plot_1</title>
      <g
         style="fill:none; color:red; stroke:currentColor; stroke-width:1.00; stroke-linecap:butt; stroke-linejoin:miter"
         id="g152">
        <path
           d="M53.9,230.3 L59.2,186.6 L64.4,148.4 L69.7,120.3 L75.0,104.9 L80.2,102.7 L85.5,111.4 L90.7,127.0    L96.0,144.5 L101.3,158.5 L106.5,164.8 L111.8,160.8 L117.1,146.4 L122.3,123.6 L127.6,96.7 L132.9,70.8    L138.1,51.2 L143.4,42.5 L148.6,47.3 L153.9,65.8 L159.2,96.0 L164.4,133.8 L169.7,173.7 L175.0,210.0    L180.2,238.1 L185.5,254.7 L190.8,259.1 L196.0,252.8 L201.3,239.5 L206.5,224.0 L211.8,211.8 L217.1,207.2    L222.3,213.2 L227.6,230.3 L232.9,257.0 L238.1,289.2 L243.4,321.9 L248.7,349.4 L253.9,367.1 L259.2,371.8    L264.4,362.4 L269.7,340.6 L275.0,309.9 L280.2,275.6 L285.5,243.2 L290.8,217.8 L296.0,202.8 L301.3,199.5    L306.6,206.9 L311.8,221.6 L317.1,239.1 L322.3,253.8 L327.6,261.2 L332.9,257.9 L338.1,242.9 L343.4,217.5    L348.7,185.1 L353.9,150.8 L359.2,120.1 L364.5,98.3 L369.7,88.9 L375.0,93.6 L380.2,111.3 L385.5,138.8    L390.8,171.5 L396.0,203.7 L401.3,230.3 L406.6,247.5 L411.8,253.5 L417.1,248.9 L422.4,236.7 L427.6,221.2    L432.9,207.9 L438.1,201.6 L443.4,206.0 L448.7,222.6 L453.9,250.7 L459.2,287.0 L464.5,326.9 L469.7,364.7    L475.0,394.9 L480.3,413.4 L485.5,418.2 L490.8,409.5 L496.0,389.9 L501.3,364.0 L506.6,337.1 L511.8,314.3    L517.1,299.9 L522.4,295.9 L527.6,302.2 L532.9,316.2 L538.2,333.7 L543.4,349.3 L548.7,358.0 L553.9,355.8    L559.2,340.4 L564.5,312.3 L569.7,274.1 L575.0,230.4  h0.01"
           id="path154" />
      </g>
    </g>
    <g
       style="fill:none; color:black; stroke:currentColor; stroke-width:1.00; stroke-linecap:butt; stroke-linejoin:miter"
       id="g156">
      <path
         d="M53.9,16.7 L53.9,444.0 L575.0,444.0 L575.0,16.7 L53.9,16.7 Z  h0.01"
         id="path158" />
    </g>
  </g>
</svg>
