<?xml version="1.0" encoding="UTF-8" standalone="no"?>
<!-- Created with Inkscape (http://www.inkscape.org/) -->

<svg
   xmlns:dc="http://purl.org/dc/elements/1.1/"
   xmlns:cc="http://creativecommons.org/ns#"
   xmlns:rdf="http://www.w3.org/1999/02/22-rdf-syntax-ns#"
   xmlns:svg="http://www.w3.org/2000/svg"
   xmlns="http://www.w3.org/2000/svg"
   xmlns:xlink="http://www.w3.org/1999/xlink"
   xmlns:sodipodi="http://sodipodi.sourceforge.net/DTD/sodipodi-0.dtd"
   xmlns:inkscape="http://www.inkscape.org/namespaces/inkscape"
   width="800"
   height="533"
   id="svg2"
   version="1.1"
   inkscape:version="0.48.3.1 r9886"
   sodipodi:docname="renault-drm.svg"
   inkscape:export-filename="/home/ckhung/public_html/m/13/renault-drm.png"
   inkscape:export-xdpi="90"
   inkscape:export-ydpi="90">
  <defs
     id="defs4">
    <linearGradient
       x1="183.04"
       y1="966.09"
       gradientTransform="matrix(0,4.7966,-4.7966,0,4665.3,48.727)"
       x2="109.44"
       gradientUnits="userSpaceOnUse"
       y2="897.5"
       id="linearGradient81451">
      <stop
         offset="0"
         id="stop35322" />
      <stop
         offset="1"
         stop-opacity="0"
         id="stop35324" />
    </linearGradient>
    <linearGradient
       x1="-498.11"
       y1="684.95"
       x2="100.95"
       gradientUnits="userSpaceOnUse"
       y2="755.16"
       id="linearGradient81441">
      <stop
         offset="0"
         stop-color="#1a1a1a"
         id="stop30753" />
      <stop
         offset="1"
         stop-opacity="0"
         stop-color="#1a1a1a"
         id="stop30755" />
    </linearGradient>
    <filter
       color-interpolation-filters="sRGB"
       height="1.2171"
       x="-.12769"
       y="-.10853"
       width="1.2554"
       id="filter35461">
      <feGaussianBlur
         stdDeviation="4.9442178"
         id="feGaussianBlur35463" />
    </filter>
    <filter
       color-interpolation-filters="sRGB"
       id="filter35457">
      <feGaussianBlur
         stdDeviation="3.1161815"
         id="feGaussianBlur35459" />
    </filter>
    <filter
       color-interpolation-filters="sRGB"
       id="filter35467">
      <feGaussianBlur
         stdDeviation="0.30772425"
         id="feGaussianBlur35469" />
    </filter>
  </defs>
  <sodipodi:namedview
     id="base"
     pagecolor="#ffffff"
     bordercolor="#666666"
     borderopacity="1.0"
     inkscape:pageopacity="0.0"
     inkscape:pageshadow="2"
     inkscape:zoom="1.08125"
     inkscape:cx="400"
     inkscape:cy="266.5"
     inkscape:document-units="px"
     inkscape:current-layer="layer1-8"
     showgrid="false"
     fit-margin-top="0"
     fit-margin-left="0"
     fit-margin-right="0"
     fit-margin-bottom="0"
     inkscape:window-width="1020"
     inkscape:window-height="768"
     inkscape:window-x="322"
     inkscape:window-y="266"
     inkscape:window-maximized="0" />
  <metadata
     id="metadata7">
    <rdf:RDF>
      <cc:Work
         rdf:about="">
        <dc:format>image/svg+xml</dc:format>
        <dc:type
           rdf:resource="http://purl.org/dc/dcmitype/StillImage" />
        <dc:title />
      </cc:Work>
    </rdf:RDF>
  </metadata>
  <g
     inkscape:label="Layer 1"
     inkscape:groupmode="layer"
     id="layer1"
     transform="translate(-460,-477.29074)">
    <image
       y="477.29074"
       x="460"
       id="image3063"
       xlink:href="file:///home/ckhung/public_html/m/13/renault-zoe.jpg"
       height="533"
       width="800" />
    <g
       id="layer1-8"
       transform="matrix(0.53931572,0,0,0.53931572,588.53861,455.18623)">
      <g
         transform="matrix(0,-4.7966,-4.7966,0,3417.5663,1078.4177)"
         id="g30643">
        <g
           transform="matrix(0.58571,-0.068233,0.068233,0.58571,-37.612,326.74)"
           id="g35282"
           style="fill:#333333">
          <path
             transform="translate(0,-136.95)"
             d="m 71.719,758.47 c -1.4575,-0.0165 -2.8855,0.43771 -4,1.5 -2.718,2.2891 -3.0064,6.7439 -0.71875,9.4375 2.4335,3.3942 6.3301,6.647 7.2812,13.625 l 0.28125,2 4.75,-1.2188 c -3.3406,-7.2806 -6.9002,-10.574 -5.6875,-11.75 0.96898,-0.93927 1.6375,0.14117 4.0312,-2.4375 2.2984,-2.476 1.6319,-6.7322 -0.84375,-8.9688 -1.2957,-1.3529 -3.2198,-2.1662 -5.0938,-2.1875 z m 0.15625,2.0938 c 2.0796,0.0192 4.1553,1.6604 4.6875,3.6562 1.0366,3.8874 -3.0007,7.404 -6.2812,5.5 -3.123,-1.5702 -3.739,-6.8281 -0.4375,-8.5625 0.63421,-0.40016 1.338,-0.60016 2.0312,-0.59375 z m 7.875,24.219 -5.0625,1.25 0.34375,2.375 1.125,2.4688 6,-0.59375 -2.4062,-5.5 z m -1.3125,1.625 c 0.73223,0 1.3438,0.58027 1.3438,1.3125 0,0.73223 -0.61152,1.3438 -1.3438,1.3438 -0.73223,0 -1.3125,-0.61152 -1.3125,-1.3438 0,-0.73223 0.58027,-1.3125 1.3125,-1.3125 z m 4.1562,4.8438 -5.9688,0.625 9.0938,19.781 c 1.511,2.7818 4.1236,5.4286 8.1562,5.2812 l -11.281,-25.67 z"
             id="path48999"
             inkscape:connector-curvature="0" />
          <path
             transform="translate(0,-136.95)"
             d="m 102.72,782.62 -25.469,2.3125 -5,2.0312 c -6.5247,2.6508 -11.314,0.88836 -15.469,0.46875 -3.4751,-0.64216 -7.1813,1.8155 -7.8125,5.3125 -0.83668,3.4183 1.8922,6.7629 5.125,7.5625 3.1724,1.0328 7.1853,-0.52378 8.1875,-3.75 1.0438,-3.3602 -0.23809,-3.3794 0.09375,-4.6875 0.42453,-1.6734 5.2557,-0.1209 13.562,-0.96875 l 35.438,-3.8438 c -1.8808,-3.5702 -5.4915,-4.5128 -8.6562,-4.4375 z m -24.281,3.7812 c 0.73223,0 1.3438,0.58027 1.3438,1.3125 0,0.73223 -0.61152,1.3438 -1.3438,1.3438 -0.73223,0 -1.3125,-0.61152 -1.3125,-1.3438 0,-0.73223 0.58027,-1.3125 1.3125,-1.3125 z m -22.188,3 c 0.86529,0.0182 1.7083,0.26849 2.4375,0.75 3.2849,1.8963 2.2622,7.119 -1.625,8.1562 -2.6611,0.7101 -6.1557,-1.2842 -6.0312,-4.2812 -0.10527,-2.795 2.6229,-4.6798 5.2188,-4.625 z"
             id="path49000"
             inkscape:connector-curvature="0" />
        </g>
      </g>
      <g
         style="overflow:visible"
         id="g3355"
         transform="matrix(0.71559667,0,0,0.71559667,68.855541,854.39654)">
        <g
           id="g3301"
           clip-rule="evenodd"
           style="fill-rule:evenodd">
          <path
             id="path3303"
             d="m 189.12,5.76 c -1.668,9.302 -7.673,17.845 -12.479,26.88 -2.305,4.331 -4.983,7.991 -7.681,12.48 -4.516,7.516 -8.109,15.168 -13.439,22.08 0.338,-5.59 4.694,-10.349 7.68,-15.36 8.49,-14.246 17.64,-30.849 25.92,-46.08 z"
             inkscape:connector-curvature="0"
             style="fill:#ffffff" />
          <path
             id="path3305"
             d="m 264,57.6 c 1.551,-0.271 1.653,0.907 2.881,0.96 -5.285,9.928 -12.461,20.025 -19.2,29.76 -4.983,7.199 -9.86,13.882 -15.36,21.12 -1.167,1.536 -1.372,6.771 -4.8,4.8 -0.221,-5.149 3.92,-10.288 6.72,-14.4 3.068,-4.505 6.56,-8.849 9.601,-13.44 6.65,-10.038 13.78,-18.911 20.16,-28.8 z"
             inkscape:connector-curvature="0"
             style="fill:#ffffff" />
          <path
             id="path3307"
             d="m 109.44,91.2 c 0.968,2.887 -2.139,1.701 -3.84,1.92 0.63,-1.288 2.05,-1.788 3.84,-1.92 z"
             inkscape:connector-curvature="0"
             style="fill:#ffe384" />
          <path
             id="path3309"
             d="m 57.6,107.52 c 5.405,-1.865 16.198,-0.853 17.28,4.8 -0.086,4.94 -6.417,5.786 -10.56,3.84 -0.919,-3.479 4.144,-0.976 4.8,-2.879 -1.906,-3.86 -6.918,-4.6 -11.52,-5.76 z"
             inkscape:connector-curvature="0" />
          <path
             id="path3311"
             d="m 206.4,126.72 c 1.538,-2.696 3.588,2.081 5.76,1.92 -1.88,3.03 -5.06,-0.61 -5.76,-1.92 z"
             inkscape:connector-curvature="0"
             style="fill:#ffffff" />
          <path
             id="path3313"
             d="m 71.04,138.24 c 2.713,-0.793 2.487,1.354 4.8,0.96 0.774,4.295 -1.708,5.332 -4.8,5.761 v -6.72 z"
             inkscape:connector-curvature="0"
             style="fill:#ffffff" />
          <path
             id="path3315"
             d="m 77.76,140.16 h 4.8 c 0.566,4.087 -0.317,6.724 -4.8,5.761 v -5.76 z"
             inkscape:connector-curvature="0"
             style="fill:#ffffff" />
          <path
             id="path3317"
             d="m 85.44,141.12 c 2.713,-0.793 2.487,1.354 4.8,0.96 0.127,3.327 -0.827,5.573 -4.8,4.801 v -5.76 z"
             inkscape:connector-curvature="0"
             style="fill:#ffffff" />
          <path
             id="path3319"
             d="m 92.16,142.08 h 4.8 v 4.801 c -4.337,1.14 -4.159,-2.24 -4.8,-4.8 z"
             inkscape:connector-curvature="0"
             style="fill:#ffffff" />
          <path
             id="path3321"
             d="m 98.88,143.04 c 3.281,-0.401 5.47,0.289 4.8,3.84 h -4.8 v -3.84 z"
             inkscape:connector-curvature="0"
             style="fill:#ffffff" />
          <path
             id="path3323"
             d="m 105.6,144 c 1.673,0.887 5.152,-0.033 4.8,2.88 -2.54,-0.02 -6.02,0.9 -4.8,-2.88 z"
             inkscape:connector-curvature="0"
             style="fill:#ffffff" />
          <path
             id="path3325"
             d="m 120.96,144.96 c -1.021,2.179 -6.035,0.365 -8.64,0.96 1.87,-1.34 6.45,-2.87 8.64,-0.96 z"
             inkscape:connector-curvature="0"
             style="fill:#ffffff" />
          <path
             id="path3327"
             d="m 61.44,200.64 c -5.855,1.997 -13.445,-2.541 -19.2,-3.84 4.615,-4.09 12.828,3.43 19.2,3.84 z"
             inkscape:connector-curvature="0" />
          <path
             id="path3329"
             d="m 60.48,194.88 c 2.549,0.971 5.461,1.578 5.76,4.8 -2.733,-0.79 -4.874,-2.17 -5.76,-4.8 z"
             inkscape:connector-curvature="0" />
          <path
             id="path3331"
             d="m 72.96,204.48 c -0.106,1.813 -3.174,0.666 -2.88,2.88 -2.592,-0.86 0.446,-3.9 2.88,-2.88 z"
             inkscape:connector-curvature="0"
             style="fill:#ffffff" />
          <path
             id="path3333"
             d="m 58.56,205.44 c -2.599,1.882 -4.958,4.002 -9.6,3.84 2.49,-1.99 5.69,-3.27 9.6,-3.84 z"
             inkscape:connector-curvature="0" />
          <path
             id="path3335"
             d="m 271.68,65.28 c -1.783,8.271 -12.391,17.01 -16.32,26.88 1.84,-8.725 11.51,-17.927 16.32,-26.88 z"
             inkscape:connector-curvature="0"
             style="fill:#ffffff" />
          <path
             id="path3337"
             d="m 321.6,244.8 v 6.72 C 243.363,248.501 155.7,249.6 72,249.6 c -19.448,0 -38.348,-0.787 -55.68,0 -4.238,0.192 -15.206,3.699 -16.32,-1.92 0.861,-6.257 10.231,-3.84 16.32,-3.84 h 19.2 c 9.796,-11.324 17.771,-24.47 30.72,-32.641 -1.513,-4.618 0.521,-8.271 4.8,-9.6 -4.383,-2.339 -4.402,-9.332 -7.68,-15.36 -1.863,-3.426 -5.735,-5.084 -6.72,-8.64 -0.739,-2.668 0.399,-6.838 0,-10.56 -0.846,-7.885 -2.834,-13.712 1.92,-21.12 3.4,-0.44 5.544,-2.136 9.6,-1.92 1.978,-9.49 -8.27,-11.363 -4.8,-19.2 -9.622,-9.101 -21.186,-15.212 -29.76,-27.84 -5.761,-8.484 -13.507,-19.088 -7.68,-31.68 10.458,2.428 17.448,10.724 26.88,15.36 12.654,6.22 25.146,12.417 46.08,11.52 2.178,-2.059 4.836,-7.414 7.68,-5.76 0.294,2.214 -2.773,1.066 -2.88,2.88 6.402,-0.009 18.095,-3.017 24,-6.72 -3.414,-6.141 -12.297,-11.005 -8.64,-21.12 6.811,-0.589 11.362,9.014 18.24,11.52 6.372,-3.634 8.895,-11.322 12.48,-17.28 10.19,-16.931 22.62,-35.394 30.72,-55.68 10.391,1.097 19.991,6.799 28.8,11.52 26.135,14.006 51.668,32.786 71.04,54.72 -9.832,20.888 -25.438,36.002 -37.439,54.72 6.492,4.067 17.48,3.639 25.92,5.76 -4.786,7.123 -16.992,11.715 -26.88,10.56 -0.236,4.075 2.511,5.169 1.92,9.601 41.27,17.29 57.77,59.35 77.76,97.92 z M 163.2,51.84 c -2.985,5.011 -7.342,9.77 -7.68,15.36 5.33,-6.912 8.924,-14.564 13.439,-22.08 2.697,-4.489 5.376,-8.149 7.681,-12.48 4.807,-9.035 10.812,-17.578 12.479,-26.88 -8.28,15.231 -17.43,31.834 -25.92,46.08 z m 80.64,34.56 c -3.041,4.591 -6.532,8.935 -9.601,13.44 -2.8,4.112 -6.94,9.251 -6.72,14.4 3.428,1.971 3.633,-3.265 4.8,-4.8 5.5,-7.238 10.377,-13.921 15.36,-21.12 6.739,-9.734 13.915,-19.832 19.2,-29.76 -1.228,-0.053 -1.33,-1.23 -2.881,-0.96 -6.38,9.889 -13.51,18.762 -20.16,28.8 z m 11.52,5.76 c 3.93,-9.87 14.537,-18.608 16.32,-26.88 -4.81,8.953 -14.48,18.155 -16.32,26.88 z M 60.48,167.04 c 1.265,5.66 -0.302,12.677 3.84,15.359 13.366,-1.033 18.49,-10.31 24,-19.2 1.788,9.261 -7.056,15.9 -12.48,21.12 -1.868,2.097 -10.567,0.974 -7.68,4.8 5.917,2.593 18.451,-1.997 22.08,-3.84 -1.954,7.09 -15.695,9.074 -21.12,6.721 3.073,2.046 3.233,7.007 7.68,7.68 9.187,-3.934 15.637,-10.604 24.96,-14.4 -0.306,-2.226 0.154,-3.686 0.96,-4.8 3.461,-2.747 8.346,-5.48 11.52,-9.6 2.343,-3.041 2.641,-9.521 6.72,-8.641 -2.291,9.555 -13.464,15.328 -16.32,21.12 16.462,-10.418 33.231,-20.528 51.84,-28.8 6.329,-8.725 3.107,-16.931 -4.8,-22.08 -11.548,-7.521 -34.221,-4.841 -42.24,-14.4 20.43,7.301 61.163,3.831 52.8,33.601 10.002,-1.711 21.502,-6.395 17.28,-19.2 -6.361,-0.601 -4.065,7.454 -10.561,6.72 1.221,-12.151 19.394,-16.74 30.721,-12.479 -4.924,2.437 -13.604,1.117 -17.28,4.8 5.345,3.25 1.844,11.135 -0.96,14.4 13.066,-0.054 14.035,-12.205 22.08,-17.28 -4.104,-7.471 -17.937,-9.064 -28.8,-6.72 -2.905,2.215 -2.222,8.019 -6.721,8.64 -2.411,-17.329 22.18,-13.501 29.761,-12.48 -4.947,-0.144 -7.52,-6.8 -11.521,-4.799 -1.945,-4.038 -7.354,-8.98 -11.52,-7.68 -3.78,-7.442 -10.843,-9.364 -19.2,-14.4 -6.027,-3.632 -11.228,-9.123 -15.36,-9.6 -8.459,-0.978 -12.315,5.685 -20.16,8.64 -1.992,0.75 -5.989,-2.761 -5.76,2.88 11.199,1.912 19.49,-7.385 32.64,-6.72 5.134,2.751 4.981,5.683 9.6,9.6 -2.227,4.827 -0.452,13.18 -7.68,14.4 -4.193,0.708 -13.252,-5.54 -11.52,-7.68 5.48,0.57 8.078,7.063 14.4,3.84 0.147,-4.374 0.793,-3.767 0,-7.68 -5.859,-3.519 -9.621,-5.901 -16.32,-5.76 -7.254,0.153 -15.1,4.858 -22.08,4.8 -5.114,-0.042 -10.254,-3.539 -15.36,-3.84 -6.771,-0.399 -13.023,2.001 -19.2,0.96 -2.021,-0.341 -4.237,-2.082 -6.72,-2.88 -2.198,-0.707 -6.05,-0.264 -7.68,-0.96 -1.766,-0.755 -4.453,-3.525 -6.72,-4.8 -10.753,-6.049 -21.954,-11.711 -29.76,-18.24 -3.564,12.175 2.526,16.356 7.68,24 3.558,5.276 5.87,11.058 9.6,14.4 6.181,5.539 14.485,8.526 19.2,13.44 0.5,1.42 1.42,2.419 1.92,3.84 1.21,1.684 -0.972,5.789 0.96,8.64 9.125,4.545 24.89,7.51 38.4,8.64 7.739,0.647 18.241,1.899 22.08,-2.88 -17.047,-3.113 -31.774,-8.546 -38.4,-22.08 -2.597,6.208 -16.183,10.021 -22.08,6.721 7.212,-3.028 18.484,-1.997 19.2,-11.521 -6.51,-8.367 -28.042,-7.93 -32.64,-14.4 12.094,2.946 25.824,4.256 34.56,10.56 2.138,5.258 2.392,8.924 5.76,12.48 12.921,13.642 51.886,12.536 58.56,24.96 1.865,3.473 1.564,9.747 -3.84,9.6 0.415,-2.584 3.604,-4.923 0.96,-7.68 -2.613,-2.507 -6.816,-3.424 -10.56,-4.801 3.1,13.267 -9.697,22.533 -18.24,24 5.46,-5.638 18.733,-11.872 12.48,-23.039 -1.752,2.088 -2.841,4.838 -5.76,5.76 -19.036,5.277 -50.968,6.374 -67.2,0.96 0.533,0.003 1.09,-0.777 0,-0.96 -5.481,5.93 -1.117,13.24 0,18.24 z M 105.6,93.12 c 1.701,-0.219 4.808,0.967 3.84,-1.92 -1.79,0.132 -3.21,0.632 -3.84,1.92 z m 137.28,15.36 c -6.47,7.64 -0.47,5.24 0,0 z m -30.72,20.16 c -2.172,0.161 -4.222,-4.616 -5.76,-1.92 0.7,1.31 3.88,4.95 5.76,1.92 z m -15.36,14.4 c 12.713,-2.192 29.231,0.203 39.359,0 -2.303,-3.654 -6.82,-1.765 -4.8,-5.761 -7.295,-6.49 -19.592,0.601 -27.84,0 6.45,-8.14 -7.03,0.24 -6.72,5.76 z m -125.76,1.92 c 3.092,-0.429 5.574,-1.466 4.8,-5.761 -2.313,0.394 -2.086,-1.753 -4.8,-0.96 v 6.72 z m 6.72,0.96 c 4.483,0.963 5.366,-1.674 4.8,-5.761 h -4.8 v 5.76 z m 7.68,0.96 c 3.973,0.772 4.927,-1.474 4.8,-4.801 -2.313,0.394 -2.086,-1.753 -4.8,-0.96 v 5.76 z m 11.52,0 v -4.801 h -4.8 c 0.641,2.56 0.463,5.94 4.8,4.8 z m 1.92,0 h 4.8 c 0.67,-3.551 -1.519,-4.241 -4.8,-3.84 v 3.84 z m 11.52,0 c 0.353,-2.913 -3.127,-1.993 -4.8,-2.88 -1.22,3.78 2.26,2.86 4.8,2.88 z m 1.92,-0.96 c 2.605,-0.595 7.619,1.219 8.64,-0.96 -2.19,-1.91 -6.77,-0.38 -8.64,0.96 z m -42.24,61.44 c -0.294,-2.214 2.773,-1.066 2.88,-2.88 -2.434,-1.02 -5.472,2.02 -2.88,2.88 z"
             inkscape:connector-curvature="0" />
          <path
             id="path3339"
             d="m 60.48,148.8 c 1.09,0.183 0.533,0.963 0,0.96 16.232,5.414 48.164,4.317 67.2,-0.96 2.918,-0.922 4.008,-3.672 5.76,-5.76 6.253,11.167 -7.02,17.401 -12.48,23.039 8.543,-1.467 21.339,-10.733 18.24,-24 3.744,1.377 7.947,2.294 10.56,4.801 2.644,2.757 -0.545,5.096 -0.96,7.68 5.404,0.147 5.706,-6.127 3.84,-9.6 -6.674,-12.424 -45.639,-11.318 -58.56,-24.96 -3.368,-3.557 -3.623,-7.223 -5.76,-12.48 -8.736,-6.304 -22.466,-7.614 -34.56,-10.56 4.598,6.47 26.13,6.033 32.64,14.4 -0.716,9.523 -11.988,8.492 -19.2,11.521 5.897,3.3 19.483,-0.513 22.08,-6.721 6.626,13.534 21.354,18.967 38.4,22.08 -3.839,4.779 -14.341,3.527 -22.08,2.88 -13.511,-1.13 -29.276,-4.095 -38.4,-8.64 -1.932,-2.851 0.25,-6.956 -0.96,-8.64 -0.5,-1.421 -1.42,-2.42 -1.92,-3.84 -4.715,-4.914 -13.019,-7.901 -19.2,-13.44 -3.73,-3.342 -6.042,-9.124 -9.6,-14.4 -5.154,-7.644 -11.245,-11.825 -7.68,-24 7.807,6.529 19.007,12.191 29.76,18.24 2.267,1.275 4.954,4.045 6.72,4.8 1.63,0.696 5.482,0.253 7.68,0.96 2.482,0.798 4.699,2.539 6.72,2.88 6.177,1.042 12.429,-1.359 19.2,-0.96 5.106,0.301 10.246,3.797 15.36,3.84 6.98,0.058 14.826,-4.646 22.08,-4.8 6.699,-0.142 10.461,2.241 16.32,5.76 0.793,3.914 0.147,3.306 0,7.68 -6.322,3.224 -8.92,-3.27 -14.4,-3.84 -1.732,2.14 7.327,8.388 11.52,7.68 7.228,-1.22 5.454,-9.573 7.68,-14.4 -4.619,-3.917 -4.466,-6.849 -9.6,-9.6 -13.15,-0.665 -21.441,8.632 -32.64,6.72 -0.229,-5.641 3.768,-2.129 5.76,-2.88 7.845,-2.956 11.701,-9.618 20.16,-8.64 4.132,0.478 9.333,5.968 15.36,9.6 8.357,5.036 15.42,6.958 19.2,14.4 4.165,-1.3 9.574,3.643 11.52,7.68 4.001,-2 6.573,4.656 11.521,4.799 -7.581,-1.021 -32.172,-4.849 -29.761,12.48 4.499,-0.621 3.815,-6.425 6.721,-8.64 10.863,-2.345 24.696,-0.751 28.8,6.72 -8.045,5.075 -9.014,17.227 -22.08,17.28 2.804,-3.266 6.305,-11.15 0.96,-14.4 3.677,-3.683 12.356,-2.363 17.28,-4.8 -11.327,-4.261 -29.5,0.328 -30.721,12.479 6.495,0.734 4.199,-7.32 10.561,-6.72 4.222,12.806 -7.278,17.489 -17.28,19.2 8.363,-29.77 -32.37,-26.3 -52.8,-33.601 8.02,9.56 30.692,6.88 42.24,14.4 7.907,5.149 11.129,13.355 4.8,22.08 -18.608,8.271 -35.378,18.382 -51.84,28.8 2.855,-5.792 14.029,-11.565 16.32,-21.12 -4.079,-0.881 -4.377,5.6 -6.72,8.641 -3.174,4.119 -8.059,6.853 -11.52,9.6 -0.806,1.114 -1.266,2.574 -0.96,4.8 -9.323,3.797 -15.773,10.467 -24.96,14.4 -4.447,-0.673 -4.606,-5.634 -7.68,-7.68 5.424,2.354 19.166,0.369 21.12,-6.721 -3.629,1.843 -16.162,6.433 -22.08,3.84 -2.888,-3.826 5.812,-2.703 7.68,-4.8 5.424,-5.22 14.268,-11.859 12.48,-21.12 -5.51,8.891 -10.634,18.167 -24,19.2 -4.142,-2.683 -2.575,-9.699 -3.84,-15.359 -1.117,-5 -5.481,-12.31 0,-18.24 z m 60.48,-36.48 c -4.7,-1.7 -10.706,-2.094 -12.48,-6.72 5.187,-0.995 7.78,5.616 10.56,3.84 -0.372,-1.941 18.541,0.88 16.32,-5.76 -5.433,0.932 -11.382,4.928 -16.32,0.96 5.123,0.323 5.74,-3.86 9.6,-4.8 5.524,-1.974 11.54,4.618 13.44,0 -13.354,-4.435 -34.389,-0.672 -40.32,8.64 2.188,1.318 3.609,-2.475 3.84,0 -2.989,1.832 1.5,4.168 0.96,6.72 8.346,6.999 20.606,0.904 29.76,0.96 4.084,0.025 9.273,3.292 11.52,0 -11.169,-6.372 -36.299,5.872 -39.36,-5.76 1.18,2.66 10.44,6.4 12.48,1.92 z m -51.84,0.96 c -0.656,1.904 -5.719,-0.599 -4.8,2.879 4.143,1.946 10.474,1.101 10.56,-3.84 -1.082,-5.653 -11.875,-6.665 -17.28,-4.8 4.602,1.16 9.614,1.9 11.52,5.76 z"
             inkscape:connector-curvature="0"
             style="fill:#ffe384" />
          <path
             id="path3341"
             d="m 242.88,108.48 c -0.47,5.24 -6.47,7.64 0,0 z"
             inkscape:connector-curvature="0"
             style="fill:#ffffff" />
          <path
             id="path3343"
             d="m 203.52,137.28 c 8.248,0.601 20.545,-6.49 27.84,0 -2.021,3.996 2.497,2.106 4.8,5.761 -10.128,0.203 -26.646,-2.192 -39.359,0 -0.31,-5.52 13.17,-13.9 6.72,-5.76 z"
             inkscape:connector-curvature="0"
             style="fill:#ffffff" />
          <path
             id="path3345"
             d="m 58.56,211.2 c -2.143,3.938 -7.536,4.625 -11.52,6.721 2.792,-3.29 6.886,-5.27 11.52,-6.72 z"
             inkscape:connector-curvature="0" />
          <path
             id="path3347"
             d="m 108.48,110.4 c 3.061,11.632 28.19,-0.612 39.36,5.76 -2.247,3.292 -7.436,0.025 -11.52,0 -9.154,-0.056 -21.414,6.039 -29.76,-0.96 0.541,-2.551 -3.949,-4.888 -0.96,-6.72 -0.231,-2.475 -1.652,1.318 -3.84,0 5.932,-9.312 26.966,-13.075 40.32,-8.64 -1.9,4.618 -7.916,-1.974 -13.44,0 -3.86,0.94 -4.477,5.124 -9.6,4.8 4.938,3.968 10.887,-0.028 16.32,-0.96 2.221,6.64 -16.692,3.818 -16.32,5.76 -2.78,1.776 -5.373,-4.834 -10.56,-3.84 1.774,4.626 7.78,5.02 12.48,6.72 -2.04,4.48 -11.3,0.74 -12.48,-1.92 z"
             inkscape:connector-curvature="0" />
        </g>
      </g>
      <path
         style="fill:none;stroke:#000000;stroke-width:1px;stroke-linecap:butt;stroke-linejoin:miter;stroke-opacity:1"
         d="m 307.05202,501.55491 c 0,0 27.74567,15.72254 47.16763,18.49711 19.42197,2.77457 212.22502,7.46095 234.91329,-5.54914 22.68828,-13.01008 1.84973,-81.38726 -11.09825,-94.33524 -12.94798,-12.94798 -209.94221,-8.32371 -220.11562,1.8497 -10.17341,10.17341 -26.8208,47.16763 -13.87283,61.04046 12.94798,13.87284 12.94798,24.9711 4.62428,24.9711 -8.3237,0 -41.6185,-6.47399 -41.6185,-6.47399 z"
         id="path3381"
         inkscape:connector-curvature="0"
         transform="matrix(1.8542015,0,0,1.8542015,-238.33648,40.986215)"
         sodipodi:nodetypes="cszzsssc" />
      <text
         xml:space="preserve"
         style="font-size:44.50083542px;font-style:normal;font-weight:normal;line-height:125%;letter-spacing:0px;word-spacing:0px;fill:#000000;fill-opacity:1;stroke:none;font-family:Sans"
         x="452.75549"
         y="873.2226"
         id="text3383"
         sodipodi:linespacing="125%"><tspan
           sodipodi:role="line"
           id="tspan3385"
           x="452.75549"
           y="873.2226">電池租約到期囉。</tspan><tspan
           sodipodi:role="line"
           x="452.75549"
           y="928.84863"
           id="tspan3387">等你續約我就會</tspan><tspan
           sodipodi:role="line"
           x="452.75549"
           y="984.47467"
           id="tspan3389">幫你重啟充電功能。</tspan></text>
      <text
         xml:space="preserve"
         style="font-size:32px;font-style:normal;font-weight:normal;line-height:125%;letter-spacing:0px;word-spacing:0px;fill:#000000;fill-opacity:1;stroke:none;font-family:Sans"
         x="61.965317"
         y="52.075146"
         id="text3391"
         sodipodi:linespacing="125%"
         transform="matrix(1.8542015,0,0,1.8542015,-238.33648,40.986215)"><tspan
           sodipodi:role="line"
           id="tspan3393"
           x="61.965317"
           y="52.075146">『Renault DRM』</tspan><tspan
           sodipodi:role="line"
           x="61.965317"
           y="95.496071"
           id="tspan3032">『car loan ignition lock』</tspan></text>
    </g>
  </g>
</svg>
