<?xml version="1.0" encoding="UTF-8" standalone="no"?>
<!-- Created with Inkscape (http://www.inkscape.org/) -->

<svg
   xmlns:osb="http://www.openswatchbook.org/uri/2009/osb"
   xmlns:dc="http://purl.org/dc/elements/1.1/"
   xmlns:cc="http://creativecommons.org/ns#"
   xmlns:rdf="http://www.w3.org/1999/02/22-rdf-syntax-ns#"
   xmlns:svg="http://www.w3.org/2000/svg"
   xmlns="http://www.w3.org/2000/svg"
   xmlns:xlink="http://www.w3.org/1999/xlink"
   xmlns:sodipodi="http://sodipodi.sourceforge.net/DTD/sodipodi-0.dtd"
   xmlns:inkscape="http://www.inkscape.org/namespaces/inkscape"
   width="400"
   height="100"
   id="svg2"
   version="1.1"
   inkscape:version="0.48.3.1 r9886"
   inkscape:export-filename="/home/ckhung/1.png"
   inkscape:export-xdpi="90"
   inkscape:export-ydpi="90"
   sodipodi:docname="slat-logo.svg">
  <defs
     id="defs4">
    <linearGradient
       id="linearGradient5411">
      <stop
         style="stop-color:#ffffff;stop-opacity:0.84313726;"
         offset="0"
         id="stop5413" />
      <stop
         id="stop5421"
         offset="0.21951145"
         style="stop-color:#ffffff;stop-opacity:0.66055048;" />
      <stop
         style="stop-color:#ffffff;stop-opacity:0;"
         offset="0.43843699"
         id="stop5425" />
      <stop
         style="stop-color:#3590e3;stop-opacity:0;"
         offset="0.71845984"
         id="stop5423" />
      <stop
         style="stop-color:#000000;stop-opacity:1;"
         offset="1"
         id="stop5415" />
    </linearGradient>
    <linearGradient
       id="linearGradient5385"
       osb:paint="solid">
      <stop
         style="stop-color:#00ff00;stop-opacity:1;"
         offset="0"
         id="stop5387" />
    </linearGradient>
    <linearGradient
       inkscape:collect="always"
       xlink:href="#linearGradient5411"
       id="linearGradient5419"
       x1="117.94508"
       y1="200.59708"
       x2="69.409454"
       y2="234.50336"
       gradientUnits="userSpaceOnUse" />
  </defs>
  <sodipodi:namedview
     id="base"
     pagecolor="#ffffff"
     bordercolor="#666666"
     borderopacity="1.0"
     inkscape:pageopacity="1"
     inkscape:pageshadow="2"
     inkscape:zoom="1.4875"
     inkscape:cx="202.09761"
     inkscape:cy="80"
     inkscape:document-units="px"
     inkscape:current-layer="layer1"
     showgrid="false"
     fit-margin-top="0"
     fit-margin-left="0"
     fit-margin-right="0"
     fit-margin-bottom="0"
     inkscape:window-width="1024"
     inkscape:window-height="719"
     inkscape:window-x="-1"
     inkscape:window-y="-4"
     inkscape:window-maximized="1" />
  <metadata
     id="metadata7">
    <rdf:RDF>
      <cc:Work
         rdf:about="">
        <dc:format>image/svg+xml</dc:format>
        <dc:type
           rdf:resource="http://purl.org/dc/dcmitype/StillImage" />
        <dc:title></dc:title>
      </cc:Work>
    </rdf:RDF>
  </metadata>
  <g
     inkscape:label="Layer 1"
     inkscape:groupmode="layer"
     id="layer1"
     transform="translate(-12.670719,-83.81928)">
    <path
       sodipodi:type="arc"
       style="fill:#3590e3;fill-opacity:1;stroke:none"
       id="path3931"
       sodipodi:cx="90.510948"
       sodipodi:cy="220.58394"
       sodipodi:rx="27.250153"
       sodipodi:ry="27.250153"
       d="m 117.7611,220.58394 a 27.250153,27.250153 0 1 1 -54.500304,0 27.250153,27.250153 0 1 1 54.500304,0 z"
       transform="matrix(1.1554188,0,0,1.1554188,-41.62812,-120.46188)" />
    <text
       xml:space="preserve"
       style="font-size:27.15234184px;font-style:normal;font-variant:normal;font-weight:bold;font-stretch:normal;line-height:125%;letter-spacing:0px;word-spacing:0px;fill:#000000;fill-opacity:1;stroke:none;font-family:AR PL UMing TW;-inkscape-font-specification:AR PL UMing TW Bold"
       x="104.56774"
       y="127.81046"
       id="text2985"
       sodipodi:linespacing="125%"><tspan
         sodipodi:role="line"
         id="tspan2987"
         x="104.56774"
         y="127.81046"
         style="font-size:27.15234184px;font-style:normal;font-variant:normal;font-weight:bold;font-stretch:normal;font-family:AR PL UMing TW;-inkscape-font-specification:AR PL UMing TW Bold">中華民國軟體自由協會</tspan></text>
    <path
       style="fill:none;stroke:#000000;stroke-width:1.15541875px;stroke-linecap:butt;stroke-linejoin:miter;stroke-opacity:1"
       d="m 107.07889,134.09695 279.94111,0"
       id="path2989"
       inkscape:connector-curvature="0" />
    <path
       sodipodi:type="star"
       style="fill:#96f7f4;fill-opacity:1;stroke:none"
       id="path2991"
       sodipodi:sides="5"
       sodipodi:cx="338.00974"
       sodipodi:cy="95.118584"
       sodipodi:r1="2.3666005"
       sodipodi:r2="5.8090277"
       sodipodi:arg1="-0.76437716"
       sodipodi:arg2="-0.13605863"
       inkscape:flatsided="false"
       inkscape:rounded="0"
       inkscape:randomized="0"
       d="m 339.71798,93.480689 4.0471,0.849963 -3.66974,1.906431 0.44226,4.111677 -2.94713,-2.901011 -3.77377,1.69119 1.84831,-3.699351 -2.77458,-3.066459 4.08945,0.61468 2.05899,-3.586366 z"
       inkscape:transform-center-x="0.33450734"
       inkscape:transform-center-y="-0.30364702"
       transform="matrix(1.2571133,-0.2148808,0.2148808,1.2571133,-53.595039,87.39679)" />
    <text
       xml:space="preserve"
       style="font-size:13.06986332px;font-style:normal;font-weight:normal;line-height:125%;letter-spacing:0px;word-spacing:0px;fill:#000000;fill-opacity:1;stroke:none;font-family:Sans"
       x="106.80356"
       y="149.41197"
       id="text3761"
       sodipodi:linespacing="125%"><tspan
         sodipodi:role="line"
         id="tspan3763"
         x="106.80356"
         y="149.41197"><tspan
   style="fill:#3082cf;fill-opacity:1"
   id="tspan3815">S</tspan>oftware <tspan
   style="fill:#3082cf;fill-opacity:1"
   id="tspan3821">L</tspan>iberty <tspan
   style="fill:#3082cf;fill-opacity:1"
   id="tspan3827">A</tspan>ssociation of <tspan
   style="fill:#3082cf;fill-opacity:1"
   id="tspan3833">T</tspan>aiwan</tspan></text>
    <g
       id="g5405"
       transform="matrix(1.1554188,0,0,1.1554188,-52.30905,54.386592)">
      <path
         sodipodi:nodetypes="cczsssszczssssc"
         inkscape:connector-curvature="0"
         id="path5397"
         d="m 87.113335,68.970416 22.562415,0.116262 c 0,0 2.62945,2.64601 4.02871,5.21132 1.39927,2.56531 2.2235,4.655445 2.01505,7.99069 -0.21251,3.40022 -1.45916,5.141836 -3.68266,7.365332 -1.81193,1.811926 -4.65545,3.821634 -7.43482,4.446993 -3.38947,0.762632 -7.264375,0.755293 -9.42306,0.602651 -2.230381,-0.157712 -5.182102,-0.552614 -7.033359,-1.135818 -1.851257,-0.583204 -4.249893,-1.829298 -4.249893,-1.829298 0,0 4.305569,0.02763 6.253583,-0.138968 1.948014,-0.166599 3.613183,-0.277938 6.392553,-1.528654 2.779371,-1.250717 4.543506,-2.092189 4.030086,-5.280804 -0.44403,-2.757713 -0.625353,-3.335245 -2.848854,-6.114615 -1.781252,-2.226566 -4.655445,-4.446993 -5.628225,-5.419773 -0.97278,-0.97278 -4.981526,-4.285318 -4.981526,-4.285318 z"
         style="fill:#ffffff;fill-opacity:1;stroke:none" />
      <path
         style="fill:#ffffff;fill-opacity:1;stroke:none"
         d="m 112.39698,69.539286 -22.562421,-0.11626 c 0,0 -2.62945,-2.64601 -4.02871,-5.21132 -1.39927,-2.56531 -2.2235,-4.65545 -2.01505,-7.990695 0.21251,-3.40022 1.45916,-5.141836 3.68266,-7.365332 1.81193,-1.811926 4.65545,-3.821634 7.43482,-4.446993 3.38947,-0.762632 7.264381,-0.755293 9.423061,-0.602651 2.23038,0.157712 5.18211,0.552614 7.03336,1.135818 1.85126,0.583204 4.2499,1.829298 4.2499,1.829298 0,0 -4.30557,-0.02763 -6.25359,0.138968 -1.94801,0.166599 -3.61318,0.277938 -6.39255,1.528654 -2.77938,1.250717 -4.543511,2.092189 -4.030091,5.280804 0.444032,2.757713 0.625352,3.335249 2.848861,6.114619 1.78125,2.22656 4.65544,4.44699 5.62822,5.41977 0.97278,0.97278 4.98153,4.28532 4.98153,4.28532 z"
         id="path5403"
         inkscape:connector-curvature="0"
         sodipodi:nodetypes="cczsssszczssssc" />
    </g>
    <path
       transform="matrix(1.1554188,0,0,1.1554188,-41.62812,-120.46188)"
       d="m 117.7611,220.58394 a 27.250153,27.250153 0 1 1 -54.500304,0 27.250153,27.250153 0 1 1 54.500304,0 z"
       sodipodi:ry="27.250153"
       sodipodi:rx="27.250153"
       sodipodi:cy="220.58394"
       sodipodi:cx="90.510948"
       id="path5409"
       style="fill:url(#linearGradient5419);fill-opacity:1;stroke:none"
       sodipodi:type="arc" />
  </g>
</svg>
