<?xml version="1.0" encoding="UTF-8" standalone="no"?>
<!-- Created with Inkscape (http://www.inkscape.org/) -->

<svg
   xmlns:dc="http://purl.org/dc/elements/1.1/"
   xmlns:cc="http://creativecommons.org/ns#"
   xmlns:rdf="http://www.w3.org/1999/02/22-rdf-syntax-ns#"
   xmlns:svg="http://www.w3.org/2000/svg"
   xmlns="http://www.w3.org/2000/svg"
   xmlns:xlink="http://www.w3.org/1999/xlink"
   xmlns:sodipodi="http://sodipodi.sourceforge.net/DTD/sodipodi-0.dtd"
   xmlns:inkscape="http://www.inkscape.org/namespaces/inkscape"
   width="495.53333"
   height="383.99768"
   id="svg2167"
   sodipodi:version="0.32"
   inkscape:version="0.48.3.1 r9886"
   sodipodi:docname="uk-trip.svg"
   inkscape:output_extension="org.inkscape.output.svg.inkscape"
   version="1.1"
   inkscape:export-filename="/mnt/worksp/home/ckhung/public_html/m/13/uk-trip.png"
   inkscape:export-xdpi="90"
   inkscape:export-ydpi="90">
  <defs
     id="defs2169">
    <linearGradient
       id="linearGradient3920">
      <stop
         id="stop3922"
         offset="0"
         style="stop-color:#ffffff;stop-opacity:1;" />
      <stop
         style="stop-color:#ffffff;stop-opacity:0.75294119;"
         offset="0.78048325"
         id="stop3924" />
      <stop
         id="stop3926"
         offset="1"
         style="stop-color:#ffffff;stop-opacity:0;" />
    </linearGradient>
    <linearGradient
       id="linearGradient3801">
      <stop
         id="stop3803"
         offset="0"
         style="stop-color:#ffffff;stop-opacity:1;" />
      <stop
         style="stop-color:#ffffff;stop-opacity:0.75294119;"
         offset="0.70290273"
         id="stop3805" />
      <stop
         id="stop3807"
         offset="1"
         style="stop-color:#ffffff;stop-opacity:0;" />
    </linearGradient>
    <linearGradient
       id="linearGradient4755">
      <stop
         style="stop-color:#ffffff;stop-opacity:1;"
         offset="0"
         id="stop4757" />
      <stop
         id="stop3918"
         offset="0.5"
         style="stop-color:#ffffff;stop-opacity:0.8745098;" />
      <stop
         style="stop-color:#ffffff;stop-opacity:0;"
         offset="1"
         id="stop4759" />
    </linearGradient>
    <linearGradient
       id="linearGradient4152">
      <stop
         style="stop-color:#ffffff;stop-opacity:1;"
         offset="0"
         id="stop4154" />
      <stop
         id="stop3799"
         offset="0.5"
         style="stop-color:#ffffff;stop-opacity:0.8745098;" />
      <stop
         style="stop-color:#ffffff;stop-opacity:0;"
         offset="1"
         id="stop4156" />
    </linearGradient>
    <linearGradient
       inkscape:collect="always"
       id="linearGradient3789">
      <stop
         style="stop-color:#000000;stop-opacity:1;"
         offset="0"
         id="stop3791" />
      <stop
         style="stop-color:#000000;stop-opacity:0;"
         offset="1"
         id="stop3793" />
    </linearGradient>
    <linearGradient
       id="linearGradient3773">
      <stop
         style="stop-color:#000000;stop-opacity:1;"
         offset="0"
         id="stop3775" />
      <stop
         style="stop-color:#000000;stop-opacity:0;"
         offset="1"
         id="stop3777" />
    </linearGradient>
    <linearGradient
       id="linearGradient3763">
      <stop
         style="stop-color:#000000;stop-opacity:1;"
         offset="0"
         id="stop3765" />
      <stop
         style="stop-color:#000000;stop-opacity:0;"
         offset="1"
         id="stop3767" />
    </linearGradient>
    <clipPath
       clipPathUnits="userSpaceOnUse"
       id="clipPath3200">
      <rect
         style="fill:#ff0000;fill-opacity:1;stroke:#ff0000;stroke-width:12;stroke-miterlimit:4;stroke-opacity:1;stroke-dasharray:none;stroke-dashoffset:0"
         id="rect3202"
         width="237.14281"
         height="194.28568"
         x="622.85718"
         y="692.36218" />
    </clipPath>
    <linearGradient
       inkscape:collect="always"
       xlink:href="#linearGradient3789"
       id="linearGradient3901"
       gradientUnits="userSpaceOnUse"
       x1="715.28656"
       y1="384.57278"
       x2="804.56189"
       y2="248.84946" />
    <linearGradient
       inkscape:collect="always"
       xlink:href="#linearGradient4152"
       id="linearGradient4158"
       x1="596.11487"
       y1="248.84946"
       x2="804.56189"
       y2="248.84946"
       gradientUnits="userSpaceOnUse" />
    <linearGradient
       inkscape:collect="always"
       xlink:href="#linearGradient4152"
       id="linearGradient4558"
       gradientUnits="userSpaceOnUse"
       x1="693.21771"
       y1="387.88309"
       x2="804.56189"
       y2="248.84946" />
    <radialGradient
       inkscape:collect="always"
       xlink:href="#linearGradient3920"
       id="radialGradient4761"
       cx="344.8255"
       cy="231.72273"
       fx="344.8255"
       fy="231.72273"
       r="122.4303"
       gradientTransform="matrix(0.96832132,0.50492256,-0.40806213,0.83869821,376.02874,400.25877)"
       gradientUnits="userSpaceOnUse" />
    <radialGradient
       inkscape:collect="always"
       xlink:href="#linearGradient4755"
       id="radialGradient4765"
       gradientUnits="userSpaceOnUse"
       gradientTransform="matrix(1,0,0,0.8152373,313.03038,190.69827)"
       cx="344.8255"
       cy="231.72274"
       fx="344.8255"
       fy="231.72274"
       r="122.4303" />
    <radialGradient
       inkscape:collect="always"
       xlink:href="#linearGradient3801"
       id="radialGradient3029"
       gradientUnits="userSpaceOnUse"
       gradientTransform="matrix(1.1376057,0.00300903,-0.00369529,1.3970575,-381.80843,-41.213857)"
       cx="650.48474"
       cy="574.28546"
       fx="650.48474"
       fy="574.28546"
       r="104.22351" />
    <mask
       maskUnits="userSpaceOnUse"
       id="mask3811">
      <use
         x="0"
         y="0"
         xlink:href="#rect3783"
         id="use3813"
         transform="translate(2.2068838,-321.10151)"
         width="495.53333"
         height="383.99768" />
    </mask>
    <mask
       maskUnits="userSpaceOnUse"
       id="mask3930">
      <use
         x="0"
         y="0"
         xlink:href="#rect4753"
         id="use3932"
         transform="translate(-438.06632,-101.51663)"
         width="495.53333"
         height="383.99768" />
    </mask>
  </defs>
  <sodipodi:namedview
     id="base"
     pagecolor="#ffffff"
     bordercolor="#666666"
     borderopacity="1.0"
     gridtolerance="10000"
     guidetolerance="10"
     objecttolerance="10"
     inkscape:pageopacity="0.0"
     inkscape:pageshadow="2"
     inkscape:zoom="0.90625547"
     inkscape:cx="239.32381"
     inkscape:cy="81.31932"
     inkscape:document-units="px"
     inkscape:current-layer="layer1"
     inkscape:window-width="934"
     inkscape:window-height="539"
     inkscape:window-x="430"
     inkscape:window-y="121"
     showgrid="false"
     fit-margin-top="0"
     fit-margin-left="0"
     fit-margin-right="0"
     fit-margin-bottom="0"
     inkscape:window-maximized="0" />
  <g
     inkscape:label="Layer 1"
     inkscape:groupmode="layer"
     id="layer1"
     transform="translate(-246.82388,-196.43599)">
    <rect
       style="fill:#000000;fill-opacity:1;stroke:#ff00ff;stroke-width:1;stroke-miterlimit:4;stroke-opacity:1;stroke-dasharray:none;stroke-dashoffset:0"
       id="rect3027"
       width="518.61755"
       height="304.5499"
       x="239.09979"
       y="605.81281" />
    <g
       id="g2251"
       transform="matrix(0.67311412,0,0,0.67311412,244.58927,189.73557)">
      <path
         style="fill:#fdfcfd"
         d="m 3.3571475,295.21934 0,-285.214296 368.0714425,0 368.07144,0 0,285.214296 0,285.21429 -368.07144,0 -368.0714425,0 0,-285.21429 z"
         id="path2267"
         inkscape:connector-curvature="0" />
      <path
         style="fill:#cbcbf4"
         d="m 5.3947883,579.82646 c 0.48742,-0.32058 0.8328468,-0.81873 0.7676151,-1.10701 C 6.070279,578.31233 213.83794,413.66312 277.98981,363.30495 l 12.49211,-9.8061 15.52584,0.2147 15.52585,0.21471 0,15.06632 0,15.06632 -127.0403,96.61951 C 124.62114,533.82115 66.092777,578.005 64.430271,578.86678 c -2.84857,1.47658 -4.66197,1.56616 -31.472219,1.55471 -15.647215,-0.007 -28.0506837,-0.27444 -27.5632637,-0.59503 z M 88.101348,579.23158 C 88.339186,577.55674 319.57984,402.5366 320.87577,403.05057 c 0.86838,0.34441 1.04164,14.92295 1.04164,87.64317 0,47.97652 -0.20966,87.79475 -0.46593,88.48496 -0.42204,1.13671 -11.44371,1.25493 -116.99338,1.25493 -103.66068,0 -116.508602,-0.13273 -116.356752,-1.20205 z m 253.588072,1.00371 c -0.10228,-0.10908 -0.36135,-56.78501 -0.57571,-125.9465 L 340.72398,328.54062 172.23247,328.13949 C 79.562136,327.91887 3.6545984,327.65111 3.5490513,327.54447 c -0.250909,-0.25351 -0.250909,-77.09057 0,-77.34409 0.1055471,-0.10663 76.0130847,-0.37439 168.6834187,-0.59502 l 168.49151,-0.40112 0.39004,-119.40126 c 0.21452,-65.670689 0.47359,-119.490508 0.57572,-119.599595 0.24275,-0.2593194 65.37586,-0.2593194 65.61862,0 0.10212,0.109087 0.36119,53.928906 0.57571,119.599595 l 0.39004,119.40126 165.42106,0.40121 c 90.98158,0.22067 165.50741,0.48843 165.61295,0.59502 0.10555,0.1066 0.19191,17.50898 0.19191,38.67196 0,21.16298 -0.0864,38.56536 -0.19191,38.67195 -0.10554,0.1066 -74.63137,0.37436 -165.61295,0.59503 l -165.42106,0.40121 -0.38972,125.74817 c -0.21436,69.16149 -0.47343,125.83742 -0.57571,125.9465 -0.1023,0.10909 -14.86663,0.19834 -32.80963,0.19834 -17.94301,0 -32.70734,-0.0892 -32.80963,-0.19834 z m 84.32197,-1.05659 c -0.25627,-0.69021 -0.46594,-40.50844 -0.46594,-88.48496 0,-73.03125 0.1708,-87.29778 1.04926,-87.64618 1.29702,-0.51441 233.29902,174.52631 233.53647,176.19844 0.14913,1.05017 -13.36373,1.18763 -116.74261,1.18763 -105.89965,0 -116.95513,-0.11819 -117.37718,-1.25493 z M 597.62472,465.77285 C 520.92413,405.47297 458.05741,355.55055 457.92091,354.83414 c -0.22686,-1.19062 2.42333,-1.30256 30.83771,-1.30256 l 31.0859,0 3.70496,2.91494 c 17.99886,14.16087 214.25703,175.81573 214.99103,177.08483 0.70016,1.21058 0.95952,7.0946 0.95952,21.76833 0,17.77755 -0.14029,20.10932 -1.20984,20.10932 -0.66541,0 -63.96487,-49.33627 -140.66547,-109.63615 z M 3.3571475,438.85752 c 0,-76.19598 0.1175423,-84.40943 1.214204,-84.84438 0.6678121,-0.26486 48.1639965,-0.48156 105.5470785,-0.48156 98.87001,0 104.33052,0.0727 104.28794,1.38839 C 214.35603,356.47555 7.371268,522.42136 4.8571446,522.92177 3.376485,523.21648 3.3571475,522.13275 3.3571475,438.85752 z M 640.5786,436.90089 c -60.30689,-50.23919 -96.75751,-81.11544 -96.78167,-81.98092 -0.0367,-1.31514 5.06093,-1.38839 96.61797,-1.38839 53.1612,0 97.20311,0.2167 97.87092,0.48156 1.09629,0.4348 1.21421,8.39604 1.21421,81.98093 0,69.8479 -0.15573,81.49937 -1.08926,81.49937 -0.5991,0 -44.62357,-36.26664 -97.83217,-80.59255 z M 4.3166664,223.68785 c -0.7591278,-0.31659 -0.9595189,-17.92692 -0.9595189,-84.3223 0,-81.352053 0.043771,-83.919366 1.4292933,-83.832104 C 6.9734012,55.671182 213.58596,221.16828 213.63912,222.82489 c 0.0422,1.31598 -5.38997,1.38512 -104.15919,1.32575 C 52.167873,224.11619 4.8444018,223.90793 4.3166664,223.68785 z M 233.18114,221.96849 C 224.05014,215.12182 5.8253835,38.911321 4.7175425,37.490414 3.5846536,36.037382 3.388796,33.909686 3.3742161,22.897206 l -0.017069,-12.892162 8.3066999,0 c 6.37849,0 8.928776,0.322282 10.986591,1.388387 4.560301,2.362582 269.329982,210.447799 269.329982,211.669209 0,0.98417 -4.03674,1.15064 -27.90277,1.15064 l -27.90278,0 -2.99373,-2.24479 z m 192.87606,1.71587 c -0.69862,-0.72204 -0.62895,-21.07955 0.0757,-22.12641 1.24034,-1.84268 238.11302,-189.966178 239.19285,-189.966178 0.63812,0 1.3737,-0.357014 1.63463,-0.793364 0.30389,-0.508205 11.70123,-0.788997 31.70943,-0.781215 19.98848,0.0078 30.82043,0.283014 30.08359,0.764426 -0.63329,0.413753 -0.97871,0.922187 -0.76762,1.129855 0.29776,0.292921 -188.3107,149.832126 -255.42141,202.512216 l -12.47125,9.78959 -16.7621,0 c -9.21916,0 -16.99239,-0.23801 -17.27384,-0.52892 z m 118.50498,-0.85947 c 0.0402,-1.53182 191.516,-163.765186 193.66929,-164.091824 1.17271,-0.17789 1.26856,6.029833 1.26856,82.162334 0,74.36489 -0.1178,82.40147 -1.21421,82.83631 -0.66781,0.26487 -44.53701,0.48157 -97.48712,0.48157 -91.1906,0 -96.27099,-0.0733 -96.23652,-1.38839 z M 210.93998,94.621445 C 151.80224,49.173299 103.4137,11.542186 103.4099,10.996749 c -0.005,-0.788733 22.25939,-0.991705 108.78437,-0.991705 98.4953,0 108.83537,0.118767 109.25721,1.254933 0.25627,0.690213 0.46593,38.355161 0.46593,83.699885 l 0,82.444948 -1.72713,-0.0752 c -1.01861,-0.0444 -45.83655,-33.97387 -109.2503,-82.708175 z m 214.60547,0.338417 c 0,-45.344724 0.20967,-83.009672 0.46594,-83.699885 0.42185,-1.136205 10.80701,-1.254933 109.76896,-1.254933 83.73246,0 109.25812,0.219549 109.11112,0.938476 -0.30494,1.491252 -216.21655,166.46129 -217.86335,166.46129 -1.45563,0 -1.48267,-1.50325 -1.48267,-82.444948 z"
         id="path2265"
         inkscape:connector-curvature="0" />
      <path
         style="fill:#fea2a2"
         d="m 5.6599928,579.64027 c 0.6332825,-0.42299 0.8582706,-0.77454 0.4999737,-0.78122 -0.3582969,-0.007 63.5025585,-50.71534 141.9130135,-112.68592 l 142.56446,-112.67377 15.44808,0.21445 15.44809,0.21445 0,14.9842 0,14.9842 -127.75676,97.0929 c -70.26622,53.4011 -128.782773,97.62192 -130.036791,98.26849 -1.892492,0.97577 -7.120102,1.17352 -30.755761,1.16344 -18.668427,-0.008 -28.0791674,-0.27703 -27.3243052,-0.78122 z m 82.9521642,-0.39141 c 2.628092,-2.71626 231.435073,-175.54555 231.961933,-175.2124 0.31664,0.20023 0.57571,39.9715 0.57571,88.38061 l 0,88.01656 -116.84199,0 c -103.62869,0 -116.712344,-0.13398 -115.695653,-1.18477 z m 253.077263,0.98643 c -0.10228,-0.10908 -0.36135,-56.78501 -0.57571,-125.9465 L 340.72398,328.54062 172.23247,328.13949 C 79.562136,327.91887 3.6545984,327.65111 3.5490513,327.54447 c -0.250909,-0.25351 -0.250909,-77.09057 0,-77.34409 0.1055471,-0.10663 76.0130847,-0.37439 168.6834187,-0.59502 l 168.49151,-0.40112 0.39004,-119.40126 c 0.21452,-65.670689 0.47359,-119.490508 0.57572,-119.599595 0.24275,-0.2593194 65.37586,-0.2593194 65.61862,0 0.10212,0.109087 0.36119,53.928906 0.57571,119.599595 l 0.39004,119.40126 165.42106,0.40121 c 90.98158,0.22067 165.50741,0.48843 165.61295,0.59502 0.10555,0.1066 0.19191,17.50898 0.19191,38.67196 0,21.16298 -0.0864,38.56536 -0.19191,38.67195 -0.10554,0.1066 -74.63137,0.37436 -165.61295,0.59503 l -165.42106,0.40121 -0.38972,125.74817 c -0.21436,69.16149 -0.47343,125.83742 -0.57571,125.9465 -0.1023,0.10909 -14.86663,0.19834 -32.80963,0.19834 -17.94301,0 -32.70734,-0.0892 -32.80963,-0.19834 z m 84.62365,-87.81822 c 0,-48.40911 0.25996,-88.18262 0.57769,-88.38557 0.52433,-0.33492 230.1178,172.53276 232.74989,175.24423 0.98526,1.01498 -13.3454,1.1579 -116.10179,1.1579 l -117.22579,0 0,-88.01656 z m 171.45524,-26.74776 c -76.77957,-60.35682 -139.7109,-110.27924 -139.8474,-110.9387 -0.21823,-1.05426 3.50144,-1.19903 30.80827,-1.19903 l 31.05646,0 108.51387,88.9295 c 59.68263,48.91122 109.11068,89.70004 109.84012,90.64182 1.17778,1.52062 1.32817,3.98458 1.34333,22.0092 0.0141,16.80061 -0.1666,20.2969 -1.04918,20.2969 -0.58644,0 -63.8859,-49.38286 -140.66547,-109.73969 z M 3.3571475,438.81819 l 0,-84.49325 105.2272325,0 c 62.53956,0 105.12344,0.29156 104.97137,0.7187 -0.24569,0.69008 -209.2833623,168.2678 -209.898493,168.2678 -0.1650602,0 -0.3001095,-38.02196 -0.3001095,-84.49325 z M 642.01291,436.76002 c -53.40682,-44.53901 -97.21845,-81.30741 -97.35918,-81.70755 -0.15429,-0.43869 38.47224,-0.72753 97.29521,-0.72753 l 97.55109,0 0,81.71648 c 0,44.94406 -0.0864,81.71246 -0.19191,81.70755 -0.10554,-0.005 -43.88839,-36.44995 -97.29521,-80.98895 z M 120.69161,131.2338 C 57.213128,80.095084 4.8553875,37.699705 4.3410791,37.021844 3.6958026,36.171366 3.3984064,31.793533 3.3815602,22.897206 l -0.024413,-12.892162 8.4541818,0 c 5.340021,0 9.083783,0.365302 10.163396,0.991705 4.442852,2.577792 270.005695,211.258471 270.005695,212.171901 0,0.84479 -5.34418,1.04463 -27.93669,1.04463 l -27.93669,0 -115.41543,-92.97948 z m 305.1895,91.94581 c -0.21108,-0.56851 -0.2866,-5.64648 -0.16782,-11.28437 l 0.21597,-10.25071 118.21272,-94.25391 c 65.017,-51.839651 119.57296,-94.958535 121.23547,-95.819743 2.86522,-1.484239 4.62522,-1.562569 33.77506,-1.503199 16.91378,0.03445 30.3184,0.243448 29.78803,0.464443 -0.53037,0.220995 -0.83358,0.639077 -0.67381,0.929071 0.15977,0.289994 -60.14893,48.277847 -134.01934,106.639678 l -134.30983,106.11241 -16.83634,0 c -13.12543,0 -16.92093,-0.22783 -17.22011,-1.03367 z M 3.3571475,139.2321 l 0,-84.187808 1.9551734,1.324052 C 9.2826083,59.057038 212.54132,222.01018 212.78813,222.70234 c 0.15178,0.42564 -42.39778,0.71757 -104.58756,0.71757 l -104.8434225,0 0,-84.18781 z M 545.42135,222.69016 c 0.17929,-0.51135 181.80124,-154.466835 193.11916,-163.701321 0.76632,-0.625255 0.95952,15.849877 0.95952,81.824101 l 0,82.60697 -97.16728,0 c -58.80496,0 -97.06626,-0.28811 -96.9114,-0.72975 z M 211.76465,94.01065 C 152.65828,48.619765 103.97038,11.149507 103.5693,10.743407 103.11928,10.28776 144.63503,10.005044 211.99493,10.005044 l 109.15487,0 0,83.303202 c 0,66.132834 -0.19778,83.295794 -0.95952,83.267234 -0.52774,-0.0198 -49.31927,-37.17395 -108.42563,-82.56483 z m 214.54842,-0.644235 0,-83.361371 109.54964,0 c 91.74528,0 109.36696,0.17321 108.42563,1.065754 -2.84847,2.70084 -215.86457,165.174232 -216.85376,165.400482 -0.97807,0.2237 -1.12151,-10.40584 -1.12151,-83.104865 z"
         id="path2263"
         inkscape:connector-curvature="0" />
      <path
         style="fill:#9b9beb"
         d="M 147.78461,467.37021 290.829,354.3068 l 14.9685,0.20741 14.96849,0.20742 0.20901,13.92731 c 0.20415,13.60402 0.16851,13.96564 -1.53523,15.57903 -0.95933,0.90845 -59.36333,45.42636 -129.78668,98.9287 l -128.042426,97.27696 -28.435223,0 -28.435223,0 L 147.78461,467.37021 z M 88.612157,579.24886 c 2.628092,-2.71626 231.435073,-175.54555 231.961933,-175.2124 0.31664,0.20023 0.57571,39.9715 0.57571,88.38061 l 0,88.01656 -116.84199,0 c -103.62869,0 -116.712344,-0.13398 -115.695653,-1.18477 z M 341.68586,454.09044 341.4916,327.74726 172.42437,327.54715 3.3571475,327.34704 l 0,-38.47461 0,-38.47461 169.0672225,-0.20011 169.06723,-0.20011 0.19438,-119.99628 0.19438,-119.996276 32.61869,0 32.61869,0 0.19437,119.996276 0.19439,119.99628 165.99676,0.20014 165.99677,0.20015 0,38.47454 0,38.47453 -165.99677,0.20015 -165.99676,0.20015 -0.19426,126.34318 -0.19426,126.34319 -32.61893,0 -32.61894,0 -0.19425,-126.34319 z m 84.62721,38.32663 c 0,-48.40911 0.25996,-88.18262 0.57769,-88.38557 0.52433,-0.33492 230.1178,172.53276 232.74989,175.24423 0.98526,1.01498 -13.3454,1.1579 -116.10179,1.1579 l -117.22579,0 0,-88.01656 z m 173.06297,-26.476 C 522.60928,405.58827 459.66343,355.78485 459.49635,355.26682 c -0.23101,-0.71628 6.92828,-0.94188 29.89085,-0.94188 l 30.19462,0 109.9591,90.15109 109.95911,90.15109 0,20.52317 c 0,11.28774 -0.12332,20.52316 -0.27403,20.52316 -0.15072,0 -63.0832,-49.37957 -139.84996,-109.73238 z M 3.3571475,438.81819 l 0,-84.49325 105.2272325,0 c 62.53956,0 105.12344,0.29156 104.97137,0.7187 -0.24569,0.69008 -209.2833623,168.2678 -209.898493,168.2678 -0.1650602,0 -0.3001095,-38.02196 -0.3001095,-84.49325 z M 642.01291,436.76002 c -53.40682,-44.53901 -97.21845,-81.30741 -97.35918,-81.70755 -0.15429,-0.43869 38.47224,-0.72753 97.29521,-0.72753 l 97.55109,0 0,81.71648 c 0,44.94406 -0.0864,81.71246 -0.19191,81.70755 -0.10554,-0.005 -43.88839,-36.44995 -97.29521,-80.98895 z M 3.3571475,139.2321 l 0,-84.187808 1.9551734,1.324052 C 9.2826083,59.057038 212.54132,222.01018 212.78813,222.70234 c 0.15178,0.42564 -42.39778,0.71757 -104.58756,0.71757 l -104.8434225,0 0,-84.18781 z M 120.03453,129.7176 3.740955,36.015288 3.5304911,23.010166 3.3200272,10.005044 l 8.4290518,0 8.429051,0 135.13353,105.955496 c 74.32344,58.27551 135.13353,106.29386 135.13353,106.70743 0,0.45946 -10.52495,0.75194 -27.05854,0.75194 l -27.05856,0 -116.29356,-93.70231 z m 306.61342,92.6666 c -0.21149,-0.56964 -0.28701,-5.38915 -0.1678,-10.71003 l 0.21672,-9.67432 120.50323,-95.9974 120.50323,-95.997406 31.01722,0 31.01723,0 -11.4307,9.024387 c -6.28688,4.963414 -67.04441,52.98134 -135.01673,106.706509 l -123.58603,97.68211 -16.3359,9.3e-4 c -12.73146,7.3e-4 -16.42077,-0.2276 -16.72047,-1.03478 z m 118.7734,0.30596 c 0.17929,-0.51135 181.80124,-154.466835 193.11916,-163.701321 0.76632,-0.625255 0.95952,15.849877 0.95952,81.824101 l 0,82.60697 -97.16728,0 c -58.80496,0 -97.06626,-0.28811 -96.9114,-0.72975 z M 211.76465,94.01065 C 152.65828,48.619765 103.97038,11.149507 103.5693,10.743407 103.11928,10.28776 144.63503,10.005044 211.99493,10.005044 l 109.15487,0 0,83.303202 c 0,66.132834 -0.19778,83.295794 -0.95952,83.267234 -0.52774,-0.0198 -49.31927,-37.17395 -108.42563,-82.56483 z m 214.54842,-0.644235 0,-83.361371 109.54964,0 c 91.74528,0 109.36696,0.17321 108.42563,1.065754 -2.84847,2.70084 -215.86457,165.174232 -216.85376,165.400482 -0.97807,0.2237 -1.12151,-10.40584 -1.12151,-83.104865 z"
         id="path2261"
         inkscape:connector-curvature="0" />
      <path
         style="fill:#6969e2"
         d="M 147.78461,467.37021 290.829,354.3068 l 14.9685,0.20741 14.96849,0.20742 0.20901,13.92731 c 0.20415,13.60402 0.16851,13.96564 -1.53523,15.57903 -0.95933,0.90845 -59.36333,45.42636 -129.78668,98.9287 l -128.042426,97.27696 -28.435223,0 -28.435223,0 L 147.78461,467.37021 z M 88.812052,579.39527 c 0.770586,-0.51977 52.722308,-39.80186 115.448278,-87.29351 62.72596,-47.49166 114.51401,-86.53361 115.08453,-86.75988 0.86744,-0.34403 1.03732,13.75383 1.03732,86.08523 0,47.57316 0.20967,87.06138 0.46594,87.75159 0.42366,1.14108 -10.14479,1.2507 -116.48559,1.20828 -90.76756,-0.0362 -116.637851,-0.25824 -115.550478,-0.99171 z M 341.68586,454.09044 341.4916,327.74726 172.42437,327.54715 3.3571475,327.34704 l 0,-38.47461 0,-38.47461 169.0672225,-0.20011 169.06723,-0.20011 0.19438,-119.99628 0.19438,-119.996276 32.61869,0 32.61869,0 0.19437,119.996276 0.19439,119.99628 165.99676,0.20014 165.99677,0.20015 0,38.47454 0,38.47453 -165.99677,0.20015 -165.99676,0.20015 -0.19426,126.34318 -0.19426,126.34319 -32.61893,0 -32.61894,0 -0.19425,-126.34319 z m 84.92889,125.08826 c 0.25627,-0.69021 0.46593,-40.14023 0.46593,-87.6667 0,-47.52647 0.27908,-86.41177 0.62018,-86.41177 0.34109,0 52.29761,39.00375 115.45892,86.675 63.16131,47.67125 115.47346,87.10027 116.24922,87.62004 1.09474,0.73351 -24.85482,0.9555 -115.92485,0.99171 -106.69079,0.0424 -117.29306,-0.0672 -116.8694,-1.20828 z M 599.37604,465.94107 C 522.60928,405.58827 459.66343,355.78485 459.49635,355.26682 c -0.23101,-0.71628 6.92828,-0.94188 29.89085,-0.94188 l 30.19462,0 109.9591,90.15109 109.95911,90.15109 0,20.52317 c 0,11.28774 -0.12332,20.52316 -0.27403,20.52316 -0.15072,0 -63.0832,-49.37957 -139.84996,-109.73238 z M 3.3571475,438.88174 c 0,-76.93359 0.1116799,-84.68227 1.214204,-84.245 0.6678121,0.26487 47.7226185,0.48157 104.5662385,0.48157 101.3464,0 103.32265,0.0291 101.83812,1.4985 -0.83265,0.82418 -46.93753,37.81824 -102.45529,82.20904 C 53.002654,483.21664 6.6291069,520.45256 5.468089,521.57234 l -2.1109415,2.03596 0,-84.72656 z M 738.3486,516.8765 c -0.42218,-0.70294 -38.59184,-32.80366 -84.82146,-71.33493 -46.22962,-38.53128 -89.40774,-74.55005 -95.95137,-80.04172 l -11.89752,-9.98486 96.71899,-0.39668 c 53.19543,-0.21818 96.80696,-0.36525 96.91451,-0.32683 0.10753,0.0384 0.10753,36.81084 0,81.71648 -0.13132,54.83492 -0.44761,81.22691 -0.96315,80.36854 z M 3.3571475,139.26993 l 0,-84.319737 1.727134,1.62664 C 6.0342052,57.471486 52.235039,94.524337 107.7528,138.9165 c 55.51776,44.39218 101.62264,81.38737 102.45529,82.21154 1.48453,1.46943 -0.48419,1.49851 -101.45431,1.49851 -56.632524,0 -103.5146164,0.2167 -104.1824285,0.48156 -1.1025016,0.43727 -1.214204,-7.27555 -1.214204,-83.83818 z M 120.03453,129.7176 3.740955,36.015288 3.5304911,23.010166 3.3200272,10.005044 l 8.4290518,0 8.429051,0 135.13353,105.955496 c 74.32344,58.27551 135.13353,106.29386 135.13353,106.70743 0,0.45946 -10.52495,0.75194 -27.05854,0.75194 l -27.05856,0 -116.29356,-93.70231 z m 306.61342,92.6666 c -0.21149,-0.56964 -0.28701,-5.38915 -0.1678,-10.71003 l 0.21672,-9.67432 120.50323,-95.9974 120.50323,-95.997406 31.01722,0 31.01723,0 -11.4307,9.024387 c -6.28688,4.963414 -67.04441,52.98134 -135.01673,106.706509 l -123.58603,97.68211 -16.3359,9.3e-4 c -12.73146,7.3e-4 -16.42077,-0.2276 -16.72047,-1.03478 z m 215.78544,0.24698 -95.91521,-0.40131 4.1852,-3.65704 c 2.30187,-2.01136 45.291,-38.39954 95.53141,-80.86263 50.24041,-42.463076 91.767,-77.768336 92.28131,-78.456123 0.73686,-0.985416 0.94028,16.283275 0.95952,81.457653 0.0134,45.4895 -0.23466,82.62102 -0.5513,82.51448 -0.31665,-0.10655 -43.73756,-0.37431 -96.49093,-0.59503 z M 212.91607,94.020726 C 154.44299,49.071537 105.73781,11.868958 104.68234,11.348327 c -1.49839,-0.739109 21.95913,-0.990676 107.01569,-1.147677 59.9141,-0.110592 108.96471,-0.110592 109.00135,0 0.40993,1.237379 -0.48345,165.60786 -0.89996,165.58165 -0.31277,-0.0197 -48.41027,-36.81239 -106.88335,-81.761574 z M 426.89585,93.17358 c -0.10943,-45.524519 -0.169,-82.862334 -0.13237,-82.972921 0.0366,-0.110587 49.25995,-0.110587 109.38515,0 67.0992,0.123414 108.72563,0.482211 107.78332,0.929032 -0.84438,0.400381 -49.65233,37.529808 -108.46213,82.50984 -58.80979,44.980029 -107.25272,81.899779 -107.65095,82.043889 -0.44982,0.16278 -0.79941,-31.08681 -0.92302,-82.50984 z"
         id="path2259"
         inkscape:connector-curvature="0" />
      <path
         style="fill:#fe5a5a"
         d="M 147.78461,467.37021 290.829,354.3068 l 14.9685,0.20741 14.96849,0.20742 0.20901,13.92731 c 0.20415,13.60402 0.16851,13.96564 -1.53523,15.57903 -0.95933,0.90845 -59.36333,45.42636 -129.78668,98.9287 l -128.042426,97.27696 -28.435223,0 -28.435223,0 L 147.78461,467.37021 z M 88.178616,579.64027 c 0.260928,-0.43635 1.058526,-0.80351 1.772439,-0.81592 0.713912,-0.0124 52.593905,-38.88915 115.288865,-86.39278 l 113.99084,-86.37023 0.1953,86.39278 c 0.12812,56.6752 0.45818,86.39279 0.95952,86.39279 0.42032,0 0.76422,0.35701 0.76422,0.79336 0,0.52543 -39.41935,0.79336 -116.7228,0.79336 -77.61973,0 -116.563866,-0.26578 -116.248384,-0.79336 z M 341.68586,454.09044 341.4916,327.74726 172.42437,327.54715 3.3571475,327.34704 l 0,-38.47461 0,-38.47461 169.0672225,-0.20011 169.06723,-0.20011 0.19438,-119.99628 0.19438,-119.996276 32.61869,0 32.61869,0 0.19437,119.996276 0.19439,119.99628 165.99676,0.20014 165.99677,0.20015 0,38.47454 0,38.47453 -165.99677,0.20015 -165.99676,0.20015 -0.19426,126.34318 -0.19426,126.34319 -32.61893,0 -32.61894,0 -0.19425,-126.34319 z m 84.62721,125.54983 c 0,-0.43635 0.3439,-0.79336 0.76422,-0.79336 0.50134,0 0.8314,-29.72125 0.95952,-86.40365 l 0.19529,-86.40364 114.37465,86.38741 c 62.90606,47.51308 114.95876,86.39473 115.67268,86.40365 0.71391,0.009 1.51151,0.37324 1.77243,0.80959 0.31549,0.52759 -38.75659,0.79336 -116.63219,0.79336 -77.55933,0 -117.1066,-0.26791 -117.1066,-0.79336 z M 599.37604,465.94107 C 522.60928,405.58827 459.66343,355.78485 459.49635,355.26682 c -0.23101,-0.71628 6.92828,-0.94188 29.89085,-0.94188 l 30.19462,0 109.9591,90.15109 109.95911,90.15109 0,20.52317 c 0,11.28774 -0.12332,20.52316 -0.27403,20.52316 -0.15072,0 -63.0832,-49.37957 -139.84996,-109.73238 z M 3.3571475,438.86502 c 0,-55.83114 0.2606741,-84.54008 0.7676151,-84.54008 0.4221883,0 0.7676151,0.35572 0.7676151,0.7905 0,0.52013 35.1394203,0.8593 102.7451323,0.9917 l 102.74513,0.20121 -102.70055,82.11316 C 51.19678,483.58375 4.9614707,520.95986 4.9369538,521.47955 c -0.024517,0.51968 -0.3900029,1.16553 -0.8121912,1.43521 -0.509909,0.32571 -0.7676151,-27.89172 -0.7676151,-84.04974 z M 738.48647,516.54097 c -0.33768,-0.88748 -43.41469,-37.30288 -95.7267,-80.92311 l -95.11275,-79.30951 94.92355,-0.20146 c 73.56831,-0.15615 95.05345,-0.4187 95.50096,-1.16707 0.31757,-0.53108 0.77053,-0.766 1.00657,-0.52204 0.23604,0.24395 0.33763,37.18454 0.22574,82.09018 -0.11188,44.90563 -0.4797,80.9205 -0.81737,80.03301 z M 3.3571475,139.32335 l 0,-84.096568 2.9407493,2.975114 C 7.9153089,59.838209 54.323629,97.235397 109.4275,141.30676 l 100.18885,80.12974 -102.36198,0.20123 c -67.350302,0.1324 -102.3619923,0.4716 -102.3619923,0.99171 0,0.43476 -0.3454268,0.79047 -0.7676151,0.79047 -0.5069156,0 -0.7676151,-28.56109 -0.7676151,-84.09656 z M 120.03453,129.7176 3.740955,36.015288 3.5304911,23.010166 3.3200272,10.005044 l 8.4290518,0 8.429051,0 135.13353,105.955496 c 74.32344,58.27551 135.13353,106.29386 135.13353,106.70743 0,0.45946 -10.52495,0.75194 -27.05854,0.75194 l -27.05856,0 -116.29356,-93.70231 z m 306.61342,92.6666 c -0.21149,-0.56964 -0.28701,-5.38915 -0.1678,-10.71003 l 0.21672,-9.67432 120.50323,-95.9974 120.50323,-95.997406 31.01722,0 31.01723,0 -11.4307,9.024387 c -6.28688,4.963414 -67.04441,52.98134 -135.01673,106.706509 l -123.58603,97.68211 -16.3359,9.3e-4 c -12.73146,7.3e-4 -16.42077,-0.2276 -16.72047,-1.03478 z m 311.31685,0.24546 c 0,-0.51941 -32.49263,-0.85929 -94.80493,-0.99171 l -94.80492,-0.20145 94.79368,-80.12974 c 52.13653,-44.071363 94.79874,-80.554946 94.80493,-81.074632 0.006,-0.519686 0.35666,-1.165529 0.77885,-1.435209 0.50987,-0.325684 0.76762,27.230586 0.76762,82.066331 0,54.50886 -0.26079,82.55666 -0.76762,82.55666 -0.42219,0 -0.76761,-0.35561 -0.76761,-0.79025 z M 213.68368,93.523501 C 155.63279,48.906278 107.1795,12.173028 106.00969,11.894053 c -1.1698,-0.278974 -2.31282,-0.818127 -2.54005,-1.198118 -0.23383,-0.39104 46.91368,-0.690891 108.63351,-0.690891 72.18602,0 109.04665,0.268178 109.04665,0.793364 0,0.43635 -0.34382,0.793364 -0.76403,0.793364 -0.50074,0 -0.8314,28.094998 -0.95952,81.526971 L 319.23076,174.64571 213.68368,93.523501 z M 427.8483,93.374912 c 0,-53.993184 -0.26084,-81.78314 -0.76762,-81.78314 -0.42219,0 -0.76761,-0.357014 -0.76761,-0.793364 0,-0.525199 36.98856,-0.793364 109.43045,-0.793364 72.75817,0 109.27147,0.265872 108.95604,0.793364 -0.26092,0.43635 -1.12456,0.793364 -1.9192,0.793364 -1.08122,0 -195.66755,147.952138 -212.05351,161.233168 l -2.87855,2.33311 0,-81.783138 z"
         id="path2257"
         inkscape:connector-curvature="0" />
      <path
         style="fill:#4e4ede"
         d="M 7.195223,578.98572 C 8.6728821,578.21821 73.22439,527.52636 150.64302,466.33714 l 140.76114,-111.25311 14.29711,0.21547 14.29711,0.21549 0.20939,13.53199 0.20939,13.532 -128.90082,97.93562 c -70.89545,53.8646 -128.848663,98.29264 -128.78492,98.72899 0.07517,0.51454 -10.135504,0.85385 -29.053476,0.96547 -28.2858309,0.1669 -29.0879949,0.12985 -26.482721,-1.22334 z m 80.983393,0.65455 c 0.260928,-0.43635 1.058526,-0.80351 1.772439,-0.81592 0.713912,-0.0124 52.593905,-38.88915 115.288865,-86.39278 l 113.99084,-86.37023 0.1953,86.39278 c 0.12812,56.6752 0.45818,86.39279 0.95952,86.39279 0.42032,0 0.76422,0.35701 0.76422,0.79336 0,0.52543 -39.41935,0.79336 -116.7228,0.79336 -77.61973,0 -116.563866,-0.26578 -116.248384,-0.79336 z m 254.080594,-125.94648 0,-126.7399 -169.45104,0 -169.4510445,0 0,-38.08146 0,-38.08147 169.4510445,0 169.45104,0 0,-120.39298 0,-120.392983 32.23984,0 32.23983,0 0,120.392983 0,120.39298 166.38058,0 166.38059,0 0,38.08147 0,38.08146 -166.38059,0 -166.38058,0 0,126.7399 0,126.73988 -32.23983,0 -32.23984,0 0,-126.73988 z m 84.05386,125.94648 c 0,-0.43635 0.3439,-0.79336 0.76422,-0.79336 0.50134,0 0.8314,-29.72125 0.95952,-86.40365 l 0.19529,-86.40364 114.37465,86.38741 c 62.90606,47.51308 114.95876,86.39473 115.67268,86.40365 0.71391,0.009 1.51151,0.37324 1.77243,0.80959 0.31549,0.52759 -38.75659,0.79336 -116.63219,0.79336 -77.55933,0 -117.1066,-0.26791 -117.1066,-0.79336 z M 737.9648,574.32129 C 737.33151,573.40804 675.32741,524.37918 600.17789,465.36827 525.02837,406.35735 462.86114,357.41028 462.02849,356.597 c -1.47858,-1.44419 -0.83129,-1.47869 27.73725,-1.47869 l 29.25115,0 109.26569,89.5848 c 60.09612,49.27165 109.53456,89.41306 109.86318,89.20315 1.21776,-0.77787 1.37676,2.1835 1.17592,21.90256 -0.1851,18.17429 -0.31954,20.00841 -1.35688,18.51247 z M 3.3571475,438.86502 c 0,-55.83114 0.2606741,-84.54008 0.7676151,-84.54008 0.4221883,0 0.7676151,0.35572 0.7676151,0.7905 0,0.52013 35.1394203,0.8593 102.7451323,0.9917 l 102.74513,0.20121 -102.70055,82.11316 C 51.19678,483.58375 4.9614707,520.95986 4.9369538,521.47955 c -0.024517,0.51968 -0.3900029,1.16553 -0.8121912,1.43521 -0.509909,0.32571 -0.7676151,-27.89172 -0.7676151,-84.04974 z M 738.48647,516.54097 c -0.33768,-0.88748 -43.41469,-37.30288 -95.7267,-80.92311 l -95.11275,-79.30951 94.92355,-0.20146 c 73.56831,-0.15615 95.05345,-0.4187 95.50096,-1.16707 0.31757,-0.53108 0.77053,-0.766 1.00657,-0.52204 0.23604,0.24395 0.33763,37.18454 0.22574,82.09018 -0.11188,44.90563 -0.4797,80.9205 -0.81737,80.03301 z M 3.3571475,139.32335 l 0,-84.096568 2.9407493,2.975114 C 7.9153089,59.838209 54.323629,97.235397 109.4275,141.30676 l 100.18885,80.12974 -102.36198,0.20123 c -67.350302,0.1324 -102.3619923,0.4716 -102.3619923,0.99171 0,0.43476 -0.3454268,0.79047 -0.7676151,0.79047 -0.5069156,0 -0.7676151,-28.56109 -0.7676151,-84.09656 z M 737.9648,222.62966 c 0,-0.51941 -32.49263,-0.85929 -94.80493,-0.99171 l -94.80492,-0.20145 94.79368,-80.12974 c 52.13653,-44.071363 94.79874,-80.554946 94.80493,-81.074632 0.006,-0.519686 0.35666,-1.165529 0.77885,-1.435209 0.50987,-0.325684 0.76762,27.230586 0.76762,82.066331 0,54.50886 -0.26079,82.55666 -0.76762,82.55666 -0.42219,0 -0.76761,-0.35561 -0.76761,-0.79025 z M 121.20962,129.42659 C 57.592522,78.166622 5.1368936,36.306763 4.6415605,36.404688 3.9880839,36.533876 3.6831726,32.929279 3.53038,23.268543 L 3.3198049,9.9543548 12.357953,10.17804 c 5.478122,0.135579 8.989025,0.536183 8.913433,1.01705 -0.06859,0.43635 59.978882,47.913465 133.438834,105.5047 73.45996,57.59123 133.72709,104.98481 133.92695,105.31905 0.19987,0.33424 -11.36439,0.60771 -25.69834,0.60771 l -26.06175,0 -115.66746,-93.19996 z m 306.38281,92.67105 c -0.28146,-0.2909 -0.51175,-4.72364 -0.51175,-9.85053 l 0,-9.32161 118.78844,-94.56067 C 611.20276,56.356468 665.36138,12.949365 666.22162,11.904606 l 1.56407,-1.899562 31.05957,0.03161 c 30.19406,0.03073 30.98471,0.07063 28.37293,1.431841 -1.47766,0.770125 -62.3924,48.595738 -135.3661,106.279145 l -132.67944,104.87891 -15.53424,0 c -8.54383,0 -15.76453,-0.23801 -16.04598,-0.52891 z M 213.68368,93.523501 C 155.63279,48.906278 107.1795,12.173028 106.00969,11.894053 c -1.1698,-0.278974 -2.31282,-0.818127 -2.54005,-1.198118 -0.23383,-0.39104 46.91368,-0.690891 108.63351,-0.690891 72.18602,0 109.04665,0.268178 109.04665,0.793364 0,0.43635 -0.34382,0.793364 -0.76403,0.793364 -0.50074,0 -0.8314,28.094998 -0.95952,81.526971 L 319.23076,174.64571 213.68368,93.523501 z M 427.8483,93.374912 c 0,-53.993184 -0.26084,-81.78314 -0.76762,-81.78314 -0.42219,0 -0.76761,-0.357014 -0.76761,-0.793364 0,-0.525199 36.98856,-0.793364 109.43045,-0.793364 72.75817,0 109.27147,0.265872 108.95604,0.793364 -0.26092,0.43635 -1.12456,0.793364 -1.9192,0.793364 -1.08122,0 -195.66755,147.952138 -212.05351,161.233168 l -2.87855,2.33311 0,-81.783138 z"
         id="path2255"
         inkscape:connector-curvature="0" />
      <path
         style="fill:#fe0101"
         d="M 7.195223,578.98572 C 8.6728821,578.21821 73.22439,527.52636 150.64302,466.33714 l 140.76114,-111.25311 14.29711,0.21547 14.29711,0.21549 0.20939,13.53199 0.20939,13.532 -128.90082,97.93562 c -70.89545,53.8646 -128.848663,98.29264 -128.78492,98.72899 0.07517,0.51454 -10.135504,0.85385 -29.053476,0.96547 -28.2858309,0.1669 -29.0879949,0.12985 -26.482721,-1.22334 z m 335.063987,-125.29193 0,-126.7399 -169.45104,0 -169.4510445,0 0,-38.08146 0,-38.08147 169.4510445,0 169.45104,0 0,-120.39298 0,-120.392983 32.23984,0 32.23983,0 0,120.392983 0,120.39298 166.38058,0 166.38059,0 0,38.08147 0,38.08146 -166.38059,0 -166.38058,0 0,126.7399 0,126.73988 -32.23983,0 -32.23984,0 0,-126.73988 z M 737.9648,574.32129 C 737.33151,573.40804 675.32741,524.37918 600.17789,465.36827 525.02837,406.35735 462.86114,357.41028 462.02849,356.597 c -1.47858,-1.44419 -0.83129,-1.47869 27.73725,-1.47869 l 29.25115,0 109.26569,89.5848 c 60.09612,49.27165 109.53456,89.41306 109.86318,89.20315 1.21776,-0.77787 1.37676,2.1835 1.17592,21.90256 -0.1851,18.17429 -0.31954,20.00841 -1.35688,18.51247 z M 121.20962,129.42659 C 57.592522,78.166622 5.1368936,36.306763 4.6415605,36.404688 3.9880839,36.533876 3.6831726,32.929279 3.53038,23.268543 L 3.3198049,9.9543548 12.357953,10.17804 c 5.478122,0.135579 8.989025,0.536183 8.913433,1.01705 -0.06859,0.43635 59.978882,47.913465 133.438834,105.5047 73.45996,57.59123 133.72709,104.98481 133.92695,105.31905 0.19987,0.33424 -11.36439,0.60771 -25.69834,0.60771 l -26.06175,0 -115.66746,-93.19996 z m 306.38281,92.67105 c -0.28146,-0.2909 -0.51175,-4.72364 -0.51175,-9.85053 l 0,-9.32161 118.78844,-94.56067 C 611.20276,56.356468 665.36138,12.949365 666.22162,11.904606 l 1.56407,-1.899562 31.05957,0.03161 c 30.19406,0.03073 30.98471,0.07063 28.37293,1.431841 -1.47766,0.770125 -62.3924,48.595738 -135.3661,106.279145 l -132.67944,104.87891 -15.53424,0 c -8.54383,0 -15.76453,-0.23801 -16.04598,-0.52891 z"
         id="path2253"
         inkscape:connector-curvature="0" />
    </g>
    <image
       y="293.37149"
       x="259.6839"
       id="image4166"
       xlink:href="file:///home/ckhung/public_html/m/13/nessie.jpg"
       height="274"
       width="200"
       style="fill:none"
       mask="url(#mask3811)" />
    <rect
       style="fill:url(#radialGradient3029);fill-opacity:1;stroke:#ff00ff;stroke-width:1;stroke-miterlimit:4;stroke-opacity:1;stroke-dasharray:none;stroke-dashoffset:0"
       id="rect3783"
       width="207.44702"
       height="281.37762"
       x="254.54796"
       y="613.53693" />
    <image
       y="439.52719"
       x="11.4926"
       id="image3906"
       xlink:href="file:///home/ckhung/public_html/m/13/tux-telescope.jpg"
       height="399"
       width="600"
       clip-path="none"
       transform="translate(424.82502,-203.03326)"
       mask="url(#mask3930)" />
    <rect
       style="fill:url(#radialGradient4761);fill-opacity:1;stroke:#ff00ff;stroke-width:1.05300379000000000;stroke-miterlimit:4;stroke-opacity:1;stroke-dasharray:none;stroke-dashoffset:0"
       id="rect4753"
       width="243.80757"
       height="204.37166"
       x="495.12476"
       y="662.11499" />
  </g>
  <metadata
     id="metadata15">
    <rdf:RDF>
      <cc:Work>
        <dc:format>image/svg+xml</dc:format>
        <dc:type
           rdf:resource="http://purl.org/dc/dcmitype/StillImage" />
        <cc:license
           rdf:resource="http://creativecommons.org/licenses/publicdomain/" />
        <dc:publisher>
          <cc:Agent
             rdf:about="http://openclipart.org/">
            <dc:title>Open Clip Art Library</dc:title>
          </cc:Agent>
        </dc:publisher>
        <dc:title>UK Flag</dc:title>
        <dc:date>2007-10-16T20:32:27</dc:date>
        <dc:description>UK Flag.  Inkscape</dc:description>
        <dc:source>http://openclipart.org/detail/7069/uk-flag-by-panamag</dc:source>
        <dc:creator>
          <cc:Agent>
            <dc:title>PanamaG</dc:title>
          </cc:Agent>
        </dc:creator>
        <dc:subject>
          <rdf:Bag>
            <rdf:li>britain</rdf:li>
            <rdf:li>britain</rdf:li>
            <rdf:li>clip art</rdf:li>
            <rdf:li>clipart</rdf:li>
            <rdf:li>flag</rdf:li>
            <rdf:li>flag</rdf:li>
            <rdf:li>image</rdf:li>
            <rdf:li>media</rdf:li>
            <rdf:li>public domain</rdf:li>
            <rdf:li>svg</rdf:li>
            <rdf:li>united kingdom</rdf:li>
            <rdf:li>united kingdom</rdf:li>
          </rdf:Bag>
        </dc:subject>
      </cc:Work>
      <cc:License
         rdf:about="http://creativecommons.org/licenses/publicdomain/">
        <cc:permits
           rdf:resource="http://creativecommons.org/ns#Reproduction" />
        <cc:permits
           rdf:resource="http://creativecommons.org/ns#Distribution" />
        <cc:permits
           rdf:resource="http://creativecommons.org/ns#DerivativeWorks" />
      </cc:License>
    </rdf:RDF>
  </metadata>
</svg>
