<?xml version="1.0" encoding="UTF-8" standalone="no"?>
<!DOCTYPE svg PUBLIC "-//W3C//DTD SVG 1.1//EN"
 "http://www.w3.org/Graphics/SVG/1.1/DTD/svg11.dtd">
<!-- Generated by graphviz version 2.43.0 (0)
 -->
<!-- Title: 網路爬蟲： 何時使用哪個工具？ Pages: 1 -->
<svg width="435pt" height="572pt"
 viewBox="0.00 0.00 434.70 572.17" xmlns="http://www.w3.org/2000/svg" xmlns:xlink="http://www.w3.org/1999/xlink">
<g id="graph0" class="graph" transform="scale(1 1) rotate(0) translate(4 568.17)">
<title>網路爬蟲： 何時使用哪個工具？</title>
<polygon fill="white" stroke="transparent" points="-4,4 -4,-568.17 430.7,-568.17 430.7,4 -4,4"/>
<!-- javascript -->
<g id="node1" class="node">
<title>javascript</title>
<polygon fill="none" stroke="black" points="88,-564.17 0,-526.17 88,-488.17 176,-526.17 88,-564.17"/>
<text text-anchor="middle" x="88" y="-529.97" font-family="Times,serif" font-size="14.00">不開 js</text>
<text text-anchor="middle" x="88" y="-514.97" font-family="Times,serif" font-size="14.00">可以看嗎？</text>
</g>
<!-- text_browser -->
<g id="node2" class="node">
<title>text_browser</title>
<ellipse fill="none" stroke="black" cx="72" cy="-389.08" rx="69.09" ry="48.17"/>
<text text-anchor="middle" x="72" y="-407.88" font-family="Times,serif" font-size="14.00">wget、curl</text>
<text text-anchor="middle" x="72" y="-392.88" font-family="Times,serif" font-size="14.00">lynx、w3m</text>
<text text-anchor="middle" x="72" y="-377.88" font-family="Times,serif" font-size="14.00">(可能需要設</text>
<text text-anchor="middle" x="72" y="-362.88" font-family="Times,serif" font-size="14.00">user agent)</text>
</g>
<!-- javascript&#45;&gt;text_browser -->
<g id="edge1" class="edge">
<title>javascript&#45;&gt;text_browser</title>
<path fill="none" stroke="black" d="M83.8,-489.67C82.26,-476.72 80.48,-461.71 78.78,-447.34"/>
<polygon fill="black" stroke="black" points="82.21,-446.55 77.56,-437.03 75.26,-447.37 82.21,-446.55"/>
<text text-anchor="middle" x="86.5" y="-458.97" font-family="Times,serif" font-size="14.00">y</text>
</g>
<!-- volume -->
<g id="node3" class="node">
<title>volume</title>
<polygon fill="none" stroke="black" points="240,-407.08 159.23,-389.08 240,-371.08 320.77,-389.08 240,-407.08"/>
<text text-anchor="middle" x="240" y="-385.38" font-family="Times,serif" font-size="14.00">量很大嗎？</text>
</g>
<!-- javascript&#45;&gt;volume -->
<g id="edge2" class="edge">
<title>javascript&#45;&gt;volume</title>
<path fill="none" stroke="black" d="M116.23,-500.07C145.18,-474.35 189.66,-434.82 216.68,-410.81"/>
<polygon fill="black" stroke="black" points="219.31,-413.15 224.46,-403.89 214.66,-407.92 219.31,-413.15"/>
<text text-anchor="middle" x="169" y="-458.97" font-family="Times,serif" font-size="14.00">n</text>
</g>
<!-- dev_mode -->
<g id="node4" class="node">
<title>dev_mode</title>
<ellipse fill="none" stroke="black" cx="197" cy="-252" rx="62.45" ry="26.74"/>
<text text-anchor="middle" x="197" y="-255.8" font-family="Times,serif" font-size="14.00">瀏覽器的</text>
<text text-anchor="middle" x="197" y="-240.8" font-family="Times,serif" font-size="14.00">開發者模式</text>
</g>
<!-- volume&#45;&gt;dev_mode -->
<g id="edge3" class="edge">
<title>volume&#45;&gt;dev_mode</title>
<path fill="none" stroke="black" d="M234.9,-372.06C228.36,-351.52 216.84,-315.33 208.21,-288.22"/>
<polygon fill="black" stroke="black" points="211.55,-287.16 205.18,-278.69 204.88,-289.28 211.55,-287.16"/>
<text text-anchor="middle" x="224" y="-311.8" font-family="Times,serif" font-size="14.00">n</text>
</g>
<!-- graphic_only -->
<g id="node5" class="node">
<title>graphic_only</title>
<polygon fill="none" stroke="black" points="336,-290 277,-252 336,-214 395,-252 336,-290"/>
<text text-anchor="middle" x="336" y="-255.8" font-family="Times,serif" font-size="14.00">只需要</text>
<text text-anchor="middle" x="336" y="-240.8" font-family="Times,serif" font-size="14.00">截圖？</text>
</g>
<!-- volume&#45;&gt;graphic_only -->
<g id="edge4" class="edge">
<title>volume&#45;&gt;graphic_only</title>
<path fill="none" stroke="black" d="M250.46,-373.37C265.12,-352.73 292.22,-314.61 312,-286.78"/>
<polygon fill="black" stroke="black" points="314.94,-288.68 317.88,-278.5 309.23,-284.62 314.94,-288.68"/>
<text text-anchor="middle" x="301.5" y="-311.8" font-family="Times,serif" font-size="14.00">y</text>
</g>
<!-- language -->
<g id="node6" class="node">
<title>language</title>
<polygon fill="none" stroke="black" points="248,-163 189,-125 248,-87 307,-125 248,-163"/>
<text text-anchor="middle" x="248" y="-128.8" font-family="Times,serif" font-size="14.00">偏好的</text>
<text text-anchor="middle" x="248" y="-113.8" font-family="Times,serif" font-size="14.00">語言？</text>
</g>
<!-- graphic_only&#45;&gt;language -->
<g id="edge6" class="edge">
<title>graphic_only&#45;&gt;language</title>
<path fill="none" stroke="black" d="M317.98,-225.4C304.63,-206.44 286.32,-180.43 271.77,-159.77"/>
<polygon fill="black" stroke="black" points="274.61,-157.73 266,-151.56 268.89,-161.75 274.61,-157.73"/>
<text text-anchor="middle" x="303" y="-184.8" font-family="Times,serif" font-size="14.00">n</text>
</g>
<!-- cutycapt -->
<g id="node7" class="node">
<title>cutycapt</title>
<ellipse fill="none" stroke="black" cx="376" cy="-125" rx="50.89" ry="18"/>
<text text-anchor="middle" x="376" y="-121.3" font-family="Times,serif" font-size="14.00">cutycapt</text>
</g>
<!-- graphic_only&#45;&gt;cutycapt -->
<g id="edge5" class="edge">
<title>graphic_only&#45;&gt;cutycapt</title>
<path fill="none" stroke="black" d="M345.89,-220.1C352.51,-199.42 361.13,-172.46 367.45,-152.71"/>
<polygon fill="black" stroke="black" points="370.81,-153.69 370.53,-143.1 364.15,-151.56 370.81,-153.69"/>
<text text-anchor="middle" x="363.5" y="-184.8" font-family="Times,serif" font-size="14.00">y</text>
</g>
<!-- selenium -->
<g id="node8" class="node">
<title>selenium</title>
<ellipse fill="none" stroke="black" cx="184" cy="-18" rx="52.79" ry="18"/>
<text text-anchor="middle" x="184" y="-14.3" font-family="Times,serif" font-size="14.00">selenium</text>
</g>
<!-- language&#45;&gt;selenium -->
<g id="edge7" class="edge">
<title>language&#45;&gt;selenium</title>
<path fill="none" stroke="black" d="M231.68,-97.23C221.84,-81.08 209.36,-60.61 199.64,-44.66"/>
<polygon fill="black" stroke="black" points="202.47,-42.58 194.28,-35.86 196.49,-46.22 202.47,-42.58"/>
<text text-anchor="middle" x="240" y="-57.8" font-family="Times,serif" font-size="14.00">python</text>
</g>
<!-- puppeteer -->
<g id="node9" class="node">
<title>puppeteer</title>
<ellipse fill="none" stroke="black" cx="313" cy="-18" rx="58.49" ry="18"/>
<text text-anchor="middle" x="313" y="-14.3" font-family="Times,serif" font-size="14.00">puppeteer</text>
</g>
<!-- language&#45;&gt;puppeteer -->
<g id="edge8" class="edge">
<title>language&#45;&gt;puppeteer</title>
<path fill="none" stroke="black" d="M264.4,-97.5C274.4,-81.35 287.12,-60.81 297.03,-44.79"/>
<polygon fill="black" stroke="black" points="300.22,-46.3 302.51,-35.95 294.27,-42.61 300.22,-46.3"/>
<text text-anchor="middle" x="326.5" y="-57.8" font-family="Times,serif" font-size="14.00">javascript</text>
</g>
</g>
</svg>
