<?xml version="1.0" encoding="UTF-8" standalone="no"?>
<!DOCTYPE svg PUBLIC "-//W3C//DTD SVG 1.1//EN"
 "http://www.w3.org/Graphics/SVG/1.1/DTD/svg11.dtd">
<!-- Generated by graphviz version 2.43.0 (0)
 -->
<!-- Title: 網路爬蟲： 何時使用哪個工具？ Pages: 1 -->
<svg width="433pt" height="445pt"
 viewBox="0.00 0.00 433.49 445.17" xmlns="http://www.w3.org/2000/svg" xmlns:xlink="http://www.w3.org/1999/xlink">
<g id="graph0" class="graph" transform="scale(1 1) rotate(0) translate(4 441.17)">
<title>網路爬蟲： 何時使用哪個工具？</title>
<polygon fill="white" stroke="transparent" points="-4,4 -4,-441.17 429.49,-441.17 429.49,4 -4,4"/>
<!-- javascript -->
<g id="node1" class="node">
<title>javascript</title>
<polygon fill="none" stroke="black" points="88,-437.17 0,-399.17 88,-361.17 176,-399.17 88,-437.17"/>
<text text-anchor="middle" x="88" y="-402.97" font-family="Times,serif" font-size="14.00">不開 js</text>
<text text-anchor="middle" x="88" y="-387.97" font-family="Times,serif" font-size="14.00">可以看嗎？</text>
</g>
<!-- text_browser -->
<g id="node2" class="node">
<title>text_browser</title>
<ellipse fill="none" stroke="black" cx="72" cy="-262.08" rx="36.54" ry="48.17"/>
<text text-anchor="middle" x="72" y="-280.88" font-family="Times,serif" font-size="14.00">wget</text>
<text text-anchor="middle" x="72" y="-265.88" font-family="Times,serif" font-size="14.00">curl</text>
<text text-anchor="middle" x="72" y="-250.88" font-family="Times,serif" font-size="14.00">lynx</text>
<text text-anchor="middle" x="72" y="-235.88" font-family="Times,serif" font-size="14.00">w3m</text>
</g>
<!-- javascript&#45;&gt;text_browser -->
<g id="edge1" class="edge">
<title>javascript&#45;&gt;text_browser</title>
<path fill="none" stroke="black" d="M83.8,-362.67C82.24,-349.53 80.43,-334.27 78.71,-319.71"/>
<polygon fill="black" stroke="black" points="82.18,-319.29 77.53,-309.78 75.23,-320.12 82.18,-319.29"/>
<text text-anchor="middle" x="86.5" y="-331.97" font-family="Times,serif" font-size="14.00">y</text>
</g>
<!-- volume -->
<g id="node3" class="node">
<title>volume</title>
<polygon fill="none" stroke="black" points="208,-280.08 127.23,-262.08 208,-244.08 288.77,-262.08 208,-280.08"/>
<text text-anchor="middle" x="208" y="-258.38" font-family="Times,serif" font-size="14.00">量很大嗎？</text>
</g>
<!-- javascript&#45;&gt;volume -->
<g id="edge2" class="edge">
<title>javascript&#45;&gt;volume</title>
<path fill="none" stroke="black" d="M112,-371.16C134.39,-345.95 167.4,-308.79 188.29,-285.27"/>
<polygon fill="black" stroke="black" points="191.11,-287.36 195.14,-277.56 185.88,-282.71 191.11,-287.36"/>
<text text-anchor="middle" x="153" y="-331.97" font-family="Times,serif" font-size="14.00">n</text>
</g>
<!-- dev_mode -->
<g id="node4" class="node">
<title>dev_mode</title>
<ellipse fill="none" stroke="black" cx="165" cy="-125" rx="62.45" ry="26.74"/>
<text text-anchor="middle" x="165" y="-128.8" font-family="Times,serif" font-size="14.00">瀏覽器的</text>
<text text-anchor="middle" x="165" y="-113.8" font-family="Times,serif" font-size="14.00">開發者模式</text>
</g>
<!-- volume&#45;&gt;dev_mode -->
<g id="edge3" class="edge">
<title>volume&#45;&gt;dev_mode</title>
<path fill="none" stroke="black" d="M202.9,-245.06C196.36,-224.52 184.84,-188.33 176.21,-161.22"/>
<polygon fill="black" stroke="black" points="179.55,-160.16 173.18,-151.69 172.88,-162.28 179.55,-160.16"/>
<text text-anchor="middle" x="192" y="-184.8" font-family="Times,serif" font-size="14.00">n</text>
</g>
<!-- graphic_only -->
<g id="node5" class="node">
<title>graphic_only</title>
<polygon fill="none" stroke="black" points="304,-163 245,-125 304,-87 363,-125 304,-163"/>
<text text-anchor="middle" x="304" y="-128.8" font-family="Times,serif" font-size="14.00">只需要</text>
<text text-anchor="middle" x="304" y="-113.8" font-family="Times,serif" font-size="14.00">截圖？</text>
</g>
<!-- volume&#45;&gt;graphic_only -->
<g id="edge4" class="edge">
<title>volume&#45;&gt;graphic_only</title>
<path fill="none" stroke="black" d="M218.46,-246.37C233.12,-225.73 260.22,-187.61 280,-159.78"/>
<polygon fill="black" stroke="black" points="282.94,-161.68 285.88,-151.5 277.23,-157.62 282.94,-161.68"/>
<text text-anchor="middle" x="269.5" y="-184.8" font-family="Times,serif" font-size="14.00">y</text>
</g>
<!-- cutycapt -->
<g id="node6" class="node">
<title>cutycapt</title>
<ellipse fill="none" stroke="black" cx="240" cy="-18" rx="50.89" ry="18"/>
<text text-anchor="middle" x="240" y="-14.3" font-family="Times,serif" font-size="14.00">cutycapt</text>
</g>
<!-- graphic_only&#45;&gt;cutycapt -->
<g id="edge5" class="edge">
<title>graphic_only&#45;&gt;cutycapt</title>
<path fill="none" stroke="black" d="M287.68,-97.23C277.84,-81.08 265.36,-60.61 255.64,-44.66"/>
<polygon fill="black" stroke="black" points="258.47,-42.58 250.28,-35.86 252.49,-46.22 258.47,-42.58"/>
<text text-anchor="middle" x="275.5" y="-57.8" font-family="Times,serif" font-size="14.00">y</text>
</g>
<!-- puppeteer -->
<g id="node7" class="node">
<title>puppeteer</title>
<ellipse fill="none" stroke="black" cx="367" cy="-18" rx="58.49" ry="18"/>
<text text-anchor="middle" x="367" y="-14.3" font-family="Times,serif" font-size="14.00">puppeteer</text>
</g>
<!-- graphic_only&#45;&gt;puppeteer -->
<g id="edge6" class="edge">
<title>graphic_only&#45;&gt;puppeteer</title>
<path fill="none" stroke="black" d="M320.06,-97.23C329.75,-81.08 342.03,-60.61 351.6,-44.66"/>
<polygon fill="black" stroke="black" points="354.74,-46.24 356.88,-35.86 348.74,-42.64 354.74,-46.24"/>
<text text-anchor="middle" x="349" y="-57.8" font-family="Times,serif" font-size="14.00">n</text>
</g>
</g>
</svg>
