<?xml version="1.0" encoding="UTF-8" standalone="no"?>
<!DOCTYPE svg PUBLIC "-//W3C//DTD SVG 1.1//EN"
 "http://www.w3.org/Graphics/SVG/1.1/DTD/svg11.dtd">
<!-- Generated by graphviz version 2.43.0 (0)
 -->
<!-- Title: 頭腦爭霸戰 Pages: 1 -->
<svg width="1337pt" height="1092pt"
 viewBox="0.00 0.00 1337.49 1091.61" xmlns="http://www.w3.org/2000/svg" xmlns:xlink="http://www.w3.org/1999/xlink">
<g id="graph0" class="graph" transform="scale(1 1) rotate(0) translate(4 1087.61)">
<title>頭腦爭霸戰</title>
<polygon fill="white" stroke="transparent" points="-4,4 -4,-1087.61 1333.49,-1087.61 1333.49,4 -4,4"/>
<!-- social_motivation -->
<g id="node1" class="node">
<title>social_motivation</title>
<ellipse fill="#f0c0ff" stroke="black" cx="707.23" cy="-742.13" rx="48.19" ry="18"/>
<text text-anchor="middle" x="707.23" y="-738.43" font-family="Times,serif" font-size="14.00">社交意圖</text>
</g>
<!-- attention_scarcity -->
<g id="node11" class="node">
<title>attention_scarcity</title>
<ellipse fill="none" stroke="black" cx="593.23" cy="-670.13" rx="57.39" ry="18"/>
<text text-anchor="middle" x="593.23" y="-666.43" font-family="Times,serif" font-size="14.00">注意力稀有</text>
</g>
<!-- social_motivation&#45;&gt;attention_scarcity -->
<g id="edge12" class="edge">
<title>social_motivation&#45;&gt;attention_scarcity</title>
<path fill="none" stroke="black" d="M683.33,-726.45C666.94,-716.39 644.98,-702.9 626.83,-691.76"/>
<polygon fill="black" stroke="black" points="628.63,-688.76 618.28,-686.51 624.97,-694.72 628.63,-688.76"/>
</g>
<!-- social_media -->
<g id="node12" class="node">
<title>social_media</title>
<ellipse fill="none" stroke="black" cx="873.23" cy="-670.13" rx="48.19" ry="18"/>
<text text-anchor="middle" x="873.23" y="-666.43" font-family="Times,serif" font-size="14.00">社群媒體</text>
</g>
<!-- social_motivation&#45;&gt;social_media -->
<g id="edge14" class="edge">
<title>social_motivation&#45;&gt;social_media</title>
<path fill="none" stroke="black" d="M738.06,-728.12C764.85,-716.83 803.83,-700.39 833.05,-688.07"/>
<polygon fill="black" stroke="black" points="834.7,-691.17 842.56,-684.06 831.98,-684.72 834.7,-691.17"/>
</g>
<!-- giving_up_privacy -->
<g id="node20" class="node">
<title>giving_up_privacy</title>
<ellipse fill="none" stroke="black" cx="815.23" cy="-376.22" rx="48.19" ry="18"/>
<text text-anchor="middle" x="815.23" y="-372.52" font-family="Times,serif" font-size="14.00">放棄隱私</text>
</g>
<!-- social_motivation&#45;&gt;giving_up_privacy -->
<g id="edge34" class="edge">
<title>social_motivation&#45;&gt;giving_up_privacy</title>
<path fill="none" stroke="black" d="M703.7,-723.93C696.59,-684.35 684.51,-585.23 726.23,-519.96 743.59,-492.79 769.83,-509.73 789.23,-483.96 806.56,-460.94 812.49,-427.92 814.44,-404.71"/>
<polygon fill="black" stroke="black" points="817.94,-404.71 815.09,-394.51 810.96,-404.26 817.94,-404.71"/>
</g>
<!-- monetary_motivation -->
<g id="node2" class="node">
<title>monetary_motivation</title>
<ellipse fill="#f0c0ff" stroke="black" cx="1025.23" cy="-742.13" rx="48.19" ry="18"/>
<text text-anchor="middle" x="1025.23" y="-738.43" font-family="Times,serif" font-size="14.00">金錢意圖</text>
</g>
<!-- monetary_motivation&#45;&gt;social_media -->
<g id="edge52" class="edge">
<title>monetary_motivation&#45;&gt;social_media</title>
<path fill="none" stroke="black" d="M995.92,-727.63C971.95,-716.59 937.86,-700.89 911.69,-688.84"/>
<polygon fill="black" stroke="black" points="912.99,-685.59 902.44,-684.58 910.06,-691.94 912.99,-685.59"/>
</g>
<!-- surveillance_capitalism -->
<g id="node22" class="node">
<title>surveillance_capitalism</title>
<ellipse fill="none" stroke="black" cx="595.23" cy="-457.09" rx="154.3" ry="26.74"/>
<text text-anchor="middle" x="595.23" y="-460.89" font-family="Times,serif" font-size="14.00">surveillance capitalism</text>
<text text-anchor="middle" x="595.23" y="-445.89" font-family="Times,serif" font-size="14.00">例： targeted advertisement</text>
</g>
<!-- monetary_motivation&#45;&gt;surveillance_capitalism -->
<g id="edge39" class="edge">
<title>monetary_motivation&#45;&gt;surveillance_capitalism</title>
<path fill="none" stroke="black" d="M1026.53,-723.91C1028.65,-682.07 1027.73,-574.46 968.23,-519.96 936.3,-490.72 838.23,-475.19 750.66,-467"/>
<polygon fill="black" stroke="black" points="750.87,-463.5 740.59,-466.08 750.23,-470.47 750.87,-463.5"/>
</g>
<!-- social_engineering -->
<g id="node24" class="node">
<title>social_engineering</title>
<ellipse fill="none" stroke="black" cx="1205.23" cy="-205.61" rx="69.59" ry="18"/>
<text text-anchor="middle" x="1205.23" y="-201.91" font-family="Times,serif" font-size="14.00">社交工程/詐騙</text>
</g>
<!-- monetary_motivation&#45;&gt;social_engineering -->
<g id="edge53" class="edge">
<title>monetary_motivation&#45;&gt;social_engineering</title>
<path fill="none" stroke="black" d="M1029.8,-723.95C1032.55,-713.58 1036.11,-700.1 1039.23,-688.13 1058.63,-613.46 1058.53,-593.38 1082.23,-519.96 1117.22,-411.54 1170.24,-286.55 1193.54,-233.08"/>
<polygon fill="black" stroke="black" points="1196.86,-234.23 1197.66,-223.66 1190.45,-231.42 1196.86,-234.23"/>
</g>
<!-- political_motivation -->
<g id="node3" class="node">
<title>political_motivation</title>
<ellipse fill="#f0c0ff" stroke="black" cx="226.23" cy="-568.04" rx="83.38" ry="26.74"/>
<text text-anchor="middle" x="226.23" y="-571.84" font-family="Times,serif" font-size="14.00">良善的vs惡意的</text>
<text text-anchor="middle" x="226.23" y="-556.84" font-family="Times,serif" font-size="14.00">政治意圖</text>
</g>
<!-- misinformation -->
<g id="node19" class="node">
<title>misinformation</title>
<ellipse fill="none" stroke="black" cx="261.23" cy="-205.61" rx="100.32" ry="26.74"/>
<text text-anchor="middle" x="261.23" y="-209.41" font-family="Times,serif" font-size="14.00">misinformation +</text>
<text text-anchor="middle" x="261.23" y="-194.41" font-family="Times,serif" font-size="14.00">malinformation</text>
</g>
<!-- political_motivation&#45;&gt;misinformation -->
<g id="edge54" class="edge">
<title>political_motivation&#45;&gt;misinformation</title>
<path fill="none" stroke="black" d="M178.31,-545.91C153.43,-532.15 125.35,-511.59 111.23,-483.96 100.35,-462.69 104.27,-453.07 111.23,-430.22 134.43,-353.97 193.27,-280.09 229.98,-239.25"/>
<polygon fill="black" stroke="black" points="232.64,-241.53 236.79,-231.78 227.46,-236.82 232.64,-241.53"/>
</g>
<!-- political_motivation&#45;&gt;surveillance_capitalism -->
<g id="edge55" class="edge">
<title>political_motivation&#45;&gt;surveillance_capitalism</title>
<path fill="none" stroke="black" d="M286.33,-549.3C346.87,-531.42 440.84,-503.67 509.25,-483.48"/>
<polygon fill="black" stroke="black" points="510.55,-486.74 519.15,-480.55 508.57,-480.03 510.55,-486.74"/>
</g>
<!-- kol -->
<g id="node25" class="node">
<title>kol</title>
<ellipse fill="none" stroke="black" cx="368.23" cy="-376.22" rx="57.39" ry="18"/>
<text text-anchor="middle" x="368.23" y="-372.52" font-family="Times,serif" font-size="14.00">小編與網紅</text>
</g>
<!-- political_motivation&#45;&gt;kol -->
<g id="edge56" class="edge">
<title>political_motivation&#45;&gt;kol</title>
<path fill="none" stroke="black" d="M188,-543.88C147.32,-516.35 92.8,-469.2 124.23,-430.22 146.3,-402.83 238.48,-388.87 302.98,-382.31"/>
<polygon fill="black" stroke="black" points="303.47,-385.78 313.08,-381.33 302.79,-378.82 303.47,-385.78"/>
</g>
<!-- internet -->
<g id="node4" class="node">
<title>internet</title>
<ellipse fill="#c0ffff" stroke="black" cx="1127.23" cy="-1065.61" rx="48.19" ry="18"/>
<text text-anchor="middle" x="1127.23" y="-1061.91" font-family="Times,serif" font-size="14.00">網際網路</text>
</g>
<!-- copy_cost_0 -->
<g id="node5" class="node">
<title>copy_cost_0</title>
<ellipse fill="none" stroke="black" cx="1040.23" cy="-984.74" rx="75.29" ry="18"/>
<text text-anchor="middle" x="1040.23" y="-981.04" font-family="Times,serif" font-size="14.00">資訊複製零成本</text>
</g>
<!-- internet&#45;&gt;copy_cost_0 -->
<g id="edge1" class="edge">
<title>internet&#45;&gt;copy_cost_0</title>
<path fill="none" stroke="black" d="M1109.62,-1048.65C1097.05,-1037.25 1079.95,-1021.75 1065.87,-1008.98"/>
<polygon fill="black" stroke="black" points="1068.16,-1006.34 1058.4,-1002.22 1063.46,-1011.53 1068.16,-1006.34"/>
</g>
<!-- everone_producer -->
<g id="node7" class="node">
<title>everone_producer</title>
<ellipse fill="none" stroke="black" cx="1215.23" cy="-984.74" rx="82.05" ry="26.74"/>
<text text-anchor="middle" x="1215.23" y="-988.54" font-family="Times,serif" font-size="14.00">每個人都可以是</text>
<text text-anchor="middle" x="1215.23" y="-973.54" font-family="Times,serif" font-size="14.00">資訊生產者</text>
</g>
<!-- internet&#45;&gt;everone_producer -->
<g id="edge2" class="edge">
<title>internet&#45;&gt;everone_producer</title>
<path fill="none" stroke="black" d="M1145.03,-1048.65C1155.09,-1039.64 1168.01,-1028.06 1180.02,-1017.29"/>
<polygon fill="black" stroke="black" points="1182.63,-1019.66 1187.74,-1010.37 1177.95,-1014.44 1182.63,-1019.66"/>
</g>
<!-- open_data -->
<g id="node6" class="node">
<title>open_data</title>
<ellipse fill="none" stroke="black" cx="484.23" cy="-823" rx="48.19" ry="18"/>
<text text-anchor="middle" x="484.23" y="-819.3" font-family="Times,serif" font-size="14.00">開放資料</text>
</g>
<!-- copy_cost_0&#45;&gt;open_data -->
<g id="edge29" class="edge">
<title>copy_cost_0&#45;&gt;open_data</title>
<path fill="none" stroke="black" d="M965.07,-982.63C880.05,-979.1 738.78,-966.29 626.23,-921.87 581.05,-904.04 536.11,-869.51 509.24,-846.6"/>
<polygon fill="black" stroke="black" points="511.36,-843.8 501.51,-839.89 506.77,-849.09 511.36,-843.8"/>
</g>
<!-- free_software -->
<g id="node8" class="node">
<title>free_software</title>
<ellipse fill="#ffffe0" stroke="black" cx="1177.23" cy="-903.87" rx="48.19" ry="18"/>
<text text-anchor="middle" x="1177.23" y="-900.17" font-family="Times,serif" font-size="14.00">自由軟體</text>
</g>
<!-- copy_cost_0&#45;&gt;free_software -->
<g id="edge3" class="edge">
<title>copy_cost_0&#45;&gt;free_software</title>
<path fill="none" stroke="black" d="M1067.62,-967.97C1089.4,-955.43 1119.99,-937.82 1143.32,-924.39"/>
<polygon fill="black" stroke="black" points="1145.26,-927.31 1152.18,-919.28 1141.77,-921.24 1145.26,-927.31"/>
</g>
<!-- info_explosion -->
<g id="node10" class="node">
<title>info_explosion</title>
<ellipse fill="#ffffe0" stroke="black" cx="484.23" cy="-742.13" rx="48.19" ry="18"/>
<text text-anchor="middle" x="484.23" y="-738.43" font-family="Times,serif" font-size="14.00">資訊爆炸</text>
</g>
<!-- copy_cost_0&#45;&gt;info_explosion -->
<g id="edge6" class="edge">
<title>copy_cost_0&#45;&gt;info_explosion</title>
<path fill="none" stroke="black" d="M978.38,-974.37C925.06,-965.02 846.72,-948.21 782.23,-921.87 676.64,-878.73 564.47,-801.82 513.04,-764.55"/>
<polygon fill="black" stroke="black" points="514.87,-761.56 504.73,-758.49 510.75,-767.21 514.87,-761.56"/>
</g>
<!-- copy_cost_0&#45;&gt;social_media -->
<g id="edge15" class="edge">
<title>copy_cost_0&#45;&gt;social_media</title>
<path fill="none" stroke="black" d="M1016.78,-967.5C986.1,-944.91 933.09,-900.94 906.23,-849.87 880.47,-800.89 874.51,-735.14 873.32,-698.58"/>
<polygon fill="black" stroke="black" points="876.81,-698.14 873.08,-688.22 869.81,-698.3 876.81,-698.14"/>
</g>
<!-- long_tail -->
<g id="node16" class="node">
<title>long_tail</title>
<ellipse fill="none" stroke="black" cx="1139.23" cy="-568.04" rx="48.19" ry="18"/>
<text text-anchor="middle" x="1139.23" y="-564.34" font-family="Times,serif" font-size="14.00">長尾現象</text>
</g>
<!-- copy_cost_0&#45;&gt;long_tail -->
<g id="edge18" class="edge">
<title>copy_cost_0&#45;&gt;long_tail</title>
<path fill="none" stroke="black" d="M1047.11,-966.62C1057.09,-941.38 1075.75,-892.52 1088.23,-849.87 1108.93,-779.09 1112.68,-760.79 1125.23,-688.13 1130.63,-656.82 1134.57,-620.51 1136.86,-596.3"/>
<polygon fill="black" stroke="black" points="1140.37,-596.36 1137.8,-586.09 1133.4,-595.72 1140.37,-596.36"/>
</g>
<!-- copy_cost_0&#45;&gt;social_engineering -->
<g id="edge7" class="edge">
<title>copy_cost_0&#45;&gt;social_engineering</title>
<path fill="none" stroke="black" d="M1084.33,-970.1C1140.63,-952.63 1231.19,-924.3 1234.23,-921.87 1273.49,-890.37 1291.23,-874.33 1291.23,-824 1291.23,-824 1291.23,-824 1291.23,-375.22 1291.23,-318.81 1252.56,-262.24 1227.08,-231.09"/>
<polygon fill="black" stroke="black" points="1229.71,-228.78 1220.6,-223.36 1224.34,-233.27 1229.71,-228.78"/>
</g>
<!-- open_data&#45;&gt;info_explosion -->
<g id="edge30" class="edge">
<title>open_data&#45;&gt;info_explosion</title>
<path fill="none" stroke="black" d="M484.23,-804.88C484.23,-794.86 484.23,-781.96 484.23,-770.55"/>
<polygon fill="black" stroke="black" points="487.73,-770.21 484.23,-760.21 480.73,-770.21 487.73,-770.21"/>
</g>
<!-- visualization -->
<g id="node15" class="node">
<title>visualization</title>
<ellipse fill="#ffffe0" stroke="black" cx="221.23" cy="-457.09" rx="88.28" ry="26.74"/>
<text text-anchor="middle" x="221.23" y="-460.89" font-family="Times,serif" font-size="14.00">梗圖 + 懶人包 +</text>
<text text-anchor="middle" x="221.23" y="-445.89" font-family="Times,serif" font-size="14.00">資料視覺化</text>
</g>
<!-- open_data&#45;&gt;visualization -->
<g id="edge31" class="edge">
<title>open_data&#45;&gt;visualization</title>
<path fill="none" stroke="black" d="M464.84,-806.43C437.54,-783.47 388.12,-737.81 361.23,-688.13 324.5,-620.28 363.47,-582.45 318.23,-519.96 307.94,-505.76 293.31,-494.02 278.52,-484.73"/>
<polygon fill="black" stroke="black" points="280.2,-481.66 269.82,-479.54 276.61,-487.67 280.2,-481.66"/>
</g>
<!-- everone_producer&#45;&gt;free_software -->
<g id="edge4" class="edge">
<title>everone_producer&#45;&gt;free_software</title>
<path fill="none" stroke="black" d="M1202.78,-957.91C1198.63,-949.29 1194,-939.69 1189.84,-931.05"/>
<polygon fill="black" stroke="black" points="1192.88,-929.29 1185.38,-921.8 1186.57,-932.33 1192.88,-929.29"/>
</g>
<!-- everone_producer&#45;&gt;info_explosion -->
<g id="edge8" class="edge">
<title>everone_producer&#45;&gt;info_explosion</title>
<path fill="none" stroke="black" d="M1158.78,-965.16C1018.41,-918.95 655.79,-799.6 528.88,-757.83"/>
<polygon fill="black" stroke="black" points="529.69,-754.41 519.1,-754.61 527.51,-761.06 529.69,-754.41"/>
</g>
<!-- everone_producer&#45;&gt;social_media -->
<g id="edge16" class="edge">
<title>everone_producer&#45;&gt;social_media</title>
<path fill="none" stroke="black" d="M1229.19,-958.12C1238.42,-937.44 1246.73,-908.23 1234.23,-885.87 1197.05,-819.39 1157.73,-827.27 1088.23,-796.13 1037.41,-773.36 1015.4,-789.71 968.23,-760.13 949.84,-748.59 950.84,-739.21 935.23,-724.13 924.24,-713.52 911.51,-702.44 900.46,-693.18"/>
<polygon fill="black" stroke="black" points="902.68,-690.48 892.75,-686.78 898.21,-695.86 902.68,-690.48"/>
</g>
<!-- everone_producer&#45;&gt;social_engineering -->
<g id="edge9" class="edge">
<title>everone_producer&#45;&gt;social_engineering</title>
<path fill="none" stroke="black" d="M1259.95,-961.94C1276.41,-951.85 1293.8,-938.4 1305.23,-921.87 1330.68,-885.02 1329.23,-868.78 1329.23,-824 1329.23,-824 1329.23,-824 1329.23,-375.22 1329.23,-326.6 1333.44,-308.08 1305.23,-268.48 1291.83,-249.68 1270.76,-235.41 1251.4,-225.35"/>
<polygon fill="black" stroke="black" points="1252.88,-222.18 1242.37,-220.88 1249.78,-228.45 1252.88,-222.18"/>
</g>
<!-- dem_prod_tool -->
<g id="node9" class="node">
<title>dem_prod_tool</title>
<ellipse fill="none" stroke="black" cx="997.23" cy="-823" rx="82.05" ry="26.74"/>
<text text-anchor="middle" x="997.23" y="-826.8" font-family="Times,serif" font-size="14.00">圖文影音</text>
<text text-anchor="middle" x="997.23" y="-811.8" font-family="Times,serif" font-size="14.00">創作工具民主化</text>
</g>
<!-- free_software&#45;&gt;dem_prod_tool -->
<g id="edge5" class="edge">
<title>free_software&#45;&gt;dem_prod_tool</title>
<path fill="none" stroke="black" d="M1147.1,-889.67C1121.88,-878.62 1085.19,-862.54 1054.43,-849.06"/>
<polygon fill="black" stroke="black" points="1055.65,-845.78 1045.09,-844.97 1052.85,-852.19 1055.65,-845.78"/>
</g>
<!-- artificial_intelligence -->
<g id="node17" class="node">
<title>artificial_intelligence</title>
<ellipse fill="none" stroke="black" cx="815.23" cy="-295.35" rx="48.19" ry="18"/>
<text text-anchor="middle" x="815.23" y="-291.65" font-family="Times,serif" font-size="14.00">人工智慧</text>
</g>
<!-- free_software&#45;&gt;artificial_intelligence -->
<g id="edge35" class="edge">
<title>free_software&#45;&gt;artificial_intelligence</title>
<path fill="none" stroke="black" d="M1184.02,-885.93C1194.95,-857.1 1215.23,-796.43 1215.23,-743.13 1215.23,-743.13 1215.23,-743.13 1215.23,-669.13 1215.23,-602.3 1233.04,-575.74 1196.23,-519.96 1116.25,-398.78 946.21,-334.55 863.05,-309.3"/>
<polygon fill="black" stroke="black" points="863.93,-305.91 853.35,-306.41 861.93,-312.62 863.93,-305.91"/>
</g>
<!-- dem_prod_tool&#45;&gt;info_explosion -->
<g id="edge10" class="edge">
<title>dem_prod_tool&#45;&gt;info_explosion</title>
<path fill="none" stroke="black" d="M922.61,-811.64C888.37,-806.9 847.24,-801.21 810.23,-796.13 692.91,-780.01 662.25,-783.84 546.23,-760.13 541.16,-759.09 535.9,-757.88 530.68,-756.58"/>
<polygon fill="black" stroke="black" points="531.31,-753.12 520.75,-754 529.55,-759.9 531.31,-753.12"/>
</g>
<!-- dem_prod_tool&#45;&gt;social_media -->
<g id="edge17" class="edge">
<title>dem_prod_tool&#45;&gt;social_media</title>
<path fill="none" stroke="black" d="M970.52,-797.39C959.16,-786.41 946.07,-773.06 935.23,-760.13 918.15,-739.75 901.06,-714.79 889.16,-696.49"/>
<polygon fill="black" stroke="black" points="891.95,-694.36 883.59,-687.84 886.06,-698.15 891.95,-694.36"/>
</g>
<!-- dem_prod_tool&#45;&gt;visualization -->
<g id="edge32" class="edge">
<title>dem_prod_tool&#45;&gt;visualization</title>
<path fill="none" stroke="black" d="M917.98,-815.87C846.26,-808.48 738.65,-792.71 650.23,-760.13 541.27,-719.98 517.82,-694.59 432.23,-616.13 389.74,-577.18 391.14,-554.8 345.23,-519.96 326.28,-505.58 303.47,-493.08 282.61,-483.15"/>
<polygon fill="black" stroke="black" points="284.04,-479.96 273.49,-478.92 281.09,-486.31 284.04,-479.96"/>
</g>
<!-- dem_prod_tool&#45;&gt;long_tail -->
<g id="edge19" class="edge">
<title>dem_prod_tool&#45;&gt;long_tail</title>
<path fill="none" stroke="black" d="M1038.63,-799.72C1054.25,-789.49 1070.95,-776.07 1082.23,-760.13 1101.1,-733.45 1123.14,-642.2 1133.41,-596.12"/>
<polygon fill="black" stroke="black" points="1136.85,-596.75 1135.58,-586.23 1130.01,-595.24 1136.85,-596.75"/>
</g>
<!-- dem_prod_tool&#45;&gt;social_engineering -->
<g id="edge11" class="edge">
<title>dem_prod_tool&#45;&gt;social_engineering</title>
<path fill="none" stroke="black" d="M1045.38,-801.09C1119.53,-765.26 1253.23,-684.63 1253.23,-569.04 1253.23,-569.04 1253.23,-569.04 1253.23,-375.22 1253.23,-323.37 1231.96,-265.85 1217.74,-233.18"/>
<polygon fill="black" stroke="black" points="1220.86,-231.57 1213.59,-223.87 1214.47,-234.43 1220.86,-231.57"/>
</g>
<!-- info_explosion&#45;&gt;attention_scarcity -->
<g id="edge13" class="edge">
<title>info_explosion&#45;&gt;attention_scarcity</title>
<path fill="none" stroke="black" d="M507.34,-726.28C522.77,-716.37 543.3,-703.19 560.42,-692.2"/>
<polygon fill="black" stroke="black" points="562.49,-695.03 569.01,-686.68 558.7,-689.14 562.49,-695.03"/>
</g>
<!-- info_explosion&#45;&gt;artificial_intelligence -->
<g id="edge36" class="edge">
<title>info_explosion&#45;&gt;artificial_intelligence</title>
<path fill="none" stroke="black" d="M473.29,-724.23C441.76,-673.18 357.54,-518.65 432.23,-430.22 493.89,-357.2 554.25,-426.45 644.23,-394.22 658.64,-389.06 736.55,-343.23 782.08,-316.16"/>
<polygon fill="black" stroke="black" points="783.92,-319.13 790.73,-311.01 780.34,-313.12 783.92,-319.13"/>
</g>
<!-- emotion -->
<g id="node13" class="node">
<title>emotion</title>
<ellipse fill="#ffffe0" stroke="black" cx="503.23" cy="-568.04" rx="62.45" ry="26.74"/>
<text text-anchor="middle" x="503.23" y="-571.84" font-family="Times,serif" font-size="14.00">情緒決定</text>
<text text-anchor="middle" x="503.23" y="-556.84" font-family="Times,serif" font-size="14.00">資訊傳導度</text>
</g>
<!-- attention_scarcity&#45;&gt;emotion -->
<g id="edge21" class="edge">
<title>attention_scarcity&#45;&gt;emotion</title>
<path fill="none" stroke="black" d="M578.36,-652.6C565.81,-638.64 547.46,-618.23 532.04,-601.08"/>
<polygon fill="black" stroke="black" points="534.48,-598.56 525.19,-593.47 529.27,-603.24 534.48,-598.56"/>
</g>
<!-- attention_span -->
<g id="node14" class="node">
<title>attention_span</title>
<ellipse fill="#ffffe0" stroke="black" cx="62.23" cy="-568.04" rx="62.45" ry="26.74"/>
<text text-anchor="middle" x="62.23" y="-571.84" font-family="Times,serif" font-size="14.00">人類普遍</text>
<text text-anchor="middle" x="62.23" y="-556.84" font-family="Times,serif" font-size="14.00">注意力變短</text>
</g>
<!-- attention_scarcity&#45;&gt;attention_span -->
<g id="edge22" class="edge">
<title>attention_scarcity&#45;&gt;attention_span</title>
<path fill="none" stroke="black" d="M537.56,-665.91C432.1,-659.3 207.21,-642.52 134.23,-616.13 122.03,-611.72 109.83,-604.89 99.03,-597.78"/>
<polygon fill="black" stroke="black" points="100.92,-594.83 90.69,-592.07 96.96,-600.61 100.92,-594.83"/>
</g>
<!-- attention_economy -->
<g id="node18" class="node">
<title>attention_economy</title>
<ellipse fill="none" stroke="black" cx="847.23" cy="-568.04" rx="112.36" ry="48.17"/>
<text text-anchor="middle" x="847.23" y="-586.84" font-family="Times,serif" font-size="14.00">注意力經濟：</text>
<text text-anchor="middle" x="847.23" y="-571.84" font-family="Times,serif" font-size="14.00">創用CC +</text>
<text text-anchor="middle" x="847.23" y="-556.84" font-family="Times,serif" font-size="14.00">exposure culture +</text>
<text text-anchor="middle" x="847.23" y="-541.84" font-family="Times,serif" font-size="14.00">reputation economy</text>
</g>
<!-- attention_scarcity&#45;&gt;attention_economy -->
<g id="edge23" class="edge">
<title>attention_scarcity&#45;&gt;attention_economy</title>
<path fill="none" stroke="black" d="M627.48,-655.63C660.35,-642.68 711.44,-622.55 756.09,-604.95"/>
<polygon fill="black" stroke="black" points="757.49,-608.16 765.51,-601.24 754.93,-601.65 757.49,-608.16"/>
</g>
<!-- attention_scarcity&#45;&gt;giving_up_privacy -->
<g id="edge24" class="edge">
<title>attention_scarcity&#45;&gt;giving_up_privacy</title>
<path fill="none" stroke="black" d="M601.27,-652.01C616,-622.13 649.83,-559.82 693.23,-519.96 717.55,-497.62 735.05,-507.49 758.23,-483.96 780.82,-461.01 796.8,-427.27 805.98,-403.89"/>
<polygon fill="black" stroke="black" points="809.36,-404.85 809.61,-394.26 802.8,-402.38 809.36,-404.85"/>
</g>
<!-- attention_scarcity&#45;&gt;surveillance_capitalism -->
<g id="edge40" class="edge">
<title>attention_scarcity&#45;&gt;surveillance_capitalism</title>
<path fill="none" stroke="black" d="M593.39,-651.86C593.71,-617.52 594.45,-540.03 594.88,-494.12"/>
<polygon fill="black" stroke="black" points="598.38,-494.04 594.98,-484.01 591.39,-493.97 598.38,-494.04"/>
</g>
<!-- social_media&#45;&gt;emotion -->
<g id="edge25" class="edge">
<title>social_media&#45;&gt;emotion</title>
<path fill="none" stroke="black" d="M829.11,-662.58C777.59,-654.34 690.12,-638.51 617.23,-616.13 596.03,-609.62 573.33,-600.67 553.8,-592.32"/>
<polygon fill="black" stroke="black" points="555.07,-589.05 544.5,-588.29 552.28,-595.48 555.07,-589.05"/>
</g>
<!-- social_media&#45;&gt;attention_span -->
<g id="edge26" class="edge">
<title>social_media&#45;&gt;attention_span</title>
<path fill="none" stroke="black" d="M826.48,-665.27C783.13,-661.72 716.84,-656.39 659.23,-652.13 542.6,-643.5 245.09,-653.33 134.23,-616.13 121.82,-611.96 109.48,-605.14 98.61,-597.96"/>
<polygon fill="black" stroke="black" points="100.45,-594.98 90.23,-592.17 96.47,-600.74 100.45,-594.98"/>
</g>
<!-- social_media&#45;&gt;long_tail -->
<g id="edge20" class="edge">
<title>social_media&#45;&gt;long_tail</title>
<path fill="none" stroke="black" d="M905.84,-656.85C953.9,-638.77 1043.78,-604.96 1096.87,-584.98"/>
<polygon fill="black" stroke="black" points="1098.21,-588.21 1106.34,-581.42 1095.75,-581.66 1098.21,-588.21"/>
</g>
<!-- social_media&#45;&gt;attention_economy -->
<g id="edge27" class="edge">
<title>social_media&#45;&gt;attention_economy</title>
<path fill="none" stroke="black" d="M868.81,-652.15C866.86,-644.62 864.43,-635.28 861.92,-625.62"/>
<polygon fill="black" stroke="black" points="865.3,-624.69 859.4,-615.89 858.52,-626.45 865.3,-624.69"/>
</g>
<!-- social_media&#45;&gt;giving_up_privacy -->
<g id="edge28" class="edge">
<title>social_media&#45;&gt;giving_up_privacy</title>
<path fill="none" stroke="black" d="M910.58,-658.63C931.49,-650.64 955.79,-637.3 968.23,-616.13 989.87,-579.27 985.26,-559.16 968.23,-519.96 944.09,-464.44 886.55,-420.72 849.32,-396.96"/>
<polygon fill="black" stroke="black" points="851.12,-393.96 840.78,-391.64 847.41,-399.9 851.12,-393.96"/>
</g>
<!-- social_media&#45;&gt;surveillance_capitalism -->
<g id="edge41" class="edge">
<title>social_media&#45;&gt;surveillance_capitalism</title>
<path fill="none" stroke="black" d="M832.11,-660.55C801,-652.64 758.3,-638.66 726.23,-616.13 678.78,-582.8 638.72,-527.99 615.83,-492.48"/>
<polygon fill="black" stroke="black" points="618.7,-490.46 610.39,-483.89 612.79,-494.21 618.7,-490.46"/>
</g>
<!-- emotion&#45;&gt;misinformation -->
<g id="edge57" class="edge">
<title>emotion&#45;&gt;misinformation</title>
<path fill="none" stroke="black" d="M472.27,-544.64C421.31,-507.09 323.26,-431.89 302.23,-394.22 275.43,-346.22 266.14,-282.23 262.93,-242.75"/>
<polygon fill="black" stroke="black" points="266.4,-242.26 262.19,-232.54 259.42,-242.77 266.4,-242.26"/>
</g>
<!-- emotion&#45;&gt;surveillance_capitalism -->
<g id="edge58" class="edge">
<title>emotion&#45;&gt;surveillance_capitalism</title>
<path fill="none" stroke="black" d="M523.87,-542.59C536.53,-527.6 552.91,-508.2 566.78,-491.77"/>
<polygon fill="black" stroke="black" points="569.59,-493.88 573.37,-483.98 564.24,-489.36 569.59,-493.88"/>
</g>
<!-- emotion&#45;&gt;kol -->
<g id="edge59" class="edge">
<title>emotion&#45;&gt;kol</title>
<path fill="none" stroke="black" d="M480.66,-542.84C466.11,-526.72 447.18,-504.75 432.23,-483.96 413.12,-457.41 394.24,-424.94 381.99,-402.83"/>
<polygon fill="black" stroke="black" points="385.04,-401.12 377.16,-394.04 378.9,-404.49 385.04,-401.12"/>
</g>
<!-- attention_span&#45;&gt;visualization -->
<g id="edge33" class="edge">
<title>attention_span&#45;&gt;visualization</title>
<path fill="none" stroke="black" d="M94.4,-545C118.47,-528.5 151.65,-505.77 178.03,-487.69"/>
<polygon fill="black" stroke="black" points="180.07,-490.54 186.34,-482 176.11,-484.76 180.07,-490.54"/>
</g>
<!-- conflict -->
<g id="node27" class="node">
<title>conflict</title>
<polygon fill="#ff8080" stroke="black" points="205.73,-134.87 60.73,-134.87 60.73,-96.87 205.73,-96.87 205.73,-134.87"/>
<text text-anchor="middle" x="133.23" y="-119.67" font-family="Times,serif" font-size="14.00">[環保/宗教/性別/...]</text>
<text text-anchor="middle" x="133.23" y="-104.67" font-family="Times,serif" font-size="14.00">各種議題的社會對立</text>
</g>
<!-- attention_span&#45;&gt;conflict -->
<g id="edge45" class="edge">
<title>attention_span&#45;&gt;conflict</title>
<path fill="none" stroke="black" d="M54.82,-541.19C45.09,-504.89 29.23,-436.59 29.23,-377.22 29.23,-377.22 29.23,-377.22 29.23,-294.35 29.23,-233.18 75.77,-174.42 106.59,-142.23"/>
<polygon fill="black" stroke="black" points="109.16,-144.6 113.66,-135.01 104.16,-139.7 109.16,-144.6"/>
</g>
<!-- artificial_intelligence&#45;&gt;misinformation -->
<g id="edge60" class="edge">
<title>artificial_intelligence&#45;&gt;misinformation</title>
<path fill="none" stroke="#ff0000" d="M771.44,-289.44C682.31,-275.32 477.05,-242.82 355.68,-223.6"/>
<path fill="none" stroke="white" d="M771.75,-287.47C682.62,-273.35 477.36,-240.84 356,-221.62"/>
<path fill="none" stroke="#ff0000" d="M772.07,-285.49C682.94,-271.37 477.67,-238.87 356.31,-219.64"/>
<polygon fill="#ff0000" stroke="#ff0000" points="356.39,-218.14 345.96,-220.03 355.29,-225.05 356.39,-218.14"/>
</g>
<!-- artificial_intelligence&#45;&gt;surveillance_capitalism -->
<g id="edge61" class="edge">
<title>artificial_intelligence&#45;&gt;surveillance_capitalism</title>
<path fill="none" stroke="#ff0000" d="M802.75,-314.11C784.45,-334.94 750.76,-370.99 716.4,-395.84 699.07,-408.34 679.1,-419.68 660.35,-429.22"/>
<path fill="none" stroke="white" d="M801.25,-312.79C782.99,-333.57 749.3,-369.62 715.23,-394.22 698.08,-406.6 678.11,-417.94 659.44,-427.44"/>
<path fill="none" stroke="#ff0000" d="M799.75,-311.47C781.53,-332.21 747.84,-368.25 714.05,-392.6 697.09,-404.86 677.12,-416.2 658.53,-425.65"/>
<polygon fill="#ff0000" stroke="#ff0000" points="657.78,-424.35 650.4,-431.94 660.91,-430.61 657.78,-424.35"/>
</g>
<!-- artificial_intelligence&#45;&gt;social_engineering -->
<g id="edge62" class="edge">
<title>artificial_intelligence&#45;&gt;social_engineering</title>
<path fill="none" stroke="#ff0000" d="M855.05,-283.34C923.64,-267.91 1063.51,-236.44 1144.03,-218.33"/>
<path fill="none" stroke="white" d="M855.49,-285.29C924.08,-269.86 1063.95,-238.39 1144.47,-220.28"/>
<path fill="none" stroke="#ff0000" d="M855.93,-287.24C924.52,-271.81 1064.39,-240.34 1144.91,-222.23"/>
<polygon fill="#ff0000" stroke="#ff0000" points="1145.48,-223.64 1154.47,-218.03 1143.95,-216.81 1145.48,-223.64"/>
</g>
<!-- attention_economy&#45;&gt;artificial_intelligence -->
<g id="edge37" class="edge">
<title>attention_economy&#45;&gt;artificial_intelligence</title>
<path fill="none" stroke="black" d="M865.31,-520.22C879.21,-476.79 892.87,-411.11 872.23,-358.22 866.27,-342.97 854.6,-329.21 843.36,-318.56"/>
<polygon fill="black" stroke="black" points="845.5,-315.78 835.72,-311.7 840.82,-320.99 845.5,-315.78"/>
</g>
<!-- your_brain -->
<g id="node26" class="node">
<title>your_brain</title>
<ellipse fill="#ffff40" stroke="black" cx="545.23" cy="-115.87" rx="52.15" ry="26.74"/>
<text text-anchor="middle" x="545.23" y="-119.67" font-family="Times,serif" font-size="14.00">你的大腦</text>
<text text-anchor="middle" x="545.23" y="-104.67" font-family="Times,serif" font-size="14.00">成為戰場</text>
</g>
<!-- misinformation&#45;&gt;your_brain -->
<g id="edge63" class="edge">
<title>misinformation&#45;&gt;your_brain</title>
<path fill="none" stroke="black" d="M325.31,-184.81C375.41,-169.33 444.25,-148.07 491.49,-133.47"/>
<polygon fill="black" stroke="black" points="492.7,-136.76 501.23,-130.46 490.64,-130.07 492.7,-136.76"/>
</g>
<!-- misinformation&#45;&gt;conflict -->
<g id="edge46" class="edge">
<title>misinformation&#45;&gt;conflict</title>
<path fill="none" stroke="black" d="M225.91,-180.4C207.85,-168.02 185.95,-153.01 167.97,-140.69"/>
<polygon fill="black" stroke="black" points="169.72,-137.64 159.49,-134.88 165.76,-143.42 169.72,-137.64"/>
</g>
<!-- giving_up_privacy&#45;&gt;artificial_intelligence -->
<g id="edge38" class="edge">
<title>giving_up_privacy&#45;&gt;artificial_intelligence</title>
<path fill="none" stroke="black" d="M815.23,-358.11C815.23,-348.08 815.23,-335.19 815.23,-323.77"/>
<polygon fill="black" stroke="black" points="818.73,-323.43 815.23,-313.43 811.73,-323.43 818.73,-323.43"/>
</g>
<!-- giving_up_privacy&#45;&gt;surveillance_capitalism -->
<g id="edge42" class="edge">
<title>giving_up_privacy&#45;&gt;surveillance_capitalism</title>
<path fill="none" stroke="black" d="M784.49,-390.08C756.19,-400.79 713.11,-416.38 675.17,-429.73"/>
<polygon fill="black" stroke="black" points="673.93,-426.45 665.65,-433.07 676.25,-433.06 673.93,-426.45"/>
</g>
<!-- filter_bubble -->
<g id="node21" class="node">
<title>filter_bubble</title>
<ellipse fill="none" stroke="black" cx="470.23" cy="-295.35" rx="73.58" ry="26.74"/>
<text text-anchor="middle" x="470.23" y="-299.15" font-family="Times,serif" font-size="14.00">同溫層</text>
<text text-anchor="middle" x="470.23" y="-284.15" font-family="Times,serif" font-size="14.00">filter bubble</text>
</g>
<!-- filter_bubble&#45;&gt;conflict -->
<g id="edge47" class="edge">
<title>filter_bubble&#45;&gt;conflict</title>
<path fill="none" stroke="black" d="M397.95,-289.71C314.83,-282.81 185.53,-266.78 152.23,-232.48 130.06,-209.65 127.89,-171.55 129.55,-145.37"/>
<polygon fill="black" stroke="black" points="133.05,-145.56 130.42,-135.29 126.07,-144.96 133.05,-145.56"/>
</g>
<!-- surveillance_capitalism&#45;&gt;giving_up_privacy -->
<g id="edge48" class="edge">
<title>surveillance_capitalism&#45;&gt;giving_up_privacy</title>
<path fill="none" stroke="black" d="M655.28,-432.32C691.31,-419.08 736.37,-403.04 769.52,-391.68"/>
<polygon fill="black" stroke="black" points="771.06,-394.85 779.4,-388.32 768.81,-388.23 771.06,-394.85"/>
</g>
<!-- surveillance_capitalism&#45;&gt;filter_bubble -->
<g id="edge43" class="edge">
<title>surveillance_capitalism&#45;&gt;filter_bubble</title>
<path fill="none" stroke="black" d="M519.37,-433.64C500.87,-424.44 483.25,-411.71 472.23,-394.22 460.78,-376.06 460.14,-352 462.43,-332.28"/>
<polygon fill="black" stroke="black" points="465.93,-332.52 463.9,-322.12 459,-331.52 465.93,-332.52"/>
</g>
<!-- walled_garden -->
<g id="node23" class="node">
<title>walled_garden</title>
<ellipse fill="none" stroke="black" cx="558.23" cy="-376.22" rx="76.89" ry="18"/>
<text text-anchor="middle" x="558.23" y="-372.52" font-family="Times,serif" font-size="14.00">walled garden</text>
</g>
<!-- surveillance_capitalism&#45;&gt;walled_garden -->
<g id="edge49" class="edge">
<title>surveillance_capitalism&#45;&gt;walled_garden</title>
<path fill="none" stroke="black" d="M583.11,-430.27C579.07,-421.65 574.56,-412.04 570.51,-403.4"/>
<polygon fill="black" stroke="black" points="573.58,-401.72 566.17,-394.15 567.25,-404.69 573.58,-401.72"/>
</g>
<!-- surveillance_capitalism&#45;&gt;your_brain -->
<g id="edge64" class="edge">
<title>surveillance_capitalism&#45;&gt;your_brain</title>
<path fill="none" stroke="black" d="M621.84,-430.49C630.75,-420.17 639.59,-407.55 644.23,-394.22 649.48,-379.11 647.32,-373.92 644.23,-358.22 628.9,-280.48 588.29,-196.28 564.11,-150.75"/>
<polygon fill="black" stroke="black" points="567.17,-149.06 559.35,-141.91 561,-152.38 567.17,-149.06"/>
</g>
<!-- walled_garden&#45;&gt;misinformation -->
<g id="edge50" class="edge">
<title>walled_garden&#45;&gt;misinformation</title>
<path fill="none" stroke="black" d="M563.17,-358.15C568.74,-334.95 574.49,-293.5 553.23,-268.48 529.11,-240.1 440.02,-224.09 366.52,-215.5"/>
<polygon fill="black" stroke="black" points="366.59,-211.98 356.26,-214.33 365.8,-218.94 366.59,-211.98"/>
</g>
<!-- walled_garden&#45;&gt;filter_bubble -->
<g id="edge51" class="edge">
<title>walled_garden&#45;&gt;filter_bubble</title>
<path fill="none" stroke="black" d="M539.56,-358.49C529.46,-349.44 516.67,-337.97 504.82,-327.36"/>
<polygon fill="black" stroke="black" points="506.99,-324.6 497.21,-320.54 502.32,-329.82 506.99,-324.6"/>
</g>
<!-- social_engineering&#45;&gt;your_brain -->
<g id="edge65" class="edge">
<title>social_engineering&#45;&gt;your_brain</title>
<path fill="none" stroke="black" d="M1144.91,-196.59C1019.4,-179.91 731.39,-141.62 605.73,-124.91"/>
<polygon fill="black" stroke="black" points="605.9,-121.4 595.52,-123.56 604.97,-128.34 605.9,-121.4"/>
</g>
<!-- kol&#45;&gt;filter_bubble -->
<g id="edge44" class="edge">
<title>kol&#45;&gt;filter_bubble</title>
<path fill="none" stroke="black" d="M388.87,-359.26C401.03,-349.85 416.82,-337.64 431.25,-326.49"/>
<polygon fill="black" stroke="black" points="433.78,-328.96 439.55,-320.07 429.5,-323.42 433.78,-328.96"/>
</g>
<!-- kol&#45;&gt;your_brain -->
<g id="edge66" class="edge">
<title>kol&#45;&gt;your_brain</title>
<path fill="none" stroke="black" d="M368.08,-357.89C368.59,-335.85 371.87,-297.19 387.23,-268.48 415.36,-215.88 468.37,-170.8 505.19,-143.78"/>
<polygon fill="black" stroke="black" points="507.64,-146.33 513.71,-137.64 503.55,-140.65 507.64,-146.33"/>
</g>
<!-- important_personal -->
<g id="node28" class="node">
<title>important_personal</title>
<polygon fill="#ffffe0" stroke="black" points="539.73,-53 394.73,-53 394.73,0 539.73,0 539.73,-53"/>
<text text-anchor="middle" x="467.23" y="-37.8" font-family="Times,serif" font-size="14.00">個人重要能力：</text>
<text text-anchor="middle" x="467.23" y="-22.8" font-family="Times,serif" font-size="14.00">搜尋、專注閱讀、</text>
<text text-anchor="middle" x="467.23" y="-7.8" font-family="Times,serif" font-size="14.00">自省情緒、辨別意圖</text>
</g>
<!-- your_brain&#45;&gt;important_personal -->
<g id="edge67" class="edge">
<title>your_brain&#45;&gt;important_personal</title>
<path fill="none" stroke="black" d="M523.91,-91C515.57,-81.66 505.86,-70.78 496.86,-60.7"/>
<polygon fill="black" stroke="black" points="499.42,-58.31 490.15,-53.18 494.2,-62.97 499.42,-58.31"/>
</g>
<!-- important_societal -->
<g id="node29" class="node">
<title>important_societal</title>
<polygon fill="#ffffe0" stroke="black" points="688.73,-53 557.73,-53 557.73,0 688.73,0 688.73,-53"/>
<text text-anchor="middle" x="623.23" y="-37.8" font-family="Times,serif" font-size="14.00">社會重要通識：</text>
<text text-anchor="middle" x="623.23" y="-22.8" font-family="Times,serif" font-size="14.00">搜尋、媒體識讀、</text>
<text text-anchor="middle" x="623.23" y="-7.8" font-family="Times,serif" font-size="14.00">心理學、自由軟體</text>
</g>
<!-- your_brain&#45;&gt;important_societal -->
<g id="edge68" class="edge">
<title>your_brain&#45;&gt;important_societal</title>
<path fill="none" stroke="black" d="M566.54,-91C574.88,-81.66 584.59,-70.78 593.59,-60.7"/>
<polygon fill="black" stroke="black" points="596.25,-62.97 600.3,-53.18 591.03,-58.31 596.25,-62.97"/>
</g>
</g>
</svg>
