<?xml version="1.0" encoding="UTF-8" standalone="no"?>
<!DOCTYPE svg PUBLIC "-//W3C//DTD SVG 1.1//EN"
 "http://www.w3.org/Graphics/SVG/1.1/DTD/svg11.dtd">
<!-- Generated by graphviz version 2.43.0 (0)
 -->
<!-- Title: 頭腦爭霸戰 Pages: 1 -->
<svg width="1377pt" height="1209pt"
 viewBox="0.00 0.00 1377.44 1208.61" xmlns="http://www.w3.org/2000/svg" xmlns:xlink="http://www.w3.org/1999/xlink">
<g id="graph0" class="graph" transform="scale(1 1) rotate(0) translate(4 1204.61)">
<title>頭腦爭霸戰</title>
<polygon fill="white" stroke="transparent" points="-4,4 -4,-1204.61 1373.44,-1204.61 1373.44,4 -4,4"/>
<!-- social_motivation -->
<g id="node1" class="node">
<title>social_motivation</title>
<ellipse fill="#f0c0ff" stroke="black" cx="457.44" cy="-841.13" rx="48.19" ry="18"/>
<text text-anchor="middle" x="457.44" y="-837.43" font-family="Times,serif" font-size="14.00">社交意圖</text>
</g>
<!-- attention_scarcity -->
<g id="node11" class="node">
<title>attention_scarcity</title>
<ellipse fill="none" stroke="black" cx="372.44" cy="-768.13" rx="57.39" ry="18"/>
<text text-anchor="middle" x="372.44" y="-764.43" font-family="Times,serif" font-size="14.00">注意力稀有</text>
</g>
<!-- social_motivation&#45;&gt;attention_scarcity -->
<g id="edge12" class="edge">
<title>social_motivation&#45;&gt;attention_scarcity</title>
<path fill="none" stroke="black" d="M438.57,-824.37C427.18,-814.85 412.46,-802.56 399.8,-791.99"/>
<polygon fill="black" stroke="black" points="401.76,-789.06 391.84,-785.33 397.27,-794.43 401.76,-789.06"/>
</g>
<!-- social_media -->
<g id="node12" class="node">
<title>social_media</title>
<ellipse fill="none" stroke="black" cx="721.44" cy="-768.13" rx="48.19" ry="18"/>
<text text-anchor="middle" x="721.44" y="-764.43" font-family="Times,serif" font-size="14.00">社群媒體</text>
</g>
<!-- social_motivation&#45;&gt;social_media -->
<g id="edge14" class="edge">
<title>social_motivation&#45;&gt;social_media</title>
<path fill="none" stroke="black" d="M495.26,-829.95C542.31,-817.3 622.67,-795.69 673.85,-781.92"/>
<polygon fill="black" stroke="black" points="674.94,-785.26 683.68,-779.28 673.12,-778.5 674.94,-785.26"/>
</g>
<!-- giving_up_privacy -->
<g id="node20" class="node">
<title>giving_up_privacy</title>
<ellipse fill="none" stroke="black" cx="656.44" cy="-408.22" rx="48.19" ry="18"/>
<text text-anchor="middle" x="656.44" y="-404.52" font-family="Times,serif" font-size="14.00">放棄隱私</text>
</g>
<!-- social_motivation&#45;&gt;giving_up_privacy -->
<g id="edge34" class="edge">
<title>social_motivation&#45;&gt;giving_up_privacy</title>
<path fill="none" stroke="black" d="M452.8,-823.06C442.61,-781.79 422.45,-674.7 465.44,-602.96 480.49,-577.85 495.03,-580.25 522.44,-569.96 561.45,-555.32 583.64,-580.02 614.44,-551.96 646.86,-522.42 654.75,-469.27 656.39,-436.82"/>
<polygon fill="black" stroke="black" points="659.89,-436.79 656.73,-426.68 652.89,-436.55 659.89,-436.79"/>
<g id="a_edge34&#45;label"><a xlink:title="FOMO&#10;zenly">
<text text-anchor="middle" x="468.94" y="-647.34" font-family="Times,serif" font-size="14.00">*</text>
</a>
</g>
</g>
<!-- monetary_motivation -->
<g id="node2" class="node">
<title>monetary_motivation</title>
<ellipse fill="#f0c0ff" stroke="black" cx="905.44" cy="-841.13" rx="48.19" ry="18"/>
<text text-anchor="middle" x="905.44" y="-837.43" font-family="Times,serif" font-size="14.00">金錢意圖</text>
</g>
<!-- monetary_motivation&#45;&gt;social_media -->
<g id="edge53" class="edge">
<title>monetary_motivation&#45;&gt;social_media</title>
<path fill="none" stroke="black" d="M872.97,-827.6C842.36,-815.78 796.33,-798.03 763.05,-785.18"/>
<polygon fill="black" stroke="black" points="764.18,-781.87 753.59,-781.53 761.66,-788.4 764.18,-781.87"/>
</g>
<!-- surveillance_capitalism -->
<g id="node22" class="node">
<title>surveillance_capitalism</title>
<ellipse fill="none" stroke="black" cx="451.44" cy="-525.09" rx="154.3" ry="26.74"/>
<text text-anchor="middle" x="451.44" y="-528.89" font-family="Times,serif" font-size="14.00">surveillance capitalism</text>
<text text-anchor="middle" x="451.44" y="-513.89" font-family="Times,serif" font-size="14.00">例： targeted advertisement</text>
</g>
<!-- monetary_motivation&#45;&gt;surveillance_capitalism -->
<g id="edge39" class="edge">
<title>monetary_motivation&#45;&gt;surveillance_capitalism</title>
<path fill="none" stroke="black" d="M869.7,-828.92C862.68,-826.88 855.35,-824.85 848.44,-823.13 767.5,-802.96 725.39,-843.07 664.44,-786.13 602.77,-728.52 668.69,-667.59 614.44,-602.96 595.37,-580.24 568.06,-563.8 541.24,-552.11"/>
<polygon fill="black" stroke="black" points="542.36,-548.79 531.78,-548.17 539.67,-555.25 542.36,-548.79"/>
</g>
<!-- social_engineering -->
<g id="node24" class="node">
<title>social_engineering</title>
<ellipse fill="none" stroke="black" cx="1179.44" cy="-207.61" rx="69.59" ry="18"/>
<text text-anchor="middle" x="1179.44" y="-203.91" font-family="Times,serif" font-size="14.00">社交工程/詐騙</text>
</g>
<!-- monetary_motivation&#45;&gt;social_engineering -->
<g id="edge54" class="edge">
<title>monetary_motivation&#45;&gt;social_engineering</title>
<path fill="none" stroke="black" d="M946.76,-831.86C1023.3,-813.88 1179.44,-763.55 1179.44,-652.04 1179.44,-652.04 1179.44,-652.04 1179.44,-311.35 1179.44,-285.8 1179.44,-256.67 1179.44,-235.97"/>
<polygon fill="black" stroke="black" points="1182.94,-235.7 1179.44,-225.7 1175.94,-235.7 1182.94,-235.7"/>
</g>
<!-- political_motivation -->
<g id="node3" class="node">
<title>political_motivation</title>
<ellipse fill="#f0c0ff" stroke="black" cx="83.44" cy="-651.04" rx="83.38" ry="26.74"/>
<text text-anchor="middle" x="83.44" y="-654.84" font-family="Times,serif" font-size="14.00">良善的vs惡意的</text>
<text text-anchor="middle" x="83.44" y="-639.84" font-family="Times,serif" font-size="14.00">政治意圖</text>
</g>
<!-- misinformation -->
<g id="node19" class="node">
<title>misinformation</title>
<ellipse fill="none" stroke="black" cx="361.44" cy="-207.61" rx="100.32" ry="26.74"/>
<text text-anchor="middle" x="361.44" y="-211.41" font-family="Times,serif" font-size="14.00">misinformation +</text>
<text text-anchor="middle" x="361.44" y="-196.41" font-family="Times,serif" font-size="14.00">malinformation</text>
</g>
<!-- political_motivation&#45;&gt;misinformation -->
<g id="edge55" class="edge">
<title>political_motivation&#45;&gt;misinformation</title>
<path fill="none" stroke="black" d="M64.17,-624.48C47.97,-600.41 27.44,-562.69 27.44,-526.09 27.44,-526.09 27.44,-526.09 27.44,-311.35 27.44,-262.15 161.49,-234.06 259.74,-220.07"/>
<polygon fill="black" stroke="black" points="260.31,-223.53 269.73,-218.68 259.34,-216.59 260.31,-223.53"/>
</g>
<!-- political_motivation&#45;&gt;surveillance_capitalism -->
<g id="edge56" class="edge">
<title>political_motivation&#45;&gt;surveillance_capitalism</title>
<path fill="none" stroke="black" d="M123.85,-627.41C139.9,-619 158.73,-609.84 176.44,-602.96 232.65,-581.12 297.55,-562.67 350.17,-549.33"/>
<polygon fill="black" stroke="black" points="351.34,-552.65 360.19,-546.82 349.64,-545.86 351.34,-552.65"/>
</g>
<!-- kol -->
<g id="node25" class="node">
<title>kol</title>
<ellipse fill="none" stroke="black" cx="138.44" cy="-462.22" rx="57.39" ry="18"/>
<text text-anchor="middle" x="138.44" y="-458.52" font-family="Times,serif" font-size="14.00">小編與網紅</text>
</g>
<!-- political_motivation&#45;&gt;kol -->
<g id="edge57" class="edge">
<title>political_motivation&#45;&gt;kol</title>
<path fill="none" stroke="black" d="M91.09,-624.07C101.48,-588.75 119.99,-525.9 130.52,-490.12"/>
<polygon fill="black" stroke="black" points="133.93,-490.94 133.39,-480.36 127.21,-488.97 133.93,-490.94"/>
</g>
<!-- internet -->
<g id="node4" class="node">
<title>internet</title>
<ellipse fill="#c0ffff" stroke="black" cx="992.44" cy="-1182.61" rx="48.19" ry="18"/>
<text text-anchor="middle" x="992.44" y="-1178.91" font-family="Times,serif" font-size="14.00">網際網路</text>
</g>
<!-- copy_cost_0 -->
<g id="node5" class="node">
<title>copy_cost_0</title>
<ellipse fill="none" stroke="black" cx="905.44" cy="-1100.74" rx="75.29" ry="18"/>
<text text-anchor="middle" x="905.44" y="-1097.04" font-family="Times,serif" font-size="14.00">資訊複製零成本</text>
</g>
<!-- internet&#45;&gt;copy_cost_0 -->
<g id="edge1" class="edge">
<title>internet&#45;&gt;copy_cost_0</title>
<path fill="none" stroke="black" d="M974.83,-1165.44C962.26,-1153.91 945.16,-1138.21 931.08,-1125.28"/>
<polygon fill="black" stroke="black" points="933.35,-1122.61 923.62,-1118.43 928.62,-1127.77 933.35,-1122.61"/>
</g>
<!-- everone_producer -->
<g id="node7" class="node">
<title>everone_producer</title>
<ellipse fill="none" stroke="black" cx="1080.44" cy="-1100.74" rx="82.05" ry="26.74"/>
<text text-anchor="middle" x="1080.44" y="-1104.54" font-family="Times,serif" font-size="14.00">每個人都可以是</text>
<text text-anchor="middle" x="1080.44" y="-1089.54" font-family="Times,serif" font-size="14.00">資訊生產者</text>
</g>
<!-- internet&#45;&gt;everone_producer -->
<g id="edge2" class="edge">
<title>internet&#45;&gt;everone_producer</title>
<path fill="none" stroke="black" d="M1010.25,-1165.44C1020.48,-1156.16 1033.68,-1144.18 1045.87,-1133.11"/>
<polygon fill="black" stroke="black" points="1048.24,-1135.69 1053.29,-1126.38 1043.53,-1130.51 1048.24,-1135.69"/>
</g>
<!-- open_data -->
<g id="node6" class="node">
<title>open_data</title>
<ellipse fill="none" stroke="black" cx="868.44" cy="-923" rx="48.19" ry="18"/>
<text text-anchor="middle" x="868.44" y="-919.3" font-family="Times,serif" font-size="14.00">開放資料</text>
</g>
<!-- copy_cost_0&#45;&gt;open_data -->
<g id="edge29" class="edge">
<title>copy_cost_0&#45;&gt;open_data</title>
<path fill="none" stroke="black" d="M901.82,-1082.57C895.37,-1051.91 881.82,-987.55 874.11,-950.95"/>
<polygon fill="black" stroke="black" points="877.5,-950.04 872.01,-940.98 870.65,-951.49 877.5,-950.04"/>
</g>
<!-- free_software -->
<g id="node8" class="node">
<title>free_software</title>
<ellipse fill="#ffffe0" stroke="black" cx="1136.44" cy="-1018.87" rx="48.19" ry="18"/>
<text text-anchor="middle" x="1136.44" y="-1015.17" font-family="Times,serif" font-size="14.00">自由軟體</text>
</g>
<!-- copy_cost_0&#45;&gt;free_software -->
<g id="edge3" class="edge">
<title>copy_cost_0&#45;&gt;free_software</title>
<path fill="none" stroke="black" d="M946.47,-1085.55C987.52,-1071.36 1050.45,-1049.6 1092.49,-1035.06"/>
<polygon fill="black" stroke="black" points="1093.87,-1038.29 1102.18,-1031.71 1091.59,-1031.67 1093.87,-1038.29"/>
</g>
<!-- info_explosion -->
<g id="node10" class="node">
<title>info_explosion</title>
<ellipse fill="#ffffe0" stroke="black" cx="791.44" cy="-841.13" rx="48.19" ry="18"/>
<text text-anchor="middle" x="791.44" y="-837.43" font-family="Times,serif" font-size="14.00">資訊爆炸</text>
</g>
<!-- copy_cost_0&#45;&gt;info_explosion -->
<g id="edge6" class="edge">
<title>copy_cost_0&#45;&gt;info_explosion</title>
<path fill="none" stroke="black" d="M891.85,-1082.9C871.12,-1056.31 831.86,-1002.23 811.44,-949.87 801.22,-923.67 796.13,-891.81 793.66,-869.55"/>
<polygon fill="black" stroke="black" points="797.13,-869.07 792.65,-859.47 790.16,-869.77 797.13,-869.07"/>
</g>
<!-- copy_cost_0&#45;&gt;social_media -->
<g id="edge15" class="edge">
<title>copy_cost_0&#45;&gt;social_media</title>
<path fill="none" stroke="black" d="M831.44,-1097.24C778.09,-1090.99 715.44,-1072.47 715.44,-1019.87 715.44,-1019.87 715.44,-1019.87 715.44,-840.13 715.44,-825.73 716.68,-809.74 718.03,-796.59"/>
<polygon fill="black" stroke="black" points="721.55,-796.63 719.17,-786.31 714.59,-795.86 721.55,-796.63"/>
</g>
<!-- long_tail -->
<g id="node16" class="node">
<title>long_tail</title>
<ellipse fill="none" stroke="black" cx="1103.44" cy="-651.04" rx="48.19" ry="18"/>
<text text-anchor="middle" x="1103.44" y="-647.34" font-family="Times,serif" font-size="14.00">長尾現象</text>
</g>
<!-- copy_cost_0&#45;&gt;long_tail -->
<g id="edge18" class="edge">
<title>copy_cost_0&#45;&gt;long_tail</title>
<path fill="none" stroke="black" d="M912.96,-1082.73C943.1,-1014.59 1055.28,-760.94 1091.84,-678.27"/>
<polygon fill="black" stroke="black" points="1095.07,-679.63 1095.91,-669.06 1088.67,-676.79 1095.07,-679.63"/>
</g>
<!-- copy_cost_0&#45;&gt;social_engineering -->
<g id="edge7" class="edge">
<title>copy_cost_0&#45;&gt;social_engineering</title>
<path fill="none" stroke="black" d="M946.99,-1085.66C960.43,-1081.45 975.47,-1077.1 989.44,-1073.87 1064.39,-1056.5 1331.44,-1096.81 1331.44,-1019.87 1331.44,-1019.87 1331.44,-1019.87 1331.44,-311.35 1331.44,-264.81 1281.92,-237.93 1239.41,-223.42"/>
<polygon fill="black" stroke="black" points="1240.22,-220.01 1229.63,-220.26 1238.07,-226.67 1240.22,-220.01"/>
</g>
<!-- open_data&#45;&gt;info_explosion -->
<g id="edge30" class="edge">
<title>open_data&#45;&gt;info_explosion</title>
<path fill="none" stroke="black" d="M852.86,-905.83C841.69,-894.25 826.48,-878.47 813.99,-865.52"/>
<polygon fill="black" stroke="black" points="816.46,-863.04 807,-858.27 811.42,-867.89 816.46,-863.04"/>
</g>
<!-- visualization -->
<g id="node15" class="node">
<title>visualization</title>
<ellipse fill="#ffffe0" stroke="black" cx="1063.44" cy="-525.09" rx="88.28" ry="26.74"/>
<text text-anchor="middle" x="1063.44" y="-528.89" font-family="Times,serif" font-size="14.00">梗圖 + 懶人包 +</text>
<text text-anchor="middle" x="1063.44" y="-513.89" font-family="Times,serif" font-size="14.00">資料視覺化</text>
</g>
<!-- open_data&#45;&gt;visualization -->
<g id="edge31" class="edge">
<title>open_data&#45;&gt;visualization</title>
<path fill="none" stroke="black" d="M895.85,-907.9C915.94,-896.63 943,-879.38 962.44,-859.13 981.92,-838.84 984.65,-831.1 995.44,-805.13 1004.76,-782.68 1039.33,-632.54 1055.28,-562.26"/>
<polygon fill="black" stroke="black" points="1058.79,-562.62 1057.58,-552.09 1051.96,-561.07 1058.79,-562.62"/>
<g id="a_edge31&#45;label"><a xlink:title="Hans Rosling&#10;OWID">
<text text-anchor="middle" x="1013.94" y="-764.43" font-family="Times,serif" font-size="14.00">*</text>
</a>
</g>
</g>
<!-- everone_producer&#45;&gt;free_software -->
<g id="edge4" class="edge">
<title>everone_producer&#45;&gt;free_software</title>
<path fill="none" stroke="black" d="M1098.16,-1074.47C1104.83,-1064.95 1112.41,-1054.14 1119.05,-1044.67"/>
<polygon fill="black" stroke="black" points="1121.96,-1046.61 1124.84,-1036.42 1116.23,-1042.59 1121.96,-1046.61"/>
</g>
<!-- everone_producer&#45;&gt;info_explosion -->
<g id="edge8" class="edge">
<title>everone_producer&#45;&gt;info_explosion</title>
<path fill="none" stroke="black" d="M1034.79,-1078.17C1024.64,-1071.96 1014.5,-1064.48 1006.44,-1055.87 952.04,-997.76 984.1,-949.94 925.44,-896.13 911.9,-883.7 869.95,-867.81 836.56,-856.49"/>
<polygon fill="black" stroke="black" points="837.55,-853.13 826.96,-853.28 835.33,-859.77 837.55,-853.13"/>
</g>
<!-- everone_producer&#45;&gt;social_media -->
<g id="edge16" class="edge">
<title>everone_producer&#45;&gt;social_media</title>
<path fill="none" stroke="black" d="M1077.25,-1073.76C1069.03,-1018.56 1041.9,-889.25 962.44,-823.13 934.65,-800.01 838.92,-783.92 776.8,-775.63"/>
<polygon fill="black" stroke="black" points="777.12,-772.14 766.75,-774.31 776.22,-779.08 777.12,-772.14"/>
</g>
<!-- everone_producer&#45;&gt;social_engineering -->
<g id="edge9" class="edge">
<title>everone_producer&#45;&gt;social_engineering</title>
<path fill="none" stroke="black" d="M1159.73,-1093.58C1226.38,-1087.15 1315.42,-1075.25 1345.44,-1055.87 1361.59,-1045.43 1369.44,-1039.1 1369.44,-1019.87 1369.44,-1019.87 1369.44,-1019.87 1369.44,-311.35 1369.44,-283.1 1366.66,-271.13 1345.44,-252.48 1321.1,-231.09 1287.5,-219.95 1256.89,-214.22"/>
<polygon fill="black" stroke="black" points="1257.08,-210.7 1246.64,-212.48 1255.91,-217.61 1257.08,-210.7"/>
</g>
<!-- dem_prod_tool -->
<g id="node9" class="node">
<title>dem_prod_tool</title>
<ellipse fill="none" stroke="black" cx="1167.44" cy="-923" rx="82.05" ry="26.74"/>
<text text-anchor="middle" x="1167.44" y="-926.8" font-family="Times,serif" font-size="14.00">圖文影音</text>
<text text-anchor="middle" x="1167.44" y="-911.8" font-family="Times,serif" font-size="14.00">創作工具民主化</text>
</g>
<!-- free_software&#45;&gt;dem_prod_tool -->
<g id="edge5" class="edge">
<title>free_software&#45;&gt;dem_prod_tool</title>
<path fill="none" stroke="black" d="M1142.12,-1000.65C1145.89,-989.24 1150.98,-973.84 1155.6,-959.84"/>
<polygon fill="black" stroke="black" points="1159.05,-960.56 1158.86,-949.97 1152.4,-958.36 1159.05,-960.56"/>
<g id="a_edge5&#45;label"><a xlink:title="inkscape&#10;gimp&#10;audacity">
<text text-anchor="middle" x="1155.94" y="-971.67" font-family="Times,serif" font-size="14.00">*</text>
</a>
</g>
</g>
<!-- artificial_intelligence -->
<g id="node17" class="node">
<title>artificial_intelligence</title>
<ellipse fill="none" stroke="black" cx="735.44" cy="-312.35" rx="48.19" ry="18"/>
<text text-anchor="middle" x="735.44" y="-308.65" font-family="Times,serif" font-size="14.00">人工智慧</text>
</g>
<!-- free_software&#45;&gt;artificial_intelligence -->
<g id="edge35" class="edge">
<title>free_software&#45;&gt;artificial_intelligence</title>
<path fill="none" stroke="black" d="M1179.76,-1011.04C1226.23,-1000.96 1293.44,-977.19 1293.44,-924 1293.44,-924 1293.44,-924 1293.44,-576.46 1293.44,-357.29 936.91,-320.39 793.83,-314.41"/>
<polygon fill="black" stroke="black" points="793.62,-310.9 783.5,-314.01 793.36,-317.89 793.62,-310.9"/>
</g>
<!-- dem_prod_tool&#45;&gt;info_explosion -->
<g id="edge10" class="edge">
<title>dem_prod_tool&#45;&gt;info_explosion</title>
<path fill="none" stroke="black" d="M1101.25,-906.91C1060.23,-897.78 1006.39,-886.19 958.44,-877.13 909.76,-867.92 896.72,-870.23 848.44,-859.13 844.59,-858.24 840.61,-857.24 836.64,-856.18"/>
<polygon fill="black" stroke="black" points="837.4,-852.76 826.83,-853.44 835.52,-859.5 837.4,-852.76"/>
</g>
<!-- dem_prod_tool&#45;&gt;social_media -->
<g id="edge17" class="edge">
<title>dem_prod_tool&#45;&gt;social_media</title>
<path fill="none" stroke="black" d="M1140.28,-897.56C1114.44,-875.41 1073.64,-843.26 1033.44,-823.13 951.79,-782.24 844.74,-771.68 779.62,-769.3"/>
<polygon fill="black" stroke="black" points="779.65,-765.8 769.54,-768.99 779.43,-772.8 779.65,-765.8"/>
</g>
<!-- dem_prod_tool&#45;&gt;visualization -->
<g id="edge32" class="edge">
<title>dem_prod_tool&#45;&gt;visualization</title>
<path fill="none" stroke="black" d="M1168.79,-895.86C1169.21,-889.71 1169.76,-883.18 1170.44,-877.13 1178.47,-805.74 1203.51,-788.26 1193.44,-717.13 1186.03,-664.83 1189.87,-646.82 1160.44,-602.96 1147.89,-584.25 1129.35,-567.98 1111.83,-555.28"/>
<polygon fill="black" stroke="black" points="1113.54,-552.2 1103.34,-549.33 1109.52,-557.94 1113.54,-552.2"/>
<g id="a_edge32&#45;label"><a xlink:title="metabase&#10;grafana&#10;plotly&#10;gnuplot&#10;scatplot">
<text text-anchor="middle" x="1198.94" y="-764.43" font-family="Times,serif" font-size="14.00">*</text>
</a>
</g>
</g>
<!-- dem_prod_tool&#45;&gt;long_tail -->
<g id="edge19" class="edge">
<title>dem_prod_tool&#45;&gt;long_tail</title>
<path fill="none" stroke="black" d="M1171.05,-895.83C1171.38,-889.67 1171.32,-883.15 1170.44,-877.13 1159.66,-803.14 1129.94,-719.66 1113.95,-678.24"/>
<polygon fill="black" stroke="black" points="1117.2,-676.93 1110.29,-668.89 1110.68,-679.48 1117.2,-676.93"/>
</g>
<!-- dem_prod_tool&#45;&gt;social_engineering -->
<g id="edge11" class="edge">
<title>dem_prod_tool&#45;&gt;social_engineering</title>
<path fill="none" stroke="black" d="M1213.5,-900.6C1234.79,-887.25 1255.44,-867.71 1255.44,-842.13 1255.44,-842.13 1255.44,-842.13 1255.44,-311.35 1255.44,-279.09 1230.91,-250.32 1209.73,-231.5"/>
<polygon fill="black" stroke="black" points="1211.72,-228.59 1201.83,-224.78 1207.18,-233.93 1211.72,-228.59"/>
</g>
<!-- info_explosion&#45;&gt;attention_scarcity -->
<g id="edge13" class="edge">
<title>info_explosion&#45;&gt;attention_scarcity</title>
<path fill="none" stroke="black" d="M748.57,-832.86C673.31,-820.11 517.31,-793.68 431.76,-779.18"/>
<polygon fill="black" stroke="black" points="432.13,-775.69 421.69,-777.47 430.96,-782.59 432.13,-775.69"/>
</g>
<!-- info_explosion&#45;&gt;artificial_intelligence -->
<g id="edge36" class="edge">
<title>info_explosion&#45;&gt;artificial_intelligence</title>
<path fill="none" stroke="black" d="M821.53,-826.99C863.91,-806.63 939.44,-763.01 970.44,-699.13 989.1,-660.67 980.54,-644.49 970.44,-602.96 941.19,-482.7 933.97,-437.11 839.44,-357.22 823.38,-343.65 802.51,-333.75 783.69,-326.82"/>
<polygon fill="black" stroke="black" points="784.66,-323.46 774.07,-323.47 782.36,-330.07 784.66,-323.46"/>
</g>
<!-- emotion -->
<g id="node13" class="node">
<title>emotion</title>
<ellipse fill="#ffffe0" stroke="black" cx="247.44" cy="-651.04" rx="62.45" ry="26.74"/>
<text text-anchor="middle" x="247.44" y="-654.84" font-family="Times,serif" font-size="14.00">情緒決定</text>
<text text-anchor="middle" x="247.44" y="-639.84" font-family="Times,serif" font-size="14.00">資訊傳導度</text>
</g>
<!-- attention_scarcity&#45;&gt;emotion -->
<g id="edge21" class="edge">
<title>attention_scarcity&#45;&gt;emotion</title>
<path fill="none" stroke="black" d="M341.56,-752.77C331.1,-747.13 319.73,-740.09 310.44,-732.13 294.81,-718.72 280.36,-700.94 269.26,-685.54"/>
<polygon fill="black" stroke="black" points="272.06,-683.44 263.45,-677.27 266.33,-687.46 272.06,-683.44"/>
</g>
<!-- attention_span -->
<g id="node14" class="node">
<title>attention_span</title>
<ellipse fill="#ffffe0" stroke="black" cx="543.44" cy="-651.04" rx="62.45" ry="26.74"/>
<text text-anchor="middle" x="543.44" y="-654.84" font-family="Times,serif" font-size="14.00">人類普遍</text>
<text text-anchor="middle" x="543.44" y="-639.84" font-family="Times,serif" font-size="14.00">注意力變短</text>
</g>
<!-- attention_scarcity&#45;&gt;attention_span -->
<g id="edge22" class="edge">
<title>attention_scarcity&#45;&gt;attention_span</title>
<path fill="none" stroke="black" d="M395.5,-751.61C422.78,-733.25 468.71,-702.34 502.17,-679.82"/>
<polygon fill="black" stroke="black" points="504.48,-682.48 510.82,-674 500.57,-676.68 504.48,-682.48"/>
</g>
<!-- attention_economy -->
<g id="node18" class="node">
<title>attention_economy</title>
<ellipse fill="none" stroke="black" cx="849.44" cy="-651.04" rx="112.36" ry="48.17"/>
<text text-anchor="middle" x="849.44" y="-669.84" font-family="Times,serif" font-size="14.00">注意力經濟：</text>
<text text-anchor="middle" x="849.44" y="-654.84" font-family="Times,serif" font-size="14.00">創用CC +</text>
<text text-anchor="middle" x="849.44" y="-639.84" font-family="Times,serif" font-size="14.00">exposure culture +</text>
<text text-anchor="middle" x="849.44" y="-624.84" font-family="Times,serif" font-size="14.00">reputation economy</text>
</g>
<!-- attention_scarcity&#45;&gt;attention_economy -->
<g id="edge23" class="edge">
<title>attention_scarcity&#45;&gt;attention_economy</title>
<path fill="none" stroke="black" d="M416.46,-756.51C489.97,-738.77 639.74,-702.64 742.34,-677.88"/>
<polygon fill="black" stroke="black" points="743.22,-681.27 752.12,-675.52 741.58,-674.47 743.22,-681.27"/>
</g>
<!-- attention_scarcity&#45;&gt;giving_up_privacy -->
<g id="edge24" class="edge">
<title>attention_scarcity&#45;&gt;giving_up_privacy</title>
<path fill="none" stroke="black" d="M388.36,-750.81C400.65,-737.63 417.51,-718.19 429.44,-699.13 454.27,-659.44 437.15,-633.72 472.44,-602.96 502.97,-576.34 622.12,-583.58 647.44,-551.96 673.65,-519.22 669.19,-467.55 663.12,-436.17"/>
<polygon fill="black" stroke="black" points="666.54,-435.43 661.05,-426.37 659.7,-436.88 666.54,-435.43"/>
</g>
<!-- attention_scarcity&#45;&gt;surveillance_capitalism -->
<g id="edge40" class="edge">
<title>attention_scarcity&#45;&gt;surveillance_capitalism</title>
<path fill="none" stroke="black" d="M372.33,-749.65C372.71,-718.87 376.09,-653.45 396.44,-602.96 402.58,-587.73 412.32,-572.66 421.91,-559.95"/>
<polygon fill="black" stroke="black" points="424.76,-562 428.16,-551.96 419.24,-557.69 424.76,-562"/>
</g>
<!-- social_media&#45;&gt;emotion -->
<g id="edge28" class="edge">
<title>social_media&#45;&gt;emotion</title>
<path fill="none" stroke="black" d="M678.79,-759.61C616.38,-748.29 496.68,-725.38 396.44,-699.13 365.94,-691.14 332.42,-680.7 304.91,-671.68"/>
<polygon fill="black" stroke="black" points="305.66,-668.24 295.06,-668.43 303.46,-674.89 305.66,-668.24"/>
<g id="a_edge28&#45;label"><a xlink:title="一個怒值五個讚">
<text text-anchor="middle" x="532.94" y="-720.93" font-family="Times,serif" font-size="14.00">*</text>
</a>
</g>
</g>
<!-- social_media&#45;&gt;attention_span -->
<g id="edge25" class="edge">
<title>social_media&#45;&gt;attention_span</title>
<path fill="none" stroke="black" d="M695.65,-752.93C684.68,-746.73 671.81,-739.27 660.44,-732.13 634.19,-715.65 605.46,-696.01 583.03,-680.3"/>
<polygon fill="black" stroke="black" points="584.96,-677.38 574.77,-674.49 580.93,-683.1 584.96,-677.38"/>
</g>
<!-- social_media&#45;&gt;long_tail -->
<g id="edge20" class="edge">
<title>social_media&#45;&gt;long_tail</title>
<path fill="none" stroke="black" d="M760.51,-757.41C809.76,-744.94 896.88,-722.16 970.44,-699.13 1001.12,-689.52 1035.29,-677.39 1061.32,-667.85"/>
<polygon fill="black" stroke="black" points="1062.7,-671.07 1070.87,-664.33 1060.28,-664.5 1062.7,-671.07"/>
</g>
<!-- social_media&#45;&gt;attention_economy -->
<g id="edge26" class="edge">
<title>social_media&#45;&gt;attention_economy</title>
<path fill="none" stroke="black" d="M739.24,-751.13C753.61,-738.2 774.65,-719.29 794.49,-701.44"/>
<polygon fill="black" stroke="black" points="796.93,-703.96 802.03,-694.67 792.25,-698.75 796.93,-703.96"/>
</g>
<!-- social_media&#45;&gt;giving_up_privacy -->
<g id="edge27" class="edge">
<title>social_media&#45;&gt;giving_up_privacy</title>
<path fill="none" stroke="black" d="M722.88,-749.8C726.32,-699.99 731.62,-553 685.44,-444.22 683.85,-440.49 681.74,-436.84 679.36,-433.4"/>
<polygon fill="black" stroke="black" points="681.99,-431.08 673.1,-425.33 676.46,-435.37 681.99,-431.08"/>
</g>
<!-- social_media&#45;&gt;surveillance_capitalism -->
<g id="edge41" class="edge">
<title>social_media&#45;&gt;surveillance_capitalism</title>
<path fill="none" stroke="black" d="M714.49,-750.08C712.21,-744.39 709.68,-738 707.44,-732.13 701.87,-717.55 700.31,-713.95 695.44,-699.13 676.76,-642.28 701.33,-610.63 657.44,-569.96 645.41,-558.81 616.51,-550.09 584.04,-543.46"/>
<polygon fill="black" stroke="black" points="584.35,-539.96 573.86,-541.47 583,-546.83 584.35,-539.96"/>
</g>
<!-- emotion&#45;&gt;misinformation -->
<g id="edge58" class="edge">
<title>emotion&#45;&gt;misinformation</title>
<path fill="none" stroke="black" d="M243.22,-624.11C235.78,-571.93 223.92,-451.25 255.44,-357.22 270.45,-312.45 303.89,-269.46 329.23,-241.33"/>
<polygon fill="black" stroke="black" points="331.95,-243.54 336.14,-233.81 326.79,-238.81 331.95,-243.54"/>
</g>
<!-- emotion&#45;&gt;surveillance_capitalism -->
<g id="edge59" class="edge">
<title>emotion&#45;&gt;surveillance_capitalism</title>
<path fill="none" stroke="black" d="M276.12,-627.1C297.96,-610.19 329.17,-587.22 358.44,-569.96 367.41,-564.67 377.13,-559.51 386.78,-554.7"/>
<polygon fill="black" stroke="black" points="388.54,-557.73 395.98,-550.2 385.46,-551.44 388.54,-557.73"/>
</g>
<!-- emotion&#45;&gt;kol -->
<g id="edge60" class="edge">
<title>emotion&#45;&gt;kol</title>
<path fill="none" stroke="black" d="M230.67,-624.96C222.81,-612.97 213.43,-598.36 205.44,-584.96 186.12,-552.59 165.42,-514.38 152.23,-489.52"/>
<polygon fill="black" stroke="black" points="155.16,-487.57 147.39,-480.37 148.97,-490.85 155.16,-487.57"/>
</g>
<!-- attention_span&#45;&gt;visualization -->
<g id="edge33" class="edge">
<title>attention_span&#45;&gt;visualization</title>
<path fill="none" stroke="black" d="M595.99,-636.32C632.97,-626.74 683.66,-613.79 728.44,-602.96 815.5,-581.9 915.65,-559.1 983.6,-543.85"/>
<polygon fill="black" stroke="black" points="984.4,-547.26 993.39,-541.66 982.87,-540.43 984.4,-547.26"/>
<g id="a_edge33&#45;label"><a xlink:title="infographics&#10;infomercial">
<text text-anchor="middle" x="868.94" y="-573.76" font-family="Times,serif" font-size="14.00">*</text>
</a>
</g>
</g>
<!-- conflict -->
<g id="node27" class="node">
<title>conflict</title>
<polygon fill="#ff8080" stroke="black" points="305.94,-135.87 160.94,-135.87 160.94,-97.87 305.94,-97.87 305.94,-135.87"/>
<text text-anchor="middle" x="233.44" y="-120.67" font-family="Times,serif" font-size="14.00">[環保/宗教/性別/...]</text>
<text text-anchor="middle" x="233.44" y="-105.67" font-family="Times,serif" font-size="14.00">各種議題的社會對立</text>
</g>
<!-- attention_span&#45;&gt;conflict -->
<g id="edge45" class="edge">
<title>attention_span&#45;&gt;conflict</title>
<path fill="none" stroke="black" d="M515.11,-626.84C503.65,-618.36 489.95,-609.3 476.44,-602.96 387.59,-561.27 269.44,-624.23 269.44,-526.09 269.44,-526.09 269.44,-526.09 269.44,-363.72 269.44,-342.25 247.67,-205.54 237.99,-145.77"/>
<polygon fill="black" stroke="black" points="241.44,-145.19 236.38,-135.88 234.53,-146.31 241.44,-145.19"/>
</g>
<!-- artificial_intelligence&#45;&gt;misinformation -->
<g id="edge62" class="edge">
<title>artificial_intelligence&#45;&gt;misinformation</title>
<path fill="none" stroke="#ff0000" d="M697.34,-302.96C637.29,-286.46 518.44,-253.81 439.3,-232.07"/>
<path fill="none" stroke="white" d="M697.87,-301.03C637.82,-284.53 518.97,-251.88 439.83,-230.14"/>
<path fill="none" stroke="#ff0000" d="M698.4,-299.1C638.35,-282.61 519.5,-249.96 440.36,-228.22"/>
<polygon fill="#ff0000" stroke="#ff0000" points="440.47,-226.69 429.9,-227.42 438.62,-233.44 440.47,-226.69"/>
<g id="a_edge62&#45;label"><a xlink:title="deepfake">
<text text-anchor="middle" x="573.94" y="-256.28" font-family="Times,serif" font-size="14.00">*</text>
</a>
</g>
</g>
<!-- artificial_intelligence&#45;&gt;surveillance_capitalism -->
<g id="edge61" class="edge">
<title>artificial_intelligence&#45;&gt;surveillance_capitalism</title>
<path fill="none" stroke="#ff0000" d="M704.57,-327.79C675.17,-340.63 631.21,-362.87 600.81,-391.67 566.64,-422.02 578.83,-447.77 542.77,-481.72 536.33,-487.41 529.24,-492.43 521.74,-496.99"/>
<path fill="none" stroke="white" d="M703.76,-325.96C674.26,-338.85 630.31,-361.09 599.44,-390.22 564.83,-422.88 577.03,-448.63 541.44,-480.22 535.18,-485.78 528.09,-490.8 520.7,-495.28"/>
<path fill="none" stroke="#ff0000" d="M702.96,-324.13C673.36,-337.06 629.41,-359.31 598.07,-388.77 563.02,-423.74 575.22,-449.49 540.11,-478.72 534.02,-484.14 526.93,-489.16 519.66,-493.57"/>
<polygon fill="#ff0000" stroke="#ff0000" points="518.87,-492.3 511.93,-500.3 522.35,-498.37 518.87,-492.3"/>
</g>
<!-- artificial_intelligence&#45;&gt;social_engineering -->
<g id="edge63" class="edge">
<title>artificial_intelligence&#45;&gt;social_engineering</title>
<path fill="none" stroke="#ff0000" d="M744.45,-293.4C754.29,-279.46 770.04,-260.68 789.54,-250.69 842.94,-224.02 1002.68,-213.28 1100.38,-209.1"/>
<path fill="none" stroke="white" d="M746.08,-294.55C755.82,-280.74 771.57,-261.97 790.44,-252.48 843.07,-226.02 1002.82,-215.28 1100.46,-211.1"/>
<path fill="none" stroke="#ff0000" d="M747.72,-295.7C757.36,-282.03 773.1,-263.25 791.34,-254.27 843.21,-228.01 1002.95,-217.27 1100.55,-213.1"/>
<polygon fill="#ff0000" stroke="#ff0000" points="1100.74,-214.59 1110.59,-210.68 1100.45,-207.6 1100.74,-214.59"/>
<g id="a_edge63&#45;label"><a xlink:title="deepfake">
<text text-anchor="middle" x="793.94" y="-256.28" font-family="Times,serif" font-size="14.00">*</text>
</a>
</g>
</g>
<!-- attention_economy&#45;&gt;artificial_intelligence -->
<g id="edge37" class="edge">
<title>attention_economy&#45;&gt;artificial_intelligence</title>
<path fill="none" stroke="black" d="M858.11,-603.09C866.86,-541.1 872.8,-431.17 822.44,-357.22 813.14,-343.57 798.29,-333.95 783.46,-327.28"/>
<polygon fill="black" stroke="black" points="784.36,-323.86 773.78,-323.3 781.7,-330.34 784.36,-323.86"/>
</g>
<!-- your_brain -->
<g id="node26" class="node">
<title>your_brain</title>
<ellipse fill="#ffff40" stroke="black" cx="508.44" cy="-116.87" rx="52.15" ry="26.74"/>
<text text-anchor="middle" x="508.44" y="-120.67" font-family="Times,serif" font-size="14.00">你的大腦</text>
<text text-anchor="middle" x="508.44" y="-105.67" font-family="Times,serif" font-size="14.00">成為戰場</text>
</g>
<!-- misinformation&#45;&gt;your_brain -->
<g id="edge64" class="edge">
<title>misinformation&#45;&gt;your_brain</title>
<path fill="none" stroke="black" d="M400.83,-182.83C421.22,-170.52 446.11,-155.5 466.81,-143"/>
<polygon fill="black" stroke="black" points="468.65,-145.98 475.41,-137.81 465.04,-139.98 468.65,-145.98"/>
</g>
<!-- misinformation&#45;&gt;conflict -->
<g id="edge46" class="edge">
<title>misinformation&#45;&gt;conflict</title>
<path fill="none" stroke="black" d="M326.46,-182.36C308.27,-169.75 286.11,-154.38 267.98,-141.82"/>
<polygon fill="black" stroke="black" points="269.65,-138.72 259.44,-135.89 265.66,-144.47 269.65,-138.72"/>
</g>
<!-- giving_up_privacy&#45;&gt;artificial_intelligence -->
<g id="edge38" class="edge">
<title>giving_up_privacy&#45;&gt;artificial_intelligence</title>
<path fill="none" stroke="black" d="M670.2,-390.87C682.58,-376.15 700.95,-354.33 715.04,-337.59"/>
<polygon fill="black" stroke="black" points="717.81,-339.73 721.57,-329.83 712.45,-335.23 717.81,-339.73"/>
</g>
<!-- giving_up_privacy&#45;&gt;surveillance_capitalism -->
<g id="edge42" class="edge">
<title>giving_up_privacy&#45;&gt;surveillance_capitalism</title>
<path fill="none" stroke="black" d="M645.8,-425.82C629.14,-444.21 598.88,-472.31 585.44,-480.22 573.28,-487.37 559.77,-493.62 546.13,-498.98"/>
<polygon fill="black" stroke="black" points="544.8,-495.74 536.68,-502.55 547.27,-502.29 544.8,-495.74"/>
</g>
<!-- filter_bubble -->
<g id="node21" class="node">
<title>filter_bubble</title>
<ellipse fill="none" stroke="black" cx="129.44" cy="-312.35" rx="73.58" ry="26.74"/>
<text text-anchor="middle" x="129.44" y="-316.15" font-family="Times,serif" font-size="14.00">同溫層</text>
<text text-anchor="middle" x="129.44" y="-301.15" font-family="Times,serif" font-size="14.00">filter bubble</text>
</g>
<!-- filter_bubble&#45;&gt;conflict -->
<g id="edge47" class="edge">
<title>filter_bubble&#45;&gt;conflict</title>
<path fill="none" stroke="black" d="M143.25,-285.66C162.88,-249.14 198.69,-182.52 218.77,-145.15"/>
<polygon fill="black" stroke="black" points="222.11,-146.34 223.76,-135.88 215.94,-143.03 222.11,-146.34"/>
</g>
<!-- surveillance_capitalism&#45;&gt;giving_up_privacy -->
<g id="edge48" class="edge">
<title>surveillance_capitalism&#45;&gt;giving_up_privacy</title>
<path fill="none" stroke="black" d="M522.72,-501.19C537.93,-495.36 553.56,-488.38 567.44,-480.22 579.64,-473.04 605.7,-449.22 626.68,-431.13"/>
<polygon fill="black" stroke="black" points="629.09,-433.67 634.43,-424.52 624.55,-428.34 629.09,-433.67"/>
</g>
<!-- surveillance_capitalism&#45;&gt;filter_bubble -->
<g id="edge44" class="edge">
<title>surveillance_capitalism&#45;&gt;filter_bubble</title>
<path fill="none" stroke="black" d="M405.11,-499.33C370.43,-480.34 322.16,-452.93 281.44,-426.22 241.37,-399.94 197.64,-366.98 167.42,-343.48"/>
<polygon fill="black" stroke="black" points="169.3,-340.51 159.26,-337.12 164.99,-346.03 169.3,-340.51"/>
<g id="a_edge44&#45;label"><a xlink:title="你也會喜歡">
<text text-anchor="middle" x="284.94" y="-404.52" font-family="Times,serif" font-size="14.00">*</text>
</a>
</g>
</g>
<!-- walled_garden -->
<g id="node23" class="node">
<title>walled_garden</title>
<ellipse fill="none" stroke="black" cx="374.44" cy="-408.22" rx="76.89" ry="18"/>
<text text-anchor="middle" x="374.44" y="-404.52" font-family="Times,serif" font-size="14.00">walled garden</text>
</g>
<!-- surveillance_capitalism&#45;&gt;walled_garden -->
<g id="edge49" class="edge">
<title>surveillance_capitalism&#45;&gt;walled_garden</title>
<path fill="none" stroke="black" d="M434.16,-498.31C421.37,-479.24 404.05,-453.39 391.35,-434.45"/>
<polygon fill="black" stroke="black" points="394.18,-432.38 385.7,-426.03 388.36,-436.28 394.18,-432.38"/>
<g id="a_edge49&#45;label"><a xlink:title="臉書&#10;line&#10;抖音&#10;bilibili">
<text text-anchor="middle" x="422.94" y="-458.52" font-family="Times,serif" font-size="14.00">*</text>
</a>
</g>
</g>
<!-- surveillance_capitalism&#45;&gt;social_engineering -->
<g id="edge50" class="edge">
<title>surveillance_capitalism&#45;&gt;social_engineering</title>
<path fill="none" stroke="black" d="M543.56,-503.51C568.49,-497 595.26,-489.14 619.44,-480.22 824.8,-404.44 1055.82,-278.51 1143.29,-229.26"/>
<polygon fill="black" stroke="black" points="1145.04,-232.28 1152.03,-224.32 1141.6,-226.19 1145.04,-232.28"/>
<g id="a_edge50&#45;label"><a xlink:title="黑市個資">
<text text-anchor="middle" x="897.94" y="-361.02" font-family="Times,serif" font-size="14.00">*</text>
</a>
</g>
</g>
<!-- surveillance_capitalism&#45;&gt;your_brain -->
<g id="edge65" class="edge">
<title>surveillance_capitalism&#45;&gt;your_brain</title>
<path fill="none" stroke="black" d="M481.04,-498.47C502.38,-477.03 527.44,-444.37 527.44,-409.22 527.44,-409.22 527.44,-409.22 527.44,-206.61 527.44,-188.9 523.78,-169.64 519.67,-153.6"/>
<polygon fill="black" stroke="black" points="522.94,-152.3 516.94,-143.58 516.19,-154.14 522.94,-152.3"/>
</g>
<!-- walled_garden&#45;&gt;misinformation -->
<g id="edge51" class="edge">
<title>walled_garden&#45;&gt;misinformation</title>
<path fill="none" stroke="black" d="M373.31,-389.94C371.2,-357.68 366.61,-287.68 363.8,-244.7"/>
<polygon fill="black" stroke="black" points="367.29,-244.41 363.14,-234.66 360.3,-244.87 367.29,-244.41"/>
<g id="a_edge51&#45;label"><a xlink:title="臉書禁備份">
<text text-anchor="middle" x="372.94" y="-308.65" font-family="Times,serif" font-size="14.00">*</text>
</a>
</g>
</g>
<!-- walled_garden&#45;&gt;filter_bubble -->
<g id="edge52" class="edge">
<title>walled_garden&#45;&gt;filter_bubble</title>
<path fill="none" stroke="black" d="M336.16,-392.55C296.58,-377.39 234.27,-353.51 188.4,-335.94"/>
<polygon fill="black" stroke="black" points="189.46,-332.6 178.87,-332.29 186.96,-339.14 189.46,-332.6"/>
</g>
<!-- social_engineering&#45;&gt;your_brain -->
<g id="edge66" class="edge">
<title>social_engineering&#45;&gt;your_brain</title>
<path fill="none" stroke="black" d="M1119.01,-198.62C991.51,-181.76 696.28,-142.71 568.83,-125.86"/>
<polygon fill="black" stroke="black" points="569.22,-122.38 558.85,-124.54 568.3,-129.32 569.22,-122.38"/>
</g>
<!-- kol&#45;&gt;filter_bubble -->
<g id="edge43" class="edge">
<title>kol&#45;&gt;filter_bubble</title>
<path fill="none" stroke="black" d="M137.39,-443.97C135.99,-420.93 133.47,-379.55 131.64,-349.53"/>
<polygon fill="black" stroke="black" points="135.13,-349.2 131.03,-339.43 128.14,-349.63 135.13,-349.2"/>
</g>
<!-- kol&#45;&gt;your_brain -->
<g id="edge67" class="edge">
<title>kol&#45;&gt;your_brain</title>
<path fill="none" stroke="black" d="M194.46,-458.08C280.93,-452.8 439.24,-441.23 460.44,-426.22 484.78,-408.99 489.44,-395.54 489.44,-365.72 489.44,-365.72 489.44,-365.72 489.44,-206.61 489.44,-188.9 493.1,-169.64 497.21,-153.6"/>
<polygon fill="black" stroke="black" points="500.69,-154.14 499.94,-143.58 493.93,-152.3 500.69,-154.14"/>
</g>
<!-- important_personal -->
<g id="node28" class="node">
<title>important_personal</title>
<polygon fill="#ffffe0" stroke="black" points="502.94,-53 357.94,-53 357.94,0 502.94,0 502.94,-53"/>
<text text-anchor="middle" x="430.44" y="-37.8" font-family="Times,serif" font-size="14.00">個人重要能力：</text>
<text text-anchor="middle" x="430.44" y="-22.8" font-family="Times,serif" font-size="14.00">搜尋、專注閱讀、</text>
<text text-anchor="middle" x="430.44" y="-7.8" font-family="Times,serif" font-size="14.00">自省情緒、辨別意圖</text>
</g>
<!-- your_brain&#45;&gt;important_personal -->
<g id="edge68" class="edge">
<title>your_brain&#45;&gt;important_personal</title>
<path fill="none" stroke="black" d="M487.54,-92.19C479.05,-82.57 469.09,-71.29 459.89,-60.87"/>
<polygon fill="black" stroke="black" points="462.28,-58.29 453.04,-53.11 457.04,-62.92 462.28,-58.29"/>
</g>
<!-- important_societal -->
<g id="node29" class="node">
<title>important_societal</title>
<polygon fill="#ffffe0" stroke="black" points="651.94,-53 520.94,-53 520.94,0 651.94,0 651.94,-53"/>
<text text-anchor="middle" x="586.44" y="-37.8" font-family="Times,serif" font-size="14.00">社會重要通識：</text>
<text text-anchor="middle" x="586.44" y="-22.8" font-family="Times,serif" font-size="14.00">搜尋、媒體識讀、</text>
<text text-anchor="middle" x="586.44" y="-7.8" font-family="Times,serif" font-size="14.00">心理學、自由軟體</text>
</g>
<!-- your_brain&#45;&gt;important_societal -->
<g id="edge69" class="edge">
<title>your_brain&#45;&gt;important_societal</title>
<path fill="none" stroke="black" d="M529.34,-92.19C537.83,-82.57 547.78,-71.29 556.98,-60.87"/>
<polygon fill="black" stroke="black" points="559.84,-62.92 563.84,-53.11 554.59,-58.29 559.84,-62.92"/>
</g>
</g>
</svg>
