<?xml version="1.0" encoding="UTF-8" standalone="no"?>
<svg
   width="320"
   height="320"
   viewBox="1 1 32 32"
   fill="#ed2c25"
   version="1.1"
   id="svg6"
   sodipodi:docname="ccp.svg"
   inkscape:export-filename="ccp.png"
   inkscape:export-xdpi="96"
   inkscape:export-ydpi="96"
   inkscape:version="1.2.2 (b0a8486541, 2022-12-01)"
   xmlns:inkscape="http://www.inkscape.org/namespaces/inkscape"
   xmlns:sodipodi="http://sodipodi.sourceforge.net/DTD/sodipodi-0.dtd"
   xmlns="http://www.w3.org/2000/svg"
   xmlns:svg="http://www.w3.org/2000/svg">
  <defs
     id="defs10" />
  <sodipodi:namedview
     id="namedview8"
     pagecolor="#ffffff"
     bordercolor="#000000"
     borderopacity="0.25"
     inkscape:showpageshadow="2"
     inkscape:pageopacity="0.0"
     inkscape:pagecheckerboard="0"
     inkscape:deskcolor="#d1d1d1"
     showgrid="false"
     inkscape:zoom="2.6375"
     inkscape:cx="130.61611"
     inkscape:cy="160"
     inkscape:window-width="1920"
     inkscape:window-height="1035"
     inkscape:window-x="0"
     inkscape:window-y="0"
     inkscape:window-maximized="1"
     inkscape:current-layer="svg6" />
  <path
     d="M4 14l7.923966-7.923966A5.315073 5.315073 0 0 0 17 5l2.5 2.5-4 4L33 29l-4 4-17.5-17.5-3 3zm.5 8.5a16.62077 16.62077 0 0 0 12 5.12077A11.12077 11.12077 0 0 0 27.62077 16.5 16.62077 16.62077 0 0 0 17 1a16 16 0 0 1 0 32 18 18 0 0 1-14.979984-8.020016zM3 29l2-2 2 2-2 2z"
     id="path2" />
  <circle
     cx="3.5"
     cy="30.5"
     r="2.5"
     id="circle4" />
</svg>
