<?xml version="1.0" encoding="UTF-8" standalone="no"?>
<svg
   width="196.89"
   height="197"
   version="1.1"
   id="svg67"
   sodipodi:docname="dpp+dem.svg"
   inkscape:export-filename="dpp+dem.png"
   inkscape:export-xdpi="96"
   inkscape:export-ydpi="96"
   inkscape:version="1.2.2 (b0a8486541, 2022-12-01)"
   xml:space="preserve"
   xmlns:inkscape="http://www.inkscape.org/namespaces/inkscape"
   xmlns:sodipodi="http://sodipodi.sourceforge.net/DTD/sodipodi-0.dtd"
   xmlns:xlink="http://www.w3.org/1999/xlink"
   xmlns="http://www.w3.org/2000/svg"
   xmlns:svg="http://www.w3.org/2000/svg"><sodipodi:namedview
     id="namedview69"
     pagecolor="#ffffff"
     bordercolor="#000000"
     borderopacity="0.25"
     inkscape:showpageshadow="2"
     inkscape:pageopacity="0.0"
     inkscape:pagecheckerboard="0"
     inkscape:deskcolor="#d1d1d1"
     showgrid="false"
     inkscape:zoom="2.0964467"
     inkscape:cx="92.53753"
     inkscape:cy="117.3414"
     inkscape:window-width="1920"
     inkscape:window-height="1035"
     inkscape:window-x="0"
     inkscape:window-y="0"
     inkscape:window-maximized="1"
     inkscape:current-layer="svg67"
     showguides="true" /><defs
     id="defs5"><clipPath
       id="a"><path
         d="M129.08 197.83c-43.547-.079-78.741-35.364-78.741-78.759 0-43.549 35.194-78.84 78.741-78.84h.091c43.393 0 78.676 35.291 78.676 78.84 0 43.474-35.283 78.759-78.676 78.759h-.091zm-57.453-78.76c0 31.71 25.661 57.547 57.54 57.547 31.704 0 57.535-25.837 57.535-57.547 0-31.79-25.831-57.538-57.535-57.538-31.879 0-57.54 25.748-57.54 57.538"
         id="path2" /></clipPath><mask
       maskUnits="userSpaceOnUse"
       id="mask1060"><path
         style="fill:#ffffff;fill-opacity:1"
         d="M 0.2845375,196.28572 V 0.17256254 H 196.97383 Z"
         id="path1062"
         sodipodi:nodetypes="cccc" /></mask><clipPath
       id="a-5"><path
         d="M129.08 197.83c-43.547-.079-78.741-35.364-78.741-78.759 0-43.549 35.194-78.84 78.741-78.84h.091c43.393 0 78.676 35.291 78.676 78.84 0 43.474-35.283 78.759-78.676 78.759h-.091zm-57.453-78.76c0 31.71 25.661 57.547 57.54 57.547 31.704 0 57.535-25.837 57.535-57.547 0-31.79-25.831-57.538-57.535-57.538-31.879 0-57.54 25.748-57.54 57.538"
         id="path2-3" /></clipPath><mask
       maskUnits="userSpaceOnUse"
       id="mask2193"><path
         style="fill:#ffffff;fill-opacity:1;stroke-width:2"
         d="M 199.69209,-2.126341 V 201.98078 H -2.782114 Z"
         id="path2195"
         sodipodi:nodetypes="cccc" /></mask></defs><image
     width="152.509"
     height="152.509"
     preserveAspectRatio="none"
     xlink:href="democrat.png"
     id="image1509"
     x="-7.6846967"
     y="-11.648944" /><g
     id="g486"
     transform="translate(-2.1664705,-1.3434375)"
     mask="url(#mask2193)"><path
       fill="#009a00"
       d="m 98.23661,171.66576 c 40.028,0 72.722,-32.579 72.722,-72.719 0,-40.035 -32.695,-72.62 -72.722,-72.62 -40.235,0 -72.616,32.585 -72.616,72.62 0,40.14 32.381,72.719 72.616,72.719"
       id="path7" /><path
       fill="#ffffff"
       d="m 174.33661,72.61576 h -40.235 v -49.571 h -71.724 v 49.571 h -39.841 v 52.755 h 39.841 v 48.576 h 71.724 v -48.576 h 40.235 z"
       id="path9" /><path
       fill="none"
       stroke="#009a00"
       stroke-width="2.62625"
       d="m 22.53661,77.19576 h 44.408 v -53.551 m -44.408,97.151 h 44.408 v 52.558 m 107.392,-96.158 h -44.914 v -53.551 m 44.914,97.151 h -44.914 v 52.558"
       id="path11" /><path
       fill="#009a00"
       d="m 118.79661,43.41576 c 1.0988,-0.40125 1.48,1.2862 2.385,1.0888 1.595,0.59875 3.98,-0.19875 4.3738,1.6812 0,1.7975 1.785,3.0838 0.7775,4.975 -4.555,3.375 -1.6775,8.9375 -1.2688,13.314 -0.60375,3.7762 -2.8812,6.855 -3.6725,10.631 -3.5825,5.0625 1.385,11.324 -2.4938,16.286 -1.0888,2.4912 -0.50125,5.1625 -1.6962,7.75 -0.3925,2.48 -2.0762,4.9638 -1.4812,7.6475 -3.2662,8.5425 -7.4575,17.479 -13.514,24.644 -4.8738,7.4475 -4.6575,15.99 -3.5762,24.135 0.59625,3.7838 -3.78,1.8925 -5.6712,2.09 -4.1625,-2.8875 -0.97375,-8.3438 -4.7712,-11.83 -4.9575,-6.2562 -11.905,-10.822 -12.905,-19.359 -1.685,-2.9925 -6.2525,-6.07 -4.76,-9.84 0.79125,-7.0525 1.3838,-14.012 1.685,-22.351 5.7562,-8.745 13.504,-16.589 14.706,-26.825 3.165,-3.77 7.7425,-7.355 7.9362,-12.714 1.4962,-6.4588 8.7438,-7.355 13.116,-10.928 1.2988,-1.5888 2.3862,-3.2825 4.4875,-4.0738 2.4762,-0.1975 5.5512,0.79125 6.3425,3.6775"
       id="path13" /><path
       fill="#bfbaa5"
       d="m 98.53661,170.37576 c -39.842,0 -71.919,-32.185 -71.919,-71.922 0,-39.638 32.076,-71.928 71.919,-71.928 39.635,0 71.918,32.29 71.918,71.928 0,39.738 -32.282,71.922 -71.918,71.922 m 0,-170.37 h -0.115 c -54.426,0.0987 -98.42,44.205 -98.42,98.449 0,54.436 43.994,98.544 98.42,98.544 h 0.115 c 54.24,0 98.35,-44.108 98.35,-98.544 0,-54.342 -44.11,-98.449 -98.35,-98.449"
       id="path15" /><g
       clip-path="url(#a-5)"
       transform="matrix(1.25,0,0,-1.25,-62.91875,247.29125)"
       id="g35"><path
         fill="#df252b"
         d="m 180.02,37.125 c 0.496,-0.792 -0.75,-1.38 -0.446,-2.049 -0.208,-1.344 0.811,-3.075 -0.593,-3.702 -1.392,-0.302 -2.106,-1.924 -3.746,-1.459 -3.414,3.001 -7.281,-0.187 -10.633,-1.237 -3.044,-0.167 -5.846,1.093 -8.933,1.078 -4.557,1.949 -8.611,-2.996 -13.148,-0.8 -2.139,0.44 -4.129,-0.485 -6.352,0.02 -2.01,-0.11 -4.232,0.78 -6.232,-0.129 -7.225,1.128 -14.922,2.878 -21.545,6.414 -6.648,2.546 -13.291,0.953 -19.475,-1.277 -2.861,-1.102 -2.126,2.636 -2.591,4.079 1.555,3.75 6.359,2.181 8.446,5.716 4.054,4.946 6.456,11.152 12.967,13.362 2.045,1.83 3.687,5.923 6.891,5.395 5.647,0.568 11.185,1.275 17.751,2.446 7.816,-3.035 15.258,-7.762 23.461,-6.97 3.488,-1.85 7.058,-4.823 11.291,-4.075 5.301,-0.08 7.21,-5.597 10.75,-8.416 1.464,-0.737 2.977,-1.306 3.933,-2.804 0.579,-1.909 0.32,-4.485 -1.796,-5.592"
         id="path17" /><path
         fill="#accf42"
         d="m 53.065,59.691 c -0.623,-0.681 -1.536,0.372 -2.087,-0.103 -1.357,-0.143 -2.759,-1.576 -3.726,-0.381 -0.653,1.276 -2.396,1.538 -2.386,3.244 2.015,4.075 -2.054,6.983 -3.933,9.959 -0.952,2.903 -0.445,5.929 -1.266,8.905 0.7,4.912 -5.115,7.556 -4.166,12.505 -0.128,2.166 -1.525,3.863 -1.622,6.132 -0.623,1.914 -0.329,4.297 -1.731,5.988 -0.781,7.284 -1.067,15.165 0.644,22.475 0.733,7.075 -2.522,13.083 -6.261,18.493 -1.812,2.472 1.995,2.719 3.261,3.55 4.028,-0.534 3.758,-5.578 7.707,-6.69 5.825,-2.636 12.431,-3.348 16.261,-9.074 2.291,-1.503 6.673,-2.032 6.991,-5.261 2.005,-5.31 4.112,-10.483 6.953,-16.531 -0.923,-8.332 -3.58,-16.748 -0.695,-24.471 -0.89,-3.836 -2.831,-8.06 -1.016,-11.947 1.286,-5.137 -3.551,-8.415 -5.363,-12.559 -0.334,-1.603 -0.497,-3.205 -1.691,-4.529 -1.691,-1.054 -4.255,-1.469 -5.874,0.295"
         id="path19" /><path
         fill="#7a80bc"
         d="m 58.593,58.763 c -0.663,0.652 0.415,1.522 -0.04,2.096 -0.106,1.356 -1.495,2.803 -0.279,3.739 1.296,0.613 1.615,2.353 3.326,2.284 4.005,-2.146 7.028,1.848 10.047,3.635 2.937,0.864 5.954,0.276 8.953,0.999 4.895,-0.846 7.701,4.899 12.616,3.797 2.188,0.064 3.904,1.418 6.193,1.444 1.924,0.568 4.3,0.202 6.03,1.553 7.296,0.567 15.191,0.617 22.442,-1.301 7.059,-0.959 13.151,2.11 18.669,5.701 2.522,1.735 2.658,-2.072 3.454,-3.372 -0.645,-4.001 -5.686,-3.58 -6.907,-7.501 -2.817,-5.736 -3.726,-12.338 -9.561,-15.982 -1.573,-2.251 -2.238,-6.606 -5.467,-6.824 -5.362,-1.854 -10.604,-3.807 -16.736,-6.463 -8.289,1.162 -16.623,4.06 -24.426,1.405 -3.808,1.008 -7.959,3.076 -11.92,1.38 -5.169,-1.138 -8.302,3.793 -12.399,5.725 -1.589,0.386 -3.184,0.593 -4.469,1.83 -1,1.721 -1.343,4.292 0.474,5.855 M 138.8,213.73 c 0.227,0.9 1.513,0.395 1.797,1.068 1.12,0.771 1.692,2.7 3.12,2.101 1.165,-0.825 2.836,-0.237 3.62,-1.755 0.126,-4.544 5.079,-5.192 8.146,-6.932 2.198,-2.122 3.175,-5.029 5.291,-7.279 1.692,-4.658 8.073,-4.263 9.556,-9.079 1.125,-1.864 3.165,-2.69 4.319,-4.657 1.444,-1.395 2.304,-3.635 4.334,-4.471 4.112,-6.062 8.067,-12.895 9.986,-20.144 2.673,-6.597 8.359,-10.379 14.212,-13.386 2.761,-1.34 -0.485,-3.338 -1.215,-4.673 -3.807,-1.414 -5.933,3.175 -9.948,2.285 -6.381,-0.401 -12.553,-2.873 -18.615,0.38 -2.739,0.253 -6.846,-1.339 -8.633,1.371 -4.272,3.748 -8.562,7.322 -13.893,11.333 -3.115,7.783 -4.719,16.456 -10.893,21.92 -1.016,3.812 -1.275,8.44 -4.702,11.032 -3.561,3.935 -0.831,9.097 -1.179,13.603 -0.448,1.577 -1.058,3.06 -0.634,4.801 1.007,1.72 3.069,3.288 5.331,2.482"
         id="path21" /><path
         fill="#fac000"
         d="m 51.848,187.88 c 0.542,0.751 1.566,-0.208 2.067,0.321 1.335,0.307 2.572,1.894 3.66,0.806 0.791,-1.196 2.564,-1.265 2.729,-2.966 -1.565,-4.268 2.821,-6.711 5.004,-9.45 1.276,-2.784 1.118,-5.85 2.248,-8.718 -0.164,-4.954 5.919,-6.942 5.523,-11.966 0.38,-2.146 1.95,-3.669 2.295,-5.914 0.834,-1.839 0.814,-4.233 2.385,-5.765 1.585,-7.145 2.74,-14.953 1.857,-22.4 0.032,-7.121 3.95,-12.733 8.27,-17.692 2.064,-2.255 -1.692,-2.917 -2.868,-3.887 -4.045,0.079 -4.344,5.133 -8.394,5.785 -6.077,1.988 -12.72,1.969 -17.17,7.23 -2.436,1.246 -6.847,1.286 -7.515,4.45 -2.583,5.063 -5.255,9.969 -8.744,15.664 -0.009,8.377 1.701,17.036 -2.015,24.393 0.44,3.911 1.924,8.317 -0.309,11.991 -1.859,4.965 2.582,8.762 3.923,13.074 0.164,1.632 0.154,3.244 1.19,4.688 1.57,1.226 4.067,1.928 5.864,0.356"
         id="path23" /><path
         fill="#7a80bc"
         d="m 22.111,133.59 c -0.923,0.129 -0.552,1.47 -1.277,1.662 -0.892,1.023 -2.864,1.364 -2.429,2.843 0.667,1.261 -0.122,2.843 1.29,3.808 4.502,0.662 4.562,5.671 5.924,8.915 1.854,2.433 4.618,3.748 6.599,6.122 4.43,2.215 3.285,8.504 7.894,10.552 1.711,1.345 2.292,3.461 4.099,4.845 1.217,1.603 3.343,2.715 3.932,4.836 5.533,4.797 11.842,9.534 18.814,12.303 6.243,3.426 9.306,9.533 11.61,15.695 1.004,2.893 3.373,-0.089 4.792,-0.663 1.856,-3.6 -2.458,-6.255 -1.09,-10.136 1.144,-6.29 4.328,-12.135 1.817,-18.534 0.081,-2.739 2.148,-6.636 -0.324,-8.737 -3.224,-4.682 -6.267,-9.366 -9.616,-15.146 -7.354,-4.005 -15.78,-6.625 -20.47,-13.4 -3.667,-1.468 -8.248,-2.274 -10.399,-5.983 -3.484,-3.996 -8.943,-1.899 -13.374,-2.779 -1.503,-0.638 -2.917,-1.419 -4.689,-1.191 -1.827,0.796 -3.62,2.65 -3.103,4.988"
         id="path25" /><path
         fill="#c82070"
         d="m 73.734,168.2 c -0.871,0.356 -0.178,1.562 -0.811,1.933 -0.613,1.217 -2.455,2.033 -1.662,3.367 0.98,1.049 0.623,2.78 2.236,3.354 4.509,-0.496 5.827,4.34 7.968,7.129 2.396,1.899 5.414,2.463 7.924,4.263 4.856,1.038 5.323,7.407 10.295,8.228 2,0.87 3.093,2.769 5.199,3.649 1.585,1.241 3.919,1.78 5.029,3.689 6.552,3.244 13.863,6.24 21.312,7.16 6.891,1.745 11.407,6.878 15.19,12.263 1.691,2.546 3.242,-0.94 4.455,-1.849 0.893,-3.951 -3.943,-5.44 -3.599,-9.534 -0.482,-6.374 1.139,-12.827 -2.917,-18.394 -0.611,-2.671 0.385,-6.963 -2.52,-8.372 -4.3,-3.718 -8.426,-7.496 -13.116,-12.233 -8.136,-2.018 -16.948,-2.433 -23.201,-7.808 -3.913,-0.494 -8.542,-0.119 -11.568,-3.165 -4.371,-2.996 -9.131,0.411 -13.628,0.683 -1.624,-0.232 -3.184,-0.633 -4.833,0.029 -1.585,1.231 -2.851,3.476 -1.753,5.608"
         id="path27" /><path
         fill="#fac000"
         d="m 188.44,176.71 c 0.561,0.747 1.575,-0.217 2.077,0.317 1.335,0.287 2.581,1.859 3.669,0.771 0.781,-1.192 2.541,-1.285 2.709,-2.981 -1.594,-4.258 2.76,-6.73 4.943,-9.489 1.251,-2.784 1.068,-5.85 2.188,-8.733 -0.188,-4.949 5.862,-6.972 5.437,-11.996 0.35,-2.146 1.931,-3.679 2.259,-5.933 0.819,-1.839 0.77,-4.243 2.344,-5.78 1.528,-7.155 2.638,-14.969 1.696,-22.415 0,-7.121 3.86,-12.758 8.152,-17.743 2.047,-2.273 -1.711,-2.907 -2.876,-3.866 -4.067,0.109 -4.314,5.158 -8.359,5.845 -6.082,2.018 -12.73,2.047 -17.131,7.338 -2.43,1.261 -6.828,1.33 -7.484,4.514 -2.551,5.069 -5.185,9.994 -8.631,15.71 0.044,8.381 1.808,17.024 -1.859,24.407 0.482,3.917 1.975,8.307 -0.227,11.996 -1.822,4.974 2.638,8.742 4.015,13.045 0.165,1.632 0.165,3.234 1.223,4.682 1.571,1.217 4.062,1.899 5.855,0.311"
         id="path29" /><path
         fill="#accf42"
         d="m 105.77,179.51 c -0.861,0.35 -0.198,1.562 -0.831,1.927 -0.613,1.217 -2.45,2.028 -1.681,3.353 0.976,1.059 0.613,2.784 2.223,3.373 4.512,-0.475 5.807,4.371 7.933,7.169 2.382,1.909 5.39,2.503 7.9,4.312 4.846,1.059 5.281,7.437 10.248,8.283 1.985,0.885 3.075,2.789 5.182,3.673 1.562,1.257 3.899,1.81 4.997,3.719 6.541,3.283 13.823,6.32 21.262,7.289 6.891,1.784 11.38,6.937 15.128,12.342 1.682,2.551 3.256,-0.915 4.471,-1.814 0.917,-3.962 -3.919,-5.475 -3.548,-9.559 -0.448,-6.379 1.204,-12.827 -2.801,-18.414 -0.604,-2.671 0.424,-6.958 -2.48,-8.387 -4.285,-3.743 -8.392,-7.526 -13.044,-12.302 -8.122,-2.067 -16.944,-2.532 -23.154,-7.941 -3.916,-0.515 -8.545,-0.169 -11.551,-3.234 -4.359,-3.011 -9.141,0.365 -13.645,0.618 -1.627,-0.253 -3.175,-0.663 -4.836,0 -1.576,1.211 -2.861,3.461 -1.773,5.593"
         id="path31" /><path
         fill="#c82070"
         d="m 200.86,133.28 c 0.83,0.435 1.327,-0.856 2.014,-0.608 1.328,-0.307 3.121,0.583 3.642,-0.871 0.186,-1.423 1.751,-2.249 1.159,-3.857 -3.256,-3.165 -0.385,-7.268 0.404,-10.691 -0.069,-3.055 -1.563,-5.745 -1.791,-8.82 -2.293,-4.396 2.302,-8.826 -0.229,-13.178 -0.601,-2.087 0.163,-4.153 -0.512,-6.324 -0.05,-2.019 -1.128,-4.164 -0.363,-6.221 -1.692,-7.13 -4.055,-14.666 -8.083,-20.98 -3.068,-6.423 -2.009,-13.178 -0.267,-19.522 0.87,-2.932 -2.801,-1.893 -4.262,-2.261 -3.622,1.845 -1.681,6.518 -5.054,8.872 -4.598,4.43 -10.594,7.308 -12.295,13.974 -1.662,2.185 -5.614,4.144 -4.826,7.293 -0.136,5.677 -0.393,11.26 -1.058,17.904 3.642,7.552 8.952,14.592 8.806,22.836 2.127,3.327 5.346,6.651 4.943,10.928 0.494,5.281 6.151,6.764 9.234,10.063 0.861,1.399 1.546,2.853 3.12,3.703 1.934,0.425 4.486,-0.025 5.418,-2.24"
         id="path33" /></g><path
       fill="#ffffff"
       d="m 5.56661,90.70576 7.6388,0.29 v 1.49 l -6.1712,-0.2975 v 2.4862 c -0.0962,2.1862 1.6962,3.3738 6.1712,3.3738 v 1.49 h -0.30875 c -3.7675,-0.19125 -7.54,-1.0888 -7.54,-4.6675 l 0.21,-4.165 z m 7.6388,0.29 7.755,0.30375 -0.2175,3.77 c -0.08,4.1712 -3.8662,4.87 -7.5375,4.4688 v -1.49 h 0.1025 c 3.5688,0 5.7725,-0.39625 5.955,-2.7812 v -2.485 l -6.0575,-0.29625 v -1.49 z"
       id="path37" /><path
       fill="#ffffff"
       d="m 7.03661,92.18576 v 2.4862 c -0.10125,2.285 1.6975,3.3738 6.2688,3.3738 3.575,0 5.7688,-0.39625 5.9612,-2.7812 v -2.485 l -12.23,-0.59375 z m -1.4675,-1.4825 15.388,0.59375 -0.21,3.77 c -0.09,4.2775 -4.0712,4.87 -7.85,4.4738 -3.7712,-0.19625 -7.5438,-1.0938 -7.5438,-4.6725 l 0.21625,-4.165 z m -0.2125,12.6125 15.392,-1.2925 0.6,6.9662 h -1.4925 l -0.59375,-5.2712 -5.0712,0.29 0.5975,5.0688 -1.6788,0.1975 -0.39875,-5.07 -5.6712,0.60125 0.59875,5.2662 -1.4925,0.1975 -0.79,-6.9538 z m 18.08,16.09 0.68875,2.6762 -15.005,3.38 -0.395,-1.4812 12.428,-2.8812 c 0.5875,-0.105 1.1838,-0.105 1.885,-0.3025 v -0.19875 c -0.9,0.19875 -1.505,0.19875 -2.0888,0.19875 h -12.919 l -0.3925,-1.6875 11.62,-5.8588 c 0.59625,-0.205 1.0012,-0.3975 1.6912,-0.70625 -0.5075,0 -1.095,0.105 -1.8738,0.30875 l -12.139,2.875 -0.39875,-1.3912 14.81,-3.5738 0.79,2.6838 -11.125,5.4638 c -0.5975,0.19875 -1.0888,0.39625 -2.0888,0.69875 0.80375,0 1.4912,-0.20375 2.2838,-0.20375 h 12.229 z m -4.08,16.49 c -3.1775,1.0938 -6.0562,1.285 -7.3425,-1.7938 -0.32125,-0.5925 -0.41125,-1.0875 -0.41125,-1.5812 v -0.20375 c 0.09,-2.6825 3.0812,-4.37 6.3662,-5.755 0.4825,-0.20375 0.89375,-0.3025 1.3875,-0.50625 v 1.6925 c -0.28375,0.0987 -0.49375,0.19875 -0.79125,0.2975 -4.1775,1.6938 -6.0575,3.0775 -5.0688,5.4638 0.7925,1.9838 2.6825,1.7925 5.86,0.5925 v 1.7938 z m 7.4538,-7.9488 c 0.19875,0.49375 0.3,0.9875 0.3,1.385 v 0.50625 c -0.10125,2.5825 -2.9825,4.1712 -5.5775,5.1612 -0.6825,0.3025 -1.4862,0.59875 -2.1762,0.89625 v -1.7938 c 0.495,-0.19625 0.90625,-0.395 1.385,-0.5925 3.2725,-1.0888 5.4638,-2.7812 4.5825,-5.0688 -0.70125,-1.8788 -3.0875,-1.6812 -5.9675,-0.6925 v -1.6925 c 2.88,-0.98875 6.16,-1.3925 7.4538,1.8912"
       id="path39" /><path
       fill="#ffffff"
       d="m 25.32661,128.44576 c -0.80375,-2.0825 -3.5825,-1.6812 -6.7588,-0.40125 -4.185,1.7 -6.0575,3.0838 -5.0725,5.47 0.8875,2.2875 3.1775,1.6862 7.2412,0 3.28,-1.0888 5.4712,-2.7812 4.59,-5.0688 m 1.48,-0.49375 c 1.4862,3.6838 -2.0888,5.76 -5.2775,7.0525 -3.9562,1.6875 -7.835,2.8862 -9.52,-0.8975 -1.5875,-3.775 1.9812,-5.8588 5.9625,-7.54 3.1762,-1.2912 7.355,-2.3862 8.835,1.385 m 1.4901,13.8138 c 1.6975,-0.89875 2.6838,-1.9975 1.6975,-3.6775 -1.2925,-2.2875 -4.8738,-0.19875 -6.5588,0.69 -1.8975,0.99 -6.0688,3.1775 -4.475,5.6638 0.89375,1.6862 2.3862,1.0988 4.0838,0.59875 0.19625,-0.205 0.595,-0.40125 0.97625,-0.59875 l 0.7075,1.2975 c -0.39875,0.1975 -0.59375,0.38875 -0.90625,0.38875 -1.1775,0.60625 -1.8788,1.0938 -3.1638,0.89625 -1.3975,0 -2.2975,-0.49375 -3.075,-1.6812 -1.9938,-3.6838 1.6775,-5.97 4.855,-7.8562 3.0812,-1.6862 6.96,-3.5775 9.0475,-0.1975 1.2875,2.28 0,4.6662 -2.1988,5.865 l -0.99,-1.3888 z m -5.06,11.52 -0.905,-1.3912 10.634,-8.0412 v 1.8912 l -3.3738,2.4775 1.48,1.885 c 0.41,0.30375 0.995,1.0025 1.8938,1.1012 v 1.285 c -0.49375,-0.105 -0.89875,-0.40125 -1.2975,-0.69875 0.99875,1.4912 0.60625,2.1838 -0.8925,3.6775 -0.79125,0.79875 -1.6912,1.5888 -2.4825,2.2875 -0.18125,0.1975 -0.5925,0.79125 -0.3975,1.0875 l -0.29625,0.1975 -1.185,-1.4825 c 0.79125,-0.70625 2.0888,-2.09 2.8688,-2.7888 1.2975,-0.99375 1.9988,-2.0812 0.905,-3.565 l -1.685,-2.09 -5.2662,4.1675 z m 9.7288,-9.4325 1.385,-1.095 2.1912,2.7875 c 1.7025,2.2812 2.2838,4.1662 -0.695,6.2488 -0.9,0.69875 -1.9912,0.99625 -2.8812,0.69875 v -1.285 c 0.59375,0.0925 1.2988,-0.0988 2.09,-0.7975 2.0738,-1.5025 0.985,-2.985 0.39875,-3.875 l -1.2975,-1.695 -1.1912,0.90375 v -1.8912 z"
       id="path41" /><path
       fill="#ffffff"
       d="m 29.59661,148.21576 1.48,1.885 c 0.59625,0.49625 1.8938,1.9925 3.98,0.30375 2.0775,-1.5025 0.995,-2.985 0.4,-3.875 l -1.295,-1.695 -4.565,3.3812 z m -6.355,5.0638 -0.89875,-1.3912 12.012,-9.1362 2.1912,2.7875 c 1.7025,2.275 2.2838,4.1662 -0.6975,6.2488 -1.3912,1.095 -3.075,1.095 -4.1762,0 0.99875,1.4912 0.60625,2.1838 -0.8875,3.6775 -0.79,0.79125 -1.6962,1.5838 -2.4875,2.2875 -0.18125,0.1975 -0.5925,0.79125 -0.3975,1.0875 l -0.29125,0.1975 -1.19,-1.4825 c 0.79125,-0.70625 2.0888,-2.09 2.8688,-2.7888 1.295,-0.99375 2.005,-2.0812 0.90125,-3.565 l -1.6812,-2.09 -5.2662,4.1675 z m 16.085,9.7462 -2.9825,4.865 -1.2825,-1.0888 2.4725,-3.98 -3.1775,-2.98 -3.77,2.3862 -1.1838,-1.2925 9.9238,-5.8575 v 1.6938 l -3.4738,2.075 2.3975,2.69 1.0762,-1.5888 v 3.0775 z m 3.6712,-10.136 1.4925,1.495 -5.1638,8.6412 v -3.0775 l 3.4738,-5.365 -3.4738,2.1888 v -1.6938 l 3.6712,-2.1888 z"
       id="path43" /><path
       fill="#ffffff"
       d="m 42.79661,154.57576 -6.95,4.2638 2.4,2.69 z m 0.1975,-1.6938 1.4988,1.495 -8.1525,13.506 -1.2862,-1.0888 2.4762,-3.98 -3.1775,-2.98 -3.7725,2.3862 -1.1838,-1.2925 13.598,-8.0462 z m 4.2825,4.2838 6.7588,5.2662 -0.89875,1.385 -2.8775,-2.28 -8.4438,10.926 -1.09,-1 8.43,-10.921 -2.7725,-2.1812 z m 0,18.97 8.2475,-12.714 1.295,0.69125 -8.245,13.018 -1.2975,-0.995 z m 15.58,-3.38 c 0.7025,-1.6825 0.90625,-3.1788 -0.79,-4.0675 -2.1762,-1.1938 -4.2662,2.385 -5.255,4.2638 -0.905,1.695 -3.1762,5.8662 -0.49375,7.1588 1.4825,0.89625 2.5825,-0.39625 3.5725,-1.8925 0.195,-0.1975 0.29625,-0.5925 0.49125,-0.69125 l 1.3875,0.49375 c -0.18625,0.395 -0.18625,0.60625 -0.3925,0.99625 -0.79,0.89625 -1.19,1.8838 -2.2775,2.3912 -1.1038,0.59375 -2.2875,0.79 -3.585,0.19125 -3.77,-2.0838 -1.6812,-6.1612 0,-9.3325 1.4838,-3.0788 3.9675,-6.6588 7.5538,-4.97 2.175,1.3912 2.3862,3.7762 1.0875,6.255 l -1.2988,-0.79625 z m 5.07,13.7 4.475,-14.6 2.1912,0.69875 v 1.5812 l -1.2025,-0.38875 -1.6775,5.5562 1.4925,0.4025 c 0.49375,0.19875 1.0012,0.29 1.3875,0.29 v 1.595 c -0.79125,0 -1.6975,-0.3025 -2.3888,-0.5925 l -0.89,-0.3025 -1.895,6.3588 -1.4925,-0.59875 z m 6.6662,-13.901 1.1838,0.38875 c 1.2012,0.20375 2.485,0.80375 2.8925,1.8912 0.49125,1.0888 0.49125,2.2875 0.20125,3.375 -0.60875,1.695 -1.6075,3.19 -3.0938,3.3812 -0.3,0.0987 -0.79125,0.0987 -1.1838,0 v -1.595 c 1.2825,0.10625 2.1812,-0.29 2.67,-2.1812 0.81625,-2.385 -0.48875,-3.1762 -2.3725,-3.5738 l -0.2975,-0.105 v -1.5812 z"
       id="path45" /><path
       fill="#ffffff"
       d="m 71.71661,179.30576 1.4912,0.3975 c 2.0775,0.5975 3.3825,0.5975 4.0588,-1.8862 0.815,-2.385 -0.4825,-3.1762 -2.3738,-3.5738 l -1.4925,-0.49375 -1.6838,5.5562 z m -3.7862,7.1525 4.4738,-14.6 3.3812,1.0875 c 1.1962,0.20375 2.4825,0.80375 2.8925,1.8912 0.49125,1.0888 0.49125,2.2875 0.195,3.375 -0.605,1.695 -1.6062,3.19 -3.0875,3.3812 -1.0875,0.1925 -2.5775,-0.19125 -3.575,-0.5925 l -0.89375,-0.3025 -1.885,6.3588 -1.5012,-0.59875 z m 12.9162,3.3775 -1.48,-0.1975 2.4812,-14.994 3.0825,0.49875 v 1.59 l -1.7862,-0.40875 -0.89625,5.465 2.3862,0.40625 h 0.29625 v 1.5825 c -0.11375,-0.0863 -0.2175,-0.0863 -0.29625,-0.0863 l -2.5975,-0.4075 -1.19,6.5512 z m 4.0838,-14.692 0.48125,0.0937 c 2.7788,0.395 4.4762,1.4962 3.8912,5.0675 -0.30875,1.695 -1.6962,2.7825 -3.1888,2.7825 1.6962,0.605 2.0762,1.1862 1.8912,3.1762 0,1.1862 -0.195,2.2875 -0.195,3.375 0,0.39625 0,0.995 0.38,1.1938 l -0.185,0.40125 -1.6975,-0.40125 c -0.19375,-0.99625 0,-2.8812 0.21,-3.9688 0.20375,-1.4038 -0.095,-2.695 -1.5875,-3.085 v -1.5825 c 0.88625,0.19875 2.38,0 2.6762,-2.285 0.39875,-2.585 -1.2988,-2.9862 -2.3862,-3.1775 h -0.29 v -1.59 z"
       id="path47" /><path
       fill="#ffffff"
       d="m 82.24661,181.78576 2.3862,0.40125 c 0.77875,0.20375 2.6825,0.395 2.9825,-2.28 0.3925,-2.585 -1.2975,-2.9862 -2.3862,-3.1775 l -2.0775,-0.40875 z m -1.4,8.04 -1.48,-0.19125 2.4812,-14.994 3.5638,0.5925 c 2.7788,0.395 4.475,1.4962 3.8938,5.0675 -0.3125,1.695 -1.69,2.7825 -3.1925,2.7825 1.6975,0.605 2.0775,1.1862 1.895,3.1762 0,1.1862 -0.1975,2.2875 -0.1975,3.375 0,0.39625 0,0.995 0.38,1.1938 l -0.1825,0.40125 -1.69,-0.40125 c -0.205,-1.0025 0,-2.8812 0.20625,-3.9688 0.1975,-1.4888 -0.20625,-2.7812 -1.8912,-3.1712 l -2.5962,-0.4075 -1.19,6.545 z m 15.6,2.1 h -0.1975 c -4.08,-0.1975 -4.475,-4.265 -4.265,-8.4438 0,-3.4725 0.49375,-7.5525 4.4625,-7.5525 v 1.595 c -2.1912,0 -2.9825,2.5838 -2.9825,5.9575 0,4.4688 0.39875,6.7562 2.785,6.955 h 0.1975 z m 0.195,-15.996 c 4.165,0 4.5638,4.1788 4.3825,7.7625 -0.2175,4.2588 -0.80375,8.135 -4.5775,8.2338 v -1.4888 c 2.4875,-0.0987 2.88,-2.3812 3.0875,-6.745 0,-3.3875 -0.6,-6.1675 -3.0875,-6.1675 v -1.595 z"
       id="path49" /><path
       fill="#ffffff"
       d="m 96.44661,177.52576 c -2.1912,0 -2.9825,2.5838 -2.9825,5.9575 0,4.4688 0.39875,6.7562 2.785,6.955 2.685,0 3.0775,-2.2825 3.285,-6.745 0,-3.3875 -0.6,-6.1675 -3.0875,-6.1675 m 0.195,-1.595 c 4.165,0 4.5638,4.1788 4.3825,7.7625 -0.2175,4.2588 -0.80375,8.2338 -4.775,8.2338 -4.08,-0.1975 -4.475,-4.265 -4.265,-8.4438 0,-3.5712 0.59625,-7.6462 4.6575,-7.5525 m 16.695,14.705 -1.2975,0.19875 -0.1825,-2.4788 c -0.21625,1.6812 -1.2975,2.88 -2.7962,2.9725 -4.155,0.4025 -5.06,-3.8762 -5.465,-7.4425 -0.3975,-3.5788 -0.1825,-7.9538 3.7862,-8.4475 2.58,-0.19875 4.2588,1.4888 4.475,4.2762 l -1.5025,0.19875 c -0.19375,-1.8925 -1.0875,-3.1775 -2.7775,-2.9862 -2.9675,0.40125 -2.6712,4.0862 -2.2838,6.7675 0.195,2.275 0.5875,6.3425 3.3738,6.1438 2.7788,-0.1975 2.6825,-2.9725 2.48,-5.4638 l -3.1775,0.4075 -0.195,-1.495 4.6812,-0.59375 0.88125,7.9425 z m 5.56,-1.2 -0.98875,0.19625 -3.7825,-14.798 3.3725,-0.88875 c 0.50625,-0.20375 0.905,-0.3025 1.3988,-0.3025 v 1.4938 c -0.29625,0.0937 -0.5925,0.18625 -0.7775,0.2925 l -2.1025,0.49375 1.2988,5.2662 1.5812,-0.2975 v 1.4962 l -1.19,0.29625 1.19,4.6738 v 2.0775 z m 0,-15.792 v 1.4938 c 0.90625,-0.105 2.1762,0.0937 2.7788,2.1825 0.5125,2.3862 -1.3938,3.1775 -1.8725,3.3762 l -0.90625,0.19625 v 1.4962 l 1.385,-0.395 c 1.6912,-0.4025 2.6988,0.69125 3.0775,2.2738 0.115,0.90375 0.90625,2.7875 1.5062,3.5725 l 1.6838,-0.39625 -0.21,-0.38875 c -0.38375,0.205 -0.58125,-0.59875 -0.775,-0.7975 -0.4,-1.0862 -0.69875,-1.99 -1.1038,-3.1762 -0.79125,-2.0825 -1.2862,-2.385 -2.9788,-2.1888 1.4988,-0.59375 1.9925,-2.0825 1.6925,-3.9738 -0.7075,-2.7825 -2.1875,-3.565 -4.2775,-3.275 m 0.5075,15.694 -0.5075,0.0987 v -2.0775 z"
       id="path51" /><path
       fill="#ffffff"
       d="m 117.31661,181.19576 2.4875,-0.49375 c 0.47875,-0.19875 2.385,-0.99 1.8725,-3.3762 -0.79125,-2.6812 -2.6762,-2.2875 -3.5562,-1.89 l -2.1025,0.49375 1.2988,5.2662 z m 2.0888,8.1475 -1.4962,0.295 -3.7825,-14.798 3.3725,-0.88875 c 2.7838,-0.79875 4.885,-0.4025 5.6762,2.9725 0.3,1.8912 -0.19375,3.38 -1.6925,3.9738 1.6925,-0.19625 2.1875,0.10625 2.9788,2.1888 0.405,1.1862 0.70375,2.09 1.1038,3.1762 0.19375,0.19875 0.39125,1.0025 0.775,0.7975 l 0.21,0.38875 -1.6838,0.39625 c -0.6,-0.785 -1.3912,-2.6688 -1.5062,-3.5725 -0.37875,-1.5825 -1.3862,-2.6762 -3.0775,-2.2738 l -2.5688,0.69125 1.6912,6.6525 z m 10.7212,-3.1775 -5.86,-14.099 6.56,-2.6875 0.5975,1.3962 -5.085,1.9788 1.9075,4.7712 4.6575,-1.8925 0.59625,1.4962 -4.7625,1.8862 2.0888,5.2588 5.06,-2.0775 0.605,1.2862 -6.365,2.6825 z m 9.54,-16.98 c -0.60875,-1.4962 -1.8912,-1.99 -3.1775,-1.2975 -2.1012,0.9825 -1.4912,2.485 -1,3.5725 0.6075,0.80375 1.3988,1.1 2.2862,1.1 0.8025,-0.1 1.4925,-0.1 2.29,-0.1 2.79,-0.395 3.7662,0.1 4.67,1.9912 1.4825,2.4725 0.79,4.8575 -1.5,6.0512 -1.0938,0.6925 -2.7775,1.0938 -4.4625,-0.19875 -0.59875,-0.5925 -1.195,-1.68 -1.5938,-2.4838 l 1.3988,-0.6925 c 0.89375,2.0825 1.9812,3.1762 3.8675,2.0825 1.5812,-0.7975 1.8788,-2.0825 1.2012,-3.5788 -1.2012,-2.0825 -1.9025,-1.68 -3.3838,-1.49 -0.79125,0 -2.0888,0.105 -3.0838,0.105 -1.4938,0 -2.1812,-0.8875 -2.9738,-2.1812 -1.2975,-2.2938 -0.71125,-4.3762 1.2838,-5.47 2.2862,-1.285 4.375,-0.79 5.4625,1.8912 l -1.285,0.69875 z m 8.64,-5.77 c -0.8925,-1.2862 -2.2838,-1.885 -3.3738,-0.99 -1.8912,1.3912 -1.1012,2.67 -0.39875,3.765 0.59625,0.80375 1.285,1.1 2.2812,0.80375 0.68875,-0.19875 1.4912,-0.4025 2.2838,-0.6 2.7775,-0.5925 3.6838,0 4.8738,1.49 1.69,2.485 1.48,4.6725 -0.80375,6.3588 -1.0888,0.79125 -2.5775,1.385 -4.4575,0.205 -0.60125,-0.31 -1.2975,-1.5025 -1.8962,-1.9912 l 1.295,-0.995 c 1.285,1.8938 2.4812,2.7812 4.3638,1.4838 1.0988,-0.88375 1.4988,-2.175 0.50375,-3.7638 -1.4812,-1.8912 -2.0875,-1.2975 -3.5825,-0.88875 -0.68375,0 -1.9812,0.38875 -2.9788,0.57375 -1.2862,0.11125 -2.3862,-0.57375 -3.1775,-1.8725 -1.495,-2.0838 -1.2862,-4.37 0.5925,-5.6688 1.9875,-1.49 4.0775,-1.0888 5.5638,1.1 l -1.0888,0.99 z m 11.12,5.45 -10.236,-11.509 1.1838,-0.9025 10.14,11.429 -1.0875,0.9825 z m -2.08,-19.36 1.2975,-1.2912 8.2325,13.315 -1.285,1.4888 -13.71,-7.75 1.105,-1.0888 12.404,7.145 -8.0438,-11.819 z m 14.2,6.76 -12.321,-9.0438 4.0875,-5.5625 1.2838,0.89 -3.1775,4.2775 3.9675,3.0788 2.9825,-4.1662 1.2862,0.995 -2.9825,4.06 4.5888,3.3875 3.165,-4.475 1.2862,0.88375 -4.1662,5.675 z m 0.49,-17.68 -5.3675,-2.5838 1.6962,-3.1775 c 0.3925,-0.995 1.1962,-2.0888 2.2875,-2.49 0.395,-0.095 0.89,-0.19875 1.3838,-0.19875 v 1.5888 c -1.2725,0 -1.9812,0.90375 -2.475,2.1888 l -0.80375,1.29 3.2788,1.6888 v 1.6938 z m 8.3412,4.1712 -8.3412,-4.1712 v -1.6938 l 2,1.0012 0.59625,-1.3975 c 0.89,-1.785 1.2825,-3.1762 -1.1962,-4.265 -0.49375,-0.3025 -0.995,-0.40125 -1.4,-0.50625 v -1.5888 c 0.70125,0 1.4,0.19875 2,0.6 1.6725,0.69875 2.7725,1.8925 2.7725,3.5712 0,1.095 -0.495,2.3875 -1.1,3.3875 l -0.3925,0.89125 5.865,2.8788 -0.80375,1.2925 z"
       id="path53" /><path
       fill="#ffffff"
       d="m 174.04661,137.88576 0.5925,-1.3975 c 0.8875,-1.785 1.2862,-3.1762 -1.2012,-4.265 -2.17,-1.1 -3.1775,0 -3.8675,1.6825 l -0.8025,1.29 5.2788,2.69 z m 6.3412,4.8638 -13.71,-6.755 1.6975,-3.1775 c 0.3925,-0.995 1.195,-2.0888 2.2838,-2.49 1.09,-0.39 2.4812,-0.19875 3.3875,0.40125 1.6712,0.69875 2.7712,1.8925 2.7712,3.5712 0,1.095 -0.5,2.3875 -1.1,3.3875 l -0.39875,0.89125 5.8725,2.8788 z m -8.6412,-18.0838 0.79125,-1.8838 4.88,0.395 v 1.3975 l -4.1788,-0.39625 4.1788,2.4862 v 1.7788 l -5.6712,-3.7775 z m 5.6712,-1.4888 10.721,0.805 -0.59375,1.68 -4.475,-0.38875 -1.3875,4.1662 3.7738,2.385 -0.495,1.49 -7.5438,-4.8712 v -1.7788 l 2.97,1.7788 1.2025,-3.38 -4.1725,-0.48875 v -1.3975 z"
       id="path55" /><path
       fill="#ffffff"
       d="m 173.23661,124.17576 7.145,4.265 1.1962,-3.3738 -8.3412,-0.89125 z m -1.4938,0.4875 0.7925,-1.8838 15.6,1.2 -0.59625,1.68 -4.475,-0.38875 -1.385,4.1662 3.7738,2.385 -0.49375,1.49 -13.216,-8.6488 z m 6.9638,-5.9475 -4.6575,-1.0025 0.79125,-3.4738 c 0.47875,-2.485 1.3788,-3.9738 3.8662,-3.7775 v 1.5912 c -1.8912,-0.10125 -2.2838,1.4938 -2.3862,2.285 l -0.60875,2.2875 2.995,0.49375 v 1.5962 z m 10.532,0.5925 -0.19875,1.49 -10.334,-2.0825 v -1.5962 l 2.4875,0.5025 0.495,-2.2938 c 0,-0.79125 0.3925,-2.7825 -2.1912,-3.1712 -0.2975,-0.10375 -0.495,-0.10375 -0.79125,-0.10375 v -1.5912 c 0.38625,0 0.79125,0.10625 1.1962,0.19875 1.6838,0.3025 2.7725,1.4962 2.7725,3.1838 0.6075,-1.6875 1.2975,-2.09 3.1875,-1.8925 1.0762,0.205 2.2725,0.40875 3.3762,0.40875 0.39875,0 1.0875,0 1.0875,-0.40875 l 0.3925,0.205 -0.3925,1.6875 c -0.905,0.1975 -2.785,0 -3.8662,-0.19875 -1.5012,-0.39375 -2.88,0 -3.1775,1.6825 l -0.6075,2.5838 6.5638,1.3962 z"
       id="path57" /><path
       fill="#ffffff"
       d="m 181.18661,117.62576 0.49375,-2.2938 c 0,-0.79125 0.39875,-2.7825 -2.1912,-3.1712 -2.6762,-0.6 -2.9725,1.2912 -3.1762,2.1812 l -0.6025,2.2875 5.4762,0.99625 z m 8.0438,1.6862 -0.195,1.49 -14.994,-3.085 0.79125,-3.4738 c 0.47875,-2.8788 1.6838,-4.375 5.0675,-3.5788 1.685,0.3025 2.7662,1.4962 2.7662,3.1838 0.60875,-1.6875 1.2988,-2.09 3.1888,-1.8975 1.0788,0.21 2.2812,0.41375 3.375,0.41375 0.39875,0 1.0888,0 1.0888,-0.41375 l 0.39875,0.21 -0.39875,1.6875 c -0.9,0.1975 -2.7788,0 -3.8662,-0.19875 -1.4925,-0.39375 -2.8812,0 -3.1775,1.6825 l -0.60875,2.5838 6.5638,1.3962 z m -13.5138,-10.9262 0.8025,-8.64 1.4962,0.1975 -0.40875,3.375 13.805,1.0938 -0.095,1.49 -13.71,-0.89625 -0.3975,3.5788 -1.4925,-0.19875 z m 8.06,-14.11 -7.6525,-2.7862 -0.1975,-1.6875 9.5338,3.7762 5.955,-0.38875 v 1.4888 l -5.7475,0.39 -9.145,4.4738 -0.20375,-1.6925 7.4575,-3.5738 z m -174.05,-27.42 8.6275,4.165 v -2.385 l -2.1725,-0.98875 1.7925,-3.5725 h 0.38 v -5.6625 l -4.0638,8.2462 -1.6962,-0.7975 4.67,-9.6362 1.09,0.49375 v -2.2862 l -0.185,-0.10625 c -1.1,-0.48125 -2.0888,-0.48125 -2.7788,1.0088 l -5.6638,11.521 z m 8.6275,4.165 4.7712,2.3862 c 1.2988,0.60625 2.2012,0.39625 2.6825,-1.0875 l 1.5825,-3.375 -1.1825,-1.9912 -2.1912,4.47 -3.7588,-1.885 2.3862,-4.97 5.55,0.59375 c 0.5075,0.0987 0.89375,-0.1975 1.4012,-0.6925 l 1.5938,-3.2812 -1.2025,-2.0838 -1.8825,3.9738 -4.5788,-0.40125 1.3912,-2.8738 -1.185,-2.1825 -2.2838,4.6612 -2.59,-0.0987 2.97,-6.0575 -3.4738,-1.6938 v 2.2862 l 0.60625,0.39625 -0.60625,1.2975 v 5.6625 l 2.2,0.29625 -2.2,4.265 v 2.385 z m 22.3625,-41.215 -1.1012,-1.5888 5.17,-3.8688 -1.9925,-1.0075 1.8912,-1.385 2.0888,0.995 5.3688,-3.98 0.0925,2.2988 -4.265,3.1775 2.3738,3.2688 5.3675,-3.9675 -0.095,2.5775 -4.0712,2.9788 2.7662,3.7838 5.6775,-4.1788 -0.10125,2.5838 -11.918,8.8388 -1.1962,-1.5888 5.5638,-4.1725 -2.7912,-3.7762 -5.1575,3.8812 -1.1838,-1.5875 5.1638,-3.8812 -2.385,-3.2775 -5.2662,3.8762 z m 50.66,-25.63 1.5825,3.1762 h 2.1025 l -1.595,-3.1762 z m -0.59,3.67 1.8912,3.1775 h 2.0888 l -1.9038,-3.1775 z m 0.3,5.07 v 1.8912 h 2.6825 v 1.5888 c -0.39875,1.885 -1.2825,3.6775 -2.485,5.365 h 2.29 l 0.99875,-1.5888 c 0.495,0.69875 1.3875,1.1862 2.4688,1.5888 h 10.242 l 1.0812,-1.9838 h -11.324 c -0.49125,-0.39625 -0.88625,-0.9025 -1.1838,-1.4962 v -3.4738 c 0.1025,-1.1925 -0.29625,-1.6938 -0.9975,-1.8912 h -3.7738 z"
       id="path59" /><path
       fill="#ffffff"
       d="m 99.32661,4.17576 -2.2838,2.1875 v 11.918 h 3.6838 v -1.885 h -1.4 v -1.5888 h 1.4 v -1.8912 h -1.4 v -1.2862 h 1.4 v -1.89 h -1.4 v -1.4912 h 1.4 v -1.885 h -0.59625 l 0.59625,-0.79 v -1.3975 h -1.4 z m 1.4,1.3975 v -1.3975 h 0.98625 z m 0,12.708 h 5.7575 l 1.0912,-1.885 h -3.375 v -1.5888 h 2.0775 l 1.39,-1.8912 h -3.4675 v -1.2862 h 2.4825 l 1.385,-1.89 h -3.8675 v -1.4912 h 2.6762 l 1.1912,-1.885 h -3.8675 v -2.1875 h -1.9925 v 2.1875 h -1.4812 v 1.885 h 1.4812 v 1.4912 h -1.4812 v 1.89 h 1.4812 v 1.2862 h -1.4812 v 1.8912 h 1.4812 v 1.5888 h -1.4812 v 1.885 z m 47.18,1.3945 -3.1762,4.4688 -1.9875,-1.4888 -1.2025,1.6938 5.365,3.7638 -3.575,5.1725 c -2.075,-1 -3.8662,-2.1875 -5.6588,-3.4788 l -0.0988,2.28 c 1.3838,1.0025 2.8762,2.09 4.3788,2.8812 2.8675,1.595 6.645,1.1862 10.726,0.395 l -0.41,-1.8788 c -2.4812,0.495 -4.7662,0.6925 -6.945,0.39625 l 3.2738,-4.5812 5.07,3.5862 2.3875,-0.79875 -6.2675,-4.475 1.1025,-1.5812 4.0612,2.88 2.0888,-0.6925 -5.165,-3.6712 1.2875,-1.7925 -1.5838,-1.2 -3.4725,4.8712 -1.6912,-1.0938 3.1775,-4.4688 -1.685,-1.1875 z"
       id="path61" /><path
       fill="#ffffff"
       d="m 139.15661,28.01576 0.30875,2.0838 5.76,-0.89 -0.29625,-1.8988 z m 35.76,29.71 -2.88,1.385 2.4825,5.1662 -0.5875,0.2975 -2.7875,-5.6562 -0.98625,0.48875 2.6825,5.6625 -0.49125,0.29625 -2.7875,-5.655 -0.98625,0.38875 6.3412,13.116 v -2.485 l -1.6838,-3.5788 0.495,-0.29 1.1888,2.485 v -2.6825 l -0.0887,-0.2975 h 0.0887 v -3.7762 l -0.88,-1.7862 0.3,-0.19875 0.58,1.1875 v -4.0675 z m 0,8.6412 v -3.7762 l 0.61,1.0938 h 0.0925 v 2.7812 l -0.195,-0.395 -0.5075,0.29625 z m 0,2.98 0.7025,1.3838 v -2.6762 l -0.7025,-1.39 v 2.6825 z m 0,3.8688 0.7025,-0.29625 v -0.79125 l -0.7025,-1.3975 z m 0.7025,-15.792 -0.7025,0.3025 v 4.0675 l 0.7025,1.2912 v -2.5825 l -0.3025,-0.4025 0.3025,-0.0925 v -2.5838 z m 0,9.0425 v -2.7812 l 0.20375,-0.105 -0.20375,-0.495 v -2.5825 l 0.69875,1.4888 v 5.965 l -0.69875,-1.49 z m 0,4.265 v -2.6762 l 0.69875,1.3912 v 2.6825 z m 0,2.1888 0.3,-0.1 -0.3,-0.69125 z m 0.09,-15.589 -0.09,0.0925 v 2.5838 l 0.09,-0.105 0.60875,1.1988 v -2.485 l -0.60875,-1.285 z m 0.60875,10.625 v -5.965 l 0.49125,1.2 0.3925,-0.19875 -0.88375,-1.8912 v -2.485 l 1.0988,2.1888 v 5.86 l -0.6075,-1.1938 -0.39875,0.1975 1.0062,1.985 v 2.5838 l -1.0988,-2.2812 z m 0,4.1725 0.19375,0.395 0.905,-0.395 v -0.39625 l -1.0988,-2.2862 v 2.6825 z m 1.69,-9.9388 v 2.5825 l -0.3125,0.205 0.3125,0.69125 v 2.3862 l -0.59125,-1.39 v -5.86 l 0.59125,1.385 z m -0.59125,8.0475 0.59125,1.1925 v -2.5775 0.0987 l -0.59125,-1.2975 z m 0,1.8912 0.085,-0.0987 -0.085,-0.2975 v 0.39625 z m 1.2862,-8.5488 v 2.4912 l -0.59625,-1.2988 h -0.0988 v -2.5825 l 0.695,1.39 z m -0.695,7.85 0.695,-0.3025 v -4.1675 l -0.695,-1.2912 v 2.3862 l 0.39625,0.6925 -0.39625,0.105 z m 0.695,-0.3025 1.9875,-0.99 c 0.495,-0.40125 0.68875,-0.89625 0.495,-1.39 l -2.4825,-5.1675 v 2.4912 l 0.98625,1.9838 -0.3975,0.1975 -0.58875,-1.2925 z m 0.6938,-13.0114 -2.285,1.0938 3.1775,6.4588 v -2.4775 l -1.3875,-2.7825 0.39375,-0.1975 0.99375,1.9788 v -2.38 l -0.8925,-1.6938 z m 0.8925,7.5525 0.70125,1.4838 2.285,-1.0812 -2.9862,-6.2612 v 2.38 l 1.2988,2.6825 -0.39875,0.1975 -0.9,-1.8788 v 2.4775 z"
       id="path63" /><path
       fill="#ffffff"
       d="m 175.71661,56.22576 3.6838,-1.7925 1.5938,3.3875 0.98875,-1.3975 0.7925,1.6875 -0.8875,1.4888 0.3925,0.8975 1.2975,-0.6 0.89125,1.7925 -1.2838,0.59375 0.49125,0.995 1.7812,0.40125 0.8025,1.6812 -1.6962,-0.1975 1.1038,2.1875 c 0,0.6 -0.10875,1.0875 -0.5075,1.4962 l -2.685,1.285 -1.0888,-2.0825 2.785,-1.2912 -4.7712,-9.8412 -2.7788,1.2925 -0.905,-1.9838 z m -7.45,5.17 -2.88,-0.59375 0.98875,2.0838 2.8925,0.4875 -1.0012,-1.9775 z m 1.6,3.27 -2.695,-0.29625 1.01,2.0888 2.6862,0.0937 -1.0012,-1.8862 z m 1.18,2.38 -1.48,2.3925 0.98625,1.885 1.3875,-2.38 z m 1.49,2.99 -1.3838,2.5838 0.985,2.0775 1.3038,-2.5712 -0.905,-2.09 z"
       id="path65" /></g></svg>
