<?xml version="1.0" encoding="UTF-8" standalone="no"?>
<svg
   width="196.89"
   height="197"
   version="1.1"
   id="svg67"
   sodipodi:docname="dpp.svg"
   inkscape:export-filename="dpp.png"
   inkscape:export-xdpi="96"
   inkscape:export-ydpi="96"
   inkscape:version="1.2.2 (b0a8486541, 2022-12-01)"
   xmlns:inkscape="http://www.inkscape.org/namespaces/inkscape"
   xmlns:sodipodi="http://sodipodi.sourceforge.net/DTD/sodipodi-0.dtd"
   xmlns="http://www.w3.org/2000/svg"
   xmlns:svg="http://www.w3.org/2000/svg">
  <sodipodi:namedview
     id="namedview69"
     pagecolor="#ffffff"
     bordercolor="#000000"
     borderopacity="0.25"
     inkscape:showpageshadow="2"
     inkscape:pageopacity="0.0"
     inkscape:pagecheckerboard="0"
     inkscape:deskcolor="#d1d1d1"
     showgrid="false"
     inkscape:zoom="4.284264"
     inkscape:cx="80.410545"
     inkscape:cy="98.5"
     inkscape:window-width="1920"
     inkscape:window-height="1035"
     inkscape:window-x="0"
     inkscape:window-y="0"
     inkscape:window-maximized="1"
     inkscape:current-layer="svg67" />
  <defs
     id="defs5">
    <clipPath
       id="a">
      <path
         d="M129.08 197.83c-43.547-.079-78.741-35.364-78.741-78.759 0-43.549 35.194-78.84 78.741-78.84h.091c43.393 0 78.676 35.291 78.676 78.84 0 43.474-35.283 78.759-78.676 78.759h-.091zm-57.453-78.76c0 31.71 25.661 57.547 57.54 57.547 31.704 0 57.535-25.837 57.535-57.547 0-31.79-25.831-57.538-57.535-57.538-31.879 0-57.54 25.748-57.54 57.538"
         id="path2" />
    </clipPath>
  </defs>
  <path
     fill="#009a00"
     d="M98.23661 171.66576c40.028 0 72.722-32.579 72.722-72.719 0-40.035-32.695-72.62-72.722-72.62-40.235 0-72.616 32.585-72.616 72.62 0 40.14 32.381 72.719 72.616 72.719"
     id="path7" />
  <path
     fill="#FFF"
     d="M174.33661 72.61576h-40.235v-49.571h-71.724v49.571h-39.841v52.755h39.841v48.576h71.724v-48.576h40.235v-52.755z"
     id="path9" />
  <path
     fill="none"
     stroke="#009a00"
     stroke-width="2.62625"
     d="M22.53661 77.19576h44.408v-53.551m-44.408 97.151h44.408v52.558m107.392-96.158h-44.914v-53.551m44.914 97.151h-44.914v52.558"
     id="path11" />
  <path
     fill="#009a00"
     d="M118.79661 43.41576c1.0988-.40125 1.48 1.2862 2.385 1.0888 1.595.59875 3.98-.19875 4.3738 1.6812 0 1.7975 1.785 3.0838.7775 4.975-4.555 3.375-1.6775 8.9375-1.2688 13.314-.60375 3.7762-2.8812 6.855-3.6725 10.631-3.5825 5.0625 1.385 11.324-2.4938 16.286-1.0888 2.4912-.50125 5.1625-1.6962 7.75-.3925 2.48-2.0762 4.9638-1.4812 7.6475-3.2662 8.5425-7.4575 17.479-13.514 24.644-4.8738 7.4475-4.6575 15.99-3.5762 24.135.59625 3.7838-3.78 1.8925-5.6712 2.09-4.1625-2.8875-.97375-8.3438-4.7712-11.83-4.9575-6.2562-11.905-10.822-12.905-19.359-1.685-2.9925-6.2525-6.07-4.76-9.84.79125-7.0525 1.3838-14.012 1.685-22.351 5.7562-8.745 13.504-16.589 14.706-26.825 3.165-3.77 7.7425-7.355 7.9362-12.714 1.4962-6.4588 8.7438-7.355 13.116-10.928 1.2988-1.5888 2.3862-3.2825 4.4875-4.0738 2.4762-.1975 5.5512.79125 6.3425 3.6775"
     id="path13" />
  <path
     fill="#bfbaa5"
     d="M98.53661 170.37576c-39.842 0-71.919-32.185-71.919-71.922 0-39.638 32.076-71.928 71.919-71.928 39.635 0 71.918 32.29 71.918 71.928 0 39.738-32.282 71.922-71.918 71.922m0-170.37h-.115c-54.426.0987-98.42 44.205-98.42 98.449 0 54.436 43.994 98.544 98.42 98.544h.115c54.24 0 98.35-44.108 98.35-98.544 0-54.342-44.11-98.449-98.35-98.449"
     id="path15" />
  <g
     clip-path="url(#a)"
     transform="matrix(1.25 0 0 -1.25 -62.91875 247.29125)"
     id="g35">
    <path
       fill="#df252b"
       d="M180.02 37.125c.496-.792-.75-1.38-.446-2.049-.208-1.344.811-3.075-.593-3.702-1.392-.302-2.106-1.924-3.746-1.459-3.414 3.001-7.281-.187-10.633-1.237-3.044-.167-5.846 1.093-8.933 1.078-4.557 1.949-8.611-2.996-13.148-.8-2.139.44-4.129-.485-6.352.02-2.01-.11-4.232.78-6.232-.129-7.225 1.128-14.922 2.878-21.545 6.414-6.648 2.546-13.291.953-19.475-1.277-2.861-1.102-2.126 2.636-2.591 4.079 1.555 3.75 6.359 2.181 8.446 5.716 4.054 4.946 6.456 11.152 12.967 13.362 2.045 1.83 3.687 5.923 6.891 5.395 5.647.568 11.185 1.275 17.751 2.446 7.816-3.035 15.258-7.762 23.461-6.97 3.488-1.85 7.058-4.823 11.291-4.075 5.301-.08 7.21-5.597 10.75-8.416 1.464-.737 2.977-1.306 3.933-2.804.579-1.909.32-4.485-1.796-5.592"
       id="path17" />
    <path
       fill="#accf42"
       d="M53.065 59.691c-.623-.681-1.536.372-2.087-.103-1.357-.143-2.759-1.576-3.726-.381-.653 1.276-2.396 1.538-2.386 3.244 2.015 4.075-2.054 6.983-3.933 9.959-.952 2.903-.445 5.929-1.266 8.905.7 4.912-5.115 7.556-4.166 12.505-.128 2.166-1.525 3.863-1.622 6.132-.623 1.914-.329 4.297-1.731 5.988-.781 7.284-1.067 15.165.644 22.475.733 7.075-2.522 13.083-6.261 18.493-1.812 2.472 1.995 2.719 3.261 3.55 4.028-.534 3.758-5.578 7.707-6.69 5.825-2.636 12.431-3.348 16.261-9.074 2.291-1.503 6.673-2.032 6.991-5.261 2.005-5.31 4.112-10.483 6.953-16.531-.923-8.332-3.58-16.748-.695-24.471-.89-3.836-2.831-8.06-1.016-11.947 1.286-5.137-3.551-8.415-5.363-12.559-.334-1.603-.497-3.205-1.691-4.529-1.691-1.054-4.255-1.469-5.874.295"
       id="path19" />
    <path
       fill="#7a80bc"
       d="M58.593 58.763c-.663.652.415 1.522-.04 2.096-.106 1.356-1.495 2.803-.279 3.739 1.296.613 1.615 2.353 3.326 2.284 4.005-2.146 7.028 1.848 10.047 3.635 2.937.864 5.954.276 8.953.999 4.895-.846 7.701 4.899 12.616 3.797 2.188.064 3.904 1.418 6.193 1.444 1.924.568 4.3.202 6.03 1.553 7.296.567 15.191.617 22.442-1.301 7.059-.959 13.151 2.11 18.669 5.701 2.522 1.735 2.658-2.072 3.454-3.372-.645-4.001-5.686-3.58-6.907-7.501-2.817-5.736-3.726-12.338-9.561-15.982-1.573-2.251-2.238-6.606-5.467-6.824-5.362-1.854-10.604-3.807-16.736-6.463-8.289 1.162-16.623 4.06-24.426 1.405-3.808 1.008-7.959 3.076-11.92 1.38-5.169-1.138-8.302 3.793-12.399 5.725-1.589.386-3.184.593-4.469 1.83-1 1.721-1.343 4.292.474 5.855M138.8 213.73c.227.9 1.513.395 1.797 1.068 1.12.771 1.692 2.7 3.12 2.101 1.165-.825 2.836-.237 3.62-1.755.126-4.544 5.079-5.192 8.146-6.932 2.198-2.122 3.175-5.029 5.291-7.279 1.692-4.658 8.073-4.263 9.556-9.079 1.125-1.864 3.165-2.69 4.319-4.657 1.444-1.395 2.304-3.635 4.334-4.471 4.112-6.062 8.067-12.895 9.986-20.144 2.673-6.597 8.359-10.379 14.212-13.386 2.761-1.34-.485-3.338-1.215-4.673-3.807-1.414-5.933 3.175-9.948 2.285-6.381-.401-12.553-2.873-18.615.38-2.739.253-6.846-1.339-8.633 1.371-4.272 3.748-8.562 7.322-13.893 11.333-3.115 7.783-4.719 16.456-10.893 21.92-1.016 3.812-1.275 8.44-4.702 11.032-3.561 3.935-.831 9.097-1.179 13.603-.448 1.577-1.058 3.06-.634 4.801 1.007 1.72 3.069 3.288 5.331 2.482"
       id="path21" />
    <path
       fill="#fac000"
       d="M51.848 187.88c.542.751 1.566-.208 2.067.321 1.335.307 2.572 1.894 3.66.806.791-1.196 2.564-1.265 2.729-2.966-1.565-4.268 2.821-6.711 5.004-9.45 1.276-2.784 1.118-5.85 2.248-8.718-.164-4.954 5.919-6.942 5.523-11.966.38-2.146 1.95-3.669 2.295-5.914.834-1.839.814-4.233 2.385-5.765 1.585-7.145 2.74-14.953 1.857-22.4.032-7.121 3.95-12.733 8.27-17.692 2.064-2.255-1.692-2.917-2.868-3.887-4.045.079-4.344 5.133-8.394 5.785-6.077 1.988-12.72 1.969-17.17 7.23-2.436 1.246-6.847 1.286-7.515 4.45-2.583 5.063-5.255 9.969-8.744 15.664-.009 8.377 1.701 17.036-2.015 24.393.44 3.911 1.924 8.317-.309 11.991-1.859 4.965 2.582 8.762 3.923 13.074.164 1.632.154 3.244 1.19 4.688 1.57 1.226 4.067 1.928 5.864.356"
       id="path23" />
    <path
       fill="#7a80bc"
       d="M22.111 133.59c-.923.129-.552 1.47-1.277 1.662-.892 1.023-2.864 1.364-2.429 2.843.667 1.261-.122 2.843 1.29 3.808 4.502.662 4.562 5.671 5.924 8.915 1.854 2.433 4.618 3.748 6.599 6.122 4.43 2.215 3.285 8.504 7.894 10.552 1.711 1.345 2.292 3.461 4.099 4.845 1.217 1.603 3.343 2.715 3.932 4.836 5.533 4.797 11.842 9.534 18.814 12.303 6.243 3.426 9.306 9.533 11.61 15.695 1.004 2.893 3.373-.089 4.792-.663 1.856-3.6-2.458-6.255-1.09-10.136 1.144-6.29 4.328-12.135 1.817-18.534.081-2.739 2.148-6.636-.324-8.737-3.224-4.682-6.267-9.366-9.616-15.146-7.354-4.005-15.78-6.625-20.47-13.4-3.667-1.468-8.248-2.274-10.399-5.983-3.484-3.996-8.943-1.899-13.374-2.779-1.503-.638-2.917-1.419-4.689-1.191-1.827.796-3.62 2.65-3.103 4.988"
       id="path25" />
    <path
       fill="#c82070"
       d="M73.734 168.2c-.871.356-.178 1.562-.811 1.933-.613 1.217-2.455 2.033-1.662 3.367.98 1.049.623 2.78 2.236 3.354 4.509-.496 5.827 4.34 7.968 7.129 2.396 1.899 5.414 2.463 7.924 4.263 4.856 1.038 5.323 7.407 10.295 8.228 2 .87 3.093 2.769 5.199 3.649 1.585 1.241 3.919 1.78 5.029 3.689 6.552 3.244 13.863 6.24 21.312 7.16 6.891 1.745 11.407 6.878 15.19 12.263 1.691 2.546 3.242-.94 4.455-1.849.893-3.951-3.943-5.44-3.599-9.534-.482-6.374 1.139-12.827-2.917-18.394-.611-2.671.385-6.963-2.52-8.372-4.3-3.718-8.426-7.496-13.116-12.233-8.136-2.018-16.948-2.433-23.201-7.808-3.913-.494-8.542-.119-11.568-3.165-4.371-2.996-9.131.411-13.628.683-1.624-.232-3.184-.633-4.833.029-1.585 1.231-2.851 3.476-1.753 5.608"
       id="path27" />
    <path
       fill="#fac000"
       d="M188.44 176.71c.561.747 1.575-.217 2.077.317 1.335.287 2.581 1.859 3.669.771.781-1.192 2.541-1.285 2.709-2.981-1.594-4.258 2.76-6.73 4.943-9.489 1.251-2.784 1.068-5.85 2.188-8.733-.188-4.949 5.862-6.972 5.437-11.996.35-2.146 1.931-3.679 2.259-5.933.819-1.839.77-4.243 2.344-5.78 1.528-7.155 2.638-14.969 1.696-22.415 0-7.121 3.86-12.758 8.152-17.743 2.047-2.273-1.711-2.907-2.876-3.866-4.067.109-4.314 5.158-8.359 5.845-6.082 2.018-12.73 2.047-17.131 7.338-2.43 1.261-6.828 1.33-7.484 4.514-2.551 5.069-5.185 9.994-8.631 15.71.044 8.381 1.808 17.024-1.859 24.407.482 3.917 1.975 8.307-.227 11.996-1.822 4.974 2.638 8.742 4.015 13.045.165 1.632.165 3.234 1.223 4.682 1.571 1.217 4.062 1.899 5.855.311"
       id="path29" />
    <path
       fill="#accf42"
       d="M105.77 179.51c-.861.35-.198 1.562-.831 1.927-.613 1.217-2.45 2.028-1.681 3.353.976 1.059.613 2.784 2.223 3.373 4.512-.475 5.807 4.371 7.933 7.169 2.382 1.909 5.39 2.503 7.9 4.312 4.846 1.059 5.281 7.437 10.248 8.283 1.985.885 3.075 2.789 5.182 3.673 1.562 1.257 3.899 1.81 4.997 3.719 6.541 3.283 13.823 6.32 21.262 7.289 6.891 1.784 11.38 6.937 15.128 12.342 1.682 2.551 3.256-.915 4.471-1.814.917-3.962-3.919-5.475-3.548-9.559-.448-6.379 1.204-12.827-2.801-18.414-.604-2.671.424-6.958-2.48-8.387-4.285-3.743-8.392-7.526-13.044-12.302-8.122-2.067-16.944-2.532-23.154-7.941-3.916-.515-8.545-.169-11.551-3.234-4.359-3.011-9.141.365-13.645.618-1.627-.253-3.175-.663-4.836 0-1.576 1.211-2.861 3.461-1.773 5.593"
       id="path31" />
    <path
       fill="#c82070"
       d="M200.86 133.28c.83.435 1.327-.856 2.014-.608 1.328-.307 3.121.583 3.642-.871.186-1.423 1.751-2.249 1.159-3.857-3.256-3.165-.385-7.268.404-10.691-.069-3.055-1.563-5.745-1.791-8.82-2.293-4.396 2.302-8.826-.229-13.178-.601-2.087.163-4.153-.512-6.324-.05-2.019-1.128-4.164-.363-6.221-1.692-7.13-4.055-14.666-8.083-20.98-3.068-6.423-2.009-13.178-.267-19.522.87-2.932-2.801-1.893-4.262-2.261-3.622 1.845-1.681 6.518-5.054 8.872-4.598 4.43-10.594 7.308-12.295 13.974-1.662 2.185-5.614 4.144-4.826 7.293-.136 5.677-.393 11.26-1.058 17.904 3.642 7.552 8.952 14.592 8.806 22.836 2.127 3.327 5.346 6.651 4.943 10.928.494 5.281 6.151 6.764 9.234 10.063.861 1.399 1.546 2.853 3.12 3.703 1.934.425 4.486-.025 5.418-2.24"
       id="path33" />
  </g>
  <path
     fill="#FFF"
     d="M5.56661 90.70576l7.6388.29v1.49l-6.1712-.2975v2.4862c-.0962 2.1862 1.6962 3.3738 6.1712 3.3738v1.49h-.30875c-3.7675-.19125-7.54-1.0888-7.54-4.6675l.21-4.165zm7.6388.29l7.755.30375-.2175 3.77c-.08 4.1712-3.8662 4.87-7.5375 4.4688v-1.49h.1025c3.5688 0 5.7725-.39625 5.955-2.7812v-2.485l-6.0575-.29625v-1.49z"
     id="path37" />
  <path
     fill="#FFF"
     d="M7.03661 92.18576v2.4862c-.10125 2.285 1.6975 3.3738 6.2688 3.3738 3.575 0 5.7688-.39625 5.9612-2.7812v-2.485l-12.23-.59375zm-1.4675-1.4825l15.388.59375-.21 3.77c-.09 4.2775-4.0712 4.87-7.85 4.4738-3.7712-.19625-7.5438-1.0938-7.5438-4.6725l.21625-4.165zm-.2125 12.6125l15.392-1.2925.6 6.9662h-1.4925l-.59375-5.2712-5.0712.29.5975 5.0688-1.6788.1975-.39875-5.07-5.6712.60125.59875 5.2662-1.4925.1975-.79-6.9538zm18.08 16.09l.68875 2.6762-15.005 3.38-.395-1.4812 12.428-2.8812c.5875-.105 1.1838-.105 1.885-.3025v-.19875c-.9.19875-1.505.19875-2.0888.19875h-12.919l-.3925-1.6875 11.62-5.8588c.59625-.205 1.0012-.3975 1.6912-.70625-.5075 0-1.095.105-1.8738.30875l-12.139 2.875-.39875-1.3912 14.81-3.5738.79 2.6838-11.125 5.4638c-.5975.19875-1.0888.39625-2.0888.69875.80375 0 1.4912-.20375 2.2838-.20375h12.229zm-4.08 16.49c-3.1775 1.0938-6.0562 1.285-7.3425-1.7938-.32125-.5925-.41125-1.0875-.41125-1.5812v-.20375c.09-2.6825 3.0812-4.37 6.3662-5.755.4825-.20375.89375-.3025 1.3875-.50625v1.6925c-.28375.0987-.49375.19875-.79125.2975-4.1775 1.6938-6.0575 3.0775-5.0688 5.4638.7925 1.9838 2.6825 1.7925 5.86.5925v1.7938zm7.4538-7.9488c.19875.49375.3.9875.3 1.385v.50625c-.10125 2.5825-2.9825 4.1712-5.5775 5.1612-.6825.3025-1.4862.59875-2.1762.89625v-1.7938c.495-.19625.90625-.395 1.385-.5925 3.2725-1.0888 5.4638-2.7812 4.5825-5.0688-.70125-1.8788-3.0875-1.6812-5.9675-.6925v-1.6925c2.88-.98875 6.16-1.3925 7.4538 1.8912"
     id="path39" />
  <path
     fill="#FFF"
     d="M25.32661 128.44576c-.80375-2.0825-3.5825-1.6812-6.7588-.40125-4.185 1.7-6.0575 3.0838-5.0725 5.47.8875 2.2875 3.1775 1.6862 7.2412 0 3.28-1.0888 5.4712-2.7812 4.59-5.0688m1.48-.49375c1.4862 3.6838-2.0888 5.76-5.2775 7.0525-3.9562 1.6875-7.835 2.8862-9.52-.8975-1.5875-3.775 1.9812-5.8588 5.9625-7.54 3.1762-1.2912 7.355-2.3862 8.835 1.385m1.4901 13.8138c1.6975-.89875 2.6838-1.9975 1.6975-3.6775-1.2925-2.2875-4.8738-.19875-6.5588.69-1.8975.99-6.0688 3.1775-4.475 5.6638.89375 1.6862 2.3862 1.0988 4.0838.59875.19625-.205.595-.40125.97625-.59875l.7075 1.2975c-.39875.1975-.59375.38875-.90625.38875-1.1775.60625-1.8788 1.0938-3.1638.89625-1.3975 0-2.2975-.49375-3.075-1.6812-1.9938-3.6838 1.6775-5.97 4.855-7.8562 3.0812-1.6862 6.96-3.5775 9.0475-.1975 1.2875 2.28 0 4.6662-2.1988 5.865l-.99-1.3888zm-5.06 11.52l-.905-1.3912 10.634-8.0412v1.8912l-3.3738 2.4775 1.48 1.885c.41.30375.995 1.0025 1.8938 1.1012v1.285c-.49375-.105-.89875-.40125-1.2975-.69875.99875 1.4912.60625 2.1838-.8925 3.6775-.79125.79875-1.6912 1.5888-2.4825 2.2875-.18125.1975-.5925.79125-.3975 1.0875l-.29625.1975-1.185-1.4825c.79125-.70625 2.0888-2.09 2.8688-2.7888 1.2975-.99375 1.9988-2.0812.905-3.565l-1.685-2.09-5.2662 4.1675zm9.7288-9.4325l1.385-1.095 2.1912 2.7875c1.7025 2.2812 2.2838 4.1662-.695 6.2488-.9.69875-1.9912.99625-2.8812.69875v-1.285c.59375.0925 1.2988-.0988 2.09-.7975 2.0738-1.5025.985-2.985.39875-3.875l-1.2975-1.695-1.1912.90375v-1.8912z"
     id="path41" />
  <path
     fill="#FFF"
     d="M29.59661 148.21576l1.48 1.885c.59625.49625 1.8938 1.9925 3.98.30375 2.0775-1.5025.995-2.985.4-3.875l-1.295-1.695-4.565 3.3812zm-6.355 5.0638l-.89875-1.3912 12.012-9.1362 2.1912 2.7875c1.7025 2.275 2.2838 4.1662-.6975 6.2488-1.3912 1.095-3.075 1.095-4.1762 0 .99875 1.4912.60625 2.1838-.8875 3.6775-.79.79125-1.6962 1.5838-2.4875 2.2875-.18125.1975-.5925.79125-.3975 1.0875l-.29125.1975-1.19-1.4825c.79125-.70625 2.0888-2.09 2.8688-2.7888 1.295-.99375 2.005-2.0812.90125-3.565l-1.6812-2.09-5.2662 4.1675zm16.085 9.7462l-2.9825 4.865-1.2825-1.0888 2.4725-3.98-3.1775-2.98-3.77 2.3862-1.1838-1.2925 9.9238-5.8575v1.6938l-3.4738 2.075 2.3975 2.69 1.0762-1.5888v3.0775zm3.6712-10.136l1.4925 1.495-5.1638 8.6412v-3.0775l3.4738-5.365-3.4738 2.1888v-1.6938l3.6712-2.1888z"
     id="path43" />
  <path
     fill="#FFF"
     d="M42.79661 154.57576l-6.95 4.2638 2.4 2.69 4.55-6.9538zm.1975-1.6938l1.4988 1.495-8.1525 13.506-1.2862-1.0888 2.4762-3.98-3.1775-2.98-3.7725 2.3862-1.1838-1.2925 13.598-8.0462zm4.2825 4.2838l6.7588 5.2662-.89875 1.385-2.8775-2.28-8.4438 10.926-1.09-1 8.43-10.921-2.7725-2.1812.89375-1.195zm0 18.97l8.2475-12.714 1.295.69125-8.245 13.018-1.2975-.995zm15.58-3.38c.7025-1.6825.90625-3.1788-.79-4.0675-2.1762-1.1938-4.2662 2.385-5.255 4.2638-.905 1.695-3.1762 5.8662-.49375 7.1588 1.4825.89625 2.5825-.39625 3.5725-1.8925.195-.1975.29625-.5925.49125-.69125l1.3875.49375c-.18625.395-.18625.60625-.3925.99625-.79.89625-1.19 1.8838-2.2775 2.3912-1.1038.59375-2.2875.79-3.585.19125-3.77-2.0838-1.6812-6.1612 0-9.3325 1.4838-3.0788 3.9675-6.6588 7.5538-4.97 2.175 1.3912 2.3862 3.7762 1.0875 6.255l-1.2988-.79625zm5.07 13.7l4.475-14.6 2.1912.69875v1.5812l-1.2025-.38875-1.6775 5.5562 1.4925.4025c.49375.19875 1.0012.29 1.3875.29v1.595c-.79125 0-1.6975-.3025-2.3888-.5925l-.89-.3025-1.895 6.3588-1.4925-.59875zm6.6662-13.901l1.1838.38875c1.2012.20375 2.485.80375 2.8925 1.8912.49125 1.0888.49125 2.2875.20125 3.375-.60875 1.695-1.6075 3.19-3.0938 3.3812-.3.0987-.79125.0987-1.1838 0v-1.595c1.2825.10625 2.1812-.29 2.67-2.1812.81625-2.385-.48875-3.1762-2.3725-3.5738l-.2975-.105v-1.5812z"
     id="path45" />
  <path
     fill="#FFF"
     d="M71.71661 179.30576l1.4912.3975c2.0775.5975 3.3825.5975 4.0588-1.8862.815-2.385-.4825-3.1762-2.3738-3.5738l-1.4925-.49375-1.6838 5.5562zm-3.7862 7.1525l4.4738-14.6 3.3812 1.0875c1.1962.20375 2.4825.80375 2.8925 1.8912.49125 1.0888.49125 2.2875.195 3.375-.605 1.695-1.6062 3.19-3.0875 3.3812-1.0875.1925-2.5775-.19125-3.575-.5925l-.89375-.3025-1.885 6.3588-1.5012-.59875zm12.9162 3.3775l-1.48-.1975 2.4812-14.994 3.0825.49875v1.59l-1.7862-.40875-.89625 5.465 2.3862.40625h.29625v1.5825c-.11375-.0863-.2175-.0863-.29625-.0863l-2.5975-.4075-1.19 6.5512zm4.0838-14.692l.48125.0937c2.7788.395 4.4762 1.4962 3.8912 5.0675-.30875 1.695-1.6962 2.7825-3.1888 2.7825 1.6962.605 2.0762 1.1862 1.8912 3.1762 0 1.1862-.195 2.2875-.195 3.375 0 .39625 0 .995.38 1.1938l-.185.40125-1.6975-.40125c-.19375-.99625 0-2.8812.21-3.9688.20375-1.4038-.095-2.695-1.5875-3.085v-1.5825c.88625.19875 2.38 0 2.6762-2.285.39875-2.585-1.2988-2.9862-2.3862-3.1775h-.29v-1.59z"
     id="path47" />
  <path
     fill="#FFF"
     d="M82.24661 181.78576l2.3862.40125c.77875.20375 2.6825.395 2.9825-2.28.3925-2.585-1.2975-2.9862-2.3862-3.1775l-2.0775-.40875-.905 5.465zm-1.4 8.04l-1.48-.19125 2.4812-14.994 3.5638.5925c2.7788.395 4.475 1.4962 3.8938 5.0675-.3125 1.695-1.69 2.7825-3.1925 2.7825 1.6975.605 2.0775 1.1862 1.895 3.1762 0 1.1862-.1975 2.2875-.1975 3.375 0 .39625 0 .995.38 1.1938l-.1825.40125-1.69-.40125c-.205-1.0025 0-2.8812.20625-3.9688.1975-1.4888-.20625-2.7812-1.8912-3.1712l-2.5962-.4075-1.19 6.545zm15.6 2.1h-.1975c-4.08-.1975-4.475-4.265-4.265-8.4438 0-3.4725.49375-7.5525 4.4625-7.5525v1.595c-2.1912 0-2.9825 2.5838-2.9825 5.9575 0 4.4688.39875 6.7562 2.785 6.955h.1975v1.4888zm.195-15.996c4.165 0 4.5638 4.1788 4.3825 7.7625-.2175 4.2588-.80375 8.135-4.5775 8.2338v-1.4888c2.4875-.0987 2.88-2.3812 3.0875-6.745 0-3.3875-.6-6.1675-3.0875-6.1675v-1.595h.195z"
     id="path49" />
  <path
     fill="#FFF"
     d="M96.44661 177.52576c-2.1912 0-2.9825 2.5838-2.9825 5.9575 0 4.4688.39875 6.7562 2.785 6.955 2.685 0 3.0775-2.2825 3.285-6.745 0-3.3875-.6-6.1675-3.0875-6.1675m.195-1.595c4.165 0 4.5638 4.1788 4.3825 7.7625-.2175 4.2588-.80375 8.2338-4.775 8.2338-4.08-.1975-4.475-4.265-4.265-8.4438 0-3.5712.59625-7.6462 4.6575-7.5525m16.695 14.705l-1.2975.19875-.1825-2.4788c-.21625 1.6812-1.2975 2.88-2.7962 2.9725-4.155.4025-5.06-3.8762-5.465-7.4425-.3975-3.5788-.1825-7.9538 3.7862-8.4475 2.58-.19875 4.2588 1.4888 4.475 4.2762l-1.5025.19875c-.19375-1.8925-1.0875-3.1775-2.7775-2.9862-2.9675.40125-2.6712 4.0862-2.2838 6.7675.195 2.275.5875 6.3425 3.3738 6.1438 2.7788-.1975 2.6825-2.9725 2.48-5.4638l-3.1775.4075-.195-1.495 4.6812-.59375.88125 7.9425zm5.56-1.2l-.98875.19625-3.7825-14.798 3.3725-.88875c.50625-.20375.905-.3025 1.3988-.3025v1.4938c-.29625.0937-.5925.18625-.7775.2925l-2.1025.49375 1.2988 5.2662 1.5812-.2975v1.4962l-1.19.29625 1.19 4.6738v2.0775zm0-15.792v1.4938c.90625-.105 2.1762.0937 2.7788 2.1825.5125 2.3862-1.3938 3.1775-1.8725 3.3762l-.90625.19625v1.4962l1.385-.395c1.6912-.4025 2.6988.69125 3.0775 2.2738.115.90375.90625 2.7875 1.5062 3.5725l1.6838-.39625-.21-.38875c-.38375.205-.58125-.59875-.775-.7975-.4-1.0862-.69875-1.99-1.1038-3.1762-.79125-2.0825-1.2862-2.385-2.9788-2.1888 1.4988-.59375 1.9925-2.0825 1.6925-3.9738-.7075-2.7825-2.1875-3.565-4.2775-3.275m.5075 15.694l-.5075.0987v-2.0775l.5075 1.9788z"
     id="path51" />
  <path
     fill="#FFF"
     d="M117.31661 181.19576l2.4875-.49375c.47875-.19875 2.385-.99 1.8725-3.3762-.79125-2.6812-2.6762-2.2875-3.5562-1.89l-2.1025.49375 1.2988 5.2662zm2.0888 8.1475l-1.4962.295-3.7825-14.798 3.3725-.88875c2.7838-.79875 4.885-.4025 5.6762 2.9725.3 1.8912-.19375 3.38-1.6925 3.9738 1.6925-.19625 2.1875.10625 2.9788 2.1888.405 1.1862.70375 2.09 1.1038 3.1762.19375.19875.39125 1.0025.775.7975l.21.38875-1.6838.39625c-.6-.785-1.3912-2.6688-1.5062-3.5725-.37875-1.5825-1.3862-2.6762-3.0775-2.2738l-2.5688.69125 1.6912 6.6525zm10.7212-3.1775l-5.86-14.099 6.56-2.6875.5975 1.3962-5.085 1.9788 1.9075 4.7712 4.6575-1.8925.59625 1.4962-4.7625 1.8862 2.0888 5.2588 5.06-2.0775.605 1.2862-6.365 2.6825zm9.54-16.98c-.60875-1.4962-1.8912-1.99-3.1775-1.2975-2.1012.9825-1.4912 2.485-1 3.5725.6075.80375 1.3988 1.1 2.2862 1.1.8025-.1 1.4925-.1 2.29-.1 2.79-.395 3.7662.1 4.67 1.9912 1.4825 2.4725.79 4.8575-1.5 6.0512-1.0938.6925-2.7775 1.0938-4.4625-.19875-.59875-.5925-1.195-1.68-1.5938-2.4838l1.3988-.6925c.89375 2.0825 1.9812 3.1762 3.8675 2.0825 1.5812-.7975 1.8788-2.0825 1.2012-3.5788-1.2012-2.0825-1.9025-1.68-3.3838-1.49-.79125 0-2.0888.105-3.0838.105-1.4938 0-2.1812-.8875-2.9738-2.1812-1.2975-2.2938-.71125-4.3762 1.2838-5.47 2.2862-1.285 4.375-.79 5.4625 1.8912l-1.285.69875zm8.64-5.77c-.8925-1.2862-2.2838-1.885-3.3738-.99-1.8912 1.3912-1.1012 2.67-.39875 3.765.59625.80375 1.285 1.1 2.2812.80375.68875-.19875 1.4912-.4025 2.2838-.6 2.7775-.5925 3.6838 0 4.8738 1.49 1.69 2.485 1.48 4.6725-.80375 6.3588-1.0888.79125-2.5775 1.385-4.4575.205-.60125-.31-1.2975-1.5025-1.8962-1.9912l1.295-.995c1.285 1.8938 2.4812 2.7812 4.3638 1.4838 1.0988-.88375 1.4988-2.175.50375-3.7638-1.4812-1.8912-2.0875-1.2975-3.5825-.88875-.68375 0-1.9812.38875-2.9788.57375-1.2862.11125-2.3862-.57375-3.1775-1.8725-1.495-2.0838-1.2862-4.37.5925-5.6688 1.9875-1.49 4.0775-1.0888 5.5638 1.1l-1.0888.99zm11.12 5.45l-10.236-11.509 1.1838-.9025 10.14 11.429-1.0875.9825zm-2.08-19.36l1.2975-1.2912 8.2325 13.315-1.285 1.4888-13.71-7.75 1.105-1.0888 12.404 7.145-8.0438-11.819zm14.2 6.76l-12.321-9.0438 4.0875-5.5625 1.2838.89-3.1775 4.2775 3.9675 3.0788 2.9825-4.1662 1.2862.995-2.9825 4.06 4.5888 3.3875 3.165-4.475 1.2862.88375-4.1662 5.675zm.49-17.68l-5.3675-2.5838 1.6962-3.1775c.3925-.995 1.1962-2.0888 2.2875-2.49.395-.095.89-.19875 1.3838-.19875v1.5888c-1.2725 0-1.9812.90375-2.475 2.1888l-.80375 1.29 3.2788 1.6888v1.6938zm8.3412 4.1712l-8.3412-4.1712v-1.6938l2 1.0012.59625-1.3975c.89-1.785 1.2825-3.1762-1.1962-4.265-.49375-.3025-.995-.40125-1.4-.50625v-1.5888c.70125 0 1.4.19875 2 .6 1.6725.69875 2.7725 1.8925 2.7725 3.5712 0 1.095-.495 2.3875-1.1 3.3875l-.3925.89125 5.865 2.8788-.80375 1.2925z"
     id="path53" />
  <path
     fill="#FFF"
     d="M174.04661 137.88576l.5925-1.3975c.8875-1.785 1.2862-3.1762-1.2012-4.265-2.17-1.1-3.1775 0-3.8675 1.6825l-.8025 1.29 5.2788 2.69zm6.3412 4.8638l-13.71-6.755 1.6975-3.1775c.3925-.995 1.195-2.0888 2.2838-2.49 1.09-.39 2.4812-.19875 3.3875.40125 1.6712.69875 2.7712 1.8925 2.7712 3.5712 0 1.095-.5 2.3875-1.1 3.3875l-.39875.89125 5.8725 2.8788-.80375 1.2925zm-8.6412-18.0838l.79125-1.8838 4.88.395v1.3975l-4.1788-.39625 4.1788 2.4862v1.7788l-5.6712-3.7775zm5.6712-1.4888l10.721.805-.59375 1.68-4.475-.38875-1.3875 4.1662 3.7738 2.385-.495 1.49-7.5438-4.8712v-1.7788l2.97 1.7788 1.2025-3.38-4.1725-.48875v-1.3975z"
     id="path55" />
  <path
     fill="#FFF"
     d="M173.23661 124.17576l7.145 4.265 1.1962-3.3738-8.3412-.89125zm-1.4938.4875l.7925-1.8838 15.6 1.2-.59625 1.68-4.475-.38875-1.385 4.1662 3.7738 2.385-.49375 1.49-13.216-8.6488zm6.9638-5.9475l-4.6575-1.0025.79125-3.4738c.47875-2.485 1.3788-3.9738 3.8662-3.7775v1.5912c-1.8912-.10125-2.2838 1.4938-2.3862 2.285l-.60875 2.2875 2.995.49375v1.5962zm10.532.5925l-.19875 1.49-10.334-2.0825v-1.5962l2.4875.5025.495-2.2938c0-.79125.3925-2.7825-2.1912-3.1712-.2975-.10375-.495-.10375-.79125-.10375v-1.5912c.38625 0 .79125.10625 1.1962.19875 1.6838.3025 2.7725 1.4962 2.7725 3.1838.6075-1.6875 1.2975-2.09 3.1875-1.8925 1.0762.205 2.2725.40875 3.3762.40875.39875 0 1.0875 0 1.0875-.40875l.3925.205-.3925 1.6875c-.905.1975-2.785 0-3.8662-.19875-1.5012-.39375-2.88 0-3.1775 1.6825l-.6075 2.5838 6.5638 1.3962z"
     id="path57" />
  <path
     fill="#FFF"
     d="M181.18661 117.62576l.49375-2.2938c0-.79125.39875-2.7825-2.1912-3.1712-2.6762-.6-2.9725 1.2912-3.1762 2.1812l-.6025 2.2875 5.4762.99625zm8.0438 1.6862l-.195 1.49-14.994-3.085.79125-3.4738c.47875-2.8788 1.6838-4.375 5.0675-3.5788 1.685.3025 2.7662 1.4962 2.7662 3.1838.60875-1.6875 1.2988-2.09 3.1888-1.8975 1.0788.21 2.2812.41375 3.375.41375.39875 0 1.0888 0 1.0888-.41375l.39875.21-.39875 1.6875c-.9.1975-2.7788 0-3.8662-.19875-1.4925-.39375-2.8812 0-3.1775 1.6825l-.60875 2.5838 6.5638 1.3962zm-13.5138-10.9262l.8025-8.64 1.4962.1975-.40875 3.375 13.805 1.0938-.095 1.49-13.71-.89625-.3975 3.5788-1.4925-.19875zm8.06-14.11l-7.6525-2.7862-.1975-1.6875 9.5338 3.7762 5.955-.38875v1.4888l-5.7475.39-9.145 4.4738-.20375-1.6925 7.4575-3.5738zm-174.05-27.42l8.6275 4.165v-2.385l-2.1725-.98875 1.7925-3.5725h.38v-5.6625l-4.0638 8.2462-1.6962-.7975 4.67-9.6362 1.09.49375v-2.2862l-.185-.10625c-1.1-.48125-2.0888-.48125-2.7788 1.0088l-5.6638 11.521zm8.6275 4.165l4.7712 2.3862c1.2988.60625 2.2012.39625 2.6825-1.0875l1.5825-3.375-1.1825-1.9912-2.1912 4.47-3.7588-1.885 2.3862-4.97 5.55.59375c.5075.0987.89375-.1975 1.4012-.6925l1.5938-3.2812-1.2025-2.0838-1.8825 3.9738-4.5788-.40125 1.3912-2.8738-1.185-2.1825-2.2838 4.6612-2.59-.0987 2.97-6.0575-3.4738-1.6938v2.2862l.60625.39625-.60625 1.2975v5.6625l2.2.29625-2.2 4.265v2.385zm22.3625-41.215l-1.1012-1.5888 5.17-3.8688-1.9925-1.0075 1.8912-1.385 2.0888.995 5.3688-3.98.0925 2.2988-4.265 3.1775 2.3738 3.2688 5.3675-3.9675-.095 2.5775-4.0712 2.9788 2.7662 3.7838 5.6775-4.1788-.10125 2.5838-11.918 8.8388-1.1962-1.5888 5.5638-4.1725-2.7912-3.7762-5.1575 3.8812-1.1838-1.5875 5.1638-3.8812-2.385-3.2775-5.2662 3.8762zm50.66-25.63l1.5825 3.1762h2.1025l-1.595-3.1762h-2.09zm-.59 3.67l1.8912 3.1775h2.0888l-1.9038-3.1775h-2.0762zm.3 5.07v1.8912h2.6825v1.5888c-.39875 1.885-1.2825 3.6775-2.485 5.365h2.29l.99875-1.5888c.495.69875 1.3875 1.1862 2.4688 1.5888h10.242l1.0812-1.9838h-11.324c-.49125-.39625-.88625-.9025-1.1838-1.4962v-3.4738c.1025-1.1925-.29625-1.6938-.9975-1.8912h-3.7738z"
     id="path59" />
  <path
     fill="#FFF"
     d="M99.32661 4.17576l-2.2838 2.1875v11.918h3.6838v-1.885h-1.4v-1.5888h1.4v-1.8912h-1.4v-1.2862h1.4v-1.89h-1.4v-1.4912h1.4v-1.885h-.59625l.59625-.79v-1.3975h-1.4zm1.4 1.3975v-1.3975h.98625l-.98625 1.3975zm0 12.708h5.7575l1.0912-1.885h-3.375v-1.5888h2.0775l1.39-1.8912h-3.4675v-1.2862h2.4825l1.385-1.89h-3.8675v-1.4912h2.6762l1.1912-1.885h-3.8675v-2.1875h-1.9925v2.1875h-1.4812v1.885h1.4812v1.4912h-1.4812v1.89h1.4812v1.2862h-1.4812v1.8912h1.4812v1.5888h-1.4812v1.885zm47.18 1.3945l-3.1762 4.4688-1.9875-1.4888-1.2025 1.6938 5.365 3.7638-3.575 5.1725c-2.075-1-3.8662-2.1875-5.6588-3.4788l-.0988 2.28c1.3838 1.0025 2.8762 2.09 4.3788 2.8812 2.8675 1.595 6.645 1.1862 10.726.395l-.41-1.8788c-2.4812.495-4.7662.6925-6.945.39625l3.2738-4.5812 5.07 3.5862 2.3875-.79875-6.2675-4.475 1.1025-1.5812 4.0612 2.88 2.0888-.6925-5.165-3.6712 1.2875-1.7925-1.5838-1.2-3.4725 4.8712-1.6912-1.0938 3.1775-4.4688-1.685-1.1875z"
     id="path61" />
  <path
     fill="#FFF"
     d="M139.15661 28.01576l.30875 2.0838 5.76-.89-.29625-1.8988-5.7725.705zm35.76 29.71l-2.88 1.385 2.4825 5.1662-.5875.2975-2.7875-5.6562-.98625.48875 2.6825 5.6625-.49125.29625-2.7875-5.655-.98625.38875 6.3412 13.116v-2.485l-1.6838-3.5788.495-.29 1.1888 2.485v-2.6825l-.0887-.2975h.0887v-3.7762l-.88-1.7862.3-.19875.58 1.1875v-4.0675zm0 8.6412v-3.7762l.61 1.0938h.0925v2.7812l-.195-.395-.5075.29625zm0 2.98l.7025 1.3838v-2.6762l-.7025-1.39v2.6825zm0 3.8688l.7025-.29625v-.79125l-.7025-1.3975v2.485zm.7025-15.792l-.7025.3025v4.0675l.7025 1.2912v-2.5825l-.3025-.4025.3025-.0925v-2.5838zm0 9.0425v-2.7812l.20375-.105-.20375-.495v-2.5825l.69875 1.4888v5.965l-.69875-1.49zm0 4.265v-2.6762l.69875 1.3912v2.6825l-.69875-1.3975zm0 2.1888l.3-.1-.3-.69125v.79125zm.09-15.589l-.09.0925v2.5838l.09-.105.60875 1.1988v-2.485l-.60875-1.285zm.60875 10.625v-5.965l.49125 1.2.3925-.19875-.88375-1.8912v-2.485l1.0988 2.1888v5.86l-.6075-1.1938-.39875.1975 1.0062 1.985v2.5838l-1.0988-2.2812zm0 4.1725l.19375.395.905-.395v-.39625l-1.0988-2.2862v2.6825zm1.69-9.9388v2.5825l-.3125.205.3125.69125v2.3862l-.59125-1.39v-5.86l.59125 1.385zm-.59125 8.0475l.59125 1.1925v-2.5775.0987l-.59125-1.2975v2.5838zm0 1.8912l.085-.0987-.085-.2975v.39625zm1.2862-8.5488v2.4912l-.59625-1.2988h-.0988v-2.5825l.695 1.39zm-.695 7.85l.695-.3025v-4.1675l-.695-1.2912v2.3862l.39625.6925-.39625.105v2.5775zm.695-.3025l1.9875-.99c.495-.40125.68875-.89625.495-1.39l-2.4825-5.1675v2.4912l.98625 1.9838-.3975.1975-.58875-1.2925v4.1675zm.6938-13.0114l-2.285 1.0938 3.1775 6.4588v-2.4775l-1.3875-2.7825.39375-.1975.99375 1.9788v-2.38l-.8925-1.6938zm.8925 7.5525l.70125 1.4838 2.285-1.0812-2.9862-6.2612v2.38l1.2988 2.6825-.39875.1975-.9-1.8788v2.4775z"
     id="path63" />
  <path
     fill="#FFF"
     d="M175.71661 56.22576l3.6838-1.7925 1.5938 3.3875.98875-1.3975.7925 1.6875-.8875 1.4888.3925.8975 1.2975-.6.89125 1.7925-1.2838.59375.49125.995 1.7812.40125.8025 1.6812-1.6962-.1975 1.1038 2.1875c0 .6-.10875 1.0875-.5075 1.4962l-2.685 1.285-1.0888-2.0825 2.785-1.2912-4.7712-9.8412-2.7788 1.2925-.905-1.9838zm-7.45 5.17l-2.88-.59375.98875 2.0838 2.8925.4875-1.0012-1.9775zm1.6 3.27l-2.695-.29625 1.01 2.0888 2.6862.0937-1.0012-1.8862zm1.18 2.38l-1.48 2.3925.98625 1.885 1.3875-2.38-.89375-1.8975zm1.49 2.99l-1.3838 2.5838.985 2.0775 1.3038-2.5712-.905-2.09z"
     id="path65" />
</svg>
