<?xml version="1.0" encoding="UTF-8" standalone="no"?>
<!DOCTYPE svg PUBLIC "-//W3C//DTD SVG 1.1//EN"
 "http://www.w3.org/Graphics/SVG/1.1/DTD/svg11.dtd">
<!-- Generated by graphviz version 2.42.4 (0)
 -->
<!-- Title: ism Pages: 1 -->
<svg width="1145pt" height="852pt"
 viewBox="0.00 0.00 1145.09 852.33" xmlns="http://www.w3.org/2000/svg" xmlns:xlink="http://www.w3.org/1999/xlink">
<g id="graph0" class="graph" transform="scale(1 1) rotate(0) translate(4 848.33)">
<title>ism</title>
<polygon fill="white" stroke="transparent" points="-4,4 -4,-848.33 1141.09,-848.33 1141.09,4 -4,4"/>
<text text-anchor="middle" x="568.55" y="-829.13" font-family="Times,serif" font-size="14.00">各種主義?</text>
<text text-anchor="middle" x="568.55" y="-814.13" font-family="Times,serif" font-size="14.00">導演張內咸觀點</text>
<!-- conservatism -->
<g id="node1" class="node">
<title>conservatism</title>
<ellipse fill="none" stroke="black" cx="923.55" cy="-592.79" rx="213.59" ry="213.59"/>
<image xlink:href="republican.png" width="400px" height="400px" preserveAspectRatio="xMinYMin meet" x="723.546" y="-792.786"/>
<text text-anchor="middle" x="923.55" y="-735.79" font-family="Arial" font-size="10.00">保守主義</text>
</g>
<!-- social_darwinism -->
<g id="node4" class="node">
<title>social_darwinism</title>
<ellipse fill="none" stroke="black" cx="568.55" cy="-171.12" rx="171.24" ry="171.24"/>
<image xlink:href="ccp.png" width="320px" height="320px" preserveAspectRatio="xMinYMin meet" x="408.546" y="-331.12"/>
<text text-anchor="middle" x="568.55" y="-284.12" font-family="Arial" font-size="10.00">社會達爾文主義</text>
</g>
<!-- conservatism&#45;&#45;social_darwinism -->
<g id="edge3" class="edge">
<title>conservatism&#45;&#45;social_darwinism</title>
<path fill="none" stroke="black" stroke-dasharray="5,2" d="M786.04,-429.23C750.45,-387.16 712.6,-342.41 678.62,-302.25"/>
</g>
<!-- socialism -->
<g id="node2" class="node">
<title>socialism</title>
<ellipse fill="none" stroke="black" cx="213.55" cy="-592.79" rx="213.59" ry="213.59"/>
<image xlink:href="democrat.png" width="400px" height="400px" preserveAspectRatio="xMinYMin meet" x="13.5462" y="-792.786"/>
<text text-anchor="middle" x="213.55" y="-735.79" font-family="Arial" font-size="10.00">社會主義</text>
</g>
<!-- progressivism -->
<g id="node3" class="node">
<title>progressivism</title>
<ellipse fill="none" stroke="black" cx="568.55" cy="-592.79" rx="105.22" ry="105.22"/>
<image xlink:href="dpp.png" width="197px" height="197px" preserveAspectRatio="xMinYMin meet" x="470.046" y="-691.286"/>
<text text-anchor="middle" x="568.55" y="-659.29" font-family="Arial" font-size="10.00">進步主義</text>
</g>
<!-- socialism&#45;&#45;progressivism -->
<g id="edge1" class="edge">
<title>socialism&#45;&#45;progressivism</title>
<path fill="none" stroke="black" d="M427.22,-592.79C439.41,-592.79 451.36,-592.79 462.83,-592.79"/>
<text text-anchor="middle" x="445.14" y="-598.59" font-family="Arial" font-size="9.00">相近</text>
</g>
<!-- socialism&#45;&#45;social_darwinism -->
<g id="edge4" class="edge">
<title>socialism&#45;&#45;social_darwinism</title>
<path fill="none" stroke="black" stroke-dasharray="5,2" d="M351.05,-429.23C386.64,-387.16 424.49,-342.41 458.47,-302.25"/>
</g>
<!-- progressivism&#45;&#45;conservatism -->
<g id="edge2" class="edge">
<title>progressivism&#45;&#45;conservatism</title>
<path fill="none" stroke="black" d="M674.1,-592.79C685.64,-592.79 697.68,-592.79 709.96,-592.79"/>
<text text-anchor="middle" x="691.95" y="-598.59" font-family="Arial" font-size="9.00">友善</text>
</g>
<!-- progressivism&#45;&#45;social_darwinism -->
<g id="edge5" class="edge">
<title>progressivism&#45;&#45;social_darwinism</title>
<path fill="none" stroke="black" stroke-dasharray="5,2" d="M568.55,-487.24C568.55,-443.42 568.55,-391.33 568.55,-342.25"/>
</g>
</g>
</svg>
