<?xml version="1.0" encoding="UTF-8" standalone="no"?>
<!DOCTYPE svg PUBLIC "-//W3C//DTD SVG 1.1//EN"
 "http://www.w3.org/Graphics/SVG/1.1/DTD/svg11.dtd">
<!-- Generated by graphviz version 2.42.4 (0)
 -->
<!-- Pages: 1 -->
<svg width="1155pt" height="476pt"
 viewBox="0.00 0.00 1155.24 476.00" xmlns="http://www.w3.org/2000/svg" xmlns:xlink="http://www.w3.org/1999/xlink">
<g id="graph0" class="graph" transform="scale(1 1) rotate(0) translate(4 472)">
<polygon fill="white" stroke="transparent" points="-4,4 -4,-472 1151.24,-472 1151.24,4 -4,4"/>
<!-- CAMIE -->
<g id="node1" class="node">
<title>CAMIE</title>
<ellipse fill="none" stroke="black" cx="336" cy="-378" rx="43.59" ry="18"/>
<text text-anchor="middle" x="336" y="-374.3" font-family="Times,serif" font-size="14.00">CAMIE</text>
</g>
<!-- LUKE -->
<g id="node2" class="node">
<title>LUKE</title>
<ellipse fill="none" stroke="black" cx="532" cy="-162" rx="37.89" ry="18"/>
<text text-anchor="middle" x="532" y="-158.3" font-family="Times,serif" font-size="14.00">LUKE</text>
</g>
<!-- CAMIE&#45;&#45;LUKE -->
<g id="edge1" class="edge">
<title>CAMIE&#45;&#45;LUKE</title>
<path fill="none" stroke="black" stroke-width="2" d="M337.52,-359.99C341.29,-327.67 353.88,-256.97 394,-216 421.47,-187.95 465.4,-174.49 496.3,-168.21"/>
</g>
<!-- OWEN -->
<g id="node7" class="node">
<title>OWEN</title>
<ellipse fill="none" stroke="black" cx="554" cy="-90" rx="42.49" ry="18"/>
<text text-anchor="middle" x="554" y="-86.3" font-family="Times,serif" font-size="14.00">OWEN</text>
</g>
<!-- LUKE&#45;&#45;OWEN -->
<g id="edge8" class="edge">
<title>LUKE&#45;&#45;OWEN</title>
<path fill="none" stroke="black" stroke-width="3" d="M537.33,-144.05C540.73,-133.21 545.14,-119.18 548.57,-108.28"/>
</g>
<!-- OBI&#45;WAN -->
<g id="node9" class="node">
<title>OBI&#45;WAN</title>
<ellipse fill="none" stroke="black" cx="668" cy="-90" rx="53.89" ry="18"/>
<text text-anchor="middle" x="668" y="-86.3" font-family="Times,serif" font-size="14.00">OBI&#45;WAN</text>
</g>
<!-- LUKE&#45;&#45;OBI&#45;WAN -->
<g id="edge14" class="edge">
<title>LUKE&#45;&#45;OBI&#45;WAN</title>
<path fill="none" stroke="black" stroke-width="19" d="M556.63,-148.32C580.05,-136.27 615.26,-118.15 639.8,-105.52"/>
</g>
<!-- WEDGE -->
<g id="node17" class="node">
<title>WEDGE</title>
<ellipse fill="none" stroke="black" cx="301" cy="-18" rx="48.19" ry="18"/>
<text text-anchor="middle" x="301" y="-14.3" font-family="Times,serif" font-size="14.00">WEDGE</text>
</g>
<!-- LUKE&#45;&#45;WEDGE -->
<g id="edge34" class="edge">
<title>LUKE&#45;&#45;WEDGE</title>
<path fill="none" stroke="black" stroke-width="2" d="M509.85,-147.38C466.37,-120.66 370.19,-61.53 325.15,-33.85"/>
</g>
<!-- RED LEADER -->
<g id="node18" class="node">
<title>RED LEADER</title>
<ellipse fill="none" stroke="black" cx="301" cy="-90" rx="74.99" ry="18"/>
<text text-anchor="middle" x="301" y="-86.3" font-family="Times,serif" font-size="14.00">RED LEADER</text>
</g>
<!-- LUKE&#45;&#45;RED LEADER -->
<g id="edge37" class="edge">
<title>LUKE&#45;&#45;RED LEADER</title>
<path fill="none" stroke="black" stroke-width="3" d="M500.85,-151.56C460.82,-139.43 391.09,-118.3 345.49,-104.48"/>
</g>
<!-- RED TEN -->
<g id="node19" class="node">
<title>RED TEN</title>
<ellipse fill="none" stroke="black" cx="450" cy="-18" rx="55.49" ry="18"/>
<text text-anchor="middle" x="450" y="-14.3" font-family="Times,serif" font-size="14.00">RED TEN</text>
</g>
<!-- LUKE&#45;&#45;RED TEN -->
<g id="edge46" class="edge">
<title>LUKE&#45;&#45;RED TEN</title>
<path fill="none" stroke="black" stroke-dasharray="5,2" d="M522.43,-144.43C506.72,-117.22 475.6,-63.33 459.76,-35.9"/>
</g>
<!-- BIGGS -->
<g id="node3" class="node">
<title>BIGGS</title>
<ellipse fill="none" stroke="black" cx="336" cy="-450" rx="42.49" ry="18"/>
<text text-anchor="middle" x="336" y="-446.3" font-family="Times,serif" font-size="14.00">BIGGS</text>
</g>
<!-- BIGGS&#45;&#45;CAMIE -->
<g id="edge2" class="edge">
<title>BIGGS&#45;&#45;CAMIE</title>
<path fill="none" stroke="black" stroke-width="2" d="M336,-431.7C336,-420.85 336,-406.92 336,-396.1"/>
</g>
<!-- BIGGS&#45;&#45;LUKE -->
<g id="edge3" class="edge">
<title>BIGGS&#45;&#45;LUKE</title>
<path fill="none" stroke="black" stroke-width="4" d="M353.77,-433.23C364.6,-423.16 378.36,-409.49 389,-396 404.58,-376.25 492.42,-229.42 522.16,-179.53"/>
</g>
<!-- LEIA -->
<g id="node5" class="node">
<title>LEIA</title>
<ellipse fill="none" stroke="black" cx="871" cy="-234" rx="33.29" ry="18"/>
<text text-anchor="middle" x="871" y="-230.3" font-family="Times,serif" font-size="14.00">LEIA</text>
</g>
<!-- BIGGS&#45;&#45;LEIA -->
<g id="edge35" class="edge">
<title>BIGGS&#45;&#45;LEIA</title>
<path fill="none" stroke="black" stroke-dasharray="5,2" d="M376.76,-444.84C487.71,-433.43 787.5,-402.13 796,-396 844.77,-360.83 862.76,-285.82 868.56,-252.08"/>
</g>
<!-- C&#45;3PO -->
<g id="node8" class="node">
<title>C&#45;3PO</title>
<ellipse fill="none" stroke="black" cx="560" cy="-378" rx="40.09" ry="18"/>
<text text-anchor="middle" x="560" y="-374.3" font-family="Times,serif" font-size="14.00">C&#45;3PO</text>
</g>
<!-- BIGGS&#45;&#45;C&#45;3PO -->
<g id="edge39" class="edge">
<title>BIGGS&#45;&#45;C&#45;3PO</title>
<path fill="none" stroke="black" stroke-dasharray="5,2" d="M369.05,-438.67C411.77,-425.32 485.66,-402.23 527.9,-389.03"/>
</g>
<!-- GOLD LEADER -->
<g id="node16" class="node">
<title>GOLD LEADER</title>
<ellipse fill="none" stroke="black" cx="147" cy="-234" rx="81.49" ry="18"/>
<text text-anchor="middle" x="147" y="-230.3" font-family="Times,serif" font-size="14.00">GOLD LEADER</text>
</g>
<!-- BIGGS&#45;&#45;GOLD LEADER -->
<g id="edge45" class="edge">
<title>BIGGS&#45;&#45;GOLD LEADER</title>
<path fill="none" stroke="black" stroke-dasharray="5,2" d="M301.76,-439.43C253.98,-424.02 169.13,-388.68 133,-324 120.41,-301.47 129.87,-271.01 138.18,-252.2"/>
</g>
<!-- BIGGS&#45;&#45;WEDGE -->
<g id="edge43" class="edge">
<title>BIGGS&#45;&#45;WEDGE</title>
<path fill="none" stroke="black" stroke-width="2" d="M293.45,-449.76C203.03,-448.93 0,-433.02 0,-307 0,-307 0,-307 0,-161 0,-50.35 168.43,-25.78 253.31,-20.43"/>
</g>
<!-- BIGGS&#45;&#45;RED LEADER -->
<g id="edge38" class="edge">
<title>BIGGS&#45;&#45;RED LEADER</title>
<path fill="none" stroke="black" stroke-width="3" d="M314.55,-434.26C302.83,-424.85 289.42,-411.51 283,-396 271.99,-369.41 292.58,-168.75 299.11,-108.23"/>
</g>
<!-- DARTH VADER -->
<g id="node4" class="node">
<title>DARTH VADER</title>
<ellipse fill="none" stroke="black" cx="1066" cy="-306" rx="81.49" ry="18"/>
<text text-anchor="middle" x="1066" y="-302.3" font-family="Times,serif" font-size="14.00">DARTH VADER</text>
</g>
<!-- DARTH VADER&#45;&#45;LEIA -->
<g id="edge4" class="edge">
<title>DARTH VADER&#45;&#45;LEIA</title>
<path fill="none" stroke="black" stroke-dasharray="5,2" d="M1025.16,-290.41C995.43,-279.79 954.21,-265.03 918,-252 911.47,-249.65 904.43,-247.11 897.84,-244.72"/>
</g>
<!-- DARTH VADER&#45;&#45;OBI&#45;WAN -->
<g id="edge28" class="edge">
<title>DARTH VADER&#45;&#45;OBI&#45;WAN</title>
<path fill="none" stroke="black" stroke-dasharray="5,2" d="M1048.52,-288.34C1013.69,-256 931.97,-184.35 851,-144 806.89,-122.02 752.13,-107.67 714.07,-99.52"/>
</g>
<!-- MOTTI -->
<g id="node10" class="node">
<title>MOTTI</title>
<ellipse fill="none" stroke="black" cx="995" cy="-162" rx="42.79" ry="18"/>
<text text-anchor="middle" x="995" y="-158.3" font-family="Times,serif" font-size="14.00">MOTTI</text>
</g>
<!-- DARTH VADER&#45;&#45;MOTTI -->
<g id="edge18" class="edge">
<title>DARTH VADER&#45;&#45;MOTTI</title>
<path fill="none" stroke="black" stroke-dasharray="5,2" d="M1057.44,-287.87C1043.72,-260.43 1016.97,-206.95 1003.37,-179.75"/>
</g>
<!-- TARKIN -->
<g id="node11" class="node">
<title>TARKIN</title>
<ellipse fill="none" stroke="black" cx="1066" cy="-90" rx="47.39" ry="18"/>
<text text-anchor="middle" x="1066" y="-86.3" font-family="Times,serif" font-size="14.00">TARKIN</text>
</g>
<!-- DARTH VADER&#45;&#45;TARKIN -->
<g id="edge19" class="edge">
<title>DARTH VADER&#45;&#45;TARKIN</title>
<path fill="none" stroke="black" stroke-width="7" d="M1066,-287.85C1066,-247.78 1066,-148.38 1066,-108.23"/>
</g>
<!-- LEIA&#45;&#45;LUKE -->
<g id="edge12" class="edge">
<title>LEIA&#45;&#45;LUKE</title>
<path fill="none" stroke="black" stroke-width="17" d="M840.62,-226.49C825.68,-223.3 807.4,-219.42 791,-216 710.35,-199.18 615.46,-179.89 565.96,-169.86"/>
</g>
<!-- LEIA&#45;&#45;OBI&#45;WAN -->
<g id="edge16" class="edge">
<title>LEIA&#45;&#45;OBI&#45;WAN</title>
<path fill="none" stroke="black" stroke-dasharray="5,2" d="M866.3,-216.14C859.91,-196.2 846.6,-163.28 824,-144 793.64,-118.1 750.05,-104.69 716.66,-97.85"/>
</g>
<!-- LEIA&#45;&#45;MOTTI -->
<g id="edge25" class="edge">
<title>LEIA&#45;&#45;MOTTI</title>
<path fill="none" stroke="black" stroke-dasharray="5,2" d="M893.17,-220.49C914.9,-208.22 947.96,-189.55 970.47,-176.85"/>
</g>
<!-- LEIA&#45;&#45;TARKIN -->
<g id="edge26" class="edge">
<title>LEIA&#45;&#45;TARKIN</title>
<path fill="none" stroke="black" stroke-dasharray="5,2" d="M880.8,-216.53C893.16,-196.96 916.08,-164.41 943,-144 969.03,-124.26 1003.54,-110.23 1029.38,-101.58"/>
</g>
<!-- LEIA&#45;&#45;RED LEADER -->
<g id="edge36" class="edge">
<title>LEIA&#45;&#45;RED LEADER</title>
<path fill="none" stroke="black" stroke-dasharray="5,2" d="M843.5,-223.53C792.04,-206.06 677.53,-168.33 579,-144 504.83,-125.68 418.19,-110.06 361.6,-100.62"/>
</g>
<!-- BERU -->
<g id="node6" class="node">
<title>BERU</title>
<ellipse fill="none" stroke="black" cx="560" cy="-450" rx="38.99" ry="18"/>
<text text-anchor="middle" x="560" y="-446.3" font-family="Times,serif" font-size="14.00">BERU</text>
</g>
<!-- BERU&#45;&#45;LUKE -->
<g id="edge5" class="edge">
<title>BERU&#45;&#45;LUKE</title>
<path fill="none" stroke="black" stroke-width="3" d="M540.64,-434.37C529.67,-424.81 516.98,-411.29 511,-396 481.17,-319.79 511.31,-219.2 525.49,-179.82"/>
</g>
<!-- BERU&#45;&#45;LEIA -->
<g id="edge13" class="edge">
<title>BERU&#45;&#45;LEIA</title>
<path fill="none" stroke="black" stroke-dasharray="5,2" d="M598.63,-447.22C668.61,-443.17 812.27,-430.73 846,-396 884.13,-356.74 878.9,-284.85 874.08,-252.08"/>
</g>
<!-- BERU&#45;&#45;OWEN -->
<g id="edge6" class="edge">
<title>BERU&#45;&#45;OWEN</title>
<path fill="none" stroke="black" stroke-width="3" d="M577.56,-433.84C588,-423.99 600.78,-410.35 609,-396 629.55,-360.14 636,-348.34 636,-307 636,-307 636,-307 636,-233 636,-181.19 594.55,-131.27 570.59,-106.75"/>
</g>
<!-- BERU&#45;&#45;C&#45;3PO -->
<g id="edge7" class="edge">
<title>BERU&#45;&#45;C&#45;3PO</title>
<path fill="none" stroke="black" stroke-width="2" d="M560,-431.7C560,-420.85 560,-406.92 560,-396.1"/>
</g>
<!-- C&#45;3PO&#45;&#45;LUKE -->
<g id="edge9" class="edge">
<title>C&#45;3PO&#45;&#45;LUKE</title>
<path fill="none" stroke="black" stroke-width="18" d="M554.71,-359.98C551.7,-349.67 548.12,-336.19 546,-324 536.95,-272.04 533.64,-209.57 532.52,-180.04"/>
</g>
<!-- C&#45;3PO&#45;&#45;LEIA -->
<g id="edge11" class="edge">
<title>C&#45;3PO&#45;&#45;LEIA</title>
<path fill="none" stroke="black" stroke-width="6" d="M596.66,-370.27C649.58,-360.17 744.38,-340.52 775,-324 784.3,-318.98 830.76,-274.27 855.48,-250.2"/>
</g>
<!-- C&#45;3PO&#45;&#45;OWEN -->
<g id="edge10" class="edge">
<title>C&#45;3PO&#45;&#45;OWEN</title>
<path fill="none" stroke="black" stroke-width="2" d="M564.8,-360.09C575.06,-321.35 596.79,-223.41 579,-144 576.11,-131.09 569.71,-117.63 564.11,-107.5"/>
</g>
<!-- C&#45;3PO&#45;&#45;OBI&#45;WAN -->
<g id="edge15" class="edge">
<title>C&#45;3PO&#45;&#45;OBI&#45;WAN</title>
<path fill="none" stroke="black" stroke-width="6" d="M570.26,-360.09C576.32,-349.82 583.96,-336.35 590,-324 620.47,-261.72 629.7,-246.29 650,-180 657.48,-155.58 662.7,-126.43 665.53,-108.31"/>
</g>
<!-- HAN -->
<g id="node12" class="node">
<title>HAN</title>
<ellipse fill="none" stroke="black" cx="734" cy="-306" rx="32.49" ry="18"/>
<text text-anchor="middle" x="734" y="-302.3" font-family="Times,serif" font-size="14.00">HAN</text>
</g>
<!-- C&#45;3PO&#45;&#45;HAN -->
<g id="edge24" class="edge">
<title>C&#45;3PO&#45;&#45;HAN</title>
<path fill="none" stroke="black" stroke-width="6" d="M589.12,-365.28C622.5,-351.86 676.68,-330.06 708.47,-317.27"/>
</g>
<!-- C&#45;3PO&#45;&#45;RED LEADER -->
<g id="edge40" class="edge">
<title>C&#45;3PO&#45;&#45;RED LEADER</title>
<path fill="none" stroke="black" stroke-dasharray="5,2" d="M545.33,-360.8C499.96,-310.7 362.17,-158.55 316.15,-107.73"/>
</g>
<!-- MOTTI&#45;&#45;TARKIN -->
<g id="edge17" class="edge">
<title>MOTTI&#45;&#45;TARKIN</title>
<path fill="none" stroke="black" stroke-width="2" d="M1011.11,-145.12C1022.57,-133.82 1037.91,-118.7 1049.46,-107.31"/>
</g>
<!-- HAN&#45;&#45;LUKE -->
<g id="edge21" class="edge">
<title>HAN&#45;&#45;LUKE</title>
<path fill="none" stroke="black" stroke-width="26" d="M714.63,-291.38C676.32,-264.45 591.19,-204.61 552.21,-177.2"/>
</g>
<!-- HAN&#45;&#45;LEIA -->
<g id="edge27" class="edge">
<title>HAN&#45;&#45;LEIA</title>
<path fill="none" stroke="black" stroke-width="13" d="M757.24,-293.13C782.43,-280.25 822.41,-259.83 847.65,-246.93"/>
</g>
<!-- HAN&#45;&#45;OBI&#45;WAN -->
<g id="edge20" class="edge">
<title>HAN&#45;&#45;OBI&#45;WAN</title>
<path fill="none" stroke="black" stroke-width="9" d="M754.99,-292.09C768.03,-282.75 783.66,-268.85 791,-252 797.39,-237.33 797.06,-230.81 791,-216 770.98,-167.12 721.6,-127.08 691.85,-106.35"/>
</g>
<!-- JABBA -->
<g id="node14" class="node">
<title>JABBA</title>
<ellipse fill="none" stroke="black" cx="742" cy="-234" rx="40.09" ry="18"/>
<text text-anchor="middle" x="742" y="-230.3" font-family="Times,serif" font-size="14.00">JABBA</text>
</g>
<!-- HAN&#45;&#45;JABBA -->
<g id="edge23" class="edge">
<title>HAN&#45;&#45;JABBA</title>
<path fill="none" stroke="black" stroke-dasharray="5,2" d="M735.98,-287.7C737.22,-276.85 738.81,-262.92 740.05,-252.1"/>
</g>
<!-- GREEDO -->
<g id="node13" class="node">
<title>GREEDO</title>
<ellipse fill="none" stroke="black" cx="734" cy="-378" rx="53.09" ry="18"/>
<text text-anchor="middle" x="734" y="-374.3" font-family="Times,serif" font-size="14.00">GREEDO</text>
</g>
<!-- GREEDO&#45;&#45;HAN -->
<g id="edge22" class="edge">
<title>GREEDO&#45;&#45;HAN</title>
<path fill="none" stroke="black" stroke-dasharray="5,2" d="M734,-359.7C734,-348.85 734,-334.92 734,-324.1"/>
</g>
<!-- DODONNA -->
<g id="node15" class="node">
<title>DODONNA</title>
<ellipse fill="none" stroke="black" cx="204" cy="-306" rx="61.99" ry="18"/>
<text text-anchor="middle" x="204" y="-302.3" font-family="Times,serif" font-size="14.00">DODONNA</text>
</g>
<!-- DODONNA&#45;&#45;LUKE -->
<g id="edge31" class="edge">
<title>DODONNA&#45;&#45;LUKE</title>
<path fill="none" stroke="black" stroke-dasharray="5,2" d="M220.59,-288.29C241.5,-268.18 279.39,-234.78 318,-216 376.51,-187.53 451.68,-173.5 495.58,-167.29"/>
</g>
<!-- DODONNA&#45;&#45;GOLD LEADER -->
<g id="edge29" class="edge">
<title>DODONNA&#45;&#45;GOLD LEADER</title>
<path fill="none" stroke="black" stroke-dasharray="5,2" d="M190.49,-288.41C181.54,-277.41 169.82,-263.03 160.81,-251.96"/>
</g>
<!-- DODONNA&#45;&#45;WEDGE -->
<g id="edge30" class="edge">
<title>DODONNA&#45;&#45;WEDGE</title>
<path fill="none" stroke="black" stroke-dasharray="5,2" d="M145.84,-299.88C114,-293.77 77.04,-280.53 57,-252 47.8,-238.91 51.17,-230.9 57,-216 88.74,-134.86 119.88,-123.7 190,-72 213.89,-54.39 244.56,-40.27 267.61,-31.05"/>
</g>
<!-- GOLD LEADER&#45;&#45;LUKE -->
<g id="edge33" class="edge">
<title>GOLD LEADER&#45;&#45;LUKE</title>
<path fill="none" stroke="black" stroke-dasharray="5,2" d="M207.58,-221.99C289.21,-207.14 431.83,-181.21 497.32,-169.3"/>
</g>
<!-- GOLD LEADER&#45;&#45;WEDGE -->
<g id="edge32" class="edge">
<title>GOLD LEADER&#45;&#45;WEDGE</title>
<path fill="none" stroke="black" stroke-dasharray="5,2" d="M150.92,-215.68C158.79,-184.06 179.1,-116.18 217,-72 231.71,-54.86 253.36,-41.38 271,-32.31"/>
</g>
<!-- GOLD LEADER&#45;&#45;RED LEADER -->
<g id="edge42" class="edge">
<title>GOLD LEADER&#45;&#45;RED LEADER</title>
<path fill="none" stroke="black" stroke-dasharray="5,2" d="M164.97,-216.43C194.48,-189.22 252.92,-135.33 282.67,-107.9"/>
</g>
<!-- RED LEADER&#45;&#45;WEDGE -->
<g id="edge41" class="edge">
<title>RED LEADER&#45;&#45;WEDGE</title>
<path fill="none" stroke="black" stroke-width="3" d="M301,-71.7C301,-60.85 301,-46.92 301,-36.1"/>
</g>
<!-- RED LEADER&#45;&#45;RED TEN -->
<g id="edge44" class="edge">
<title>RED LEADER&#45;&#45;RED TEN</title>
<path fill="none" stroke="black" stroke-dasharray="5,2" d="M333.7,-73.64C359.4,-61.56 394.91,-44.88 419.91,-33.14"/>
</g>
</g>
</svg>
