<?xml version="1.0" encoding="UTF-8" standalone="no"?>
<!DOCTYPE svg PUBLIC "-//W3C//DTD SVG 1.1//EN"
 "http://www.w3.org/Graphics/SVG/1.1/DTD/svg11.dtd">
<!-- Generated by graphviz version 2.42.4 (0)
 -->
<!-- Title: meshtastic_network Pages: 1 -->
<svg width="380pt" height="491pt"
 viewBox="0.00 0.00 380.05 491.00" xmlns="http://www.w3.org/2000/svg" xmlns:xlink="http://www.w3.org/1999/xlink">
<g id="graph0" class="graph" transform="scale(1 1) rotate(0) translate(4 487)">
<title>meshtastic_network</title>
<polygon fill="white" stroke="transparent" points="-4,4 -4,-487 376.05,-487 376.05,4 -4,4"/>
<g id="clust1" class="cluster">
<title>cluster_group1</title>
<polygon fill="none" stroke="black" stroke-dasharray="5,2" points="8,-163 8,-350 364.05,-350 364.05,-163 8,-163"/>
<text text-anchor="middle" x="186.03" y="-334.8" font-family="Times,serif" font-size="14.00">台北文山</text>
</g>
<g id="clust2" class="cluster">
<title>cluster_group2</title>
<polygon fill="none" stroke="black" stroke-dasharray="5,2" points="14.83,-8 14.83,-155 360.05,-155 360.05,-8 14.83,-8"/>
<text text-anchor="middle" x="187.44" y="-139.8" font-family="Times,serif" font-size="14.00">台中霧峰</text>
</g>
<g id="clust3" class="cluster">
<title>cluster_group3</title>
<polygon fill="none" stroke="black" stroke-dasharray="5,2" points="39.79,-358 39.79,-475 356.8,-475 356.8,-358 39.79,-358"/>
<text text-anchor="middle" x="198.3" y="-459.8" font-family="Times,serif" font-size="14.00">高雄鹽埕</text>
</g>
<!-- Broker -->
<g id="node1" class="node">
<title>Broker</title>
<polygon fill="none" stroke="black" points="243.06,-209 178.06,-209 178.06,-171 243.06,-171 243.06,-209"/>
<text text-anchor="middle" x="210.56" y="-193.8" font-family="Times,serif" font-size="14.00">MQTT</text>
<text text-anchor="middle" x="210.56" y="-178.8" font-family="Times,serif" font-size="14.00">Broker</text>
</g>
<!-- WS1 -->
<g id="node2" class="node">
<title>WS1</title>
<ellipse fill="#70f7a0" stroke="black" cx="77.03" cy="-258" rx="53.06" ry="53.06"/>
<ellipse fill="none" stroke="black" cx="77.03" cy="-258" rx="57.06" ry="57.06"/>
<ellipse fill="none" stroke="black" cx="77.03" cy="-258" rx="61.07" ry="61.07"/>
<text text-anchor="middle" x="77.03" y="-269.3" font-family="Times,serif" font-size="14.00">WS1</text>
<text text-anchor="middle" x="77.03" y="-254.3" font-family="Times,serif" font-size="14.00">(MQTT</text>
<text text-anchor="middle" x="77.03" y="-239.3" font-family="Times,serif" font-size="14.00">+Proxy)</text>
</g>
<!-- WS1&#45;&#45;Broker -->
<g id="edge4" class="edge">
<title>WS1&#45;&#45;Broker</title>
<path fill="none" stroke="black" d="M130.61,-228.57C146.4,-220.4 163.17,-211.73 177.1,-204.53"/>
<path fill="none" stroke="white" d="M131.53,-230.34C147.32,-222.18 164.09,-213.51 178.02,-206.31"/>
<path fill="none" stroke="black" d="M132.45,-232.12C148.24,-223.96 165.01,-215.29 178.94,-208.09"/>
</g>
<!-- WS2 -->
<g id="node3" class="node">
<title>WS2</title>
<ellipse fill="none" stroke="black" cx="210.56" cy="-263" rx="32.49" ry="32.49"/>
<ellipse fill="none" stroke="black" cx="210.56" cy="-263" rx="36.49" ry="36.49"/>
<text text-anchor="middle" x="210.56" y="-259.3" font-family="Times,serif" font-size="14.00">WS2</text>
</g>
<!-- WS1&#45;&#45;WS2 -->
<g id="edge1" class="edge">
<title>WS1&#45;&#45;WS2</title>
<path fill="none" stroke="black" stroke-dasharray="5,2" d="M138.02,-260.28C150.36,-260.75 162.96,-261.23 174.08,-261.65"/>
</g>
<!-- WS3 -->
<g id="node4" class="node">
<title>WS3</title>
<ellipse fill="none" stroke="black" cx="319.56" cy="-273" rx="32.49" ry="32.49"/>
<ellipse fill="none" stroke="black" cx="319.56" cy="-273" rx="36.49" ry="36.49"/>
<text text-anchor="middle" x="319.56" y="-269.3" font-family="Times,serif" font-size="14.00">WS3</text>
</g>
<!-- WS1&#45;&#45;WS3 -->
<g id="edge2" class="edge">
<title>WS1&#45;&#45;WS3</title>
<path fill="none" stroke="black" stroke-dasharray="5,2" d="M129.06,-290.3C143.12,-297.57 158.73,-304.25 174.07,-308 205.58,-315.71 215.46,-315.32 247.06,-308 261.2,-304.73 275.77,-298.25 288.03,-291.75"/>
</g>
<!-- WS2&#45;&#45;WS3 -->
<g id="edge3" class="edge">
<title>WS2&#45;&#45;WS3</title>
<path fill="none" stroke="black" stroke-dasharray="5,2" d="M247.19,-266.33C258.74,-267.41 271.55,-268.61 283.09,-269.68"/>
</g>
<!-- WF1 -->
<g id="node5" class="node">
<title>WF1</title>
<ellipse fill="#70f7a0" stroke="black" cx="77.03" cy="-70" rx="50.39" ry="50.39"/>
<ellipse fill="none" stroke="black" cx="77.03" cy="-70" rx="54.41" ry="54.41"/>
<text text-anchor="middle" x="77.03" y="-73.8" font-family="Times,serif" font-size="14.00">WF1</text>
<text text-anchor="middle" x="77.03" y="-58.8" font-family="Times,serif" font-size="14.00">(MQTT)</text>
</g>
<!-- WF1&#45;&#45;Broker -->
<g id="edge8" class="edge">
<title>WF1&#45;&#45;Broker</title>
<path fill="none" stroke="black" d="M118.4,-105.17C135.75,-121.34 156.5,-140.5 175.4,-157.51 179.65,-161.33 184.23,-165.39 188.64,-169.25"/>
<path fill="none" stroke="white" d="M117.04,-106.64C134.39,-122.81 155.14,-141.97 174.07,-159 178.32,-162.83 182.91,-166.88 187.32,-170.75"/>
<path fill="none" stroke="black" d="M115.68,-108.1C133.04,-124.28 153.78,-143.44 172.73,-160.49 177,-164.33 181.58,-168.38 186,-172.26"/>
</g>
<!-- WF2 -->
<g id="node6" class="node">
<title>WF2</title>
<ellipse fill="none" stroke="black" cx="210.56" cy="-48" rx="32.49" ry="32.49"/>
<text text-anchor="middle" x="210.56" y="-44.3" font-family="Times,serif" font-size="14.00">WF2</text>
</g>
<!-- WF1&#45;&#45;WF2 -->
<g id="edge5" class="edge">
<title>WF1&#45;&#45;WF2</title>
<path fill="none" stroke="black" stroke-dasharray="5,2" d="M130.77,-61.18C146.93,-58.48 164.17,-55.59 178.39,-53.21"/>
</g>
<!-- WF3 -->
<g id="node7" class="node">
<title>WF3</title>
<ellipse fill="none" stroke="black" cx="319.56" cy="-70" rx="32.49" ry="32.49"/>
<text text-anchor="middle" x="319.56" y="-66.3" font-family="Times,serif" font-size="14.00">WF3</text>
</g>
<!-- WF1&#45;&#45;WF3 -->
<g id="edge6" class="edge">
<title>WF1&#45;&#45;WF3</title>
<path fill="none" stroke="black" stroke-dasharray="5,2" d="M130.09,-82.22C144.27,-85.02 159.69,-87.59 174.07,-89 206.35,-92.16 214.89,-93.2 247.06,-89 260.81,-87.2 275.69,-83.54 288.29,-79.91"/>
</g>
<!-- WF2&#45;&#45;WF3 -->
<g id="edge7" class="edge">
<title>WF2&#45;&#45;WF3</title>
<path fill="none" stroke="black" stroke-dasharray="5,2" d="M242.51,-54.36C256.71,-57.28 273.49,-60.73 287.68,-63.65"/>
</g>
<!-- YC1 -->
<g id="node8" class="node">
<title>YC1</title>
<ellipse fill="none" stroke="black" cx="77.03" cy="-405" rx="29.5" ry="29.5"/>
<text text-anchor="middle" x="77.03" y="-401.3" font-family="Times,serif" font-size="14.00">YC1</text>
</g>
<!-- YC2 -->
<g id="node9" class="node">
<title>YC2</title>
<ellipse fill="none" stroke="black" cx="210.56" cy="-395" rx="29.5" ry="29.5"/>
<text text-anchor="middle" x="210.56" y="-391.3" font-family="Times,serif" font-size="14.00">YC2</text>
</g>
<!-- YC1&#45;&#45;YC2 -->
<g id="edge9" class="edge">
<title>YC1&#45;&#45;YC2</title>
<path fill="none" stroke="black" stroke-dasharray="5,2" d="M106.25,-402.85C128.44,-401.17 159.21,-398.83 181.39,-397.14"/>
</g>
<!-- YC3 -->
<g id="node10" class="node">
<title>YC3</title>
<ellipse fill="none" stroke="black" cx="319.56" cy="-405" rx="29.5" ry="29.5"/>
<text text-anchor="middle" x="319.56" y="-401.3" font-family="Times,serif" font-size="14.00">YC3</text>
</g>
<!-- YC1&#45;&#45;YC3 -->
<g id="edge10" class="edge">
<title>YC1&#45;&#45;YC3</title>
<path fill="none" stroke="black" stroke-dasharray="5,2" d="M104.9,-415.06C123.91,-421.63 150.17,-429.59 174.07,-433 206.18,-437.59 215.18,-439.02 247.06,-433 262.91,-430.01 279.75,-423.59 293.1,-417.65"/>
</g>
<!-- YC2&#45;&#45;YC3 -->
<g id="edge11" class="edge">
<title>YC2&#45;&#45;YC3</title>
<path fill="none" stroke="black" stroke-dasharray="5,2" d="M239.95,-397.65C255.56,-399.11 274.84,-400.91 290.4,-402.37"/>
</g>
</g>
</svg>
