<?xml version="1.0" encoding="UTF-8" standalone="no"?>
<!DOCTYPE svg PUBLIC "-//W3C//DTD SVG 1.1//EN"
 "http://www.w3.org/Graphics/SVG/1.1/DTD/svg11.dtd">
<!-- Generated by graphviz version 2.40.1 (20161225.0304)
 -->
<!-- Title: linux 開機過程的重要檔案 Pages: 1 -->
<svg width="461pt" height="122pt"
 viewBox="0.00 0.00 461.06 122.27" xmlns="http://www.w3.org/2000/svg" xmlns:xlink="http://www.w3.org/1999/xlink">
<g id="graph0" class="graph" transform="scale(1 1) rotate(0) translate(4 118.2705)">
<title>linux 開機過程的重要檔案</title>
<polygon fill="#ffffff" stroke="transparent" points="-4,4 -4,-118.2705 457.0584,-118.2705 457.0584,4 -4,4"/>
<!-- extlinux -->
<g id="node1" class="node">
<title>extlinux</title>
<ellipse fill="none" stroke="#000000" cx="57.8449" cy="-73.2705" rx="57.6901" ry="18"/>
<text text-anchor="middle" x="57.8449" y="-69.5705" font-family="Times,serif" font-size="14.00" fill="#000000">extlinux.conf</text>
</g>
<!-- vmlinuz -->
<g id="node2" class="node">
<title>vmlinuz</title>
<ellipse fill="none" stroke="#000000" cx="195.5304" cy="-46.2705" rx="43.6818" ry="26.7407"/>
<text text-anchor="middle" x="195.5304" y="-50.0705" font-family="Times,serif" font-size="14.00" fill="#000000">vmlinuz</text>
<text text-anchor="middle" x="195.5304" y="-35.0705" font-family="Times,serif" font-size="14.00" fill="#000000">(kernel)</text>
</g>
<!-- extlinux&#45;&gt;vmlinuz -->
<g id="edge1" class="edge">
<title>extlinux&#45;&gt;vmlinuz</title>
<path fill="none" stroke="#000000" stroke-dasharray="5,2" d="M107.1636,-63.5991C118.9792,-61.2821 131.6312,-58.801 143.5626,-56.4613"/>
<polygon fill="#000000" stroke="#000000" points="144.2417,-59.8949 153.3812,-54.5359 142.8946,-53.0257 144.2417,-59.8949"/>
</g>
<!-- initrd -->
<g id="node3" class="node">
<title>initrd</title>
<ellipse fill="none" stroke="#000000" cx="305.2683" cy="-69.2705" rx="29.795" ry="18"/>
<text text-anchor="middle" x="305.2683" y="-65.5705" font-family="Times,serif" font-size="14.00" fill="#000000">initrd</text>
</g>
<!-- extlinux&#45;&gt;initrd -->
<g id="edge2" class="edge">
<title>extlinux&#45;&gt;initrd</title>
<path fill="none" stroke="#000000" stroke-dasharray="5,2" d="M111.5585,-80.0605C147.742,-83.6215 196.5043,-86.4584 239.371,-82.2705 248.4779,-81.3808 258.1932,-79.8151 267.2883,-78.0714"/>
<polygon fill="#000000" stroke="#000000" points="268.1242,-81.4732 277.228,-76.0537 266.7316,-74.6131 268.1242,-81.4732"/>
</g>
<!-- squashfs -->
<g id="node4" class="node">
<title>squashfs</title>
<ellipse fill="none" stroke="#ff0000" cx="412.112" cy="-96.2705" rx="40.8928" ry="18"/>
<text text-anchor="middle" x="412.112" y="-92.5705" font-family="Times,serif" font-size="14.00" fill="#000000">squashfs</text>
</g>
<!-- extlinux&#45;&gt;squashfs -->
<g id="edge3" class="edge">
<title>extlinux&#45;&gt;squashfs</title>
<path fill="none" stroke="#000000" stroke-dasharray="5,2" d="M98.9923,-86.1688C115.2348,-90.6321 134.1702,-95.0657 151.6897,-97.2705 224.2347,-106.3999 309.0491,-103.5959 361.6814,-100.2923"/>
<polygon fill="#000000" stroke="#000000" points="362.0172,-103.7778 371.7656,-99.6283 361.5572,-96.793 362.0172,-103.7778"/>
</g>
<!-- rootfs -->
<g id="node5" class="node">
<title>rootfs</title>
<path fill="none" stroke="#ff0000" d="M439.112,-56.9977C439.112,-58.8036 427.0102,-60.2705 412.112,-60.2705 397.2139,-60.2705 385.112,-58.8036 385.112,-56.9977 385.112,-56.9977 385.112,-27.5432 385.112,-27.5432 385.112,-25.7374 397.2139,-24.2705 412.112,-24.2705 427.0102,-24.2705 439.112,-25.7374 439.112,-27.5432 439.112,-27.5432 439.112,-56.9977 439.112,-56.9977"/>
<path fill="none" stroke="#ff0000" d="M439.112,-56.9977C439.112,-55.1919 427.0102,-53.725 412.112,-53.725 397.2139,-53.725 385.112,-55.1919 385.112,-56.9977"/>
<text text-anchor="middle" x="412.112" y="-38.5705" font-family="Times,serif" font-size="14.00" fill="#000000">rootfs</text>
</g>
<!-- extlinux&#45;&gt;rootfs -->
<g id="edge4" class="edge">
<title>extlinux&#45;&gt;rootfs</title>
<path fill="none" stroke="#000000" stroke-dasharray="5,2" d="M76.211,-56.0239C93.963,-40.632 122.4052,-19.1885 151.6897,-10.2705 228.9017,13.243 323.9877,-11.1225 375.2163,-28.3534"/>
<polygon fill="#000000" stroke="#000000" points="374.2642,-31.7275 384.859,-31.6882 376.5522,-25.1119 374.2642,-31.7275"/>
</g>
<!-- vmlinuz&#45;&gt;initrd -->
<g id="edge5" class="edge">
<title>vmlinuz&#45;&gt;initrd</title>
<path fill="none" stroke="#000000" d="M237.0176,-54.9658C246.9279,-57.0429 257.4586,-59.25 267.206,-61.293"/>
<polygon fill="#000000" stroke="#000000" points="266.5161,-64.7244 277.0214,-63.3502 267.9521,-57.8732 266.5161,-64.7244"/>
</g>
<!-- initrd&#45;&gt;squashfs -->
<g id="edge6" class="edge">
<title>initrd&#45;&gt;squashfs</title>
<path fill="none" stroke="#000000" d="M333.0613,-76.2939C343.2953,-78.8801 355.1737,-81.8818 366.5639,-84.7602"/>
<polygon fill="#000000" stroke="#000000" points="365.8414,-88.1876 376.3942,-87.2444 367.5565,-81.4009 365.8414,-88.1876"/>
</g>
<!-- initrd&#45;&gt;rootfs -->
<g id="edge7" class="edge">
<title>initrd&#45;&gt;rootfs</title>
<path fill="none" stroke="#000000" d="M333.0613,-62.247C345.898,-59.0031 361.3219,-55.1054 375.1243,-51.6175"/>
<polygon fill="#000000" stroke="#000000" points="375.9902,-55.0088 384.8279,-49.1653 374.2751,-48.2221 375.9902,-55.0088"/>
</g>
</g>
</svg>
