<?xml version="1.0" encoding="UTF-8" standalone="no"?>
<!DOCTYPE svg PUBLIC "-//W3C//DTD SVG 1.1//EN"
 "http://www.w3.org/Graphics/SVG/1.1/DTD/svg11.dtd">
<!-- Generated by graphviz version 2.40.1 (20161225.0304)
 -->
<!-- Title: 中心化 vs 去中心化 Pages: 1 -->
<svg width="534pt" height="412pt"
 viewBox="0.00 0.00 534.00 412.00" xmlns="http://www.w3.org/2000/svg" xmlns:xlink="http://www.w3.org/1999/xlink">
<g id="graph0" class="graph" transform="scale(1 1) rotate(0) translate(4 408)">
<title>中心化 vs 去中心化</title>
<polygon fill="#ffffff" stroke="transparent" points="-4,4 -4,-408 530,-408 530,4 -4,4"/>
<!-- center -->
<g id="node1" class="node">
<title>center</title>
<polygon fill="none" stroke="#000000" points="162,-328 108,-328 108,-292 162,-292 162,-328"/>
<polygon fill="none" stroke="#000000" points="166,-332 104,-332 104,-288 166,-288 166,-332"/>
</g>
<!-- A5 -->
<g id="node6" class="node">
<title>A5</title>
<ellipse fill="none" stroke="#000000" cx="63" cy="-234" rx="27" ry="18"/>
</g>
<!-- center&#45;&#45;A5 -->
<g id="edge5" class="edge">
<title>center&#45;&#45;A5</title>
<path fill="none" stroke="#000000" d="M113.787,-287.6086C102.1724,-275.3486 88.0723,-260.4652 77.6788,-249.4943"/>
</g>
<!-- A6 -->
<g id="node7" class="node">
<title>A6</title>
<ellipse fill="none" stroke="#000000" cx="135" cy="-234" rx="27" ry="18"/>
</g>
<!-- center&#45;&#45;A6 -->
<g id="edge6" class="edge">
<title>center&#45;&#45;A6</title>
<path fill="none" stroke="#000000" d="M135,-287.6086C135,-276.3995 135,-262.9974 135,-252.3975"/>
</g>
<!-- A7 -->
<g id="node8" class="node">
<title>A7</title>
<ellipse fill="none" stroke="#000000" cx="207" cy="-234" rx="27" ry="18"/>
</g>
<!-- center&#45;&#45;A7 -->
<g id="edge7" class="edge">
<title>center&#45;&#45;A7</title>
<path fill="none" stroke="#000000" d="M156.213,-287.6086C167.8276,-275.3486 181.9277,-260.4652 192.3212,-249.4943"/>
</g>
<!-- A1 -->
<g id="node2" class="node">
<title>A1</title>
<ellipse fill="none" stroke="#000000" cx="27" cy="-386" rx="27" ry="18"/>
</g>
<!-- A1&#45;&#45;center -->
<g id="edge1" class="edge">
<title>A1&#45;&#45;center</title>
<path fill="none" stroke="#000000" d="M45.8122,-372.7618C61.767,-361.5343 84.9807,-345.1988 103.7257,-332.0079"/>
</g>
<!-- A2 -->
<g id="node3" class="node">
<title>A2</title>
<ellipse fill="none" stroke="#000000" cx="99" cy="-386" rx="27" ry="18"/>
</g>
<!-- A2&#45;&#45;center -->
<g id="edge2" class="edge">
<title>A2&#45;&#45;center</title>
<path fill="none" stroke="#000000" d="M107.169,-368.7544C112.3138,-357.8932 119.0042,-343.7689 124.5359,-332.0908"/>
</g>
<!-- A3 -->
<g id="node4" class="node">
<title>A3</title>
<ellipse fill="none" stroke="#000000" cx="171" cy="-386" rx="27" ry="18"/>
</g>
<!-- A3&#45;&#45;center -->
<g id="edge3" class="edge">
<title>A3&#45;&#45;center</title>
<path fill="none" stroke="#000000" d="M162.831,-368.7544C157.6862,-357.8932 150.9958,-343.7689 145.4641,-332.0908"/>
</g>
<!-- A4 -->
<g id="node5" class="node">
<title>A4</title>
<ellipse fill="none" stroke="#000000" cx="243" cy="-386" rx="27" ry="18"/>
</g>
<!-- A4&#45;&#45;center -->
<g id="edge4" class="edge">
<title>A4&#45;&#45;center</title>
<path fill="none" stroke="#000000" d="M224.1878,-372.7618C208.233,-361.5343 185.0193,-345.1988 166.2743,-332.0079"/>
</g>
<!-- A -->
<g id="node9" class="node">
<title>A</title>
<ellipse fill="none" stroke="#000000" cx="313" cy="-310" rx="27" ry="18"/>
</g>
<!-- C -->
<g id="node11" class="node">
<title>C</title>
<ellipse fill="none" stroke="#000000" cx="279" cy="-234" rx="27" ry="18"/>
</g>
<!-- A&#45;&#45;C -->
<g id="edge8" class="edge">
<title>A&#45;&#45;C</title>
<path fill="none" stroke="#000000" d="M305.1143,-292.373C299.5822,-280.0074 292.2221,-263.5552 286.7258,-251.2693"/>
</g>
<!-- H -->
<g id="node16" class="node">
<title>H</title>
<ellipse fill="none" stroke="#000000" cx="351" cy="-234" rx="27" ry="18"/>
</g>
<!-- A&#45;&#45;H -->
<g id="edge18" class="edge">
<title>A&#45;&#45;H</title>
<path fill="none" stroke="#000000" d="M321.6228,-292.7544C327.8417,-280.3166 336.2003,-263.5995 342.4113,-251.1773"/>
</g>
<!-- B -->
<g id="node10" class="node">
<title>B</title>
<ellipse fill="none" stroke="#000000" cx="306" cy="-18" rx="27" ry="18"/>
</g>
<!-- B&#45;&#45;C -->
<g id="edge9" class="edge">
<title>B&#45;&#45;C</title>
<path fill="none" stroke="#000000" d="M294.5457,-34.555C279.2551,-57.764 252.9457,-101.8691 243,-144 239.324,-159.572 238.3635,-164.6865 243,-180 247.3099,-194.2347 256.7465,-208.1468 264.8771,-218.2844"/>
</g>
<!-- D -->
<g id="node12" class="node">
<title>D</title>
<ellipse fill="none" stroke="#000000" cx="279" cy="-162" rx="27" ry="18"/>
</g>
<!-- C&#45;&#45;D -->
<g id="edge10" class="edge">
<title>C&#45;&#45;D</title>
<path fill="none" stroke="#000000" d="M279,-215.8314C279,-205 279,-191.2876 279,-180.4133"/>
</g>
<!-- E -->
<g id="node13" class="node">
<title>E</title>
<ellipse fill="none" stroke="#000000" cx="389" cy="-162" rx="27" ry="18"/>
</g>
<!-- C&#45;&#45;E -->
<g id="edge11" class="edge">
<title>C&#45;&#45;E</title>
<path fill="none" stroke="#000000" d="M298.4126,-221.2936C318.3961,-208.2135 349.3638,-187.9437 369.4115,-174.8216"/>
</g>
<!-- F -->
<g id="node14" class="node">
<title>F</title>
<ellipse fill="none" stroke="#000000" cx="334" cy="-90" rx="27" ry="18"/>
</g>
<!-- C&#45;&#45;F -->
<g id="edge12" class="edge">
<title>C&#45;&#45;F</title>
<path fill="none" stroke="#000000" d="M292.0989,-217.9153C299.8441,-207.6387 309.2352,-193.7102 315,-180 324.9655,-156.2992 329.9112,-126.8125 332.2095,-108.1917"/>
</g>
<!-- D&#45;&#45;B -->
<g id="edge14" class="edge">
<title>D&#45;&#45;B</title>
<path fill="none" stroke="#000000" d="M282.365,-144.0535C287.5389,-116.4592 297.3933,-63.9026 302.5926,-36.1727"/>
</g>
<!-- D&#45;&#45;F -->
<g id="edge15" class="edge">
<title>D&#45;&#45;F</title>
<path fill="none" stroke="#000000" d="M291.4804,-145.6621C300.4814,-133.8788 312.5793,-118.0416 321.569,-106.2733"/>
</g>
<!-- E&#45;&#45;B -->
<g id="edge16" class="edge">
<title>E&#45;&#45;B</title>
<path fill="none" stroke="#000000" d="M388.5891,-143.8417C387.4102,-124.7181 383.3607,-94.3396 370,-72 359.4041,-54.2831 340.8716,-39.6063 326.4673,-30.048"/>
</g>
<!-- G -->
<g id="node15" class="node">
<title>G</title>
<ellipse fill="none" stroke="#000000" cx="444" cy="-90" rx="27" ry="18"/>
</g>
<!-- E&#45;&#45;G -->
<g id="edge17" class="edge">
<title>E&#45;&#45;G</title>
<path fill="none" stroke="#000000" d="M401.4804,-145.6621C410.4814,-133.8788 422.5793,-118.0416 431.569,-106.2733"/>
</g>
<!-- F&#45;&#45;B -->
<g id="edge13" class="edge">
<title>F&#45;&#45;B</title>
<path fill="none" stroke="#000000" d="M327.222,-72.5708C322.8521,-61.3339 317.1894,-46.7727 312.8126,-35.5182"/>
</g>
<!-- J -->
<g id="node17" class="node">
<title>J</title>
<ellipse fill="none" stroke="#000000" cx="499" cy="-310" rx="27" ry="18"/>
</g>
<!-- J&#45;&#45;G -->
<g id="edge19" class="edge">
<title>J&#45;&#45;G</title>
<path fill="none" stroke="#000000" d="M494.6387,-292.051C487.2197,-261.5845 471.6213,-197.8147 458,-144 454.9581,-131.9823 451.4581,-118.4823 448.7186,-107.9867"/>
</g>
<!-- I -->
<g id="node18" class="node">
<title>I</title>
<ellipse fill="none" stroke="#000000" cx="406" cy="-386" rx="27" ry="18"/>
</g>
<!-- I&#45;&#45;A -->
<g id="edge20" class="edge">
<title>I&#45;&#45;A</title>
<path fill="none" stroke="#000000" d="M388.5074,-371.705C371.7753,-358.0314 346.7,-337.5398 330.0999,-323.9741"/>
</g>
<!-- I&#45;&#45;E -->
<g id="edge21" class="edge">
<title>I&#45;&#45;E</title>
<path fill="none" stroke="#000000" d="M404.6088,-367.6691C401.4131,-325.5606 393.5778,-222.3196 390.3866,-180.27"/>
</g>
<!-- I&#45;&#45;G -->
<g id="edge22" class="edge">
<title>I&#45;&#45;G</title>
<path fill="none" stroke="#000000" d="M408.7736,-368.0152C410.3648,-357.5203 412.3648,-344.0203 414,-332 425.3563,-248.5213 437.185,-148.5942 441.8895,-108.2339"/>
</g>
<!-- I&#45;&#45;H -->
<g id="edge23" class="edge">
<title>I&#45;&#45;H</title>
<path fill="none" stroke="#000000" d="M399.5832,-368.2662C388.9852,-338.9774 367.947,-280.8353 357.376,-251.6209"/>
</g>
<!-- I&#45;&#45;J -->
<g id="edge24" class="edge">
<title>I&#45;&#45;J</title>
<path fill="none" stroke="#000000" d="M423.4926,-371.705C440.2247,-358.0314 465.3,-337.5398 481.9001,-323.9741"/>
</g>
</g>
</svg>
