<?xml version="1.0" encoding="UTF-8" standalone="no"?>
<!DOCTYPE svg PUBLIC "-//W3C//DTD SVG 1.1//EN"
 "http://www.w3.org/Graphics/SVG/1.1/DTD/svg11.dtd">
<!-- Generated by graphviz version 2.40.1 (20161225.0304)
 -->
<!-- Title: 如何下載 html 表格？ Pages: 1 -->
<svg width="490pt" height="344pt"
 viewBox="0.00 0.00 490.15 343.95" xmlns="http://www.w3.org/2000/svg" xmlns:xlink="http://www.w3.org/1999/xlink">
<g id="graph0" class="graph" transform="scale(1 1) rotate(0) translate(4 339.9533)">
<title>如何下載 html 表格？</title>
<polygon fill="#ffffff" stroke="transparent" points="-4,4 -4,-339.9533 486.1539,-339.9533 486.1539,4 -4,4"/>
<!-- init -->
<g id="node1" class="node">
<title>init</title>
<ellipse fill="none" stroke="#000000" cx="101.5599" cy="-317.9533" rx="57.3905" ry="18"/>
<text text-anchor="middle" x="101.5599" y="-314.2533" font-family="Times,serif" font-size="14.00" fill="#000000">靜態網頁？</text>
</g>
<!-- wget -->
<g id="node2" class="node">
<title>wget</title>
<ellipse fill="none" stroke="#000000" cx="85.5599" cy="-211.4767" rx="85.6199" ry="37.4533"/>
<text text-anchor="middle" x="85.5599" y="-222.7767" font-family="Times,serif" font-size="14.00" fill="#000000">wget/lynx/curl</text>
<text text-anchor="middle" x="85.5599" y="-207.7767" font-family="Times,serif" font-size="14.00" fill="#000000">(有時可能需要設</text>
<text text-anchor="middle" x="85.5599" y="-192.7767" font-family="Times,serif" font-size="14.00" fill="#000000">user agent)</text>
</g>
<!-- init&#45;&gt;wget -->
<g id="edge1" class="edge">
<title>init&#45;&gt;wget</title>
<path fill="none" stroke="#000000" d="M98.8457,-299.891C97.1506,-288.6104 94.8824,-273.516 92.7005,-258.9958"/>
<polygon fill="#000000" stroke="#000000" points="96.159,-258.4578 91.2118,-249.0889 89.2368,-259.498 96.159,-258.4578"/>
<text text-anchor="middle" x="101.5599" y="-270.7533" font-family="Times,serif" font-size="14.00" fill="#000000">Y</text>
</g>
<!-- batch -->
<g id="node3" class="node">
<title>batch</title>
<ellipse fill="none" stroke="#000000" cx="251.5599" cy="-211.4767" rx="62.4516" ry="26.7407"/>
<text text-anchor="middle" x="251.5599" y="-215.2767" font-family="Times,serif" font-size="14.00" fill="#000000">需要大量</text>
<text text-anchor="middle" x="251.5599" y="-200.2767" font-family="Times,serif" font-size="14.00" fill="#000000">批次處理？</text>
</g>
<!-- init&#45;&gt;batch -->
<g id="edge2" class="edge">
<title>init&#45;&gt;batch</title>
<path fill="none" stroke="#000000" d="M124.9974,-301.3163C147.9219,-285.0435 183.3035,-259.9281 210.8348,-240.3851"/>
<polygon fill="#000000" stroke="#000000" points="212.976,-243.1574 219.1045,-234.5149 208.9241,-237.4493 212.976,-243.1574"/>
<text text-anchor="middle" x="177.5599" y="-270.7533" font-family="Times,serif" font-size="14.00" fill="#000000">N</text>
</g>
<!-- puppeteer -->
<g id="node4" class="node">
<title>puppeteer</title>
<ellipse fill="none" stroke="#000000" cx="208.5599" cy="-105" rx="45.4919" ry="18"/>
<text text-anchor="middle" x="208.5599" y="-101.3" font-family="Times,serif" font-size="14.00" fill="#000000">puppeteer</text>
</g>
<!-- batch&#45;&gt;puppeteer -->
<g id="edge3" class="edge">
<title>batch&#45;&gt;puppeteer</title>
<path fill="none" stroke="#000000" d="M240.8201,-184.8828C234.3517,-168.8656 226.1325,-148.5133 219.6093,-132.3605"/>
<polygon fill="#000000" stroke="#000000" points="222.7877,-130.884 215.7977,-122.9222 216.297,-133.5053 222.7877,-130.884"/>
<text text-anchor="middle" x="234.5599" y="-144.8" font-family="Times,serif" font-size="14.00" fill="#000000">Y</text>
</g>
<!-- interactive -->
<g id="node5" class="node">
<title>interactive</title>
<ellipse fill="none" stroke="#000000" cx="347.5599" cy="-105" rx="75.2868" ry="18"/>
<text text-anchor="middle" x="347.5599" y="-101.3" font-family="Times,serif" font-size="14.00" fill="#000000">互動後才產生？</text>
</g>
<!-- batch&#45;&gt;interactive -->
<g id="edge4" class="edge">
<title>batch&#45;&gt;interactive</title>
<path fill="none" stroke="#000000" d="M274.3106,-186.2432C289.463,-169.4371 309.3083,-147.4261 324.5199,-130.5544"/>
<polygon fill="#000000" stroke="#000000" points="327.4776,-132.5008 331.5744,-122.73 322.2787,-127.8134 327.4776,-132.5008"/>
<text text-anchor="middle" x="319.5599" y="-144.8" font-family="Times,serif" font-size="14.00" fill="#000000">N</text>
</g>
<!-- save_as -->
<g id="node6" class="node">
<title>save_as</title>
<ellipse fill="none" stroke="#000000" cx="280.5599" cy="-18" rx="48.1917" ry="18"/>
<text text-anchor="middle" x="280.5599" y="-14.3" font-family="Times,serif" font-size="14.00" fill="#000000">另存新檔</text>
</g>
<!-- interactive&#45;&gt;save_as -->
<g id="edge5" class="edge">
<title>interactive&#45;&gt;save_as</title>
<path fill="none" stroke="#000000" d="M333.6775,-86.9735C324.028,-74.4437 311.0257,-57.56 300.3006,-43.6335"/>
<polygon fill="#000000" stroke="#000000" points="302.8419,-41.197 293.9674,-35.4097 297.2959,-45.4681 302.8419,-41.197"/>
<text text-anchor="middle" x="323.5599" y="-57.8" font-family="Times,serif" font-size="14.00" fill="#000000">N</text>
</g>
<!-- console -->
<g id="node7" class="node">
<title>console</title>
<ellipse fill="none" stroke="#000000" cx="414.5599" cy="-18" rx="67.6881" ry="18"/>
<text text-anchor="middle" x="414.5599" y="-14.3" font-family="Times,serif" font-size="14.00" fill="#000000">火狐的 console</text>
</g>
<!-- interactive&#45;&gt;console -->
<g id="edge6" class="edge">
<title>interactive&#45;&gt;console</title>
<path fill="none" stroke="#000000" d="M361.4424,-86.9735C371.0283,-74.5261 383.9232,-57.782 394.6072,-43.9087"/>
<polygon fill="#000000" stroke="#000000" points="397.596,-45.7641 400.9245,-35.7057 392.05,-41.493 397.596,-45.7641"/>
<text text-anchor="middle" x="389.5599" y="-57.8" font-family="Times,serif" font-size="14.00" fill="#000000">Y</text>
</g>
</g>
</svg>
