<?xml version="1.0" encoding="UTF-8" standalone="no"?>
<!DOCTYPE svg PUBLIC "-//W3C//DTD SVG 1.1//EN"
 "http://www.w3.org/Graphics/SVG/1.1/DTD/svg11.dtd">
<!-- Generated by graphviz version 2.40.1 (20161225.0304)
 -->
<!-- Title: 如何下載 html 表格？ Pages: 1 -->
<svg width="392pt" height="257pt"
 viewBox="0.00 0.00 392.15 256.95" xmlns="http://www.w3.org/2000/svg" xmlns:xlink="http://www.w3.org/1999/xlink">
<g id="graph0" class="graph" transform="scale(1 1) rotate(0) translate(4 252.9533)">
<title>如何下載 html 表格？</title>
<polygon fill="#ffffff" stroke="transparent" points="-4,4 -4,-252.9533 388.1539,-252.9533 388.1539,4 -4,4"/>
<!-- init -->
<g id="node1" class="node">
<title>init</title>
<ellipse fill="none" stroke="#000000" cx="101.5599" cy="-230.9533" rx="57.3905" ry="18"/>
<text text-anchor="middle" x="101.5599" y="-227.2533" font-family="Times,serif" font-size="14.00" fill="#000000">靜態網頁？</text>
</g>
<!-- wget -->
<g id="node2" class="node">
<title>wget</title>
<ellipse fill="none" stroke="#000000" cx="85.5599" cy="-124.4767" rx="85.6199" ry="37.4533"/>
<text text-anchor="middle" x="85.5599" y="-135.7767" font-family="Times,serif" font-size="14.00" fill="#000000">wget/lynx/curl</text>
<text text-anchor="middle" x="85.5599" y="-120.7767" font-family="Times,serif" font-size="14.00" fill="#000000">(有時可能需要設</text>
<text text-anchor="middle" x="85.5599" y="-105.7767" font-family="Times,serif" font-size="14.00" fill="#000000">user agent)</text>
</g>
<!-- init&#45;&gt;wget -->
<g id="edge1" class="edge">
<title>init&#45;&gt;wget</title>
<path fill="none" stroke="#000000" d="M98.8457,-212.891C97.1506,-201.6104 94.8824,-186.516 92.7005,-171.9958"/>
<polygon fill="#000000" stroke="#000000" points="96.159,-171.4578 91.2118,-162.0889 89.2368,-172.498 96.159,-171.4578"/>
<text text-anchor="middle" x="101.5599" y="-183.7533" font-family="Times,serif" font-size="14.00" fill="#000000">Y</text>
</g>
<!-- batch -->
<g id="node3" class="node">
<title>batch</title>
<ellipse fill="none" stroke="#000000" cx="251.5599" cy="-124.4767" rx="62.4516" ry="26.7407"/>
<text text-anchor="middle" x="251.5599" y="-128.2767" font-family="Times,serif" font-size="14.00" fill="#000000">需要大量</text>
<text text-anchor="middle" x="251.5599" y="-113.2767" font-family="Times,serif" font-size="14.00" fill="#000000">批次處理？</text>
</g>
<!-- init&#45;&gt;batch -->
<g id="edge2" class="edge">
<title>init&#45;&gt;batch</title>
<path fill="none" stroke="#000000" d="M124.9974,-214.3163C147.9219,-198.0435 183.3035,-172.9281 210.8348,-153.3851"/>
<polygon fill="#000000" stroke="#000000" points="212.976,-156.1574 219.1045,-147.5149 208.9241,-150.4493 212.976,-156.1574"/>
<text text-anchor="middle" x="177.5599" y="-183.7533" font-family="Times,serif" font-size="14.00" fill="#000000">N</text>
</g>
<!-- puppeteer -->
<g id="node4" class="node">
<title>puppeteer</title>
<ellipse fill="none" stroke="#000000" cx="185.5599" cy="-18" rx="45.4919" ry="18"/>
<text text-anchor="middle" x="185.5599" y="-14.3" font-family="Times,serif" font-size="14.00" fill="#000000">puppeteer</text>
</g>
<!-- batch&#45;&gt;puppeteer -->
<g id="edge3" class="edge">
<title>batch&#45;&gt;puppeteer</title>
<path fill="none" stroke="#000000" d="M235.4145,-98.4295C225.2394,-82.0143 212.142,-60.8845 201.9252,-44.4019"/>
<polygon fill="#000000" stroke="#000000" points="204.8259,-42.4381 196.5824,-35.7825 198.8761,-46.126 204.8259,-42.4381"/>
<text text-anchor="middle" x="222.5599" y="-57.8" font-family="Times,serif" font-size="14.00" fill="#000000">Y</text>
</g>
<!-- manual -->
<g id="node5" class="node">
<title>manual</title>
<ellipse fill="none" stroke="#000000" cx="316.5599" cy="-18" rx="67.6881" ry="18"/>
<text text-anchor="middle" x="316.5599" y="-14.3" font-family="Times,serif" font-size="14.00" fill="#000000">火狐的 console</text>
</g>
<!-- batch&#45;&gt;manual -->
<g id="edge4" class="edge">
<title>batch&#45;&gt;manual</title>
<path fill="none" stroke="#000000" d="M267.4607,-98.4295C277.4816,-82.0143 290.3806,-60.8845 300.4426,-44.4019"/>
<polygon fill="#000000" stroke="#000000" points="303.4812,-46.1414 305.7044,-35.7825 297.5065,-42.4941 303.4812,-46.1414"/>
<text text-anchor="middle" x="298.5599" y="-57.8" font-family="Times,serif" font-size="14.00" fill="#000000">N</text>
</g>
</g>
</svg>
