<?xml version="1.0" encoding="UTF-8" standalone="no"?>
<svg
   xmlns:dc="http://purl.org/dc/elements/1.1/"
   xmlns:cc="http://creativecommons.org/ns#"
   xmlns:rdf="http://www.w3.org/1999/02/22-rdf-syntax-ns#"
   xmlns:svg="http://www.w3.org/2000/svg"
   xmlns="http://www.w3.org/2000/svg"
   xmlns:sodipodi="http://sodipodi.sourceforge.net/DTD/sodipodi-0.dtd"
   xmlns:inkscape="http://www.inkscape.org/namespaces/inkscape"
   width="211.76454"
   height="271.16266"
   viewBox="0 0 56.029367 71.745122"
   version="1.1"
   id="svg856"
   inkscape:version="1.0.2 (e86c870879, 2021-01-15)"
   sodipodi:docname="baby-elephant.svg">
  <defs
     id="defs850" />
  <sodipodi:namedview
     id="base"
     pagecolor="#ffffff"
     bordercolor="#666666"
     borderopacity="1.0"
     inkscape:pageopacity="0.0"
     inkscape:pageshadow="2"
     inkscape:zoom="0.5"
     inkscape:cx="117.47884"
     inkscape:cy="108.30438"
     inkscape:document-units="mm"
     inkscape:current-layer="layer1"
     inkscape:document-rotation="0"
     showgrid="false"
     units="px"
     fit-margin-top="20"
     fit-margin-left="20"
     fit-margin-right="20"
     fit-margin-bottom="20"
     inkscape:window-width="1562"
     inkscape:window-height="1009"
     inkscape:window-x="178"
     inkscape:window-y="0"
     inkscape:window-maximized="0" />
  <metadata
     id="metadata853">
    <rdf:RDF>
      <cc:Work
         rdf:about="">
        <dc:format>image/svg+xml</dc:format>
        <dc:type
           rdf:resource="http://purl.org/dc/dcmitype/StillImage" />
        <dc:title></dc:title>
      </cc:Work>
    </rdf:RDF>
  </metadata>
  <g
     inkscape:label="Layer 1"
     inkscape:groupmode="layer"
     id="layer1"
     transform="translate(-34.729362,-57.109734)">
    <path
       style="fill:#000000;stroke-width:0.264583"
       d="m 46.423507,123.43132 c -0.625982,-0.1293 -1.816607,-0.57015 -2.645833,-0.97968 -1.383311,-0.68316 -1.514374,-0.82454 -1.588763,-1.7138 -0.130413,-1.559 1.355695,-5.47736 4.039547,-10.6509 3.112029,-5.99892 3.509929,-7.28429 3.840841,-12.407407 0.234971,-3.637733 0.216678,-4.059942 -0.198361,-4.57844 -0.25146,-0.314143 -1.263838,-1.496648 -2.24973,-2.627789 -2.543354,-2.918063 -2.901005,-4.331978 -2.16905,-8.575 0.136882,-0.793486 -0.01094,-1.183919 -1.032669,-2.72758 -1.427846,-2.157225 -1.877473,-3.982163 -1.674745,-6.79742 0.07859,-1.091406 0.06346,-2.877344 -0.03364,-3.96875 -0.171406,-1.926742 -0.20034,-1.99207 -0.996221,-2.249337 -1.243444,-0.401941 -1.693854,-0.897833 -1.693854,-1.864898 0,-1.271204 1.086254,-2.076657 2.496505,-1.851149 1.917469,0.306615 2.952962,1.15402 5.609172,4.590315 2.098159,2.714352 2.750106,3.377424 3.759973,3.824137 1.188733,0.525834 1.283128,0.52864 3.498244,0.104007 2.832367,-0.542958 4.458509,-0.550841 6.453237,-0.03128 4.79275,1.248353 8.27645,4.843971 9.279538,9.577653 0.668296,3.153753 0.379217,4.914923 -1.244399,7.581335 l -0.786862,1.292241 0.820263,1.142198 c 2.104764,2.93083 2.425113,5.40579 1.07037,8.269473 -0.436449,0.92257 -0.793541,1.865831 -0.793541,2.096141 0,0.50999 2.198288,3.08534 4.399087,5.15364 2.280181,2.14291 2.819042,3.46891 2.95788,7.27854 0.09331,2.56049 0.170225,2.97657 0.550217,2.97657 0.882242,0 1.583303,-0.80424 2.020133,-2.31743 0.241184,-0.83547 0.733102,-1.90791 1.093155,-2.3832 0.75755,-1.00001 3.689848,-3.50146 4.104556,-3.50146 0.359716,0 0.08379,1.9125 -0.591241,4.09799 -0.542152,1.75529 -1.13746,2.45838 -2.724449,3.21775 -0.848053,0.40578 -1.131602,0.75927 -1.6584,2.06745 -0.72553,1.8017 -1.692013,2.93542 -2.705452,3.17362 -0.384236,0.0903 -1.532049,0.57516 -2.550695,1.07745 -3.484808,1.71834 -4.081912,1.79592 -13.361458,1.73604 -6.311947,-0.0407 -8.462782,-0.13718 -8.863541,-0.39748 -0.430591,-0.27967 -0.709629,-0.28103 -1.497907,-0.007 -1.38057,0.47939 -3.604519,0.64793 -4.931908,0.37375 z m 24.780251,-1.40872 c 2.073449,-0.59067 3.355546,-1.58961 4.165846,-3.2458 0.669562,-1.36854 0.690065,-1.54966 0.587655,-5.19149 -0.06965,-2.47689 -0.228711,-4.00074 -0.462923,-4.43492 -0.196246,-0.36381 -1.45778,-1.80178 -2.803406,-3.1955 -1.345625,-1.39371 -2.641925,-2.91176 -2.880666,-3.37343 -0.238739,-0.46167 -0.499698,-0.83941 -0.579906,-0.83941 -0.08021,0 -0.813636,0.47821 -1.629839,1.06268 -2.569292,1.83983 -4.413417,2.12471 -10.201021,1.57588 -3.218529,-0.3052 -4.896085,-0.92871 -5.758923,-2.14046 -0.298694,-0.41947 -0.627663,-0.76268 -0.731044,-0.76268 -0.103381,0 -0.402074,0.83115 -0.663765,1.84701 -0.261702,1.01591 -1.380918,3.60536 -2.487293,5.75469 -3.016385,5.85986 -3.246146,6.34799 -3.918792,8.32566 -0.802406,2.35917 -0.627759,2.83763 1.389978,3.808 1.307075,0.6286 1.882647,0.74203 3.82994,0.75481 1.260432,0.008 2.380877,-0.0735 2.489877,-0.18178 0.109001,-0.10825 -0.233738,-1.12029 -0.761645,-2.24896 -2.025908,-4.33144 -2.72811,-9.57588 -1.48303,-11.07611 0.61644,-0.74277 2.801657,-1.66779 4.645523,-1.96649 2.21643,-0.35906 4.539255,-0.14061 7.439808,0.69966 2.660107,0.77062 3.362343,0.78502 5.089231,0.10434 2.118119,-0.83488 2.384933,-0.69024 1.114542,0.60419 -1.058085,1.07811 -1.09228,1.16194 -0.701543,1.71979 0.588862,0.84072 0.111731,0.77346 -2.479755,-0.34958 -3.210631,-1.39134 -5.797592,-1.97447 -8.757337,-1.97399 -2.835574,5.3e-4 -4.139174,0.43948 -4.712597,1.58709 -0.457293,0.9152 -0.422915,4.84479 0.05912,6.75744 0.522388,2.07278 2.410499,5.82208 3.279838,6.5129 0.668832,0.53149 0.898525,0.54309 8.096695,0.40858 5.497433,-0.10272 7.77386,-0.24255 8.825436,-0.54212 z m -5.259501,-19.08691 c 2.713648,-1.37511 4.721862,-4.095335 4.959691,-6.718147 0.116797,-1.288076 0.02855,-1.800572 -0.512572,-2.976666 -0.646118,-1.404305 -4.73814,-6.233045 -6.216356,-7.335534 -0.461484,-0.344187 -0.58954,-0.553464 -0.34149,-0.558085 0.664363,-0.01237 2.194512,1.015223 3.215177,2.159211 0.606123,0.679359 1.113015,1.026632 1.360104,0.931816 0.216635,-0.08313 0.734337,-0.844495 1.150448,-1.691919 0.672488,-1.369548 0.756126,-1.820095 0.752644,-4.054312 -0.0035,-2.243482 -0.08503,-2.669892 -0.758862,-3.96875 -1.59802,-3.080284 -3.801877,-4.985231 -7.056705,-6.099609 -1.337344,-0.457875 -2.362345,-0.590764 -4.748223,-0.615597 -2.717133,-0.02828 -3.143988,0.03132 -3.989228,0.556999 -0.546447,0.339851 -1.256499,1.158198 -1.679882,1.936092 -0.403347,0.741082 -0.781394,1.299389 -0.840103,1.240681 -0.05871,-0.05871 0.134335,-0.807435 0.42898,-1.663839 0.294645,-0.856403 0.481592,-1.698149 0.415438,-1.870546 -0.242398,-0.631674 -1.705242,-0.702795 -2.675893,-0.130097 -1.074102,0.633735 -1.147171,0.465153 -0.265758,-0.613146 0.496001,-0.606797 0.576398,-0.886154 0.367408,-1.276656 -0.224323,-0.419151 -0.445921,-0.470088 -1.372059,-0.315384 -1.081535,0.180662 -1.094889,0.173758 -0.641507,-0.331677 0.665122,-0.741483 0.596538,-1.003814 -0.69998,-2.677422 -1.642967,-2.120819 -2.508687,-2.859109 -3.797211,-3.238277 -0.994421,-0.292623 -1.183761,-0.276377 -1.645133,0.141159 -0.403514,0.365175 -0.460978,0.584697 -0.254198,0.971068 0.207416,0.387562 0.376842,0.440538 0.757453,0.236841 1.114844,-0.596646 1.580141,0.998683 1.854632,6.358838 0.240163,4.689805 0.55156,5.913929 1.981213,7.788301 0.765133,1.003141 0.830303,1.399588 0.571433,3.476183 -0.25348,2.033358 0.303019,4.405452 1.496752,6.379946 0.852815,1.4106 2.670393,3.113767 3.063598,2.870753 0.118401,-0.07318 0.541245,-0.963885 0.939649,-1.979356 0.815716,-2.079122 1.669161,-3.128118 1.425131,-1.751671 -0.07731,0.436081 -0.404985,1.745374 -0.728155,2.909541 -0.845478,3.045684 -0.864899,7.162802 -0.04241,8.992541 1.209283,2.69023 2.674837,3.56515 6.377083,3.80707 3.320766,0.21699 5.499012,-0.0543 7.148896,-0.89035 z m 2.023385,-3.876239 c 0.663077,-1.244222 0.613005,-3.707736 -0.10799,-5.313026 -0.924761,-2.058977 -4.281051,-5.233538 -5.533131,-5.233538 -0.99015,0 0.504328,2.914666 1.76148,3.435395 0.951613,0.394171 1.050843,0.797938 0.196101,0.797938 -0.779386,0 -2.265863,-1.543571 -3.332961,-3.460977 -1.617748,-2.906831 -0.897465,-3.339561 2.370113,-1.423911 4.278887,2.508538 6.068526,4.96439 6.068526,8.327604 0,1.399556 -0.124778,1.954858 -0.595313,2.649321 -0.830741,1.226093 -1.45076,1.391963 -0.826825,0.221194 z M 51.715613,82.374554 c -0.800547,-0.800548 0.04557,-2.463043 0.961449,-1.889095 0.605096,0.379194 0.689919,1.258263 0.171442,1.77674 -0.513276,0.513276 -0.712238,0.533008 -1.132891,0.112355 z"
       id="path837" />
  </g>
</svg>
