<?xml version="1.0" encoding="UTF-8" standalone="no"?>
<!DOCTYPE svg PUBLIC "-//W3C//DTD SVG 1.1//EN"
 "http://www.w3.org/Graphics/SVG/1.1/DTD/svg11.dtd">
<!-- Generated by graphviz version 2.43.0 (0)
 -->
<!-- Title: G Pages: 1 -->
<svg width="976pt" height="99pt"
 viewBox="0.00 0.00 976.46 99.00" xmlns="http://www.w3.org/2000/svg" xmlns:xlink="http://www.w3.org/1999/xlink">
<g id="graph0" class="graph" transform="scale(1 1) rotate(0) translate(4 95)">
<title>G</title>
<polygon fill="white" stroke="transparent" points="-4,4 -4,-95 972.46,-95 972.46,4 -4,4"/>
<!-- empty1 -->
<!-- pmysql.php -->
<g id="node3" class="node">
<title>pmysql.php</title>
<ellipse fill="none" stroke="black" cx="187.99" cy="-46" rx="64.99" ry="18"/>
<text text-anchor="middle" x="187.99" y="-42.3" font-family="Times,serif" font-size="14.00">pmysql.php</text>
</g>
<!-- empty1&#45;&gt;pmysql.php -->
<g id="edge1" class="edge">
<title>empty1&#45;&gt;pmysql.php</title>
<path fill="none" stroke="black" d="M54.25,-46C70.32,-46 91.76,-46 112.72,-46"/>
<polygon fill="black" stroke="black" points="112.94,-49.5 122.94,-46 112.94,-42.5 112.94,-49.5"/>
<text text-anchor="middle" x="88.5" y="-49.8" font-family="Times,serif" font-size="14.00">*.sql</text>
</g>
<!-- empty2 -->
<!-- json2erd.py -->
<g id="node4" class="node">
<title>json2erd.py</title>
<ellipse fill="none" stroke="black" cx="395.63" cy="-46" rx="65.79" ry="18"/>
<text text-anchor="middle" x="395.63" y="-42.3" font-family="Times,serif" font-size="14.00">json2erd.py</text>
</g>
<!-- pmysql.php&#45;&gt;json2erd.py -->
<g id="edge2" class="edge">
<title>pmysql.php&#45;&gt;json2erd.py</title>
<path fill="none" stroke="black" d="M253.21,-46C274.27,-46 297.86,-46 319.64,-46"/>
<polygon fill="black" stroke="black" points="319.84,-49.5 329.84,-46 319.84,-42.5 319.84,-49.5"/>
<text text-anchor="middle" x="291.49" y="-49.8" font-family="Times,serif" font-size="14.00">*.json</text>
</g>
<!-- erdot -->
<g id="node5" class="node">
<title>erdot</title>
<ellipse fill="none" stroke="black" cx="574.02" cy="-73" rx="36" ry="18"/>
<text text-anchor="middle" x="574.02" y="-69.3" font-family="Times,serif" font-size="14.00">erdot</text>
</g>
<!-- json2erd.py&#45;&gt;erdot -->
<g id="edge3" class="edge">
<title>json2erd.py&#45;&gt;erdot</title>
<path fill="none" stroke="black" d="M453.41,-54.69C478.04,-58.46 506.43,-62.81 529.37,-66.32"/>
<polygon fill="black" stroke="black" points="529.08,-69.81 539.49,-67.87 530.14,-62.89 529.08,-69.81"/>
<text text-anchor="middle" x="499.78" y="-67.8" font-family="Times,serif" font-size="14.00">*.json</text>
</g>
<!-- erd -->
<g id="node6" class="node">
<title>erd</title>
<ellipse fill="none" stroke="black" cx="574.02" cy="-19" rx="27" ry="18"/>
<text text-anchor="middle" x="574.02" y="-15.3" font-family="Times,serif" font-size="14.00">erd</text>
</g>
<!-- json2erd.py&#45;&gt;erd -->
<g id="edge6" class="edge">
<title>json2erd.py&#45;&gt;erd</title>
<path fill="none" stroke="black" d="M453.41,-37.31C480.96,-33.09 513.21,-28.16 537.28,-24.47"/>
<polygon fill="black" stroke="black" points="538.03,-27.9 547.38,-22.92 536.97,-20.98 538.03,-27.9"/>
<text text-anchor="middle" x="499.78" y="-36.8" font-family="Times,serif" font-size="14.00">*.er</text>
</g>
<!-- graphviz -->
<g id="node7" class="node">
<title>graphviz</title>
<ellipse fill="none" stroke="black" cx="732.12" cy="-53" rx="51.19" ry="18"/>
<text text-anchor="middle" x="732.12" y="-49.3" font-family="Times,serif" font-size="14.00">graphviz</text>
</g>
<!-- erdot&#45;&gt;graphviz -->
<g id="edge4" class="edge">
<title>erdot&#45;&gt;graphviz</title>
<path fill="none" stroke="black" d="M608.89,-68.66C627.78,-66.24 651.81,-63.16 673.56,-60.37"/>
<polygon fill="black" stroke="black" points="674.22,-63.82 683.69,-59.08 673.33,-56.88 674.22,-63.82"/>
<text text-anchor="middle" x="645.27" y="-68.8" font-family="Times,serif" font-size="14.00">*.dot</text>
</g>
<!-- erd&#45;&gt;empty2 -->
<g id="edge7" class="edge">
<title>erd&#45;&gt;empty2</title>
<path fill="none" stroke="black" d="M601.07,-16.48C622.45,-14.54 653.54,-12.03 680.77,-11 760.51,-7.99 854.06,-12.48 904.25,-15.55"/>
<polygon fill="black" stroke="black" points="904.08,-19.04 914.28,-16.18 904.52,-12.06 904.08,-19.04"/>
<text text-anchor="middle" x="732.12" y="-14.8" font-family="Times,serif" font-size="14.00">*.jpg *.png ...</text>
</g>
<!-- erd&#45;&gt;graphviz -->
<g id="edge5" class="edge">
<title>erd&#45;&gt;graphviz</title>
<path fill="none" stroke="black" d="M600.1,-24.46C621.12,-29.04 651.83,-35.73 678.24,-41.48"/>
<polygon fill="black" stroke="black" points="677.61,-44.93 688.12,-43.64 679.1,-38.09 677.61,-44.93"/>
<text text-anchor="middle" x="645.27" y="-41.8" font-family="Times,serif" font-size="14.00">*.dot</text>
</g>
<!-- graphviz&#45;&gt;empty2 -->
<g id="edge8" class="edge">
<title>graphviz&#45;&gt;empty2</title>
<path fill="none" stroke="black" d="M778.62,-45.32C816.65,-38.9 870.11,-29.87 905.02,-23.98"/>
<polygon fill="black" stroke="black" points="905.94,-27.38 915.22,-22.26 904.78,-20.47 905.94,-27.38"/>
<text text-anchor="middle" x="848.96" y="-43.8" font-family="Times,serif" font-size="14.00">*.jpg *.png ...</text>
</g>
</g>
</svg>
