<?xml version="1.0" encoding="UTF-8" standalone="no"?>
<!DOCTYPE svg PUBLIC "-//W3C//DTD SVG 1.1//EN"
 "http://www.w3.org/Graphics/SVG/1.1/DTD/svg11.dtd">
<!-- Generated by graphviz version 2.43.0 (0)
 -->
<!-- Title: 我在這裡，你在哪裡？ Pages: 1 -->
<svg width="937pt" height="198pt"
 viewBox="0.00 0.00 937.05 198.46" xmlns="http://www.w3.org/2000/svg" xmlns:xlink="http://www.w3.org/1999/xlink">
<g id="graph0" class="graph" transform="scale(1 1) rotate(0) translate(4 194.46)">
<title>我在這裡，你在哪裡？</title>
<polygon fill="white" stroke="transparent" points="-4,4 -4,-194.46 933.05,-194.46 933.05,4 -4,4"/>
<text text-anchor="middle" x="464.52" y="-7.8" font-family="Times,serif" font-size="14.00">iahway 的經緯度座標及其他資訊流向</text>
<!-- gpslogger -->
<g id="node1" class="node">
<title>gpslogger</title>
<ellipse fill="none" stroke="black" cx="92.29" cy="-157" rx="57.39" ry="18"/>
<text text-anchor="middle" x="92.29" y="-153.3" font-family="Times,serif" font-size="14.00">gpslogger</text>
</g>
<!-- apache2 -->
<g id="node6" class="node">
<title>apache2</title>
<ellipse fill="none" stroke="black" cx="422.98" cy="-130" rx="49.29" ry="18"/>
<text text-anchor="middle" x="422.98" y="-126.3" font-family="Times,serif" font-size="14.00">apache2</text>
</g>
<!-- gpslogger&#45;&gt;apache2 -->
<g id="edge1" class="edge">
<title>gpslogger&#45;&gt;apache2</title>
<path fill="none" stroke="black" d="M147.94,-152.51C207.82,-147.59 303.45,-139.74 364.45,-134.73"/>
<polygon fill="black" stroke="black" points="365,-138.19 374.68,-133.89 364.42,-131.22 365,-138.19"/>
<text text-anchor="middle" x="279.08" y="-151.8" font-family="Times,serif" font-size="14.00">「記錄到自定義 URL」</text>
</g>
<!-- log_php -->
<g id="node2" class="node">
<title>log_php</title>
<ellipse fill="none" stroke="black" cx="92.29" cy="-103" rx="92.08" ry="18"/>
<text text-anchor="middle" x="92.29" y="-99.3" font-family="Times,serif" font-size="14.00">log.php [空的網頁]</text>
</g>
<!-- log_php&#45;&gt;apache2 -->
<g id="edge2" class="edge">
<title>log_php&#45;&gt;apache2</title>
<path fill="none" stroke="black" stroke-dasharray="5,2" d="M177.51,-109.92C236.18,-114.74 312.88,-121.04 364.6,-125.29"/>
<polygon fill="black" stroke="black" points="364.34,-128.78 374.59,-126.11 364.91,-121.8 364.34,-128.78"/>
</g>
<!-- query_php -->
<g id="node3" class="node">
<title>query_php</title>
<ellipse fill="none" stroke="black" cx="872.5" cy="-145" rx="56.59" ry="18"/>
<text text-anchor="middle" x="872.5" y="-141.3" font-family="Times,serif" font-size="14.00">query.php</text>
</g>
<!-- query_php&#45;&gt;apache2 -->
<g id="edge6" class="edge">
<title>query_php&#45;&gt;apache2</title>
<path fill="none" stroke="black" d="M837.46,-159.34C820.26,-165.83 798.86,-172.76 778.96,-176 652.18,-196.67 613.52,-196.55 490.37,-160 480.74,-157.14 470.7,-153.17 461.42,-149.05"/>
<polygon fill="black" stroke="black" points="462.63,-145.75 452.09,-144.74 459.7,-152.11 462.63,-145.75"/>
</g>
<!-- access_log -->
<g id="node4" class="node">
<title>access_log</title>
<ellipse fill="none" stroke="black" cx="686.67" cy="-149" rx="57.69" ry="18"/>
<text text-anchor="middle" x="686.67" y="-145.3" font-family="Times,serif" font-size="14.00">access.log</text>
</g>
<!-- access_iahway_log -->
<g id="node5" class="node">
<title>access_iahway_log</title>
<ellipse fill="none" stroke="black" cx="686.67" cy="-95" rx="92.08" ry="18"/>
<text text-anchor="middle" x="686.67" y="-91.3" font-family="Times,serif" font-size="14.00">access&#45;iahway.log</text>
</g>
<!-- access_iahway_log&#45;&gt;query_php -->
<g id="edge5" class="edge">
<title>access_iahway_log&#45;&gt;query_php</title>
<path fill="none" stroke="black" d="M741.33,-109.6C765.83,-116.26 794.74,-124.12 819.09,-130.74"/>
<polygon fill="black" stroke="black" points="818.3,-134.16 828.86,-133.4 820.13,-127.4 818.3,-134.16"/>
</g>
<!-- apache2&#45;&gt;access_log -->
<g id="edge3" class="edge">
<title>apache2&#45;&gt;access_log</title>
<path fill="none" stroke="black" stroke-dasharray="5,2" d="M471.67,-133.46C513.2,-136.48 573.81,-140.88 619.93,-144.23"/>
<polygon fill="black" stroke="black" points="619.91,-147.73 630.13,-144.97 620.41,-140.75 619.91,-147.73"/>
<text text-anchor="middle" x="533.37" y="-144.8" font-family="Times,serif" font-size="14.00">logging</text>
</g>
<!-- apache2&#45;&gt;access_iahway_log -->
<g id="edge4" class="edge">
<title>apache2&#45;&gt;access_iahway_log</title>
<path fill="none" stroke="black" d="M466.39,-121.16C474.34,-119.66 482.6,-118.2 490.37,-117 523.84,-111.85 560.7,-107.38 593.3,-103.85"/>
<polygon fill="black" stroke="black" points="593.71,-107.33 603.28,-102.78 592.96,-100.37 593.71,-107.33"/>
<text text-anchor="middle" x="533.37" y="-120.8" font-family="Times,serif" font-size="14.00">logging</text>
</g>
<!-- umap -->
<g id="node7" class="node">
<title>umap</title>
<ellipse fill="none" stroke="black" cx="686.67" cy="-41" rx="36.29" ry="18"/>
<text text-anchor="middle" x="686.67" y="-37.3" font-family="Times,serif" font-size="14.00">umap</text>
</g>
<!-- apache2&#45;&gt;umap -->
<g id="edge7" class="edge">
<title>apache2&#45;&gt;umap</title>
<path fill="none" stroke="black" d="M445.05,-113.67C457.61,-104.64 474.2,-93.89 490.37,-87 539.89,-65.89 600.8,-53.5 641.29,-47"/>
<polygon fill="black" stroke="black" points="642.04,-50.43 651.38,-45.43 640.97,-43.51 642.04,-50.43"/>
<text text-anchor="middle" x="533.37" y="-90.8" font-family="Times,serif" font-size="14.00">「遠端資料」</text>
</g>
</g>
</svg>
