<?xml version="1.0" encoding="UTF-8" standalone="no"?>
<!DOCTYPE svg PUBLIC "-//W3C//DTD SVG 1.1//EN"
 "http://www.w3.org/Graphics/SVG/1.1/DTD/svg11.dtd">
<!-- Generated by graphviz version 2.43.0 (0)
 -->
<!-- Title: 一個意見的形成， 背後的幾個因素 Pages: 1 -->
<svg width="720pt" height="205pt"
 viewBox="0.00 0.00 719.87 205.35" xmlns="http://www.w3.org/2000/svg" xmlns:xlink="http://www.w3.org/1999/xlink">
<g id="graph0" class="graph" transform="scale(1 1) rotate(0) translate(4 201.35)">
<title>一個意見的形成， 背後的幾個因素</title>
<polygon fill="white" stroke="transparent" points="-4,4 -4,-201.35 715.87,-201.35 715.87,4 -4,4"/>
<text text-anchor="middle" x="355.93" y="-182.15" font-family="Times,serif" font-size="14.00">一個意見的形成， 背後的幾個因素</text>
<!-- belief -->
<g id="node1" class="node">
<title>belief</title>
<ellipse fill="none" stroke="black" cx="232.58" cy="-117.87" rx="65.11" ry="26.74"/>
<text text-anchor="middle" x="232.58" y="-121.67" font-family="Times,serif" font-size="14.00">belief</text>
<text text-anchor="middle" x="232.58" y="-106.67" font-family="Times,serif" font-size="14.00">信仰/價值觀</text>
</g>
<!-- perspective -->
<g id="node3" class="node">
<title>perspective</title>
<ellipse fill="none" stroke="black" cx="455.96" cy="-54.87" rx="70.92" ry="26.74"/>
<text text-anchor="middle" x="455.96" y="-58.67" font-family="Times,serif" font-size="14.00">perspective</text>
<text text-anchor="middle" x="455.96" y="-43.67" font-family="Times,serif" font-size="14.00">觀點</text>
</g>
<!-- belief&#45;&gt;perspective -->
<g id="edge1" class="edge">
<title>belief&#45;&gt;perspective</title>
<path fill="none" stroke="black" d="M286.6,-102.78C317.32,-94.04 356.26,-82.96 388.96,-73.65"/>
<polygon fill="black" stroke="black" points="390.23,-76.93 398.89,-70.83 388.31,-70.2 390.23,-76.93"/>
</g>
<!-- knowledge -->
<g id="node6" class="node">
<title>knowledge</title>
<ellipse fill="none" stroke="black" cx="455.96" cy="-136.87" rx="122.16" ry="37.45"/>
<text text-anchor="middle" x="455.96" y="-148.17" font-family="Times,serif" font-size="14.00">knowledge</text>
<text text-anchor="middle" x="455.96" y="-133.17" font-family="Times,serif" font-size="14.00">知識</text>
<text text-anchor="middle" x="455.96" y="-118.17" font-family="Times,serif" font-size="14.00">(事實? 錯假訊息? 成見?)</text>
</g>
<!-- belief&#45;&gt;knowledge -->
<g id="edge2" class="edge">
<title>belief&#45;&gt;knowledge</title>
<path fill="none" stroke="black" stroke-dasharray="5,2" d="M296.42,-123.26C306.41,-124.12 317.03,-125.03 327.87,-125.96"/>
<polygon fill="black" stroke="black" points="327.61,-129.45 337.88,-126.82 328.21,-122.48 327.61,-129.45"/>
</g>
<!-- standpoint -->
<g id="node2" class="node">
<title>standpoint</title>
<ellipse fill="none" stroke="black" cx="65.76" cy="-26.87" rx="65.52" ry="26.74"/>
<text text-anchor="middle" x="65.76" y="-30.67" font-family="Times,serif" font-size="14.00">standpoint</text>
<text text-anchor="middle" x="65.76" y="-15.67" font-family="Times,serif" font-size="14.00">立場</text>
</g>
<!-- intention -->
<g id="node5" class="node">
<title>intention</title>
<ellipse fill="none" stroke="black" cx="232.58" cy="-26.87" rx="57.05" ry="26.74"/>
<text text-anchor="middle" x="232.58" y="-30.67" font-family="Times,serif" font-size="14.00">intention</text>
<text text-anchor="middle" x="232.58" y="-15.67" font-family="Times,serif" font-size="14.00">意圖</text>
</g>
<!-- standpoint&#45;&gt;intention -->
<g id="edge4" class="edge">
<title>standpoint&#45;&gt;intention</title>
<path fill="none" stroke="black" d="M131.9,-26.87C142.74,-26.87 154,-26.87 164.88,-26.87"/>
<polygon fill="black" stroke="black" points="165.17,-30.37 175.17,-26.87 165.17,-23.37 165.17,-30.37"/>
</g>
<!-- opinion -->
<g id="node4" class="node">
<title>opinion</title>
<ellipse fill="none" stroke="black" cx="663.08" cy="-54.87" rx="48.58" ry="26.74"/>
<text text-anchor="middle" x="663.08" y="-58.67" font-family="Times,serif" font-size="14.00">opinion</text>
<text text-anchor="middle" x="663.08" y="-43.67" font-family="Times,serif" font-size="14.00">意見</text>
</g>
<!-- perspective&#45;&gt;opinion -->
<g id="edge5" class="edge">
<title>perspective&#45;&gt;opinion</title>
<path fill="none" stroke="black" d="M526.69,-54.87C551.89,-54.87 580.05,-54.87 604.13,-54.87"/>
<polygon fill="black" stroke="black" points="604.19,-58.37 614.19,-54.87 604.19,-51.37 604.19,-58.37"/>
</g>
<!-- intention&#45;&gt;perspective -->
<g id="edge3" class="edge">
<title>intention&#45;&gt;perspective</title>
<path fill="none" stroke="black" d="M288.02,-33.76C315.28,-37.2 348.74,-41.44 378.52,-45.2"/>
<polygon fill="black" stroke="black" points="378.11,-48.68 388.47,-46.46 378.99,-41.73 378.11,-48.68"/>
</g>
<!-- intention&#45;&gt;opinion -->
<g id="edge7" class="edge">
<title>intention&#45;&gt;opinion</title>
<path fill="none" stroke="black" d="M286.96,-17.28C355.35,-7.96 476.91,2.96 578.49,-17.89 592.1,-20.7 606.07,-25.74 618.72,-31.2"/>
<path fill="none" stroke="red" d="M287.23,-19.26C355.53,-9.96 477.09,0.97 578.09,-19.85 591.42,-22.58 605.4,-27.62 617.92,-33.04"/>
<polygon fill="black" stroke="black" points="617.09,-35.4 627.64,-36.33 619.97,-29.03 617.09,-35.4"/>
</g>
<!-- knowledge&#45;&gt;opinion -->
<g id="edge6" class="edge">
<title>knowledge&#45;&gt;opinion</title>
<path fill="none" stroke="black" d="M534.5,-108.05C549.09,-102.46 564.19,-96.57 578.29,-90.87 590.22,-86.05 603.02,-80.66 614.93,-75.55"/>
<polygon fill="black" stroke="black" points="616.47,-78.7 624.27,-71.53 613.7,-72.27 616.47,-78.7"/>
</g>
</g>
</svg>
