<?xml version="1.0" encoding="UTF-8" standalone="no"?>
<!DOCTYPE svg PUBLIC "-//W3C//DTD SVG 1.1//EN"
 "http://www.w3.org/Graphics/SVG/1.1/DTD/svg11.dtd">
<!-- Generated by graphviz version 2.43.0 (0)
 -->
<!-- Title: 一個意見背後的幾個因素 Pages: 1 -->
<svg width="720pt" height="232pt"
 viewBox="0.00 0.00 719.87 232.35" xmlns="http://www.w3.org/2000/svg" xmlns:xlink="http://www.w3.org/1999/xlink">
<g id="graph0" class="graph" transform="scale(1 1) rotate(0) translate(4 228.35)">
<title>一個意見背後的幾個因素</title>
<polygon fill="white" stroke="transparent" points="-4,4 -4,-228.35 715.87,-228.35 715.87,4 -4,4"/>
<text text-anchor="middle" x="355.93" y="-209.15" font-family="Times,serif" font-size="14.00">一個意見背後的幾個因素</text>
<!-- belief -->
<g id="node1" class="node">
<title>belief</title>
<ellipse fill="none" stroke="black" cx="232.58" cy="-174.48" rx="65.11" ry="26.74"/>
<text text-anchor="middle" x="232.58" y="-178.28" font-family="Times,serif" font-size="14.00">belief</text>
<text text-anchor="middle" x="232.58" y="-163.28" font-family="Times,serif" font-size="14.00">信仰/價值觀</text>
</g>
<!-- perspective -->
<g id="node3" class="node">
<title>perspective</title>
<ellipse fill="none" stroke="black" cx="455.96" cy="-157.48" rx="70.92" ry="26.74"/>
<text text-anchor="middle" x="455.96" y="-161.28" font-family="Times,serif" font-size="14.00">perspective</text>
<text text-anchor="middle" x="455.96" y="-146.28" font-family="Times,serif" font-size="14.00">觀點</text>
</g>
<!-- belief&#45;&gt;perspective -->
<g id="edge1" class="edge">
<title>belief&#45;&gt;perspective</title>
<path fill="none" stroke="black" d="M296.72,-169.63C321.43,-167.73 350.04,-165.53 376.08,-163.53"/>
<polygon fill="black" stroke="black" points="376.6,-167 386.3,-162.75 376.06,-160.02 376.6,-167"/>
</g>
<!-- standpoint -->
<g id="node2" class="node">
<title>standpoint</title>
<ellipse fill="none" stroke="black" cx="65.76" cy="-102.48" rx="65.52" ry="26.74"/>
<text text-anchor="middle" x="65.76" y="-106.28" font-family="Times,serif" font-size="14.00">standpoint</text>
<text text-anchor="middle" x="65.76" y="-91.28" font-family="Times,serif" font-size="14.00">立場</text>
</g>
<!-- intention -->
<g id="node5" class="node">
<title>intention</title>
<ellipse fill="none" stroke="black" cx="232.58" cy="-102.48" rx="57.05" ry="26.74"/>
<text text-anchor="middle" x="232.58" y="-106.28" font-family="Times,serif" font-size="14.00">intention</text>
<text text-anchor="middle" x="232.58" y="-91.28" font-family="Times,serif" font-size="14.00">意圖</text>
</g>
<!-- standpoint&#45;&gt;intention -->
<g id="edge3" class="edge">
<title>standpoint&#45;&gt;intention</title>
<path fill="none" stroke="black" d="M131.9,-102.48C142.74,-102.48 154,-102.48 164.88,-102.48"/>
<polygon fill="black" stroke="black" points="165.17,-105.98 175.17,-102.48 165.17,-98.98 165.17,-105.98"/>
</g>
<!-- opinion -->
<g id="node4" class="node">
<title>opinion</title>
<ellipse fill="none" stroke="black" cx="663.08" cy="-102.48" rx="48.58" ry="26.74"/>
<text text-anchor="middle" x="663.08" y="-106.28" font-family="Times,serif" font-size="14.00">opinion</text>
<text text-anchor="middle" x="663.08" y="-91.28" font-family="Times,serif" font-size="14.00">意見</text>
</g>
<!-- perspective&#45;&gt;opinion -->
<g id="edge4" class="edge">
<title>perspective&#45;&gt;opinion</title>
<path fill="none" stroke="black" d="M514.1,-142.16C543.79,-134.19 579.84,-124.53 608.93,-116.73"/>
<polygon fill="black" stroke="black" points="610.15,-120.02 618.91,-114.05 608.34,-113.26 610.15,-120.02"/>
</g>
<!-- intention&#45;&gt;perspective -->
<g id="edge2" class="edge">
<title>intention&#45;&gt;perspective</title>
<path fill="none" stroke="black" d="M283.53,-114.89C313.81,-122.41 352.88,-132.12 386.06,-140.36"/>
<polygon fill="black" stroke="black" points="385.61,-143.85 396.16,-142.87 387.3,-137.06 385.61,-143.85"/>
</g>
<!-- intention&#45;&gt;opinion -->
<g id="edge6" class="edge">
<title>intention&#45;&gt;opinion</title>
<path fill="none" stroke="black" d="M290.04,-101.48C371.54,-101.48 521.42,-101.48 603.89,-101.48"/>
<path fill="none" stroke="red" d="M290.04,-103.48C371.54,-103.48 521.42,-103.48 603.89,-103.48"/>
<polygon fill="black" stroke="black" points="604.09,-105.98 614.09,-102.48 604.09,-98.98 604.09,-105.98"/>
</g>
<!-- knowledge -->
<g id="node6" class="node">
<title>knowledge</title>
<ellipse fill="none" stroke="black" cx="455.96" cy="-37.48" rx="122.16" ry="37.45"/>
<text text-anchor="middle" x="455.96" y="-48.78" font-family="Times,serif" font-size="14.00">knowledge</text>
<text text-anchor="middle" x="455.96" y="-33.78" font-family="Times,serif" font-size="14.00">知識</text>
<text text-anchor="middle" x="455.96" y="-18.78" font-family="Times,serif" font-size="14.00">(事實? 錯假訊息? 成見?)</text>
</g>
<!-- knowledge&#45;&gt;opinion -->
<g id="edge5" class="edge">
<title>knowledge&#45;&gt;opinion</title>
<path fill="none" stroke="black" d="M541.57,-64.29C565.01,-71.72 589.74,-79.55 610.65,-86.18"/>
<polygon fill="black" stroke="black" points="609.69,-89.55 620.28,-89.23 611.8,-82.87 609.69,-89.55"/>
</g>
</g>
</svg>
