<?xml version="1.0" encoding="UTF-8" standalone="no"?>
<!DOCTYPE svg PUBLIC "-//W3C//DTD SVG 1.1//EN"
 "http://www.w3.org/Graphics/SVG/1.1/DTD/svg11.dtd">
<!-- Generated by graphviz version 2.43.0 (0)
 -->
<!-- Title: 一個意見的形成， 背後的幾個因素 Pages: 1 -->
<svg width="652pt" height="199pt"
 viewBox="0.00 0.00 651.99 199.06" xmlns="http://www.w3.org/2000/svg" xmlns:xlink="http://www.w3.org/1999/xlink">
<g id="graph0" class="graph" transform="scale(1 1) rotate(0) translate(4 195.06)">
<title>一個意見的形成， 背後的幾個因素</title>
<polygon fill="white" stroke="transparent" points="-4,4 -4,-195.06 647.99,-195.06 647.99,4 -4,4"/>
<text text-anchor="middle" x="321.99" y="-175.86" font-family="Times,serif" font-size="14.00">一個意見的形成， 背後的幾個因素</text>
<!-- belief -->
<g id="node1" class="node">
<title>belief</title>
<ellipse fill="none" stroke="black" cx="164.69" cy="-59.87" rx="65.11" ry="26.74"/>
<text text-anchor="middle" x="164.69" y="-63.67" font-family="Times,serif" font-size="14.00">belief</text>
<text text-anchor="middle" x="164.69" y="-48.67" font-family="Times,serif" font-size="14.00">信仰/價值觀</text>
</g>
<!-- perspective -->
<g id="node3" class="node">
<title>perspective</title>
<ellipse fill="none" stroke="black" cx="388.08" cy="-26.87" rx="70.92" ry="26.74"/>
<text text-anchor="middle" x="388.08" y="-30.67" font-family="Times,serif" font-size="14.00">perspective</text>
<text text-anchor="middle" x="388.08" y="-15.67" font-family="Times,serif" font-size="14.00">觀點</text>
</g>
<!-- belief&#45;&gt;perspective -->
<g id="edge1" class="edge">
<title>belief&#45;&gt;perspective</title>
<path fill="none" stroke="black" d="M226.19,-50.85C252.64,-46.91 283.95,-42.24 311.88,-38.08"/>
<polygon fill="black" stroke="black" points="312.63,-41.51 322,-36.57 311.59,-34.58 312.63,-41.51"/>
</g>
<!-- obj_statement -->
<g id="node6" class="node">
<title>obj_statement</title>
<ellipse fill="none" stroke="black" cx="388.08" cy="-108.87" rx="122.16" ry="37.45"/>
<text text-anchor="middle" x="388.08" y="-120.17" font-family="Times,serif" font-size="14.00">objective statement</text>
<text text-anchor="middle" x="388.08" y="-105.17" font-family="Times,serif" font-size="14.00">客觀陳述</text>
<text text-anchor="middle" x="388.08" y="-90.17" font-family="Times,serif" font-size="14.00">(事實? 錯假訊息? 成見?)</text>
</g>
<!-- belief&#45;&gt;obj_statement -->
<g id="edge2" class="edge">
<title>belief&#45;&gt;obj_statement</title>
<path fill="none" stroke="black" stroke-dasharray="5,2" d="M222.42,-72.43C239.62,-76.23 259.13,-80.55 278.55,-84.85"/>
<polygon fill="black" stroke="black" points="277.86,-88.28 288.38,-87.02 279.37,-81.45 277.86,-88.28"/>
</g>
<!-- role -->
<g id="node2" class="node">
<title>role</title>
<ellipse fill="none" stroke="black" cx="31.82" cy="-67.87" rx="31.64" ry="26.74"/>
<text text-anchor="middle" x="31.82" y="-71.67" font-family="Times,serif" font-size="14.00">role</text>
<text text-anchor="middle" x="31.82" y="-56.67" font-family="Times,serif" font-size="14.00">角色</text>
</g>
<!-- role&#45;&gt;perspective -->
<g id="edge7" class="edge">
<title>role&#45;&gt;perspective</title>
<path fill="none" stroke="black" stroke-dasharray="5,2" d="M54.64,-48.78C66.95,-39.29 83.14,-28.81 99.64,-23.87 170.02,-2.78 254.52,-6.94 313.62,-14.28"/>
<polygon fill="black" stroke="black" points="313.25,-17.76 323.62,-15.59 314.15,-10.82 313.25,-17.76"/>
</g>
<!-- intention -->
<g id="node5" class="node">
<title>intention</title>
<ellipse fill="none" stroke="black" cx="164.69" cy="-131.87" rx="57.05" ry="26.74"/>
<text text-anchor="middle" x="164.69" y="-135.67" font-family="Times,serif" font-size="14.00">intention</text>
<text text-anchor="middle" x="164.69" y="-120.67" font-family="Times,serif" font-size="14.00">意圖</text>
</g>
<!-- role&#45;&gt;intention -->
<g id="edge4" class="edge">
<title>role&#45;&gt;intention</title>
<path fill="none" stroke="black" d="M59.62,-80.98C75.69,-88.83 96.59,-99.06 115.45,-108.28"/>
<polygon fill="black" stroke="black" points="113.99,-111.46 124.51,-112.71 117.07,-105.17 113.99,-111.46"/>
</g>
<!-- opinion -->
<g id="node4" class="node">
<title>opinion</title>
<ellipse fill="none" stroke="black" cx="595.2" cy="-108.87" rx="48.58" ry="26.74"/>
<text text-anchor="middle" x="595.2" y="-112.67" font-family="Times,serif" font-size="14.00">opinion</text>
<text text-anchor="middle" x="595.2" y="-97.67" font-family="Times,serif" font-size="14.00">意見</text>
</g>
<!-- perspective&#45;&gt;opinion -->
<g id="edge5" class="edge">
<title>perspective&#45;&gt;opinion</title>
<path fill="none" stroke="black" d="M447.66,-41.52C467.87,-47.29 490.43,-54.54 510.41,-62.87 524.72,-68.84 539.74,-76.58 553.06,-84"/>
<polygon fill="black" stroke="black" points="551.55,-87.17 561.97,-89.07 555,-81.08 551.55,-87.17"/>
</g>
<!-- intention&#45;&gt;perspective -->
<g id="edge3" class="edge">
<title>intention&#45;&gt;perspective</title>
<path fill="none" stroke="black" d="M203.69,-111.27C212.3,-106.34 221.27,-100.78 229.16,-95.06 246.33,-83.18 245.86,-73.61 265.25,-62 280.65,-53.29 298.19,-46.54 315.18,-41.32"/>
<path fill="none" stroke="red" d="M204.68,-113C213.36,-108.04 222.32,-102.48 230.33,-96.68 248.32,-83.09 247.86,-73.52 266.24,-63.74 281.37,-55.16 298.91,-48.41 315.76,-43.23"/>
<polygon fill="black" stroke="black" points="316.72,-45.55 325.34,-39.39 314.76,-38.84 316.72,-45.55"/>
</g>
<!-- intention&#45;&gt;opinion -->
<g id="edge8" class="edge">
<title>intention&#45;&gt;opinion</title>
<path fill="none" stroke="black" d="M215.33,-143.78C283.02,-159.28 408.03,-180.18 510.16,-153.9 525.66,-149.94 541.57,-142.3 555.18,-134.42"/>
<path fill="none" stroke="red" d="M214.89,-145.73C282.69,-161.26 407.7,-182.15 510.65,-155.84 526.53,-151.75 542.44,-144.1 556.18,-136.15"/>
<polygon fill="black" stroke="black" points="557.57,-138.24 564.33,-130.08 553.95,-132.24 557.57,-138.24"/>
</g>
<!-- intention&#45;&gt;obj_statement -->
<g id="edge9" class="edge">
<title>intention&#45;&gt;obj_statement</title>
<path fill="none" stroke="black" d="M220.6,-125.16C233.29,-123.84 247.31,-122.39 261.66,-120.89"/>
<path fill="none" stroke="red" d="M220.81,-127.15C233.5,-125.83 247.51,-124.37 261.86,-122.88"/>
<polygon fill="black" stroke="black" points="262.15,-125.37 271.73,-120.85 261.43,-118.41 262.15,-125.37"/>
</g>
<!-- obj_statement&#45;&gt;opinion -->
<g id="edge6" class="edge">
<title>obj_statement&#45;&gt;opinion</title>
<path fill="none" stroke="black" d="M510.47,-108.87C519.35,-108.87 528.04,-108.87 536.25,-108.87"/>
<polygon fill="black" stroke="black" points="536.37,-112.37 546.37,-108.87 536.37,-105.37 536.37,-112.37"/>
</g>
</g>
</svg>
