<?xml version="1.0" encoding="UTF-8" standalone="no"?>
<!DOCTYPE svg PUBLIC "-//W3C//DTD SVG 1.1//EN"
 "http://www.w3.org/Graphics/SVG/1.1/DTD/svg11.dtd">
<!-- Generated by graphviz version 2.43.0 (0)
 -->
<!-- Title: 一個意見的形成， 背後的幾個因素 Pages: 1 -->
<svg width="720pt" height="199pt"
 viewBox="0.00 0.00 719.87 199.06" xmlns="http://www.w3.org/2000/svg" xmlns:xlink="http://www.w3.org/1999/xlink">
<g id="graph0" class="graph" transform="scale(1 1) rotate(0) translate(4 195.06)">
<title>一個意見的形成， 背後的幾個因素</title>
<polygon fill="white" stroke="transparent" points="-4,4 -4,-195.06 715.87,-195.06 715.87,4 -4,4"/>
<text text-anchor="middle" x="355.93" y="-175.86" font-family="Times,serif" font-size="14.00">一個意見的形成， 背後的幾個因素</text>
<!-- belief -->
<g id="node1" class="node">
<title>belief</title>
<ellipse fill="none" stroke="black" cx="232.58" cy="-59.87" rx="65.11" ry="26.74"/>
<text text-anchor="middle" x="232.58" y="-63.67" font-family="Times,serif" font-size="14.00">belief</text>
<text text-anchor="middle" x="232.58" y="-48.67" font-family="Times,serif" font-size="14.00">信仰/價值觀</text>
</g>
<!-- perspective -->
<g id="node3" class="node">
<title>perspective</title>
<ellipse fill="none" stroke="black" cx="455.96" cy="-26.87" rx="70.92" ry="26.74"/>
<text text-anchor="middle" x="455.96" y="-30.67" font-family="Times,serif" font-size="14.00">perspective</text>
<text text-anchor="middle" x="455.96" y="-15.67" font-family="Times,serif" font-size="14.00">觀點</text>
</g>
<!-- belief&#45;&gt;perspective -->
<g id="edge1" class="edge">
<title>belief&#45;&gt;perspective</title>
<path fill="none" stroke="black" d="M294.07,-50.85C320.52,-46.91 351.83,-42.24 379.76,-38.08"/>
<polygon fill="black" stroke="black" points="380.51,-41.51 389.88,-36.57 379.48,-34.58 380.51,-41.51"/>
</g>
<!-- obj_statement -->
<g id="node6" class="node">
<title>obj_statement</title>
<ellipse fill="none" stroke="black" cx="455.96" cy="-108.87" rx="122.16" ry="37.45"/>
<text text-anchor="middle" x="455.96" y="-120.17" font-family="Times,serif" font-size="14.00">objective statement</text>
<text text-anchor="middle" x="455.96" y="-105.17" font-family="Times,serif" font-size="14.00">客觀陳述</text>
<text text-anchor="middle" x="455.96" y="-90.17" font-family="Times,serif" font-size="14.00">(事實? 錯假訊息? 成見?)</text>
</g>
<!-- belief&#45;&gt;obj_statement -->
<g id="edge2" class="edge">
<title>belief&#45;&gt;obj_statement</title>
<path fill="none" stroke="black" stroke-dasharray="5,2" d="M290.3,-72.43C307.51,-76.23 327.02,-80.55 346.44,-84.85"/>
<polygon fill="black" stroke="black" points="345.74,-88.28 356.26,-87.02 347.25,-81.45 345.74,-88.28"/>
</g>
<!-- standpoint -->
<g id="node2" class="node">
<title>standpoint</title>
<ellipse fill="none" stroke="black" cx="65.76" cy="-67.87" rx="65.52" ry="26.74"/>
<text text-anchor="middle" x="65.76" y="-71.67" font-family="Times,serif" font-size="14.00">standpoint</text>
<text text-anchor="middle" x="65.76" y="-56.67" font-family="Times,serif" font-size="14.00">立場</text>
</g>
<!-- standpoint&#45;&gt;perspective -->
<g id="edge7" class="edge">
<title>standpoint&#45;&gt;perspective</title>
<path fill="none" stroke="black" stroke-dasharray="5,2" d="M105.71,-46.38C123.91,-37.53 146.22,-28.32 167.52,-23.87 237.92,-9.17 320.13,-11.97 378.56,-17.23"/>
<polygon fill="black" stroke="black" points="378.53,-20.74 388.82,-18.2 379.19,-13.77 378.53,-20.74"/>
</g>
<!-- intention -->
<g id="node5" class="node">
<title>intention</title>
<ellipse fill="none" stroke="black" cx="232.58" cy="-131.87" rx="57.05" ry="26.74"/>
<text text-anchor="middle" x="232.58" y="-135.67" font-family="Times,serif" font-size="14.00">intention</text>
<text text-anchor="middle" x="232.58" y="-120.67" font-family="Times,serif" font-size="14.00">意圖</text>
</g>
<!-- standpoint&#45;&gt;intention -->
<g id="edge4" class="edge">
<title>standpoint&#45;&gt;intention</title>
<path fill="none" stroke="black" d="M113.99,-86.21C134.2,-94.06 157.88,-103.25 178.68,-111.33"/>
<polygon fill="black" stroke="black" points="177.42,-114.6 188.01,-114.95 179.95,-108.07 177.42,-114.6"/>
</g>
<!-- opinion -->
<g id="node4" class="node">
<title>opinion</title>
<ellipse fill="none" stroke="black" cx="663.08" cy="-108.87" rx="48.58" ry="26.74"/>
<text text-anchor="middle" x="663.08" y="-112.67" font-family="Times,serif" font-size="14.00">opinion</text>
<text text-anchor="middle" x="663.08" y="-97.67" font-family="Times,serif" font-size="14.00">意見</text>
</g>
<!-- perspective&#45;&gt;opinion -->
<g id="edge5" class="edge">
<title>perspective&#45;&gt;opinion</title>
<path fill="none" stroke="black" d="M515.54,-41.52C535.75,-47.29 558.31,-54.54 578.29,-62.87 592.6,-68.84 607.63,-76.58 620.94,-84"/>
<polygon fill="black" stroke="black" points="619.43,-87.17 629.85,-89.07 622.89,-81.08 619.43,-87.17"/>
</g>
<!-- intention&#45;&gt;perspective -->
<g id="edge3" class="edge">
<title>intention&#45;&gt;perspective</title>
<path fill="none" stroke="black" d="M272.06,-112.13C280.71,-107.19 289.68,-101.63 297.63,-95.87 315.21,-83.14 314.74,-73.56 333.63,-62.87 348.89,-54.23 366.44,-47.47 383.35,-42.27"/>
<polygon fill="black" stroke="black" points="384.6,-45.55 393.22,-39.39 382.64,-38.84 384.6,-45.55"/>
</g>
<!-- intention&#45;&gt;opinion -->
<g id="edge8" class="edge">
<title>intention&#45;&gt;opinion</title>
<path fill="none" stroke="black" d="M283.21,-143.78C350.91,-159.28 475.91,-180.18 578.04,-153.9 593.55,-149.94 609.46,-142.3 623.06,-134.42"/>
<path fill="none" stroke="red" d="M282.77,-145.73C350.58,-161.26 475.58,-182.15 578.54,-155.84 594.41,-151.75 610.32,-144.1 624.07,-136.15"/>
<polygon fill="black" stroke="black" points="625.45,-138.24 632.21,-130.08 621.84,-132.24 625.45,-138.24"/>
</g>
<!-- intention&#45;&gt;obj_statement -->
<g id="edge9" class="edge">
<title>intention&#45;&gt;obj_statement</title>
<path fill="none" stroke="black" d="M288.48,-125.16C301.17,-123.84 315.19,-122.39 329.54,-120.89"/>
<path fill="none" stroke="red" d="M288.69,-127.15C301.38,-125.83 315.4,-124.37 329.74,-122.88"/>
<polygon fill="black" stroke="black" points="330.03,-125.37 339.62,-120.85 329.31,-118.41 330.03,-125.37"/>
</g>
<!-- obj_statement&#45;&gt;opinion -->
<g id="edge6" class="edge">
<title>obj_statement&#45;&gt;opinion</title>
<path fill="none" stroke="black" d="M578.35,-108.87C587.23,-108.87 595.92,-108.87 604.13,-108.87"/>
<polygon fill="black" stroke="black" points="604.26,-112.37 614.26,-108.87 604.26,-105.37 604.26,-112.37"/>
</g>
</g>
</svg>
