<?xml version="1.0" encoding="UTF-8" standalone="no"?>
<!DOCTYPE svg PUBLIC "-//W3C//DTD SVG 1.1//EN"
 "http://www.w3.org/Graphics/SVG/1.1/DTD/svg11.dtd">
<!-- Generated by graphviz version 2.42.4 (0)
 -->
<!-- Title: 一個意見的形成， 背後的幾個因素 Pages: 1 -->
<svg width="828pt" height="195pt"
 viewBox="0.00 0.00 827.99 194.74" xmlns="http://www.w3.org/2000/svg" xmlns:xlink="http://www.w3.org/1999/xlink">
<g id="graph0" class="graph" transform="scale(1 1) rotate(0) translate(4 190.74)">
<title>一個意見的形成， 背後的幾個因素</title>
<polygon fill="white" stroke="transparent" points="-4,4 -4,-190.74 823.99,-190.74 823.99,4 -4,4"/>
<text text-anchor="middle" x="410" y="-171.54" font-family="Times,serif" font-size="14.00">一個意見的形成， 背後的幾個因素</text>
<!-- belief -->
<g id="node1" class="node">
<title>belief</title>
<ellipse fill="none" stroke="black" cx="164.69" cy="-26.87" rx="65.11" ry="26.74"/>
<text text-anchor="middle" x="164.69" y="-30.67" font-family="Times,serif" font-size="14.00">belief</text>
<text text-anchor="middle" x="164.69" y="-15.67" font-family="Times,serif" font-size="14.00">信仰/價值觀</text>
</g>
<!-- perspective -->
<g id="node3" class="node">
<title>perspective</title>
<ellipse fill="none" stroke="black" cx="336.46" cy="-81.87" rx="70.92" ry="26.74"/>
<text text-anchor="middle" x="336.46" y="-85.67" font-family="Times,serif" font-size="14.00">perspective</text>
<text text-anchor="middle" x="336.46" y="-70.67" font-family="Times,serif" font-size="14.00">觀點</text>
</g>
<!-- belief&#45;&gt;perspective -->
<g id="edge1" class="edge">
<title>belief&#45;&gt;perspective</title>
<path fill="none" stroke="black" d="M216.63,-43.37C234.18,-49.06 254.05,-55.5 272.45,-61.46"/>
<polygon fill="black" stroke="black" points="271.61,-64.86 282.2,-64.62 273.77,-58.2 271.61,-64.86"/>
</g>
<!-- obj_statement -->
<g id="node6" class="node">
<title>obj_statement</title>
<ellipse fill="none" stroke="black" cx="564.79" cy="-60.87" rx="121.74" ry="48.17"/>
<text text-anchor="middle" x="564.79" y="-79.67" font-family="Times,serif" font-size="14.00">objective statement</text>
<text text-anchor="middle" x="564.79" y="-64.67" font-family="Times,serif" font-size="14.00">客觀陳述</text>
<text text-anchor="middle" x="564.79" y="-49.67" font-family="Times,serif" font-size="14.00">(事實? 錯假訊息? 成見? </text>
<text text-anchor="middle" x="564.79" y="-34.67" font-family="Times,serif" font-size="14.00">謠傳? 被轉移的話題?)</text>
</g>
<!-- belief&#45;&gt;obj_statement -->
<g id="edge2" class="edge">
<title>belief&#45;&gt;obj_statement</title>
<path fill="none" stroke="black" stroke-dasharray="5,2" d="M228.76,-31.54C277.5,-35.22 346.63,-40.59 407.17,-45.87 416.76,-46.71 426.68,-47.6 436.66,-48.51"/>
<polygon fill="black" stroke="black" points="436.36,-52 446.64,-49.43 437.01,-45.03 436.36,-52"/>
</g>
<!-- role -->
<g id="node2" class="node">
<title>role</title>
<ellipse fill="none" stroke="black" cx="31.82" cy="-108.87" rx="31.64" ry="26.74"/>
<text text-anchor="middle" x="31.82" y="-112.67" font-family="Times,serif" font-size="14.00">role</text>
<text text-anchor="middle" x="31.82" y="-97.67" font-family="Times,serif" font-size="14.00">角色</text>
</g>
<!-- role&#45;&gt;perspective -->
<g id="edge7" class="edge">
<title>role&#45;&gt;perspective</title>
<path fill="none" stroke="black" stroke-dasharray="5,2" d="M63.4,-104.96C74.77,-103.57 87.78,-102.06 99.64,-100.87 151.88,-95.64 210.75,-90.9 256.6,-87.46"/>
<polygon fill="black" stroke="black" points="257.06,-90.93 266.77,-86.7 256.54,-83.95 257.06,-90.93"/>
</g>
<!-- intention -->
<g id="node5" class="node">
<title>intention</title>
<ellipse fill="none" stroke="black" cx="164.69" cy="-136.87" rx="57.05" ry="26.74"/>
<text text-anchor="middle" x="164.69" y="-140.67" font-family="Times,serif" font-size="14.00">intention</text>
<text text-anchor="middle" x="164.69" y="-125.67" font-family="Times,serif" font-size="14.00">意圖</text>
</g>
<!-- role&#45;&gt;intention -->
<g id="edge4" class="edge">
<title>role&#45;&gt;intention</title>
<path fill="none" stroke="black" d="M62.84,-115.29C74.63,-117.81 88.6,-120.8 102.33,-123.74"/>
<polygon fill="black" stroke="black" points="101.74,-127.19 112.25,-125.86 103.21,-120.35 101.74,-127.19"/>
</g>
<!-- perspective&#45;&gt;obj_statement -->
<g id="edge5" class="edge">
<title>perspective&#45;&gt;obj_statement</title>
<path fill="none" stroke="black" d="M405.37,-75.57C415.13,-74.66 425.44,-73.71 435.92,-72.73"/>
<polygon fill="black" stroke="black" points="436.37,-76.21 446.01,-71.8 435.73,-69.24 436.37,-76.21"/>
</g>
<!-- opinion -->
<g id="node4" class="node">
<title>opinion</title>
<ellipse fill="none" stroke="black" cx="771.2" cy="-98.87" rx="48.58" ry="26.74"/>
<text text-anchor="middle" x="771.2" y="-102.67" font-family="Times,serif" font-size="14.00">opinion</text>
<text text-anchor="middle" x="771.2" y="-87.67" font-family="Times,serif" font-size="14.00">意見</text>
</g>
<!-- intention&#45;&gt;perspective -->
<g id="edge3" class="edge">
<title>intention&#45;&gt;perspective</title>
<path fill="none" stroke="black" d="M212.22,-120.74C230.78,-114.73 252.39,-107.73 272.27,-101.29"/>
<path fill="none" stroke="red" d="M212.84,-122.65C231.4,-116.64 253.01,-109.63 272.89,-103.19"/>
<polygon fill="black" stroke="black" points="273.75,-105.54 282.18,-99.13 271.59,-98.88 273.75,-105.54"/>
</g>
<!-- intention&#45;&gt;opinion -->
<g id="edge8" class="edge">
<title>intention&#45;&gt;opinion</title>
<path fill="none" stroke="black" d="M222.25,-137.24C318.14,-138.81 518.67,-138.75 686.28,-116.88 696.22,-115.58 706.76,-113.65 716.85,-111.51"/>
<path fill="none" stroke="red" d="M222.21,-139.24C318.14,-140.81 518.67,-140.75 686.54,-118.86 696.58,-117.55 707.12,-115.61 717.26,-113.46"/>
<polygon fill="black" stroke="black" points="717.98,-115.86 726.99,-110.29 716.47,-109.03 717.98,-115.86"/>
</g>
<!-- obj_statement&#45;&gt;opinion -->
<g id="edge6" class="edge">
<title>obj_statement&#45;&gt;opinion</title>
<path fill="none" stroke="black" d="M675.18,-81.21C688.82,-83.74 702.3,-86.25 714.62,-88.54"/>
<polygon fill="black" stroke="black" points="714.21,-92.02 724.68,-90.41 715.49,-85.14 714.21,-92.02"/>
</g>
</g>
</svg>
