<?xml version="1.0" encoding="UTF-8" standalone="no"?>
<!DOCTYPE svg PUBLIC "-//W3C//DTD SVG 1.1//EN"
 "http://www.w3.org/Graphics/SVG/1.1/DTD/svg11.dtd">
<!-- Generated by graphviz version 2.43.0 (0)
 -->
<!-- Title: 一個意見的形成， 背後的幾個因素 Pages: 1 -->
<svg width="651pt" height="228pt"
 viewBox="0.00 0.00 650.57 228.17" xmlns="http://www.w3.org/2000/svg" xmlns:xlink="http://www.w3.org/1999/xlink">
<g id="graph0" class="graph" transform="scale(1 1) rotate(0) translate(4 224.17)">
<title>一個意見的形成， 背後的幾個因素</title>
<polygon fill="white" stroke="transparent" points="-4,4 -4,-224.17 646.57,-224.17 646.57,4 -4,4"/>
<text text-anchor="middle" x="321.29" y="-204.97" font-family="Times,serif" font-size="14.00">一個意見的形成， 背後的幾個因素</text>
<!-- belief -->
<g id="node1" class="node">
<title>belief</title>
<ellipse fill="none" stroke="black" cx="164.69" cy="-64.87" rx="65.11" ry="26.74"/>
<text text-anchor="middle" x="164.69" y="-68.67" font-family="Times,serif" font-size="14.00">belief</text>
<text text-anchor="middle" x="164.69" y="-53.67" font-family="Times,serif" font-size="14.00">信仰/價值觀</text>
</g>
<!-- perspective -->
<g id="node3" class="node">
<title>perspective</title>
<ellipse fill="none" stroke="black" cx="387.37" cy="-26.87" rx="70.92" ry="26.74"/>
<text text-anchor="middle" x="387.37" y="-30.67" font-family="Times,serif" font-size="14.00">perspective</text>
<text text-anchor="middle" x="387.37" y="-15.67" font-family="Times,serif" font-size="14.00">觀點</text>
</g>
<!-- belief&#45;&gt;perspective -->
<g id="edge1" class="edge">
<title>belief&#45;&gt;perspective</title>
<path fill="none" stroke="black" d="M225.12,-54.64C252.07,-50 284.21,-44.46 312.68,-39.56"/>
<polygon fill="black" stroke="black" points="313.32,-43 322.58,-37.85 312.13,-36.1 313.32,-43"/>
</g>
<!-- obj_statement -->
<g id="node6" class="node">
<title>obj_statement</title>
<ellipse fill="none" stroke="black" cx="387.37" cy="-119.87" rx="121.74" ry="48.17"/>
<text text-anchor="middle" x="387.37" y="-138.67" font-family="Times,serif" font-size="14.00">objective statement</text>
<text text-anchor="middle" x="387.37" y="-123.67" font-family="Times,serif" font-size="14.00">客觀陳述</text>
<text text-anchor="middle" x="387.37" y="-108.67" font-family="Times,serif" font-size="14.00">(事實? 錯假訊息? 成見? </text>
<text text-anchor="middle" x="387.37" y="-93.67" font-family="Times,serif" font-size="14.00">謠傳? 被轉移的話題?)</text>
</g>
<!-- belief&#45;&gt;obj_statement -->
<g id="edge2" class="edge">
<title>belief&#45;&gt;obj_statement</title>
<path fill="none" stroke="black" stroke-dasharray="5,2" d="M220.81,-78.61C237.04,-82.65 255.42,-87.23 273.88,-91.83"/>
<polygon fill="black" stroke="black" points="273.28,-95.29 283.83,-94.31 274.98,-88.5 273.28,-95.29"/>
</g>
<!-- role -->
<g id="node2" class="node">
<title>role</title>
<ellipse fill="none" stroke="black" cx="31.82" cy="-72.87" rx="31.64" ry="26.74"/>
<text text-anchor="middle" x="31.82" y="-76.67" font-family="Times,serif" font-size="14.00">role</text>
<text text-anchor="middle" x="31.82" y="-61.67" font-family="Times,serif" font-size="14.00">角色</text>
</g>
<!-- role&#45;&gt;perspective -->
<g id="edge7" class="edge">
<title>role&#45;&gt;perspective</title>
<path fill="none" stroke="black" stroke-dasharray="5,2" d="M54.65,-53.83C66.97,-44.35 83.16,-33.87 99.64,-28.87 169.1,-7.79 252.46,-10.08 311.34,-15.95"/>
<polygon fill="black" stroke="black" points="311,-19.43 321.31,-17 311.73,-12.47 311,-19.43"/>
</g>
<!-- intention -->
<g id="node5" class="node">
<title>intention</title>
<ellipse fill="none" stroke="black" cx="164.69" cy="-136.87" rx="57.05" ry="26.74"/>
<text text-anchor="middle" x="164.69" y="-140.67" font-family="Times,serif" font-size="14.00">intention</text>
<text text-anchor="middle" x="164.69" y="-125.67" font-family="Times,serif" font-size="14.00">意圖</text>
</g>
<!-- role&#45;&gt;intention -->
<g id="edge4" class="edge">
<title>role&#45;&gt;intention</title>
<path fill="none" stroke="black" d="M59.62,-85.98C75.69,-93.83 96.59,-104.06 115.45,-113.28"/>
<polygon fill="black" stroke="black" points="113.99,-116.46 124.51,-117.71 117.07,-110.17 113.99,-116.46"/>
</g>
<!-- opinion -->
<g id="node4" class="node">
<title>opinion</title>
<ellipse fill="none" stroke="black" cx="593.78" cy="-119.87" rx="48.58" ry="26.74"/>
<text text-anchor="middle" x="593.78" y="-123.67" font-family="Times,serif" font-size="14.00">opinion</text>
<text text-anchor="middle" x="593.78" y="-108.67" font-family="Times,serif" font-size="14.00">意見</text>
</g>
<!-- perspective&#45;&gt;opinion -->
<g id="edge5" class="edge">
<title>perspective&#45;&gt;opinion</title>
<path fill="none" stroke="black" d="M448.01,-40.75C467.89,-46.4 489.85,-53.77 508.99,-62.87 525.6,-70.76 542.61,-81.71 556.92,-91.9"/>
<polygon fill="black" stroke="black" points="554.87,-94.74 565.02,-97.78 558.99,-89.07 554.87,-94.74"/>
</g>
<!-- intention&#45;&gt;perspective -->
<g id="edge3" class="edge">
<title>intention&#45;&gt;perspective</title>
<path fill="none" stroke="black" d="M203.99,-116.67C212.58,-111.73 221.46,-106.07 229.13,-100.08 247.11,-86.75 244.95,-75.24 265.22,-62.02 280.08,-52.9 297.2,-46.01 313.91,-40.78"/>
<path fill="none" stroke="red" d="M204.99,-118.41C213.66,-113.42 222.54,-107.75 230.36,-101.66 249.08,-86.38 246.91,-74.87 266.27,-63.72 280.83,-54.76 297.94,-47.87 314.51,-42.69"/>
<polygon fill="black" stroke="black" points="315.33,-45.05 323.93,-38.86 313.35,-38.34 315.33,-45.05"/>
</g>
<!-- intention&#45;&gt;opinion -->
<g id="edge8" class="edge">
<title>intention&#45;&gt;opinion</title>
<path fill="none" stroke="black" d="M204.97,-155.5C223.03,-163.53 245.16,-171.9 265.94,-175.89 372.23,-196.36 405.99,-207.73 508.7,-175.91 526.74,-170.4 544.59,-159.27 559.02,-148.39"/>
<path fill="none" stroke="red" d="M204.16,-157.33C222.32,-165.4 244.45,-173.77 265.56,-177.85 371.59,-198.25 405.35,-209.63 509.29,-177.83 527.79,-172.09 545.65,-160.97 560.23,-149.98"/>
<polygon fill="black" stroke="black" points="562.05,-151.74 567.76,-142.81 557.73,-146.23 562.05,-151.74"/>
</g>
<!-- intention&#45;&gt;obj_statement -->
<g id="edge9" class="edge">
<title>intention&#45;&gt;obj_statement</title>
<path fill="none" stroke="black" d="M221.3,-131.58C232.59,-130.71 244.89,-129.77 257.53,-128.79"/>
<path fill="none" stroke="red" d="M221.46,-133.58C232.74,-132.71 245.04,-131.76 257.68,-130.79"/>
<polygon fill="black" stroke="black" points="258.09,-133.26 267.8,-129 257.56,-126.28 258.09,-133.26"/>
</g>
<!-- obj_statement&#45;&gt;opinion -->
<g id="edge6" class="edge">
<title>obj_statement&#45;&gt;opinion</title>
<path fill="none" stroke="black" d="M509.05,-119.87C517.92,-119.87 526.6,-119.87 534.81,-119.87"/>
<polygon fill="black" stroke="black" points="534.94,-123.37 544.94,-119.87 534.94,-116.37 534.94,-123.37"/>
</g>
</g>
</svg>
