<?xml version="1.0" encoding="UTF-8" standalone="no"?>
<!-- Created with Inkscape (http://www.inkscape.org/) -->

<svg
   xmlns:dc="http://purl.org/dc/elements/1.1/"
   xmlns:cc="http://creativecommons.org/ns#"
   xmlns:rdf="http://www.w3.org/1999/02/22-rdf-syntax-ns#"
   xmlns:svg="http://www.w3.org/2000/svg"
   xmlns="http://www.w3.org/2000/svg"
   xmlns:xlink="http://www.w3.org/1999/xlink"
   xmlns:sodipodi="http://sodipodi.sourceforge.net/DTD/sodipodi-0.dtd"
   xmlns:inkscape="http://www.inkscape.org/namespaces/inkscape"
   width="400"
   height="400"
   id="svg2"
   version="1.1"
   inkscape:version="0.48.1 r9760"
   sodipodi:docname="homomorphic.svg"
   inkscape:export-filename="/home/ckhung/public_html/m/11/homomorphic.png"
   inkscape:export-xdpi="90"
   inkscape:export-ydpi="90">
  <defs
     id="defs4">
    <marker
       inkscape:stockid="Arrow1Lend"
       orient="auto"
       refY="0.0"
       refX="0.0"
       id="Arrow1Lend"
       style="overflow:visible;">
      <path
         id="path3789"
         d="M 0.0,0.0 L 5.0,-5.0 L -12.5,0.0 L 5.0,5.0 L 0.0,0.0 z "
         style="fill-rule:evenodd;stroke:#000000;stroke-width:1.0pt;marker-start:none;"
         transform="scale(0.8) rotate(180) translate(12.5,0)" />
    </marker>
    <linearGradient
       y2="-436.83109"
       x2="288.89954"
       y1="-441.23294"
       x1="284.80219"
       gradientUnits="userSpaceOnUse"
       id="linearGradient3509"
       xlink:href="#linearGradient6538"
       inkscape:collect="always" />
    <linearGradient
       y2="-436.83109"
       x2="288.89954"
       y1="-441.23294"
       x1="284.80219"
       gradientUnits="userSpaceOnUse"
       id="linearGradient3501"
       xlink:href="#linearGradient6538"
       inkscape:collect="always" />
    <linearGradient
       y2="-436.32199"
       x2="289.67633"
       y1="-439.75281"
       x1="287.5173"
       gradientUnits="userSpaceOnUse"
       id="linearGradient3493"
       xlink:href="#linearGradient6497"
       inkscape:collect="always" />
    <linearGradient
       y2="-431.91833"
       x2="279.97546"
       y1="-437.10501"
       x1="275.94193"
       gradientTransform="translate(-0.1422968,-0.569187)"
       gradientUnits="userSpaceOnUse"
       id="linearGradient3485"
       xlink:href="#linearGradient6527"
       inkscape:collect="always" />
    <linearGradient
       y2="-431.91833"
       x2="279.97546"
       y1="-437.10501"
       x1="275.94193"
       gradientTransform="translate(-0.1422968,-0.569187)"
       gradientUnits="userSpaceOnUse"
       id="linearGradient3477"
       xlink:href="#linearGradient6527"
       inkscape:collect="always" />
    <linearGradient
       y2="-436.4429"
       x2="289.39124"
       y1="-439.939"
       x1="285.94086"
       gradientUnits="userSpaceOnUse"
       id="linearGradient3469"
       xlink:href="#linearGradient6538"
       inkscape:collect="always" />
    <linearGradient
       y2="-436.14453"
       x2="289.85379"
       y1="-441.29074"
       x1="286.51172"
       gradientUnits="userSpaceOnUse"
       id="linearGradient3461"
       xlink:href="#linearGradient6513"
       inkscape:collect="always" />
    <linearGradient
       y2="-436.83109"
       x2="288.89954"
       y1="-441.23294"
       x1="284.80219"
       gradientUnits="userSpaceOnUse"
       id="linearGradient3453"
       xlink:href="#linearGradient6538"
       inkscape:collect="always" />
    <linearGradient
       y2="-436.14453"
       x2="289.85379"
       y1="-441.29074"
       x1="286.51172"
       gradientUnits="userSpaceOnUse"
       id="linearGradient3445"
       xlink:href="#linearGradient6513"
       inkscape:collect="always" />
    <linearGradient
       gradientTransform="translate(-0.1422968,-0.569187)"
       y2="-431.91833"
       x2="279.97546"
       y1="-437.10501"
       x1="275.94193"
       gradientUnits="userSpaceOnUse"
       id="linearGradient3437"
       xlink:href="#linearGradient6527"
       inkscape:collect="always" />
    <linearGradient
       gradientUnits="userSpaceOnUse"
       y2="-442.10974"
       x2="268.49991"
       y1="-426.69427"
       x1="288.74301"
       id="linearGradient3429"
       xlink:href="#linearGradient3423"
       inkscape:collect="always" />
    <linearGradient
       id="linearGradient4026">
      <stop
         style="stop-color: rgb(255, 249, 198); stop-opacity: 1;"
         offset="0"
         id="stop4028" />
      <stop
         id="stop4042"
         offset="0.54166669"
         style="stop-color: rgb(255, 242, 140); stop-opacity: 1;" />
      <stop
         style="stop-color: rgb(255, 234, 133); stop-opacity: 1;"
         offset="1"
         id="stop4030" />
    </linearGradient>
    <linearGradient
       id="linearGradient4032">
      <stop
         style="stop-color: rgb(255, 247, 194); stop-opacity: 0.638298;"
         offset="0"
         id="stop4034" />
      <stop
         id="stop4036"
         offset="0.59394139"
         style="stop-color: rgb(252, 175, 62); stop-opacity: 0.183486;" />
      <stop
         style="stop-color: rgb(252, 175, 62); stop-opacity: 0.504587;"
         offset="0.83850551"
         id="stop4038" />
      <stop
         style="stop-color: rgb(252, 175, 62); stop-opacity: 1;"
         offset="1"
         id="stop4040" />
    </linearGradient>
    <linearGradient
       id="linearGradient4083">
      <stop
         style="stop-color: rgb(255, 255, 255); stop-opacity: 0;"
         offset="0"
         id="stop4085" />
      <stop
         id="stop4089"
         offset="0.75"
         style="stop-color: rgb(255, 255, 255); stop-opacity: 0;" />
      <stop
         style="stop-color: rgb(255, 255, 255); stop-opacity: 1;"
         offset="1"
         id="stop4087" />
    </linearGradient>
    <linearGradient
       id="linearGradient6470"
       inkscape:collect="always">
      <stop
         id="stop6472"
         offset="0"
         style="stop-color: rgb(255, 255, 255); stop-opacity: 1;" />
      <stop
         id="stop6474"
         offset="1"
         style="stop-color: rgb(255, 255, 255); stop-opacity: 0;" />
    </linearGradient>
    <linearGradient
       id="linearGradient6497"
       inkscape:collect="always">
      <stop
         id="stop6499"
         offset="0"
         style="stop-color: rgb(255, 255, 255); stop-opacity: 1;" />
      <stop
         id="stop6501"
         offset="1"
         style="stop-color: rgb(255, 255, 255); stop-opacity: 0;" />
    </linearGradient>
    <linearGradient
       id="linearGradient6513"
       inkscape:collect="always">
      <stop
         id="stop6515"
         offset="0"
         style="stop-color: rgb(255, 255, 255); stop-opacity: 1;" />
      <stop
         id="stop6517"
         offset="1"
         style="stop-color: rgb(255, 255, 255); stop-opacity: 0;" />
    </linearGradient>
    <linearGradient
       id="linearGradient6538"
       inkscape:collect="always">
      <stop
         id="stop6540"
         offset="0"
         style="stop-color: rgb(255, 255, 255); stop-opacity: 1;" />
      <stop
         id="stop6542"
         offset="1"
         style="stop-color: rgb(255, 255, 255); stop-opacity: 0;" />
    </linearGradient>
    <linearGradient
       id="linearGradient6527"
       inkscape:collect="always">
      <stop
         id="stop6530"
         offset="0"
         style="stop-color: rgb(255, 255, 255); stop-opacity: 1;" />
      <stop
         id="stop6532"
         offset="1"
         style="stop-color: rgb(255, 255, 255); stop-opacity: 0;" />
    </linearGradient>
    <linearGradient
       id="linearGradient6549"
       inkscape:collect="always">
      <stop
         id="stop6551"
         offset="0"
         style="stop-color: rgb(255, 255, 255); stop-opacity: 1;" />
      <stop
         id="stop6553"
         offset="1"
         style="stop-color: rgb(255, 255, 255); stop-opacity: 0;" />
    </linearGradient>
    <linearGradient
       y2="-431.96991"
       x2="285.02859"
       y1="-441.05182"
       x1="271.0217"
       gradientUnits="userSpaceOnUse"
       id="linearGradient6712"
       xlink:href="#linearGradient6470"
       inkscape:collect="always" />
    <linearGradient
       y2="-436.32199"
       x2="289.67633"
       y1="-439.75281"
       x1="287.5173"
       gradientUnits="userSpaceOnUse"
       id="linearGradient6714"
       xlink:href="#linearGradient6497"
       inkscape:collect="always" />
    <linearGradient
       y2="-436.14453"
       x2="289.85379"
       y1="-441.29074"
       x1="286.51172"
       gradientUnits="userSpaceOnUse"
       id="linearGradient6716"
       xlink:href="#linearGradient6513"
       inkscape:collect="always" />
    <linearGradient
       y2="-436.4429"
       x2="289.39124"
       y1="-439.939"
       x1="285.94086"
       gradientUnits="userSpaceOnUse"
       id="linearGradient6718"
       xlink:href="#linearGradient6538"
       inkscape:collect="always" />
    <linearGradient
       y2="-431.91833"
       x2="279.97546"
       y1="-437.10501"
       x1="275.94193"
       gradientUnits="userSpaceOnUse"
       id="linearGradient6720"
       xlink:href="#linearGradient6527"
       inkscape:collect="always" />
    <linearGradient
       y2="-436.70703"
       x2="289.76562"
       y1="-439.48358"
       x1="286.66589"
       gradientUnits="userSpaceOnUse"
       id="linearGradient6722"
       xlink:href="#linearGradient6549"
       inkscape:collect="always" />
    <linearGradient
       y2="-436.83109"
       x2="288.89954"
       y1="-441.23294"
       x1="284.80219"
       gradientUnits="userSpaceOnUse"
       id="linearGradient6724"
       xlink:href="#linearGradient6538"
       inkscape:collect="always" />
    <inkscape:perspective
       id="perspective108"
       inkscape:persp3d-origin="24 : 16 : 1"
       inkscape:vp_z="48 : 24 : 1"
       inkscape:vp_y="0 : 1000 : 0"
       inkscape:vp_x="0 : 24 : 1"
       sodipodi:type="inkscape:persp3d" />
    <linearGradient
       id="linearGradient3423">
      <stop
         id="stop3425"
         offset="0"
         style="stop-color:#c4c5c2;stop-opacity:1;" />
      <stop
         id="stop3427"
         offset="1"
         style="stop-color:#ffffff;stop-opacity:1;" />
    </linearGradient>
  </defs>
  <sodipodi:namedview
     id="base"
     pagecolor="#ffffff"
     bordercolor="#666666"
     borderopacity="1.0"
     inkscape:pageopacity="1"
     inkscape:pageshadow="2"
     inkscape:zoom="1"
     inkscape:cx="218.08725"
     inkscape:cy="227.64667"
     inkscape:document-units="px"
     inkscape:current-layer="layer1"
     showgrid="false"
     inkscape:window-width="1016"
     inkscape:window-height="717"
     inkscape:window-x="0"
     inkscape:window-y="0"
     inkscape:window-maximized="1" />
  <metadata
     id="metadata7">
    <rdf:RDF>
      <cc:Work
         rdf:about="">
        <dc:format>image/svg+xml</dc:format>
        <dc:type
           rdf:resource="http://purl.org/dc/dcmitype/StillImage" />
        <dc:title />
      </cc:Work>
    </rdf:RDF>
  </metadata>
  <g
     inkscape:label="Layer 1"
     inkscape:groupmode="layer"
     id="layer1"
     transform="translate(0,-652.36218)">
    <g
       transform="matrix(9.5007864,0,0,11.462387,112.25063,730.86701)"
       inkscape:label="Layer 1"
       id="layer1-8">
      <g
         id="g3936" />
      <g
         transform="translate(-265.14056,447.46829)"
         id="g2481">
        <path
           inkscape:connector-curvature="0"
           sodipodi:nodetypes="ccssccscscscsscc"
           id="path2483"
           d="m 280.49281,-445.60876 c -2.27083,0 -4.10991,1.55028 -4.71875,3.625 -0.69323,-0.36383 -1.44451,-0.625 -2.28125,-0.625 -2.76,0 -5.00001,2.23999 -5,5 0,0.57893 0.16252,1.1077 0.34375,1.625 -5.4635,4.95793 -0.4573,12.46846 5.46875,9.875 0.60884,2.07472 2.44792,3.625 4.71875,3.625 2.27083,0 4.10991,-1.55028 4.71875,-3.625 0.69323,0.36383 1.44451,0.625 2.28125,0.625 1.70049,0 3.22157,-0.82665 4.125,-2.125 2.41037,-0.0839 4.34375,-2.06928 4.34375,-4.5 0,-1.686 -0.97028,-3.10426 -2.34375,-3.875 0.18124,-0.51729 0.34375,-1.04608 0.34375,-1.625 0,-2.76 -2.24,-4.99999 -5,-5 -0.83674,0 -1.58802,0.26117 -2.28125,0.625 -0.60884,-2.07472 -2.44792,-3.625 -4.71875,-3.625 z"
           style="fill:#c4c5c2;fill-opacity:1;stroke:#888a85;stroke-width:1.89999998;stroke-linecap:butt;stroke-linejoin:miter;stroke-miterlimit:2;stroke-opacity:1;stroke-dasharray:none;stroke-dashoffset:0" />
        <path
           inkscape:connector-curvature="0"
           sodipodi:nodetypes="ccsscscscscscsscc"
           id="path3421"
           d="m 280.49281,-445.60876 c -2.27083,0 -4.10991,1.55028 -4.71875,3.625 -0.69323,-0.36383 -1.44451,-0.625 -2.28125,-0.625 -2.76,0 -5.00001,2.23999 -5,5 0,0.57893 0.16252,1.1077 0.34375,1.625 -4.66713,4.84309 -1.53424,10.48884 3.26566,10.45657 0.70818,-0.005 1.59058,0.10781 2.34539,-0.24954 0.60884,2.07472 2.68508,3.10324 4.95591,3.10324 2.27083,0 3.73045,-1.36055 4.33929,-3.43527 0.69323,0.36383 1.44451,0.625 2.28125,0.625 1.70049,0 3.22158,-0.82665 4.125,-2.125 2.41037,-0.0839 4.34375,-2.06928 4.34375,-4.5 0,-1.686 -0.97028,-3.10426 -2.34375,-3.875 0.18124,-0.51729 0.34375,-1.04608 0.34375,-1.625 0,-2.76 -2.24,-4.99999 -5,-5 -0.83674,0 -1.58802,0.26117 -2.28125,0.625 -0.60884,-2.07472 -2.44792,-3.625 -4.71875,-3.625 z"
           style="fill:url(#linearGradient3429);fill-opacity:1;stroke:none" />
      </g>
      <g
         id="g3471"
         transform="matrix(0.8431087,0,0,0.8431087,-228.68007,383.12709)">
        <path
           inkscape:connector-curvature="0"
           sodipodi:nodetypes="cccc"
           id="path3473"
           d="m 280.34208,-441.55218 c -3.57938,0 -6.46875,2.92063 -6.46875,6.5 0.56489,7.86549 12.10561,7.59199 12.96875,-0.0312 0,-3.57938 -2.92063,-6.46875 -6.5,-6.46875 z"
           style="fill:#c4c5c2;fill-opacity:1;stroke:none" />
        <path
           inkscape:connector-curvature="0"
           sodipodi:nodetypes="cccc"
           id="path3475"
           d="m 280.3577,-441.56919 c -3.588,0 -6.5,2.91201 -6.5,6.5 0.53456,7.89285 12.138,7.64545 13,0 0,-3.588 -2.912,-6.49999 -6.5,-6.5 z"
           style="fill:url(#linearGradient3477);fill-opacity:1;stroke:none" />
      </g>
      <g
         transform="translate(-272.80099,442.94177)"
         id="g6668">
        <g
           transform="translate(8.006368,3.8993882)"
           id="g3439">
          <path
             transform="matrix(1.0566,0,0,1.0566,-17.1981,24.8632)"
             d="m 291.6875,-437.59375 c 0,1.82944 -1.48306,3.3125 -3.3125,3.3125 -1.82944,0 -3.3125,-1.48306 -3.3125,-3.3125 0,-1.82944 1.48306,-3.3125 3.3125,-3.3125 1.82944,0 3.3125,1.48306 3.3125,3.3125 z"
             sodipodi:ry="3.3125"
             sodipodi:rx="3.3125"
             sodipodi:cy="-437.59375"
             sodipodi:cx="288.375"
             id="path3441"
             style="fill:#c4c5c2;fill-opacity:1;stroke:none"
             sodipodi:type="arc" />
          <path
             transform="matrix(1.0566,0,0,1.0566,-17.1982,24.8633)"
             d="m 291.6875,-437.59375 c 0,1.82944 -1.48306,3.3125 -3.3125,3.3125 -1.82944,0 -3.3125,-1.48306 -3.3125,-3.3125 0,-1.82944 1.48306,-3.3125 3.3125,-3.3125 1.82944,0 3.3125,1.48306 3.3125,3.3125 z"
             sodipodi:ry="3.3125"
             sodipodi:rx="3.3125"
             sodipodi:cy="-437.59375"
             sodipodi:cx="288.375"
             id="path3443"
             style="fill:url(#linearGradient3445);fill-opacity:1;stroke:none"
             sodipodi:type="arc" />
        </g>
        <g
           id="g3447"
           transform="matrix(1.14286,0,0,1.14286,-16.48064,93.910907)" />
        <g
           transform="matrix(1.3252462,0,0,1.2778145,-94.229102,135.80671)"
           id="g3455">
          <path
             transform="matrix(1.0566,0,0,1.0566,-17.1981,24.8632)"
             d="m 291.6875,-437.59375 c 0,1.82944 -1.48306,3.3125 -3.3125,3.3125 -1.82944,0 -3.3125,-1.48306 -3.3125,-3.3125 0,-1.82944 1.48306,-3.3125 3.3125,-3.3125 1.82944,0 3.3125,1.48306 3.3125,3.3125 z"
             sodipodi:ry="3.3125"
             sodipodi:rx="3.3125"
             sodipodi:cy="-437.59375"
             sodipodi:cx="288.375"
             id="path3457"
             style="fill:#c4c5c2;fill-opacity:1;stroke:none"
             sodipodi:type="arc" />
          <path
             transform="matrix(1.0566,0,0,1.0566,-17.1982,24.8633)"
             d="m 291.6875,-437.59375 c 0,1.82944 -1.48306,3.3125 -3.3125,3.3125 -1.82944,0 -3.3125,-1.48306 -3.3125,-3.3125 0,-1.82944 1.48306,-3.3125 3.3125,-3.3125 1.82944,0 3.3125,1.48306 3.3125,3.3125 z"
             sodipodi:ry="3.3125"
             sodipodi:rx="3.3125"
             sodipodi:cy="-437.59375"
             sodipodi:cx="288.375"
             id="path3459"
             style="fill:url(#linearGradient3461);fill-opacity:1;stroke:none"
             sodipodi:type="arc" />
        </g>
        <g
           transform="translate(7.065258,3.9467712)"
           id="g3463">
          <path
             transform="matrix(1.0566,0,0,1.0566,-31.1982,24.8633)"
             d="m 291.6875,-437.59375 c 0,1.82944 -1.48306,3.3125 -3.3125,3.3125 -1.82944,0 -3.3125,-1.48306 -3.3125,-3.3125 0,-1.82944 1.48306,-3.3125 3.3125,-3.3125 1.82944,0 3.3125,1.48306 3.3125,3.3125 z"
             sodipodi:ry="3.3125"
             sodipodi:rx="3.3125"
             sodipodi:cy="-437.59375"
             sodipodi:cx="288.375"
             id="path3465"
             style="fill:#c4c5c2;fill-opacity:1;stroke:none"
             sodipodi:type="arc" />
          <path
             transform="matrix(1.0566,0,0,1.0566,-31.1982,24.8633)"
             d="m 291.6875,-437.59375 c 0,1.82944 -1.48306,3.3125 -3.3125,3.3125 -1.82944,0 -3.3125,-1.48306 -3.3125,-3.3125 0,-1.82944 1.48306,-3.3125 3.3125,-3.3125 1.82944,0 3.3125,1.48306 3.3125,3.3125 z"
             sodipodi:ry="3.3125"
             sodipodi:rx="3.3125"
             sodipodi:cy="-437.59375"
             sodipodi:cx="288.375"
             id="path3467"
             style="fill:url(#linearGradient3469);fill-opacity:1;stroke:none"
             sodipodi:type="arc" />
        </g>
        <g
           transform="translate(7.512122,3.3893522)"
           id="g3487">
          <path
             transform="matrix(1.0566,0,0,1.0566,-24.1982,21.8633)"
             d="m 291.6875,-437.59375 c 0,1.82944 -1.48306,3.3125 -3.3125,3.3125 -1.82944,0 -3.3125,-1.48306 -3.3125,-3.3125 0,-1.82944 1.48306,-3.3125 3.3125,-3.3125 1.82944,0 3.3125,1.48306 3.3125,3.3125 z"
             sodipodi:ry="3.3125"
             sodipodi:rx="3.3125"
             sodipodi:cy="-437.59375"
             sodipodi:cx="288.375"
             id="path3489"
             style="fill:#c4c5c2;fill-opacity:1;stroke:none"
             sodipodi:type="arc" />
          <path
             transform="matrix(1.0566,0,0,1.0566,-24.1982,21.8633)"
             d="m 291.6875,-437.59375 c 0,1.82944 -1.48306,3.3125 -3.3125,3.3125 -1.82944,0 -3.3125,-1.48306 -3.3125,-3.3125 0,-1.82944 1.48306,-3.3125 3.3125,-3.3125 1.82944,0 3.3125,1.48306 3.3125,3.3125 z"
             sodipodi:ry="3.3125"
             sodipodi:rx="3.3125"
             sodipodi:cy="-437.59375"
             sodipodi:cx="288.375"
             id="path3491"
             style="fill:url(#linearGradient3493);fill-opacity:1;stroke:none"
             sodipodi:type="arc" />
        </g>
      </g>
      <g
         transform="matrix(-1,0,0,-1,313.18084,-392.62661)"
         id="g2539" />
      <g
         id="g3479"
         transform="matrix(1.0923463,0,0,1.0923463,-292.27097,488.08705)">
        <path
           inkscape:connector-curvature="0"
           sodipodi:nodetypes="cccc"
           id="path3481"
           d="m 280.34208,-441.55218 c -3.57938,0 -6.46875,2.92063 -6.46875,6.5 0.56489,7.86549 12.10561,7.59199 12.96875,-0.0312 0,-3.57938 -2.92063,-6.46875 -6.5,-6.46875 z"
           style="fill:#c4c5c2;fill-opacity:1;stroke:none" />
        <path
           inkscape:connector-curvature="0"
           sodipodi:nodetypes="cccc"
           id="path3483"
           d="m 280.3577,-441.56919 c -3.588,0 -6.5,2.91201 -6.5,6.5 0.53456,7.89285 12.138,7.64545 13,0 0,-3.588 -2.912,-6.49999 -6.5,-6.5 z"
           style="fill:url(#linearGradient3485);fill-opacity:1;stroke:none" />
      </g>
      <g
         id="g3431"
         transform="translate(-260.59425,450.50904)">
        <path
           inkscape:connector-curvature="0"
           sodipodi:nodetypes="cccc"
           id="path3433"
           d="m 280.34208,-441.55218 c -3.57938,0 -6.46875,2.92063 -6.46875,6.5 0.56489,7.86549 12.10561,7.59199 12.96875,-0.0312 0,-3.57938 -2.92063,-6.46875 -6.5,-6.46875 z"
           style="fill:#c4c5c2;fill-opacity:1;stroke:none" />
        <path
           inkscape:connector-curvature="0"
           sodipodi:nodetypes="cccc"
           id="path3435"
           d="m 280.3577,-441.56919 c -3.588,0 -6.5,2.91201 -6.5,6.5 0.53456,7.89285 12.138,7.64545 13,0 0,-3.588 -2.912,-6.49999 -6.5,-6.5 z"
           style="fill:url(#linearGradient3437);fill-opacity:1;stroke:none" />
      </g>
    </g>
    <text
       xml:space="preserve"
       style="font-size:24px;font-style:normal;font-weight:bold;line-height:125%;letter-spacing:0px;word-spacing:0px;fill:#000000;fill-opacity:1;stroke:none;font-family:Sans;-inkscape-font-specification:Sans Bold"
       x="32"
       y="685.36218"
       id="text2985"
       sodipodi:linespacing="125%"><tspan
         sodipodi:role="line"
         id="tspan2987"
         x="32"
         y="685.36218">Homomorphic Encryption</tspan></text>
    <text
       xml:space="preserve"
       style="font-size:24px;font-style:normal;font-weight:normal;line-height:125%;letter-spacing:0px;word-spacing:0px;fill:#000000;fill-opacity:1;stroke:none;font-family:Sans"
       x="20"
       y="962.36218"
       id="text2989"
       sodipodi:linespacing="125%"><tspan
         sodipodi:role="line"
         id="tspan2991"
         x="20"
         y="962.36218">x: 39</tspan></text>
    <text
       xml:space="preserve"
       style="font-size:24px;font-style:normal;font-weight:normal;line-height:125%;letter-spacing:0px;word-spacing:0px;fill:#000000;fill-opacity:1;stroke:none;font-family:Sans"
       x="20"
       y="836.36218"
       id="text2993"
       sodipodi:linespacing="125%"><tspan
         sodipodi:role="line"
         id="tspan2995"
         x="20"
         y="836.36218">x: 42</tspan></text>
    <text
       xml:space="preserve"
       style="font-size:24px;font-style:normal;font-weight:normal;line-height:125%;letter-spacing:0px;word-spacing:0px;fill:#ff0000;fill-opacity:1;stroke:none;font-family:Sans"
       x="159"
       y="958.36218"
       id="text2997"
       sodipodi:linespacing="125%"><tspan
         sodipodi:role="line"
         id="tspan2999"
         x="159"
         y="958.36218">x: @Kz&amp;^%:-)+!</tspan></text>
    <text
       xml:space="preserve"
       style="font-size:24px;font-style:normal;font-weight:normal;line-height:125%;letter-spacing:0px;word-spacing:0px;fill:#ff0000;fill-opacity:1;stroke:none;font-family:Sans"
       x="159"
       y="834.36218"
       id="text3001"
       sodipodi:linespacing="125%"><tspan
         sodipodi:role="line"
         id="tspan3003"
         x="159"
         y="834.36218">x: &amp;^_^%$NJF#</tspan></text>
    <text
       xml:space="preserve"
       style="font-size:24px;font-style:normal;font-weight:normal;line-height:125%;letter-spacing:0px;word-spacing:0px;fill:#000000;fill-opacity:1;stroke:none;font-family:Sans"
       x="30"
       y="896.36218"
       id="text3005"
       sodipodi:linespacing="125%"><tspan
         sodipodi:role="line"
         id="tspan3007"
         x="30"
         y="896.36218">x+=3</tspan></text>
    <text
       xml:space="preserve"
       style="font-size:24px;font-style:normal;font-weight:normal;line-height:125%;letter-spacing:0px;word-spacing:0px;fill:#ff0000;fill-opacity:1;stroke:none;font-family:Sans"
       x="173"
       y="896.36218"
       id="text3009"
       sodipodi:linespacing="125%"><tspan
         sodipodi:role="line"
         id="tspan3011"
         x="173"
         y="896.36218">x=f(x,p8&gt;#^_*)</tspan></text>
    <path
       style="fill:none;stroke:#000000;stroke-width:1;stroke-linecap:butt;stroke-linejoin:miter;stroke-opacity:1;marker-end:url(#Arrow1Lend);stroke-miterlimit:4;stroke-dasharray:3,3;stroke-dashoffset:0"
       d="m 73,281 0,-82"
       id="path3013"
       inkscape:connector-curvature="0"
       transform="translate(0,652.36218)" />
    <path
       style="fill:none;stroke:#000000;stroke-width:1px;stroke-linecap:butt;stroke-linejoin:miter;stroke-opacity:1;marker-end:url(#Arrow1Lend)"
       d="m 229,285 -1,-88"
       id="path4227"
       inkscape:connector-curvature="0"
       transform="translate(0,652.36218)"
       sodipodi:nodetypes="cc" />
    <path
       style="fill:none;stroke:#000000;stroke-width:1px;stroke-linecap:butt;stroke-linejoin:miter;stroke-opacity:1;marker-end:url(#Arrow1Lend)"
       d="m 86,303 63,-1"
       id="path4229"
       inkscape:connector-curvature="0"
       transform="translate(0,652.36218)"
       sodipodi:nodetypes="cc" />
    <path
       style="fill:none;stroke:#000000;stroke-width:1px;stroke-linecap:butt;stroke-linejoin:miter;stroke-opacity:1;marker-end:url(#Arrow1Lend)"
       d="m 151,176 -65,0"
       id="path4231"
       inkscape:connector-curvature="0"
       transform="translate(0,652.36218)"
       sodipodi:nodetypes="cc" />
    <text
       xml:space="preserve"
       style="font-size:24px;font-style:normal;font-weight:normal;line-height:125%;letter-spacing:0px;word-spacing:0px;fill:#000000;fill-opacity:1;stroke:none;font-family:Sans"
       x="92"
       y="334"
       id="text5071"
       sodipodi:linespacing="125%"
       transform="translate(0,652.36218)"><tspan
         sodipodi:role="line"
         id="tspan5073"
         x="92"
         y="334">加密</tspan></text>
    <text
       xml:space="preserve"
       style="font-size:24px;font-style:normal;font-weight:normal;line-height:125%;letter-spacing:0px;word-spacing:0px;fill:#000000;fill-opacity:1;stroke:none;font-family:Sans"
       x="92"
       y="161"
       id="text5075"
       sodipodi:linespacing="125%"
       transform="translate(0,652.36218)"><tspan
         sodipodi:role="line"
         id="tspan5077"
         x="92"
         y="161">解密</tspan></text>
    <rect
       style="fill:none;stroke:#000000;stroke-width:2;stroke-miterlimit:4;stroke-opacity:1;stroke-dasharray:none;stroke-dashoffset:0"
       id="rect5079"
       width="38"
       height="39"
       x="47"
       y="156"
       transform="translate(0,652.36218)" />
    <rect
       style="fill:none;stroke:#000000;stroke-width:2;stroke-miterlimit:4;stroke-opacity:1;stroke-dasharray:none;stroke-dashoffset:0"
       id="rect5081"
       width="39"
       height="40"
       x="45"
       y="282"
       transform="translate(0,652.36218)" />
    <rect
       style="fill:none;stroke:#000000;stroke-width:2;stroke-miterlimit:4;stroke-opacity:1;stroke-dasharray:none;stroke-dashoffset:0"
       id="rect5083"
       width="177"
       height="40"
       x="185"
       y="276"
       transform="translate(0,652.36218)" />
    <rect
       style="fill:none;stroke:#000000;stroke-width:2;stroke-miterlimit:4;stroke-opacity:1;stroke-dasharray:none;stroke-dashoffset:0"
       id="rect5085"
       width="181"
       height="40"
       x="182"
       y="157"
       transform="translate(0,652.36218)" />
    <text
       xml:space="preserve"
       style="font-size:16px;font-style:normal;font-weight:normal;text-align:center;line-height:125%;letter-spacing:0px;word-spacing:0px;text-anchor:middle;fill:#0000ff;fill-opacity:1;stroke:none;font-family:Sans"
       x="198.26562"
       y="716.36218"
       id="text5087"
       sodipodi:linespacing="125%"><tspan
         sodipodi:role="line"
         x="198.26562"
         y="716.36218"
         id="tspan3098">&quot;雲端看不懂你的資料, 照樣可以矇著眼睛運算&quot;</tspan><tspan
         sodipodi:role="line"
         x="198.26562"
         y="735.29718"
         id="tspan3102">&quot;The cloud computes without understanding.&quot;</tspan></text>
  </g>
</svg>
