<?xml version="1.0" encoding="UTF-8" standalone="no"?>
<!-- Created with Inkscape (http://www.inkscape.org/) -->
<svg
   xmlns:dc="http://purl.org/dc/elements/1.1/"
   xmlns:cc="http://creativecommons.org/ns#"
   xmlns:rdf="http://www.w3.org/1999/02/22-rdf-syntax-ns#"
   xmlns:svg="http://www.w3.org/2000/svg"
   xmlns="http://www.w3.org/2000/svg"
   xmlns:sodipodi="http://sodipodi.sourceforge.net/DTD/sodipodi-0.dtd"
   xmlns:inkscape="http://www.inkscape.org/namespaces/inkscape"
   width="300"
   height="417"
   id="svg2"
   sodipodi:version="0.32"
   inkscape:version="0.46"
   version="1.0"
   sodipodi:docname="Keroro.i.svg"
   inkscape:output_extension="org.inkscape.output.svg.inkscape">
  <defs
     id="defs4" />
  <sodipodi:namedview
     id="base"
     pagecolor="#ffffff"
     bordercolor="#666666"
     borderopacity="1.0"
     gridtolerance="10000"
     guidetolerance="10"
     objecttolerance="10"
     inkscape:pageopacity="0.0"
     inkscape:pageshadow="2"
     inkscape:zoom="1.57"
     inkscape:cx="85.361787"
     inkscape:cy="283.07217"
     inkscape:document-units="px"
     inkscape:current-layer="layer1"
     showgrid="false"
     inkscape:window-width="1067"
     inkscape:window-height="669"
     inkscape:window-x="53"
     inkscape:window-y="51"
     showguides="true"
     inkscape:guide-bbox="true" />
  <metadata
     id="metadata7">
    <rdf:RDF>
      <cc:Work
         rdf:about="">
        <dc:format>image/svg+xml</dc:format>
        <dc:type
           rdf:resource="http://purl.org/dc/dcmitype/StillImage" />
      </cc:Work>
    </rdf:RDF>
  </metadata>
  <g
     inkscape:label="Layer 1"
     inkscape:groupmode="layer"
     id="layer1"
     transform="translate(-225,-323.86218)">
    <path
       id="path3185"
       d="M 387.33105,331.45593 C 355.20224,332.18249 322.86509,345.5739 300.98844,369.32507 C 275.89106,402.49451 248.26403,435.91876 237.10561,476.79875 C 232.62534,489.42951 243.83468,501.01588 252.48997,508.93875 C 264.53839,517.78217 278.99327,525.73361 294.32003,525.33877 C 304.2195,524.58722 314.89852,514.79373 302.26855,508.98718 C 282.58754,488.87009 274.5777,459.45377 276.68121,431.87354 C 279.97516,407.3384 292.7229,385.11848 308.79747,366.83506 C 359.56889,359.7399 412.95475,358.74695 461.4248,377.76843 C 466.65507,379.64221 469.50126,381.11922 461.7998,377.92468 C 469.91644,387.72565 476.25532,399.81704 479.51258,412.36792 C 484.288,430.18135 483.39399,449.27309 479.90529,467.25825 C 474.11306,489.9183 458.22086,509.05205 439.7373,522.83093 C 449.55823,536.18927 468.20036,534.51629 481.84998,529.03169 C 495.82696,522.96474 511.38017,514.42264 517.20874,499.50325 C 518.02435,479.76444 509.38602,460.98694 502.72374,442.71028 C 487.81547,405.23394 466.89946,367.35667 431.0682,346.26247 C 417.73586,338.63187 402.78291,332.43713 387.33105,331.45593 z"
       style="fill:#e0cc86;fill-opacity:1;fill-rule:evenodd;stroke:#000000;stroke-width:1px;stroke-linecap:butt;stroke-linejoin:miter;stroke-opacity:1" />
    <path
       style="fill:#60b35f;fill-opacity:1;fill-rule:evenodd;stroke:#000000;stroke-width:1px;stroke-linecap:butt;stroke-linejoin:miter;stroke-opacity:1"
       d="M 372,362.11218 C 350.69194,362.04174 329.45669,364.03185 308.25,366.79968 C 301.20861,377.01664 281.26937,395.71674 275.96875,434.67468 C 274.40411,518.21863 341.65604,539.29859 376.9375,539.58093 C 397.86378,541.67878 432.23446,536.73675 458.9375,504.76843 C 477.54639,482.49025 484.41537,466.43228 481.84375,423.89343 C 476.40531,395.85844 469.76809,391.52267 463.53125,379.45593 C 463.53125,379.45593 462.15865,378.42339 461.5,377.92468 C 431.43327,366.33356 401.65626,362.21021 372,362.11218 z"
       id="path3199" />
    <path
       style="fill:#f3f3f3;fill-opacity:1;fill-rule:evenodd;stroke:#000000;stroke-width:1px;stroke-linecap:butt;stroke-linejoin:miter;stroke-opacity:1"
       d="M 373.625,513.42468 C 360.48921,514.08739 353.93713,516.54302 344.8125,518.29968 C 335.30662,521.23173 325.49129,521.50927 317.53125,521.76843 C 337.53441,534.86905 360.64455,539.45055 376.9375,539.58093 C 391.05361,540.99606 411.28661,539.17836 431.15625,528.04968 C 421.2786,527.09361 410.47436,524.9757 395.875,518.92468 C 389.61422,516.88488 384.15848,514.68762 373.625,513.42468 z"
       id="path3239" />
    <path
       style="fill:#bc9a49;fill-opacity:0.91372549;fill-rule:evenodd;stroke:none;stroke-width:1px;stroke-linecap:butt;stroke-linejoin:miter;stroke-opacity:1"
       d="M 290.21875,392.08093 C 276.04236,408.44697 262.04777,432.45467 248.15625,461.92468 C 243.58059,472.20901 244.579,482.9826 244.9375,488.26843 C 250.70839,510.32232 274.28351,520.15355 302.21875,522.54968 C 305.03161,520.83682 307.35305,518.47724 309.28125,515.70593 C 309.20157,515.64029 309.11076,515.58439 309.03125,515.51843 C 308.93515,515.4387 308.84555,515.3493 308.75,515.26843 C 308.32121,514.90969 307.89266,514.54295 307.46875,514.17468 C 307.26028,513.99361 307.051,513.82682 306.84375,513.64343 C 306.46111,513.30482 306.09709,512.95876 305.71875,512.61218 C 305.48201,512.39526 305.23501,512.17599 305,511.95593 C 304.65541,511.63319 304.30948,511.28548 303.96875,510.95593 C 303.69953,510.69555 303.42298,510.43934 303.15625,510.17468 C 302.99908,510.01876 302.84379,509.86335 302.6875,509.70593 C 302.44927,509.46595 302.20489,509.23065 301.96875,508.98718 C 301.87152,508.88693 301.78274,508.77711 301.6875,508.67468 C 301.31644,508.28838 300.95942,507.88225 300.59375,507.48718 C 300.27588,507.14378 299.93866,506.806 299.625,506.45593 C 299.44135,506.25092 299.27593,506.03825 299.09375,505.83093 C 298.94775,505.66485 298.80128,505.49849 298.65625,505.33093 C 298.41866,505.05627 298.17218,504.79241 297.9375,504.51843 C 297.79972,504.35499 297.66811,504.18326 297.53125,504.01843 C 297.23398,503.66071 296.94909,503.28896 296.65625,502.92468 C 296.53595,502.7749 296.40394,502.63511 296.28125,502.48718 C 296.24912,502.44663 296.21957,502.40281 296.1875,502.36218 C 295.90746,502.00769 295.61952,501.66033 295.34375,501.29968 C 295.23562,501.15816 295.13808,501.00591 295.03125,500.86218 C 294.78186,500.53152 294.52698,500.198 294.28125,499.86218 C 293.88167,499.31632 293.48338,498.76554 293.09375,498.20593 C 293.05111,498.14468 293.01126,498.07984 292.96875,498.01843 C 292.49883,497.33972 292.0485,496.65499 291.59375,495.95593 C 291.53284,495.86231 291.46689,495.76867 291.40625,495.67468 C 291.32894,495.5548 291.2623,495.42437 291.1875,495.29968 C 291.14731,495.2367 291.10256,495.17532 291.0625,495.11218 C 290.75265,494.62381 290.42804,494.14116 290.125,493.64343 C 290.08877,493.58371 290.06737,493.51579 290.03125,493.45593 C 289.59503,492.73309 289.16977,492.01215 288.75,491.26843 C 288.73868,491.24836 288.73006,491.22602 288.71875,491.20593 C 288.27229,490.41344 287.83333,489.61614 287.40625,488.79968 C 287.00705,488.03659 286.60042,487.27146 286.21875,486.48718 C 286.18436,486.41653 286.15924,486.33925 286.125,486.26843 C 285.76489,485.52341 285.40631,484.78271 285.0625,484.01843 C 285.04353,483.9763 285.01892,483.93562 285,483.89343 C 284.96779,483.82153 284.93906,483.747 284.90625,483.67468 C 284.84652,483.54042 284.77796,483.40329 284.71875,483.26843 C 284.0669,481.7851 283.45944,480.26245 282.875,478.70593 C 282.81984,478.55988 282.77333,478.41513 282.71875,478.26843 C 282.71068,478.24675 282.69613,478.22746 282.6875,478.20593 C 282.67271,478.16611 282.67099,478.1208 282.65625,478.08093 C 282.63849,478.03797 282.60976,477.99944 282.59375,477.95593 C 282.46532,477.60724 282.34124,477.24877 282.21875,476.89343 C 282.05664,476.43662 281.9065,475.98142 281.75,475.51843 C 281.73216,475.46565 281.70524,475.41535 281.6875,475.36218 C 281.65328,475.26038 281.62769,475.15178 281.59375,475.04968 C 281.32338,474.23724 281.0653,473.41241 280.8125,472.58093 C 280.79628,472.52753 280.77318,472.47607 280.75,472.42468 C 280.73396,472.37157 280.70346,472.32162 280.6875,472.26843 C 280.40622,471.33208 280.16469,470.38533 279.90625,469.42468 C 279.75963,468.87912 279.60784,468.32189 279.46875,467.76843 C 279.35014,467.29646 279.23805,466.80868 279.125,466.33093 C 278.8879,465.32833 278.64964,464.29668 278.4375,463.26843 C 278.42885,463.22652 278.41591,463.18532 278.40625,463.14343 C 278.39771,463.10178 278.3835,463.06013 278.375,463.01843 C 278.37288,463.00849 278.37703,462.99713 278.375,462.98718 C 278.33079,462.77001 278.29196,462.54906 278.25,462.33093 C 278.16406,461.89551 278.08141,461.45843 278,461.01843 C 277.85489,460.23414 277.72424,459.44237 277.59375,458.64343 C 277.48098,457.95266 277.35164,457.25149 277.25,456.54968 C 277.22456,456.37398 277.21223,456.19483 277.1875,456.01843 C 277.10468,455.42785 277.04359,454.83558 276.96875,454.23718 C 276.88964,453.6045 276.82007,452.97239 276.75,452.33093 C 276.72283,452.08205 276.68205,451.83113 276.65625,451.58093 C 276.64032,451.42657 276.63974,451.26728 276.625,451.11218 C 276.55917,450.45029 276.49365,449.78335 276.4375,449.11218 C 276.41161,448.80226 276.36755,448.48659 276.34375,448.17468 C 276.28907,447.45914 276.23469,446.74203 276.1875,446.01843 C 276.17946,445.88434 276.16391,445.74663 276.15625,445.61218 C 276.09461,444.53075 276.0679,443.43578 276.03125,442.33093 C 275.99548,441.25045 275.94887,440.15276 275.9375,439.04968 C 275.93578,438.88266 275.93719,438.71646 275.9375,438.54968 C 275.93715,438.49827 275.9378,438.44489 275.9375,438.39343 C 275.93024,437.16503 275.94522,435.93122 275.96875,434.67468 C 276.09832,433.72237 276.22834,432.79045 276.375,431.86218 C 276.39511,431.73535 276.41708,431.61357 276.4375,431.48718 C 276.52756,430.92759 276.62271,430.38184 276.71875,429.83093 C 276.7588,429.60167 276.80267,429.37168 276.84375,429.14343 C 276.92984,428.66451 277.00328,428.17827 277.09375,427.70593 C 277.09998,427.67345 277.1187,427.64462 277.125,427.61218 C 277.28355,426.7888 277.4536,425.97829 277.625,425.17468 C 277.76617,424.51278 277.913,423.85459 278.0625,423.20593 C 278.21562,422.54116 278.36978,421.88818 278.53125,421.23718 C 278.54177,421.19477 278.5519,421.15438 278.5625,421.11218 C 278.71372,420.50535 278.87309,419.92594 279.03125,419.33093 C 279.28505,418.37616 279.54185,417.4432 279.8125,416.51843 C 279.98049,415.94344 280.13841,415.39447 280.3125,414.83093 C 280.37448,414.63042 280.43727,414.43626 280.5,414.23718 C 280.59273,413.94266 280.68692,413.65357 280.78125,413.36218 C 280.94093,412.86924 281.08648,412.37894 281.25,411.89343 C 281.32955,411.65864 281.41945,411.43866 281.5,411.20593 C 281.74652,410.49314 281.9946,409.77448 282.25,409.08093 C 282.25472,409.06812 282.27652,409.06249 282.28125,409.04968 C 282.32941,408.91904 282.35779,408.77339 282.40625,408.64343 C 282.69444,407.87052 283.01597,407.10769 283.3125,406.36218 C 283.59903,405.64327 283.86139,404.9347 284.15625,404.23718 C 284.19589,404.1434 284.23729,404.04886 284.28125,403.95593 C 284.29928,403.9136 284.32569,403.87318 284.34375,403.83093 C 284.35687,403.80021 284.36187,403.76786 284.375,403.73718 C 284.61075,403.18699 284.85337,402.64914 285.09375,402.11218 C 285.10899,402.07811 285.14046,402.0522 285.15625,402.01843 C 285.24907,401.81163 285.34404,401.59828 285.4375,401.39343 C 285.46483,401.33353 285.47364,401.26603 285.5,401.20593 C 285.5588,401.07764 285.62846,400.95846 285.6875,400.83093 C 286.0093,400.13575 286.32791,399.44115 286.65625,398.76843 C 287.49966,397.04043 288.37539,395.38497 289.25,393.79968 C 289.54932,393.25746 289.85465,392.73199 290.15625,392.20593 C 290.17971,392.16497 290.19879,392.12283 290.21875,392.08093 z"
       id="path3232" />
    <path
       style="fill:#f3f3f3;fill-opacity:0.91372549;fill-rule:evenodd;stroke:#000000;stroke-width:1px;stroke-linecap:butt;stroke-linejoin:miter;stroke-opacity:1"
       d="M 333.75576,366.89905 C 333.75576,366.89905 373.84793,369.89444 365.78341,415.51656 C 360.74307,446.74059 312.0227,455.44512 292.74194,430.49352 C 288.39441,422.40902 282.58087,416.34903 290.6682,391.0926 C 305.12159,364.63161 320.51368,366.85091 333.75576,366.89905 z"
       id="path2457"
       sodipodi:nodetypes="ccccc" />
    <path
       style="fill:#0a0a0a;fill-opacity:0.91372549;fill-rule:evenodd;stroke:#000000;stroke-width:1px;stroke-linecap:butt;stroke-linejoin:miter;stroke-opacity:1"
       d="M 326.61291,386.25389 C 337.34696,386.14483 353.1384,404.81224 338.13365,417.12946 C 329.90768,423.88206 312.7495,420.06464 309.56221,411.59951 C 304.06011,396.98647 315.04739,386.36892 326.61291,386.25389 z"
       id="path3231"
       sodipodi:nodetypes="csss" />
    <path
       style="fill:#b0f5b4;fill-opacity:1;fill-rule:evenodd;stroke:#b0f5b4;stroke-width:1px;stroke-linecap:butt;stroke-linejoin:miter;stroke-opacity:1"
       d="M 378.91986,366.90748 C 373.49107,367.59992 370.58212,369.31609 368.20558,372.5695 C 367.36159,377.60105 371.06166,378.89333 373.51917,378.31863 C 376.76063,377.83034 379.59538,377.16912 383.27526,374.05033 C 384.82549,370.111 380.58425,367.11027 378.91986,366.90748 z"
       id="path3183"
       sodipodi:nodetypes="ccccc" />
    <path
       style="fill:#c4656f;fill-opacity:1;fill-rule:evenodd;stroke:#000000;stroke-width:1px;stroke-linecap:butt;stroke-linejoin:miter;stroke-opacity:1"
       d="M 373.625,513.42468 C 368.94772,513.66065 365.13994,514.12782 361.71875,514.70593 C 365.21615,523.94801 371.63767,530.12749 376.75,530.04968 C 381.3785,529.97923 385.85045,525.71682 392.46875,517.79968 C 387.43962,516.11825 382.2195,514.45514 373.625,513.42468 z"
       id="path3173" />
    <path
       style="fill:#351b1e;fill-opacity:1;fill-rule:evenodd;stroke:#000000;stroke-width:1px;stroke-linecap:butt;stroke-linejoin:miter;stroke-opacity:1"
       d="M 371.25,513.58093 C 367.64473,513.83941 364.53242,514.23048 361.71875,514.70593 C 362.7661,517.47362 364.07312,519.94835 365.53125,522.08093 C 366.91809,518.6243 368.98998,515.98974 371.25,513.58093 z"
       id="path3178"
       sodipodi:nodetypes="cccc" />
    <path
       style="fill:#f3f3f3;fill-opacity:0.91372549;fill-rule:evenodd;stroke:#000000;stroke-width:1px;stroke-linecap:butt;stroke-linejoin:miter;stroke-opacity:1"
       d="M 421.31336,374.27232 C 385.56392,392.52238 392.36355,430.85751 410.01167,443.12536 C 431.58539,458.20524 479.71941,455.72914 474.30876,402.61333 C 470.41483,393.39044 468.00733,383.76215 454.95392,377.0373 C 443.7404,373.38214 431.45981,371.04101 421.31336,374.27232 z"
       id="path3233"
       sodipodi:nodetypes="ccccc" />
    <path
       style="fill:#0a0a0a;fill-opacity:0.91372549;fill-rule:evenodd;stroke:#000000;stroke-width:1px;stroke-linecap:butt;stroke-linejoin:miter;stroke-opacity:1"
       d="M 438.58025,393.20786 C 439.75547,393.02548 460.70206,394.52823 454.1358,418.39304 C 443.67676,437.10126 421.21329,424.98866 420.80247,412.71403 C 420.44933,402.1627 427.07991,392.2798 438.58025,393.20786 z"
       id="path3235"
       sodipodi:nodetypes="ccsc" />
    <path
       style="opacity:0.52654868;fill:#bc9a49;fill-opacity:0.91372549;fill-rule:evenodd;stroke:none;stroke-width:1px;stroke-linecap:butt;stroke-linejoin:miter;stroke-opacity:1"
       d="M 475.875,402.14343 C 476.0648,402.62642 476.24902,403.0718 476.4375,403.58093 C 476.77455,404.48834 477.10506,405.42669 477.4375,406.42468 C 477.48343,406.56292 477.51666,406.69082 477.5625,406.83093 C 477.77466,407.47714 477.97744,408.14318 478.1875,408.83093 C 478.35002,409.36414 478.49507,409.86493 478.65625,410.42468 C 479.0016,411.6193 479.34878,412.84869 479.6875,414.17468 C 479.70971,414.26184 479.72782,414.33692 479.75,414.42468 C 479.97503,415.31227 480.18442,416.22351 480.40625,417.17468 C 480.41846,417.22705 480.4253,417.27837 480.4375,417.33093 C 480.66828,418.32551 480.8979,419.35719 481.125,420.42468 C 481.36299,421.54329 481.61007,422.6888 481.84375,423.89343 C 484.41537,466.43228 477.54639,482.49025 458.9375,504.76843 C 457.8989,506.01182 456.84205,507.19984 455.78125,508.36218 C 455.26207,508.93106 454.74279,509.49978 454.21875,510.04968 C 454.00176,510.27721 453.78029,510.48163 453.5625,510.70593 C 453.23928,511.03914 452.91867,511.37976 452.59375,511.70593 C 451.9579,512.34338 451.32945,512.97005 450.6875,513.58093 C 450.60298,513.66148 450.52212,513.75083 450.4375,513.83093 C 450.09573,514.15391 449.74961,514.48406 449.40625,514.79968 C 449.02574,515.14989 448.63238,515.48969 448.25,515.83093 C 447.8155,516.21816 447.37423,516.61132 446.9375,516.98718 C 446.64541,517.23871 446.35555,517.49071 446.0625,517.73718 C 445.53223,518.18289 445.00187,518.62018 444.46875,519.04968 C 444.2615,519.21666 444.05141,519.38514 443.84375,519.54968 C 443.22203,520.04224 442.59376,520.51595 441.96875,520.98718 C 441.84502,521.08042 441.7176,521.17603 441.59375,521.26843 C 440.88157,521.80006 440.15321,522.32614 439.4375,522.83093 C 441.2895,524.96842 443.34039,526.9073 445.65625,528.58093 C 449.72528,531.6673 456.25225,534.32297 468.625,532.45593 C 472.16098,530.9679 475.51539,529.2809 478.5625,527.29968 C 481.56047,523.98354 514.58006,517.41649 507.59375,476.01843 C 506.92157,470.81431 489.58336,425.5328 475.875,402.14343 z"
       id="path3244" />
    <path
       style="fill:#d44657;fill-opacity:0.91372549;fill-rule:evenodd;stroke:#000000;stroke-width:1px;stroke-linecap:butt;stroke-linejoin:miter;stroke-opacity:1"
       d="M 386.91099,343.74176 C 385.66401,345.91201 384.4144,348.09016 383.50785,349.23914 C 381.73559,349.71005 379.26983,349.9498 377.48691,350.41715 C 379.11332,351.87271 381.19328,353.10149 382.19895,354.86742 C 381.35566,358.15971 381.17518,358.91678 381.02094,360.23391 L 386.7801,356.96166 C 389.68613,358.38241 392.02784,359.46458 393.19372,359.84124 C 392.58636,356.38105 392.30197,356.11361 392.01571,354.60564 C 393.67646,353.07799 396.20402,351.73678 396.85864,350.54804 C 395.01352,349.68177 392.14447,349.65469 390.8377,348.97736 C 390.7228,348.66497 388.70454,346.06854 386.91099,343.74176 z"
       id="path3253"
       sodipodi:nodetypes="ccccccccccc" />
    <path
       style="fill:#60b45f;fill-rule:evenodd;stroke:#000000;stroke-width:1px;stroke-linecap:butt;stroke-linejoin:miter;stroke-opacity:1;fill-opacity:1"
       d="M 406.58539,537.65031 C 422.1269,545.98126 436.92227,552.65145 460.53891,578.95609 C 457.71103,587.27298 446.87592,604.24963 433.94928,616.2031 C 434.38537,617.36154 436.01236,622.62467 432.65748,622.12387 C 419.98507,621.28435 415.34348,616.04878 418.74017,604.30523 C 423.12542,595.43465 437.44237,583.25029 436.09429,578.98529 C 428.39495,572.17628 420.67057,565.38396 412.12828,559.13691 C 416.74007,574.56616 419.79324,586.82969 421.94517,599.04421 C 418.9268,604.12505 414.09246,610.6669 420.99921,618.5502 C 419.49883,624.15361 417.03512,627.65321 412.96724,630.65771 C 408.13954,666.84928 409.31745,700.03805 408.68916,734.12992 C 408.65799,735.57635 407.91498,735.9824 407.20841,736.05807 C 397.46583,735.96276 401.05835,733.30264 384.00202,642.92607 C 377.34727,643.5722 374.08059,642.62395 369.64823,642.22424 C 367.9403,720.73078 376.78004,735.58866 352.17232,731.49678 C 351.4303,730.67658 354.20928,728.09587 357.34793,725.33533 C 357.33538,703.80702 345.30997,669.69833 338.75,630.76843 C 320.64189,602.16418 333.8057,580.11607 339.46875,556.48718 C 342.67056,552.00327 345.62064,547.58229 346.97802,543.55949 C 343.58385,553.83873 315.11936,591.16519 299.12587,591.11193 C 261.72981,590.98739 267.47068,586.77905 258.56643,595.00803 L 256.76823,591.41163 L 253.47153,592.41063 L 253.52513,588.30011 L 249.59248,588.00041 L 251.2323,583.47079 C 239.28156,583.98212 250.49668,575.8409 253.0768,570.77373 L 250.78397,567.69145 C 270.57551,564.27837 275.33749,572.34864 300.26132,570.82734 L 349.32737,535.67291 C 371.62899,541.44543 388.84407,540.78678 406.58539,537.65031 z"
       id="path3273"
       sodipodi:nodetypes="cccccccccccccccccccsccccccccccc" />
    <path
       style="fill:none;fill-rule:evenodd;stroke:#000000;stroke-width:1px;stroke-linecap:butt;stroke-linejoin:miter;stroke-opacity:1;fill-opacity:1"
       d="M 413.15194,630.45278 L 410.84333,633.39625"
       id="path3376" />
    <path
       style="fill:#f5f5f5;fill-rule:evenodd;stroke:#000000;stroke-width:1px;stroke-linecap:butt;stroke-linejoin:miter;stroke-opacity:1;fill-opacity:1"
       d="M 131.21875 213.46875 C 117.74176 239.0776 114.30504 262.41536 114.53125 275.8125 C 111.51089 310.66702 174.57311 310.05632 182.6875 290 C 196.15762 268.79238 181.83534 240.10695 175.96875 214.8125 C 167.01902 216.31806 158.76051 216.40275 151.9375 215.71875 C 145.82294 215.66982 138.72918 214.98391 131.21875 213.46875 z "
       transform="translate(225,323.86218)"
       id="path3382" />
    <path
       style="fill:#427a52;fill-rule:evenodd;stroke:none;stroke-width:1px;stroke-linecap:butt;stroke-linejoin:miter;stroke-opacity:1;fill-opacity:1"
       d="M 169.40625 215.46875 C 171.59508 215.2586 173.67675 215.19807 175.96875 214.8125 C 176.52545 217.21276 177.35325 219.73546 178.03125 222.1875 C 181.38374 220.84738 184.79019 219.28182 188.3125 217.40625 C 186.07467 216.21065 183.83393 214.98209 181.59375 213.78125 C 177.53326 214.4991 173.48138 215.05537 169.40625 215.46875 z "
       id="path3440"
       transform="translate(225,323.86218)" />
    <path
       style="fill:none;fill-rule:evenodd;stroke:#000000;stroke-width:1px;stroke-linecap:butt;stroke-linejoin:miter;stroke-opacity:1"
       d="M 159.15625 215.96875 C 160.52345 215.99047 161.71726 216.13791 163.15625 216.09375 C 164.55397 216.05086 166.13614 215.76817 167.59375 215.65625 C 164.82986 215.89658 161.98664 215.91726 159.15625 215.96875 z "
       id="path3438"
       transform="translate(225,323.86218)" />
    <path
       style="fill:#bed3e8;fill-rule:evenodd;stroke:none;stroke-width:1px;stroke-linecap:butt;stroke-linejoin:miter;stroke-opacity:1;fill-opacity:1"
       d="M 137.125 214.375 C 135.15874 214.08205 133.25768 213.88009 131.21875 213.46875 C 130.08448 215.62407 129.12083 217.72517 128.125 219.84375 C 143.44763 228.87689 159.55089 229.57483 178.03125 222.1875 C 177.35325 219.73546 176.52545 217.21276 175.96875 214.8125 C 173.67675 215.19807 171.59508 215.2586 169.40625 215.46875 C 169.03006 215.50691 168.65794 215.59013 168.28125 215.625 C 168.05627 215.64583 167.81903 215.63666 167.59375 215.65625 C 166.13614 215.76817 164.55397 216.05086 163.15625 216.09375 C 161.71726 216.13791 160.52345 215.99047 159.15625 215.96875 C 157.64684 215.99621 156.19343 216.15222 154.65625 216.125 C 150.73581 216.05558 146.64152 215.68454 142.46875 215.1875 C 142.30756 215.1683 142.16167 215.14493 142 215.125 C 141.37798 215.04831 140.81684 215.08775 140.1875 215 C 139.21705 214.86468 138.11413 214.53625 137.125 214.375 z "
       id="path3436"
       transform="translate(225,323.86218)" />
    <path
       style="fill:#437d58;fill-rule:evenodd;stroke:none;stroke-width:1px;stroke-linecap:butt;stroke-linejoin:miter;stroke-opacity:1;fill-opacity:1"
       d="M 124.3125 211.8125 L 120.46875 214.5625 C 123.0133 216.55121 125.54712 218.32401 128.125 219.84375 C 129.12083 217.72517 130.08448 215.62407 131.21875 213.46875 C 133.25768 213.88009 135.15874 214.08205 137.125 214.375 C 132.99008 213.70093 128.81165 212.97705 124.3125 211.8125 z "
       id="path3423"
       transform="translate(225,323.86218)" />
    <path
       style="fill:#eed540;fill-rule:evenodd;stroke:#000000;stroke-width:1px;stroke-linecap:butt;stroke-linejoin:miter;stroke-opacity:1;fill-opacity:0.9137255"
       d="M 151.57343,233.43357 C 148.31003,237.87951 144.93128,241.90405 141.66788,249.51023 C 134.51017,250.14871 128.0455,251.05796 122.72727,254.76224 C 128.08929,261.23267 131.56998,262.68624 135.13986,264.37762 C 132.82234,271.54707 129.85927,278.89259 130.76923,285.18182 C 143.54269,280.59688 144.99073,275.3394 150.26735,275.62543 C 158.29109,276.06038 162.50276,284.13159 169.34249,283.66425 C 169.41183,278.59261 169.24095,272.62275 166.78395,265.44114 C 171.48656,262.60809 176.15765,259.74353 179.35619,255.40642 C 174.82825,252.75187 170.74118,249.91169 160.55551,249.63933 C 159.20628,244.0206 156.30297,238.13122 151.57343,233.43357 z"
       id="path3380"
       transform="translate(225,323.86218)"
       sodipodi:nodetypes="cccccsccccc" />
    <path
       style="fill:none;fill-rule:evenodd;stroke:#000000;stroke-width:1px;stroke-linecap:butt;stroke-linejoin:miter;stroke-opacity:1"
       d="M 31.160638,253.70627 L 37.45269,254.90476"
       id="path2414"
       transform="translate(225,323.86218)" />
    <path
       style="fill:#458358;fill-rule:evenodd;stroke:none;stroke-width:1px;stroke-linecap:butt;stroke-linejoin:miter;stroke-opacity:1;fill-opacity:0.69411767"
       d="M 31.160638,253.70627 L 37.45269,254.90476 C 36.939548,257.44523 35.759574,258.87432 34.456475,260.0982 C 32.165618,258.56368 30.794097,256.56949 31.160638,253.70627 z"
       id="path2416"
       transform="translate(225,323.86218)"
       sodipodi:nodetypes="cccc" />
    <path
       style="fill:#417952;fill-rule:evenodd;stroke:none;stroke-width:1px;stroke-linecap:butt;stroke-linejoin:miter;stroke-opacity:1;fill-opacity:1"
       d="M 127.34375,310.34375 C 125.286,310.30029 125.02021,311.97814 127.6875,313.96875 C 134.80631,321.17826 140.02982,333.50945 143.93802,344.20646 C 143.91136,336.41778 144.14733,327.89264 144.35656,318.2751 C 148.78892,318.67481 152.84474,319.80852 159.49948,319.1624 C 161.17581,328.88512 162.78243,336.73325 164.10553,344.54406 C 165.55665,337.73525 167.7316,329.20371 175.03125,314.09375 C 176.49719,308.63443 173.9193,311.98399 173.21875,311.21875 C 173.21875,311.21875 158.1074,320.44583 129.03125,310.6875 C 128.37794,310.47991 127.81861,310.35378 127.34375,310.34375 z"
       transform="translate(225,323.86218)"
       id="path3387"
       sodipodi:nodetypes="cccccccccc" />
    <path
       style="fill:none;fill-rule:evenodd;stroke:#000000;stroke-width:1px;stroke-linecap:butt;stroke-linejoin:miter;stroke-opacity:1;fill-opacity:1"
       d="M 355.77373,637.81921 C 374.77333,644.96575 382.65377,643.21473 389.91802,641.70913"
       id="path3378" />
  </g>
</svg>
