<?xml version="1.0" encoding="UTF-8" standalone="no"?>
<!-- Created with Inkscape (http://www.inkscape.org/) -->

<svg
   xmlns:dc="http://purl.org/dc/elements/1.1/"
   xmlns:cc="http://creativecommons.org/ns#"
   xmlns:rdf="http://www.w3.org/1999/02/22-rdf-syntax-ns#"
   xmlns:svg="http://www.w3.org/2000/svg"
   xmlns="http://www.w3.org/2000/svg"
   xmlns:sodipodi="http://sodipodi.sourceforge.net/DTD/sodipodi-0.dtd"
   xmlns:inkscape="http://www.inkscape.org/namespaces/inkscape"
   width="400"
   height="400"
   id="svg2"
   version="1.1"
   inkscape:version="0.48.1 r9760"
   sodipodi:docname="marketing-philosophy.svg"
   inkscape:export-filename="/mnt/worksp/home/ckhung/public_html/m/11/marketing-philosophy.png"
   inkscape:export-xdpi="90"
   inkscape:export-ydpi="90">
  <defs
     id="defs4" />
  <sodipodi:namedview
     id="base"
     pagecolor="#ffffff"
     bordercolor="#666666"
     borderopacity="1.0"
     inkscape:pageopacity="1"
     inkscape:pageshadow="2"
     inkscape:zoom="1"
     inkscape:cx="181.71204"
     inkscape:cy="194.52849"
     inkscape:document-units="px"
     inkscape:current-layer="layer1"
     showgrid="false"
     inkscape:window-width="1016"
     inkscape:window-height="717"
     inkscape:window-x="0"
     inkscape:window-y="0"
     inkscape:window-maximized="1" />
  <metadata
     id="metadata7">
    <rdf:RDF>
      <cc:Work
         rdf:about="">
        <dc:format>image/svg+xml</dc:format>
        <dc:type
           rdf:resource="http://purl.org/dc/dcmitype/StillImage" />
        <dc:title></dc:title>
      </cc:Work>
    </rdf:RDF>
  </metadata>
  <g
     inkscape:label="Layer 1"
     inkscape:groupmode="layer"
     id="layer1"
     transform="translate(0,-652.36218)">
    <path
       sodipodi:type="arc"
       style="fill:#00ffff;fill-opacity:1;stroke:#00ffff;stroke-width:2;stroke-miterlimit:4;stroke-opacity:1;stroke-dasharray:none"
       id="path2985"
       sodipodi:cx="191.5"
       sodipodi:cy="185"
       sodipodi:rx="56.5"
       sodipodi:ry="37"
       d="m 248,185 c 0,20.43454 -25.29591,37 -56.5,37 -31.20409,0 -56.5,-16.56546 -56.5,-37 0,-20.43454 25.29591,-37 56.5,-37 31.20409,0 56.5,16.56546 56.5,37 z"
       transform="translate(0,652.36218)" />
    <text
       xml:space="preserve"
       style="font-size:18px;font-style:normal;font-variant:normal;font-weight:normal;font-stretch:normal;line-height:125%;letter-spacing:0px;word-spacing:0px;fill:#000000;fill-opacity:1;stroke:none;font-family:AR PL UKai TW;-inkscape-font-specification:AR PL UKai TW"
       x="169"
       y="844.36218"
       id="text3755"
       sodipodi:linespacing="125%"><tspan
         sodipodi:role="line"
         id="tspan3757"
         x="169"
         y="844.36218">部落客</tspan></text>
    <path
       style="fill:none;stroke:#000000;stroke-width:1px;stroke-linecap:butt;stroke-linejoin:miter;stroke-opacity:1"
       d="m 129,168 c 30.23192,9.90932 6,5 31,6 26.39858,1.05594 40,26 35,54 -5,28 2,68 -26,75 -28,7 -122,16 -126,-15 -4,-31 68,-46 42,-88 -26,-42 -34,-54 -19,-67 15,-13 32.768084,25.09068 63,35 z"
       id="path3759"
       inkscape:connector-curvature="0"
       transform="translate(0,652.36218)"
       sodipodi:nodetypes="zssssssz" />
    <path
       style="fill:none;stroke:#000000;stroke-width:1px;stroke-linecap:butt;stroke-linejoin:miter;stroke-opacity:1"
       d="m 174,203 c 0,0 -41,12 -26,37 15,25 19,10 70,41 51,31 67,38 106,-11 39,-49 26,-55 -4,-87 -30,-32 -29,-14 -47,5 -18,19 -0.47087,42.66655 -41,25 -40.52913,-17.66655 -58,-10 -58,-10 z"
       id="path3761"
       inkscape:connector-curvature="0"
       transform="translate(0,652.36218)"
       sodipodi:nodetypes="cssssszc" />
    <path
       style="fill:none;stroke:#000000;stroke-width:1px;stroke-linecap:butt;stroke-linejoin:miter;stroke-opacity:1"
       d="M 32,51 C 7,78.5 17,191 62,196 c 45,5 72,26 101,-3 29,-29 46,-31 31,-65 C 179,94 145,78 109,84 73,90 57,23.5 32,51 z"
       id="path3763"
       inkscape:connector-curvature="0"
       transform="translate(0,652.36218)"
       sodipodi:nodetypes="zssssz" />
    <path
       style="fill:none;stroke:#000000;stroke-width:1px;stroke-linecap:butt;stroke-linejoin:miter;stroke-opacity:1"
       d="m 110,709.36218 c -21,25 5,107 39,124 34,17 52,43 69,21 17,-22 41,-54 19,-75 -22,-21 -45,-22 -24,-51 21,-29 -3,-54 -21,-40 -18,14 -61,-4 -82,21 z"
       id="path3765"
       inkscape:connector-curvature="0"
       sodipodi:nodetypes="zsssssz" />
    <path
       style="fill:none;stroke:#000000;stroke-width:1px;stroke-linecap:butt;stroke-linejoin:miter;stroke-opacity:1"
       d="m 193,748.36218 c -46,7 -10,67 7,90 17,23 49,23 88,19 39,-4 66,-5 64,-51 -2,-46 -9,-80 -36,-79 -29.39073,1.08855 -11,7 -30,24 -19,17 -47,-10 -93,-3 z"
       id="path3767"
       inkscape:connector-curvature="0"
       sodipodi:nodetypes="zsssssz" />
    <text
       xml:space="preserve"
       style="font-size:18px;font-style:normal;font-variant:normal;font-weight:normal;font-stretch:normal;line-height:125%;letter-spacing:0px;word-spacing:0px;fill:#000000;fill-opacity:1;stroke:none;font-family:AR PL UKai TW;-inkscape-font-specification:AR PL UKai TW"
       x="74"
       y="279"
       id="text3769"
       sodipodi:linespacing="125%"
       transform="translate(0,652.36218)"><tspan
         sodipodi:role="line"
         id="tspan3771"
         x="74"
         y="279">臉書達人甲</tspan></text>
    <text
       xml:space="preserve"
       style="font-size:18px;font-style:normal;font-variant:normal;font-weight:normal;font-stretch:normal;line-height:125%;letter-spacing:0px;word-spacing:0px;fill:#000000;fill-opacity:1;stroke:none;font-family:AR PL UKai TW;-inkscape-font-specification:AR PL UKai TW"
       x="231"
       y="255"
       id="text3773"
       sodipodi:linespacing="125%"
       transform="translate(0,652.36218)"><tspan
         sodipodi:role="line"
         id="tspan3775"
         x="231"
         y="255">教育噗浪客</tspan></text>
    <text
       xml:space="preserve"
       style="font-size:18px;font-style:normal;font-variant:normal;font-weight:normal;font-stretch:normal;line-height:125%;letter-spacing:0px;word-spacing:0px;fill:#000000;fill-opacity:1;stroke:none;font-family:AR PL UKai TW;-inkscape-font-specification:AR PL UKai TW"
       x="43"
       y="114"
       id="text3777"
       sodipodi:linespacing="125%"
       transform="translate(0,652.36218)"><tspan
         sodipodi:role="line"
         id="tspan3779"
         x="43"
         y="114">旅遊噗浪客</tspan></text>
    <text
       xml:space="preserve"
       style="font-size:18px;font-style:normal;font-variant:normal;font-weight:normal;font-stretch:normal;line-height:125%;letter-spacing:0px;word-spacing:0px;fill:#000000;fill-opacity:1;stroke:none;font-family:AR PL UKai TW;-inkscape-font-specification:AR PL UKai TW"
       x="115"
       y="725.36218"
       id="text3781"
       sodipodi:linespacing="125%"><tspan
         sodipodi:role="line"
         id="tspan3783"
         x="115"
         y="725.36218">推特用戶甲</tspan></text>
    <text
       xml:space="preserve"
       style="font-size:18px;font-style:normal;font-variant:normal;font-weight:normal;font-stretch:normal;line-height:125%;letter-spacing:0px;word-spacing:0px;fill:#000000;fill-opacity:1;stroke:none;font-family:AR PL UKai TW;-inkscape-font-specification:AR PL UKai TW"
       x="264"
       y="149"
       id="text3785"
       sodipodi:linespacing="125%"
       transform="translate(0,652.36218)"><tspan
         sodipodi:role="line"
         id="tspan3787"
         x="264"
         y="149">G+ 用戶甲</tspan></text>
    <path
       style="fill:none;stroke:#000000;stroke-width:1px;stroke-linecap:butt;stroke-linejoin:miter;stroke-opacity:1"
       d="m 153,127 c 0,0 -14,6 -1,20 13,14 80,43 89,41 9,-2 30.22269,-113.986542 53,-115 24.05395,-1.070261 61.70128,-5.864302 59,-38 -2.05314,-24.425121 -86,-22 -118,-6 -32,16 -82,98 -82,98 z"
       id="path3789"
       inkscape:connector-curvature="0"
       transform="translate(0,652.36218)"
       sodipodi:nodetypes="csssssc" />
    <text
       xml:space="preserve"
       style="font-size:18px;font-style:normal;font-variant:normal;font-weight:normal;font-stretch:normal;line-height:125%;letter-spacing:0px;word-spacing:0px;fill:#000000;fill-opacity:1;stroke:none;font-family:AR PL UKai TW;-inkscape-font-specification:AR PL UKai TW"
       x="238"
       y="58"
       id="text3791"
       sodipodi:linespacing="125%"
       transform="translate(0,652.36218)"><tspan
         sodipodi:role="line"
         id="tspan3793"
         x="238"
         y="58">臉書達人乙</tspan></text>
    <text
       xml:space="preserve"
       style="font-size:18px;font-style:normal;font-variant:normal;font-weight:normal;font-stretch:normal;line-height:125%;letter-spacing:0px;word-spacing:0px;fill:#000000;fill-opacity:1;stroke:none;font-family:AR PL UKai TW;-inkscape-font-specification:AR PL UKai TW"
       x="45"
       y="1000.3622"
       id="text3795"
       sodipodi:linespacing="125%"><tspan
         sodipodi:role="line"
         id="tspan3797"
         x="45"
         y="1000.3622">行銷論述類社運:</tspan><tspan
         sodipodi:role="line"
         x="45"
         y="1022.8622"
         id="tspan3799">分工投入多元管道勝過孤注一擲於臉書</tspan></text>
  </g>
</svg>
