<?xml version="1.0" encoding="UTF-8" standalone="no"?>
<!DOCTYPE svg PUBLIC "-//W3C//DTD SVG 1.1//EN"
 "http://www.w3.org/Graphics/SVG/1.1/DTD/svg11.dtd">
<!-- Generated by graphviz version 2.26.3 (20100126.1600)
 -->
<!-- Title: 網路現象地圖 Pages: 1 -->
<svg width="2258pt" height="859pt"
 viewBox="0.00 0.00 2258.00 859.10" xmlns="http://www.w3.org/2000/svg" xmlns:xlink="http://www.w3.org/1999/xlink">
<g id="graph1" class="graph" transform="scale(1 1) rotate(0) translate(4 855.097)">
<title>網路現象地圖</title>
<polygon fill="white" stroke="white" points="-4,5 -4,-855.097 2255,-855.097 2255,5 -4,5"/>
<!-- 網際網路 -->
<g id="node1" class="node"><title>網際網路</title>
<ellipse fill="none" stroke="black" cx="50" cy="-696" rx="49.1393" ry="18"/>
<text text-anchor="middle" x="50" y="-691.4" font-family="Times Roman,serif" font-size="14.00">網際網路</text>
</g>

<!-- 複製零成本 -->
<g id="node4" class="node"><title>複製零成本</title>
<ellipse fill="none" stroke="black" cx="197" cy="-630" rx="59.0322" ry="18"/>
<text text-anchor="middle" x="197" y="-625.4" font-family="Times Roman,serif" font-size="14.00">複製零成本</text>
</g>

<!-- 網際網路&#45;&gt;複製零成本 -->
<g id="edge3" class="edge"><title>網際網路&#45;&gt;複製零成本</title>
<path id="edge3_p" fill="none" stroke="black" d="M81.1749,-682.003C102.508,-672.425 131.057,-659.607 154.473,-649.094"/>
<polygon fill="black" stroke="black" points="156.138,-652.183 163.827,-644.894 153.271,-645.797 156.138,-652.183"/>
</g>

<!-- 雙向流通 -->
<g id="node5" class="node"><title>雙向流通</title>
<ellipse fill="none" stroke="black" cx="197" cy="-742" rx="49.1393" ry="18"/>
<text text-anchor="middle" x="197" y="-737.4" font-family="Times Roman,serif" font-size="14.00">雙向流通</text>
</g>

<!-- 網際網路&#45;&gt;雙向流通 -->
<g id="edge4" class="edge"><title>網際網路&#45;&gt;雙向流通</title>
<path id="edge4_p" fill="none" stroke="black" d="M87.8562,-707.846C106.717,-713.748 129.711,-720.943 149.72,-727.205"/>
<polygon fill="black" stroke="black" points="148.683,-730.548 159.272,-730.194 150.774,-723.867 148.683,-730.548"/>
</g>

<!-- 資訊爆炸 -->
<g id="node9" class="node"><title>資訊爆炸</title>
<ellipse fill="none" stroke="black" cx="346" cy="-651" rx="49.1393" ry="18"/>
<text text-anchor="middle" x="346" y="-646.4" font-family="Times Roman,serif" font-size="14.00">資訊爆炸</text>
</g>

<!-- 複製零成本&#45;&gt;資訊爆炸 -->
<g id="edge8" class="edge"><title>複製零成本&#45;&gt;資訊爆炸</title>
<path id="edge8_p" fill="none" stroke="black" d="M250.792,-637.581C263.421,-639.361 276.912,-641.263 289.65,-643.058"/>
<polygon fill="black" stroke="black" points="289.282,-646.541 299.672,-644.471 290.259,-639.609 289.282,-646.541"/>
</g>

<!-- web 2.0 -->
<g id="node10" class="node"><title>web 2.0</title>
<ellipse fill="none" stroke="black" cx="346" cy="-749" rx="51.1176" ry="18.3848"/>
<text text-anchor="middle" x="346" y="-745.4" font-family="Times Roman,serif" font-size="14.00">web 2.0</text>
</g>

<!-- 複製零成本&#45;&gt;web 2.0 -->
<g id="edge9" class="edge"><title>複製零成本&#45;&gt;web 2.0</title>
<path id="edge9_p" fill="none" stroke="black" d="M219.293,-646.889C235.206,-659.023 257.056,-675.846 276,-691 290.052,-702.242 305.474,-714.975 318.257,-725.642"/>
<polygon fill="black" stroke="black" points="316.319,-728.584 326.235,-732.316 320.811,-723.215 316.319,-728.584"/>
</g>

<!-- 自由軟體 -->
<g id="node13" class="node"><title>自由軟體</title>
<ellipse fill="none" stroke="black" cx="1406" cy="-625" rx="49.1393" ry="18"/>
<text text-anchor="middle" x="1406" y="-620.4" font-family="Times Roman,serif" font-size="14.00">自由軟體</text>
</g>

<!-- 複製零成本&#45;&gt;自由軟體 -->
<g id="edge14" class="edge"><title>複製零成本&#45;&gt;自由軟體</title>
<path id="edge14_p" fill="none" stroke="black" d="M197.745,-611.797C201.413,-548.09 222.834,-339 346,-339 346,-339 346,-339 1035,-339 1120.09,-339 1142.1,-367.169 1208,-421 1218.33,-429.435 1217.77,-434.513 1226,-445 1265.78,-495.669 1271.78,-512.133 1318,-557 1335.38,-573.873 1356.87,-590.541 1374.25,-603.152"/>
<polygon fill="black" stroke="black" points="1372.25,-606.026 1382.42,-609 1376.33,-600.333 1372.25,-606.026"/>
</g>

<!-- 自由文化 -->
<g id="node14" class="node"><title>自由文化</title>
<ellipse fill="none" stroke="black" cx="742" cy="-499" rx="49.1393" ry="18"/>
<text text-anchor="middle" x="742" y="-494.4" font-family="Times Roman,serif" font-size="14.00">自由文化</text>
</g>

<!-- 複製零成本&#45;&gt;自由文化 -->
<g id="edge15" class="edge"><title>複製零成本&#45;&gt;自由文化</title>
<path id="edge15_p" fill="none" stroke="black" d="M224.352,-613.825C238.715,-605.936 256.855,-596.901 274,-591 417.245,-541.7 594.767,-515.878 684.417,-505.155"/>
<polygon fill="black" stroke="black" points="684.861,-508.627 694.383,-503.983 684.043,-501.675 684.861,-508.627"/>
</g>

<!-- P2P -->
<g id="node15" class="node"><title>P2P</title>
<ellipse fill="none" stroke="black" cx="346" cy="-803" rx="29.1951" ry="18.3848"/>
<text text-anchor="middle" x="346" y="-799.4" font-family="Times Roman,serif" font-size="14.00">P2P</text>
</g>

<!-- 複製零成本&#45;&gt;P2P -->
<g id="edge16" class="edge"><title>複製零成本&#45;&gt;P2P</title>
<path id="edge16_p" fill="none" stroke="black" d="M209.691,-647.733C221.82,-664.808 240.498,-691.44 256,-715 273.557,-741.684 270.548,-754.314 294,-776 299.219,-780.826 305.462,-785.029 311.783,-788.589"/>
<polygon fill="black" stroke="black" points="310.497,-791.864 320.988,-793.344 313.71,-785.645 310.497,-791.864"/>
</g>

<!-- 長尾現象 -->
<g id="node43" class="node"><title>長尾現象</title>
<ellipse fill="none" stroke="black" cx="936" cy="-727" rx="49.1393" ry="18"/>
<text text-anchor="middle" x="936" y="-722.4" font-family="Times Roman,serif" font-size="14.00">長尾現象</text>
</g>

<!-- 複製零成本&#45;&gt;長尾現象 -->
<g id="edge54" class="edge"><title>複製零成本&#45;&gt;長尾現象</title>
<path id="edge54_p" fill="none" stroke="black" d="M249.667,-621.667C290.574,-616.812 348.481,-613.491 398,-624 406.564,-625.817 407.812,-628.901 416,-632 536.29,-677.524 565.716,-694.616 692,-719 743.643,-728.972 757.441,-725.999 810,-728 831.698,-728.826 855.512,-728.861 876.539,-728.595"/>
<polygon fill="black" stroke="black" points="876.67,-732.093 886.616,-728.442 876.564,-725.094 876.67,-732.093"/>
<text  text-anchor="middle" font-family="Times Roman,serif" font-size="6.00" fill="Blue"><textPath xlink:href="#edge54_p" startOffset="50%"><tspan x="0" dy="-1">流通工具民主化</tspan></textPath></text>
</g>

<!-- 雙向流通&#45;&gt;資訊爆炸 -->
<g id="edge10" class="edge"><title>雙向流通&#45;&gt;資訊爆炸</title>
<path id="edge10_p" fill="none" stroke="black" d="M222.614,-726.357C247.134,-711.381 284.302,-688.681 311.437,-672.109"/>
<polygon fill="black" stroke="black" points="313.512,-674.943 320.222,-666.744 309.863,-668.969 313.512,-674.943"/>
</g>

<!-- 雙向流通&#45;&gt;web 2.0 -->
<g id="edge11" class="edge"><title>雙向流通&#45;&gt;web 2.0</title>
<path id="edge11_p" fill="none" stroke="black" d="M246.201,-744.311C258.508,-744.89 271.86,-745.517 284.675,-746.119"/>
<polygon fill="black" stroke="black" points="284.654,-749.622 294.807,-746.595 284.983,-742.629 284.654,-749.622"/>
</g>

<!-- 雙向流通&#45;&gt;自由軟體 -->
<g id="edge20" class="edge"><title>雙向流通&#45;&gt;自由軟體</title>
<path id="edge20_p" fill="none" stroke="black" d="M209.693,-759.657C226.269,-781.033 257.515,-815.916 294,-830 337.121,-846.645 351.828,-832.163 398,-830 801.862,-811.079 931.676,-878.734 1300,-712 1332.69,-697.2 1363.64,-669.664 1383.56,-649.523"/>
<polygon fill="black" stroke="black" points="1386.2,-651.829 1390.63,-642.207 1381.16,-646.962 1386.2,-651.829"/>
<text  text-anchor="middle" font-family="Times Roman,serif" font-size="6.00" fill="Blue"><textPath xlink:href="#edge20_p" startOffset="50%"><tspan x="0" dy="-1">copyleft</tspan></textPath></text>
<text  text-anchor="middle" font-family="Times Roman,serif" font-size="6.00" fill="Blue"><textPath xlink:href="#edge20_p" startOffset="50%"><tspan x="0" dy="5">patch</tspan></textPath></text>
</g>

<!-- 雙向流通&#45;&gt;自由文化 -->
<g id="edge26" class="edge"><title>雙向流通&#45;&gt;自由文化</title>
<path id="edge26_p" fill="none" stroke="black" d="M239.932,-732.92C256.773,-729.418 276.276,-725.436 294,-722 462.513,-689.333 547.025,-768.504 674,-653 695.858,-633.117 680.749,-616.322 692,-589 701.215,-566.622 714.669,-542.739 725.301,-525.203"/>
<polygon fill="black" stroke="black" points="728.302,-527.004 730.565,-516.653 722.342,-523.333 728.302,-527.004"/>
<text  text-anchor="middle" font-family="Times Roman,serif" font-size="6.00" fill="Blue"><textPath xlink:href="#edge26_p" startOffset="50%"><tspan x="0" dy="-1">相同方式分享</tspan></textPath></text>
</g>

<!-- 雙向流通&#45;&gt;P2P -->
<g id="edge18" class="edge"><title>雙向流通&#45;&gt;P2P</title>
<path id="edge18_p" fill="none" stroke="black" d="M230.068,-755.538C254.44,-765.516 287.485,-779.044 312.06,-789.105"/>
<polygon fill="black" stroke="black" points="310.779,-792.362 321.359,-792.912 313.431,-785.884 310.779,-792.362"/>
</g>

<!-- 注意力稀有 -->
<g id="node23" class="node"><title>注意力稀有</title>
<ellipse fill="none" stroke="black" cx="553" cy="-591" rx="59.0322" ry="18"/>
<text text-anchor="middle" x="553" y="-586.4" font-family="Times Roman,serif" font-size="14.00">注意力稀有</text>
</g>

<!-- 資訊爆炸&#45;&gt;注意力稀有 -->
<g id="edge28" class="edge"><title>資訊爆炸&#45;&gt;注意力稀有</title>
<path id="edge28_p" fill="none" stroke="black" d="M384.935,-639.714C417.478,-630.282 464.201,-616.739 500.127,-606.326"/>
<polygon fill="black" stroke="black" points="501.322,-609.623 509.952,-603.478 499.373,-602.9 501.322,-609.623"/>
<text  text-anchor="middle" font-family="Times Roman,serif" font-size="6.00" fill="Blue"><textPath xlink:href="#edge28_p" startOffset="50%"><tspan x="0" dy="-1">Herbert Simon</tspan></textPath></text>
<text  text-anchor="middle" font-family="Times Roman,serif" font-size="6.00" fill="Blue"><textPath xlink:href="#edge28_p" startOffset="50%"><tspan x="0" dy="5">Michael Goldhaber</tspan></textPath></text>
</g>

<!-- web 2.0&#45;&gt;長尾現象 -->
<g id="edge57" class="edge"><title>web 2.0&#45;&gt;長尾現象</title>
<path id="edge57_p" fill="none" stroke="black" d="M395.618,-753.848C424.33,-756.447 461.17,-759.429 494,-761 660.035,-768.943 706.677,-803.069 868,-763 880.356,-759.931 892.938,-754.157 903.864,-748.118"/>
<polygon fill="black" stroke="black" points="905.723,-751.086 912.611,-743.036 902.206,-745.033 905.723,-751.086"/>
<text  text-anchor="middle" font-family="Times Roman,serif" font-size="6.00" fill="Blue"><textPath xlink:href="#edge57_p" startOffset="50%"><tspan x="0" dy="-1">供需管道暢通化</tspan></textPath></text>
</g>

<!-- SaaS -->
<g id="node19" class="node"><title>SaaS</title>
<ellipse fill="none" stroke="black" cx="1702" cy="-514" rx="36.0624" ry="18.3848"/>
<text text-anchor="middle" x="1702" y="-510.4" font-family="Times Roman,serif" font-size="14.00">SaaS</text>
</g>

<!-- 自由軟體&#45;&gt;SaaS -->
<g id="edge22" class="edge"><title>自由軟體&#45;&gt;SaaS</title>
<path id="edge22_p" fill="none" stroke="black" d="M1440.53,-612.05C1496.18,-591.182 1605.31,-550.258 1663.43,-528.464"/>
<polygon fill="black" stroke="black" points="1664.85,-531.669 1672.98,-524.881 1662.39,-525.115 1664.85,-531.669"/>
<text  text-anchor="middle" font-family="Times Roman,serif" font-size="6.00" fill="Blue"><textPath xlink:href="#edge22_p" startOffset="50%"><tspan x="0" dy="-1">telnet/ssh/rdesktop/vnc</tspan></textPath></text>
<text  text-anchor="middle" font-family="Times Roman,serif" font-size="6.00" fill="Blue"><textPath xlink:href="#edge22_p" startOffset="50%"><tspan x="0" dy="5">wiki/cms/ltsp/drbl</tspan></textPath></text>
</g>

<!-- 自由軟體&#45;&gt;長尾現象 -->
<g id="edge52" class="edge"><title>自由軟體&#45;&gt;長尾現象</title>
<path id="edge52_p" fill="none" stroke="black" d="M1363.22,-634.284C1276.9,-653.018 1082.13,-695.286 988.375,-715.634"/>
<polygon fill="black" stroke="black" points="987.569,-712.227 978.538,-717.768 989.053,-719.068 987.569,-712.227"/>
<text  text-anchor="middle" font-family="Times Roman,serif" font-size="6.00" fill="Blue"><textPath xlink:href="#edge52_p" startOffset="50%"><tspan x="0" dy="-7">創作工具民主化</tspan></textPath></text>
<text  text-anchor="middle" font-family="Times Roman,serif" font-size="6.00" fill="Blue"><textPath xlink:href="#edge52_p" startOffset="50%"><tspan x="0" dy="-1">gift culture</tspan></textPath></text>
<text  text-anchor="middle" font-family="Times Roman,serif" font-size="6.00" fill="Blue"><textPath xlink:href="#edge52_p" startOffset="50%"><tspan x="0" dy="5">網站自殘</tspan></textPath></text>
</g>

<!-- 智財商業模式式微 -->
<g id="node75" class="node"><title>智財商業模式式微</title>
<ellipse fill="none" stroke="black" cx="1974" cy="-656" rx="87.8775" ry="18"/>
<text text-anchor="middle" x="1974" y="-651.4" font-family="Times Roman,serif" font-size="14.00">智財商業模式式微</text>
</g>

<!-- 自由軟體&#45;&gt;智財商業模式式微 -->
<g id="edge102" class="edge"><title>自由軟體&#45;&gt;智財商業模式式微</title>
<path id="edge102_p" fill="none" stroke="black" d="M1465.78,-626.719C1538.62,-628.978 1665.41,-633.446 1774,-640 1809.76,-642.158 1849.07,-645.165 1883.3,-647.99"/>
<polygon fill="black" stroke="black" points="1465.54,-623.209 1455.44,-626.401 1465.32,-630.206 1465.54,-623.209"/>
<polygon fill="black" stroke="black" points="1883.03,-651.479 1893.28,-648.82 1883.61,-644.503 1883.03,-651.479"/>
<text  text-anchor="middle" font-family="Times Roman,serif" font-size="6.00" fill="Blue"><textPath xlink:href="#edge102_p" startOffset="50%"><tspan x="0" dy="-7">超級電腦</tspan></textPath></text>
<text  text-anchor="middle" font-family="Times Roman,serif" font-size="6.00" fill="Blue"><textPath xlink:href="#edge102_p" startOffset="50%"><tspan x="0" dy="-1">智慧手機</tspan></textPath></text>
<text  text-anchor="middle" font-family="Times Roman,serif" font-size="6.00" fill="Blue"><textPath xlink:href="#edge102_p" startOffset="50%"><tspan x="0" dy="5">好萊塢</tspan></textPath></text>
<text  text-anchor="middle" font-family="Times Roman,serif" font-size="6.00" fill="Blue"><textPath xlink:href="#edge102_p" startOffset="50%"><tspan x="0" dy="11">微軟潰堤</tspan></textPath></text>
</g>

<!-- 自由文化&#45;&gt;長尾現象 -->
<g id="edge50" class="edge"><title>自由文化&#45;&gt;長尾現象</title>
<path id="edge50_p" fill="none" stroke="black" d="M756.901,-516.512C791.05,-556.647 875.068,-655.389 914.68,-701.943"/>
<polygon fill="black" stroke="black" points="912.168,-704.392 921.314,-709.74 917.499,-699.856 912.168,-704.392"/>
<text  text-anchor="middle" font-family="Times Roman,serif" font-size="6.00" fill="Blue"><textPath xlink:href="#edge50_p" startOffset="50%"><tspan x="0" dy="-1">exposure culture</tspan></textPath></text>
</g>

<!-- 行銷類 PaaS -->
<g id="node55" class="node"><title>行銷類 PaaS</title>
<ellipse fill="none" stroke="black" cx="1406" cy="-530" rx="68.0887" ry="18.3848"/>
<text text-anchor="middle" x="1406" y="-526.4" font-family="Times Roman,serif" font-size="14.00">行銷類 PaaS</text>
</g>

<!-- 自由文化&#45;&gt;行銷類 PaaS -->
<g id="edge73" class="edge"><title>自由文化&#45;&gt;行銷類 PaaS</title>
<path id="edge73_p" fill="none" stroke="black" d="M784.302,-489.468C792.78,-487.79 801.649,-486.2 810,-485 895.636,-472.699 917.558,-472.559 1004,-469 1031.53,-467.867 1038.55,-466.557 1066,-469 1092.81,-471.386 1249.21,-500.422 1340.27,-517.559"/>
<polygon fill="black" stroke="black" points="1339.75,-521.022 1350.23,-519.434 1341.05,-514.143 1339.75,-521.022"/>
<text  text-anchor="middle" font-family="Times Roman,serif" font-size="6.00" fill="Blue"><textPath xlink:href="#edge73_p" startOffset="50%"><tspan x="0" dy="-7">mashup</tspan></textPath></text>
<text  text-anchor="middle" font-family="Times Roman,serif" font-size="6.00" fill="Blue"><textPath xlink:href="#edge73_p" startOffset="50%"><tspan x="0" dy="-1">programmable web</tspan></textPath></text>
<text  text-anchor="middle" font-family="Times Roman,serif" font-size="6.00" fill="Blue"><textPath xlink:href="#edge73_p" startOffset="50%"><tspan x="0" dy="5">google maps mania</tspan></textPath></text>
<text  text-anchor="middle" font-family="Times Roman,serif" font-size="6.00" fill="Blue"><textPath xlink:href="#edge73_p" startOffset="50%"><tspan x="0" dy="11">YQL</tspan></textPath></text>
</g>

<!-- 政府透明化 -->
<g id="node68" class="node"><title>政府透明化</title>
<ellipse fill="none" stroke="black" cx="1974" cy="-360" rx="59.0322" ry="18"/>
<text text-anchor="middle" x="1974" y="-355.4" font-family="Times Roman,serif" font-size="14.00">政府透明化</text>
</g>

<!-- 自由文化&#45;&gt;政府透明化 -->
<g id="edge100" class="edge"><title>自由文化&#45;&gt;政府透明化</title>
<path id="edge100_p" fill="none" stroke="black" stroke-dasharray="5,2" d="M771.628,-476.683C783.124,-468.887 796.706,-460.675 810,-455 841.926,-441.373 852.161,-444.739 886,-437 1036.85,-402.501 1072.19,-378.971 1226,-362 1356.17,-347.637 1745.55,-354.665 1904.88,-358.293"/>
<polygon fill="black" stroke="black" points="769.475,-473.918 763.284,-482.515 773.486,-479.655 769.475,-473.918"/>
<polygon fill="black" stroke="black" points="1904.96,-361.796 1915.04,-358.527 1905.12,-354.797 1904.96,-361.796"/>
<text  text-anchor="middle" font-family="Times Roman,serif" font-size="6.00" fill="Blue"><textPath xlink:href="#edge100_p" startOffset="50%"><tspan x="0" dy="-13">英國保守黨宣言</tspan></textPath></text>
<text  text-anchor="middle" font-family="Times Roman,serif" font-size="6.00" fill="Blue"><textPath xlink:href="#edge100_p" startOffset="50%"><tspan x="0" dy="-7">冰島群策憲法</tspan></textPath></text>
<text  text-anchor="middle" font-family="Times Roman,serif" font-size="6.00" fill="Blue"><textPath xlink:href="#edge100_p" startOffset="50%"><tspan x="0" dy="-1">波蘭透明化</tspan></textPath></text>
<text  text-anchor="middle" font-family="Times Roman,serif" font-size="6.00" fill="Blue"><textPath xlink:href="#edge100_p" startOffset="50%"><tspan x="0" dy="5">尼加拉瓜農業</tspan></textPath></text>
<text  text-anchor="middle" font-family="Times Roman,serif" font-size="6.00" fill="Blue"><textPath xlink:href="#edge100_p" startOffset="50%"><tspan x="0" dy="11">陽光基金會</tspan></textPath></text>
<text  text-anchor="middle" font-family="Times Roman,serif" font-size="6.00" fill="Blue"><textPath xlink:href="#edge100_p" startOffset="50%"><tspan x="0" dy="17">gapminder</tspan></textPath></text>
</g>

<!-- 自由文化&#45;&gt;智財商業模式式微 -->
<g id="edge104" class="edge"><title>自由文化&#45;&gt;智財商業模式式微</title>
<path id="edge104_p" fill="none" stroke="black" d="M799.897,-505.16C849.354,-510.481 922.382,-518.477 986,-526 1378.36,-572.395 1477.42,-577.459 1868,-637 1878.08,-638.537 1888.69,-640.282 1899.12,-642.077"/>
<polygon fill="black" stroke="black" points="800.03,-501.654 789.714,-504.066 799.283,-508.614 800.03,-501.654"/>
<polygon fill="black" stroke="black" points="1898.61,-645.54 1909.06,-643.807 1899.81,-638.644 1898.61,-645.54"/>
<text  text-anchor="middle" font-family="Times Roman,serif" font-size="6.00" fill="Blue"><textPath xlink:href="#edge104_p" startOffset="50%"><tspan x="0" dy="-1">獨立音樂人</tspan></textPath></text>
<text  text-anchor="middle" font-family="Times Roman,serif" font-size="6.00" fill="Blue"><textPath xlink:href="#edge104_p" startOffset="50%"><tspan x="0" dy="5">開放期刊</tspan></textPath></text>
</g>

<!-- P2P&#45;&gt;智財商業模式式微 -->
<g id="edge109" class="edge"><title>P2P&#45;&gt;智財商業模式式微</title>
<path id="edge109_p" fill="none" stroke="black" d="M375.026,-806.794C426.421,-813.508 536.805,-827.917 630,-840 657.553,-843.572 664.273,-846.219 692,-848 736.353,-850.85 747.563,-848.791 792,-848 1104.15,-842.444 1185.35,-869.94 1494,-823 1664.33,-797.095 1709.86,-789.387 1868,-721 1894.01,-709.754 1921.21,-692.954 1941.54,-679.251"/>
<polygon fill="black" stroke="black" points="1943.54,-682.127 1949.82,-673.593 1939.59,-676.35 1943.54,-682.127"/>
</g>

<!-- SaaS&#45;&gt;自由文化 -->
<g id="edge24" class="edge"><title>SaaS&#45;&gt;自由文化</title>
<path id="edge24_p" fill="none" stroke="black" d="M1666.1,-511.751C1569.37,-505.288 1305.29,-484.858 1226,-450 1216.47,-445.809 1217.79,-438.545 1208,-435 1156.18,-416.239 1138.98,-431.206 1084,-435 961.348,-443.465 929.075,-442.404 810,-473 801.284,-475.24 792.156,-478.245 783.519,-481.416"/>
<polygon fill="black" stroke="black" points="782.122,-478.203 774.025,-485.036 784.616,-484.744 782.122,-478.203"/>
<text  text-anchor="middle" font-family="Times Roman,serif" font-size="6.00" fill="Blue"><textPath xlink:href="#edge24_p" startOffset="50%"><tspan x="0" dy="-7">維基百科</tspan></textPath></text>
<text  text-anchor="middle" font-family="Times Roman,serif" font-size="6.00" fill="Blue"><textPath xlink:href="#edge24_p" startOffset="50%"><tspan x="0" dy="-1">open street map</tspan></textPath></text>
<text  text-anchor="middle" font-family="Times Roman,serif" font-size="6.00" fill="Blue"><textPath xlink:href="#edge24_p" startOffset="50%"><tspan x="0" dy="5">公民新聞</tspan></textPath></text>
<text  text-anchor="middle" font-family="Times Roman,serif" font-size="6.00" fill="Blue"><textPath xlink:href="#edge24_p" startOffset="50%"><tspan x="0" dy="11">flockdraw</tspan></textPath></text>
</g>

<!-- 隱私流失 -->
<g id="node38" class="node"><title>隱私流失</title>
<ellipse fill="none" stroke="black" cx="1974" cy="-192" rx="49.1393" ry="18"/>
<text text-anchor="middle" x="1974" y="-187.4" font-family="Times Roman,serif" font-size="14.00">隱私流失</text>
</g>

<!-- SaaS&#45;&gt;隱私流失 -->
<g id="edge84" class="edge"><title>SaaS&#45;&gt;隱私流失</title>
<path id="edge84_p" fill="none" stroke="black" d="M1729.19,-501.873C1744.44,-493.765 1762.64,-481.7 1774,-466 1791.57,-441.716 1777.81,-427.402 1792,-401 1833.33,-324.124 1907.48,-251.252 1947.18,-215.312"/>
<polygon fill="black" stroke="black" points="1949.52,-217.907 1954.64,-208.627 1944.85,-212.694 1949.52,-217.907"/>
</g>

<!-- SaaS&#45;&gt;智財商業模式式微 -->
<g id="edge106" class="edge"><title>SaaS&#45;&gt;智財商業模式式微</title>
<path id="edge106_p" fill="none" stroke="black" d="M1738.07,-515.34C1773.17,-517.989 1827.04,-525.712 1868,-548 1904.54,-567.884 1936.43,-604.484 1955.44,-629.518"/>
<polygon fill="black" stroke="black" points="1952.85,-631.897 1961.62,-637.843 1958.47,-627.727 1952.85,-631.897"/>
<text  text-anchor="middle" font-family="Times Roman,serif" font-size="6.00" fill="Blue"><textPath xlink:href="#edge106_p" startOffset="50%"><tspan x="0" dy="-1">wiki/prezi</tspan></textPath></text>
<text  text-anchor="middle" font-family="Times Roman,serif" font-size="6.00" fill="Blue"><textPath xlink:href="#edge106_p" startOffset="50%"><tspan x="0" dy="5">google {doc,cal,map,...}</tspan></textPath></text>
</g>

<!-- 注意力稀有&#45;&gt;自由文化 -->
<g id="edge36" class="edge"><title>注意力稀有&#45;&gt;自由文化</title>
<path id="edge36_p" fill="none" stroke="black" d="M584.634,-575.601C617.101,-559.798 667.685,-535.174 702.7,-518.13"/>
<polygon fill="black" stroke="black" points="704.676,-521.061 712.136,-513.537 701.612,-514.767 704.676,-521.061"/>
<text  text-anchor="middle" font-family="Times Roman,serif" font-size="6.00" fill="Blue"><textPath xlink:href="#edge36_p" startOffset="50%"><tspan x="0" dy="-1">創用 CC</tspan></textPath></text>
</g>

<!-- 搜尋引擎 -->
<g id="node25" class="node"><title>搜尋引擎</title>
<ellipse fill="none" stroke="black" cx="742" cy="-659" rx="49.1393" ry="18"/>
<text text-anchor="middle" x="742" y="-654.4" font-family="Times Roman,serif" font-size="14.00">搜尋引擎</text>
</g>

<!-- 注意力稀有&#45;&gt;搜尋引擎 -->
<g id="edge30" class="edge"><title>注意力稀有&#45;&gt;搜尋引擎</title>
<path id="edge30_p" fill="none" stroke="black" d="M591.247,-604.761C621.843,-615.769 664.809,-631.228 697.048,-642.827"/>
<polygon fill="black" stroke="black" points="696.088,-646.201 706.683,-646.293 698.458,-639.614 696.088,-646.201"/>
<text  text-anchor="middle" font-family="Times Roman,serif" font-size="6.00" fill="Blue"><textPath xlink:href="#edge30_p" startOffset="50%"><tspan x="0" dy="-1">google 崛起</tspan></textPath></text>
<text  text-anchor="middle" font-family="Times Roman,serif" font-size="6.00" fill="Blue"><textPath xlink:href="#edge30_p" startOffset="50%"><tspan x="0" dy="5">微軟想買雅虎</tspan></textPath></text>
</g>

<!-- 情緒決定\n資訊傳導度 -->
<g id="node27" class="node"><title>情緒決定\n資訊傳導度</title>
<ellipse fill="none" stroke="black" cx="1146" cy="-153" rx="62.2254" ry="28.2843"/>
<text text-anchor="middle" x="1146" y="-156.4" font-family="Times Roman,serif" font-size="14.00">情緒決定</text>
<text text-anchor="middle" x="1146" y="-140.4" font-family="Times Roman,serif" font-size="14.00">資訊傳導度</text>
</g>

<!-- 注意力稀有&#45;&gt;情緒決定\n資訊傳導度 -->
<g id="edge32" class="edge"><title>注意力稀有&#45;&gt;情緒決定\n資訊傳導度</title>
<path id="edge32_p" fill="none" stroke="black" d="M559.51,-572.991C575.635,-530.686 621.314,-423.881 692,-362 810.072,-258.636 987.897,-197.01 1082.12,-169.735"/>
<polygon fill="black" stroke="black" points="1083.15,-173.081 1091.81,-166.968 1081.23,-166.351 1083.15,-173.081"/>
<text  text-anchor="middle" font-family="Times Roman,serif" font-size="6.00" fill="Blue"><textPath xlink:href="#edge32_p" startOffset="50%"><tspan x="0" dy="-1">模因的適者生存</tspan></textPath></text>
</g>

<!-- 社交網站 -->
<g id="node29" class="node"><title>社交網站</title>
<ellipse fill="none" stroke="black" cx="1146" cy="-293" rx="49.1393" ry="18"/>
<text text-anchor="middle" x="1146" y="-288.4" font-family="Times Roman,serif" font-size="14.00">社交網站</text>
</g>

<!-- 注意力稀有&#45;&gt;社交網站 -->
<g id="edge34" class="edge"><title>注意力稀有&#45;&gt;社交網站</title>
<path id="edge34_p" fill="none" stroke="black" d="M567.81,-573.548C604.747,-530.96 705.517,-420.418 810,-355 895.417,-301.52 1015.45,-291.717 1086.52,-291.173"/>
<polygon fill="black" stroke="black" points="1086.65,-294.673 1096.65,-291.156 1086.64,-287.673 1086.65,-294.673"/>
<text  text-anchor="middle" font-family="Times Roman,serif" font-size="6.00" fill="Blue"><textPath xlink:href="#edge34_p" startOffset="50%"><tspan x="0" dy="-1">從 msn 到噗浪/臉書</tspan></textPath></text>
</g>

<!-- 廣告產業 -->
<g id="node32" class="node"><title>廣告產業</title>
<ellipse fill="none" stroke="black" cx="936" cy="-597" rx="49.1393" ry="18"/>
<text text-anchor="middle" x="936" y="-592.4" font-family="Times Roman,serif" font-size="14.00">廣告產業</text>
</g>

<!-- 注意力稀有&#45;&gt;廣告產業 -->
<g id="edge38" class="edge"><title>注意力稀有&#45;&gt;廣告產業</title>
<path id="edge38_p" fill="none" stroke="black" d="M612.004,-591.924C683.703,-593.048 804.006,-594.932 876.105,-596.062"/>
<polygon fill="black" stroke="black" points="876.327,-599.566 886.381,-596.223 876.437,-592.566 876.327,-599.566"/>
<text  text-anchor="middle" font-family="Times Roman,serif" font-size="6.00" fill="Blue"><textPath xlink:href="#edge38_p" startOffset="50%"><tspan x="0" dy="-7">臉書/google</tspan></textPath></text>
<text  text-anchor="middle" font-family="Times Roman,serif" font-size="6.00" fill="Blue"><textPath xlink:href="#edge38_p" startOffset="50%"><tspan x="0" dy="-1">置入性行銷</tspan></textPath></text>
<text  text-anchor="middle" font-family="Times Roman,serif" font-size="6.00" fill="Blue"><textPath xlink:href="#edge38_p" startOffset="50%"><tspan x="0" dy="5">證照卓越大學</tspan></textPath></text>
<text  text-anchor="middle" font-family="Times Roman,serif" font-size="6.00" fill="Blue"><textPath xlink:href="#edge38_p" startOffset="50%"><tspan x="0" dy="11">拋售點閱率</tspan></textPath></text>
</g>

<!-- 注意力稀有&#45;&gt;長尾現象 -->
<g id="edge69" class="edge"><title>注意力稀有&#45;&gt;長尾現象</title>
<path id="edge69_p" fill="none" stroke="black" stroke-dasharray="5,2" d="M580.121,-614.932C594.456,-627.031 612.639,-641.538 630,-653 700.03,-699.234 727.257,-696.02 810,-710 832.453,-713.794 857.271,-717.291 878.902,-720.114"/>
<polygon fill="black" stroke="black" points="582.037,-611.965 572.162,-608.127 577.489,-617.286 582.037,-611.965"/>
<polygon fill="black" stroke="black" points="878.552,-723.597 888.917,-721.403 879.446,-716.655 878.552,-723.597"/>
<text  text-anchor="middle" font-family="Times Roman,serif" font-size="6.00" fill="Blue"><textPath xlink:href="#edge69_p" startOffset="50%"><tspan x="0" dy="-1">聲譽經濟</tspan></textPath></text>
</g>

<!-- 搜尋引擎&#45;&gt;長尾現象 -->
<g id="edge58" class="edge"><title>搜尋引擎&#45;&gt;長尾現象</title>
<path id="edge58_p" fill="none" stroke="black" d="M777.856,-671.486C803.076,-680.276 837.611,-692.331 868,-703 875.392,-705.595 883.233,-708.356 890.863,-711.046"/>
<polygon fill="black" stroke="black" points="889.769,-714.371 900.363,-714.397 892.098,-707.77 889.769,-714.371"/>
<text  text-anchor="middle" font-family="Times Roman,serif" font-size="6.00" fill="Blue"><textPath xlink:href="#edge58_p" startOffset="50%"><tspan x="0" dy="-1">供需管道暢通化</tspan></textPath></text>
</g>

<!-- SEO -->
<g id="node50" class="node"><title>SEO</title>
<ellipse fill="none" stroke="black" cx="1146" cy="-627" rx="32.0265" ry="18.3848"/>
<text text-anchor="middle" x="1146" y="-623.4" font-family="Times Roman,serif" font-size="14.00">SEO</text>
</g>

<!-- 搜尋引擎&#45;&gt;SEO -->
<g id="edge61" class="edge"><title>搜尋引擎&#45;&gt;SEO</title>
<path id="edge61_p" fill="none" stroke="black" d="M790.732,-655.14C870.607,-648.813 1028.04,-636.343 1103.59,-630.359"/>
<polygon fill="black" stroke="black" points="1104,-633.838 1113.69,-629.559 1103.45,-626.859 1104,-633.838"/>
</g>

<!-- 搜尋引擎&#45;&gt;智財商業模式式微 -->
<g id="edge112" class="edge"><title>搜尋引擎&#45;&gt;智財商業模式式微</title>
<path id="edge112_p" fill="none" stroke="black" d="M791.171,-661.45C939.574,-668.45 1396.01,-687.096 1774,-672 1810.11,-670.558 1849.81,-667.656 1884.25,-664.715"/>
<polygon fill="black" stroke="black" points="1884.62,-668.196 1894.28,-663.845 1884.02,-661.222 1884.62,-668.196"/>
<text  text-anchor="middle" font-family="Times Roman,serif" font-size="6.00" fill="Blue"><textPath xlink:href="#edge112_p" startOffset="50%"><tspan x="0" dy="-7">DRM removal</tspan></textPath></text>
<text  text-anchor="middle" font-family="Times Roman,serif" font-size="6.00" fill="Blue"><textPath xlink:href="#edge112_p" startOffset="50%"><tspan x="0" dy="-1">HDCP master key</tspan></textPath></text>
<text  text-anchor="middle" font-family="Times Roman,serif" font-size="6.00" fill="Blue"><textPath xlink:href="#edge112_p" startOffset="50%"><tspan x="0" dy="5">open source alternative</tspan></textPath></text>
<text  text-anchor="middle" font-family="Times Roman,serif" font-size="6.00" fill="Blue"><textPath xlink:href="#edge112_p" startOffset="50%"><tspan x="0" dy="11">全部換正版</tspan></textPath></text>
</g>

<!-- 人肉搜索 -->
<g id="node34" class="node"><title>人肉搜索</title>
<ellipse fill="none" stroke="black" cx="1562" cy="-18" rx="49.1393" ry="18"/>
<text text-anchor="middle" x="1562" y="-13.4" font-family="Times Roman,serif" font-size="14.00">人肉搜索</text>
</g>

<!-- 情緒決定\n資訊傳導度&#45;&gt;人肉搜索 -->
<g id="edge40" class="edge"><title>情緒決定\n資訊傳導度&#45;&gt;人肉搜索</title>
<path id="edge40_p" fill="none" stroke="black" d="M1164,-125.955C1178.54,-106.111 1200.68,-79.9433 1226,-64 1311.47,-10.1702 1433.29,-7.83055 1504.35,-12.1433"/>
<polygon fill="black" stroke="black" points="1504.24,-15.644 1514.45,-12.8226 1504.71,-8.65974 1504.24,-15.644"/>
</g>

<!-- 未來在等待的人才 -->
<g id="node36" class="node"><title>未來在等待的人才</title>
<ellipse fill="none" stroke="black" cx="1406" cy="-210" rx="87.8775" ry="18"/>
<text text-anchor="middle" x="1406" y="-205.4" font-family="Times Roman,serif" font-size="14.00">未來在等待的人才</text>
</g>

<!-- 情緒決定\n資訊傳導度&#45;&gt;未來在等待的人才 -->
<g id="edge42" class="edge"><title>情緒決定\n資訊傳導度&#45;&gt;未來在等待的人才</title>
<path id="edge42_p" fill="none" stroke="black" d="M1197.88,-168.678C1207.21,-171.276 1216.86,-173.828 1226,-176 1258.94,-183.829 1295.62,-191.028 1327.23,-196.765"/>
<polygon fill="black" stroke="black" points="1326.84,-200.251 1337.3,-198.576 1328.08,-193.362 1326.84,-200.251"/>
</g>

<!-- NPO/社會企業 -->
<g id="node41" class="node"><title>NPO/社會企業</title>
<ellipse fill="none" stroke="black" cx="1406" cy="-64" rx="75.8684" ry="18.3848"/>
<text text-anchor="middle" x="1406" y="-60.4" font-family="Times Roman,serif" font-size="14.00">NPO/社會企業</text>
</g>

<!-- 情緒決定\n資訊傳導度&#45;&gt;NPO/社會企業 -->
<g id="edge47" class="edge"><title>情緒決定\n資訊傳導度&#45;&gt;NPO/社會企業</title>
<path id="edge47_p" fill="none" stroke="black" d="M1170.14,-126.865C1184.85,-112.654 1204.85,-96.1538 1226,-87 1254.96,-74.4651 1288.82,-68.2185 1319.31,-65.2581"/>
<polygon fill="black" stroke="black" points="1319.85,-68.7248 1329.51,-64.3758 1319.24,-61.7509 1319.85,-68.7248"/>
</g>

<!-- 政府與大企業\n惡行曝光 -->
<g id="node60" class="node"><title>政府與大企業\n惡行曝光</title>
<ellipse fill="none" stroke="black" cx="1702" cy="-312" rx="72.1249" ry="28.2843"/>
<text text-anchor="middle" x="1702" y="-315.4" font-family="Times Roman,serif" font-size="14.00">政府與大企業</text>
<text text-anchor="middle" x="1702" y="-299.4" font-family="Times Roman,serif" font-size="14.00">惡行曝光</text>
</g>

<!-- 情緒決定\n資訊傳導度&#45;&gt;政府與大企業\n惡行曝光 -->
<g id="edge78" class="edge"><title>情緒決定\n資訊傳導度&#45;&gt;政府與大企業\n惡行曝光</title>
<path id="edge78_p" fill="none" stroke="black" d="M1208.16,-154.144C1293.88,-156.438 1443.54,-163.224 1494,-183 1503.44,-186.698 1503.14,-192.073 1512,-197 1553.41,-220.04 1571.21,-209.87 1612,-234 1632.65,-246.214 1653.06,-263.377 1669.22,-278.495"/>
<polygon fill="black" stroke="black" points="1667.14,-281.349 1676.79,-285.722 1671.97,-276.285 1667.14,-281.349"/>
</g>

<!-- 史翠珊效應 -->
<g id="node62" class="node"><title>史翠珊效應</title>
<ellipse fill="none" stroke="black" cx="1406" cy="-118" rx="59.0322" ry="18"/>
<text text-anchor="middle" x="1406" y="-113.4" font-family="Times Roman,serif" font-size="14.00">史翠珊效應</text>
</g>

<!-- 情緒決定\n資訊傳導度&#45;&gt;史翠珊效應 -->
<g id="edge81" class="edge"><title>情緒決定\n資訊傳導度&#45;&gt;史翠珊效應</title>
<path id="edge81_p" fill="none" stroke="black" d="M1205.41,-144.804C1212.35,-143.854 1219.33,-142.903 1226,-142 1264.22,-136.824 1307.02,-131.114 1341.29,-126.562"/>
<polygon fill="black" stroke="black" points="1342.19,-129.974 1351.64,-125.189 1341.27,-123.035 1342.19,-129.974"/>
<text  text-anchor="middle" font-family="Times Roman,serif" font-size="6.00" fill="Blue"><textPath xlink:href="#edge81_p" startOffset="50%"><tspan x="0" dy="-1">09 F9</tspan></textPath></text>
</g>

<!-- 社交網站&#45;&gt;未來在等待的人才 -->
<g id="edge90" class="edge"><title>社交網站&#45;&gt;未來在等待的人才</title>
<path id="edge90_p" fill="none" stroke="black" d="M1168.01,-268.085C1182.8,-253.135 1203.63,-235.274 1226,-226 1251.68,-215.355 1281.15,-210.162 1308.71,-207.923"/>
<polygon fill="black" stroke="black" points="1165.23,-265.929 1160.85,-275.576 1170.29,-270.766 1165.23,-265.929"/>
<polygon fill="black" stroke="black" points="1309.04,-211.409 1318.77,-207.227 1308.55,-204.426 1309.04,-211.409"/>
<text  text-anchor="middle" font-family="Times Roman,serif" font-size="6.00" fill="Blue"><textPath xlink:href="#edge90_p" startOffset="50%"><tspan x="0" dy="-1">設計,故事,見林,</tspan></textPath></text>
<text  text-anchor="middle" font-family="Times Roman,serif" font-size="6.00" fill="Blue"><textPath xlink:href="#edge90_p" startOffset="50%"><tspan x="0" dy="5">關懷,玩耍,意義</tspan></textPath></text>
</g>

<!-- 社交網站&#45;&gt;隱私流失 -->
<g id="edge44" class="edge"><title>社交網站&#45;&gt;隱私流失</title>
<path id="edge44_p" fill="none" stroke="black" d="M1193.19,-287.244C1335.72,-269.858 1761.52,-217.919 1916.65,-198.996"/>
<polygon fill="black" stroke="black" points="1917.4,-202.43 1926.91,-197.744 1916.56,-195.481 1917.4,-202.43"/>
<text  text-anchor="middle" font-family="Times Roman,serif" font-size="6.00" fill="Blue"><textPath xlink:href="#edge44_p" startOffset="50%"><tspan x="0" dy="-1">律師調用臉書資料</tspan></textPath></text>
<text  text-anchor="middle" font-family="Times Roman,serif" font-size="6.00" fill="Blue"><textPath xlink:href="#edge44_p" startOffset="50%"><tspan x="0" dy="5">社交工程</tspan></textPath></text>
</g>

<!-- 社交網站&#45;&gt;NPO/社會企業 -->
<g id="edge48" class="edge"><title>社交網站&#45;&gt;NPO/社會企業</title>
<path id="edge48_p" fill="none" stroke="black" d="M1158.43,-275.519C1172.12,-255.608 1194.05,-221.714 1208,-190 1219.38,-164.126 1207.09,-150.007 1226,-129 1242.16,-111.057 1297.98,-92.5375 1343.23,-79.879"/>
<polygon fill="black" stroke="black" points="1344.29,-83.2184 1353,-77.1898 1342.43,-76.4694 1344.29,-83.2184"/>
</g>

<!-- 社交網站&#45;&gt;行銷類 PaaS -->
<g id="edge75" class="edge"><title>社交網站&#45;&gt;行銷類 PaaS</title>
<path id="edge75_p" fill="none" stroke="black" d="M1182.76,-305.267C1192.24,-310.055 1201.58,-316.494 1208,-325 1232.32,-357.202 1199.14,-383.883 1226,-414 1249.02,-439.802 1269.9,-420.994 1300,-438 1331.79,-455.96 1362.69,-484.419 1382.84,-504.93"/>
<polygon fill="black" stroke="black" points="1380.55,-507.601 1390.02,-512.364 1385.59,-502.739 1380.55,-507.601"/>
<text  text-anchor="middle" font-family="Times Roman,serif" font-size="6.00" fill="Blue"><textPath xlink:href="#edge75_p" startOffset="50%"><tspan x="0" dy="-1">&#39;推/噗/讚&#39; 按鈕</tspan></textPath></text>
</g>

<!-- 社交網站&#45;&gt;政府與大企業\n惡行曝光 -->
<g id="edge79" class="edge"><title>社交網站&#45;&gt;政府與大企業\n惡行曝光</title>
<path id="edge79_p" fill="none" stroke="black" d="M1195.34,-294.686C1291.02,-297.956 1502.64,-305.187 1619.86,-309.193"/>
<polygon fill="black" stroke="black" points="1619.74,-312.691 1629.86,-309.535 1619.98,-305.695 1619.74,-312.691"/>
</g>

<!-- 民主化 -->
<g id="node83" class="node"><title>民主化</title>
<ellipse fill="none" stroke="black" cx="2200" cy="-428" rx="39.0774" ry="18"/>
<text text-anchor="middle" x="2200" y="-423.4" font-family="Times Roman,serif" font-size="14.00">民主化</text>
</g>

<!-- 社交網站&#45;&gt;民主化 -->
<g id="edge122" class="edge"><title>社交網站&#45;&gt;民主化</title>
<path id="edge122_p" fill="none" stroke="black" d="M1187.52,-302.88C1199.9,-305.821 1213.5,-309.046 1226,-312 1509.59,-378.995 1576.7,-452.453 1868,-445 1968.42,-442.431 2085.77,-435.496 2150.6,-431.32"/>
<polygon fill="black" stroke="black" points="2151.17,-434.79 2160.93,-430.65 2150.72,-427.805 2151.17,-434.79"/>
<text  text-anchor="middle" font-family="Times Roman,serif" font-size="6.00" fill="Blue"><textPath xlink:href="#edge122_p" startOffset="50%"><tspan x="0" dy="-1">茉莉花革命</tspan></textPath></text>
<text  text-anchor="middle" font-family="Times Roman,serif" font-size="6.00" fill="Blue"><textPath xlink:href="#edge122_p" startOffset="50%"><tspan x="0" dy="5">大埔怪手</tspan></textPath></text>
</g>

<!-- 廣告產業&#45;&gt;SEO -->
<g id="edge62" class="edge"><title>廣告產業&#45;&gt;SEO</title>
<path id="edge62_p" fill="none" stroke="black" d="M982.085,-603.584C1018.57,-608.795 1069.08,-616.012 1104.36,-621.051"/>
<polygon fill="black" stroke="black" points="1103.94,-624.526 1114.33,-622.476 1104.93,-617.597 1103.94,-624.526"/>
</g>

<!-- 廣告產業&#45;&gt;行銷類 PaaS -->
<g id="edge71" class="edge"><title>廣告產業&#45;&gt;行銷類 PaaS</title>
<path id="edge71_p" fill="none" stroke="black" d="M982.352,-590.392C1065,-578.611 1238.25,-553.913 1335.65,-540.028"/>
<polygon fill="black" stroke="black" points="1336.3,-543.472 1345.7,-538.596 1335.31,-536.542 1336.3,-543.472"/>
<text  text-anchor="middle" font-family="Times Roman,serif" font-size="6.00" fill="Blue"><textPath xlink:href="#edge71_p" startOffset="50%"><tspan x="0" dy="-7">AddSense RSS</tspan></textPath></text>
<text  text-anchor="middle" font-family="Times Roman,serif" font-size="6.00" fill="Blue"><textPath xlink:href="#edge71_p" startOffset="50%"><tspan x="0" dy="-1">Amazon PA API</tspan></textPath></text>
<text  text-anchor="middle" font-family="Times Roman,serif" font-size="6.00" fill="Blue"><textPath xlink:href="#edge71_p" startOffset="50%"><tspan x="0" dy="5">流量統計</tspan></textPath></text>
</g>

<!-- 人肉搜索&#45;&gt;隱私流失 -->
<g id="edge85" class="edge"><title>人肉搜索&#45;&gt;隱私流失</title>
<path id="edge85_p" fill="none" stroke="black" d="M1605.29,-26.825C1666.19,-40.2801 1779.6,-69.1873 1868,-114 1897.33,-128.866 1927.17,-151.665 1947.69,-168.781"/>
<polygon fill="black" stroke="black" points="1945.46,-171.472 1955.35,-175.265 1949.98,-166.131 1945.46,-171.472"/>
</g>

<!-- 世界變平 -->
<g id="node70" class="node"><title>世界變平</title>
<ellipse fill="none" stroke="black" cx="2200" cy="-287" rx="49.1393" ry="18"/>
<text text-anchor="middle" x="2200" y="-282.4" font-family="Times Roman,serif" font-size="14.00">世界變平</text>
</g>

<!-- NPO/社會企業&#45;&gt;世界變平 -->
<g id="edge94" class="edge"><title>NPO/社會企業&#45;&gt;世界變平</title>
<path id="edge94_p" fill="none" stroke="black" d="M1482.29,-62.1062C1608.89,-61.8655 1867.7,-73.8422 2062,-165 2110.48,-187.747 2154.59,-232.942 2179.3,-261.481"/>
<polygon fill="black" stroke="black" points="2176.89,-264.054 2186.03,-269.408 2182.23,-259.521 2176.89,-264.054"/>
<text  text-anchor="middle" font-family="Times Roman,serif" font-size="6.00" fill="Blue"><textPath xlink:href="#edge94_p" startOffset="50%"><tspan x="0" dy="-7">每童一機</tspan></textPath></text>
<text  text-anchor="middle" font-family="Times Roman,serif" font-size="6.00" fill="Blue"><textPath xlink:href="#edge94_p" startOffset="50%"><tspan x="0" dy="-1">多揹一公斤</tspan></textPath></text>
<text  text-anchor="middle" font-family="Times Roman,serif" font-size="6.00" fill="Blue"><textPath xlink:href="#edge94_p" startOffset="50%"><tspan x="0" dy="5">OpenIDEO</tspan></textPath></text>
</g>

<!-- 長尾現象&#45;&gt;SEO -->
<g id="edge63" class="edge"><title>長尾現象&#45;&gt;SEO</title>
<path id="edge63_p" fill="none" stroke="black" d="M966.088,-712.672C1004.73,-694.273 1071.6,-662.427 1112.03,-643.176"/>
<polygon fill="black" stroke="black" points="1113.69,-646.262 1121.22,-638.802 1110.68,-639.942 1113.69,-646.262"/>
</g>

<!-- 長尾現象&#45;&gt;世界變平 -->
<g id="edge97" class="edge"><title>長尾現象&#45;&gt;世界變平</title>
<path id="edge97_p" fill="none" stroke="black" d="M959.708,-743.005C997.423,-766.869 1074.18,-809 1146,-809 1146,-809 1146,-809 1974,-809 2077.64,-809 2116.86,-489.618 2150,-401 2161.33,-370.713 2176.49,-336.886 2187.14,-314.004"/>
<polygon fill="black" stroke="black" points="2190.33,-315.45 2191.41,-304.91 2183.99,-312.479 2190.33,-315.45"/>
</g>

<!-- 長尾現象&#45;&gt;智財商業模式式微 -->
<g id="edge110" class="edge"><title>長尾現象&#45;&gt;智財商業模式式微</title>
<path id="edge110_p" fill="none" stroke="black" d="M983.795,-731.803C1122.51,-744.429 1536.37,-772.797 1868,-700 1890.24,-695.117 1913.76,-685.824 1932.97,-677.031"/>
<polygon fill="black" stroke="black" points="1934.47,-680.195 1942.03,-672.777 1931.49,-673.858 1934.47,-680.195"/>
</g>

<!-- SEO&#45;&gt;自由軟體 -->
<g id="edge66" class="edge"><title>SEO&#45;&gt;自由軟體</title>
<path id="edge66_p" fill="none" stroke="black" d="M1178.68,-624.996C1193.17,-624.203 1210.43,-623.389 1226,-623 1266.09,-621.998 1311.22,-622.503 1346.26,-623.256"/>
<polygon fill="black" stroke="black" points="1346.26,-626.757 1356.33,-623.486 1346.41,-619.759 1346.26,-626.757"/>
<text  text-anchor="middle" font-family="Times Roman,serif" font-size="6.00" fill="Blue"><textPath xlink:href="#edge66_p" startOffset="50%"><tspan x="0" dy="-1">網站自殘</tspan></textPath></text>
<text  text-anchor="middle" font-family="Times Roman,serif" font-size="6.00" fill="Blue"><textPath xlink:href="#edge66_p" startOffset="50%"><tspan x="0" dy="5">創用 CC</tspan></textPath></text>
</g>

<!-- SEO&#45;&gt;自由文化 -->
<g id="edge67" class="edge"><title>SEO&#45;&gt;自由文化</title>
<path id="edge67_p" fill="none" stroke="black" d="M1118.61,-617.035C1107.74,-612.915 1095.19,-607.95 1084,-603 1039.47,-583.3 1031.87,-570.362 986,-554 968.129,-547.625 860.928,-524.318 794.703,-510.171"/>
<polygon fill="black" stroke="black" points="795.356,-506.732 784.845,-508.068 793.895,-513.577 795.356,-506.732"/>
<text  text-anchor="middle" font-family="Times Roman,serif" font-size="6.00" fill="Blue"><textPath xlink:href="#edge67_p" startOffset="50%"><tspan x="0" dy="-1">網站自殘</tspan></textPath></text>
<text  text-anchor="middle" font-family="Times Roman,serif" font-size="6.00" fill="Blue"><textPath xlink:href="#edge67_p" startOffset="50%"><tspan x="0" dy="5">創用 CC</tspan></textPath></text>
</g>

<!-- 政府與大企業\n惡行曝光&#45;&gt;政府透明化 -->
<g id="edge92" class="edge"><title>政府與大企業\n惡行曝光&#45;&gt;政府透明化</title>
<path id="edge92_p" fill="none" stroke="black" d="M1767.84,-323.619C1811.95,-331.402 1869.61,-341.577 1912.73,-349.187"/>
<polygon fill="black" stroke="black" points="1912.35,-352.674 1922.8,-350.965 1913.56,-345.781 1912.35,-352.674"/>
</g>

<!-- 政府與大企業\n惡行曝光&#45;&gt;智財商業模式式微 -->
<g id="edge114" class="edge"><title>政府與大企業\n惡行曝光&#45;&gt;智財商業模式式微</title>
<path id="edge114_p" fill="none" stroke="black" d="M1728.44,-338.251C1762.45,-372.606 1822.54,-435.357 1868,-494 1903.2,-539.406 1938.65,-596.399 1958.32,-629.264"/>
<polygon fill="black" stroke="black" points="1955.32,-631.06 1963.44,-637.864 1961.34,-627.48 1955.32,-631.06"/>
<text  text-anchor="middle" font-family="Times Roman,serif" font-size="6.00" fill="Blue"><textPath xlink:href="#edge114_p" startOffset="50%"><tspan x="0" dy="-7">ACTA 解密</tspan></textPath></text>
<text  text-anchor="middle" font-family="Times Roman,serif" font-size="6.00" fill="Blue"><textPath xlink:href="#edge114_p" startOffset="50%"><tspan x="0" dy="-1">片面反盜版</tspan></textPath></text>
<text  text-anchor="middle" font-family="Times Roman,serif" font-size="6.00" fill="Blue"><textPath xlink:href="#edge114_p" startOffset="50%"><tspan x="0" dy="5">OOXML 醜聞</tspan></textPath></text>
</g>

<!-- 政府與大企業\n惡行曝光&#45;&gt;民主化 -->
<g id="edge119" class="edge"><title>政府與大企業\n惡行曝光&#45;&gt;民主化</title>
<path id="edge119_p" fill="none" stroke="black" d="M1772.14,-305.164C1846.29,-300.418 1965.63,-299.926 2062,-333 2106.38,-348.23 2149.62,-381.987 2175.54,-404.875"/>
<polygon fill="black" stroke="black" points="2173.24,-407.509 2183.01,-411.597 2177.92,-402.306 2173.24,-407.509"/>
</g>

<!-- 史翠珊效應&#45;&gt;隱私流失 -->
<g id="edge86" class="edge"><title>史翠珊效應&#45;&gt;隱私流失</title>
<path id="edge86_p" fill="none" stroke="black" d="M1463.37,-122.382C1504.75,-125.764 1561.91,-130.89 1612,-137 1721.16,-150.315 1848.09,-170.75 1918.93,-182.602"/>
<polygon fill="black" stroke="black" points="1918.53,-186.083 1928.97,-184.286 1919.69,-179.179 1918.53,-186.083"/>
</g>

<!-- 史翠珊效應&#45;&gt;政府與大企業\n惡行曝光 -->
<g id="edge88" class="edge"><title>史翠珊效應&#45;&gt;政府與大企業\n惡行曝光</title>
<path id="edge88_p" fill="none" stroke="black" d="M1459.4,-125.758C1516.21,-134.382 1599.63,-148.247 1612,-157 1652.4,-185.591 1677.34,-238.484 1690.43,-274.447"/>
<polygon fill="black" stroke="black" points="1687.21,-275.825 1693.82,-284.107 1693.81,-273.512 1687.21,-275.825"/>
<text  text-anchor="middle" font-family="Times Roman,serif" font-size="6.00" fill="Blue"><textPath xlink:href="#edge88_p" startOffset="50%"><tspan x="0" dy="-13">Sony 入侵用戶電腦</tspan></textPath></text>
<text  text-anchor="middle" font-family="Times Roman,serif" font-size="6.00" fill="Blue"><textPath xlink:href="#edge88_p" startOffset="50%"><tspan x="0" dy="-7">遙控數位枷鎖</tspan></textPath></text>
<text  text-anchor="middle" font-family="Times Roman,serif" font-size="6.00" fill="Blue"><textPath xlink:href="#edge88_p" startOffset="50%"><tspan x="0" dy="-1">維基解密</tspan></textPath></text>
<text  text-anchor="middle" font-family="Times Roman,serif" font-size="6.00" fill="Blue"><textPath xlink:href="#edge88_p" startOffset="50%"><tspan x="0" dy="5">ACTA 密約</tspan></textPath></text>
<text  text-anchor="middle" font-family="Times Roman,serif" font-size="6.00" fill="Blue"><textPath xlink:href="#edge88_p" startOffset="50%"><tspan x="0" dy="11">http://streisand.me/</tspan></textPath></text>
</g>

<!-- 政府透明化&#45;&gt;世界變平 -->
<g id="edge98" class="edge"><title>政府透明化&#45;&gt;世界變平</title>
<path id="edge98_p" fill="none" stroke="black" d="M2014.67,-346.865C2053.53,-334.312 2112.08,-315.4 2152.94,-302.202"/>
<polygon fill="black" stroke="black" points="2154.22,-305.465 2162.66,-299.061 2152.07,-298.804 2154.22,-305.465"/>
</g>

<!-- 政府透明化&#45;&gt;民主化 -->
<g id="edge120" class="edge"><title>政府透明化&#45;&gt;民主化</title>
<path id="edge120_p" fill="none" stroke="black" d="M2016.24,-372.711C2056.41,-384.795 2116.52,-402.883 2156.95,-415.047"/>
<polygon fill="black" stroke="black" points="2156.19,-418.474 2166.78,-418.004 2158.21,-411.771 2156.19,-418.474"/>
</g>

<!-- 智財商業模式式微&#45;&gt;民主化 -->
<g id="edge116" class="edge"><title>智財商業模式式微&#45;&gt;民主化</title>
<path id="edge116_p" fill="none" stroke="black" d="M1991.73,-638.109C2032.15,-597.338 2131.09,-497.524 2176.51,-451.701"/>
<polygon fill="black" stroke="black" points="2179.02,-454.135 2183.58,-444.569 2174.05,-449.208 2179.02,-454.135"/>
<text  text-anchor="middle" font-family="Times Roman,serif" font-size="6.00" fill="Blue"><textPath xlink:href="#edge116_p" startOffset="50%"><tspan x="0" dy="-13">DRM 集權崩盤</tspan></textPath></text>
<text  text-anchor="middle" font-family="Times Roman,serif" font-size="6.00" fill="Blue"><textPath xlink:href="#edge116_p" startOffset="50%"><tspan x="0" dy="-7">kindle 1984 事件</tspan></textPath></text>
<text  text-anchor="middle" font-family="Times Roman,serif" font-size="6.00" fill="Blue"><textPath xlink:href="#edge116_p" startOffset="50%"><tspan x="0" dy="-1">盜版警察曝光</tspan></textPath></text>
<text  text-anchor="middle" font-family="Times Roman,serif" font-size="6.00" fill="Blue"><textPath xlink:href="#edge116_p" startOffset="50%"><tspan x="0" dy="5">資訊人權貴時代</tspan></textPath></text>
<text  text-anchor="middle" font-family="Times Roman,serif" font-size="6.00" fill="Blue"><textPath xlink:href="#edge116_p" startOffset="50%"><tspan x="0" dy="11">外星人棋局曝光</tspan></textPath></text>
</g>

</g>

</svg>
