<?xml version="1.0" encoding="UTF-8" standalone="no"?>
<!DOCTYPE svg PUBLIC "-//W3C//DTD SVG 1.1//EN"
 "http://www.w3.org/Graphics/SVG/1.1/DTD/svg11.dtd">
<!-- Generated by graphviz version 2.26.3 (20100126.1600)
 -->
<!-- Title: Network Phenomena Map Pages: 1 -->
<svg width="1888pt" height="854pt"
 viewBox="0.00 0.00 1888.00 853.88" xmlns="http://www.w3.org/2000/svg" xmlns:xlink="http://www.w3.org/1999/xlink">
<g id="graph1" class="graph" transform="scale(1 1) rotate(0) translate(4 849.877)">
<title>Network Phenomena Map</title>
<polygon fill="white" stroke="white" points="-4,5 -4,-849.877 1885,-849.877 1885,5 -4,5"/>
<!-- Internet -->
<g id="node1" class="node"><title>Internet</title>
<ellipse fill="none" stroke="black" cx="53" cy="-710" rx="53.033" ry="18.3848"/>
<text text-anchor="middle" x="53" y="-706.4" font-family="Times Roman,serif" font-size="14.00">Internet</text>
</g>

<!-- $0@copy -->
<g id="node4" class="node"><title>$0@copy</title>
<ellipse fill="none" stroke="black" cx="208" cy="-654" rx="56.7776" ry="18.3848"/>
<text text-anchor="middle" x="208" y="-650.4" font-family="Times Roman,serif" font-size="14.00">$0@copy</text>
</g>

<!-- Internet&#45;&gt;$0@copy -->
<g id="edge3" class="edge"><title>Internet&#45;&gt;$0@copy</title>
<path fill="none" stroke="black" d="M89.3406,-696.87C110.637,-689.176 137.774,-679.372 160.72,-671.082"/>
<polygon fill="black" stroke="black" points="162.053,-674.322 170.269,-667.632 159.674,-667.738 162.053,-674.322"/>
</g>

<!-- read/write -->
<g id="node5" class="node"><title>read/write</title>
<ellipse fill="none" stroke="black" cx="208" cy="-768" rx="63.1385" ry="18.3848"/>
<text text-anchor="middle" x="208" y="-764.4" font-family="Times Roman,serif" font-size="14.00">read/write</text>
</g>

<!-- Internet&#45;&gt;read/write -->
<g id="edge4" class="edge"><title>Internet&#45;&gt;read/write</title>
<path fill="none" stroke="black" d="M88.9497,-723.452C110.078,-731.358 137.055,-741.453 159.985,-750.033"/>
<polygon fill="black" stroke="black" points="158.944,-753.38 169.536,-753.607 161.397,-746.824 158.944,-753.38"/>
</g>

<!-- information\noverflow -->
<g id="node9" class="node"><title>information\noverflow</title>
<ellipse fill="none" stroke="black" cx="447" cy="-742" rx="70.0036" ry="31.1127"/>
<text text-anchor="middle" x="447" y="-747.4" font-family="Times Roman,serif" font-size="14.00">information</text>
<text text-anchor="middle" x="447" y="-729.4" font-family="Times Roman,serif" font-size="14.00">overflow</text>
</g>

<!-- $0@copy&#45;&gt;information\noverflow -->
<g id="edge8" class="edge"><title>$0@copy&#45;&gt;information\noverflow</title>
<path fill="none" stroke="black" d="M255.123,-664.435C283.133,-671.252 319.108,-681.093 350,-693 350.633,-693.244 370.318,-703.18 391.789,-714.041"/>
<polygon fill="black" stroke="black" points="390.217,-717.168 400.72,-718.56 393.377,-710.922 390.217,-717.168"/>
</g>

<!-- web 2.0 -->
<g id="node10" class="node"><title>web 2.0</title>
<ellipse fill="none" stroke="black" cx="447" cy="-809" rx="51.1176" ry="18.3848"/>
<text text-anchor="middle" x="447" y="-805.4" font-family="Times Roman,serif" font-size="14.00">web 2.0</text>
</g>

<!-- $0@copy&#45;&gt;web 2.0 -->
<g id="edge9" class="edge"><title>$0@copy&#45;&gt;web 2.0</title>
<path fill="none" stroke="black" d="M241.428,-668.65C282.797,-686.84 348.076,-715.765 350,-718 369.277,-740.393 347.69,-760.538 368,-782 374.365,-788.726 382.474,-793.777 391.059,-797.569"/>
<polygon fill="black" stroke="black" points="389.913,-800.878 400.502,-801.21 392.431,-794.347 389.913,-800.878"/>
</g>

<!-- free software -->
<g id="node13" class="node"><title>free software</title>
<ellipse fill="none" stroke="black" cx="447" cy="-675" rx="79.196" ry="18.3848"/>
<text text-anchor="middle" x="447" y="-671.4" font-family="Times Roman,serif" font-size="14.00">free software</text>
</g>

<!-- $0@copy&#45;&gt;free software -->
<g id="edge14" class="edge"><title>$0@copy&#45;&gt;free software</title>
<path fill="none" stroke="black" d="M263.432,-658.871C292.925,-661.462 329.809,-664.703 362.764,-667.598"/>
<polygon fill="black" stroke="black" points="362.584,-671.096 372.852,-668.485 363.197,-664.123 362.584,-671.096"/>
</g>

<!-- free culture -->
<g id="node14" class="node"><title>free culture</title>
<ellipse fill="none" stroke="black" cx="1141" cy="-590" rx="70.9184" ry="18.3848"/>
<text text-anchor="middle" x="1141" y="-586.4" font-family="Times Roman,serif" font-size="14.00">free culture</text>
</g>

<!-- $0@copy&#45;&gt;free culture -->
<g id="edge15" class="edge"><title>$0@copy&#45;&gt;free culture</title>
<path fill="none" stroke="black" d="M247.765,-640.997C310.073,-621.406 434.883,-585.3 544,-573 731.031,-551.917 952.985,-569.28 1066.3,-581.167"/>
<polygon fill="black" stroke="black" points="1065.95,-584.649 1076.26,-582.227 1066.69,-577.688 1065.95,-584.649"/>
</g>

<!-- P2P -->
<g id="node15" class="node"><title>P2P</title>
<ellipse fill="none" stroke="black" cx="581" cy="-461" rx="29.1951" ry="18.3848"/>
<text text-anchor="middle" x="581" y="-457.4" font-family="Times Roman,serif" font-size="14.00">P2P</text>
</g>

<!-- $0@copy&#45;&gt;P2P -->
<g id="edge16" class="edge"><title>$0@copy&#45;&gt;P2P</title>
<path fill="none" stroke="black" d="M218.855,-636.053C232.626,-614.962 258.427,-580.611 290,-563 383.111,-511.064 432.454,-571.147 526,-520 540.975,-511.813 554.157,-498.049 563.859,-485.874"/>
<polygon fill="black" stroke="black" points="566.74,-487.867 569.999,-477.786 561.165,-483.634 566.74,-487.867"/>
</g>

<!-- long tails -->
<g id="node38" class="node"><title>long tails</title>
<ellipse fill="none" stroke="black" cx="747" cy="-609" rx="58.1882" ry="18.3848"/>
<text text-anchor="middle" x="747" y="-605.4" font-family="Times Roman,serif" font-size="14.00">long tails</text>
</g>

<!-- $0@copy&#45;&gt;long tails -->
<g id="edge46" class="edge"><title>$0@copy&#45;&gt;long tails</title>
<path id="edge46_p" fill="none" stroke="black" d="M259.403,-645.92C290.72,-641.25 331.587,-635.603 368,-632 476.232,-621.291 602.38,-614.832 678.394,-611.593"/>
<polygon fill="black" stroke="black" points="678.936,-615.074 688.78,-611.158 678.642,-608.08 678.936,-615.074"/>
<text  text-anchor="middle" font-family="Times Roman,serif" font-size="6.00" fill="Blue"><textPath
    xlink:href="#edge46_p" startOffset="50%"><tspan x="0" dy="0">democratization of</tspan>
<tspan x="0" dy="6">distribution tools</tspan></textPath></text>
</g>

<!-- read/write&#45;&gt;information\noverflow -->
<g id="edge10" class="edge"><title>read/write&#45;&gt;information\noverflow</title>
<path fill="none" stroke="black" d="M268.495,-762.369C293.709,-759.936 323.287,-756.969 350,-754 356.253,-753.305 362.73,-752.56 369.234,-751.793"/>
<polygon fill="black" stroke="black" points="369.934,-755.234 379.449,-750.575 369.105,-748.284 369.934,-755.234"/>
</g>

<!-- read/write&#45;&gt;web 2.0 -->
<g id="edge11" class="edge"><title>read/write&#45;&gt;web 2.0</title>
<path fill="none" stroke="black" d="M262.532,-777.355C300.852,-783.929 351.978,-792.699 390.687,-799.34"/>
<polygon fill="black" stroke="black" points="390.301,-802.824 400.749,-801.066 391.484,-795.925 390.301,-802.824"/>
</g>

<!-- read/write&#45;&gt;free software -->
<g id="edge18" class="edge"><title>read/write&#45;&gt;free software</title>
<path id="edge18_p" fill="none" stroke="black" d="M243.016,-752.8C275.261,-738.984 324.54,-718.325 368,-702 375.802,-699.069 384.085,-696.093 392.238,-693.24"/>
<polygon fill="black" stroke="black" points="393.412,-696.537 401.715,-689.956 391.12,-689.923 393.412,-696.537"/>
<text  text-anchor="middle" font-family="Times Roman,serif" font-size="6.00" fill="Blue"><textPath
    xlink:href="#edge18_p" startOffset="50%"><tspan x="0" dy="0">copyleft</tspan>
<tspan x="0" dy="6">patch</tspan></textPath></text>
</g>

<!-- read/write&#45;&gt;free culture -->
<g id="edge24" class="edge"><title>read/write&#45;&gt;free culture</title>
<path id="edge24_p" fill="none" stroke="black" d="M236.347,-784.207C267.474,-800.992 319.497,-826.121 368,-836 436.809,-850.015 456.808,-847.985 526,-836 753.857,-796.532 842.054,-813.379 1016,-661 1029.16,-649.474 1020.74,-637.404 1034,-626 1045.29,-616.293 1059.3,-609.176 1073.43,-603.968"/>
<polygon fill="black" stroke="black" points="1074.84,-607.184 1083.19,-600.659 1072.6,-600.554 1074.84,-607.184"/>
<text  text-anchor="middle" font-family="Times Roman,serif" font-size="6.00" fill="Blue"><textPath
    xlink:href="#edge24_p" startOffset="50%">share&#45;alike</textPath></text>
</g>

<!-- attention\nscarcity -->
<g id="node22" class="node"><title>attention\nscarcity</title>
<ellipse fill="none" stroke="black" cx="208" cy="-331" rx="58.1882" ry="31.1127"/>
<text text-anchor="middle" x="208" y="-336.4" font-family="Times Roman,serif" font-size="14.00">attention</text>
<text text-anchor="middle" x="208" y="-318.4" font-family="Times Roman,serif" font-size="14.00">scarcity</text>
</g>

<!-- information\noverflow&#45;&gt;attention\nscarcity -->
<g id="edge26" class="edge"><title>information\noverflow&#45;&gt;attention\nscarcity</title>
<path id="edge26_p" fill="none" stroke="black" d="M393.497,-721.76C384.119,-716.413 375.105,-709.877 368,-702 353.018,-685.39 358.492,-675.694 350,-655 307.508,-551.45 253.548,-431.127 225.985,-370.395"/>
<polygon fill="black" stroke="black" points="229.117,-368.827 221.794,-361.171 222.744,-371.723 229.117,-368.827"/>
<text  text-anchor="middle" font-family="Times Roman,serif" font-size="6.00" fill="Blue"><textPath
    xlink:href="#edge26_p" startOffset="50%"><tspan x="0" dy="0">Herbert Simon</tspan>
<tspan x="0" dy="6">Michael Goldhaber</tspan></textPath></text>
</g>

<!-- web 2.0&#45;&gt;long tails -->
<g id="edge49" class="edge"><title>web 2.0&#45;&gt;long tails</title>
<path id="edge49_p" fill="none" stroke="black" d="M492.961,-800.679C504.891,-796.675 516.923,-790.753 526,-782 542.102,-766.474 529.242,-751.809 544,-735 568.666,-706.905 594.112,-723.76 618,-695 634.704,-674.889 617.085,-657.046 636,-639 648.081,-627.475 664.116,-620.278 680.233,-615.812"/>
<polygon fill="black" stroke="black" points="681.358,-619.14 690.243,-613.37 679.699,-612.34 681.358,-619.14"/>
<text  text-anchor="middle" font-family="Times Roman,serif" font-size="6.00" fill="Blue"><textPath
    xlink:href="#edge49_p" startOffset="50%"><tspan x="0" dy="0">connecting</tspan>
<tspan x="0" dy="6">demand+supply</tspan></textPath></text>
</g>

<!-- SaaS -->
<g id="node18" class="node"><title>SaaS</title>
<ellipse fill="none" stroke="black" cx="747" cy="-666" rx="36.0624" ry="18.3848"/>
<text text-anchor="middle" x="747" y="-662.4" font-family="Times Roman,serif" font-size="14.00">SaaS</text>
</g>

<!-- free software&#45;&gt;SaaS -->
<g id="edge20" class="edge"><title>free software&#45;&gt;SaaS</title>
<path id="edge20_p" fill="none" stroke="black" d="M526.191,-674.775C555.091,-674.508 588.03,-673.988 618,-673 645.558,-672.092 676.398,-670.441 701.012,-668.971"/>
<polygon fill="black" stroke="black" points="701.382,-672.455 711.151,-668.355 700.957,-665.468 701.382,-672.455"/>
<text  text-anchor="middle" font-family="Times Roman,serif" font-size="6.00" fill="Blue"><textPath
    xlink:href="#edge20_p" startOffset="50%"><tspan x="0" dy="0">telnet/ssh/rdesktop/vnc</tspan>
<tspan x="0" dy="6">wiki/cms/ltsp/drbl</tspan></textPath></text>
</g>

<!-- free software&#45;&gt;long tails -->
<g id="edge44" class="edge"><title>free software&#45;&gt;long tails</title>
<path id="edge44_p" fill="none" stroke="black" d="M502.889,-662.228C516.346,-659.179 530.682,-655.954 544,-653 592.683,-642.203 648.003,-630.233 688.585,-621.506"/>
<polygon fill="black" stroke="black" points="689.531,-624.883 698.572,-619.36 688.06,-618.039 689.531,-624.883"/>
<text  text-anchor="middle" font-family="Times Roman,serif" font-size="6.00" fill="Blue"><textPath
    xlink:href="#edge44_p" startOffset="50%"><tspan x="0" dy="0">democratization of</tspan>
<tspan x="0" dy="6">production tools</tspan></textPath></text>
</g>

<!-- IP model failing -->
<g id="node67" class="node"><title>IP model failing</title>
<ellipse fill="none" stroke="black" cx="1467" cy="-522" rx="90.0096" ry="18.3848"/>
<text text-anchor="middle" x="1467" y="-518.4" font-family="Times Roman,serif" font-size="14.00">IP model failing</text>
</g>

<!-- free software&#45;&gt;IP model failing -->
<g id="edge87" class="edge"><title>free software&#45;&gt;IP model failing</title>
<path id="edge87_p" fill="none" stroke="black" d="M514.604,-692.318C518.8,-695.081 522.666,-698.285 526,-702 550.341,-729.124 515.542,-759.233 544,-782 556.206,-791.765 621.958,-815.75 1016,-771 1168.25,-753.709 1246.47,-812.164 1354,-703 1384.77,-671.763 1350.4,-644.157 1372,-606 1386.01,-581.247 1410.08,-560.084 1430.48,-545.191"/>
<polygon fill="black" stroke="black" points="516.026,-689.102 505.596,-687.242 512.59,-695.2 516.026,-689.102"/>
<polygon fill="black" stroke="black" points="1432.53,-548.032 1438.67,-539.4 1428.48,-542.317 1432.53,-548.032"/>
<text  text-anchor="middle" font-family="Times Roman,serif" font-size="6.00" fill="Blue"><textPath
    xlink:href="#edge87_p" startOffset="50%"><tspan x="0" dy="-6">Supercomputers</tspan>
<tspan x="0" dy="6">smart phones</tspan>
<tspan x="0" dy="6">Hollywood</tspan>
<tspan x="0" dy="6">Microsoft failing</tspan></textPath></text>
</g>

<!-- ad&#45;style PaaS -->
<g id="node46" class="node"><title>ad&#45;style PaaS</title>
<ellipse fill="none" stroke="black" cx="1467" cy="-113" rx="79.196" ry="18.3848"/>
<text text-anchor="middle" x="1467" y="-109.4" font-family="Times Roman,serif" font-size="14.00">ad&#45;style PaaS</text>
</g>

<!-- free culture&#45;&gt;ad&#45;style PaaS -->
<g id="edge58" class="edge"><title>free culture&#45;&gt;ad&#45;style PaaS</title>
<path id="edge58_p" fill="none" stroke="black" d="M1153.68,-572.056C1175.75,-540.09 1221.39,-470.572 1248,-406 1260.08,-376.698 1250.99,-364.915 1266,-337 1311.18,-252.95 1394.2,-174.818 1438.07,-136.938"/>
<polygon fill="black" stroke="black" points="1440.46,-139.499 1445.79,-130.342 1435.91,-134.178 1440.46,-139.499"/>
<text  text-anchor="middle" font-family="Times Roman,serif" font-size="6.00" fill="Blue"><textPath
    xlink:href="#edge58_p" startOffset="50%"><tspan x="0" dy="-6">mashup</tspan>
<tspan x="0" dy="6">programmable web</tspan>
<tspan x="0" dy="6">google maps mania</tspan>
<tspan x="0" dy="6">YQL</tspan></textPath></text>
</g>

<!-- transparent gov. -->
<g id="node60" class="node"><title>transparent gov.</title>
<ellipse fill="none" stroke="black" cx="1467" cy="-633" rx="94.7523" ry="18.3848"/>
<text text-anchor="middle" x="1467" y="-629.4" font-family="Times Roman,serif" font-size="14.00">transparent gov.</text>
</g>

<!-- free culture&#45;&gt;transparent gov. -->
<g id="edge85" class="edge"><title>free culture&#45;&gt;transparent gov.</title>
<path id="edge85_p" fill="none" stroke="black" stroke-dasharray="5,2" d="M1188.61,-609.238C1207.25,-616.975 1228.74,-626.148 1248,-635 1256.13,-638.736 1257.29,-641.945 1266,-644 1306.59,-653.582 1353.01,-651.84 1391.01,-647.25"/>
<polygon fill="black" stroke="black" points="1189.73,-605.912 1179.15,-605.332 1187.05,-612.383 1189.73,-605.912"/>
<polygon fill="black" stroke="black" points="1391.52,-650.713 1400.99,-645.957 1390.62,-643.771 1391.52,-650.713"/>
<text  text-anchor="middle" font-family="Times Roman,serif" font-size="6.00" fill="Blue"><textPath
    xlink:href="#edge85_p" startOffset="50%"><tspan x="0" dy="-12">conservative manifesto</tspan>
<tspan x="0" dy="6">crowdsourcing constitution</tspan>
<tspan x="0" dy="6">transparent Poland</tspan>
<tspan x="0" dy="6">Nicaragua agriculture</tspan>
<tspan x="0" dy="6">sunlight foundation</tspan>
<tspan x="0" dy="6">gapminder agriculture</tspan></textPath></text>
</g>

<!-- free culture&#45;&gt;IP model failing -->
<g id="edge89" class="edge"><title>free culture&#45;&gt;IP model failing</title>
<path id="edge89_p" fill="none" stroke="black" d="M1214.73,-580.134C1255.94,-574.059 1308.09,-565.436 1354,-555 1372.24,-550.853 1391.89,-545.452 1409.6,-540.224"/>
<polygon fill="black" stroke="black" points="1214.16,-576.68 1204.77,-581.585 1215.17,-583.607 1214.16,-576.68"/>
<polygon fill="black" stroke="black" points="1410.65,-543.565 1419.22,-537.347 1408.64,-536.859 1410.65,-543.565"/>
<text  text-anchor="middle" font-family="Times Roman,serif" font-size="6.00" fill="Blue"><textPath
    xlink:href="#edge89_p" startOffset="50%"><tspan x="0" dy="0">independent musicians</tspan>
<tspan x="0" dy="6">DOAJ</tspan></textPath></text>
</g>

<!-- P2P&#45;&gt;IP model failing -->
<g id="edge94" class="edge"><title>P2P&#45;&gt;IP model failing</title>
<path fill="none" stroke="black" d="M610.479,-463.03C728.974,-471.188 1173.66,-501.804 1371.3,-515.411"/>
<polygon fill="black" stroke="black" points="1371.16,-518.91 1381.38,-516.105 1371.64,-511.926 1371.16,-518.91"/>
</g>

<!-- SaaS&#45;&gt;free culture -->
<g id="edge22" class="edge"><title>SaaS&#45;&gt;free culture</title>
<path id="edge22_p" fill="none" stroke="black" d="M780.678,-659.461C806.706,-654.41 843.634,-647.251 876,-641 943.417,-627.98 1020.49,-613.153 1074.07,-602.855"/>
<polygon fill="black" stroke="black" points="1074.97,-606.247 1084.13,-600.922 1073.65,-599.372 1074.97,-606.247"/>
<text  text-anchor="middle" font-family="Times Roman,serif" font-size="6.00" fill="Blue"><textPath
    xlink:href="#edge22_p" startOffset="50%"><tspan x="0" dy="0">wikipedia</tspan>
<tspan x="0" dy="6">flockdraw</tspan></textPath></text>
</g>

<!-- privacy lost -->
<g id="node33" class="node"><title>privacy lost</title>
<ellipse fill="none" stroke="black" cx="1141" cy="-293" rx="70.0036" ry="18.3848"/>
<text text-anchor="middle" x="1141" y="-289.4" font-family="Times Roman,serif" font-size="14.00">privacy lost</text>
</g>

<!-- SaaS&#45;&gt;privacy lost -->
<g id="edge69" class="edge"><title>SaaS&#45;&gt;privacy lost</title>
<path fill="none" stroke="black" d="M782.588,-662.588C805.744,-658.951 835.676,-651.449 858,-636 869.258,-628.209 867.312,-621.581 876,-611 933.87,-540.522 977.014,-543.439 1016,-461 1041.88,-406.279 994.908,-372.215 1034,-326 1042.7,-315.71 1054.54,-308.573 1067.18,-303.637"/>
<polygon fill="black" stroke="black" points="1068.64,-306.836 1076.95,-300.274 1066.36,-300.216 1068.64,-306.836"/>
</g>

<!-- SaaS&#45;&gt;IP model failing -->
<g id="edge91" class="edge"><title>SaaS&#45;&gt;IP model failing</title>
<path id="edge91_p" fill="none" stroke="black" d="M782.891,-668.157C879.421,-672.609 1151.01,-676.181 1354,-592 1383.17,-579.904 1413.44,-560.739 1435.3,-545.519"/>
<polygon fill="black" stroke="black" points="1437.4,-548.323 1443.54,-539.692 1433.36,-542.608 1437.4,-548.323"/>
<text  text-anchor="middle" font-family="Times Roman,serif" font-size="6.00" fill="Blue"><textPath
    xlink:href="#edge91_p" startOffset="50%"><tspan x="0" dy="0">wiki/prezi</tspan>
<tspan x="0" dy="6">google {doc,cal,map,...}</tspan></textPath></text>
</g>

<!-- attention\nscarcity&#45;&gt;free culture -->
<g id="edge34" class="edge"><title>attention\nscarcity&#45;&gt;free culture</title>
<path id="edge34_p" fill="none" stroke="black" d="M265.784,-336.032C329.991,-342.391 436.429,-355.219 526,-377 744.044,-430.02 993.896,-528.962 1094.99,-570.67"/>
<polygon fill="black" stroke="black" points="1093.72,-573.934 1104.3,-574.524 1096.4,-567.466 1093.72,-573.934"/>
<text  text-anchor="middle" font-family="Times Roman,serif" font-size="6.00" fill="Blue"><textPath
    xlink:href="#edge34_p" startOffset="50%">exposure culture</textPath></text>
</g>

<!-- search\nengine -->
<g id="node24" class="node"><title>search\nengine</title>
<ellipse fill="none" stroke="black" cx="447" cy="-480" rx="46.1672" ry="31.1127"/>
<text text-anchor="middle" x="447" y="-485.4" font-family="Times Roman,serif" font-size="14.00">search</text>
<text text-anchor="middle" x="447" y="-467.4" font-family="Times Roman,serif" font-size="14.00">engine</text>
</g>

<!-- attention\nscarcity&#45;&gt;search\nengine -->
<g id="edge28" class="edge"><title>attention\nscarcity&#45;&gt;search\nengine</title>
<path id="edge28_p" fill="none" stroke="black" d="M228.815,-360.306C243.912,-379.759 265.854,-404.634 290,-421 321.319,-442.228 361.292,-457.107 393.066,-466.612"/>
<polygon fill="black" stroke="black" points="392.493,-470.09 403.072,-469.511 394.441,-463.367 392.493,-470.09"/>
<text  text-anchor="middle" font-family="Times Roman,serif" font-size="6.00" fill="Blue"><textPath
    xlink:href="#edge28_p" startOffset="50%"><tspan x="0" dy="0">rise of google</tspan>
<tspan x="0" dy="6">MS w/ yahoo</tspan></textPath></text>
</g>

<!-- emotion\nrules -->
<g id="node26" class="node"><title>emotion\nrules</title>
<ellipse fill="none" stroke="black" cx="447" cy="-302" rx="53.033" ry="31.1127"/>
<text text-anchor="middle" x="447" y="-307.4" font-family="Times Roman,serif" font-size="14.00">emotion</text>
<text text-anchor="middle" x="447" y="-289.4" font-family="Times Roman,serif" font-size="14.00">rules</text>
</g>

<!-- attention\nscarcity&#45;&gt;emotion\nrules -->
<g id="edge30" class="edge"><title>attention\nscarcity&#45;&gt;emotion\nrules</title>
<path fill="none" stroke="black" d="M265.246,-324.054C301.222,-319.689 347.641,-314.056 384.563,-309.576"/>
<polygon fill="black" stroke="black" points="385.203,-313.024 394.709,-308.345 384.36,-306.075 385.203,-313.024"/>
</g>

<!-- social net. sites -->
<g id="node28" class="node"><title>social net. sites</title>
<ellipse fill="none" stroke="black" cx="747" cy="-155" rx="91.2168" ry="18.3848"/>
<text text-anchor="middle" x="747" y="-151.4" font-family="Times Roman,serif" font-size="14.00">social net. sites</text>
</g>

<!-- attention\nscarcity&#45;&gt;social net. sites -->
<g id="edge32" class="edge"><title>attention\nscarcity&#45;&gt;social net. sites</title>
<path id="edge32_p" fill="none" stroke="black" d="M248.821,-308.644C280.599,-291.912 326.186,-269.359 368,-254 471.247,-216.075 595.315,-186.555 672.682,-169.957"/>
<polygon fill="black" stroke="black" points="673.762,-173.306 682.814,-167.8 672.305,-166.459 673.762,-173.306"/>
<text  text-anchor="middle" font-family="Times Roman,serif" font-size="6.00" fill="Blue"><textPath
    xlink:href="#edge32_p" startOffset="50%">from msn to twitter/FB</textPath></text>
</g>

<!-- attention\nscarcity&#45;&gt;long tails -->
<g id="edge52" class="edge"><title>attention\nscarcity&#45;&gt;long tails</title>
<path id="edge52_p" fill="none" stroke="black" stroke-dasharray="5,2" d="M255.149,-359.601C266.274,-365.409 278.307,-370.965 290,-375 390.638,-409.724 446.976,-344.663 526,-416 547.933,-435.8 525.299,-457.123 544,-480 567.399,-508.625 588.981,-495.091 618,-518 627.648,-525.617 626.697,-530.965 636,-539 658.125,-558.11 685.958,-575.649 708.219,-588.392"/>
<polygon fill="black" stroke="black" points="256.509,-356.358 246.046,-354.691 253.186,-362.519 256.509,-356.358"/>
<polygon fill="black" stroke="black" points="706.642,-591.521 717.073,-593.377 710.077,-585.421 706.642,-591.521"/>
<text  text-anchor="middle" font-family="Times Roman,serif" font-size="6.00" fill="Blue"><textPath
    xlink:href="#edge52_p" startOffset="50%"><tspan x="0" dy="-6">reputation economy</tspan>
<tspan x="0" dy="6">fall of trad. &#160;media</tspan>
<tspan x="0" dy="6">inaccessible sites</tspan></textPath></text>
</g>

<!-- ad industry -->
<g id="node44" class="node"><title>ad industry</title>
<ellipse fill="none" stroke="black" cx="946" cy="-18" rx="68.7979" ry="18.3848"/>
<text text-anchor="middle" x="946" y="-14.4" font-family="Times Roman,serif" font-size="14.00">ad industry</text>
</g>

<!-- attention\nscarcity&#45;&gt;ad industry -->
<g id="edge54" class="edge"><title>attention\nscarcity&#45;&gt;ad industry</title>
<path id="edge54_p" fill="none" stroke="black" d="M232.282,-302.49C261.394,-270.036 313.164,-217.575 368,-187 536.192,-93.2214 761.573,-46.9025 874.779,-28.2959"/>
<polygon fill="black" stroke="black" points="875.407,-31.74 884.718,-26.6864 874.287,-24.8301 875.407,-31.74"/>
<text  text-anchor="middle" font-family="Times Roman,serif" font-size="6.00" fill="Blue"><textPath
    xlink:href="#edge54_p" startOffset="50%"><tspan x="0" dy="0">facebook/google</tspan>
<tspan x="0" dy="6">placment marketing</tspan></textPath></text>
</g>

<!-- search\nengine&#45;&gt;long tails -->
<g id="edge50" class="edge"><title>search\nengine&#45;&gt;long tails</title>
<path id="edge50_p" fill="none" stroke="black" d="M486.22,-496.864C542.338,-520.995 645.194,-565.224 703.556,-590.319"/>
<polygon fill="black" stroke="black" points="702.304,-593.591 712.874,-594.326 705.07,-587.16 702.304,-593.591"/>
<text  text-anchor="middle" font-family="Times Roman,serif" font-size="6.00" fill="Blue"><textPath
    xlink:href="#edge50_p" startOffset="50%"><tspan x="0" dy="0">connecting</tspan>
<tspan x="0" dy="6">demand+supply</tspan></textPath></text>
</g>

<!-- search\nengine&#45;&gt;IP model failing -->
<g id="edge97" class="edge"><title>search\nengine&#45;&gt;IP model failing</title>
<path id="edge97_p" fill="none" stroke="black" d="M484.724,-461.428C502.288,-453.781 523.74,-445.827 544,-442 576.317,-435.896 585.112,-441.835 618,-442 794.896,-442.889 839.794,-430.365 1016,-446 1151.56,-458.028 1307.76,-488.017 1396.2,-506.525"/>
<polygon fill="black" stroke="black" points="1395.61,-509.978 1406.12,-508.612 1397.05,-503.128 1395.61,-509.978"/>
<text  text-anchor="middle" font-family="Times Roman,serif" font-size="6.00" fill="Blue"><textPath
    xlink:href="#edge97_p" startOffset="50%"><tspan x="0" dy="-6">DRM removal</tspan>
<tspan x="0" dy="6">HDCP master key</tspan>
<tspan x="0" dy="6">open source alternative</tspan>
<tspan x="0" dy="6">bought propaganda</tspan></textPath></text>
</g>

<!-- human flesh search -->
<g id="node31" class="node"><title>human flesh search</title>
<ellipse fill="none" stroke="black" cx="747" cy="-290" rx="111.016" ry="18.3848"/>
<text text-anchor="middle" x="747" y="-286.4" font-family="Times Roman,serif" font-size="14.00">human flesh search</text>
</g>

<!-- emotion\nrules&#45;&gt;human flesh search -->
<g id="edge36" class="edge"><title>emotion\nrules&#45;&gt;human flesh search</title>
<path fill="none" stroke="black" d="M499.943,-299.882C535.677,-298.453 584.289,-296.508 628.941,-294.722"/>
<polygon fill="black" stroke="black" points="629.145,-298.217 638.997,-294.32 628.865,-291.223 629.145,-298.217"/>
</g>

<!-- NPO/social biz -->
<g id="node36" class="node"><title>NPO/social biz</title>
<ellipse fill="none" stroke="black" cx="1141" cy="-205" rx="82.2301" ry="18.3848"/>
<text text-anchor="middle" x="1141" y="-201.4" font-family="Times Roman,serif" font-size="14.00">NPO/social biz</text>
</g>

<!-- emotion\nrules&#45;&gt;NPO/social biz -->
<g id="edge41" class="edge"><title>emotion\nrules&#45;&gt;NPO/social biz</title>
<path fill="none" stroke="black" d="M497.122,-291.571C535.204,-283.668 588.885,-272.573 636,-263 742.601,-241.342 767.972,-227.758 876,-215 933.01,-208.267 997.35,-205.721 1048.36,-204.88"/>
<polygon fill="black" stroke="black" points="1048.43,-208.379 1058.37,-204.733 1048.32,-201.38 1048.43,-208.379"/>
</g>

<!-- dirty secrets\nexposed (gov+biz) -->
<g id="node51" class="node"><title>dirty secrets\nexposed (gov+biz)</title>
<ellipse fill="none" stroke="black" cx="1141" cy="-366" rx="106.773" ry="31.1127"/>
<text text-anchor="middle" x="1141" y="-371.4" font-family="Times Roman,serif" font-size="14.00">dirty secrets</text>
<text text-anchor="middle" x="1141" y="-353.4" font-family="Times Roman,serif" font-size="14.00">exposed (gov+biz)</text>
</g>

<!-- emotion\nrules&#45;&gt;dirty secrets\nexposed (gov+biz) -->
<g id="edge63" class="edge"><title>emotion\nrules&#45;&gt;dirty secrets\nexposed (gov+biz)</title>
<path fill="none" stroke="black" d="M488.694,-321.542C526.283,-338.104 583.548,-360.748 636,-371 770.908,-397.368 929.979,-389.565 1033.02,-379.554"/>
<polygon fill="black" stroke="black" points="1033.52,-383.022 1043.12,-378.548 1032.83,-376.056 1033.52,-383.022"/>
</g>

<!-- streisand effect -->
<g id="node53" class="node"><title>streisand effect</title>
<ellipse fill="none" stroke="black" cx="747" cy="-344" rx="91.9239" ry="18.3848"/>
<text text-anchor="middle" x="747" y="-340.4" font-family="Times Roman,serif" font-size="14.00">streisand effect</text>
</g>

<!-- emotion\nrules&#45;&gt;streisand effect -->
<g id="edge66" class="edge"><title>emotion\nrules&#45;&gt;streisand effect</title>
<path id="edge66_p" fill="none" stroke="black" d="M498.572,-309.22C543.427,-315.5 609.305,-324.723 661.953,-332.093"/>
<polygon fill="black" stroke="black" points="661.569,-335.574 671.958,-333.494 662.54,-328.641 661.569,-335.574"/>
<text  text-anchor="middle" font-family="Times Roman,serif" font-size="6.00" fill="Blue"><textPath
    xlink:href="#edge66_p" startOffset="50%">09 F9</textPath></text>
</g>

<!-- social net. sites&#45;&gt;privacy lost -->
<g id="edge38" class="edge"><title>social net. sites&#45;&gt;privacy lost</title>
<path id="edge38_p" fill="none" stroke="black" d="M795.316,-170.262C819.504,-177.832 849.258,-187.035 876,-195 938.019,-213.473 955.354,-212.424 1016,-235 1044.9,-245.758 1076.38,-260.385 1100.53,-272.259"/>
<polygon fill="black" stroke="black" points="1099.21,-275.516 1109.73,-276.826 1102.33,-269.246 1099.21,-275.516"/>
<text  text-anchor="middle" font-family="Times Roman,serif" font-size="6.00" fill="Blue"><textPath
    xlink:href="#edge38_p" startOffset="50%"><tspan x="0" dy="0">lawyers using FB</tspan>
<tspan x="0" dy="6">social engineering</tspan></textPath></text>
</g>

<!-- social net. sites&#45;&gt;NPO/social biz -->
<g id="edge42" class="edge"><title>social net. sites&#45;&gt;NPO/social biz</title>
<path fill="none" stroke="black" d="M823.902,-164.759C891.78,-173.373 990.417,-185.89 1059.61,-194.671"/>
<polygon fill="black" stroke="black" points="1059.23,-198.152 1069.6,-195.939 1060.12,-191.207 1059.23,-198.152"/>
</g>

<!-- social net. sites&#45;&gt;ad&#45;style PaaS -->
<g id="edge60" class="edge"><title>social net. sites&#45;&gt;ad&#45;style PaaS</title>
<path id="edge60_p" fill="none" stroke="black" d="M818.502,-143.751C837.175,-141.162 857.307,-138.68 876,-137 1053.46,-121.054 1261.86,-115.699 1377.74,-113.903"/>
<polygon fill="black" stroke="black" points="1378.03,-117.399 1387.97,-113.75 1377.92,-110.4 1378.03,-117.399"/>
<text  text-anchor="middle" font-family="Times Roman,serif" font-size="6.00" fill="Blue"><textPath
    xlink:href="#edge60_p" startOffset="50%">&#39;digg/twitter/like&#39; buttons</textPath></text>
</g>

<!-- social net. sites&#45;&gt;dirty secrets\nexposed (gov+biz) -->
<g id="edge64" class="edge"><title>social net. sites&#45;&gt;dirty secrets\nexposed (gov+biz)</title>
<path fill="none" stroke="black" d="M767.869,-172.888C792.555,-193.474 835.434,-227.462 876,-251 942.278,-289.456 963.69,-289.535 1034,-320 1046.12,-325.253 1059.03,-330.822 1071.53,-336.202"/>
<polygon fill="black" stroke="black" points="1070.42,-339.535 1080.99,-340.272 1073.18,-333.104 1070.42,-339.535"/>
</g>

<!-- a whole new mind -->
<g id="node58" class="node"><title>a whole new mind</title>
<ellipse fill="none" stroke="black" cx="1141" cy="-69" rx="103.238" ry="18.3848"/>
<text text-anchor="middle" x="1141" y="-65.4" font-family="Times Roman,serif" font-size="14.00">a whole new mind</text>
</g>

<!-- social net. sites&#45;&gt;a whole new mind -->
<g id="edge75" class="edge"><title>social net. sites&#45;&gt;a whole new mind</title>
<path id="edge75_p" fill="none" stroke="black" d="M817.323,-138.026C831.572,-132.689 845.885,-125.807 858,-117 868.785,-109.16 864.356,-99.4951 876,-93 926.313,-64.9355 990.496,-58.5189 1043.09,-59.3187"/>
<polygon fill="black" stroke="black" points="815.771,-134.862 807.497,-141.479 818.091,-141.466 815.771,-134.862"/>
<polygon fill="black" stroke="black" points="1043.03,-62.8181 1053.11,-59.5594 1043.2,-55.8202 1043.03,-62.8181"/>
<text  text-anchor="middle" font-family="Times Roman,serif" font-size="6.00" fill="Blue"><textPath
    xlink:href="#edge75_p" startOffset="50%"><tspan x="0" dy="0">design,story,symphony,</tspan>
<tspan x="0" dy="6">empathy,play,meaning</tspan></textPath></text>
</g>

<!-- democratization -->
<g id="node75" class="node"><title>democratization</title>
<ellipse fill="none" stroke="black" cx="1786" cy="-377" rx="92.839" ry="18.3848"/>
<text text-anchor="middle" x="1786" y="-373.4" font-family="Times Roman,serif" font-size="14.00">democratization</text>
</g>

<!-- social net. sites&#45;&gt;democratization -->
<g id="edge107" class="edge"><title>social net. sites&#45;&gt;democratization</title>
<path id="edge107_p" fill="none" stroke="black" d="M837.657,-153.169C938.477,-152.52 1105.87,-155.579 1248,-178 1382.59,-199.232 1669.8,-325.278 1674,-327 1696.19,-336.106 1720.54,-346.88 1740.86,-356.091"/>
<polygon fill="black" stroke="black" points="1739.63,-359.377 1750.18,-360.337 1742.53,-353.007 1739.63,-359.377"/>
<text  text-anchor="middle" font-family="Times Roman,serif" font-size="6.00" fill="Blue"><textPath
    xlink:href="#edge107_p" startOffset="50%">jasmine revolution</textPath></text>
</g>

<!-- human flesh search&#45;&gt;privacy lost -->
<g id="edge70" class="edge"><title>human flesh search&#45;&gt;privacy lost</title>
<path fill="none" stroke="black" d="M858.062,-290.846C922.47,-291.336 1002.12,-291.943 1060.49,-292.387"/>
<polygon fill="black" stroke="black" points="1060.73,-295.889 1070.76,-292.465 1060.79,-288.889 1060.73,-295.889"/>
</g>

<!-- world flattens -->
<g id="node62" class="node"><title>world flattens</title>
<ellipse fill="none" stroke="black" cx="1786" cy="-633" rx="82.0244" ry="18.3848"/>
<text text-anchor="middle" x="1786" y="-629.4" font-family="Times Roman,serif" font-size="14.00">world flattens</text>
</g>

<!-- NPO/social biz&#45;&gt;world flattens -->
<g id="edge79" class="edge"><title>NPO/social biz&#45;&gt;world flattens</title>
<path id="edge79_p" fill="none" stroke="black" d="M1185.14,-220.357C1207.13,-230.162 1232.3,-245.031 1248,-266 1268.8,-293.788 1241.07,-317.849 1266,-342 1299.23,-374.187 1636.86,-397.418 1674,-425 1735.25,-470.485 1766.62,-559.685 1779.2,-605.059"/>
<polygon fill="black" stroke="black" points="1775.84,-606.062 1781.8,-614.823 1782.61,-604.259 1775.84,-606.062"/>
<text  text-anchor="middle" font-family="Times Roman,serif" font-size="6.00" fill="Blue"><textPath
    xlink:href="#edge79_p" startOffset="50%"><tspan x="0" dy="0">OLPC</tspan>
<tspan x="0" dy="6">1kg</tspan></textPath></text>
</g>

<!-- long tails&#45;&gt;world flattens -->
<g id="edge82" class="edge"><title>long tails&#45;&gt;world flattens</title>
<path fill="none" stroke="black" d="M803.471,-604.083C872.542,-599.311 984.215,-596.003 1016,-621 1038.55,-638.737 1011.82,-664.799 1034,-683 1144.16,-773.389 1211.96,-714.433 1354,-703 1483.36,-692.588 1632.41,-664.908 1717.29,-647.638"/>
<polygon fill="black" stroke="black" points="1718.23,-651.019 1727.32,-645.585 1716.82,-644.162 1718.23,-651.019"/>
</g>

<!-- long tails&#45;&gt;IP model failing -->
<g id="edge95" class="edge"><title>long tails&#45;&gt;IP model failing</title>
<path fill="none" stroke="black" d="M797.664,-599.865C854.898,-589.782 950.904,-573.582 1034,-563 1150,-548.227 1284.12,-536.323 1371.98,-529.224"/>
<polygon fill="black" stroke="black" points="1372.5,-532.693 1382.19,-528.403 1371.94,-525.715 1372.5,-532.693"/>
</g>

<!-- ad industry&#45;&gt;ad&#45;style PaaS -->
<g id="edge56" class="edge"><title>ad industry&#45;&gt;ad&#45;style PaaS</title>
<path id="edge56_p" fill="none" stroke="black" d="M1009.52,-10.5727C1071.16,-5.09838 1167.02,-1.19178 1248,-18 1315.29,-31.9668 1387.3,-67.7027 1429.68,-91.1437"/>
<polygon fill="black" stroke="black" points="1428.08,-94.2596 1438.51,-96.0916 1431.5,-88.1519 1428.08,-94.2596"/>
<text  text-anchor="middle" font-family="Times Roman,serif" font-size="6.00" fill="Blue"><textPath
    xlink:href="#edge56_p" startOffset="50%"><tspan x="0" dy="-6">AddSense RSS</tspan>
<tspan x="0" dy="6">Amazon PA API</tspan>
<tspan x="0" dy="6">site statistics</tspan></textPath></text>
</g>

<!-- dirty secrets\nexposed (gov+biz)&#45;&gt;transparent gov. -->
<g id="edge77" class="edge"><title>dirty secrets\nexposed (gov+biz)&#45;&gt;transparent gov.</title>
<path fill="none" stroke="black" d="M1157.65,-396.889C1190.65,-457.999 1261.57,-588.749 1266,-592 1293.77,-612.393 1329.26,-623.228 1362.66,-628.817"/>
<polygon fill="black" stroke="black" points="1362.54,-632.338 1372.95,-630.388 1363.59,-625.419 1362.54,-632.338"/>
</g>

<!-- dirty secrets\nexposed (gov+biz)&#45;&gt;IP model failing -->
<g id="edge99" class="edge"><title>dirty secrets\nexposed (gov+biz)&#45;&gt;IP model failing</title>
<path id="edge99_p" fill="none" stroke="black" d="M1247.03,-370.745C1290.58,-374.167 1335.18,-380.021 1354,-390 1398.93,-413.819 1433.68,-463.5 1452.18,-494.658"/>
<polygon fill="black" stroke="black" points="1449.36,-496.775 1457.39,-503.685 1455.42,-493.275 1449.36,-496.775"/>
<text  text-anchor="middle" font-family="Times Roman,serif" font-size="6.00" fill="Blue"><textPath
    xlink:href="#edge99_p" startOffset="50%"><tspan x="0" dy="-6">ACTA leak</tspan>
<tspan x="0" dy="6">homeland NBC PSA</tspan>
<tspan x="0" dy="6">OOXML scandal</tspan></textPath></text>
</g>

<!-- dirty secrets\nexposed (gov+biz)&#45;&gt;democratization -->
<g id="edge104" class="edge"><title>dirty secrets\nexposed (gov+biz)&#45;&gt;democratization</title>
<path fill="none" stroke="black" d="M1231.49,-349.33C1338.26,-332.552 1520.64,-312.968 1674,-342 1693.68,-345.726 1714.77,-351.753 1733.27,-357.764"/>
<polygon fill="black" stroke="black" points="1732.39,-361.157 1742.98,-360.99 1734.59,-354.515 1732.39,-361.157"/>
</g>

<!-- streisand effect&#45;&gt;privacy lost -->
<g id="edge71" class="edge"><title>streisand effect&#45;&gt;privacy lost</title>
<path fill="none" stroke="black" d="M823.902,-334.046C894.661,-324.886 998.847,-311.401 1068.26,-302.416"/>
<polygon fill="black" stroke="black" points="1068.77,-305.879 1078.24,-301.124 1067.87,-298.937 1068.77,-305.879"/>
</g>

<!-- streisand effect&#45;&gt;dirty secrets\nexposed (gov+biz) -->
<g id="edge73" class="edge"><title>streisand effect&#45;&gt;dirty secrets\nexposed (gov+biz)</title>
<path id="edge73_p" fill="none" stroke="black" d="M838.947,-343.061C890.976,-343.193 957.203,-344.471 1016,-349 1022.31,-349.486 1028.78,-350.078 1035.3,-350.747"/>
<polygon fill="black" stroke="black" points="1035.26,-354.263 1045.58,-351.857 1036.01,-347.303 1035.26,-354.263"/>
<text  text-anchor="middle" font-family="Times Roman,serif" font-size="6.00" fill="Blue"><textPath
    xlink:href="#edge73_p" startOffset="50%"><tspan x="0" dy="-6">Sony Rootkit</tspan>
<tspan x="0" dy="6">DRM</tspan>
<tspan x="0" dy="6">wikileaks</tspan>
<tspan x="0" dy="6">ACTA</tspan></textPath></text>
</g>

<!-- transparent gov.&#45;&gt;world flattens -->
<g id="edge83" class="edge"><title>transparent gov.&#45;&gt;world flattens</title>
<path fill="none" stroke="black" d="M1562.28,-633C1603.92,-633 1652.57,-633 1693.84,-633"/>
<polygon fill="black" stroke="black" points="1693.89,-636.5 1703.89,-633 1693.89,-629.5 1693.89,-636.5"/>
</g>

<!-- transparent gov.&#45;&gt;democratization -->
<g id="edge105" class="edge"><title>transparent gov.&#45;&gt;democratization</title>
<path fill="none" stroke="black" d="M1500.13,-616.02C1542.7,-593.373 1617.8,-550.571 1674,-503 1710.08,-472.457 1745.22,-430.297 1766.24,-403.338"/>
<polygon fill="black" stroke="black" points="1769.21,-405.209 1772.55,-395.153 1763.67,-400.935 1769.21,-405.209"/>
</g>

<!-- IP model failing&#45;&gt;democratization -->
<g id="edge101" class="edge"><title>IP model failing&#45;&gt;democratization</title>
<path id="edge101_p" fill="none" stroke="black" d="M1503.28,-505.508C1561.53,-479.032 1675.83,-427.076 1739.82,-397.992"/>
<polygon fill="black" stroke="black" points="1741.6,-401.024 1749.26,-393.7 1738.71,-394.652 1741.6,-401.024"/>
<text  text-anchor="middle" font-family="Times Roman,serif" font-size="6.00" fill="Blue"><textPath
    xlink:href="#edge101_p" startOffset="50%"><tspan x="0" dy="-6">chilling DMCA exposed</tspan>
<tspan x="0" dy="6">kindle 1984 exposed</tspan>
<tspan x="0" dy="6">windows phone home exposed</tspan>
<tspan x="0" dy="6">apple infrared patent exposed</tspan></textPath></text>
</g>

</g>

</svg>
