<?xml version="1.0" encoding="UTF-8" standalone="no"?>
<!DOCTYPE svg PUBLIC "-//W3C//DTD SVG 1.1//EN"
 "http://www.w3.org/Graphics/SVG/1.1/DTD/svg11.dtd">
<!-- Generated by graphviz version 2.26.3 (20100126.1600)
 -->
<!-- Title: 網路現象地圖 Pages: 1 -->
<svg width="1486pt" height="903pt"
 viewBox="0.00 0.00 1486.00 903.00" xmlns="http://www.w3.org/2000/svg" xmlns:xlink="http://www.w3.org/1999/xlink">
<g id="graph1" class="graph" transform="scale(1 1) rotate(0) translate(4 899)">
<title>網路現象地圖</title>
<polygon fill="white" stroke="white" points="-4,5 -4,-899 1483,-899 1483,5 -4,5"/>
<!-- 網際網路 -->
<g id="node1" class="node"><title>網際網路</title>
<ellipse fill="none" stroke="black" cx="50" cy="-695" rx="49.1393" ry="18"/>
<text text-anchor="middle" x="50" y="-690.4" font-family="Times Roman,serif" font-size="14.00">網際網路</text>
</g>

<!-- 複製零成本 -->
<g id="node4" class="node"><title>複製零成本</title>
<ellipse fill="none" stroke="black" cx="197" cy="-639" rx="59.0322" ry="18"/>
<text text-anchor="middle" x="197" y="-634.4" font-family="Times Roman,serif" font-size="14.00">複製零成本</text>
</g>

<!-- 網際網路&#45;&gt;複製零成本 -->
<g id="edge3" class="edge"><title>網際網路&#45;&gt;複製零成本</title>
<path fill="none" stroke="black" d="M84.465,-681.87C104.114,-674.385 129.005,-664.903 150.38,-656.76"/>
<polygon fill="black" stroke="black" points="151.822,-659.956 159.921,-653.125 149.33,-653.415 151.822,-659.956"/>
</g>

<!-- 雙向流通 -->
<g id="node5" class="node"><title>雙向流通</title>
<ellipse fill="none" stroke="black" cx="197" cy="-753" rx="49.1393" ry="18"/>
<text text-anchor="middle" x="197" y="-748.4" font-family="Times Roman,serif" font-size="14.00">雙向流通</text>
</g>

<!-- 網際網路&#45;&gt;雙向流通 -->
<g id="edge4" class="edge"><title>網際網路&#45;&gt;雙向流通</title>
<path fill="none" stroke="black" d="M83.7248,-708.306C104.547,-716.522 131.464,-727.142 153.834,-735.969"/>
<polygon fill="black" stroke="black" points="152.845,-739.341 163.432,-739.756 155.415,-732.83 152.845,-739.341"/>
</g>

<!-- 資訊爆炸 -->
<g id="node9" class="node"><title>資訊爆炸</title>
<ellipse fill="none" stroke="black" cx="414" cy="-712" rx="49.1393" ry="18"/>
<text text-anchor="middle" x="414" y="-707.4" font-family="Times Roman,serif" font-size="14.00">資訊爆炸</text>
</g>

<!-- 複製零成本&#45;&gt;資訊爆炸 -->
<g id="edge8" class="edge"><title>複製零成本&#45;&gt;資訊爆炸</title>
<path fill="none" stroke="black" d="M242.802,-650.508C269.636,-657.629 304.037,-667.414 334,-678 341.718,-680.727 357.261,-687.248 372.611,-693.858"/>
<polygon fill="black" stroke="black" points="371.505,-697.193 382.072,-697.953 374.285,-690.769 371.505,-697.193"/>
</g>

<!-- web 2.0 -->
<g id="node10" class="node"><title>web 2.0</title>
<ellipse fill="none" stroke="black" cx="414" cy="-766" rx="51.1176" ry="18.3848"/>
<text text-anchor="middle" x="414" y="-762.4" font-family="Times Roman,serif" font-size="14.00">web 2.0</text>
</g>

<!-- 複製零成本&#45;&gt;web 2.0 -->
<g id="edge9" class="edge"><title>複製零成本&#45;&gt;web 2.0</title>
<path fill="none" stroke="black" d="M229.593,-654.245C243.304,-660.656 259.426,-668.193 274,-675 300.662,-687.454 312.912,-682.475 334,-703 346.819,-715.477 339.021,-726.69 352,-739 356.099,-742.888 360.849,-746.268 365.859,-749.195"/>
<polygon fill="black" stroke="black" points="364.586,-752.478 375.074,-753.983 367.814,-746.266 364.586,-752.478"/>
</g>

<!-- 自由軟體 -->
<g id="node13" class="node"><title>自由軟體</title>
<ellipse fill="none" stroke="black" cx="414" cy="-658" rx="49.1393" ry="18"/>
<text text-anchor="middle" x="414" y="-653.4" font-family="Times Roman,serif" font-size="14.00">自由軟體</text>
</g>

<!-- 複製零成本&#45;&gt;自由軟體 -->
<g id="edge14" class="edge"><title>複製零成本&#45;&gt;自由軟體</title>
<path fill="none" stroke="black" d="M253.731,-643.967C285.118,-646.715 324.056,-650.125 355.692,-652.895"/>
<polygon fill="black" stroke="black" points="355.42,-656.384 365.687,-653.77 356.031,-649.411 355.42,-656.384"/>
</g>

<!-- 自由文化 -->
<g id="node14" class="node"><title>自由文化</title>
<ellipse fill="none" stroke="black" cx="928" cy="-590" rx="49.1393" ry="18"/>
<text text-anchor="middle" x="928" y="-585.4" font-family="Times Roman,serif" font-size="14.00">自由文化</text>
</g>

<!-- 複製零成本&#45;&gt;自由文化 -->
<g id="edge15" class="edge"><title>複製零成本&#45;&gt;自由文化</title>
<path fill="none" stroke="black" d="M243.809,-627.975C253.77,-625.652 264.229,-623.23 274,-621 371.662,-598.71 394.427,-582.955 494,-572 628.922,-557.156 788.663,-572.084 871.625,-582.257"/>
<polygon fill="black" stroke="black" points="871.241,-585.736 881.598,-583.502 872.109,-578.79 871.241,-585.736"/>
</g>

<!-- P2P -->
<g id="node15" class="node"><title>P2P</title>
<ellipse fill="none" stroke="black" cx="531" cy="-461" rx="29.1951" ry="18.3848"/>
<text text-anchor="middle" x="531" y="-457.4" font-family="Times Roman,serif" font-size="14.00">P2P</text>
</g>

<!-- 複製零成本&#45;&gt;P2P -->
<g id="edge16" class="edge"><title>複製零成本&#45;&gt;P2P</title>
<path fill="none" stroke="black" d="M208.237,-620.983C221.481,-601.333 245.353,-570.488 274,-554 353.554,-508.213 394.321,-552.879 476,-511 488.685,-504.496 500.664,-494.295 510.184,-484.798"/>
<polygon fill="black" stroke="black" points="512.866,-487.059 517.258,-477.417 507.812,-482.215 512.866,-487.059"/>
</g>

<!-- 長尾現象 -->
<g id="node38" class="node"><title>長尾現象</title>
<ellipse fill="none" stroke="black" cx="645" cy="-609" rx="49.1393" ry="18"/>
<text text-anchor="middle" x="645" y="-604.4" font-family="Times Roman,serif" font-size="14.00">長尾現象</text>
</g>

<!-- 複製零成本&#45;&gt;長尾現象 -->
<g id="edge46" class="edge"><title>複製零成本&#45;&gt;長尾現象</title>
<path id="edge46_p" fill="none" stroke="black" d="M252.171,-632.559C281.742,-629.295 318.819,-625.503 352,-623 432.601,-616.919 525.886,-612.997 585.144,-610.894"/>
<polygon fill="black" stroke="black" points="585.568,-614.382 595.44,-610.535 585.324,-607.386 585.568,-614.382"/>
<text  text-anchor="middle" font-family="Times Roman,serif" font-size="6.00" fill="Blue"><textPath
    xlink:href="#edge46_p" startOffset="50%">流通工具民主化</textPath></text>
</g>

<!-- 雙向流通&#45;&gt;資訊爆炸 -->
<g id="edge10" class="edge"><title>雙向流通&#45;&gt;資訊爆炸</title>
<path fill="none" stroke="black" d="M246.241,-750.639C272.512,-748.711 305.261,-745.236 334,-739 346.087,-736.377 358.897,-732.551 370.64,-728.598"/>
<polygon fill="black" stroke="black" points="371.916,-731.86 380.214,-725.272 369.619,-725.248 371.916,-731.86"/>
</g>

<!-- 雙向流通&#45;&gt;web 2.0 -->
<g id="edge11" class="edge"><title>雙向流通&#45;&gt;web 2.0</title>
<path fill="none" stroke="black" d="M242.495,-760.48C252.825,-761.905 263.768,-763.199 274,-764 299.552,-765.999 327.804,-766.691 352.199,-766.813"/>
<polygon fill="black" stroke="black" points="352.391,-770.313 362.398,-766.833 352.405,-763.313 352.391,-770.313"/>
</g>

<!-- 雙向流通&#45;&gt;自由軟體 -->
<g id="edge18" class="edge"><title>雙向流通&#45;&gt;自由軟體</title>
<path id="edge18_p" fill="none" stroke="black" d="M228.454,-739.071C242.4,-732.905 259.012,-725.576 274,-719 308.631,-703.807 317.331,-700.105 352,-685 358.734,-682.066 365.879,-678.954 372.833,-675.925"/>
<polygon fill="black" stroke="black" points="374.369,-679.074 382.139,-671.872 371.574,-672.656 374.369,-679.074"/>
<text  text-anchor="middle" font-family="Times Roman,serif" font-size="6.00" fill="Blue"><textPath
    xlink:href="#edge18_p" startOffset="50%"><tspan x="0" dy="0">copyleft</tspan>
<tspan x="0" dy="6">patch</tspan></textPath></text>
</g>

<!-- 雙向流通&#45;&gt;自由文化 -->
<g id="edge24" class="edge"><title>雙向流通&#45;&gt;自由文化</title>
<path id="edge24_p" fill="none" stroke="black" d="M231.937,-766.016C245.006,-770.561 260.061,-775.417 274,-779 361.159,-801.406 387.497,-809.309 476,-793 637.863,-763.173 703.289,-775.005 822,-661 836.648,-646.933 825.032,-632.726 840,-619 849.262,-610.507 861.065,-604.497 872.996,-600.246"/>
<polygon fill="black" stroke="black" points="874.083,-603.573 882.547,-597.199 871.956,-596.904 874.083,-603.573"/>
<text  text-anchor="middle" font-family="Times Roman,serif" font-size="6.00" fill="Blue"><textPath
    xlink:href="#edge24_p" startOffset="50%">相同方式分享</textPath></text>
</g>

<!-- 注意力稀有 -->
<g id="node22" class="node"><title>注意力稀有</title>
<ellipse fill="none" stroke="black" cx="197" cy="-364" rx="59.0322" ry="18"/>
<text text-anchor="middle" x="197" y="-359.4" font-family="Times Roman,serif" font-size="14.00">注意力稀有</text>
</g>

<!-- 資訊爆炸&#45;&gt;注意力稀有 -->
<g id="edge26" class="edge"><title>資訊爆炸&#45;&gt;注意力稀有</title>
<path id="edge26_p" fill="none" stroke="black" d="M375.331,-700.673C366.835,-696.776 358.458,-691.657 352,-685 337,-669.54 342.796,-659.663 334,-640 292.429,-547.066 236.952,-439.775 211.22,-390.834"/>
<polygon fill="black" stroke="black" points="214.242,-389.06 206.483,-381.845 208.049,-392.323 214.242,-389.06"/>
<text  text-anchor="middle" font-family="Times Roman,serif" font-size="6.00" fill="Blue"><textPath
    xlink:href="#edge26_p" startOffset="50%"><tspan x="0" dy="0">Herbert Simon</tspan>
<tspan x="0" dy="6">Michael Goldhaber</tspan></textPath></text>
</g>

<!-- web 2.0&#45;&gt;長尾現象 -->
<g id="edge49" class="edge"><title>web 2.0&#45;&gt;長尾現象</title>
<path id="edge49_p" fill="none" stroke="black" d="M450.49,-753.192C459.244,-749.303 468.284,-744.559 476,-739 485.703,-732.009 484.368,-726.087 494,-719 523.153,-697.55 542.955,-711.13 568,-685 582.62,-669.747 571.893,-656.729 586,-641 590.652,-635.813 596.35,-631.303 602.352,-627.437"/>
<polygon fill="black" stroke="black" points="604.402,-630.293 611.275,-622.23 600.874,-624.247 604.402,-630.293"/>
<text  text-anchor="middle" font-family="Times Roman,serif" font-size="6.00" fill="Blue"><textPath
    xlink:href="#edge49_p" startOffset="50%">供需管道暢通化</textPath></text>
</g>

<!-- SaaS -->
<g id="node18" class="node"><title>SaaS</title>
<ellipse fill="none" stroke="black" cx="645" cy="-668" rx="36.0624" ry="18.3848"/>
<text text-anchor="middle" x="645" y="-664.4" font-family="Times Roman,serif" font-size="14.00">SaaS</text>
</g>

<!-- 自由軟體&#45;&gt;SaaS -->
<g id="edge20" class="edge"><title>自由軟體&#45;&gt;SaaS</title>
<path id="edge20_p" fill="none" stroke="black" d="M463.272,-660.133C503.411,-661.871 559.669,-664.306 598.921,-666.005"/>
<polygon fill="black" stroke="black" points="598.87,-669.506 609.012,-666.442 599.173,-662.513 598.87,-669.506"/>
<text  text-anchor="middle" font-family="Times Roman,serif" font-size="6.00" fill="Blue"><textPath
    xlink:href="#edge20_p" startOffset="50%"><tspan x="0" dy="0">telnet/ssh/rdesktop/vnc</tspan>
<tspan x="0" dy="6">wiki/cms/ltsp/drbl</tspan></textPath></text>
</g>

<!-- 自由軟體&#45;&gt;長尾現象 -->
<g id="edge44" class="edge"><title>自由軟體&#45;&gt;長尾現象</title>
<path id="edge44_p" fill="none" stroke="black" d="M456.908,-648.898C495.118,-640.793 551.154,-628.907 592.122,-620.216"/>
<polygon fill="black" stroke="black" points="592.874,-623.635 601.931,-618.136 591.422,-616.787 592.874,-623.635"/>
<text  text-anchor="middle" font-family="Times Roman,serif" font-size="6.00" fill="Blue"><textPath
    xlink:href="#edge44_p" startOffset="50%">創作工具民主化</textPath></text>
</g>

<!-- 智財商業模式式微 -->
<g id="node67" class="node"><title>智財商業模式式微</title>
<ellipse fill="none" stroke="black" cx="1202" cy="-522" rx="87.8775" ry="18"/>
<text text-anchor="middle" x="1202" y="-517.4" font-family="Times Roman,serif" font-size="14.00">智財商業模式式微</text>
</g>

<!-- 自由軟體&#45;&gt;智財商業模式式微 -->
<g id="edge87" class="edge"><title>自由軟體&#45;&gt;智財商業模式式微</title>
<path id="edge87_p" fill="none" stroke="black" d="M462.47,-673.615C467.536,-676.764 472.209,-680.523 476,-685 497.313,-710.174 468.001,-736.701 494,-757 705.767,-922.343 903.557,-889.481 1096,-702 1127.09,-671.708 1093.3,-644.158 1114,-606 1127.07,-581.903 1149.51,-560.648 1168.45,-545.548"/>
<polygon fill="black" stroke="black" points="464.122,-670.53 453.658,-668.871 460.804,-676.693 464.122,-670.53"/>
<polygon fill="black" stroke="black" points="1170.82,-548.142 1176.59,-539.259 1166.54,-542.603 1170.82,-548.142"/>
<text  text-anchor="middle" font-family="Times Roman,serif" font-size="6.00" fill="Blue"><textPath
    xlink:href="#edge87_p" startOffset="50%"><tspan x="0" dy="-6">超級電腦</tspan>
<tspan x="0" dy="6">智慧手機</tspan>
<tspan x="0" dy="6">好萊塢</tspan>
<tspan x="0" dy="6">微軟潰堤</tspan></textPath></text>
</g>

<!-- 行銷類 PaaS -->
<g id="node46" class="node"><title>行銷類 PaaS</title>
<ellipse fill="none" stroke="black" cx="1202" cy="-113" rx="68.0887" ry="18.3848"/>
<text text-anchor="middle" x="1202" y="-109.4" font-family="Times Roman,serif" font-size="14.00">行銷類 PaaS</text>
</g>

<!-- 自由文化&#45;&gt;行銷類 PaaS -->
<g id="edge58" class="edge"><title>自由文化&#45;&gt;行銷類 PaaS</title>
<path id="edge58_p" fill="none" stroke="black" d="M937.96,-572.127C955.704,-539.683 993.073,-468.568 1016,-405 1027.04,-374.377 1019.87,-363.325 1034,-334 1072,-255.164 1140.62,-176.976 1177.3,-138.182"/>
<polygon fill="black" stroke="black" points="1180.24,-140.165 1184.62,-130.515 1175.18,-135.33 1180.24,-140.165"/>
<text  text-anchor="middle" font-family="Times Roman,serif" font-size="6.00" fill="Blue"><textPath
    xlink:href="#edge58_p" startOffset="50%"><tspan x="0" dy="-6">mashup</tspan>
<tspan x="0" dy="6">programmable web</tspan>
<tspan x="0" dy="6">google maps mania</tspan>
<tspan x="0" dy="6">YQL</tspan></textPath></text>
</g>

<!-- 政府透明化 -->
<g id="node60" class="node"><title>政府透明化</title>
<ellipse fill="none" stroke="black" cx="1202" cy="-633" rx="59.0322" ry="18"/>
<text text-anchor="middle" x="1202" y="-628.4" font-family="Times Roman,serif" font-size="14.00">政府透明化</text>
</g>

<!-- 自由文化&#45;&gt;政府透明化 -->
<g id="edge85" class="edge"><title>自由文化&#45;&gt;政府透明化</title>
<path id="edge85_p" fill="none" stroke="black" stroke-dasharray="5,2" d="M965.917,-609.444C995.955,-624.828 1033.05,-643.771 1034,-644 1069.9,-652.619 1111.28,-650.053 1143.99,-645.242"/>
<polygon fill="black" stroke="black" points="967.365,-606.253 956.869,-604.808 964.173,-612.483 967.365,-606.253"/>
<polygon fill="black" stroke="black" points="1144.96,-648.632 1154.29,-643.612 1143.86,-641.718 1144.96,-648.632"/>
<text  text-anchor="middle" font-family="Times Roman,serif" font-size="6.00" fill="Blue"><textPath
    xlink:href="#edge85_p" startOffset="50%"><tspan x="0" dy="-12">英國保守黨宣言</tspan>
<tspan x="0" dy="6">冰島群策憲法</tspan>
<tspan x="0" dy="6">波蘭透明化</tspan>
<tspan x="0" dy="6">尼加拉瓜農業</tspan>
<tspan x="0" dy="6">陽光基金會</tspan>
<tspan x="0" dy="6">gapminder</tspan></textPath></text>
</g>

<!-- 自由文化&#45;&gt;智財商業模式式微 -->
<g id="edge89" class="edge"><title>自由文化&#45;&gt;智財商業模式式微</title>
<path id="edge89_p" fill="none" stroke="black" d="M982.404,-580.046C1015.44,-573.659 1058.36,-564.755 1096,-555 1112.38,-550.755 1129.99,-545.541 1146.06,-540.522"/>
<polygon fill="black" stroke="black" points="981.648,-576.627 972.485,-581.945 982.965,-583.502 981.648,-576.627"/>
<polygon fill="black" stroke="black" points="1147.36,-543.782 1155.84,-537.433 1145.25,-537.107 1147.36,-543.782"/>
<text  text-anchor="middle" font-family="Times Roman,serif" font-size="6.00" fill="Blue"><textPath
    xlink:href="#edge89_p" startOffset="50%"><tspan x="0" dy="0">獨立音樂人</tspan>
<tspan x="0" dy="6">開放期刊</tspan></textPath></text>
</g>

<!-- P2P&#45;&gt;智財商業模式式微 -->
<g id="edge94" class="edge"><title>P2P&#45;&gt;智財商業模式式微</title>
<path fill="none" stroke="black" d="M560.263,-463.66C655.257,-472.296 957.7,-499.791 1111.02,-513.729"/>
<polygon fill="black" stroke="black" points="1111.08,-517.249 1121.35,-514.668 1111.71,-510.277 1111.08,-517.249"/>
</g>

<!-- SaaS&#45;&gt;自由文化 -->
<g id="edge22" class="edge"><title>SaaS&#45;&gt;自由文化</title>
<path id="edge22_p" fill="none" stroke="black" d="M674.039,-657.088C688.371,-651.889 705.982,-645.78 722,-641 773.697,-625.575 833.65,-611.11 875.501,-601.554"/>
<polygon fill="black" stroke="black" points="876.491,-604.918 885.469,-599.292 874.942,-598.092 876.491,-604.918"/>
<text  text-anchor="middle" font-family="Times Roman,serif" font-size="6.00" fill="Blue"><textPath
    xlink:href="#edge22_p" startOffset="50%"><tspan x="0" dy="0">維基百科</tspan>
<tspan x="0" dy="6">flockdraw</tspan></textPath></text>
</g>

<!-- 隱私流失 -->
<g id="node33" class="node"><title>隱私流失</title>
<ellipse fill="none" stroke="black" cx="928" cy="-295" rx="49.1393" ry="18"/>
<text text-anchor="middle" x="928" y="-290.4" font-family="Times Roman,serif" font-size="14.00">隱私流失</text>
</g>

<!-- SaaS&#45;&gt;隱私流失 -->
<g id="edge69" class="edge"><title>SaaS&#45;&gt;隱私流失</title>
<path fill="none" stroke="black" d="M672.911,-656.319C683.389,-651.087 694.942,-644.225 704,-636 712.681,-628.117 817.81,-471.952 822,-461 842.844,-406.522 804.236,-377.078 840,-331 848.633,-319.877 861.282,-312.17 874.314,-306.837"/>
<polygon fill="black" stroke="black" points="875.63,-310.082 883.818,-303.358 873.224,-303.509 875.63,-310.082"/>
</g>

<!-- SaaS&#45;&gt;智財商業模式式微 -->
<g id="edge91" class="edge"><title>SaaS&#45;&gt;智財商業模式式微</title>
<path id="edge91_p" fill="none" stroke="black" d="M681.22,-668.304C760.494,-667.607 953.652,-658.4 1096,-590 1122.21,-577.406 1149.8,-559.543 1170.26,-545.287"/>
<polygon fill="black" stroke="black" points="1172.41,-548.049 1178.56,-539.423 1168.37,-542.33 1172.41,-548.049"/>
<text  text-anchor="middle" font-family="Times Roman,serif" font-size="6.00" fill="Blue"><textPath
    xlink:href="#edge91_p" startOffset="50%"><tspan x="0" dy="0">wiki/prezi</tspan>
<tspan x="0" dy="6">google {doc,cal,map,...}</tspan></textPath></text>
</g>

<!-- 注意力稀有&#45;&gt;自由文化 -->
<g id="edge34" class="edge"><title>注意力稀有&#45;&gt;自由文化</title>
<path id="edge34_p" fill="none" stroke="black" d="M255.266,-367.262C312.099,-371.245 400.736,-379.587 476,-396 640.025,-431.768 818.685,-527.008 892.772,-569.285"/>
<polygon fill="black" stroke="black" points="891.281,-572.464 901.695,-574.41 894.767,-566.394 891.281,-572.464"/>
<text  text-anchor="middle" font-family="Times Roman,serif" font-size="6.00" fill="Blue"><textPath
    xlink:href="#edge34_p" startOffset="50%">愛現文化</textPath></text>
</g>

<!-- 搜尋引擎 -->
<g id="node24" class="node"><title>搜尋引擎</title>
<ellipse fill="none" stroke="black" cx="414" cy="-484" rx="49.1393" ry="18"/>
<text text-anchor="middle" x="414" y="-479.4" font-family="Times Roman,serif" font-size="14.00">搜尋引擎</text>
</g>

<!-- 注意力稀有&#45;&gt;搜尋引擎 -->
<g id="edge28" class="edge"><title>注意力稀有&#45;&gt;搜尋引擎</title>
<path id="edge28_p" fill="none" stroke="black" d="M211.866,-381.644C226.288,-397.775 249.528,-421.295 274,-436 289.736,-445.455 331.524,-459.31 365.378,-469.707"/>
<polygon fill="black" stroke="black" points="364.553,-473.115 375.139,-472.678 366.591,-466.418 364.553,-473.115"/>
<text  text-anchor="middle" font-family="Times Roman,serif" font-size="6.00" fill="Blue"><textPath
    xlink:href="#edge28_p" startOffset="50%"><tspan x="0" dy="0">google 崛起</tspan>
<tspan x="0" dy="6">微軟想買雅虎</tspan></textPath></text>
</g>

<!-- 情緒決定\n資訊傳導度 -->
<g id="node26" class="node"><title>情緒決定\n資訊傳導度</title>
<ellipse fill="none" stroke="black" cx="414" cy="-322" rx="62.2254" ry="28.2843"/>
<text text-anchor="middle" x="414" y="-325.4" font-family="Times Roman,serif" font-size="14.00">情緒決定</text>
<text text-anchor="middle" x="414" y="-309.4" font-family="Times Roman,serif" font-size="14.00">資訊傳導度</text>
</g>

<!-- 注意力稀有&#45;&gt;情緒決定\n資訊傳導度 -->
<g id="edge30" class="edge"><title>注意力稀有&#45;&gt;情緒決定\n資訊傳導度</title>
<path fill="none" stroke="black" d="M247.057,-354.312C276.648,-348.584 314.506,-341.257 346.687,-335.028"/>
<polygon fill="black" stroke="black" points="347.766,-338.385 356.918,-333.048 346.435,-331.512 347.766,-338.385"/>
</g>

<!-- 社交網站 -->
<g id="node28" class="node"><title>社交網站</title>
<ellipse fill="none" stroke="black" cx="645" cy="-155" rx="49.1393" ry="18"/>
<text text-anchor="middle" x="645" y="-150.4" font-family="Times Roman,serif" font-size="14.00">社交網站</text>
</g>

<!-- 注意力稀有&#45;&gt;社交網站 -->
<g id="edge32" class="edge"><title>注意力稀有&#45;&gt;社交網站</title>
<path id="edge32_p" fill="none" stroke="black" d="M223.649,-347.78C254.132,-329.525 305.802,-299.488 352,-277 438.175,-235.052 542.509,-193.786 600.545,-171.641"/>
<polygon fill="black" stroke="black" points="602.036,-174.818 610.139,-167.993 599.548,-168.275 602.036,-174.818"/>
<text  text-anchor="middle" font-family="Times Roman,serif" font-size="6.00" fill="Blue"><textPath
    xlink:href="#edge32_p" startOffset="50%">從 msn 到噗浪/臉書</textPath></text>
</g>

<!-- 注意力稀有&#45;&gt;長尾現象 -->
<g id="edge52" class="edge"><title>注意力稀有&#45;&gt;長尾現象</title>
<path id="edge52_p" fill="none" stroke="black" stroke-dasharray="5,2" d="M242.636,-381.858C252.863,-385.505 263.728,-389.107 274,-392 362.178,-416.833 406.091,-373.799 476,-433 493.07,-447.455 479.589,-462.892 494,-480 518.652,-509.264 538.382,-499.774 568,-524 589.59,-541.659 610.607,-565.442 625.214,-583.36"/>
<polygon fill="black" stroke="black" points="243.659,-378.506 233.065,-378.369 241.262,-385.082 243.659,-378.506"/>
<polygon fill="black" stroke="black" points="622.859,-586.019 631.844,-591.633 628.321,-581.641 622.859,-586.019"/>
<text  text-anchor="middle" font-family="Times Roman,serif" font-size="6.00" fill="Blue"><textPath
    xlink:href="#edge52_p" startOffset="50%"><tspan x="0" dy="-6">聲譽經濟</tspan>
<tspan x="0" dy="6">傳統媒體式微</tspan>
<tspan x="0" dy="6">網站自殘</tspan></textPath></text>
</g>

<!-- 廣告產業 -->
<g id="node44" class="node"><title>廣告產業</title>
<ellipse fill="none" stroke="black" cx="772" cy="-18" rx="49.1393" ry="18"/>
<text text-anchor="middle" x="772" y="-13.4" font-family="Times Roman,serif" font-size="14.00">廣告產業</text>
</g>

<!-- 注意力稀有&#45;&gt;廣告產業 -->
<g id="edge54" class="edge"><title>注意力稀有&#45;&gt;廣告產業</title>
<path id="edge54_p" fill="none" stroke="black" d="M210.106,-346.193C234.743,-313.763 291.002,-244.505 352,-202 474.106,-116.914 641.86,-57.9722 723.469,-32.3666"/>
<polygon fill="black" stroke="black" points="724.71,-35.6462 733.221,-29.3372 722.633,-28.9613 724.71,-35.6462"/>
<text  text-anchor="middle" font-family="Times Roman,serif" font-size="6.00" fill="Blue"><textPath
    xlink:href="#edge54_p" startOffset="50%"><tspan x="0" dy="0">臉書/google</tspan>
<tspan x="0" dy="6">置入性行銷</tspan></textPath></text>
</g>

<!-- 搜尋引擎&#45;&gt;長尾現象 -->
<g id="edge50" class="edge"><title>搜尋引擎&#45;&gt;長尾現象</title>
<path id="edge50_p" fill="none" stroke="black" d="M441.864,-499.078C483.488,-521.602 561.95,-564.06 608.231,-589.103"/>
<polygon fill="black" stroke="black" points="606.577,-592.188 617.037,-593.869 609.908,-586.031 606.577,-592.188"/>
<text  text-anchor="middle" font-family="Times Roman,serif" font-size="6.00" fill="Blue"><textPath
    xlink:href="#edge50_p" startOffset="50%">供需管道暢通化</textPath></text>
</g>

<!-- 搜尋引擎&#45;&gt;智財商業模式式微 -->
<g id="edge97" class="edge"><title>搜尋引擎&#45;&gt;智財商業模式式微</title>
<path id="edge97_p" fill="none" stroke="black" d="M452.705,-472.755C460.741,-469.58 468.912,-465.683 476,-461 485.705,-454.588 483.314,-446.596 494,-442 524.213,-429.005 535.111,-441.935 568,-442 680.89,-442.222 709.726,-431.229 822,-443 935.36,-454.884 1064.82,-485.555 1139.61,-504.997"/>
<polygon fill="black" stroke="black" points="1138.79,-508.399 1149.35,-507.545 1140.56,-501.627 1138.79,-508.399"/>
<text  text-anchor="middle" font-family="Times Roman,serif" font-size="6.00" fill="Blue"><textPath
    xlink:href="#edge97_p" startOffset="50%"><tspan x="0" dy="-6">DRM removal</tspan>
<tspan x="0" dy="6">HDCP master key</tspan>
<tspan x="0" dy="6">open source alternative</tspan>
<tspan x="0" dy="6">全部換正版</tspan></textPath></text>
</g>

<!-- 人肉搜索 -->
<g id="node31" class="node"><title>人肉搜索</title>
<ellipse fill="none" stroke="black" cx="645" cy="-290" rx="49.1393" ry="18"/>
<text text-anchor="middle" x="645" y="-285.4" font-family="Times Roman,serif" font-size="14.00">人肉搜索</text>
</g>

<!-- 情緒決定\n資訊傳導度&#45;&gt;人肉搜索 -->
<g id="edge36" class="edge"><title>情緒決定\n資訊傳導度&#45;&gt;人肉搜索</title>
<path fill="none" stroke="black" d="M473.488,-313.759C508.894,-308.855 553.565,-302.666 588.441,-297.835"/>
<polygon fill="black" stroke="black" points="589.039,-301.286 598.464,-296.446 588.079,-294.352 589.039,-301.286"/>
</g>

<!-- NPO/社會企業 -->
<g id="node36" class="node"><title>NPO/社會企業</title>
<ellipse fill="none" stroke="black" cx="928" cy="-205" rx="75.8684" ry="18.3848"/>
<text text-anchor="middle" x="928" y="-201.4" font-family="Times Roman,serif" font-size="14.00">NPO/社會企業</text>
</g>

<!-- 情緒決定\n資訊傳導度&#45;&gt;NPO/社會企業 -->
<g id="edge41" class="edge"><title>情緒決定\n資訊傳導度&#45;&gt;NPO/社會企業</title>
<path fill="none" stroke="black" d="M458.035,-302.194C516.838,-276.805 624.886,-233.821 722,-215 760.718,-207.496 804.253,-204.598 841.293,-203.732"/>
<polygon fill="black" stroke="black" points="841.626,-207.226 851.558,-203.539 841.494,-200.228 841.626,-207.226"/>
</g>

<!-- 政府與大企業\n惡行曝光 -->
<g id="node51" class="node"><title>政府與大企業\n惡行曝光</title>
<ellipse fill="none" stroke="black" cx="928" cy="-368" rx="72.1249" ry="28.2843"/>
<text text-anchor="middle" x="928" y="-371.4" font-family="Times Roman,serif" font-size="14.00">政府與大企業</text>
<text text-anchor="middle" x="928" y="-355.4" font-family="Times Roman,serif" font-size="14.00">惡行曝光</text>
</g>

<!-- 情緒決定\n資訊傳導度&#45;&gt;政府與大企業\n惡行曝光 -->
<g id="edge63" class="edge"><title>情緒決定\n資訊傳導度&#45;&gt;政府與大企業\n惡行曝光</title>
<path fill="none" stroke="black" d="M462.856,-339.272C473.092,-342.67 483.857,-346.082 494,-349 634.761,-389.493 675.803,-389.931 822,-381 831.106,-380.444 840.627,-379.621 850.067,-378.655"/>
<polygon fill="black" stroke="black" points="850.689,-382.108 860.256,-377.556 849.939,-375.149 850.689,-382.108"/>
</g>

<!-- 史翠珊效應 -->
<g id="node53" class="node"><title>史翠珊效應</title>
<ellipse fill="none" stroke="black" cx="645" cy="-344" rx="59.0322" ry="18"/>
<text text-anchor="middle" x="645" y="-339.4" font-family="Times Roman,serif" font-size="14.00">史翠珊效應</text>
</g>

<!-- 情緒決定\n資訊傳導度&#45;&gt;史翠珊效應 -->
<g id="edge66" class="edge"><title>情緒決定\n資訊傳導度&#45;&gt;史翠珊效應</title>
<path id="edge66_p" fill="none" stroke="black" d="M474.693,-327.78C506.536,-330.813 545.616,-334.535 578.304,-337.648"/>
<polygon fill="black" stroke="black" points="578.389,-341.172 588.676,-338.636 579.053,-334.203 578.389,-341.172"/>
<text  text-anchor="middle" font-family="Times Roman,serif" font-size="6.00" fill="Blue"><textPath
    xlink:href="#edge66_p" startOffset="50%">09 F9</textPath></text>
</g>

<!-- 社交網站&#45;&gt;隱私流失 -->
<g id="edge38" class="edge"><title>社交網站&#45;&gt;隱私流失</title>
<path id="edge38_p" fill="none" stroke="black" d="M674.481,-169.523C688.765,-176.467 706.206,-184.813 722,-192 766.035,-212.037 778.662,-213.497 822,-235 846.421,-247.117 873.129,-262.247 893.626,-274.282"/>
<polygon fill="black" stroke="black" points="891.9,-277.327 902.29,-279.401 895.461,-271.301 891.9,-277.327"/>
<text  text-anchor="middle" font-family="Times Roman,serif" font-size="6.00" fill="Blue"><textPath
    xlink:href="#edge38_p" startOffset="50%"><tspan x="0" dy="0">律師調用臉書資料</tspan>
<tspan x="0" dy="6">社交工程</tspan></textPath></text>
</g>

<!-- 社交網站&#45;&gt;NPO/社會企業 -->
<g id="edge42" class="edge"><title>社交網站&#45;&gt;NPO/社會企業</title>
<path fill="none" stroke="black" d="M689.53,-162.868C734.351,-170.786 804.181,-183.124 856.715,-192.406"/>
<polygon fill="black" stroke="black" points="856.19,-195.867 866.646,-194.16 857.407,-188.974 856.19,-195.867"/>
</g>

<!-- 社交網站&#45;&gt;行銷類 PaaS -->
<g id="edge60" class="edge"><title>社交網站&#45;&gt;行銷類 PaaS</title>
<path id="edge60_p" fill="none" stroke="black" d="M685.105,-144.188C696.908,-141.397 709.901,-138.703 722,-137 862.305,-117.257 1027.68,-113.146 1123.12,-112.616"/>
<polygon fill="black" stroke="black" points="1123.29,-116.115 1133.27,-112.571 1123.26,-109.115 1123.29,-116.115"/>
<text  text-anchor="middle" font-family="Times Roman,serif" font-size="6.00" fill="Blue"><textPath
    xlink:href="#edge60_p" startOffset="50%">&#39;推/噗/讚&#39; 按鈕</textPath></text>
</g>

<!-- 社交網站&#45;&gt;政府與大企業\n惡行曝光 -->
<g id="edge64" class="edge"><title>社交網站&#45;&gt;政府與大企業\n惡行曝光</title>
<path fill="none" stroke="black" d="M656.46,-172.859C670.258,-193.417 694.973,-227.38 722,-251 766.577,-289.958 826.15,-322.094 869.764,-342.765"/>
<polygon fill="black" stroke="black" points="868.553,-346.062 879.094,-347.128 871.518,-339.721 868.553,-346.062"/>
</g>

<!-- 未來在等待的人才 -->
<g id="node58" class="node"><title>未來在等待的人才</title>
<ellipse fill="none" stroke="black" cx="928" cy="-69" rx="87.8775" ry="18"/>
<text text-anchor="middle" x="928" y="-64.4" font-family="Times Roman,serif" font-size="14.00">未來在等待的人才</text>
</g>

<!-- 社交網站&#45;&gt;未來在等待的人才 -->
<g id="edge75" class="edge"><title>社交網站&#45;&gt;未來在等待的人才</title>
<path id="edge75_p" fill="none" stroke="black" d="M667.942,-130.712C682.161,-117.258 701.566,-101.566 722,-93 755.472,-78.9689 794.523,-72.2663 829.569,-69.2964"/>
<polygon fill="black" stroke="black" points="665.301,-128.4 660.603,-137.897 670.197,-133.402 665.301,-128.4"/>
<polygon fill="black" stroke="black" points="830.114,-72.7654 839.822,-68.5226 829.587,-65.7853 830.114,-72.7654"/>
<text  text-anchor="middle" font-family="Times Roman,serif" font-size="6.00" fill="Blue"><textPath
    xlink:href="#edge75_p" startOffset="50%"><tspan x="0" dy="0">設計,故事,見林,</tspan>
<tspan x="0" dy="6">關懷,玩耍,意義</tspan></textPath></text>
</g>

<!-- 民主化 -->
<g id="node75" class="node"><title>民主化</title>
<ellipse fill="none" stroke="black" cx="1428" cy="-377" rx="39.0774" ry="18"/>
<text text-anchor="middle" x="1428" y="-372.4" font-family="Times Roman,serif" font-size="14.00">民主化</text>
</g>

<!-- 社交網站&#45;&gt;民主化 -->
<g id="edge107" class="edge"><title>社交網站&#45;&gt;民主化</title>
<path id="edge107_p" fill="none" stroke="black" d="M694.147,-152.561C765.976,-150.222 903.332,-150.404 1016,-178 1178.52,-217.808 1213.69,-249.807 1360,-331 1373.24,-338.346 1387.2,-347.515 1399,-355.73"/>
<polygon fill="black" stroke="black" points="1396.99,-358.592 1407.17,-361.503 1401.02,-352.875 1396.99,-358.592"/>
<text  text-anchor="middle" font-family="Times Roman,serif" font-size="6.00" fill="Blue"><textPath
    xlink:href="#edge107_p" startOffset="50%"><tspan x="0" dy="0">茉莉花革命</tspan>
<tspan x="0" dy="6">大埔怪手</tspan></textPath></text>
</g>

<!-- 人肉搜索&#45;&gt;隱私流失 -->
<g id="edge70" class="edge"><title>人肉搜索&#45;&gt;隱私流失</title>
<path fill="none" stroke="black" d="M694.619,-290.877C743.067,-291.733 816.833,-293.036 868.429,-293.948"/>
<polygon fill="black" stroke="black" points="868.378,-297.447 878.438,-294.124 868.502,-290.448 868.378,-297.447"/>
</g>

<!-- 世界變平 -->
<g id="node62" class="node"><title>世界變平</title>
<ellipse fill="none" stroke="black" cx="1428" cy="-633" rx="49.1393" ry="18"/>
<text text-anchor="middle" x="1428" y="-628.4" font-family="Times Roman,serif" font-size="14.00">世界變平</text>
</g>

<!-- NPO/社會企業&#45;&gt;世界變平 -->
<g id="edge79" class="edge"><title>NPO/社會企業&#45;&gt;世界變平</title>
<path id="edge79_p" fill="none" stroke="black" d="M961.468,-221.301C980.194,-232.074 1002.43,-247.914 1016,-268 1034.95,-296.049 1010.02,-318.111 1034,-342 1086.77,-394.573 1305.41,-369.317 1360,-420 1387.41,-445.451 1412.09,-553.298 1422.61,-605.057"/>
<polygon fill="black" stroke="black" points="1419.19,-605.792 1424.58,-614.911 1426.06,-604.419 1419.19,-605.792"/>
<text  text-anchor="middle" font-family="Times Roman,serif" font-size="6.00" fill="Blue"><textPath
    xlink:href="#edge79_p" startOffset="50%"><tspan x="0" dy="0">每童一機</tspan>
<tspan x="0" dy="6">多揹一公斤</tspan></textPath></text>
</g>

<!-- 長尾現象&#45;&gt;世界變平 -->
<g id="edge82" class="edge"><title>長尾現象&#45;&gt;世界變平</title>
<path fill="none" stroke="black" d="M687.258,-599.527C726.396,-593.356 784.108,-591.207 822,-621 842.884,-637.42 819.579,-661.008 840,-678 927.844,-751.093 982.323,-713.688 1096,-702 1197.73,-691.541 1314.26,-663.507 1378.67,-646.564"/>
<polygon fill="black" stroke="black" points="1379.78,-649.89 1388.55,-643.944 1377.99,-643.124 1379.78,-649.89"/>
</g>

<!-- 長尾現象&#45;&gt;智財商業模式式微 -->
<g id="edge95" class="edge"><title>長尾現象&#45;&gt;智財商業模式式微</title>
<path fill="none" stroke="black" d="M684.675,-598.176C723.876,-587.83 785.684,-572.448 840,-563 931.057,-547.161 1036.11,-536.046 1109.51,-529.422"/>
<polygon fill="black" stroke="black" points="1110,-532.892 1119.65,-528.517 1109.38,-525.919 1110,-532.892"/>
</g>

<!-- 廣告產業&#45;&gt;行銷類 PaaS -->
<g id="edge56" class="edge"><title>廣告產業&#45;&gt;行銷類 PaaS</title>
<path id="edge56_p" fill="none" stroke="black" d="M818.629,-11.6052C868.303,-6.26473 948.867,-1.84823 1016,-18 1073.85,-31.9182 1133.96,-67.0261 1169.66,-90.4404"/>
<polygon fill="black" stroke="black" points="1167.93,-93.494 1178.2,-96.1212 1171.81,-87.6667 1167.93,-93.494"/>
<text  text-anchor="middle" font-family="Times Roman,serif" font-size="6.00" fill="Blue"><textPath
    xlink:href="#edge56_p" startOffset="50%"><tspan x="0" dy="-6">AddSense RSS</tspan>
<tspan x="0" dy="6">Amazon PA API</tspan>
<tspan x="0" dy="6">流量統計</tspan></textPath></text>
</g>

<!-- 政府與大企業\n惡行曝光&#45;&gt;政府透明化 -->
<g id="edge77" class="edge"><title>政府與大企業\n惡行曝光&#45;&gt;政府透明化</title>
<path fill="none" stroke="black" d="M939.706,-395.812C963.739,-452.38 1017.75,-576.644 1034,-590 1061.82,-612.868 1100.33,-623.754 1133.46,-628.862"/>
<polygon fill="black" stroke="black" points="1133.16,-632.354 1143.55,-630.268 1134.13,-625.421 1133.16,-632.354"/>
</g>

<!-- 政府與大企業\n惡行曝光&#45;&gt;智財商業模式式微 -->
<g id="edge99" class="edge"><title>政府與大企業\n惡行曝光&#45;&gt;智財商業模式式微</title>
<path id="edge99_p" fill="none" stroke="black" d="M999.992,-365.7C1031.22,-367.568 1067.15,-373.781 1096,-390 1139.18,-414.281 1171.46,-463.815 1188.46,-494.82"/>
<polygon fill="black" stroke="black" points="1185.46,-496.619 1193.25,-503.799 1191.63,-493.328 1185.46,-496.619"/>
<text  text-anchor="middle" font-family="Times Roman,serif" font-size="6.00" fill="Blue"><textPath
    xlink:href="#edge99_p" startOffset="50%"><tspan x="0" dy="-6">ACTA 解密</tspan>
<tspan x="0" dy="6">片面反盜版</tspan>
<tspan x="0" dy="6">OOXML 醜聞</tspan></textPath></text>
</g>

<!-- 政府與大企業\n惡行曝光&#45;&gt;民主化 -->
<g id="edge104" class="edge"><title>政府與大企業\n惡行曝光&#45;&gt;民主化</title>
<path fill="none" stroke="black" d="M990.038,-353.756C1026.02,-346.227 1072.32,-337.778 1114,-334 1191.9,-326.938 1211.9,-329.552 1290,-334 1321.26,-335.781 1330.04,-332.909 1360,-342 1372.21,-345.704 1384.83,-351.559 1395.84,-357.428"/>
<polygon fill="black" stroke="black" points="1394.22,-360.531 1404.66,-362.314 1397.61,-354.407 1394.22,-360.531"/>
</g>

<!-- 史翠珊效應&#45;&gt;隱私流失 -->
<g id="edge71" class="edge"><title>史翠珊效應&#45;&gt;隱私流失</title>
<path fill="none" stroke="black" d="M696.577,-335.07C746.648,-326.4 822.367,-313.29 873.43,-304.449"/>
<polygon fill="black" stroke="black" points="874.042,-307.895 883.299,-302.74 872.848,-300.997 874.042,-307.895"/>
</g>

<!-- 史翠珊效應&#45;&gt;政府與大企業\n惡行曝光 -->
<g id="edge73" class="edge"><title>史翠珊效應&#45;&gt;政府與大企業\n惡行曝光</title>
<path id="edge73_p" fill="none" stroke="black" d="M704.144,-343.471C738.609,-343.712 782.859,-344.962 822,-349 832.359,-350.069 843.228,-351.572 853.894,-353.27"/>
<polygon fill="black" stroke="black" points="853.599,-356.768 864.036,-354.949 854.743,-349.862 853.599,-356.768"/>
<text  text-anchor="middle" font-family="Times Roman,serif" font-size="6.00" fill="Blue"><textPath
    xlink:href="#edge73_p" startOffset="50%"><tspan x="0" dy="-6">Sony 入侵用戶電腦</tspan>
<tspan x="0" dy="6">遙控數位枷鎖</tspan>
<tspan x="0" dy="6">維基解密</tspan>
<tspan x="0" dy="6">ACTA 密約</tspan></textPath></text>
</g>

<!-- 政府透明化&#45;&gt;世界變平 -->
<g id="edge83" class="edge"><title>政府透明化&#45;&gt;世界變平</title>
<path fill="none" stroke="black" d="M1261.08,-633C1294.15,-633 1335.27,-633 1368.41,-633"/>
<polygon fill="black" stroke="black" points="1368.43,-636.5 1378.43,-633 1368.43,-629.5 1368.43,-636.5"/>
</g>

<!-- 政府透明化&#45;&gt;民主化 -->
<g id="edge105" class="edge"><title>政府透明化&#45;&gt;民主化</title>
<path fill="none" stroke="black" d="M1226.27,-616.462C1259.45,-592.987 1319.46,-547.339 1360,-498 1384.01,-468.78 1404.14,-429.908 1416.12,-404.202"/>
<polygon fill="black" stroke="black" points="1419.33,-405.593 1420.31,-395.042 1412.97,-402.684 1419.33,-405.593"/>
</g>

<!-- 智財商業模式式微&#45;&gt;民主化 -->
<g id="edge101" class="edge"><title>智財商業模式式微&#45;&gt;民主化</title>
<path id="edge101_p" fill="none" stroke="black" d="M1228.81,-504.797C1270.8,-477.861 1351.86,-425.853 1396.54,-397.186"/>
<polygon fill="black" stroke="black" points="1398.44,-400.124 1404.97,-391.778 1394.66,-394.232 1398.44,-400.124"/>
<text  text-anchor="middle" font-family="Times Roman,serif" font-size="6.00" fill="Blue"><textPath
    xlink:href="#edge101_p" startOffset="50%"><tspan x="0" dy="-12">DRM 集權崩盤</tspan>
<tspan x="0" dy="6">kindle 1984 事件</tspan>
<tspan x="0" dy="6">盜版警察曝光</tspan>
<tspan x="0" dy="6">資訊人權貴時代</tspan>
<tspan x="0" dy="6">外星人棋局曝光</tspan></textPath></text>
</g>

</g>

</svg>
