<?xml version="1.0" encoding="UTF-8" standalone="no"?>
<!DOCTYPE svg PUBLIC "-//W3C//DTD SVG 1.1//EN"
 "http://www.w3.org/Graphics/SVG/1.1/DTD/svg11.dtd">
<!-- Generated by graphviz version 2.26.3 (20100126.1600)
 -->
<!-- Title: Chinamerica 的統一防火長城: 臺灣是首選測試省份 Pages: 1 -->
<svg width="1474pt" height="696pt"
 viewBox="0.00 0.00 1474.00 696.39" xmlns="http://www.w3.org/2000/svg" xmlns:xlink="http://www.w3.org/1999/xlink">
<g id="graph1" class="graph" transform="scale(1 1) rotate(0) translate(4 692.391)">
<title>Chinamerica 的統一防火長城: 臺灣是首選測試省份</title>
<polygon fill="white" stroke="white" points="-4,5 -4,-692.391 1471,-692.391 1471,5 -4,5"/>
<!-- content_industry -->
<g id="node1" class="node"><title>content_industry</title>
<ellipse fill="none" stroke="red" cx="69" cy="-429.665" rx="67.9242" ry="18"/>
<text text-anchor="middle" x="69" y="-425.065" font-family="Times Roman,serif" font-size="14.00">數位內容產業</text>
</g>
<!-- DRM -->
<g id="node2" class="node"><title>DRM</title>
<ellipse fill="none" stroke="red" cx="830" cy="-152.665" rx="79.9031" ry="31.1127"/>
<text text-anchor="middle" x="830" y="-158.065" font-family="Times Roman,serif" font-size="14.00">DRM</text>
<text text-anchor="middle" x="830" y="-140.065" font-family="Times Roman,serif" font-size="14.00">(遙控數位枷鎖)</text>
</g>
<!-- content_industry&#45;&gt;DRM -->
<g id="edge3" class="edge"><title>content_industry&#45;&gt;DRM</title>
<path fill="none" stroke="red" d="M82.8198,-411.972C101.622,-388.714 137.162,-347.55 174,-319.665 281.478,-238.308 312.296,-214.372 442,-177.665 541.502,-149.506 660.864,-146.096 740.682,-147.899"/>
<polygon fill="red" stroke="red" points="740.615,-151.398 750.702,-148.157 740.796,-144.4 740.615,-151.398"/>
</g>
<!-- trusted_computing -->
<g id="node3" class="node"><title>trusted_computing</title>
<ellipse fill="none" stroke="red" cx="553" cy="-297.665" rx="70.0036" ry="31.1127"/>
<text text-anchor="middle" x="553" y="-303.065" font-family="Times Roman,serif" font-size="14.00">TC 信任運算</text>
<text text-anchor="middle" x="553" y="-285.065" font-family="Times Roman,serif" font-size="14.00">(含安全開機)</text>
</g>
<!-- content_industry&#45;&gt;trusted_computing -->
<g id="edge4" class="edge"><title>content_industry&#45;&gt;trusted_computing</title>
<path fill="none" stroke="red" d="M100.003,-413.396C120.548,-403.143 148.344,-390.265 174,-381.665 276.434,-347.327 399.191,-323.056 476.654,-309.709"/>
<polygon fill="red" stroke="red" points="477.539,-313.108 486.808,-307.977 476.362,-306.208 477.539,-313.108"/>
</g>
<!-- anti_circumvention -->
<g id="node4" class="node"><title>anti_circumvention</title>
<ellipse fill="none" stroke="red" cx="553" cy="-429.665" rx="109.81" ry="29.6985"/>
<text text-anchor="middle" x="553" y="-434.065" font-family="Times Roman,serif" font-size="14.00">反規避條款</text>
<text text-anchor="middle" x="553" y="-418.065" font-family="Times Roman,serif" font-size="14.00">(禁止越獄或逆向工程)</text>
</g>
<!-- content_industry&#45;&gt;anti_circumvention -->
<g id="edge5" class="edge"><title>content_industry&#45;&gt;anti_circumvention</title>
<path fill="none" stroke="red" d="M137.575,-429.665C214.065,-429.665 339.254,-429.665 432.241,-429.665"/>
<polygon fill="red" stroke="red" points="432.274,-433.165 442.274,-429.665 432.274,-426.165 432.274,-433.165"/>
</g>
<!-- dpi -->
<g id="node5" class="node"><title>dpi</title>
<ellipse fill="none" stroke="red" cx="830" cy="-624.665" rx="128.901" ry="29.6985"/>
<text text-anchor="middle" x="830" y="-629.065" font-family="Times Roman,serif" font-size="14.00">Deep Packet Inspection</text>
<text text-anchor="middle" x="830" y="-611.065" font-family="Times Roman,serif" font-size="14.00">深度封包檢測</text>
</g>
<!-- content_industry&#45;&gt;dpi -->
<g id="edge6" class="edge"><title>content_industry&#45;&gt;dpi</title>
<path fill="none" stroke="red" d="M76.5575,-447.576C90.6483,-478.486 124.098,-541.256 174,-569.665 342.72,-665.718 576.378,-658.513 714.501,-642.794"/>
<polygon fill="red" stroke="red" points="715.164,-646.24 724.689,-641.599 714.349,-639.288 715.164,-646.24"/>
</g>
<!-- gwf_China -->
<g id="node6" class="node"><title>gwf_China</title>
<ellipse fill="none" stroke="red" cx="1250" cy="-386.665" rx="79.9031" ry="29.6985"/>
<text text-anchor="middle" x="1250" y="-391.065" font-family="Times Roman,serif" font-size="14.00">中國防火長城</text>
<text text-anchor="middle" x="1250" y="-375.065" font-family="Times Roman,serif" font-size="14.00">(金盾工程等等)</text>
</g>
<!-- content_industry&#45;&gt;gwf_China -->
<g id="edge7" class="edge"><title>content_industry&#45;&gt;gwf_China</title>
<path fill="none" stroke="red" d="M73.3368,-447.881C83.5576,-486.516 113.022,-576.652 174,-619.665 313.476,-718.049 382.317,-681.665 553,-681.665 553,-681.665 553,-681.665 830,-681.665 888.392,-681.665 907.495,-688.216 960,-662.665 1077.29,-605.588 1178.47,-483.866 1224.12,-422.956"/>
<polygon fill="red" stroke="red" points="1227.04,-424.894 1230.19,-414.778 1221.42,-420.722 1227.04,-424.894"/>
</g>
<!-- gwf_USA -->
<g id="node7" class="node"><title>gwf_USA</title>
<ellipse fill="none" stroke="red" cx="1250" cy="-287.665" rx="72.1249" ry="29.6985"/>
<text text-anchor="middle" x="1250" y="-292.065" font-family="Times Roman,serif" font-size="14.00">美國防火長城</text>
<text text-anchor="middle" x="1250" y="-276.065" font-family="Times Roman,serif" font-size="14.00">(SOPA 等等)</text>
</g>
<!-- content_industry&#45;&gt;gwf_USA -->
<g id="edge8" class="edge"><title>content_industry&#45;&gt;gwf_USA</title>
<path fill="none" stroke="red" d="M71.2079,-411.652C77.7777,-366.144 101.489,-245.836 174,-184.665 306.409,-72.9635 379.768,-93.6651 553,-93.6651 553,-93.6651 553,-93.6651 830,-93.6651 966.055,-93.6651 1018.33,-58.0235 1134,-129.665 1158.84,-145.049 1153.03,-160.887 1170,-184.665 1186.23,-207.401 1205.4,-232.145 1220.9,-251.682"/>
<polygon fill="red" stroke="red" points="1218.33,-254.075 1227.3,-259.714 1223.81,-249.712 1218.33,-254.075"/>
</g>
<!-- iPad -->
<g id="node10" class="node"><title>iPad</title>
<ellipse fill="none" stroke="red" cx="553" cy="-364.665" rx="32.0265" ry="18.3848"/>
<text text-anchor="middle" x="553" y="-361.065" font-family="Times Roman,serif" font-size="14.00">iPad</text>
</g>
<!-- content_industry&#45;&gt;iPad -->
<g id="edge9" class="edge"><title>content_industry&#45;&gt;iPad</title>
<path fill="none" stroke="red" d="M130.299,-421.433C230.171,-408.02 425.44,-381.796 511.067,-370.297"/>
<polygon fill="red" stroke="red" points="511.749,-373.737 521.194,-368.937 510.817,-366.799 511.749,-373.737"/>
</g>
<!-- patent -->
<g id="node11" class="node"><title>patent</title>
<ellipse fill="none" stroke="red" cx="290" cy="-542.665" rx="30.1869" ry="18"/>
<text text-anchor="middle" x="290" y="-538.065" font-family="Times Roman,serif" font-size="14.00">專利</text>
</g>
<!-- content_industry&#45;&gt;patent -->
<g id="edge10" class="edge"><title>content_industry&#45;&gt;patent</title>
<path fill="none" stroke="red" d="M85.9318,-447.134C105.433,-466.252 139.274,-496.466 174,-513.665 197.875,-525.49 226.967,-532.747 250.044,-537.044"/>
<polygon fill="red" stroke="red" points="249.73,-540.542 260.183,-538.816 250.935,-533.647 249.73,-540.542"/>
</g>
<!-- suppress_clone -->
<g id="node12" class="node"><title>suppress_clone</title>
<ellipse fill="none" stroke="red" cx="290" cy="-486.665" rx="116.052" ry="18"/>
<text text-anchor="middle" x="290" y="-482.065" font-family="Times Roman,serif" font-size="14.00">「仿冒」污名化「山寨」</text>
</g>
<!-- content_industry&#45;&gt;suppress_clone -->
<g id="edge11" class="edge"><title>content_industry&#45;&gt;suppress_clone</title>
<path fill="none" stroke="red" d="M118.047,-442.315C148.01,-450.043 186.813,-460.051 219.973,-468.604"/>
<polygon fill="red" stroke="red" points="219.509,-472.099 230.067,-471.207 221.258,-465.321 219.509,-472.099"/>
</g>
<!-- DRM&#45;&gt;gwf_China -->
<g id="edge18" class="edge"><title>DRM&#45;&gt;gwf_China</title>
<path fill="none" stroke="red" d="M875.747,-178.153C954.313,-221.925 1114.43,-311.131 1197.45,-357.385"/>
<polygon fill="red" stroke="red" points="1195.77,-360.456 1206.21,-362.265 1199.17,-354.341 1195.77,-360.456"/>
</g>
<!-- DRM&#45;&gt;gwf_USA -->
<g id="edge19" class="edge"><title>DRM&#45;&gt;gwf_USA</title>
<path fill="none" stroke="red" d="M901.734,-138.93C965.685,-130.169 1060.3,-125.974 1134,-159.665 1175.33,-178.56 1208.38,-219.938 1228.47,-250.56"/>
<polygon fill="red" stroke="red" points="1225.7,-252.734 1234.03,-259.282 1231.6,-248.969 1225.7,-252.734"/>
</g>
<!-- trusted_computing&#45;&gt;DRM -->
<g id="edge14" class="edge"><title>trusted_computing&#45;&gt;DRM</title>
<path fill="none" stroke="red" d="M607.72,-278.092C625.914,-271.028 646.093,-262.582 664,-253.665 704.888,-233.305 748.962,-206.228 781.413,-185.235"/>
<polygon fill="red" stroke="red" points="783.351,-188.15 789.823,-179.762 779.533,-182.283 783.351,-188.15"/>
</g>
<!-- trusted_computing&#45;&gt;gwf_USA -->
<g id="edge26" class="edge"><title>trusted_computing&#45;&gt;gwf_USA</title>
<path fill="none" stroke="red" d="M622.513,-293.157C646.993,-291.761 674.708,-290.399 700,-289.665 865.973,-284.85 1060.24,-285.654 1167.78,-286.664"/>
<polygon fill="red" stroke="red" points="1167.88,-290.165 1177.91,-286.763 1167.94,-283.166 1167.88,-290.165"/>
</g>
<!-- alt_player -->
<g id="node13" class="node"><title>alt_player</title>
<ellipse fill="none" stroke="blue" cx="830" cy="-511.665" rx="92.1303" ry="28.2843"/>
<text text-anchor="middle" x="830" y="-515.065" font-family="Times Roman,serif" font-size="14.00">尊重消費者自主權</text>
<text text-anchor="middle" x="830" y="-499.065" font-family="Times Roman,serif" font-size="14.00">的替代播放軟體</text>
</g>
<!-- trusted_computing&#45;&gt;alt_player -->
<g id="edge22" class="edge"><title>trusted_computing&#45;&gt;alt_player</title>
<path fill="none" stroke="red" d="M615.445,-311.777C632.465,-317.752 650.039,-326.101 664,-337.665 688.244,-357.746 679.86,-374.47 700,-398.665 725.4,-429.179 759.42,-458.436 786.286,-479.532"/>
<polygon fill="red" stroke="red" points="784.331,-482.445 794.377,-485.809 788.622,-476.914 784.331,-482.445"/>
</g>
<!-- usb_boot -->
<g id="node15" class="node"><title>usb_boot</title>
<ellipse fill="none" stroke="blue" cx="830" cy="-371.665" rx="77.8152" ry="18"/>
<text text-anchor="middle" x="830" y="-367.065" font-family="Times Roman,serif" font-size="14.00">百毒不侵救命碟</text>
</g>
<!-- trusted_computing&#45;&gt;usb_boot -->
<g id="edge60" class="edge"><title>trusted_computing&#45;&gt;usb_boot</title>
<path fill="none" stroke="red" d="M613.105,-313.722C659.207,-326.038 722.59,-342.971 768.931,-355.351"/>
<polygon fill="red" stroke="red" points="768.279,-358.799 778.843,-357.999 770.086,-352.036 768.279,-358.799"/>
</g>
<!-- tunneling -->
<g id="node16" class="node"><title>tunneling</title>
<ellipse fill="none" stroke="blue" cx="1065" cy="-432.665" rx="67.9242" ry="18"/>
<text text-anchor="middle" x="1065" y="-428.065" font-family="Times Roman,serif" font-size="14.00">各種翻牆技術</text>
</g>
<!-- trusted_computing&#45;&gt;tunneling -->
<g id="edge61" class="edge"><title>trusted_computing&#45;&gt;tunneling</title>
<path fill="none" stroke="red" d="M622.697,-293.827C706.312,-291.849 849.086,-296.951 960,-344.665 992.935,-358.833 1023.49,-386.828 1043.05,-407.454"/>
<polygon fill="red" stroke="red" points="1040.63,-409.991 1049.99,-414.954 1045.77,-405.237 1040.63,-409.991"/>
</g>
<!-- anti_circumvention&#45;&gt;alt_player -->
<g id="edge47" class="edge"><title>anti_circumvention&#45;&gt;alt_player</title>
<path fill="none" stroke="red" d="M626.504,-451.424C665.89,-463.084 714.346,-477.428 754.093,-489.194"/>
<polygon fill="red" stroke="red" points="753.155,-492.567 763.737,-492.049 755.142,-485.855 753.155,-492.567"/>
</g>
<!-- anti_circumvention&#45;&gt;usb_boot -->
<g id="edge48" class="edge"><title>anti_circumvention&#45;&gt;usb_boot</title>
<path fill="none" stroke="red" d="M639.505,-411.552C678.972,-403.288 725.028,-393.645 761.968,-385.91"/>
<polygon fill="red" stroke="red" points="763.062,-389.257 772.132,-383.782 761.627,-382.406 763.062,-389.257"/>
</g>
<!-- anti_circumvention&#45;&gt;tunneling -->
<g id="edge49" class="edge"><title>anti_circumvention&#45;&gt;tunneling</title>
<path fill="none" stroke="red" d="M663.368,-431.296C675.726,-431.44 688.132,-431.568 700,-431.665 798.647,-432.471 912.295,-432.667 986.22,-432.696"/>
<polygon fill="red" stroke="red" points="986.38,-436.196 996.381,-432.699 986.382,-429.196 986.38,-436.196"/>
</g>
<!-- dpi&#45;&gt;tunneling -->
<g id="edge72" class="edge"><title>dpi&#45;&gt;tunneling</title>
<path fill="none" stroke="red" d="M919.406,-603.544C933.768,-597.835 947.876,-590.658 960,-581.665 1003.72,-549.235 1036.1,-493.112 1052.63,-459.779"/>
<polygon fill="red" stroke="red" points="1055.86,-461.145 1057.06,-450.619 1049.56,-458.098 1055.86,-461.145"/>
</g>
<!-- censor -->
<g id="node9" class="node"><title>censor</title>
<ellipse fill="none" stroke="red" cx="1416" cy="-363.665" rx="49.1393" ry="18"/>
<text text-anchor="middle" x="1416" y="-359.065" font-family="Times Roman,serif" font-size="14.00">言論管制</text>
</g>
<!-- gwf_China&#45;&gt;censor -->
<g id="edge69" class="edge"><title>gwf_China&#45;&gt;censor</title>
<path fill="none" stroke="red" d="M1324.74,-376.309C1336.47,-374.684 1348.42,-373.028 1359.65,-371.473"/>
<polygon fill="red" stroke="red" points="1360.3,-374.917 1369.72,-370.077 1359.33,-367.983 1360.3,-374.917"/>
</g>
<!-- gwf_USA&#45;&gt;censor -->
<g id="edge70" class="edge"><title>gwf_USA&#45;&gt;censor</title>
<path fill="none" stroke="red" d="M1297.57,-309.444C1322.33,-320.778 1352.26,-334.482 1375.84,-345.277"/>
<polygon fill="red" stroke="red" points="1374.64,-348.58 1385.19,-349.56 1377.56,-342.215 1374.64,-348.58"/>
</g>
<!-- gov_edit -->
<g id="node8" class="node"><title>gov_edit</title>
<ellipse fill="none" stroke="red" cx="553" cy="-215.665" rx="53.2379" ry="29.6985"/>
<text text-anchor="middle" x="553" y="-220.065" font-family="Times Roman,serif" font-size="14.00">筆硯文書</text>
<text text-anchor="middle" x="553" y="-204.065" font-family="Times Roman,serif" font-size="14.00">(IE only)</text>
</g>
<!-- gov_edit&#45;&gt;gwf_USA -->
<g id="edge27" class="edge"><title>gov_edit&#45;&gt;gwf_USA</title>
<path fill="none" stroke="red" d="M605.674,-221.106C726.847,-233.623 1025.99,-264.525 1170,-279.401"/>
<polygon fill="red" stroke="red" points="1169.79,-282.898 1180.1,-280.444 1170.51,-275.935 1169.79,-282.898"/>
</g>
<!-- gov_edit&#45;&gt;usb_boot -->
<g id="edge65" class="edge"><title>gov_edit&#45;&gt;usb_boot</title>
<path fill="none" stroke="red" d="M599.169,-230.337C619.535,-237.514 643.458,-246.925 664,-257.665 714.482,-284.059 767.95,-323.037 800.153,-347.887"/>
<polygon fill="red" stroke="red" points="798.217,-350.815 808.259,-354.192 802.514,-345.29 798.217,-350.815"/>
</g>
<!-- censor&#45;&gt;alt_player -->
<g id="edge75" class="edge"><title>censor&#45;&gt;alt_player</title>
<path fill="none" stroke="red" d="M1408.72,-345.64C1396.82,-318.918 1370.39,-269.787 1330,-249.665 1266.35,-217.952 1237.31,-226.738 1170,-249.665 1135.22,-261.512 952.226,-410.612 870.034,-478.45"/>
<polygon fill="red" stroke="red" points="867.413,-476.076 861.933,-485.143 871.871,-481.472 867.413,-476.076"/>
</g>
<!-- alt_device -->
<g id="node14" class="node"><title>alt_device</title>
<ellipse fill="none" stroke="blue" cx="553" cy="-542.665" rx="92.1303" ry="28.2843"/>
<text text-anchor="middle" x="553" y="-546.065" font-family="Times Roman,serif" font-size="14.00">尊重消費者自主權</text>
<text text-anchor="middle" x="553" y="-530.065" font-family="Times Roman,serif" font-size="14.00">的替代硬體</text>
</g>
<!-- censor&#45;&gt;alt_device -->
<g id="edge76" class="edge"><title>censor&#45;&gt;alt_device</title>
<path fill="none" stroke="red" d="M1409.57,-345.528C1398.17,-316.005 1371.64,-257.649 1330,-225.665 1104.4,-52.3888 911.053,78.0676 700,-112.665 641.171,-165.83 704.688,-399.606 664,-467.665 652.357,-487.14 633.468,-502.664 614.546,-514.419"/>
<polygon fill="red" stroke="red" points="612.696,-511.448 605.876,-519.556 616.264,-517.47 612.696,-511.448"/>
</g>
<!-- censor&#45;&gt;usb_boot -->
<g id="edge77" class="edge"><title>censor&#45;&gt;usb_boot</title>
<path fill="none" stroke="red" d="M1413.06,-345.636C1405.73,-305.715 1383.23,-208.654 1330,-148.665 1226.54,-32.0748 1118.34,54.9332 996,-41.6651 941.853,-84.4204 988.829,-129.985 960,-192.665 932.333,-252.818 882.977,-313.128 853.689,-346.106"/>
<polygon fill="red" stroke="red" points="850.78,-344.106 846.701,-353.884 855.987,-348.785 850.78,-344.106"/>
</g>
<!-- censor&#45;&gt;tunneling -->
<g id="edge78" class="edge"><title>censor&#45;&gt;tunneling</title>
<path fill="none" stroke="red" d="M1408.72,-345.64C1396.82,-318.918 1370.39,-269.787 1330,-249.665 1266.35,-217.952 1231.54,-214.027 1170,-249.665 1112,-283.257 1083.27,-362.33 1071.6,-404.7"/>
<polygon fill="red" stroke="red" points="1068.14,-404.07 1068.99,-414.631 1074.91,-405.847 1068.14,-404.07"/>
</g>
<!-- iPad&#45;&gt;DRM -->
<g id="edge15" class="edge"><title>iPad&#45;&gt;DRM</title>
<path fill="none" stroke="red" d="M585.545,-361.905C608.766,-358.752 640.001,-352.02 664,-337.665 696.47,-318.244 762.345,-238.627 800.626,-190.393"/>
<polygon fill="red" stroke="red" points="803.524,-192.37 806.981,-182.354 798.033,-188.028 803.524,-192.37"/>
</g>
<!-- iPad&#45;&gt;gwf_USA -->
<g id="edge28" class="edge"><title>iPad&#45;&gt;gwf_USA</title>
<path fill="none" stroke="red" d="M584.505,-360.082C614.246,-355.826 660.106,-349.445 700,-344.665 866.669,-324.696 1062.26,-305.413 1169.5,-295.196"/>
<polygon fill="red" stroke="red" points="1169.97,-298.666 1179.59,-294.235 1169.31,-291.698 1169.97,-298.666"/>
</g>
<!-- iPad&#45;&gt;alt_player -->
<g id="edge23" class="edge"><title>iPad&#45;&gt;alt_player</title>
<path fill="none" stroke="red" d="M585.539,-367.436C608.756,-370.594 639.99,-377.329 664,-391.665 684.535,-403.927 681.627,-416.352 700,-431.665 722.744,-450.622 750.397,-468.27 774.342,-482.14"/>
<polygon fill="red" stroke="red" points="772.9,-485.347 783.32,-487.266 776.371,-479.268 772.9,-485.347"/>
</g>
<!-- iPad&#45;&gt;usb_boot -->
<g id="edge62" class="edge"><title>iPad&#45;&gt;usb_boot</title>
<path fill="none" stroke="red" d="M585.59,-365.489C623.814,-366.455 688.733,-368.095 742.061,-369.443"/>
<polygon fill="red" stroke="red" points="742.132,-372.946 752.217,-369.699 742.309,-365.948 742.132,-372.946"/>
</g>
<!-- iPad&#45;&gt;tunneling -->
<g id="edge63" class="edge"><title>iPad&#45;&gt;tunneling</title>
<path fill="none" stroke="red" d="M582.911,-372.085C619.047,-380.96 677.761,-395.074 700,-398.665 798.56,-414.58 913.386,-423.757 987.534,-428.478"/>
<polygon fill="red" stroke="red" points="987.522,-431.984 997.721,-429.115 987.958,-424.998 987.522,-431.984"/>
</g>
<!-- patent&#45;&gt;alt_player -->
<g id="edge53" class="edge"><title>patent&#45;&gt;alt_player</title>
<path fill="none" stroke="red" d="M316.553,-551.178C346.614,-560.332 397.236,-574.295 442,-579.665 539.964,-591.417 567.192,-598.725 664,-579.665 702.658,-572.054 743.648,-555.359 775.224,-540.416"/>
<polygon fill="red" stroke="red" points="776.796,-543.544 784.289,-536.053 773.76,-537.237 776.796,-543.544"/>
</g>
<!-- patent&#45;&gt;alt_device -->
<g id="edge54" class="edge"><title>patent&#45;&gt;alt_device</title>
<path fill="none" stroke="red" d="M320.169,-542.665C351.909,-542.665 403.633,-542.665 450.277,-542.665"/>
<polygon fill="red" stroke="red" points="450.452,-546.165 460.452,-542.665 450.452,-539.165 450.452,-546.165"/>
</g>
<!-- suppress_clone&#45;&gt;alt_player -->
<g id="edge55" class="edge"><title>suppress_clone&#45;&gt;alt_player</title>
<path fill="none" stroke="red" d="M401.234,-491.815C497.304,-496.262 634.966,-502.636 728.183,-506.951"/>
<polygon fill="red" stroke="red" points="728.04,-510.448 738.191,-507.415 728.364,-503.456 728.04,-510.448"/>
</g>
<!-- suppress_clone&#45;&gt;alt_device -->
<g id="edge56" class="edge"><title>suppress_clone&#45;&gt;alt_device</title>
<path fill="none" stroke="red" d="M358.414,-501.232C391.663,-508.312 431.964,-516.893 467.247,-524.406"/>
<polygon fill="red" stroke="red" points="466.545,-527.835 477.055,-526.494 468.003,-520.988 466.545,-527.835"/>
</g>
<!-- alt_player&#45;&gt;DRM -->
<g id="edge44" class="edge"><title>alt_player&#45;&gt;DRM</title>
<path fill="none" stroke="blue" d="M782.633,-487.59C747.651,-466.905 702.667,-433.486 682,-389.665 661.714,-346.653 662.391,-325.99 682,-282.665 701.175,-240.3 741.735,-206.263 775.553,-183.66"/>
<polygon fill="blue" stroke="blue" points="777.522,-186.554 783.988,-178.161 773.7,-180.69 777.522,-186.554"/>
</g>
<!-- alt_device&#45;&gt;alt_player -->
<g id="edge33" class="edge"><title>alt_device&#45;&gt;alt_player</title>
<path fill="none" stroke="blue" d="M639.885,-532.942C669.392,-529.639 702.547,-525.929 732.806,-522.542"/>
<polygon fill="blue" stroke="blue" points="733.399,-525.998 742.948,-521.407 732.621,-519.041 733.399,-525.998"/>
</g>
<!-- alt_device&#45;&gt;usb_boot -->
<g id="edge34" class="edge"><title>alt_device&#45;&gt;usb_boot</title>
<path fill="none" stroke="blue" d="M593.872,-517.433C647.82,-484.13 741.977,-426.004 793.592,-394.141"/>
<polygon fill="blue" stroke="blue" points="795.741,-396.927 802.412,-388.696 792.064,-390.971 795.741,-396.927"/>
</g>
<!-- alt_device&#45;&gt;tunneling -->
<g id="edge35" class="edge"><title>alt_device&#45;&gt;tunneling</title>
<path fill="none" stroke="blue" d="M623.499,-560.895C707.585,-578.861 850.51,-597.241 960,-548.665 1001,-530.475 1032.8,-487.487 1050.2,-459.261"/>
<polygon fill="blue" stroke="blue" points="1053.21,-461.044 1055.34,-450.665 1047.2,-457.452 1053.21,-461.044"/>
</g>
<!-- usb_boot&#45;&gt;gwf_China -->
<g id="edge39" class="edge"><title>usb_boot&#45;&gt;gwf_China</title>
<path fill="none" stroke="blue" d="M907.524,-374.434C978.833,-376.981 1084.59,-380.757 1159.69,-383.44"/>
<polygon fill="blue" stroke="blue" points="1159.95,-386.951 1170.07,-383.811 1160.2,-379.956 1159.95,-386.951"/>
</g>
<!-- usb_boot&#45;&gt;gwf_USA -->
<g id="edge40" class="edge"><title>usb_boot&#45;&gt;gwf_USA</title>
<path fill="none" stroke="blue" d="M900.628,-363.902C962.626,-356.34 1054.98,-343.256 1134,-324.665 1151.11,-320.638 1169.35,-315.322 1186.18,-309.98"/>
<polygon fill="blue" stroke="blue" points="1187.46,-313.244 1195.9,-306.841 1185.31,-306.582 1187.46,-313.244"/>
</g>
<!-- usb_boot&#45;&gt;tunneling -->
<g id="edge30" class="edge"><title>usb_boot&#45;&gt;tunneling</title>
<path fill="none" stroke="blue" d="M884.165,-384.638C907.531,-390.327 935.15,-397.176 960,-403.665 975.686,-407.761 992.64,-412.365 1008.25,-416.679"/>
<polygon fill="blue" stroke="blue" points="1007.72,-420.163 1018.29,-419.463 1009.59,-413.418 1007.72,-420.163"/>
</g>
<!-- tunneling&#45;&gt;gwf_China -->
<g id="edge41" class="edge"><title>tunneling&#45;&gt;gwf_China</title>
<path fill="none" stroke="blue" d="M1115.06,-420.217C1133.19,-415.71 1154.09,-410.513 1173.95,-405.576"/>
<polygon fill="blue" stroke="blue" points="1175.04,-408.91 1183.9,-403.1 1173.35,-402.117 1175.04,-408.91"/>
</g>
<!-- tunneling&#45;&gt;gwf_USA -->
<g id="edge42" class="edge"><title>tunneling&#45;&gt;gwf_USA</title>
<path fill="none" stroke="blue" d="M1086.2,-415.466C1107.33,-398.384 1140.75,-371.514 1170,-348.665 1182.19,-339.144 1195.52,-328.909 1207.74,-319.595"/>
<polygon fill="blue" stroke="blue" points="1210.16,-322.154 1216,-313.314 1205.92,-316.583 1210.16,-322.154"/>
</g>
</g>
</svg>
