<?xml version="1.0" encoding="UTF-8" standalone="no"?>
<!-- Created with Inkscape (http://www.inkscape.org/) -->

<svg
   xmlns:dc="http://purl.org/dc/elements/1.1/"
   xmlns:cc="http://creativecommons.org/ns#"
   xmlns:rdf="http://www.w3.org/1999/02/22-rdf-syntax-ns#"
   xmlns:svg="http://www.w3.org/2000/svg"
   xmlns="http://www.w3.org/2000/svg"
   xmlns:xlink="http://www.w3.org/1999/xlink"
   xmlns:sodipodi="http://sodipodi.sourceforge.net/DTD/sodipodi-0.dtd"
   xmlns:inkscape="http://www.inkscape.org/namespaces/inkscape"
   width="825"
   height="459.27835"
   id="svg2"
   version="1.1"
   inkscape:version="0.48.2 r9819"
   sodipodi:docname="apple-patent-troll.svg"
   inkscape:export-filename="/home/ckhung/apple-patent-troll.png"
   inkscape:export-xdpi="90"
   inkscape:export-ydpi="90">
  <defs
     id="defs4" />
  <sodipodi:namedview
     id="base"
     pagecolor="#ffffff"
     bordercolor="#666666"
     borderopacity="1.0"
     inkscape:pageopacity="0.0"
     inkscape:pageshadow="2"
     inkscape:zoom="1"
     inkscape:cx="425.91926"
     inkscape:cy="244.01464"
     inkscape:document-units="px"
     inkscape:current-layer="layer1"
     showgrid="false"
     fit-margin-top="0"
     fit-margin-left="0"
     fit-margin-right="0"
     fit-margin-bottom="0"
     inkscape:window-width="1103"
     inkscape:window-height="968"
     inkscape:window-x="80"
     inkscape:window-y="28"
     inkscape:window-maximized="0" />
  <metadata
     id="metadata7">
    <rdf:RDF>
      <cc:Work
         rdf:about="">
        <dc:format>image/svg+xml</dc:format>
        <dc:type
           rdf:resource="http://purl.org/dc/dcmitype/StillImage" />
        <dc:title />
      </cc:Work>
    </rdf:RDF>
  </metadata>
  <g
     inkscape:label="Layer 1"
     inkscape:groupmode="layer"
     id="layer1"
     transform="translate(-746.42859,-421.36218)">
    <image
       y="421.36218"
       x="746.42859"
       id="image3035"
       xlink:href="file:///home/ckhung/public_html/m/12/jobs-pointing.jpg"
       height="459.27835"
       width="825" />
    <image
       y="419.36218"
       x="1297.9286"
       id="image3093"
       xlink:href="file:///home/ckhung/public_html/m/12/roach-suit.png"
       height="279"
       width="241" />
    <image
       y="445.36218"
       x="923.92859"
       id="image3139"
       xlink:href="file:///home/ckhung/public_html/m/12/will-program.png"
       height="204"
       width="141" />
    <image
       y="449.36218"
       x="767.92859"
       id="image3210"
       xlink:href="file:///home/ckhung/public_html/m/12/will-design.png"
       height="221"
       width="135" />
    <image
       y="662.86218"
       x="1348.9286"
       id="image3295"
       xlink:href="file:///home/ckhung/public_html/m/12/think-different.jpg"
       height="216"
       width="171"
       style="fill:#ff0000" />
    <use
       x="0"
       y="0"
       xlink:href="#image3139"
       id="use3298"
       transform="translate(-164,212)"
       width="800"
       height="500" />
    <use
       x="0"
       y="0"
       xlink:href="#image3210"
       id="use3300"
       transform="translate(151,216)"
       width="800"
       height="500" />
    <path
       style="fill:#ffff00;fill-opacity:1"
       id="path3302"
       d="m 1439.4454,689.76124 c 2.2035,-0.24221 4.3589,-0.47892 6.5017,-1.0407 1.982,-0.29472 3.8328,-0.96467 5.4763,-2.11673 -28.2859,16.32376 -2.1359,1.1982 1.6635,-0.84252 4.0419,-2.17097 -7.9597,4.56565 -11.9457,6.83765 -0.2361,0.1346 0.4594,-0.29099 0.6958,-0.42527 4.4725,-2.54138 8.8684,-5.22446 13.4304,-7.6015 4.0989,-2.1357 -8.0266,4.58467 -12.04,6.87701 35.7416,-20.55976 1.2706,-0.73344 1.3807,-0.78742 5.2999,-2.59821 11.2191,-6.27016 16.6829,-9.38315 -26.464,15.27938 -0.076,-0.1389 8.1873,-4.45698 -3.7797,2.16416 -7.5525,4.34048 -11.3392,6.49246 -0.3556,0.20212 0.6909,-0.43867 1.0456,-0.64254 4.524,-2.60075 9.0406,-5.21468 13.5899,-7.77104 3.9439,-2.21621 -15.6215,9.13014 -11.7739,6.75056 11.3002,-6.98882 8.7314,-5.93992 14.2349,-8.08329 -31.6275,18.11634 0.8906,-0.5533 1.3474,-0.81012 4.0441,-2.2737 -8.029,4.65151 -12.0633,6.94253 -0.2107,0.1196 0.3889,-0.28902 0.5885,-0.42623 0.5892,-0.40504 1.2218,-0.7918 1.8247,-1.17062 38.1513,-22.01809 1.7959,-1.12639 2.7237,-1.63795 6.2698,-3.45732 12.4081,-7.21852 18.7428,-10.57693 -23.1079,11.27246 -12.1257,7.95152 -8.5981,4.63628 0.553,-0.51963 0.5685,-0.64705 0.9453,-1.28532 0.351,-0.77679 0.4623,-1.62471 0.6214,-2.45375 0,0 13.3384,-6.39169 13.3384,-6.39169 l 0,0 c -0.2775,0.88547 -0.3432,1.76826 -0.5261,2.67759 -0.6223,1.96283 -1.6371,2.9539 -3.4052,3.98262 -4.5776,2.66344 -9.159,5.32029 -13.7385,7.98044 -1.0011,0.54814 -1.9974,1.10524 -3.0023,1.64627 -0.541,0.29126 -2.1585,1.17405 -1.63,0.86073 11.0115,-6.52787 20.2255,-11.65002 -3.0864,1.77683 -3.7768,2.17534 7.5316,-4.38898 11.2974,-6.58346 -4.817,3.55391 -10.8921,6.06402 -15.5637,9.31163 -0.4279,0.29745 34.7811,-20.12663 -1.3844,0.72633 -0.2469,0.13741 -0.9849,0.55412 -0.7406,0.41222 3.9419,-2.28955 15.7953,-9.11034 11.8336,-6.85523 -4.5054,2.56455 -8.9458,5.24263 -13.4645,7.78359 -24.5676,13.81475 18.8772,-10.95373 10.507,-6.09062 -4.5682,2.65412 -9.1392,5.30346 -13.7088,7.95519 -1.419,0.77418 -2.8366,1.5488 -4.2659,2.30385 -0.455,0.24039 -1.8085,0.98246 -1.3652,0.72097 1.361,-0.80293 32.6266,-18.98633 -2.5764,1.49066 -1.1425,0.636 -1.1489,0.66013 -2.2714,1.21068 -0.3313,0.16249 -1.3183,0.66135 -1.0006,0.47366 3.9139,-2.31211 15.7464,-9.09233 11.7927,-6.84908 -0.4575,0.25956 -33.0163,19.12288 -1.3592,0.80147 -44.5233,25.50878 8.2323,-4.82186 -2.1144,1.13145 -4.4651,2.56911 -8.8997,5.19153 -13.3866,7.72231 -1.7247,0.9728 36.2603,-20.94416 -1.5928,0.90291 -1.8421,0.84939 -3.7266,1.44034 -5.7325,1.77237 -2.1891,0.45366 -4.4375,0.53016 -6.6136,1.06452 0,0 11.8374,-8.96264 11.8374,-8.96264 z"
       inkscape:connector-curvature="0" />
    <text
       xml:space="preserve"
       style="font-size:24px;font-style:normal;font-weight:normal;line-height:125%;letter-spacing:0px;word-spacing:0px;fill:#ffff00;fill-opacity:1;stroke:none;font-family:Sans"
       x="1357.9286"
       y="721.36218"
       id="text3306"
       sodipodi:linespacing="125%"><tspan
         sodipodi:role="line"
         id="tspan3308"
         x="1357.9286"
         y="721.36218">Patent</tspan></text>
  </g>
</svg>
