<?xml version="1.0" encoding="UTF-8" standalone="no"?>
<!-- Created with Inkscape (http://www.inkscape.org/) -->

<svg
   xmlns:dc="http://purl.org/dc/elements/1.1/"
   xmlns:cc="http://creativecommons.org/ns#"
   xmlns:rdf="http://www.w3.org/1999/02/22-rdf-syntax-ns#"
   xmlns:svg="http://www.w3.org/2000/svg"
   xmlns="http://www.w3.org/2000/svg"
   xmlns:xlink="http://www.w3.org/1999/xlink"
   xmlns:sodipodi="http://sodipodi.sourceforge.net/DTD/sodipodi-0.dtd"
   xmlns:inkscape="http://www.inkscape.org/namespaces/inkscape"
   width="360"
   height="305"
   id="svg2"
   version="1.1"
   inkscape:version="0.48.3.1 r9886"
   sodipodi:docname="elsevier-milk-scholar.svg"
   inkscape:export-filename="/mnt/worksp/home/ckhung/public_html/m/12/elsevier-milk-scholar.png"
   inkscape:export-xdpi="90"
   inkscape:export-ydpi="90">
  <defs
     id="defs4" />
  <sodipodi:namedview
     id="base"
     pagecolor="#ffffff"
     bordercolor="#666666"
     borderopacity="1.0"
     inkscape:pageopacity="0.0"
     inkscape:pageshadow="2"
     inkscape:zoom="1.7836066"
     inkscape:cx="180"
     inkscape:cy="152.5"
     inkscape:document-units="px"
     inkscape:current-layer="layer1"
     showgrid="false"
     fit-margin-top="0"
     fit-margin-left="0"
     fit-margin-right="0"
     fit-margin-bottom="0"
     inkscape:window-width="815"
     inkscape:window-height="718"
     inkscape:window-x="0"
     inkscape:window-y="0"
     inkscape:window-maximized="0" />
  <metadata
     id="metadata7">
    <rdf:RDF>
      <cc:Work
         rdf:about="">
        <dc:format>image/svg+xml</dc:format>
        <dc:type
           rdf:resource="http://purl.org/dc/dcmitype/StillImage" />
        <dc:title />
      </cc:Work>
    </rdf:RDF>
  </metadata>
  <g
     inkscape:label="Layer 1"
     inkscape:groupmode="layer"
     id="layer1"
     transform="translate(-657.14288,-551.29077)">
    <image
       y="551.29077"
       x="657.14288"
       id="image3012"
       xlink:href="file:///home/ckhung/public_html/m/12/cash-cow.jpg"
       height="305"
       width="360" />
    <a
       id="a2523"
       transform="matrix(2.7666012,0,0,2.1947579,583.69783,520.24652)">
      <g
         transform="matrix(0.143374,0,0,0.138792,112.70755,14.885027)"
         inkscape:label="Layer 1"
         id="g2525">
        <g
           id="g2527"
           transform="translate(-80.789946,81.867142)">
          <path
             inkscape:connector-curvature="0"
             sodipodi:nodetypes="ccssccc"
             id="path2529"
             d="m 146.4991,-26.391382 -9.69479,37.701975 c 0,0 15.08079,21.543985 38.77917,32.315978 23.69838,10.771993 45.06339,25.878352 71.09515,17.235188 27.52686,-9.139569 48.47397,-39.856373 48.47397,-39.856373 l -24.77558,-57.091561 -123.87792,9.694793 z"
             style="fill:#000000;fill-opacity:1;fill-rule:evenodd;stroke:#000000;stroke-width:1px;stroke-linecap:butt;stroke-linejoin:miter;stroke-opacity:1" />
          <path
             inkscape:connector-curvature="0"
             sodipodi:nodetypes="ccccc"
             id="path2531"
             d="M 76.481149,-25.314184 191.74147,-80.251347 347.93537,-57.630162 236.98385,4.8473969 76.481149,-25.314184 z"
             style="fill:#505050;fill-opacity:1;fill-rule:evenodd;stroke:#000000;stroke-width:1px;stroke-linecap:butt;stroke-linejoin:miter;stroke-opacity:1" />
          <path
             inkscape:connector-curvature="0"
             id="path2533"
             d="m 194.97307,-41.472172 c 0,0 -54.93716,-8.617595 -81.86715,7.540395 -26.929977,16.157989 -19.389582,80.789945 -19.389582,80.789945 l 4.308795,-12.926391 8.617597,12.926392 0,-12.926391 12.92639,10.771992 c 0,0 -20.466786,-31.238779 -9.69479,-51.7055653 10.77199,-20.4667867 29.08438,-28.0071817 39.85637,-28.0071817 10.77199,0 46.31957,-7.540395 45.24237,-6.463195 z"
             style="fill:#e39b0e;fill-opacity:1;fill-rule:evenodd;stroke:#000000;stroke-width:1px;stroke-linecap:butt;stroke-linejoin:miter;stroke-opacity:1"
             sodipodi:nodetypes="cscccccssc" />
        </g>
      </g>
    </a>
    <text
       xml:space="preserve"
       style="font-size:24px;font-style:normal;font-variant:normal;font-weight:normal;font-stretch:normal;line-height:125%;letter-spacing:0px;word-spacing:0px;fill:#000000;fill-opacity:1;stroke:none;font-family:AR PL UKai TW;-inkscape-font-specification:AR PL UKai TW"
       x="719.14288"
       y="758.29077"
       id="text3802"
       sodipodi:linespacing="125%"><tspan
         sodipodi:role="line"
         id="tspan3804"
         x="719.14288"
         y="758.29077">Elsevier</tspan></text>
    <image
       y="553.29077"
       x="659.54291"
       id="image3018"
       xlink:href="file:///home/ckhung/public_html/m/12/angry-cows.jpg"
       height="89.75"
       width="143.60001" />
    <path
       style="fill:#ffff00;fill-opacity:1;stroke:#000000;stroke-width:1px;stroke-linecap:butt;stroke-linejoin:miter;stroke-opacity:1"
       d="m 139,36 c 0,0 9.12132,-24.954044 16.12132,-27.9540441 7,-3 55.13203,-6.9502921 65.31802,0.6819853 10.18598,7.6322778 3.59387,57.5518498 -4.40993,67.5147058 -8.00379,9.962856 -46.63603,14.150735 -53.63603,4.150735 -7,-10 -7.02941,-40.150735 -3.02941,-49.150735 4,-9 -1.24265,-14.121323 -6.24265,-11.121323 C 148.12132,23.121324 139,36 139,36 z"
       id="path3014"
       inkscape:connector-curvature="0"
       transform="translate(657.14288,551.29077)"
       sodipodi:nodetypes="cszzsssc" />
    <path
       style="fill:#ffff00;fill-opacity:1;stroke:#000000;stroke-width:1px;stroke-linecap:butt;stroke-linejoin:miter;stroke-opacity:1"
       d="m 191,207 c 0,0 26.19669,15.19669 24.19669,26.19669 -2,11 -18.39338,19.46875 -21.39338,30.46875 -3,11 -3.51471,27.60662 4.92463,36.33456 6.4087,6.62786 61.27206,7 66.27206,2 5,-5 7.07537,-22.48529 -1.92463,-29.48529 -9,-7 -33.1311,0.56148 -40.46875,-7.63603 -7.33766,-8.19752 6.47998,-18.71951 3.83272,-33.15074 C 223.79208,217.29671 191,207 191,207 z"
       id="path3016"
       inkscape:connector-curvature="0"
       transform="translate(657.14288,551.29077)"
       sodipodi:nodetypes="cssssszzc" />
    <text
       xml:space="preserve"
       style="font-size:12px;font-style:normal;font-weight:normal;line-height:125%;letter-spacing:0px;word-spacing:0px;fill:#000000;fill-opacity:1;stroke:none;font-family:Sans"
       x="823.14288"
       y="569.29077"
       id="text3002"
       sodipodi:linespacing="125%"><tspan
         sodipodi:role="line"
         id="tspan3004"
         x="823.14288"
         y="569.29077">Federal</tspan><tspan
         sodipodi:role="line"
         x="823.14288"
         y="584.29077"
         id="tspan3006">Research</tspan><tspan
         sodipodi:role="line"
         x="823.14288"
         y="599.29077"
         id="tspan3008">Public</tspan><tspan
         sodipodi:role="line"
         x="823.14288"
         y="614.29077"
         id="tspan3010">Access</tspan><tspan
         sodipodi:role="line"
         x="823.14288"
         y="629.29077"
         id="tspan3012">Act!</tspan></text>
    <text
       xml:space="preserve"
       style="font-size:12px;font-style:normal;font-weight:normal;line-height:125%;letter-spacing:0px;word-spacing:0px;fill:#000000;fill-opacity:1;stroke:none;font-family:Sans"
       x="857.14288"
       y="833.29077"
       id="text2992"
       sodipodi:linespacing="125%"><tspan
         sodipodi:role="line"
         id="tspan2994"
         x="857.14288"
         y="833.29077">Research</tspan><tspan
         sodipodi:role="line"
         x="857.14288"
         y="848.29077"
         id="tspan2998">Works Act!</tspan></text>
  </g>
</svg>
