<?xml version="1.0" encoding="UTF-8" standalone="no"?>
<svg
   xmlns:dc="http://purl.org/dc/elements/1.1/"
   xmlns:cc="http://creativecommons.org/ns#"
   xmlns:rdf="http://www.w3.org/1999/02/22-rdf-syntax-ns#"
   xmlns:svg="http://www.w3.org/2000/svg"
   xmlns="http://www.w3.org/2000/svg"
   xmlns:xlink="http://www.w3.org/1999/xlink"
   xmlns:sodipodi="http://sodipodi.sourceforge.net/DTD/sodipodi-0.dtd"
   xmlns:inkscape="http://www.inkscape.org/namespaces/inkscape"
   width="600"
   height="480"
   viewBox="0 0 600 480"
   id="svg2"
   version="1.1"
   inkscape:version="0.48.1 r9760"
   sodipodi:docname="party-vote.svg"
   inkscape:export-filename="/mnt/worksp/home/ckhung/public_html/m/12/party-vote.png"
   inkscape:export-xdpi="90"
   inkscape:export-ydpi="90">
  <metadata
     id="metadata194">
    <rdf:RDF>
      <cc:Work
         rdf:about="">
        <dc:format>image/svg+xml</dc:format>
        <dc:type
           rdf:resource="http://purl.org/dc/dcmitype/StillImage" />
        <dc:title></dc:title>
      </cc:Work>
    </rdf:RDF>
  </metadata>
  <sodipodi:namedview
     pagecolor="#ffffff"
     bordercolor="#666666"
     borderopacity="1"
     objecttolerance="10"
     gridtolerance="10"
     guidetolerance="10"
     inkscape:pageopacity="1"
     inkscape:pageshadow="2"
     inkscape:window-width="1024"
     inkscape:window-height="720"
     id="namedview192"
     showgrid="false"
     inkscape:zoom="1"
     inkscape:cx="300"
     inkscape:cy="240"
     inkscape:window-x="-2"
     inkscape:window-y="0"
     inkscape:window-maximized="1"
     inkscape:current-layer="svg2" />
  <desc
     id="desc4">Produced by GNUPLOT 4.4 patchlevel 0 </desc>
  <defs
     id="defs6">
    <circle
       id="gpDot"
       r="0.5"
       stroke-width="0.5" />
    <path
       id="gpPt0"
       stroke-width="0.222"
       stroke="currentColor"
       d="M-1,0 h2 M0,-1 v2" />
    <path
       id="gpPt1"
       stroke-width="0.222"
       stroke="currentColor"
       d="M-1,-1 L1,1 M1,-1 L-1,1" />
    <path
       id="gpPt2"
       stroke-width="0.222"
       stroke="currentColor"
       d="M-1,0 L1,0 M0,-1 L0,1 M-1,-1 L1,1 M-1,1 L1,-1" />
    <rect
       id="gpPt3"
       stroke-width="0.222"
       stroke="currentColor"
       x="-1"
       y="-1"
       width="2"
       height="2" />
    <rect
       id="gpPt4"
       stroke-width="0.222"
       stroke="currentColor"
       fill="currentColor"
       x="-1"
       y="-1"
       width="2"
       height="2" />
    <circle
       id="gpPt5"
       stroke-width="0.222"
       stroke="currentColor"
       cx="0"
       cy="0"
       r="1" />
    <use
       xlink:href="#gpPt5"
       id="gpPt6"
       fill="currentColor"
       stroke="none" />
    <path
       id="gpPt7"
       stroke-width="0.222"
       stroke="currentColor"
       d="M0,-1.33 L-1.33,0.67 L1.33,0.67 z" />
    <use
       xlink:href="#gpPt7"
       id="gpPt8"
       fill="currentColor"
       stroke="none" />
    <use
       xlink:href="#gpPt7"
       id="gpPt9"
       stroke="currentColor"
       transform="rotate(180)" />
    <use
       xlink:href="#gpPt9"
       id="gpPt10"
       fill="currentColor"
       stroke="none" />
    <use
       xlink:href="#gpPt3"
       id="gpPt11"
       stroke="currentColor"
       transform="rotate(45)" />
    <use
       xlink:href="#gpPt11"
       id="gpPt12"
       fill="currentColor"
       stroke="none" />
  </defs>
  <g
     style="fill:none; color:white; stroke:currentColor; stroke-width:1.00; stroke-linecap:butt; stroke-linejoin:miter"
     id="g22" />
  <g
     style="fill:none; color:black; stroke:currentColor; stroke-width:1.00; stroke-linecap:butt; stroke-linejoin:miter"
     id="g24">
    <path
       d="M53.9,444.0 L62.9,444.0 M579.1,444.0 L570.1,444.0 "
       id="path26" />
    <g
       transform="translate(45.6,448.5)"
       style="stroke:none; fill:black; font-family:Arial; font-size:12.00pt; text-anchor:end"
       id="g28">
      <text
         id="text30"> 0</text>
    </g>
    <path
       d="M53.9,372.8 L62.9,372.8 M579.1,372.8 L570.1,372.8 "
       id="path32" />
    <g
       transform="translate(45.6,377.3)"
       style="stroke:none; fill:black; font-family:Arial; font-size:12.00pt; text-anchor:end"
       id="g34">
      <text
         id="text36"> 10</text>
    </g>
    <path
       d="M53.9,301.6 L62.9,301.6 M579.1,301.6 L570.1,301.6 "
       id="path38" />
    <g
       transform="translate(45.6,306.1)"
       style="stroke:none; fill:black; font-family:Arial; font-size:12.00pt; text-anchor:end"
       id="g40">
      <text
         id="text42"> 20</text>
    </g>
    <path
       d="M53.9,230.3 L62.9,230.3 M579.1,230.3 L570.1,230.3 "
       id="path44" />
    <g
       transform="translate(45.6,234.8)"
       style="stroke:none; fill:black; font-family:Arial; font-size:12.00pt; text-anchor:end"
       id="g46">
      <text
         id="text48"> 30</text>
    </g>
    <path
       d="M53.9,159.1 L62.9,159.1 M579.1,159.1 L570.1,159.1 "
       id="path50" />
    <g
       transform="translate(45.6,163.6)"
       style="stroke:none; fill:black; font-family:Arial; font-size:12.00pt; text-anchor:end"
       id="g52">
      <text
         id="text54"> 40</text>
    </g>
    <path
       d="M53.9,87.9 L62.9,87.9 M579.1,87.9 L570.1,87.9 "
       id="path56" />
    <g
       transform="translate(45.6,92.4)"
       style="stroke:none; fill:black; font-family:Arial; font-size:12.00pt; text-anchor:end"
       id="g58">
      <text
         id="text60"> 50</text>
    </g>
    <path
       d="M53.9,16.7 L62.9,16.7 M579.1,16.7 L570.1,16.7 "
       id="path62" />
    <g
       transform="translate(45.6,21.2)"
       style="stroke:none; fill:black; font-family:Arial; font-size:12.00pt; text-anchor:end"
       id="g64">
      <text
         id="text66"> 60</text>
    </g>
    <path
       d="M53.9,444.0 L53.9,435.0 M53.9,16.7 L53.9,25.7 "
       id="path68" />
    <g
       transform="translate(53.9,466.5)"
       style="stroke:none; fill:black; font-family:Arial; font-size:12.00pt; text-anchor:middle"
       id="g70">
      <text
         id="text72"> 0</text>
    </g>
    <path
       d="M141.4,444.0 L141.4,435.0 M141.4,16.7 L141.4,25.7 "
       id="path74" />
    <g
       transform="translate(141.4,466.5)"
       style="stroke:none; fill:black; font-family:Arial; font-size:12.00pt; text-anchor:middle"
       id="g76">
      <text
         id="text78"> 2</text>
    </g>
    <path
       d="M229.0,444.0 L229.0,435.0 M229.0,16.7 L229.0,25.7 "
       id="path80" />
    <g
       transform="translate(229.0,466.5)"
       style="stroke:none; fill:black; font-family:Arial; font-size:12.00pt; text-anchor:middle"
       id="g82">
      <text
         id="text84"> 4</text>
    </g>
    <path
       d="M316.5,444.0 L316.5,435.0 M316.5,16.7 L316.5,25.7 "
       id="path86" />
    <g
       transform="translate(316.5,466.5)"
       style="stroke:none; fill:black; font-family:Arial; font-size:12.00pt; text-anchor:middle"
       id="g88">
      <text
         id="text90"> 6</text>
    </g>
    <path
       d="M404.0,444.0 L404.0,435.0 M404.0,16.7 L404.0,25.7 "
       id="path92" />
    <g
       transform="translate(404.0,466.5)"
       style="stroke:none; fill:black; font-family:Arial; font-size:12.00pt; text-anchor:middle"
       id="g94">
      <text
         id="text96"> 8</text>
    </g>
    <path
       d="M491.6,444.0 L491.6,435.0 M491.6,16.7 L491.6,25.7 "
       id="path98" />
    <g
       transform="translate(491.6,466.5)"
       style="stroke:none; fill:black; font-family:Arial; font-size:12.00pt; text-anchor:middle"
       id="g100">
      <text
         id="text102"> 10</text>
    </g>
    <path
       d="M579.1,444.0 L579.1,435.0 M579.1,16.7 L579.1,25.7 "
       id="path104" />
    <g
       transform="translate(579.1,466.5)"
       style="stroke:none; fill:black; font-family:Arial; font-size:12.00pt; text-anchor:middle"
       id="g106">
      <text
         id="text108"> 12</text>
    </g>
    <path
       d="M53.9,16.7 L53.9,444.0 L579.1,444.0 L579.1,16.7 L53.9,16.7 Z "
       id="path110" />
  </g>
  <a
     xlink:title="Plot #1"
     id="a112">
    <g
       style="fill:none; color:red; stroke:currentColor; stroke-width:1.00; stroke-linecap:butt; stroke-linejoin:miter"
       id="g114">
      <g
         transform="translate(512.0,39.2)"
         style="stroke:none; fill:black; font-family:Arial; font-size:12.00pt; text-anchor:end"
         id="g116">
        <text
           id="text118">2008</text>
      </g>
      <path
         d="M520.3,34.7 L562.5,34.7 M53.9,79.4 L97.7,181.2 L141.4,415.5 L185.2,419.1 L229.0,438.3 L272.7,439.0    L316.5,439.7 L360.3,439.7 L404.0,440.4 L447.8,440.4 L491.6,441.2 L535.3,441.9 "
         id="path120" />
      <use
         xlink:href="#gpPt0"
         transform="translate(53.9,79.4) scale(4.50)"
         id="use122" />
      <use
         xlink:href="#gpPt0"
         transform="translate(97.7,181.2) scale(4.50)"
         id="use124" />
      <use
         xlink:href="#gpPt0"
         transform="translate(141.4,415.5) scale(4.50)"
         id="use126" />
      <use
         xlink:href="#gpPt0"
         transform="translate(185.2,419.1) scale(4.50)"
         id="use128" />
      <use
         xlink:href="#gpPt0"
         transform="translate(229.0,438.3) scale(4.50)"
         id="use130" />
      <use
         xlink:href="#gpPt0"
         transform="translate(272.7,439.0) scale(4.50)"
         id="use132" />
      <use
         xlink:href="#gpPt0"
         transform="translate(316.5,439.7) scale(4.50)"
         id="use134" />
      <use
         xlink:href="#gpPt0"
         transform="translate(360.3,439.7) scale(4.50)"
         id="use136" />
      <use
         xlink:href="#gpPt0"
         transform="translate(404.0,440.4) scale(4.50)"
         id="use138" />
      <use
         xlink:href="#gpPt0"
         transform="translate(447.8,440.4) scale(4.50)"
         id="use140" />
      <use
         xlink:href="#gpPt0"
         transform="translate(491.6,441.2) scale(4.50)"
         id="use142" />
      <use
         xlink:href="#gpPt0"
         transform="translate(535.3,441.9) scale(4.50)"
         id="use144" />
      <use
         xlink:href="#gpPt0"
         transform="translate(541.4,34.7) scale(4.50)"
         id="use146" />
    </g>
  </a>
  <a
     xlink:title="Plot #2"
     id="a148">
    <g
       style="fill:none; color:green; stroke:currentColor; stroke-width:1.00; stroke-linecap:butt; stroke-linejoin:miter"
       id="g150">
      <g
         transform="translate(512.0,57.2)"
         style="stroke:none; fill:black; font-family:Arial; font-size:12.00pt; text-anchor:end"
         id="g152">
        <text
           id="text154">2012</text>
      </g>
      <path
         d="M520.3,52.7 L562.5,52.7 M53.9,127.1 L97.7,197.6 L141.4,379.9 L185.2,404.8 L229.0,431.9 L272.7,433.3    L316.5,435.5 L360.3,437.6 L404.0,439.7 L447.8,442.6 L491.6,443.3 "
         id="path156" />
      <use
         xlink:href="#gpPt1"
         transform="translate(53.9,127.1) scale(4.50)"
         id="use158" />
      <use
         xlink:href="#gpPt1"
         transform="translate(97.7,197.6) scale(4.50)"
         id="use160" />
      <use
         xlink:href="#gpPt1"
         transform="translate(141.4,379.9) scale(4.50)"
         id="use162" />
      <use
         xlink:href="#gpPt1"
         transform="translate(185.2,404.8) scale(4.50)"
         id="use164" />
      <use
         xlink:href="#gpPt1"
         transform="translate(229.0,431.9) scale(4.50)"
         id="use166" />
      <use
         xlink:href="#gpPt1"
         transform="translate(272.7,433.3) scale(4.50)"
         id="use168" />
      <use
         xlink:href="#gpPt1"
         transform="translate(316.5,435.5) scale(4.50)"
         id="use170" />
      <use
         xlink:href="#gpPt1"
         transform="translate(360.3,437.6) scale(4.50)"
         id="use172" />
      <use
         xlink:href="#gpPt1"
         transform="translate(404.0,439.7) scale(4.50)"
         id="use174" />
      <use
         xlink:href="#gpPt1"
         transform="translate(447.8,442.6) scale(4.50)"
         id="use176" />
      <use
         xlink:href="#gpPt1"
         transform="translate(491.6,443.3) scale(4.50)"
         id="use178" />
      <use
         xlink:href="#gpPt1"
         transform="translate(541.4,52.7) scale(4.50)"
         id="use180" />
    </g>
  </a>
  <a
     xlink:title="Plot #3"
     id="a182">
    <g
       style="fill:none; color:blue; stroke:currentColor; stroke-width:1.00; stroke-linecap:butt; stroke-linejoin:miter"
       id="g184">
      <path
         d="M53.9,408.4 L58.8,408.4 L63.6,408.4 L68.5,408.4 L73.4,408.4 L78.2,408.4 L83.1,408.4 L87.9,408.4    L92.8,408.4 L97.7,408.4 L102.5,408.4 L107.4,408.4 L112.3,408.4 L117.1,408.4 L122.0,408.4 L126.8,408.4    L131.7,408.4 L136.6,408.4 L141.4,408.4 L146.3,408.4 L151.2,408.4 L156.0,408.4 L160.9,408.4 L165.7,408.4    L170.6,408.4 L175.5,408.4 L180.3,408.4 L185.2,408.4 L190.1,408.4 L194.9,408.4 L199.8,408.4 L204.7,408.4    L209.5,408.4 L214.4,408.4 L219.2,408.4 L224.1,408.4 L229.0,408.4 L233.8,408.4 L238.7,408.4 L243.6,408.4    L248.4,408.4 L253.3,408.4 L258.1,408.4 L263.0,408.4 L267.9,408.4 L272.7,408.4 L277.6,408.4 L282.5,408.4    L287.3,408.4 L292.2,408.4 L297.0,408.4 L301.9,408.4 L306.8,408.4 L311.6,408.4 L316.5,408.4 L321.4,408.4    L326.2,408.4 L331.1,408.4 L336.0,408.4 L340.8,408.4 L345.7,408.4 L350.5,408.4 L355.4,408.4 L360.3,408.4    L365.1,408.4 L370.0,408.4 L374.9,408.4 L379.7,408.4 L384.6,408.4 L389.4,408.4 L394.3,408.4 L399.2,408.4    L404.0,408.4 L408.9,408.4 L413.8,408.4 L418.6,408.4 L423.5,408.4 L428.3,408.4 L433.2,408.4 L438.1,408.4    L442.9,408.4 L447.8,408.4 L452.7,408.4 L457.5,408.4 L462.4,408.4 L467.3,408.4 L472.1,408.4 L477.0,408.4    L481.8,408.4 L486.7,408.4 L491.6,408.4 L496.4,408.4 L501.3,408.4 L506.2,408.4 L511.0,408.4 L515.9,408.4    L520.7,408.4 L525.6,408.4 L530.5,408.4 L535.3,408.4 "
         id="path186" />
    </g>
  </a>
  <g
     style="fill:none; color:black; stroke:currentColor; stroke-width:1.00; stroke-linecap:butt; stroke-linejoin:miter"
     id="g188">
    <path
       d="M53.9,16.7 L53.9,444.0 L579.1,444.0 L579.1,16.7 L53.9,16.7 Z "
       id="path190" />
  </g>
  <text
     xml:space="preserve"
     style="font-size:24px;font-style:normal;font-variant:normal;font-weight:normal;font-stretch:normal;line-height:125%;letter-spacing:0px;word-spacing:0px;fill:#000000;fill-opacity:1;stroke:none;font-family:AR PL UKai TW;-inkscape-font-specification:AR PL UKai TW"
     x="208"
     y="120"
     id="text3171"
     sodipodi:linespacing="125%"><tspan
       sodipodi:role="line"
       id="tspan3173"
       x="208"
       y="120">政黨票的長尾現象</tspan></text>
</svg>
