<?xml version="1.0" encoding="UTF-8" standalone="no"?>
<!-- Created with Inkscape (http://www.inkscape.org/) -->

<svg
   xmlns:dc="http://purl.org/dc/elements/1.1/"
   xmlns:cc="http://creativecommons.org/ns#"
   xmlns:rdf="http://www.w3.org/1999/02/22-rdf-syntax-ns#"
   xmlns:svg="http://www.w3.org/2000/svg"
   xmlns="http://www.w3.org/2000/svg"
   xmlns:xlink="http://www.w3.org/1999/xlink"
   xmlns:sodipodi="http://sodipodi.sourceforge.net/DTD/sodipodi-0.dtd"
   xmlns:inkscape="http://www.inkscape.org/namespaces/inkscape"
   height="300"
   id="svg58479"
   version="1.0"
   width="400"
   x="0.0000000"
   y="0.0000000"
   sodipodi:version="0.32"
   inkscape:version="0.48.1 r9760"
   sodipodi:docname="shoot_jeditux.svg"
   inkscape:output_extension="org.inkscape.output.svg.inkscape"
   inkscape:export-filename="/mnt/worksp/home/ckhung/public_html/m/12/shoot_jeditux.png"
   inkscape:export-xdpi="98.755661"
   inkscape:export-ydpi="98.755661">
  <sodipodi:namedview
     inkscape:window-height="720"
     inkscape:window-width="1024"
     inkscape:pageshadow="2"
     inkscape:pageopacity="1"
     guidetolerance="10.0"
     gridtolerance="10.0"
     objecttolerance="10.0"
     borderopacity="1.0"
     bordercolor="#666666"
     pagecolor="#ffffff"
     id="base"
     showgrid="false"
     inkscape:zoom="1"
     inkscape:cx="142.72888"
     inkscape:cy="218.15052"
     inkscape:window-x="-2"
     inkscape:window-y="0"
     inkscape:current-layer="svg58479"
     inkscape:window-maximized="1" />
  <metadata
     id="metadata3">
    <rdf:RDF>
      <cc:Work
         rdf:about="">
        <dc:title>Blue Gun</dc:title>
        <dc:description />
        <dc:subject>
          <rdf:Bag>
            <rdf:li>weapon</rdf:li>
            <rdf:li />
            <rdf:li>tools</rdf:li>
            <rdf:li>tool</rdf:li>
            <rdf:li>weapons</rdf:li>
            <rdf:li>gun</rdf:li>
          </rdf:Bag>
        </dc:subject>
        <dc:publisher>
          <cc:Agent
             rdf:about="http://www.openclipart.org">
            <dc:title>Alex Fernandez</dc:title>
          </cc:Agent>
        </dc:publisher>
        <dc:creator>
          <cc:Agent>
            <dc:title>Alex Fernandez</dc:title>
          </cc:Agent>
        </dc:creator>
        <dc:rights>
          <cc:Agent>
            <dc:title>Alex Fernandez</dc:title>
          </cc:Agent>
        </dc:rights>
        <dc:date />
        <dc:format>image/svg+xml</dc:format>
        <dc:type
           rdf:resource="http://purl.org/dc/dcmitype/StillImage" />
        <cc:license
           rdf:resource="http://web.resource.org/cc/PublicDomain" />
        <dc:language>en</dc:language>
      </cc:Work>
      <cc:License
         rdf:about="http://web.resource.org/cc/PublicDomain">
        <cc:permits
           rdf:resource="http://web.resource.org/cc/Reproduction" />
        <cc:permits
           rdf:resource="http://web.resource.org/cc/Distribution" />
        <cc:permits
           rdf:resource="http://web.resource.org/cc/DerivativeWorks" />
      </cc:License>
    </rdf:RDF>
  </metadata>
  <defs
     id="defs3">
    <inkscape:perspective
       sodipodi:type="inkscape:persp3d"
       inkscape:vp_x="0 : 80 : 1"
       inkscape:vp_y="0 : 1000 : 0"
       inkscape:vp_z="160 : 80 : 1"
       inkscape:persp3d-origin="80 : 53.333333 : 1"
       id="perspective58" />
    <linearGradient
       gradientTransform="scale(1.153583,0.866864)"
       gradientUnits="userSpaceOnUse"
       id="linearGradient41421"
       x1="-482.48001"
       x2="-486.68314"
       xlink:href="#linearGradient25382"
       y1="1250.859"
       y2="1251.0925" />
    <linearGradient
       gradientTransform="scale(0.900402,1.110615)"
       gradientUnits="userSpaceOnUse"
       id="linearGradient41419"
       x1="-602.61603"
       x2="-597.01825"
       xlink:href="#linearGradient10894"
       y1="1017.1805"
       y2="1016.095" />
    <linearGradient
       id="linearGradient32260">
      <stop
         id="stop32262"
         offset="0.0000000"
         style="stop-color:#00739a;stop-opacity:1.0000000;" />
      <stop
         id="stop32264"
         offset="1.0000000"
         style="stop-color:#025b72;stop-opacity:1.0000000;" />
    </linearGradient>
    <linearGradient
       gradientTransform="matrix(1.089853,0,0,0.917555,0,-0.403564)"
       gradientUnits="userSpaceOnUse"
       id="linearGradient41417"
       spreadMethod="pad"
       x1="-572.37915"
       x2="-571.65222"
       xlink:href="#linearGradient32260"
       y1="1163.3297"
       y2="1164.2794" />
    <linearGradient
       gradientTransform="matrix(1.153583,0,0,0.866864,0,-6)"
       gradientUnits="userSpaceOnUse"
       id="linearGradient41415"
       x1="-482.91605"
       x2="-478.11594"
       xlink:href="#linearGradient25382"
       y1="1276.035"
       y2="1276.0349" />
    <linearGradient
       gradientTransform="scale(1.089853,0.917555)"
       gradientUnits="userSpaceOnUse"
       id="linearGradient41413"
       spreadMethod="pad"
       x1="-576.17468"
       x2="-578.68933"
       xlink:href="#linearGradient20811"
       y1="1182.4661"
       y2="1185.4542" />
    <linearGradient
       id="linearGradient24616">
      <stop
         id="stop24618"
         offset="0.0000000"
         style="stop-color:#000102;stop-opacity:1.0000000;" />
      <stop
         id="stop24620"
         offset="1.0000000"
         style="stop-color:#bae3e7;stop-opacity:1.0000000;" />
    </linearGradient>
    <linearGradient
       gradientTransform="scale(1.089853,0.917555)"
       gradientUnits="userSpaceOnUse"
       id="linearGradient41411"
       spreadMethod="reflect"
       x1="-579.612"
       x2="-579.71954"
       xlink:href="#linearGradient24616"
       y1="1174.7557"
       y2="1170.9596" />
    <linearGradient
       id="linearGradient20811">
      <stop
         id="stop20813"
         offset="0.0000000"
         style="stop-color:#00739a;stop-opacity:1.0000000;" />
      <stop
         id="stop20815"
         offset="1.0000000"
         style="stop-color:#bae3e7;stop-opacity:1.0000000;" />
    </linearGradient>
    <linearGradient
       gradientTransform="scale(1.089853,0.917555)"
       gradientUnits="userSpaceOnUse"
       id="linearGradient41409"
       spreadMethod="reflect"
       x1="-578.3642"
       x2="-572.31775"
       xlink:href="#linearGradient20811"
       y1="1173.9907"
       y2="1173.8068" />
    <linearGradient
       id="linearGradient20043">
      <stop
         id="stop20045"
         offset="0.0000000"
         style="stop-color:#00739a;stop-opacity:1.0000000;" />
      <stop
         id="stop20047"
         offset="1.0000000"
         style="stop-color:#004b65;stop-opacity:1.0000000;" />
    </linearGradient>
    <linearGradient
       gradientTransform="scale(1.745505,0.5729)"
       gradientUnits="userSpaceOnUse"
       id="linearGradient41407"
       spreadMethod="reflect"
       x1="-316.83463"
       x2="-316.42471"
       xlink:href="#linearGradient20043"
       y1="1881.4431"
       y2="1881.4435" />
    <linearGradient
       id="linearGradient25382">
      <stop
         id="stop25384"
         offset="0.0000000"
         style="stop-color:#00739a;stop-opacity:1.0000000;" />
      <stop
         id="stop25386"
         offset="1.0000000"
         style="stop-color:#ffffff;stop-opacity:1.0000000;" />
    </linearGradient>
    <linearGradient
       gradientTransform="scale(1.861882,0.537091)"
       gradientUnits="userSpaceOnUse"
       id="linearGradient41405"
       x1="-304.07706"
       x2="-302.50769"
       xlink:href="#linearGradient25382"
       y1="2034.0258"
       y2="2034.0261" />
    <linearGradient
       id="linearGradient19275">
      <stop
         id="stop19277"
         offset="0.0000000"
         style="stop-color:#00a5dd;stop-opacity:1.0000000;" />
      <stop
         id="stop19279"
         offset="1.0000000"
         style="stop-color:#00739a;stop-opacity:1.0000000;" />
    </linearGradient>
    <radialGradient
       cx="-221.82408"
       cy="2840.011"
       fx="-221.82408"
       fy="2840.011"
       gradientTransform="scale(2.634184,0.379624)"
       gradientUnits="userSpaceOnUse"
       id="radialGradient41403"
       r="12.351559"
       xlink:href="#linearGradient19275" />
    <linearGradient
       id="linearGradient10894">
      <stop
         id="stop10896"
         offset="0.0000000"
         style="stop-color:#ffffff;stop-opacity:1.0000000;" />
      <stop
         id="stop10898"
         offset="1.0000000"
         style="stop-color:#0e4659;stop-opacity:1.0000000;" />
    </linearGradient>
    <linearGradient
       gradientTransform="scale(0.900402,1.110615)"
       gradientUnits="userSpaceOnUse"
       id="linearGradient41401"
       x1="-598.25848"
       x2="-589.17389"
       xlink:href="#linearGradient10894"
       y1="1013.8859"
       y2="1011.1404" />
  </defs>
  <image
     y="37.5"
     x="7"
     id="image3111"
     xlink:href="file:///home/ckhung/public_html/i/JediTux2.jpg"
     height="247"
     width="250" />
  <g
     id="layer1"
     transform="translate(197.49342,-13.63543)">
    <g
       id="g41382"
       transform="matrix(0.92119778,-0.38909465,0.38909465,0.92119778,184.88077,-1104.4393)">
      <path
         d="m -521.09043,1155.861 c -4.35592,-0.5117 -13.38438,3.3345 -12.72653,-3.7149 -0.47259,-6.5076 -7.80269,-38.0582 -10.66916,-42.2486 -3.49726,-0.7348 -7.05723,0.8796 -14.22654,0.3006 -4.36754,-0.3527 -10.48205,-1.0403 -18.02972,-2.8969 1.11704,-3.6593 0.94385,-4.5386 -0.42588,-9.2527 -0.58846,-2.5939 -0.90354,-2.7233 -8.00313,-4.9789 l -38.05104,0.4373 -0.32443,-4.5324 -7.37206,0 -0.0979,-20.9052 13.75768,0.01 1.11128,1.3003 52.5132,-0.051 -0.0496,-0.765 38.35866,-0.01 2.36325,-3.4975 2.65161,3.9367 c 3.45965,4.6747 12.8246,-0.8636 12.81075,5.8626 -2.10303,5.5297 1.61663,12.1974 7.04211,14.8844 3.04783,0.8924 4.46824,4.8938 -0.15966,4.8655 -5.6143,0.4018 -6.5777,2.996 -8.80161,8.0737 -2.24683,5.13 10.63328,31.5355 11.97069,40.6787 -0.12869,11.0579 -18.04585,12.972 -23.64194,12.5067 z m -25.95361,-59.3122 c -3.56117,-0.9497 -5.96639,-0.5896 -6.11848,0.791 -0.32481,2.9481 -6.11024,6.3604 -8.5569,7.7192 -5.73724,0.4395 7.64354,-5.3057 2.28381,-9.331 -4.30364,-1.8252 -13.27761,-0.8504 -15.08049,1.4559 -1.76638,2.2596 3.34287,10.6052 8.78883,11.0651 9.29369,1.1453 25.96555,3.6131 18.68323,-11.7002 z"
         id="path21056"
         style="fill:#000000;fill-opacity:1"
         inkscape:connector-curvature="0" />
      <path
         d="m -546.33492,1088.4604 15.85549,62.8905 c 0,0 35.85812,1.4604 29.96412,-12.3732 l -15.83303,-43.4786 c -5.36224,-3.8301 -3.37312,-5.0512 -9.91442,-5.5871 -6.52558,-0.5346 -20.87224,-4.6252 -20.07216,-1.4516 z"
         id="path7845"
         style="fill:url(#linearGradient41401);fill-opacity:1;fill-rule:evenodd;stroke:none"
         inkscape:connector-curvature="0" />
      <path
         d="m -542.14345,1094.9148 14.36181,53.7292 c 3.86495,2.8568 30.01439,1.1063 24.63104,-9.657 l -12.91536,-37.4946 c -4.70514,-3.3609 -14.45218,-10.1079 -16.97279,-8.7635 -2.5206,1.3442 -9.84623,-0.5882 -9.1047,2.1859 z"
         id="path8605"
         style="fill:#082c3d;fill-opacity:1;fill-rule:evenodd;stroke:none"
         inkscape:connector-curvature="0" />
      <path
         d="m -618.56668,1073.2057 55.68528,0.054 2.35812,9.1812 -57.85351,0.01 -0.18989,-9.2444 z"
         id="rect9365"
         style="fill:url(#radialGradient41403);fill-opacity:1;fill-rule:evenodd;stroke:none"
         inkscape:connector-curvature="0" />
      <path
         d="m -507.04966,1090.7628 c -1.5766,-5.7189 -0.68785,-4.2039 -8.07934,-5.4424 l 7.14001,0.039 c 1.26874,1.5506 3.12978,5.8237 5.08142,7.2322 -3.04776,-0.035 -4.38538,3.9715 -5.31252,8.2639 0.1392,-3.1068 1.53251,-8.7294 1.17043,-10.0929 z"
         id="path39864"
         style="fill:#00739a;fill-opacity:1;fill-rule:evenodd;stroke:none"
         inkscape:connector-curvature="0" />
      <path
         d="m -523.40236,1086.6644 11.64895,-0.304 c 1.93711,0 3.29396,-0.1518 3.29396,1.925 0,2.0768 -2.8734,4.2181 -3.80054,8.5105 -2.02632,-1.8236 -13.07948,-10.1315 -11.14237,-10.1315 z"
         id="rect13176"
         style="fill:#0e4659;fill-opacity:1;fill-rule:evenodd;stroke:none"
         inkscape:connector-curvature="0" />
      <path
         d="m -617.98986,1083.3139 54.9319,-0.019 0.007,9.9993 -14.72758,-0.1457 c -0.88651,-2.8926 -1.32221,-4.3082 -5.7893,-4.5375 l -34.10937,0.3445 -0.31265,-5.6412 z"
         id="path14703"
         style="fill:url(#linearGradient41405);fill-opacity:1;fill-rule:evenodd;stroke:none"
         inkscape:connector-curvature="0" />
      <path
         d="m -529.75149,1073.2308 -33.00537,0 2.4234,9.2156 34.14611,-0.01 -3.56414,-9.211 z"
         id="path18515"
         style="fill:url(#linearGradient41407);fill-opacity:1;fill-rule:evenodd;stroke:none"
         inkscape:connector-curvature="0" />
      <path
         d="m -631.06293,1071.3209 c 4.5215,0.035 10.34697,0.7837 12.58355,1.96 l 0.14881,9.1773 c -3.57999,-0.037 -7.93981,-0.5454 -12.65379,-0.4331 l -0.0786,-10.7042 z"
         id="path20051"
         style="fill:url(#linearGradient41409);fill-opacity:1;fill-rule:evenodd;stroke:none"
         inkscape:connector-curvature="0" />
      <path
         d="m -633.62411,1069.7756 2.64874,-0.01 0.0369,9.0727 -2.6805,-0.1327 c -0.62827,-3.0021 -0.78034,-6.0794 -0.005,-8.9312 z"
         id="path23856"
         style="fill:url(#linearGradient41411);fill-opacity:1;fill-rule:evenodd;stroke:none"
         inkscape:connector-curvature="0" />
      <path
         d="m -630.94727,1083.1945 12.88469,0.1272 0.20928,4.1251 c -3.57999,-0.037 -8.34794,-0.016 -13.06192,0.096 l -0.0321,-4.3483 z"
         id="path27664"
         style="fill:url(#linearGradient41413);fill-opacity:1;fill-rule:evenodd;stroke:none"
         inkscape:connector-curvature="0" />
      <path
         d="m -569.16745,1094.897 c -3.96974,0.5204 -7.707,1.7685 -5.22084,6.0575 2.42823,4.1891 3.0012,7.3721 15.50303,8.8341 -6.85104,-1.001 -13.65985,-1.9598 -17.76597,-2.7918 0.33784,-2.6908 0.63216,-1.2564 0.55315,-3.9703 -0.079,-2.713 -1.39028,-4.5576 -1.55754,-8.0668 l 8.48817,-0.063 z"
         id="path28426"
         style="fill:#00739a;fill-opacity:1;fill-rule:evenodd;stroke:none"
         inkscape:connector-curvature="0" />
      <path
         d="m -551.54668,1095.8006 c -1.51169,0.6412 -0.20484,-0.029 -1.4842,0.8283 -3.26471,3.2301 1.4108,1.4654 -10.35153,7.9672 3.11825,-2.7311 4.76399,-5.3848 4.59673,-8.894 l 7.239,0.099 z"
         id="path29972"
         style="fill:url(#linearGradient41415);fill-opacity:1;fill-rule:evenodd;stroke:none"
         inkscape:connector-curvature="0" />
      <path
         d="m -630.84575,1068.1437 4.29497,-2.0325 c 3.39736,-1.4513 6.03815,-0.5508 6.32146,2.013 l -10.61643,0.02 z"
         id="path30740"
         style="fill:url(#linearGradient41417);fill-opacity:1;fill-rule:evenodd;stroke:none"
         inkscape:connector-curvature="0" />
      <path
         d="m -533.25492,1152.6456 c -1.2043,-10.2679 -6.41461,-31.0224 -9.09998,-39.8093 -4.55438,-7.6001 3.11438,11.7007 5.38604,24.271 2.27604,12.5945 1.12543,19.2737 3.71394,15.5383 z"
         id="path36064"
         style="fill:url(#linearGradient41419);fill-opacity:1;fill-rule:evenodd;stroke:none"
         inkscape:connector-curvature="0" />
      <path
         d="m -526.80792,1073.4212 13.09923,-0.112 c 1.93711,0 3.79481,6.935 3.79481,9.0117 -3.28242,0.5618 -10.98037,0.1823 -12.91748,0.1823 -2.02632,-1.8236 -5.91367,-9.082 -3.97656,-9.082 z"
         id="path36826"
         style="fill:#0e4659;fill-opacity:1;fill-rule:evenodd;stroke:none"
         inkscape:connector-curvature="0" />
      <path
         d="m -546.24431,1081.9134 c 1.21164,0.4535 1.57712,1.1983 2.03206,2.7252 l -16.91637,3.4223 c -1.42063,-1.4164 -0.86198,-3.0604 -0.43449,-3.721 l 15.3188,-2.4265 z"
         id="path39102"
         style="fill:url(#linearGradient41421);fill-opacity:1;fill-rule:evenodd;stroke:none"
         inkscape:connector-curvature="0" />
    </g>
  </g>
  <text
     xml:space="preserve"
     style="font-size:24px;font-style:normal;font-variant:normal;font-weight:normal;font-stretch:normal;line-height:125%;letter-spacing:0px;word-spacing:0px;fill:#ff0000;fill-opacity:1;stroke:none;font-family:AR PL UKai TW;-inkscape-font-specification:AR PL UKai TW"
     x="251"
     y="50"
     id="text3114"
     sodipodi:linespacing="125%"><tspan
       sodipodi:role="line"
       id="tspan3116"
       x="251"
       y="50">專利</tspan></text>
  <path
     style="fill:#ff0000;fill-opacity:1;stroke:none"
     id="path3900"
     d="m 204.05582,88.97052 c -5.05552,5.62293 -10.54951,10.82333 -16.14991,15.89505 -7.4409,7.33131 -16.96984,11.78042 -25.45529,17.67751 -8.61871,7.14462 -15.75796,15.87849 -22.92917,24.42298 -5.55607,6.68759 -11.19875,13.32467 -16.12446,20.50161 -2.58101,3.76064 -3.42806,5.26697 -5.77071,9.11544 -5.04671,9.37985 -10.96377,18.23621 -16.41717,27.37433 -3.89341,7.08418 -7.45485,14.3504 -11.43251,21.38811 -1.05225,1.86824 -2.11921,3.72785 -3.1744,5.59446 0,0 -13.388459,5.95173 -13.388459,5.95173 l 0,0 c 1.154319,-1.90855 2.269112,-3.83859 3.452092,-5.73033 4.406671,-7.04076 8.325441,-14.38416 12.201997,-21.72509 5.37158,-9.15642 11.24586,-18.00992 16.31062,-27.34697 2.41099,-3.94517 3.24017,-5.41712 5.89322,-9.27702 4.98649,-7.25479 10.74847,-13.91016 16.339,-20.696 6.95641,-8.52305 13.87513,-17.20357 22.16239,-24.49023 1.19634,-0.86902 2.35436,-1.79341 3.58903,-2.60705 7.44688,-4.90743 15.85063,-8.4941 22.15492,-15.00974 5.31519,-4.84154 10.55003,-9.80213 15.19177,-15.30519 0,0 13.54704,-5.7336 13.54704,-5.7336 z"
     inkscape:connector-curvature="0" />
  <path
     style="fill:#ff0000;fill-opacity:1;stroke:none"
     id="path3902"
     d="m 49.602187,127.63777 c 2.772123,0.37179 5.401682,1.26483 7.9979,2.27852 3.446001,1.34377 6.865915,2.82488 10.228385,4.38199 3.644671,1.56481 7.02992,3.64052 10.478181,5.58279 5.053827,2.90616 10.255477,5.53588 15.523707,8.0273 5.33837,2.48631 10.81584,4.63962 16.10274,7.23777 5.03383,2.04225 10.11751,3.93143 15.08344,6.13735 4.62926,1.7764 8.98556,4.14776 13.43669,6.31147 4.55676,2.08803 9.03505,4.3115 13.40989,6.76293 5.70677,3.11457 11.40183,6.24467 17.18421,9.21779 6.12045,3.14726 11.82629,7.00988 17.79274,10.42252 6.18163,3.34557 12.30055,6.79512 18.35706,10.36199 3.51522,1.7154 6.5823,4.14797 9.85174,6.25891 2.65275,1.82749 5.44696,3.42674 8.22248,5.05442 1.63378,0.84484 0.82875,0.41194 2.41558,1.29776 0,0 -12.2745,7.99333 -12.2745,7.99333 l 0,0 c -1.5704,-0.88399 -0.77212,-0.43347 -2.39474,-1.35175 -2.7778,-1.657 -5.57242,-3.29639 -8.22751,-5.14669 -3.15604,-2.18161 -6.27703,-4.41666 -9.59336,-6.35532 -5.88536,-3.73246 -11.92416,-7.19588 -18.06117,-10.49859 -6.00088,-3.37197 -11.82968,-7.04464 -17.8985,-10.29509 -5.77404,-3.05718 -11.5632,-6.08548 -17.32859,-9.15897 -4.40723,-2.36785 -8.92765,-4.48235 -13.42586,-6.66679 -4.43001,-2.14664 -8.79954,-4.41937 -13.3523,-6.30472 -4.99224,-2.18535 -10.1323,-3.99726 -15.12336,-6.18588 -5.24714,-2.60963 -10.7201,-4.72029 -15.986262,-7.29029 -5.323881,-2.55817 -10.6242,-5.16472 -15.844025,-7.93051 -3.428693,-1.91385 -6.795819,-3.96398 -10.430301,-5.47545 -3.363249,-1.53485 -6.77447,-2.99689 -10.258579,-4.23365 -2.548586,-0.90883 -5.148889,-1.79189 -7.893888,-1.70868 0,0 12.008202,-8.72446 12.008202,-8.72446 z"
     inkscape:connector-curvature="0" />
</svg>
