<?xml version="1.0" encoding="UTF-8" standalone="no"?>
<!-- Created with Inkscape (http://www.inkscape.org/) -->
<svg
   xmlns:ns="http://creativecommons.org/ns#"
   xmlns:dc="http://purl.org/dc/elements/1.1/"
   xmlns:cc="http://web.resource.org/cc/"
   xmlns:rdf="http://www.w3.org/1999/02/22-rdf-syntax-ns#"
   xmlns:svg="http://www.w3.org/2000/svg"
   xmlns="http://www.w3.org/2000/svg"
   xmlns:xlink="http://www.w3.org/1999/xlink"
   xmlns:sodipodi="http://sodipodi.sourceforge.net/DTD/sodipodi-0.dtd"
   xmlns:inkscape="http://www.inkscape.org/namespaces/inkscape"
   height="663.60736"
   id="svg1"
   version="1.0"
   width="753.13306"
   x="0.0000000"
   y="0.0000000"
   sodipodi:version="0.32"
   inkscape:version="0.45.1"
   sodipodi:docname="thin_client.svg"
   inkscape:output_extension="org.inkscape.output.svg.inkscape"
   sodipodi:docbase="/mnt/worksp/home/ckhung/public_html/a"
   inkscape:export-filename="/mnt/worksp/home/ckhung/public_html/a/thin_client.png"
   inkscape:export-xdpi="23.9"
   inkscape:export-ydpi="23.9">
  <sodipodi:namedview
     inkscape:window-height="626"
     inkscape:window-width="772"
     inkscape:pageshadow="2"
     inkscape:pageopacity="0.0"
     guidetolerance="10.0"
     gridtolerance="10.0"
     objecttolerance="10.0"
     borderopacity="1.0"
     bordercolor="#666666"
     pagecolor="#ffffff"
     id="base"
     showgrid="false"
     inkscape:zoom="0.90555048"
     inkscape:cx="376.56653"
     inkscape:cy="356.14525"
     inkscape:window-x="122"
     inkscape:window-y="46"
     inkscape:current-layer="svg1" />
  <metadata
     id="metadata3">
    <rdf:RDF>
      <ns:Work
         rdf:about="">
        <dc:title>Thin client</dc:title>
        <dc:description />
        <dc:subject>
          <rdf:Bag>
            <rdf:li>computer</rdf:li>
          </rdf:Bag>
        </dc:subject>
        <dc:publisher>
          <ns:Agent
             rdf:about="http://www.openclipart.org/">
            <dc:title>Open Clip Art Library</dc:title>
          </ns:Agent>
        </dc:publisher>
        <dc:creator>
          <ns:Agent>
            <dc:title>Risto Pekkala</dc:title>
          </ns:Agent>
        </dc:creator>
        <dc:rights>
          <ns:Agent>
            <dc:title>Risto Pekkala</dc:title>
          </ns:Agent>
        </dc:rights>
        <dc:date />
        <dc:format>image/svg+xml</dc:format>
        <dc:type
           rdf:resource="http://purl.org/dc/dcmitype/StillImage" />
        <ns:license
           rdf:resource="http://web.resource.org/cc/PublicDomain" />
        <dc:language>en</dc:language>
      </ns:Work>
      <ns:License
         rdf:about="http://web.resource.org/cc/PublicDomain">
        <ns:permits
           rdf:resource="http://web.resource.org/cc/Reproduction" />
        <ns:permits
           rdf:resource="http://web.resource.org/cc/Distribution" />
        <ns:permits
           rdf:resource="http://web.resource.org/cc/DerivativeWorks" />
      </ns:License>
      <cc:Work
         rdf:about="">
        <dc:format>image/svg+xml</dc:format>
        <dc:type
           rdf:resource="http://purl.org/dc/dcmitype/StillImage" />
      </cc:Work>
    </rdf:RDF>
  </metadata>
  <defs
     id="defs3">
    <marker
       inkscape:stockid="Arrow2Lend"
       orient="auto"
       refY="0.0"
       refX="0.0"
       id="Arrow2Lend"
       style="overflow:visible;">
      <path
         id="path7369"
         style="font-size:12.0;fill-rule:evenodd;stroke-width:0.62500000;stroke-linejoin:round;"
         d="M 8.7185878,4.0337352 L -2.2072895,0.016013256 L 8.7185884,-4.0017078 C 6.9730900,-1.6296469 6.9831476,1.6157441 8.7185878,4.0337352 z "
         transform="scale(1.1) rotate(180) translate(1,0)" />
    </marker>
    <marker
       inkscape:stockid="Arrow1Lend"
       orient="auto"
       refY="0.0"
       refX="0.0"
       id="Arrow1Lend"
       style="overflow:visible;">
      <path
         id="path7351"
         d="M 0.0,0.0 L 5.0,-5.0 L -12.5,0.0 L 5.0,5.0 L 0.0,0.0 z "
         style="fill-rule:evenodd;stroke:#000000;stroke-width:1.0pt;marker-start:none;"
         transform="scale(0.8) rotate(180) translate(12.5,0)" />
    </marker>
    <linearGradient
       id="linearGradient902">
      <stop
         id="stop903"
         offset="0.0000000"
         style="stop-color:#d22235;stop-opacity:1.0000000;" />
      <stop
         id="stop904"
         offset="1.0000000"
         style="stop-color:#f1f1f1;stop-opacity:1.0000000;" />
    </linearGradient>
    <linearGradient
       id="linearGradient1959">
      <stop
         id="stop1960"
         offset="0.0000000"
         style="stop-color:#7c7c7c;stop-opacity:1.0000000;" />
      <stop
         id="stop1961"
         offset="1.0000000"
         style="stop-color:#d8d8d8;stop-opacity:1.0000000;" />
    </linearGradient>
    <linearGradient
       id="linearGradient2006">
      <stop
         id="stop2007"
         offset="0.0000000"
         style="stop-color:#dddddd;stop-opacity:1.0000000;" />
      <stop
         id="stop2008"
         offset="1.0000000"
         style="stop-color:#ffffff;stop-opacity:1.0000000;" />
    </linearGradient>
    <linearGradient
       id="linearGradient2002">
      <stop
         id="stop2003"
         offset="0.0000000"
         style="stop-color:#000000;stop-opacity:0.34901962;" />
      <stop
         id="stop2004"
         offset="0.64999998"
         style="stop-color:#000000;stop-opacity:0.13402061;" />
      <stop
         id="stop2005"
         offset="1.0000000"
         style="stop-color:#000000;stop-opacity:0.0000000;" />
    </linearGradient>
    <linearGradient
       id="linearGradient1806">
      <stop
         id="stop1807"
         offset="0.0000000"
         style="stop-color:#000000;stop-opacity:0.35051546;" />
      <stop
         id="stop3276"
         offset="0.64999998"
         style="stop-color:#000000;stop-opacity:0.13402061;" />
      <stop
         id="stop1808"
         offset="1.0000000"
         style="stop-color:#000000;stop-opacity:0.0000000;" />
    </linearGradient>
    <linearGradient
       id="linearGradient1133">
      <stop
         id="stop1134"
         offset="0.0000000"
         style="stop-color:#8bb7df;stop-opacity:1.0000000;" />
      <stop
         id="stop1136"
         offset="0.76209301"
         style="stop-color:#2a6092;stop-opacity:1.0000000;" />
      <stop
         id="stop1135"
         offset="1.0000000"
         style="stop-color:#375e82;stop-opacity:1.0000000;" />
    </linearGradient>
    <linearGradient
       id="linearGradient1098">
      <stop
         id="stop1099"
         offset="0.0000000"
         style="stop-color:#ffffff;stop-opacity:1.0000000;" />
      <stop
         id="stop1101"
         offset="0.50000000"
         style="stop-color:#ffffff;stop-opacity:0.22314049;" />
      <stop
         id="stop1102"
         offset="0.59930235"
         style="stop-color:#ffffff;stop-opacity:0.0000000;" />
      <stop
         id="stop1100"
         offset="1.0000000"
         style="stop-color:#ffffff;stop-opacity:0.60330576;" />
    </linearGradient>
    <linearGradient
       id="linearGradient892">
      <stop
         id="stop893"
         offset="0.0000000"
         style="stop-color:#ffffff;stop-opacity:0.0000000;" />
      <stop
         id="stop894"
         offset="1.0000000"
         style="stop-color:#ffffff;stop-opacity:1.0000000;" />
    </linearGradient>
    <linearGradient
       id="linearGradient888">
      <stop
         id="stop889"
         offset="0.0000000"
         style="stop-color:#626262;stop-opacity:1.0000000;" />
      <stop
         id="stop890"
         offset="1.0000000"
         style="stop-color:#ffffff;stop-opacity:1.0000000;" />
    </linearGradient>
    <linearGradient
       id="linearGradient1955">
      <stop
         id="stop1956"
         offset="0.0000000"
         style="stop-color:#30b74b;stop-opacity:1.0000000;" />
      <stop
         id="stop1957"
         offset="1.0000000"
         style="stop-color:#f2f2f2;stop-opacity:1.0000000;" />
    </linearGradient>
    <linearGradient
       id="linearGradient1951">
      <stop
         id="stop1952"
         offset="0.0000000"
         style="stop-color:#305cb7;stop-opacity:1.0000000;" />
      <stop
         id="stop1953"
         offset="1.0000000"
         style="stop-color:#f2f2f2;stop-opacity:1.0000000;" />
    </linearGradient>
    <linearGradient
       id="linearGradient1948">
      <stop
         id="stop1949"
         offset="0.0000000"
         style="stop-color:#30b74b;stop-opacity:1.0000000;" />
      <stop
         id="stop1950"
         offset="1.0000000"
         style="stop-color:#f2f2f2;stop-opacity:1.0000000;" />
    </linearGradient>
    <linearGradient
       id="linearGradient1945">
      <stop
         id="stop1946"
         offset="0.0000000"
         style="stop-color:#9fa4af;stop-opacity:1.0000000;" />
      <stop
         id="stop1947"
         offset="1.0000000"
         style="stop-color:#f2f2f2;stop-opacity:1.0000000;" />
    </linearGradient>
    <linearGradient
       id="linearGradient1906">
      <stop
         id="stop1907"
         offset="0.0000000"
         style="stop-color:#305cb7;stop-opacity:1.0000000;" />
      <stop
         id="stop1908"
         offset="1.0000000"
         style="stop-color:#f2f2f2;stop-opacity:1.0000000;" />
    </linearGradient>
    <linearGradient
       id="linearGradient893">
      <stop
         id="stop895"
         offset="0.0000000"
         style="stop-color:#c3c3c3;stop-opacity:1.0000000;" />
      <stop
         id="stop896"
         offset="1.0000000"
         style="stop-color:#f2f2f2;stop-opacity:1.0000000;" />
    </linearGradient>
    <linearGradient
       id="linearGradient2164">
      <stop
         id="stop2165"
         offset="0.0000000"
         style="stop-color:#ff8a00;stop-opacity:1.0000000;" />
      <stop
         id="stop2166"
         offset="1.0000000"
         style="stop-color:#0014ff;stop-opacity:1.0000000;" />
    </linearGradient>
    <linearGradient
       id="linearGradient2158">
      <stop
         id="stop2159"
         offset="0.0000000"
         style="stop-color:#000000;stop-opacity:1.0000000;" />
      <stop
         id="stop2160"
         offset="1.0000000"
         style="stop-color:#ffffff;stop-opacity:1.0000000;" />
    </linearGradient>
    <linearGradient
       id="linearGradient4284"
       x1="670.60665"
       x2="821.83672"
       xlink:href="#linearGradient893"
       y1="129.27571"
       y2="287.99458"
       gradientTransform="scale(0.4940497,2.0240879)"
       gradientUnits="userSpaceOnUse" />
    <linearGradient
       id="linearGradient4283"
       x1="259.9086"
       x2="277.10291"
       xlink:href="#linearGradient1959"
       y1="783.01207"
       y2="801.05782"
       gradientTransform="scale(1.4173397,0.7055471)"
       gradientUnits="userSpaceOnUse" />
    <linearGradient
       id="linearGradient2740"
       x1="549.95376"
       x2="527.01179"
       xlink:href="#linearGradient1945"
       y1="400.72267"
       y2="377.80737"
       gradientUnits="userSpaceOnUse" />
    <linearGradient
       id="linearGradient1506"
       x1="549.95522"
       x2="527.0103"
       xlink:href="#linearGradient1948"
       y1="400.72413"
       y2="377.80589"
       gradientUnits="userSpaceOnUse" />
    <linearGradient
       id="linearGradient1404"
       x1="259.9086"
       x2="277.10291"
       xlink:href="#linearGradient1959"
       y1="810.33937"
       y2="828.38512"
       gradientTransform="scale(1.4173397,0.7055471)"
       gradientUnits="userSpaceOnUse" />
    <radialGradient
       cx="0.47887325"
       cy="0.53333336"
       fx="0.47535211"
       fy="0.26666668"
       id="radialGradient1315"
       r="0.41197181"
       xlink:href="#linearGradient1317" />
    <linearGradient
       id="linearGradient1171"
       xlink:href="#linearGradient893" />
    <linearGradient
       id="linearGradient1169"
       x1="5.4426949e-17"
       x2="1"
       xlink:href="#linearGradient893"
       y1="0.5"
       y2="0.5" />
    <linearGradient
       id="linearGradient1167"
       x1="227.74751"
       x2="387.83617"
       xlink:href="#linearGradient893"
       y1="811.93633"
       y2="965.65454"
       gradientTransform="scale(1.808444,0.5529615)"
       gradientUnits="userSpaceOnUse" />
    <linearGradient
       id="linearGradient1166"
       x1="0.85858583"
       x2="0.50480771"
       xlink:href="#linearGradient1317"
       y1="-0.52941179"
       y2="0.86503065" />
    <linearGradient
       id="linearGradient1157"
       x1="1.5528169"
       x2="-1.2077465"
       xlink:href="#linearGradient888"
       y1="3.3265307"
       y2="-0.48979592" />
    <linearGradient
       id="linearGradient1156"
       x1="0.48260871"
       x2="0.48260871"
       xlink:href="#linearGradient888"
       y1="-0.40000001"
       y2="1.875" />
    <linearGradient
       id="linearGradient1150"
       x1="0.25221238"
       x2="-0.57522124"
       xlink:href="#linearGradient892"
       y1="0.578125"
       y2="1.4765625" />
    <linearGradient
       id="linearGradient1148"
       x1="0.23245615"
       x2="1.0789474"
       xlink:href="#linearGradient892"
       y1="0.15625"
       y2="-0.6484375" />
    <linearGradient
       id="linearGradient1146"
       x1="0.51351351"
       x2="-0.076576576"
       xlink:href="#linearGradient892"
       y1="0.5546875"
       y2="1.1875" />
    <linearGradient
       id="linearGradient1144"
       x1="0.52941179"
       x2="0.53333336"
       xlink:href="#linearGradient892"
       y1="0.26634732"
       y2="1.3833333" />
    <linearGradient
       id="linearGradient1140"
       x1="0.73913044"
       x2="0.66666669"
       xlink:href="#linearGradient888"
       y1="-1.0735294"
       y2="1.3" />
    <radialGradient
       cx="0.68556702"
       cy="0.3828125"
       fx="0.93298972"
       fy="0.03125"
       id="radialGradient1132"
       r="1.402149"
       xlink:href="#linearGradient1133" />
    <linearGradient
       id="linearGradient905"
       x1="-1.5389611"
       x2="1.0909091"
       xlink:href="#linearGradient888"
       y1="2.7890625"
       y2="-0.1953125" />
    <linearGradient
       id="linearGradient891"
       x1="1.3485916"
       x2="0.024647888"
       xlink:href="#linearGradient888"
       y1="-0.85185188"
       y2="1.0899471" />
    <linearGradient
       id="linearGradient1317">
      <stop
         id="stop1318"
         offset="0.0000000"
         style="stop-color:#000000;stop-opacity:0.52892560;" />
      <stop
         id="stop1320"
         offset="0.50000000"
         style="stop-color:#000000;stop-opacity:0.17355372;" />
      <stop
         id="stop1319"
         offset="1.0000000"
         style="stop-color:#000000;stop-opacity:0.0000000;" />
    </linearGradient>
    <radialGradient
       cx="0.50522649"
       cy="0.54545456"
       fx="0.51611376"
       fy="0.56148684"
       id="radialGradient1977"
       r="0.46065515"
       xlink:href="#linearGradient1806" />
    <linearGradient
       id="linearGradient1505"
       x1="0.41156462"
       x2="0.59523809"
       xlink:href="#linearGradient2006"
       y1="0.081081077"
       y2="0.91891891" />
    <linearGradient
       id="linearGradient1170"
       x1="0.96153843"
       x2="0.030769231"
       xlink:href="#linearGradient902"
       y1="0.9609375"
       y2="0.03125" />
    <radialGradient
       id="radialGradient1316"
       xlink:href="#linearGradient1955" />
    <linearGradient
       id="linearGradient1141"
       x1="134.63994"
       x2="335.50326"
       xlink:href="#linearGradient893"
       y1="1231.3259"
       y2="1430.0366"
       gradientTransform="scale(2.3341226,0.4284265)"
       gradientUnits="userSpaceOnUse" />
    <linearGradient
       id="linearGradient1138"
       x1="0.030120483"
       x2="0.96987951"
       xlink:href="#linearGradient1133"
       y1="0.0390625"
       y2="0.96875" />
    <linearGradient
       id="linearGradient901"
       x1="0.39115646"
       x2="0.68707484"
       xlink:href="#linearGradient893"
       y1="0.043478262"
       y2="0.92391306" />
    <linearGradient
       gradientTransform="matrix(1.517084,0,0,1.150151,-313.70765,-186.0919)"
       gradientUnits="userSpaceOnUse"
       id="linearGradient1463"
       x1="304.53323"
       x2="677.39642"
       xlink:href="#linearGradient1133"
       y1="106.10597"
       y2="474.97314" />
    <linearGradient
       gradientTransform="matrix(1.160922,0,0,0.861384,-140.23885,-44.427695)"
       gradientUnits="userSpaceOnUse"
       id="linearGradient1466"
       spreadMethod="pad"
       x1="199.1729"
       x2="814.02869"
       xlink:href="#linearGradient893"
       y1="-572.32593"
       y2="791.99225" />
    <linearGradient
       gradientTransform="matrix(1.357253,0,0,1.285595,-313.70765,-186.0919)"
       gradientUnits="userSpaceOnUse"
       id="linearGradient1469"
       x1="495.77832"
       x2="601.78418"
       xlink:href="#linearGradient893"
       y1="475.92059"
       y2="475.92059" />
    <linearGradient
       inkscape:collect="always"
       xlink:href="#linearGradient893"
       id="linearGradient2471"
       x1="220.88349"
       y1="846.91732"
       x2="376.14728"
       y2="996.00266"
       gradientTransform="scale(1.864642,0.536296)"
       gradientUnits="userSpaceOnUse" />
    <linearGradient
       inkscape:collect="always"
       xlink:href="#linearGradient893"
       id="linearGradient2473"
       x1="220.88349"
       y1="836.94076"
       x2="376.14728"
       y2="986.0261"
       gradientTransform="scale(1.864642,0.536296)"
       gradientUnits="userSpaceOnUse" />
    <linearGradient
       inkscape:collect="always"
       xlink:href="#linearGradient893"
       id="linearGradient2475"
       x1="135.36888"
       y1="1242.2828"
       x2="336.2322"
       y2="1440.9935"
       gradientTransform="scale(2.3341226,0.4284265)"
       gradientUnits="userSpaceOnUse" />
    <linearGradient
       inkscape:collect="always"
       xlink:href="#linearGradient1959"
       id="linearGradient2403"
       gradientUnits="userSpaceOnUse"
       gradientTransform="matrix(1.8722179,0,0,0.931984,-334.16954,-364.40103)"
       x1="259.9086"
       y1="783.01207"
       x2="277.10291"
       y2="801.05782" />
    <linearGradient
       inkscape:collect="always"
       xlink:href="#linearGradient1959"
       id="linearGradient2406"
       gradientUnits="userSpaceOnUse"
       gradientTransform="matrix(1.8722179,0,0,0.931984,-335.18089,-420.84886)"
       x1="259.9086"
       y1="810.33937"
       x2="277.10291"
       y2="828.38512" />
  </defs>
  <rect
     y="65.717278"
     x="7.0174785"
     width="98.324478"
     style="fill:none;fill-opacity:1;fill-rule:evenodd;stroke:#c4c4c4;stroke-width:1.40349662;stroke-linecap:butt;stroke-linejoin:miter;stroke-miterlimit:4;stroke-opacity:1;stroke-dasharray:4.21048987,1.40349662;stroke-dashoffset:0"
     ry="4.2519674"
     rx="4.2519665"
     id="rect1203"
     height="446.29404" />
  <g
     transform="matrix(1.320938,0,0,1.320938,-371.29231,-112.41055)"
     id="g1921"
     style="fill:none;stroke-width:0.03284508;stroke-miterlimit:4;stroke-dasharray:0.09853523,0.03284508;stroke-dashoffset:0">
    <path
       transform="matrix(7.023362e-2,0,0,7.023362e-2,289.5442,438.9485)"
       style="fill:none;fill-opacity:1;fill-rule:evenodd;stroke:#000000;stroke-width:0.46765462;stroke-linecap:butt;stroke-linejoin:miter;stroke-miterlimit:4;stroke-opacity:1;stroke-dasharray:1.40296386,0.46765462;stroke-dashoffset:0"
       id="path1738"
       d="M 185.35463,146.8848 C 185.35463,121.13171 164.47763,100.25471 138.72454,100.25471 C 112.97144,100.25471 92.09444,121.13171 92.09444,146.8848 C 92.09444,172.63789 112.97144,193.51489 138.72454,193.51489 C 164.47763,193.51489 185.35463,172.63789 185.35463,146.8848 z " />
    <path
       transform="matrix(7.023362e-2,0,0,7.023362e-2,289.5442,427.6142)"
       style="fill:none;fill-opacity:1;fill-rule:evenodd;stroke:#000000;stroke-width:0.46765462;stroke-linecap:butt;stroke-linejoin:miter;stroke-miterlimit:4;stroke-opacity:1;stroke-dasharray:1.40296386,0.46765462;stroke-dashoffset:0"
       id="path1739"
       d="M 185.35463,146.8848 C 185.35463,121.13171 164.47763,100.25471 138.72454,100.25471 C 112.97144,100.25471 92.09444,121.13171 92.09444,146.8848 C 92.09444,172.63789 112.97144,193.51489 138.72454,193.51489 C 164.47763,193.51489 185.35463,172.63789 185.35463,146.8848 z " />
    <path
       transform="matrix(7.023362e-2,0,0,7.023362e-2,289.5442,450.2827)"
       style="fill:none;fill-opacity:1;fill-rule:evenodd;stroke:#000000;stroke-width:0.46765462;stroke-linecap:butt;stroke-linejoin:miter;stroke-miterlimit:4;stroke-opacity:1;stroke-dasharray:1.40296386,0.46765462;stroke-dashoffset:0"
       id="path1740"
       d="M 185.35463,146.8848 C 185.35463,121.13171 164.47763,100.25471 138.72454,100.25471 C 112.97144,100.25471 92.09444,121.13171 92.09444,146.8848 C 92.09444,172.63789 112.97144,193.51489 138.72454,193.51489 C 164.47763,193.51489 185.35463,172.63789 185.35463,146.8848 z " />
    <path
       transform="matrix(7.023362e-2,0,0,7.023362e-2,299.4922,433.2813)"
       style="fill:none;fill-opacity:1;fill-rule:evenodd;stroke:#000000;stroke-width:0.46765462;stroke-linecap:butt;stroke-linejoin:miter;stroke-miterlimit:4;stroke-opacity:1;stroke-dasharray:1.40296386,0.46765462;stroke-dashoffset:0"
       id="path1742"
       d="M 185.35463,146.8848 C 185.35463,121.13171 164.47763,100.25471 138.72454,100.25471 C 112.97144,100.25471 92.09444,121.13171 92.09444,146.8848 C 92.09444,172.63789 112.97144,193.51489 138.72454,193.51489 C 164.47763,193.51489 185.35463,172.63789 185.35463,146.8848 z " />
    <path
       transform="matrix(7.023362e-2,0,0,7.023362e-2,299.4922,421.9471)"
       style="fill:none;fill-opacity:1;fill-rule:evenodd;stroke:#000000;stroke-width:0.46765462;stroke-linecap:butt;stroke-linejoin:miter;stroke-miterlimit:4;stroke-opacity:1;stroke-dasharray:1.40296386,0.46765462;stroke-dashoffset:0"
       id="path1743"
       d="M 185.35463,146.8848 C 185.35463,121.13171 164.47763,100.25471 138.72454,100.25471 C 112.97144,100.25471 92.09444,121.13171 92.09444,146.8848 C 92.09444,172.63789 112.97144,193.51489 138.72454,193.51489 C 164.47763,193.51489 185.35463,172.63789 185.35463,146.8848 z " />
    <path
       transform="matrix(7.023362e-2,0,0,7.023362e-2,299.4922,444.6156)"
       style="fill:none;fill-opacity:1;fill-rule:evenodd;stroke:#000000;stroke-width:0.46765462;stroke-linecap:butt;stroke-linejoin:miter;stroke-miterlimit:4;stroke-opacity:1;stroke-dasharray:1.40296386,0.46765462;stroke-dashoffset:0"
       id="path1744"
       d="M 185.35463,146.8848 C 185.35463,121.13171 164.47763,100.25471 138.72454,100.25471 C 112.97144,100.25471 92.09444,121.13171 92.09444,146.8848 C 92.09444,172.63789 112.97144,193.51489 138.72454,193.51489 C 164.47763,193.51489 185.35463,172.63789 185.35463,146.8848 z " />
    <path
       transform="matrix(7.023362e-2,0,0,7.023362e-2,289.5442,416.2962)"
       style="fill:none;fill-opacity:1;fill-rule:evenodd;stroke:#000000;stroke-width:0.46765462;stroke-linecap:butt;stroke-linejoin:miter;stroke-miterlimit:4;stroke-opacity:1;stroke-dasharray:1.40296386,0.46765462;stroke-dashoffset:0"
       id="path1752"
       d="M 185.35463,146.8848 C 185.35463,121.13171 164.47763,100.25471 138.72454,100.25471 C 112.97144,100.25471 92.09444,121.13171 92.09444,146.8848 C 92.09444,172.63789 112.97144,193.51489 138.72454,193.51489 C 164.47763,193.51489 185.35463,172.63789 185.35463,146.8848 z " />
    <path
       transform="matrix(7.023362e-2,0,0,7.023362e-2,289.5442,404.9619)"
       style="fill:none;fill-opacity:1;fill-rule:evenodd;stroke:#000000;stroke-width:0.46765462;stroke-linecap:butt;stroke-linejoin:miter;stroke-miterlimit:4;stroke-opacity:1;stroke-dasharray:1.40296386,0.46765462;stroke-dashoffset:0"
       id="path1753"
       d="M 185.35463,146.8848 C 185.35463,121.13171 164.47763,100.25471 138.72454,100.25471 C 112.97144,100.25471 92.09444,121.13171 92.09444,146.8848 C 92.09444,172.63789 112.97144,193.51489 138.72454,193.51489 C 164.47763,193.51489 185.35463,172.63789 185.35463,146.8848 z " />
    <path
       transform="matrix(7.023362e-2,0,0,7.023362e-2,299.4922,410.629)"
       style="fill:none;fill-opacity:1;fill-rule:evenodd;stroke:#000000;stroke-width:0.46765462;stroke-linecap:butt;stroke-linejoin:miter;stroke-miterlimit:4;stroke-opacity:1;stroke-dasharray:1.40296386,0.46765462;stroke-dashoffset:0"
       id="path1755"
       d="M 185.35463,146.8848 C 185.35463,121.13171 164.47763,100.25471 138.72454,100.25471 C 112.97144,100.25471 92.09444,121.13171 92.09444,146.8848 C 92.09444,172.63789 112.97144,193.51489 138.72454,193.51489 C 164.47763,193.51489 185.35463,172.63789 185.35463,146.8848 z " />
    <path
       transform="matrix(7.023362e-2,0,0,7.023362e-2,299.4922,399.2948)"
       style="fill:none;fill-opacity:1;fill-rule:evenodd;stroke:#000000;stroke-width:0.46765462;stroke-linecap:butt;stroke-linejoin:miter;stroke-miterlimit:4;stroke-opacity:1;stroke-dasharray:1.40296386,0.46765462;stroke-dashoffset:0"
       id="path1756"
       d="M 185.35463,146.8848 C 185.35463,121.13171 164.47763,100.25471 138.72454,100.25471 C 112.97144,100.25471 92.09444,121.13171 92.09444,146.8848 C 92.09444,172.63789 112.97144,193.51489 138.72454,193.51489 C 164.47763,193.51489 185.35463,172.63789 185.35463,146.8848 z " />
    <path
       transform="matrix(7.023362e-2,0,0,7.023362e-2,289.5442,393.629)"
       style="fill:none;fill-opacity:1;fill-rule:evenodd;stroke:#000000;stroke-width:0.46765462;stroke-linecap:butt;stroke-linejoin:miter;stroke-miterlimit:4;stroke-opacity:1;stroke-dasharray:1.40296386,0.46765462;stroke-dashoffset:0"
       id="path1796"
       d="M 185.35463,146.8848 C 185.35463,121.13171 164.47763,100.25471 138.72454,100.25471 C 112.97144,100.25471 92.09444,121.13171 92.09444,146.8848 C 92.09444,172.63789 112.97144,193.51489 138.72454,193.51489 C 164.47763,193.51489 185.35463,172.63789 185.35463,146.8848 z " />
    <path
       transform="matrix(7.023362e-2,0,0,7.023362e-2,289.5442,382.2947)"
       style="fill:none;fill-opacity:1;fill-rule:evenodd;stroke:#000000;stroke-width:0.46765462;stroke-linecap:butt;stroke-linejoin:miter;stroke-miterlimit:4;stroke-opacity:1;stroke-dasharray:1.40296386,0.46765462;stroke-dashoffset:0"
       id="path1797"
       d="M 185.35463,146.8848 C 185.35463,121.13171 164.47763,100.25471 138.72454,100.25471 C 112.97144,100.25471 92.09444,121.13171 92.09444,146.8848 C 92.09444,172.63789 112.97144,193.51489 138.72454,193.51489 C 164.47763,193.51489 185.35463,172.63789 185.35463,146.8848 z " />
    <path
       transform="matrix(7.023362e-2,0,0,7.023362e-2,299.4922,387.9618)"
       style="fill:none;fill-opacity:1;fill-rule:evenodd;stroke:#000000;stroke-width:0.46765462;stroke-linecap:butt;stroke-linejoin:miter;stroke-miterlimit:4;stroke-opacity:1;stroke-dasharray:1.40296386,0.46765462;stroke-dashoffset:0"
       id="path1799"
       d="M 185.35463,146.8848 C 185.35463,121.13171 164.47763,100.25471 138.72454,100.25471 C 112.97144,100.25471 92.09444,121.13171 92.09444,146.8848 C 92.09444,172.63789 112.97144,193.51489 138.72454,193.51489 C 164.47763,193.51489 185.35463,172.63789 185.35463,146.8848 z " />
    <path
       transform="matrix(7.023362e-2,0,0,7.023362e-2,299.4922,376.6276)"
       style="fill:none;fill-opacity:1;fill-rule:evenodd;stroke:#000000;stroke-width:0.46765462;stroke-linecap:butt;stroke-linejoin:miter;stroke-miterlimit:4;stroke-opacity:1;stroke-dasharray:1.40296386,0.46765462;stroke-dashoffset:0"
       id="path1800"
       d="M 185.35463,146.8848 C 185.35463,121.13171 164.47763,100.25471 138.72454,100.25471 C 112.97144,100.25471 92.09444,121.13171 92.09444,146.8848 C 92.09444,172.63789 112.97144,193.51489 138.72454,193.51489 C 164.47763,193.51489 185.35463,172.63789 185.35463,146.8848 z " />
    <path
       transform="matrix(7.023362e-2,0,0,7.023362e-2,289.5442,370.9767)"
       style="fill:none;fill-opacity:1;fill-rule:evenodd;stroke:#000000;stroke-width:0.46765462;stroke-linecap:butt;stroke-linejoin:miter;stroke-miterlimit:4;stroke-opacity:1;stroke-dasharray:1.40296386,0.46765462;stroke-dashoffset:0"
       id="path1802"
       d="M 185.35463,146.8848 C 185.35463,121.13171 164.47763,100.25471 138.72454,100.25471 C 112.97144,100.25471 92.09444,121.13171 92.09444,146.8848 C 92.09444,172.63789 112.97144,193.51489 138.72454,193.51489 C 164.47763,193.51489 185.35463,172.63789 185.35463,146.8848 z " />
    <path
       transform="matrix(7.023362e-2,0,0,7.023362e-2,289.5442,359.6424)"
       style="fill:none;fill-opacity:1;fill-rule:evenodd;stroke:#000000;stroke-width:0.46765462;stroke-linecap:butt;stroke-linejoin:miter;stroke-miterlimit:4;stroke-opacity:1;stroke-dasharray:1.40296386,0.46765462;stroke-dashoffset:0"
       id="path1803"
       d="M 185.35463,146.8848 C 185.35463,121.13171 164.47763,100.25471 138.72454,100.25471 C 112.97144,100.25471 92.09444,121.13171 92.09444,146.8848 C 92.09444,172.63789 112.97144,193.51489 138.72454,193.51489 C 164.47763,193.51489 185.35463,172.63789 185.35463,146.8848 z " />
    <path
       transform="matrix(7.023362e-2,0,0,7.023362e-2,299.4922,365.3095)"
       style="fill:none;fill-opacity:1;fill-rule:evenodd;stroke:#000000;stroke-width:0.46765462;stroke-linecap:butt;stroke-linejoin:miter;stroke-miterlimit:4;stroke-opacity:1;stroke-dasharray:1.40296386,0.46765462;stroke-dashoffset:0"
       id="path1804"
       d="M 185.35463,146.8848 C 185.35463,121.13171 164.47763,100.25471 138.72454,100.25471 C 112.97144,100.25471 92.09444,121.13171 92.09444,146.8848 C 92.09444,172.63789 112.97144,193.51489 138.72454,193.51489 C 164.47763,193.51489 185.35463,172.63789 185.35463,146.8848 z " />
    <path
       transform="matrix(7.023362e-2,0,0,7.023362e-2,299.4922,353.9753)"
       style="fill:none;fill-opacity:1;fill-rule:evenodd;stroke:#000000;stroke-width:0.46765462;stroke-linecap:butt;stroke-linejoin:miter;stroke-miterlimit:4;stroke-opacity:1;stroke-dasharray:1.40296386,0.46765462;stroke-dashoffset:0"
       id="path1805"
       d="M 185.35463,146.8848 C 185.35463,121.13171 164.47763,100.25471 138.72454,100.25471 C 112.97144,100.25471 92.09444,121.13171 92.09444,146.8848 C 92.09444,172.63789 112.97144,193.51489 138.72454,193.51489 C 164.47763,193.51489 185.35463,172.63789 185.35463,146.8848 z " />
    <path
       transform="matrix(7.023362e-2,0,0,7.023362e-2,289.5442,348.3162)"
       style="fill:none;fill-opacity:1;fill-rule:evenodd;stroke:#000000;stroke-width:0.46765462;stroke-linecap:butt;stroke-linejoin:miter;stroke-miterlimit:4;stroke-opacity:1;stroke-dasharray:1.40296386,0.46765462;stroke-dashoffset:0"
       id="path1867"
       d="M 185.35463,146.8848 C 185.35463,121.13171 164.47763,100.25471 138.72454,100.25471 C 112.97144,100.25471 92.09444,121.13171 92.09444,146.8848 C 92.09444,172.63789 112.97144,193.51489 138.72454,193.51489 C 164.47763,193.51489 185.35463,172.63789 185.35463,146.8848 z " />
    <path
       transform="matrix(7.023362e-2,0,0,7.023362e-2,289.5442,336.9819)"
       style="fill:none;fill-opacity:1;fill-rule:evenodd;stroke:#000000;stroke-width:0.46765462;stroke-linecap:butt;stroke-linejoin:miter;stroke-miterlimit:4;stroke-opacity:1;stroke-dasharray:1.40296386,0.46765462;stroke-dashoffset:0"
       id="path1868"
       d="M 185.35463,146.8848 C 185.35463,121.13171 164.47763,100.25471 138.72454,100.25471 C 112.97144,100.25471 92.09444,121.13171 92.09444,146.8848 C 92.09444,172.63789 112.97144,193.51489 138.72454,193.51489 C 164.47763,193.51489 185.35463,172.63789 185.35463,146.8848 z " />
    <path
       transform="matrix(7.023362e-2,0,0,7.023362e-2,299.4922,342.649)"
       style="fill:none;fill-opacity:1;fill-rule:evenodd;stroke:#000000;stroke-width:0.46765462;stroke-linecap:butt;stroke-linejoin:miter;stroke-miterlimit:4;stroke-opacity:1;stroke-dasharray:1.40296386,0.46765462;stroke-dashoffset:0"
       id="path1870"
       d="M 185.35463,146.8848 C 185.35463,121.13171 164.47763,100.25471 138.72454,100.25471 C 112.97144,100.25471 92.09444,121.13171 92.09444,146.8848 C 92.09444,172.63789 112.97144,193.51489 138.72454,193.51489 C 164.47763,193.51489 185.35463,172.63789 185.35463,146.8848 z " />
    <path
       transform="matrix(7.023362e-2,0,0,7.023362e-2,299.4922,331.3148)"
       style="fill:none;fill-opacity:1;fill-rule:evenodd;stroke:#000000;stroke-width:0.46765462;stroke-linecap:butt;stroke-linejoin:miter;stroke-miterlimit:4;stroke-opacity:1;stroke-dasharray:1.40296386,0.46765462;stroke-dashoffset:0"
       id="path1871"
       d="M 185.35463,146.8848 C 185.35463,121.13171 164.47763,100.25471 138.72454,100.25471 C 112.97144,100.25471 92.09444,121.13171 92.09444,146.8848 C 92.09444,172.63789 112.97144,193.51489 138.72454,193.51489 C 164.47763,193.51489 185.35463,172.63789 185.35463,146.8848 z " />
    <path
       transform="matrix(7.023362e-2,0,0,7.023362e-2,289.5442,325.6639)"
       style="fill:none;fill-opacity:1;fill-rule:evenodd;stroke:#000000;stroke-width:0.46765462;stroke-linecap:butt;stroke-linejoin:miter;stroke-miterlimit:4;stroke-opacity:1;stroke-dasharray:1.40296386,0.46765462;stroke-dashoffset:0"
       id="path1873"
       d="M 185.35463,146.8848 C 185.35463,121.13171 164.47763,100.25471 138.72454,100.25471 C 112.97144,100.25471 92.09444,121.13171 92.09444,146.8848 C 92.09444,172.63789 112.97144,193.51489 138.72454,193.51489 C 164.47763,193.51489 185.35463,172.63789 185.35463,146.8848 z " />
    <path
       transform="matrix(7.023362e-2,0,0,7.023362e-2,289.5442,314.3296)"
       style="fill:none;fill-opacity:1;fill-rule:evenodd;stroke:#000000;stroke-width:0.46765462;stroke-linecap:butt;stroke-linejoin:miter;stroke-miterlimit:4;stroke-opacity:1;stroke-dasharray:1.40296386,0.46765462;stroke-dashoffset:0"
       id="path1874"
       d="M 185.35463,146.8848 C 185.35463,121.13171 164.47763,100.25471 138.72454,100.25471 C 112.97144,100.25471 92.09444,121.13171 92.09444,146.8848 C 92.09444,172.63789 112.97144,193.51489 138.72454,193.51489 C 164.47763,193.51489 185.35463,172.63789 185.35463,146.8848 z " />
    <path
       transform="matrix(7.023362e-2,0,0,7.023362e-2,299.4922,319.9967)"
       style="fill:none;fill-opacity:1;fill-rule:evenodd;stroke:#000000;stroke-width:0.46765462;stroke-linecap:butt;stroke-linejoin:miter;stroke-miterlimit:4;stroke-opacity:1;stroke-dasharray:1.40296386,0.46765462;stroke-dashoffset:0"
       id="path1875"
       d="M 185.35463,146.8848 C 185.35463,121.13171 164.47763,100.25471 138.72454,100.25471 C 112.97144,100.25471 92.09444,121.13171 92.09444,146.8848 C 92.09444,172.63789 112.97144,193.51489 138.72454,193.51489 C 164.47763,193.51489 185.35463,172.63789 185.35463,146.8848 z " />
    <path
       transform="matrix(7.023362e-2,0,0,7.023362e-2,299.4922,308.6625)"
       style="fill:none;fill-opacity:1;fill-rule:evenodd;stroke:#000000;stroke-width:0.46765462;stroke-linecap:butt;stroke-linejoin:miter;stroke-miterlimit:4;stroke-opacity:1;stroke-dasharray:1.40296386,0.46765462;stroke-dashoffset:0"
       id="path1876"
       d="M 185.35463,146.8848 C 185.35463,121.13171 164.47763,100.25471 138.72454,100.25471 C 112.97144,100.25471 92.09444,121.13171 92.09444,146.8848 C 92.09444,172.63789 112.97144,193.51489 138.72454,193.51489 C 164.47763,193.51489 185.35463,172.63789 185.35463,146.8848 z " />
    <path
       transform="matrix(7.023362e-2,0,0,7.023362e-2,289.5442,302.9967)"
       style="fill:none;fill-opacity:1;fill-rule:evenodd;stroke:#000000;stroke-width:0.46765462;stroke-linecap:butt;stroke-linejoin:miter;stroke-miterlimit:4;stroke-opacity:1;stroke-dasharray:1.40296386,0.46765462;stroke-dashoffset:0"
       id="path1877"
       d="M 185.35463,146.8848 C 185.35463,121.13171 164.47763,100.25471 138.72454,100.25471 C 112.97144,100.25471 92.09444,121.13171 92.09444,146.8848 C 92.09444,172.63789 112.97144,193.51489 138.72454,193.51489 C 164.47763,193.51489 185.35463,172.63789 185.35463,146.8848 z " />
    <path
       transform="matrix(7.023362e-2,0,0,7.023362e-2,289.5442,291.6624)"
       style="fill:none;fill-opacity:1;fill-rule:evenodd;stroke:#000000;stroke-width:0.46765462;stroke-linecap:butt;stroke-linejoin:miter;stroke-miterlimit:4;stroke-opacity:1;stroke-dasharray:1.40296386,0.46765462;stroke-dashoffset:0"
       id="path1878"
       d="M 185.35463,146.8848 C 185.35463,121.13171 164.47763,100.25471 138.72454,100.25471 C 112.97144,100.25471 92.09444,121.13171 92.09444,146.8848 C 92.09444,172.63789 112.97144,193.51489 138.72454,193.51489 C 164.47763,193.51489 185.35463,172.63789 185.35463,146.8848 z " />
    <path
       transform="matrix(7.023362e-2,0,0,7.023362e-2,299.4922,297.3295)"
       style="fill:none;fill-opacity:1;fill-rule:evenodd;stroke:#000000;stroke-width:0.46765462;stroke-linecap:butt;stroke-linejoin:miter;stroke-miterlimit:4;stroke-opacity:1;stroke-dasharray:1.40296386,0.46765462;stroke-dashoffset:0"
       id="path1879"
       d="M 185.35463,146.8848 C 185.35463,121.13171 164.47763,100.25471 138.72454,100.25471 C 112.97144,100.25471 92.09444,121.13171 92.09444,146.8848 C 92.09444,172.63789 112.97144,193.51489 138.72454,193.51489 C 164.47763,193.51489 185.35463,172.63789 185.35463,146.8848 z " />
    <path
       transform="matrix(7.023362e-2,0,0,7.023362e-2,299.4922,285.9953)"
       style="fill:none;fill-opacity:1;fill-rule:evenodd;stroke:#000000;stroke-width:0.46765462;stroke-linecap:butt;stroke-linejoin:miter;stroke-miterlimit:4;stroke-opacity:1;stroke-dasharray:1.40296386,0.46765462;stroke-dashoffset:0"
       id="path1880"
       d="M 185.35463,146.8848 C 185.35463,121.13171 164.47763,100.25471 138.72454,100.25471 C 112.97144,100.25471 92.09444,121.13171 92.09444,146.8848 C 92.09444,172.63789 112.97144,193.51489 138.72454,193.51489 C 164.47763,193.51489 185.35463,172.63789 185.35463,146.8848 z " />
    <path
       transform="matrix(7.023362e-2,0,0,7.023362e-2,289.5442,280.3444)"
       style="fill:none;fill-opacity:1;fill-rule:evenodd;stroke:#000000;stroke-width:0.46765462;stroke-linecap:butt;stroke-linejoin:miter;stroke-miterlimit:4;stroke-opacity:1;stroke-dasharray:1.40296386,0.46765462;stroke-dashoffset:0"
       id="path1881"
       d="M 185.35463,146.8848 C 185.35463,121.13171 164.47763,100.25471 138.72454,100.25471 C 112.97144,100.25471 92.09444,121.13171 92.09444,146.8848 C 92.09444,172.63789 112.97144,193.51489 138.72454,193.51489 C 164.47763,193.51489 185.35463,172.63789 185.35463,146.8848 z " />
    <path
       transform="matrix(7.023362e-2,0,0,7.023362e-2,289.5442,269.0101)"
       style="fill:none;fill-opacity:1;fill-rule:evenodd;stroke:#000000;stroke-width:0.46765462;stroke-linecap:butt;stroke-linejoin:miter;stroke-miterlimit:4;stroke-opacity:1;stroke-dasharray:1.40296386,0.46765462;stroke-dashoffset:0"
       id="path1882"
       d="M 185.35463,146.8848 C 185.35463,121.13171 164.47763,100.25471 138.72454,100.25471 C 112.97144,100.25471 92.09444,121.13171 92.09444,146.8848 C 92.09444,172.63789 112.97144,193.51489 138.72454,193.51489 C 164.47763,193.51489 185.35463,172.63789 185.35463,146.8848 z " />
    <path
       transform="matrix(7.023362e-2,0,0,7.023362e-2,299.4922,274.6772)"
       style="fill:none;fill-opacity:1;fill-rule:evenodd;stroke:#000000;stroke-width:0.46765462;stroke-linecap:butt;stroke-linejoin:miter;stroke-miterlimit:4;stroke-opacity:1;stroke-dasharray:1.40296386,0.46765462;stroke-dashoffset:0"
       id="path1883"
       d="M 185.35463,146.8848 C 185.35463,121.13171 164.47763,100.25471 138.72454,100.25471 C 112.97144,100.25471 92.09444,121.13171 92.09444,146.8848 C 92.09444,172.63789 112.97144,193.51489 138.72454,193.51489 C 164.47763,193.51489 185.35463,172.63789 185.35463,146.8848 z " />
    <path
       transform="matrix(7.023362e-2,0,0,7.023362e-2,299.4922,263.343)"
       style="fill:none;fill-opacity:1;fill-rule:evenodd;stroke:#000000;stroke-width:0.46765462;stroke-linecap:butt;stroke-linejoin:miter;stroke-miterlimit:4;stroke-opacity:1;stroke-dasharray:1.40296386,0.46765462;stroke-dashoffset:0"
       id="path1884"
       d="M 185.35463,146.8848 C 185.35463,121.13171 164.47763,100.25471 138.72454,100.25471 C 112.97144,100.25471 92.09444,121.13171 92.09444,146.8848 C 92.09444,172.63789 112.97144,193.51489 138.72454,193.51489 C 164.47763,193.51489 185.35463,172.63789 185.35463,146.8848 z " />
  </g>
  <rect
     y="484.24106"
     x="55.200596"
     width="32.355721"
     style="fill:none;fill-opacity:1;fill-rule:evenodd;stroke:#c1c1c1;stroke-width:2;stroke-linecap:butt;stroke-linejoin:miter;stroke-miterlimit:4;stroke-opacity:1;stroke-dasharray:6,2;stroke-dashoffset:0"
     ry="4.2519674"
     rx="4.2519665"
     id="rect1957"
     height="13.950591" />
  <rect
     y="458.77243"
     x="55.200596"
     width="32.355721"
     style="fill:none;fill-opacity:1;fill-rule:evenodd;stroke:#c1c1c1;stroke-width:2;stroke-linecap:butt;stroke-linejoin:miter;stroke-miterlimit:4;stroke-opacity:1;stroke-dasharray:6,2;stroke-dashoffset:0"
     ry="4.2519674"
     rx="4.2519665"
     id="rect1958"
     height="13.950591" />
  <g
     transform="matrix(1.320938,0,0,1.320938,-429.48067,-272.55871)"
     id="g2001"
     style="fill:none;stroke-width:1.5140756;stroke-miterlimit:4;stroke-dasharray:4.54222681,1.5140756;stroke-dashoffset:0;stroke-linejoin:miter">
    <path
       transform="matrix(0.895802,0,0,0.877898,-114.7956,-30.0889)"
       style="fill:none;fill-opacity:1;fill-rule:evenodd;stroke:#9c9c9c;stroke-width:1.70733805;stroke-linecap:butt;stroke-linejoin:miter;stroke-miterlimit:4;stroke-opacity:1;stroke-dasharray:5.12201414,1.70733805;stroke-dashoffset:0"
       id="path1940"
       d="M 549.06935,389.3613 C 549.06935,383.56685 544.37202,378.86953 538.57757,378.86953 C 532.78313,378.86953 528.0858,383.56685 528.0858,389.3613 C 528.0858,395.15575 532.78313,399.85308 538.57757,399.85308 C 544.37202,399.85308 549.06935,395.15575 549.06935,389.3613 z " />
    <path
       transform="matrix(0.627124,0,0,0.613406,29.90835,46.8082)"
       style="fill:none;fill-opacity:1;fill-rule:evenodd;stroke:#9c9c9c;stroke-width:2.44116335;stroke-linecap:butt;stroke-linejoin:miter;stroke-miterlimit:4;stroke-opacity:1;stroke-dasharray:7.32349005,2.44116335;stroke-dashoffset:0"
       id="path1942"
       d="M 549.06935,389.3613 C 549.06935,383.56685 544.37202,378.86953 538.57757,378.86953 C 532.78313,378.86953 528.0858,383.56685 528.0858,389.3613 C 528.0858,395.15575 532.78313,399.85308 538.57757,399.85308 C 544.37202,399.85308 549.06935,395.15575 549.06935,389.3613 z " />
  </g>
  <g
     id="g1755"
     style="fill:url(#linearGradient1167)"
     transform="matrix(1.225986,0,0,1.225986,-260.70645,-139.37748)">
    <path
       d="M 558.18597,457.58426 C 486.68294,457.58426 427.33234,481.42917 416.13596,512.62955 L 416.13596,529.7794 C 416.13595,530.85983 417.00576,531.72963 418.08619,531.72963 L 435.6017,531.72963 C 465.06309,522.81248 508.76522,517.13946 557.62528,517.13946 C 606.48425,517.13946 650.18748,522.81282 679.64885,531.72963 L 698.29795,531.72963 C 699.37838,531.72963 700.24818,530.85983 700.24818,529.7794 L 700.24818,512.62955 C 689.0518,481.42917 629.68901,457.58426 558.18597,457.58426 z"
       id="rect1099"
       style="fill:url(#linearGradient2471);fill-opacity:0.75;fill-rule:evenodd;stroke:#9c9c9c;stroke-width:10.625;stroke-linecap:butt;stroke-linejoin:miter;stroke-miterlimit:4;stroke-opacity:1" />
    <path
       d="M 558.18597,452.23387 C 486.68294,452.23387 427.33234,476.07878 416.13596,507.27916 L 416.13596,524.42901 C 416.13595,525.50944 417.00576,526.37924 418.08619,526.37924 L 435.6017,526.37924 C 465.06309,517.46209 508.76522,511.78907 557.62528,511.78907 C 606.48425,511.78907 650.18748,517.46243 679.64885,526.37924 L 698.29795,526.37924 C 699.37838,526.37924 700.24818,525.50944 700.24818,524.42901 L 700.24818,507.27916 C 689.0518,476.07878 629.68901,452.23387 558.18597,452.23387 z"
       id="path1754"
       style="fill:url(#linearGradient2473);fill-opacity:0.75;fill-rule:evenodd;stroke:#c4c4c4;stroke-width:10.625;stroke-linecap:butt;stroke-linejoin:miter;stroke-miterlimit:4;stroke-opacity:1" />
  </g>
  <rect
     height="89.134552"
     id="rect2215"
     rx="20.678812"
     ry="7.0743303"
     style="fill:url(#linearGradient1469);fill-opacity:1;fill-rule:evenodd;stroke:#c4c4c4;stroke-width:14.03496647;stroke-linecap:butt;stroke-linejoin:miter;stroke-miterlimit:4;stroke-opacity:1"
     width="94.885162"
     x="376.18683"
     y="374.19177" />
  <rect
     height="400.36139"
     id="rect1979"
     rx="4.2519679"
     ry="4.2519679"
     style="fill:url(#linearGradient1466);fill-opacity:1;fill-rule:nonzero;stroke:#808080;stroke-width:14.03496742;stroke-linecap:butt;stroke-linejoin:miter;stroke-miterlimit:4;stroke-opacity:1"
     width="552.13428"
     x="139.52806"
     y="7.0174837" />
  <rect
     height="333.76016"
     id="rect1980"
     rx="4.2519674"
     ry="4.2519684"
     style="fill:url(#linearGradient1463);fill-opacity:1;fill-rule:evenodd;stroke:#c4c4c4;stroke-width:11.7061758;stroke-linecap:butt;stroke-linejoin:miter;stroke-miterlimit:4;stroke-opacity:1"
     width="443.97412"
     x="201.64232"
     y="40.317978" />
  <g
     id="g1792"
     transform="matrix(1.320938,0,0,1.320938,-303.39815,-155.6667)"
     style="stroke:#808080;stroke-opacity:1">
    <path
       d="M 369.37658,533.9624 C 361.56734,534.13935 355.21714,538.14525 351.75155,541.47841 L 308.33241,603.05366 C 301.52299,612.1111 311.81136,614.555 333.73738,614.90893 L 760.95471,614.33035 C 778.94124,614.33035 802.17902,612.82418 792.06504,603.05366 L 750.20294,543.32644 C 745.44364,540.04423 736.04614,533.9624 722.54645,533.9624 L 369.37658,533.9624 z"
       id="path2196"
       style="fill:url(#linearGradient2475);fill-opacity:1;fill-rule:evenodd;stroke:#808080;stroke-width:10.625;stroke-linecap:butt;stroke-linejoin:miter;stroke-miterlimit:4;stroke-opacity:1" />
    <g
       id="g1786"
       transform="translate(1.70143,0)"
       style="stroke:#808080;stroke-opacity:1">
      <path
         d="M 367.67515,529.26817 C 359.86591,529.44512 353.51571,533.45102 350.05012,536.78418 L 306.63098,598.35943 C 299.82156,607.41687 310.10993,609.86077 332.03595,610.2147 L 759.25328,609.63612 C 777.23981,609.63612 800.47759,608.12995 790.36361,598.35943 L 748.50151,538.63221 C 743.74221,535.35 734.34471,529.26817 720.84502,529.26817 L 367.67515,529.26817 z"
         id="rect1986"
         style="fill:url(#linearGradient1141);fill-opacity:1;fill-rule:evenodd;stroke:#808080;stroke-width:10.625;stroke-linecap:butt;stroke-linejoin:miter;stroke-miterlimit:4;stroke-opacity:1" />
      <rect
         height="7.876936"
         id="rect2100"
         rx="0.53648382"
         ry="0.53648347"
         style="fill:#bdbdbd;fill-opacity:1;fill-rule:evenodd;stroke:#808080;stroke-width:0.875;stroke-linecap:round;stroke-linejoin:miter;stroke-miterlimit:4;stroke-opacity:1"
         transform="translate(-147.5737,-78.98059)"
         width="373.2124"
         x="508.2547"
         y="620.30499" />
      <rect
         height="7.876936"
         id="rect2102"
         rx="0.53648382"
         ry="0.53648347"
         style="fill:#bdbdbd;fill-opacity:1;fill-rule:evenodd;stroke:#808080;stroke-width:0.875;stroke-linecap:round;stroke-linejoin:miter;stroke-miterlimit:4;stroke-opacity:1"
         transform="translate(-147.5737,-78.98059)"
         width="392.21948"
         x="498.75116"
         y="636.9024" />
      <rect
         height="7.876936"
         id="rect2104"
         rx="0.53648382"
         ry="0.53648347"
         style="fill:#bdbdbd;fill-opacity:1;fill-rule:evenodd;stroke:#808080;stroke-width:0.875;stroke-linecap:round;stroke-linejoin:miter;stroke-miterlimit:4;stroke-opacity:1"
         transform="translate(-147.5737,-78.98059)"
         width="412.17691"
         x="488.7724"
         y="653.49976" />
      <rect
         height="7.876936"
         id="rect2111"
         rx="0.53648371"
         ry="0.53648347"
         style="fill:#bdbdbd;fill-opacity:1;fill-rule:evenodd;stroke:#808080;stroke-width:0.875;stroke-linecap:round;stroke-linejoin:miter;stroke-miterlimit:4;stroke-opacity:1"
         transform="translate(-147.5737,-78.98059)"
         width="430.7088"
         x="480.21933"
         y="670.09717" />
    </g>
  </g>
  <rect
     y="335.9509"
     x="151.59016"
     width="32.355721"
     style="fill:url(#linearGradient2406);fill-opacity:1;fill-rule:evenodd;stroke:#c1c1c1;stroke-width:4.29304838;stroke-linecap:butt;stroke-linejoin:miter;stroke-miterlimit:4;stroke-opacity:1"
     ry="4.2519674"
     rx="4.2519665"
     id="rect2379"
     height="13.950591" />
  <rect
     y="366.93011"
     x="152.6015"
     width="32.355721"
     style="fill:url(#linearGradient2403);fill-opacity:1;fill-rule:evenodd;stroke:#c1c1c1;stroke-width:4.29304838;stroke-linecap:butt;stroke-linejoin:miter;stroke-miterlimit:4;stroke-opacity:1"
     ry="4.2519674"
     rx="4.2519665"
     id="rect2381"
     height="13.950591" />
  <path
     style="fill:none;fill-rule:evenodd;stroke:#c00000;stroke-width:2;stroke-linecap:butt;stroke-linejoin:miter;stroke-opacity:1;marker-end:url(#Arrow1Lend);fill-opacity:1;stroke-miterlimit:4;stroke-dasharray:none"
     d="M 70.110852,419.03463 C 70.110852,419.03463 146.41842,349.99375 119.64859,329.39616 C 89.270801,308.41807 51.532148,310.66925 56.450645,352.16415 C 59.562678,380.97297 78.106663,397.24553 112.34766,395.18681 C 141.66373,393.81058 155.06559,388.64039 155.06559,388.64039"
     id="path6373"
     sodipodi:nodetypes="ccccc" />
</svg>
