<?xml version="1.0" encoding="UTF-8" standalone="no"?>
<svg
   xmlns:dc="http://purl.org/dc/elements/1.1/"
   xmlns:cc="http://creativecommons.org/ns#"
   xmlns:rdf="http://www.w3.org/1999/02/22-rdf-syntax-ns#"
   xmlns:svg="http://www.w3.org/2000/svg"
   xmlns="http://www.w3.org/2000/svg"
   xmlns:xlink="http://www.w3.org/1999/xlink"
   xmlns:sodipodi="http://sodipodi.sourceforge.net/DTD/sodipodi-0.dtd"
   xmlns:inkscape="http://www.inkscape.org/namespaces/inkscape"
   width="600"
   height="480"
   viewBox="0 0 600 480"
   id="svg2"
   version="1.1"
   inkscape:version="0.91 r13725"
   sodipodi:docname="learning_curve.svg"
   inkscape:export-filename="/home/ckhung/git/ckhung.github.io/a/m/a/learning_curve.png"
   inkscape:export-xdpi="90"
   inkscape:export-ydpi="90">
  <metadata
     id="metadata101">
    <rdf:RDF>
      <cc:Work
         rdf:about="">
        <dc:format>image/svg+xml</dc:format>
        <dc:type
           rdf:resource="http://purl.org/dc/dcmitype/StillImage" />
      </cc:Work>
    </rdf:RDF>
  </metadata>
  <defs
     id="defs99">
    <marker
       inkscape:stockid="Arrow1Lend"
       orient="auto"
       refY="0.0"
       refX="0.0"
       id="Arrow1Lend"
       style="overflow:visible;"
       inkscape:isstock="true">
      <path
         id="path4198"
         d="M 0.0,0.0 L 5.0,-5.0 L -12.5,0.0 L 5.0,5.0 L 0.0,0.0 z "
         style="fill-rule:evenodd;stroke:#000000;stroke-width:1pt;stroke-opacity:1;fill:#000000;fill-opacity:1"
         transform="scale(0.8) rotate(180) translate(12.5,0)" />
    </marker>
    <marker
       inkscape:stockid="Arrow1Lstart"
       orient="auto"
       refY="0.0"
       refX="0.0"
       id="Arrow1Lstart"
       style="overflow:visible"
       inkscape:isstock="true">
      <path
         id="path4195"
         d="M 0.0,0.0 L 5.0,-5.0 L -12.5,0.0 L 5.0,5.0 L 0.0,0.0 z "
         style="fill-rule:evenodd;stroke:#000000;stroke-width:1pt;stroke-opacity:1;fill:#000000;fill-opacity:1"
         transform="scale(0.8) translate(12.5,0)" />
    </marker>
  </defs>
  <sodipodi:namedview
     pagecolor="#ffffff"
     bordercolor="#666666"
     borderopacity="1"
     objecttolerance="10"
     gridtolerance="10"
     guidetolerance="10"
     inkscape:pageopacity="0"
     inkscape:pageshadow="2"
     inkscape:window-width="1920"
     inkscape:window-height="1031"
     id="namedview97"
     showgrid="false"
     inkscape:zoom="1.7395833"
     inkscape:cx="300"
     inkscape:cy="240"
     inkscape:window-x="0"
     inkscape:window-y="0"
     inkscape:window-maximized="1"
     inkscape:current-layer="g34" />
  <title
     id="title4">Gnuplot</title>
  <desc
     id="desc6">Produced by GNUPLOT 4.6 patchlevel 6 </desc>
  <g
     id="gnuplot_canvas">
    <rect
       x="0"
       y="0"
       width="600"
       height="480"
       fill="none"
       id="rect9" />
    <defs
       id="defs11">
      <circle
         id="gpDot"
         r="0.5"
         stroke-width="0.5" />
      <path
         id="gpPt0"
         stroke-width="0.222"
         stroke="currentColor"
         d="M-1,0 h2 M0,-1 v2" />
      <path
         id="gpPt1"
         stroke-width="0.222"
         stroke="currentColor"
         d="M-1,-1 L1,1 M1,-1 L-1,1" />
      <path
         id="gpPt2"
         stroke-width="0.222"
         stroke="currentColor"
         d="M-1,0 L1,0 M0,-1 L0,1 M-1,-1 L1,1 M-1,1 L1,-1" />
      <rect
         id="gpPt3"
         stroke-width="0.222"
         stroke="currentColor"
         x="-1"
         y="-1"
         width="2"
         height="2" />
      <rect
         id="gpPt4"
         stroke-width="0.222"
         stroke="currentColor"
         fill="currentColor"
         x="-1"
         y="-1"
         width="2"
         height="2" />
      <circle
         id="gpPt5"
         stroke-width="0.222"
         stroke="currentColor"
         cx="0"
         cy="0"
         r="1" />
      <use
         xlink:href="#gpPt5"
         id="gpPt6"
         fill="currentColor"
         stroke="none" />
      <path
         id="gpPt7"
         stroke-width="0.222"
         stroke="currentColor"
         d="M0,-1.33 L-1.33,0.67 L1.33,0.67 z" />
      <use
         xlink:href="#gpPt7"
         id="gpPt8"
         fill="currentColor"
         stroke="none" />
      <use
         xlink:href="#gpPt7"
         id="gpPt9"
         stroke="currentColor"
         transform="rotate(180)" />
      <use
         xlink:href="#gpPt9"
         id="gpPt10"
         fill="currentColor"
         stroke="none" />
      <use
         xlink:href="#gpPt3"
         id="gpPt11"
         stroke="currentColor"
         transform="rotate(45)" />
      <use
         xlink:href="#gpPt11"
         id="gpPt12"
         fill="currentColor"
         stroke="none" />
      <filter
         id="greybox"
         filterUnits="objectBoundingBox"
         x="0"
         y="0"
         height="1"
         width="1">
        <feFlood
           flood-color="lightgrey"
           flood-opacity="1"
           result="grey"
           id="feFlood28" />
        <feComposite
           in="SourceGraphic"
           in2="grey"
           operator="atop"
           id="feComposite30" />
      </filter>
    </defs>
    <g
       style="fill:none; color:white; stroke:currentColor; stroke-width:1.00; stroke-linecap:butt; stroke-linejoin:miter"
       id="g32" />
    <g
       style="fill:none;color:black;stroke:currentColor;stroke-width:1;stroke-linecap:butt;stroke-linejoin:miter"
       id="g34">
      <g
         transform="translate(17.6,233.1) rotate(270)"
         style="stroke:none;fill:black;font-family:Arial;font-size:12pt;text-anchor:middle"
         id="g38">
        <text
           id="text40"
           style="-inkscape-font-specification:'AR PL UKai TW';font-family:'AR PL UKai TW';font-weight:normal;font-style:normal;font-stretch:normal;font-variant:normal;">力量</text>
      </g>
      <g
         transform="translate(303.0,471.9)"
         style="stroke:none;fill:black;font-family:Arial;font-size:12pt;text-anchor:middle"
         id="g42">
        <text
           id="text44"
           style="-inkscape-font-specification:'AR PL UKai TW';font-family:'AR PL UKai TW';font-weight:normal;font-style:normal;font-stretch:normal;font-variant:normal;">時間</text>
      </g>
      <g
         transform="translate(303.1,64.5)"
         style="stroke:none;fill:rgb(255, 0, 0);font-family:Arial;font-size:12pt;text-anchor:middle"
         id="g46">
        <text
           id="text48"
           style="-inkscape-font-specification:'AR PL UKai TW';font-family:'AR PL UKai TW';font-weight:normal;font-style:normal;font-stretch:normal;font-variant:normal;">經常歸零的力量</text>
      </g>
      <g
         transform="translate(303.1,86.1)"
         style="stroke:none;fill:black;font-family:Arial;font-size:12pt;text-anchor:middle"
         id="g50">
        <text
           id="text52"
           style="-inkscape-font-specification:'AR PL UKai TW';font-family:'AR PL UKai TW';font-weight:normal;font-style:normal;font-stretch:normal;font-variant:normal;">vs</text>
      </g>
      <g
         transform="translate(303.1,107.7)"
         style="stroke:none;fill:rgb(0, 0, 255);font-family:Arial;font-size:12pt;text-anchor:middle"
         id="g54">
        <text
           id="text56"
           style="-inkscape-font-specification:'AR PL UKai TW';font-family:'AR PL UKai TW';font-weight:normal;font-style:normal;font-stretch:normal;font-variant:normal;">組合的力量</text>
      </g>
    </g>
    <g
       id="gnuplot_plot_1">
      <title
         id="title59">gnuplot_plot_1</title>
      <g
         style="fill:none; color:red; stroke:currentColor; stroke-width:1.00; stroke-linecap:butt; stroke-linejoin:miter"
         id="g61">
        <path
           stroke="red"
           d="M31.1,449.4 L36.6,439.2 L42.1,429.6 L47.6,420.6 L53.1,412.1 L58.6,404.2 L64.1,396.6 L69.6,389.6    L75.1,382.9 L80.5,376.6 L86.0,370.7 L91.5,365.2 L97.0,360.0 L102.5,355.0 L108.0,350.4 L113.5,346.1    L119.0,342.0 L124.5,338.1 L130.0,334.5 L135.5,331.0 L141.0,327.8 L146.5,324.8 L152.0,321.9 L157.5,319.3    L163.0,316.7 L168.4,314.4 L173.9,312.1 L179.4,310.0 L184.9,308.0 L190.4,306.2 L195.9,304.4 L201.4,302.8    L206.9,301.2 L212.4,299.7 L217.9,298.4 L223.4,297.1 L228.9,295.8 L234.4,294.7 L239.9,293.6 L245.4,292.6    L250.9,291.6 L256.4,290.7 L261.8,289.9 L267.3,289.1 L272.8,288.3 L278.3,287.6 L283.8,287.0 L289.3,286.3    L294.8,285.8 L300.3,285.2 L305.8,284.7 L311.3,284.2 L316.8,283.7 L322.3,283.3 L327.8,282.9 L333.3,282.5    L338.8,282.1 L344.3,281.8 L349.7,281.5 L355.2,281.2 L360.7,280.9 L366.2,280.6 L371.7,280.4 L377.2,280.1    L382.7,279.9 L388.2,279.7 L393.7,279.5 L399.2,279.3 L404.7,279.1 L410.2,279.0 L415.7,278.8 L421.2,278.7    L426.7,278.5 L432.2,278.4 L437.7,278.3 L443.1,278.2 L448.6,278.0 L454.1,277.9 L459.6,277.9 L465.1,277.8    L470.6,277.7 L476.1,277.6 L481.6,277.5 L487.1,277.5 L492.6,277.4 L498.1,277.3 L503.6,277.3 L509.1,277.2    L514.6,277.2 L520.1,277.1 L525.6,277.1 L531.0,277.0 L536.5,277.0 L542.0,276.9 L547.5,276.9 L553.0,276.9    L558.5,276.8 L564.0,276.8 L569.5,276.8 L575.0,276.7  "
           id="path63" />
      </g>
    </g>
    <g
       id="gnuplot_plot_2">
      <title
         id="title66">gnuplot_plot_2</title>
      <g
         style="fill:none; color:red; stroke:currentColor; stroke-width:1.00; stroke-linecap:butt; stroke-linejoin:miter"
         id="g68">
        <path
           stroke="red"
           d="M121.8,449.4 L124.5,443.7 L130.0,432.9 L135.5,422.6 L141.0,413.0 L146.5,404.0 L152.0,395.4 L157.5,387.4    L163.0,379.9 L168.4,372.8 L173.9,366.1 L179.4,359.8 L184.9,353.8 L190.4,348.3 L195.9,343.0 L201.4,338.1    L206.9,333.4 L212.4,329.1 L217.9,324.9 L223.4,321.1 L228.9,317.4 L234.4,314.0 L239.9,310.7 L245.4,307.7    L250.9,304.8 L256.4,302.1 L261.8,299.6 L267.3,297.2 L272.8,295.0 L278.3,292.9 L283.8,290.9 L289.3,289.0    L294.8,287.2 L300.3,285.6 L305.8,284.0 L311.3,282.5 L316.8,281.2 L322.3,279.9 L327.8,278.6 L333.3,277.5    L338.8,276.4 L344.3,275.4 L349.7,274.4 L355.2,273.5 L360.7,272.6 L366.2,271.8 L371.7,271.1 L377.2,270.4    L382.7,269.7 L388.2,269.1 L393.7,268.5 L399.2,267.9 L404.7,267.4 L410.2,266.9 L415.7,266.5 L421.2,266.0    L426.7,265.6 L432.2,265.2 L437.7,264.8 L443.1,264.5 L448.6,264.2 L454.1,263.9 L459.6,263.6 L465.1,263.3    L470.6,263.1 L476.1,262.8 L481.6,262.6 L487.1,262.4 L492.6,262.2 L498.1,262.0 L503.6,261.8 L509.1,261.7    L514.6,261.5 L520.1,261.4 L525.6,261.2 L531.0,261.1 L536.5,261.0 L542.0,260.9 L547.5,260.7 L553.0,260.6    L558.5,260.6 L564.0,260.5 L569.5,260.4 L575.0,260.3  "
           id="path70" />
      </g>
    </g>
    <g
       id="gnuplot_plot_3">
      <title
         id="title73">gnuplot_plot_3</title>
      <g
         style="fill:none; color:red; stroke:currentColor; stroke-width:1.00; stroke-linecap:butt; stroke-linejoin:miter"
         id="g75">
        <path
           stroke="red"
           d="M212.4,449.4 L217.9,437.7 L223.4,426.7 L228.9,416.3 L234.4,406.6 L239.9,397.4 L245.4,388.7 L250.9,380.6    L256.4,372.9 L261.8,365.7 L267.3,358.9 L272.8,352.5 L278.3,346.5 L283.8,340.9 L289.3,335.6 L294.8,330.6    L300.3,325.8 L305.8,321.4 L311.3,317.2 L316.8,313.3 L322.3,309.6 L327.8,306.1 L333.3,302.8 L338.8,299.7    L344.3,296.8 L349.7,294.1 L355.2,291.5 L360.7,289.1 L366.2,286.8 L371.7,284.7 L377.2,282.7 L382.7,280.8    L388.2,279.0 L393.7,277.3 L399.2,275.7 L404.7,274.2 L410.2,272.8 L415.7,271.5 L421.2,270.3 L426.7,269.1    L432.2,268.0 L437.7,266.9 L443.1,266.0 L448.6,265.1 L454.1,264.2 L459.6,263.4 L465.1,262.6 L470.6,261.9    L476.1,261.2 L481.6,260.6 L487.1,260.0 L492.6,259.4 L498.1,258.9 L503.6,258.4 L509.1,257.9 L514.6,257.5    L520.1,257.0 L525.6,256.6 L531.0,256.3 L536.5,255.9 L542.0,255.6 L547.5,255.3 L553.0,255.0 L558.5,254.7    L564.0,254.5 L569.5,254.2 L575.0,254.0  "
           id="path77" />
      </g>
    </g>
    <g
       id="gnuplot_plot_4">
      <title
         id="title80">gnuplot_plot_4</title>
      <g
         style="fill:none; color:red; stroke:currentColor; stroke-width:1.00; stroke-linecap:butt; stroke-linejoin:miter"
         id="g82">
        <path
           stroke="red"
           d="M303.1,449.4 L305.8,443.3 L311.3,431.7 L316.8,420.8 L322.3,410.5 L327.8,400.9 L333.3,391.8 L338.8,383.2    L344.3,375.1 L349.7,367.5 L355.2,360.4 L360.7,353.7 L366.2,347.3 L371.7,341.4 L377.2,335.8 L382.7,330.5    L388.2,325.5 L393.7,320.8 L399.2,316.4 L404.7,312.3 L410.2,308.4 L415.7,304.7 L421.2,301.3 L426.7,298.0    L432.2,295.0 L437.7,292.1 L443.1,289.4 L448.6,286.8 L454.1,284.4 L459.6,282.2 L465.1,280.1 L470.6,278.1    L476.1,276.2 L481.6,274.4 L487.1,272.7 L492.6,271.2 L498.1,269.7 L503.6,268.3 L509.1,267.0 L514.6,265.8    L520.1,264.6 L525.6,263.5 L531.0,262.5 L536.5,261.5 L542.0,260.6 L547.5,259.7 L553.0,258.9 L558.5,258.2    L564.0,257.5 L569.5,256.8 L575.0,256.2  "
           id="path84" />
      </g>
    </g>
    <g
       id="gnuplot_plot_5">
      <title
         id="title87">gnuplot_plot_5</title>
      <g
         style="fill:none; color:blue; stroke:currentColor; stroke-width:1.00; stroke-linecap:butt; stroke-linejoin:miter"
         id="g89">
        <path
           stroke="blue"
           d="M31.1,445.1 L36.6,444.8 L42.1,444.5 L47.6,444.2 L53.1,443.9 L58.6,443.5 L64.1,443.2 L69.6,442.8    L75.1,442.4 L80.5,441.9 L86.0,441.5 L91.5,441.0 L97.0,440.4 L102.5,439.9 L108.0,439.3 L113.5,438.7    L119.0,438.0 L124.5,437.3 L130.0,436.5 L135.5,435.7 L141.0,434.9 L146.5,434.0 L152.0,433.0 L157.5,432.0    L163.0,430.9 L168.4,429.7 L173.9,428.5 L179.4,427.2 L184.9,425.8 L190.4,424.3 L195.9,422.7 L201.4,421.1    L206.9,419.3 L212.4,417.4 L217.9,415.4 L223.4,413.3 L228.9,411.1 L234.4,408.7 L239.9,406.1 L245.4,403.4    L250.9,400.5 L256.4,397.5 L261.8,394.2 L267.3,390.8 L272.8,387.1 L278.3,383.2 L283.8,379.1 L289.3,374.7    L294.8,370.0 L300.3,365.1 L305.8,359.8 L311.3,354.2 L316.8,348.3 L322.3,342.0 L327.8,335.2 L333.3,328.1    L338.8,320.5 L344.3,312.5 L349.7,303.9 L355.2,294.8 L360.7,285.2 L366.2,274.9 L371.7,264.0 L377.2,252.4    L382.7,240.1 L388.2,227.0 L393.7,213.2 L399.2,198.4 L404.7,182.7 L410.2,166.0 L415.7,148.3 L421.2,129.5    L426.7,109.5 L432.2,88.3 L437.7,65.8 L443.1,41.8 L448.6,16.7  "
           id="path91" />
      </g>
    </g>
    <g
       style="fill:none; color:black; stroke:currentColor; stroke-width:1.00; stroke-linecap:butt; stroke-linejoin:miter"
       id="g93" />
    <path
       style="fill:none;fill-rule:evenodd;stroke:#000000;stroke-width:1px;stroke-linecap:butt;stroke-linejoin:miter;stroke-opacity:1;marker-start:url(#Arrow1Lstart);marker-end:url(#Arrow1Lend)"
       d="m 30.467066,16.670659 0,433.437121 544.958084,0"
       id="path3389"
       inkscape:connector-curvature="0" />
  </g>
</svg>
