<?xml version="1.0" encoding="UTF-8" standalone="no"?>
<!-- Created with Inkscape (http://www.inkscape.org/) -->
<svg
   xmlns:dc="http://purl.org/dc/elements/1.1/"
   xmlns:cc="http://creativecommons.org/ns#"
   xmlns:rdf="http://www.w3.org/1999/02/22-rdf-syntax-ns#"
   xmlns:svg="http://www.w3.org/2000/svg"
   xmlns="http://www.w3.org/2000/svg"
   xmlns:sodipodi="http://sodipodi.sourceforge.net/DTD/sodipodi-0.dtd"
   xmlns:inkscape="http://www.inkscape.org/namespaces/inkscape"
   id="svg3797"
   sodipodi:version="0.32"
   inkscape:version="0.46"
   width="520.125"
   height="272.875"
   xml:space="preserve"
   sodipodi:docname="Layout_engine_usage_share.svg"
   version="1.0"
   inkscape:output_extension="org.inkscape.output.svg.inkscape"><metadata
     id="metadata3802"><rdf:RDF><cc:Work
         rdf:about=""><dc:format>image/svg+xml</dc:format><dc:type
           rdf:resource="http://purl.org/dc/dcmitype/StillImage" /></cc:Work></rdf:RDF></metadata><defs
     id="defs3800"><inkscape:perspective
       sodipodi:type="inkscape:persp3d"
       inkscape:vp_x="0 : 526.18109 : 1"
       inkscape:vp_y="0 : 1000 : 0"
       inkscape:vp_z="744.09448 : 526.18109 : 1"
       inkscape:persp3d-origin="372.04724 : 350.78739 : 1"
       id="perspective3804" /><clipPath
       clipPathUnits="userSpaceOnUse"
       id="clipPath3812"><path
         d="M 0,-0.1 L 792.1,-0.1 L 792.1,612 L 0,612 L 0,-0.1 z"
         clip-rule="evenodd"
         id="path3814" /></clipPath><clipPath
       clipPathUnits="userSpaceOnUse"
       id="clipPath3820"><path
         d="M 56.7,541 L 735.4,541 L 735.4,555.3 L 56.7,555.3 L 56.7,541 z"
         clip-rule="evenodd"
         id="path3822" /></clipPath><clipPath
       clipPathUnits="userSpaceOnUse"
       id="clipPath3834"><path
         d="M 56.7,56.7 L 735.4,56.7 L 735.4,70.9 L 56.7,70.9 L 56.7,56.7 z"
         clip-rule="evenodd"
         id="path3836" /></clipPath><clipPath
       clipPathUnits="userSpaceOnUse"
       id="clipPath3854"><path
         d="M 60.4,303.2 L 476.5,303.2 L 476.5,521.5 L 60.4,521.5 L 60.4,303.2 z"
         clip-rule="evenodd"
         id="path3856" /></clipPath></defs><sodipodi:namedview
     inkscape:window-height="949"
     inkscape:window-width="1280"
     inkscape:pageshadow="2"
     inkscape:pageopacity="0.0"
     guidetolerance="10.0"
     gridtolerance="10.0"
     objecttolerance="10.0"
     borderopacity="1.0"
     bordercolor="#666666"
     pagecolor="#ffffff"
     id="base"
     showgrid="false"
     inkscape:zoom="1.559428"
     inkscape:cx="260.09375"
     inkscape:cy="136.40625"
     inkscape:window-x="0"
     inkscape:window-y="25"
     inkscape:current-layer="g3852" /><g
     id="g3806"
     inkscape:groupmode="layer"
     inkscape:label="web_usage"
     transform="matrix(1.25,0,0,-1.25,-75.4375,651.9375)"><g
       id="g3808"><g
         id="g3810"
         clip-path="url(#clipPath3812)" /></g><g
       id="g3850"><g
         id="g3852"
         clip-path="url(#clipPath3854)"><path
           d="M 268.4,303.3 L 60.4,303.3 L 60.4,521.5 L 476.4,521.5 L 476.4,303.3 L 268.4,303.3 z"
           style="fill:#000000;fill-opacity:0;fill-rule:evenodd;stroke:none"
           id="path3858" /><path
           d="M 268.4,303.3 L 60.4,303.3 L 60.4,521.5 L 476.4,521.5 L 476.4,505.86437 L 476.4,303.3 L 268.4,303.3 z"
           style="fill:none;stroke:#000000;stroke-width:0.1;stroke-linecap:butt;stroke-linejoin:miter;stroke-miterlimit:10;stroke-dasharray:none;stroke-opacity:1"
           id="path3860"
           sodipodi:nodetypes="ccccccc" /><path
           d="M 229.3,328.2 L 96.7,328.2 L 96.7,498.2 L 362,498.2 L 362,328.2 L 229.3,328.2 z"
           style="fill:none;stroke:#b3b3b3;stroke-width:0.1;stroke-linecap:butt;stroke-linejoin:miter;stroke-miterlimit:10;stroke-dasharray:none;stroke-opacity:1"
           id="path3862" /><path
           d="M 362,328.2 L 96.7,328.2"
           style="fill:none;stroke:#b3b3b3;stroke-width:0.1;stroke-linecap:butt;stroke-linejoin:miter;stroke-miterlimit:10;stroke-dasharray:none;stroke-opacity:1"
           id="path3864" /><path
           d="M 362,345.2 L 96.7,345.2"
           style="fill:none;stroke:#b3b3b3;stroke-width:0.1;stroke-linecap:butt;stroke-linejoin:miter;stroke-miterlimit:10;stroke-dasharray:none;stroke-opacity:1"
           id="path3866" /><path
           d="M 362,362.2 L 96.7,362.2"
           style="fill:none;stroke:#b3b3b3;stroke-width:0.1;stroke-linecap:butt;stroke-linejoin:miter;stroke-miterlimit:10;stroke-dasharray:none;stroke-opacity:1"
           id="path3868" /><path
           d="M 362,379.2 L 96.7,379.2"
           style="fill:none;stroke:#b3b3b3;stroke-width:0.1;stroke-linecap:butt;stroke-linejoin:miter;stroke-miterlimit:10;stroke-dasharray:none;stroke-opacity:1"
           id="path3870" /><path
           d="M 362,396.3 L 96.7,396.3"
           style="fill:none;stroke:#b3b3b3;stroke-width:0.1;stroke-linecap:butt;stroke-linejoin:miter;stroke-miterlimit:10;stroke-dasharray:none;stroke-opacity:1"
           id="path3872" /><path
           d="M 362,413.3 L 96.7,413.3"
           style="fill:none;stroke:#b3b3b3;stroke-width:0.1;stroke-linecap:butt;stroke-linejoin:miter;stroke-miterlimit:10;stroke-dasharray:none;stroke-opacity:1"
           id="path3874" /><path
           d="M 362,430.3 L 96.7,430.3"
           style="fill:none;stroke:#b3b3b3;stroke-width:0.1;stroke-linecap:butt;stroke-linejoin:miter;stroke-miterlimit:10;stroke-dasharray:none;stroke-opacity:1"
           id="path3876" /><path
           d="M 362,447.3 L 96.7,447.3"
           style="fill:none;stroke:#b3b3b3;stroke-width:0.1;stroke-linecap:butt;stroke-linejoin:miter;stroke-miterlimit:10;stroke-dasharray:none;stroke-opacity:1"
           id="path3878" /><path
           d="M 362,464.3 L 96.7,464.3"
           style="fill:none;stroke:#b3b3b3;stroke-width:0.1;stroke-linecap:butt;stroke-linejoin:miter;stroke-miterlimit:10;stroke-dasharray:none;stroke-opacity:1"
           id="path3880" /><path
           d="M 362,481.3 L 96.7,481.3"
           style="fill:none;stroke:#b3b3b3;stroke-width:0.1;stroke-linecap:butt;stroke-linejoin:miter;stroke-miterlimit:10;stroke-dasharray:none;stroke-opacity:1"
           id="path3882" /><path
           d="M 362,498.3 L 96.7,498.3"
           style="fill:none;stroke:#b3b3b3;stroke-width:0.1;stroke-linecap:butt;stroke-linejoin:miter;stroke-miterlimit:10;stroke-dasharray:none;stroke-opacity:1"
           id="path3884" /><g
           id="g3886"><text
             transform="matrix(1,0,0,-1,92.2,313.6)"
             id="text3888"><tspan
               style="font-size:8px;font-variant:normal;font-weight:normal;writing-mode:lr-tb;fill:#000000;fill-opacity:1;fill-rule:nonzero;stroke:none;font-family:ArialMT;-inkscape-font-specification:ArialMT"
               x="0 4.5040002"
               y="0"
               sodipodi:role="line"
               id="tspan3890">94</tspan></text>
</g><g
           id="g3892"><text
             transform="matrix(1,0,0,-1,109.9,313.6)"
             id="text3894"><tspan
               style="font-size:8px;font-variant:normal;font-weight:normal;writing-mode:lr-tb;fill:#000000;fill-opacity:1;fill-rule:nonzero;stroke:none;font-family:ArialMT;-inkscape-font-specification:ArialMT"
               x="0 4.5040002"
               y="0"
               sodipodi:role="line"
               id="tspan3896">95</tspan></text>
</g><g
           id="g3898"><text
             transform="matrix(1,0,0,-1,127.6,313.6)"
             id="text3900"><tspan
               style="font-size:8px;font-variant:normal;font-weight:normal;writing-mode:lr-tb;fill:#000000;fill-opacity:1;fill-rule:nonzero;stroke:none;font-family:ArialMT;-inkscape-font-specification:ArialMT"
               x="0 4.5040002"
               y="0"
               sodipodi:role="line"
               id="tspan3902">96</tspan></text>
</g><g
           id="g3904"><text
             transform="matrix(1,0,0,-1,145.2,313.6)"
             id="text3906"><tspan
               style="font-size:8px;font-variant:normal;font-weight:normal;writing-mode:lr-tb;fill:#000000;fill-opacity:1;fill-rule:nonzero;stroke:none;font-family:ArialMT;-inkscape-font-specification:ArialMT"
               x="0 4.5040002"
               y="0"
               sodipodi:role="line"
               id="tspan3908">97</tspan></text>
</g><g
           id="g3910"><text
             transform="matrix(1,0,0,-1,162.9,313.6)"
             id="text3912"><tspan
               style="font-size:8px;font-variant:normal;font-weight:normal;writing-mode:lr-tb;fill:#000000;fill-opacity:1;fill-rule:nonzero;stroke:none;font-family:ArialMT;-inkscape-font-specification:ArialMT"
               x="0 4.5040002"
               y="0"
               sodipodi:role="line"
               id="tspan3914">98</tspan></text>
</g><g
           id="g3916"><text
             transform="matrix(1,0,0,-1,180.6,313.6)"
             id="text3918"><tspan
               style="font-size:8px;font-variant:normal;font-weight:normal;writing-mode:lr-tb;fill:#000000;fill-opacity:1;fill-rule:nonzero;stroke:none;font-family:ArialMT;-inkscape-font-specification:ArialMT"
               x="0 4.5040002"
               y="0"
               sodipodi:role="line"
               id="tspan3920">99</tspan></text>
</g><g
           id="g3922"><text
             transform="matrix(1,0,0,-1,198.3,313.6)"
             id="text3924"><tspan
               style="font-size:8px;font-variant:normal;font-weight:normal;writing-mode:lr-tb;fill:#000000;fill-opacity:1;fill-rule:nonzero;stroke:none;font-family:ArialMT;-inkscape-font-specification:ArialMT"
               x="0 4.5040002"
               y="0"
               sodipodi:role="line"
               id="tspan3926">00</tspan></text>
</g><g
           id="g3928"><text
             transform="matrix(1,0,0,-1,216,313.6)"
             id="text3930"><tspan
               style="font-size:8px;font-variant:normal;font-weight:normal;writing-mode:lr-tb;fill:#000000;fill-opacity:1;fill-rule:nonzero;stroke:none;font-family:ArialMT;-inkscape-font-specification:ArialMT"
               x="0 4.5040002"
               y="0"
               sodipodi:role="line"
               id="tspan3932">01</tspan></text>
</g><g
           id="g3934"><text
             transform="matrix(1,0,0,-1,233.7,313.6)"
             id="text3936"><tspan
               style="font-size:8px;font-variant:normal;font-weight:normal;writing-mode:lr-tb;fill:#000000;fill-opacity:1;fill-rule:nonzero;stroke:none;font-family:ArialMT;-inkscape-font-specification:ArialMT"
               x="0 4.5040002"
               y="0"
               sodipodi:role="line"
               id="tspan3938">02</tspan></text>
</g><g
           id="g3940"><text
             transform="matrix(1,0,0,-1,251.4,313.6)"
             id="text3942"><tspan
               style="font-size:8px;font-variant:normal;font-weight:normal;writing-mode:lr-tb;fill:#000000;fill-opacity:1;fill-rule:nonzero;stroke:none;font-family:ArialMT;-inkscape-font-specification:ArialMT"
               x="0 4.5040002"
               y="0"
               sodipodi:role="line"
               id="tspan3944">03</tspan></text>
</g><g
           id="g3946"><text
             transform="matrix(1,0,0,-1,269.1,313.6)"
             id="text3948"><tspan
               style="font-size:8px;font-variant:normal;font-weight:normal;writing-mode:lr-tb;fill:#000000;fill-opacity:1;fill-rule:nonzero;stroke:none;font-family:ArialMT;-inkscape-font-specification:ArialMT"
               x="0 4.5040002"
               y="0"
               sodipodi:role="line"
               id="tspan3950">04</tspan></text>
</g><g
           id="g3952"><text
             transform="matrix(1,0,0,-1,286.8,313.6)"
             id="text3954"><tspan
               style="font-size:8px;font-variant:normal;font-weight:normal;writing-mode:lr-tb;fill:#000000;fill-opacity:1;fill-rule:nonzero;stroke:none;font-family:ArialMT;-inkscape-font-specification:ArialMT"
               x="0 4.5040002"
               y="0"
               sodipodi:role="line"
               id="tspan3956">05</tspan></text>
</g><g
           id="g3958"><text
             transform="matrix(1,0,0,-1,304.4,313.6)"
             id="text3960"><tspan
               style="font-size:8px;font-variant:normal;font-weight:normal;writing-mode:lr-tb;fill:#000000;fill-opacity:1;fill-rule:nonzero;stroke:none;font-family:ArialMT;-inkscape-font-specification:ArialMT"
               x="0 4.5040002"
               y="0"
               sodipodi:role="line"
               id="tspan3962">06</tspan></text>
</g><g
           id="g3964"><text
             transform="matrix(1,0,0,-1,322.1,313.6)"
             id="text3966"><tspan
               style="font-size:8px;font-variant:normal;font-weight:normal;writing-mode:lr-tb;fill:#000000;fill-opacity:1;fill-rule:nonzero;stroke:none;font-family:ArialMT;-inkscape-font-specification:ArialMT"
               x="0 4.5040002"
               y="0"
               sodipodi:role="line"
               id="tspan3968">07</tspan></text>
</g><g
           id="g3970"><text
             transform="matrix(1,0,0,-1,339.8,313.6)"
             id="text3972"><tspan
               style="font-size:8px;font-variant:normal;font-weight:normal;writing-mode:lr-tb;fill:#000000;fill-opacity:1;fill-rule:nonzero;stroke:none;font-family:ArialMT;-inkscape-font-specification:ArialMT"
               x="0 4.5040002"
               y="0"
               sodipodi:role="line"
               id="tspan3974">08</tspan></text>
</g><g
           id="g3976"><text
             transform="matrix(1,0,0,-1,357.5,313.6)"
             id="text3978"><tspan
               style="font-size:8px;font-variant:normal;font-weight:normal;writing-mode:lr-tb;fill:#000000;fill-opacity:1;fill-rule:nonzero;stroke:none;font-family:ArialMT;-inkscape-font-specification:ArialMT"
               x="0 4.5040002"
               y="0"
               sodipodi:role="line"
               id="tspan3980">09</tspan></text>
</g><path
           d="M 96.7,324 L 96.7,328.2"
           style="fill:none;stroke:#b3b3b3;stroke-width:0.1;stroke-linecap:butt;stroke-linejoin:miter;stroke-miterlimit:10;stroke-dasharray:none;stroke-opacity:1"
           id="path3982" /><path
           d="M 114.3,324 L 114.3,328.2"
           style="fill:none;stroke:#b3b3b3;stroke-width:0.1;stroke-linecap:butt;stroke-linejoin:miter;stroke-miterlimit:10;stroke-dasharray:none;stroke-opacity:1"
           id="path3984" /><path
           d="M 132,324 L 132,328.2"
           style="fill:none;stroke:#b3b3b3;stroke-width:0.1;stroke-linecap:butt;stroke-linejoin:miter;stroke-miterlimit:10;stroke-dasharray:none;stroke-opacity:1"
           id="path3986" /><path
           d="M 149.7,324 L 149.7,328.2"
           style="fill:none;stroke:#b3b3b3;stroke-width:0.1;stroke-linecap:butt;stroke-linejoin:miter;stroke-miterlimit:10;stroke-dasharray:none;stroke-opacity:1"
           id="path3988" /><path
           d="M 167.4,324 L 167.4,328.2"
           style="fill:none;stroke:#b3b3b3;stroke-width:0.1;stroke-linecap:butt;stroke-linejoin:miter;stroke-miterlimit:10;stroke-dasharray:none;stroke-opacity:1"
           id="path3990" /><path
           d="M 185.1,324 L 185.1,328.2"
           style="fill:none;stroke:#b3b3b3;stroke-width:0.1;stroke-linecap:butt;stroke-linejoin:miter;stroke-miterlimit:10;stroke-dasharray:none;stroke-opacity:1"
           id="path3992" /><path
           d="M 202.8,324 L 202.8,328.2"
           style="fill:none;stroke:#b3b3b3;stroke-width:0.1;stroke-linecap:butt;stroke-linejoin:miter;stroke-miterlimit:10;stroke-dasharray:none;stroke-opacity:1"
           id="path3994" /><path
           d="M 220.5,324 L 220.5,328.2"
           style="fill:none;stroke:#b3b3b3;stroke-width:0.1;stroke-linecap:butt;stroke-linejoin:miter;stroke-miterlimit:10;stroke-dasharray:none;stroke-opacity:1"
           id="path3996" /><path
           d="M 238.2,324 L 238.2,328.2"
           style="fill:none;stroke:#b3b3b3;stroke-width:0.1;stroke-linecap:butt;stroke-linejoin:miter;stroke-miterlimit:10;stroke-dasharray:none;stroke-opacity:1"
           id="path3998" /><path
           d="M 255.9,324 L 255.9,328.2"
           style="fill:none;stroke:#b3b3b3;stroke-width:0.1;stroke-linecap:butt;stroke-linejoin:miter;stroke-miterlimit:10;stroke-dasharray:none;stroke-opacity:1"
           id="path4000" /><path
           d="M 273.5,324 L 273.5,328.2"
           style="fill:none;stroke:#b3b3b3;stroke-width:0.1;stroke-linecap:butt;stroke-linejoin:miter;stroke-miterlimit:10;stroke-dasharray:none;stroke-opacity:1"
           id="path4002" /><path
           d="M 291.2,324 L 291.2,328.2"
           style="fill:none;stroke:#b3b3b3;stroke-width:0.1;stroke-linecap:butt;stroke-linejoin:miter;stroke-miterlimit:10;stroke-dasharray:none;stroke-opacity:1"
           id="path4004" /><path
           d="M 308.9,324 L 308.9,328.2"
           style="fill:none;stroke:#b3b3b3;stroke-width:0.1;stroke-linecap:butt;stroke-linejoin:miter;stroke-miterlimit:10;stroke-dasharray:none;stroke-opacity:1"
           id="path4006" /><path
           d="M 326.6,324 L 326.6,328.2"
           style="fill:none;stroke:#b3b3b3;stroke-width:0.1;stroke-linecap:butt;stroke-linejoin:miter;stroke-miterlimit:10;stroke-dasharray:none;stroke-opacity:1"
           id="path4008" /><path
           d="M 344.3,324 L 344.3,328.2"
           style="fill:none;stroke:#b3b3b3;stroke-width:0.1;stroke-linecap:butt;stroke-linejoin:miter;stroke-miterlimit:10;stroke-dasharray:none;stroke-opacity:1"
           id="path4010" /><path
           d="M 362,324 L 362,328.2"
           style="fill:none;stroke:#b3b3b3;stroke-width:0.1;stroke-linecap:butt;stroke-linejoin:miter;stroke-miterlimit:10;stroke-dasharray:none;stroke-opacity:1"
           id="path4012" /><g
           id="g4014"><path
             d="M 96.7,328.2 L 362,328.2"
             style="fill:none;stroke:none"
             id="path4016" /></g><g
           id="g4018"><text
             transform="matrix(1,0,0,-1,77.6,325.2)"
             id="text4020"><tspan
               style="font-size:8px;font-variant:normal;font-weight:normal;writing-mode:lr-tb;fill:#000000;fill-opacity:1;fill-rule:nonzero;stroke:none;font-family:ArialMT;-inkscape-font-specification:ArialMT"
               x="0 4.5040002"
               y="0"
               sodipodi:role="line"
               id="tspan4022">0%</tspan></text>
</g><g
           id="g4024"><text
             transform="matrix(1,0,0,-1,73.1,342.2)"
             id="text4026"><tspan
               style="font-size:8px;font-variant:normal;font-weight:normal;writing-mode:lr-tb;fill:#000000;fill-opacity:1;fill-rule:nonzero;stroke:none;font-family:ArialMT;-inkscape-font-specification:ArialMT"
               x="0 4.5040002 9.0080004"
               y="0"
               sodipodi:role="line"
               id="tspan4028">10%</tspan></text>
</g><g
           id="g4030"><text
             transform="matrix(1,0,0,-1,73.1,359.2)"
             id="text4032"><tspan
               style="font-size:8px;font-variant:normal;font-weight:normal;writing-mode:lr-tb;fill:#000000;fill-opacity:1;fill-rule:nonzero;stroke:none;font-family:ArialMT;-inkscape-font-specification:ArialMT"
               x="0 4.5040002 9.0080004"
               y="0"
               sodipodi:role="line"
               id="tspan4034">20%</tspan></text>
</g><g
           id="g4036"><text
             transform="matrix(1,0,0,-1,73.1,376.2)"
             id="text4038"><tspan
               style="font-size:8px;font-variant:normal;font-weight:normal;writing-mode:lr-tb;fill:#000000;fill-opacity:1;fill-rule:nonzero;stroke:none;font-family:ArialMT;-inkscape-font-specification:ArialMT"
               x="0 4.5040002 9.0080004"
               y="0"
               sodipodi:role="line"
               id="tspan4040">30%</tspan></text>
</g><g
           id="g4042"><text
             transform="matrix(1,0,0,-1,73.1,393.2)"
             id="text4044"><tspan
               style="font-size:8px;font-variant:normal;font-weight:normal;writing-mode:lr-tb;fill:#000000;fill-opacity:1;fill-rule:nonzero;stroke:none;font-family:ArialMT;-inkscape-font-specification:ArialMT"
               x="0 4.5040002 9.0080004"
               y="0"
               sodipodi:role="line"
               id="tspan4046">40%</tspan></text>
</g><g
           id="g4048"><text
             transform="matrix(1,0,0,-1,73.1,410.2)"
             id="text4050"><tspan
               style="font-size:8px;font-variant:normal;font-weight:normal;writing-mode:lr-tb;fill:#000000;fill-opacity:1;fill-rule:nonzero;stroke:none;font-family:ArialMT;-inkscape-font-specification:ArialMT"
               x="0 4.5040002 9.0080004"
               y="0"
               sodipodi:role="line"
               id="tspan4052">50%</tspan></text>
</g><g
           id="g4054"><text
             transform="matrix(1,0,0,-1,73.1,427.2)"
             id="text4056"><tspan
               style="font-size:8px;font-variant:normal;font-weight:normal;writing-mode:lr-tb;fill:#000000;fill-opacity:1;fill-rule:nonzero;stroke:none;font-family:ArialMT;-inkscape-font-specification:ArialMT"
               x="0 4.5040002 9.0080004"
               y="0"
               sodipodi:role="line"
               id="tspan4058">60%</tspan></text>
</g><g
           id="g4060"><text
             transform="matrix(1,0,0,-1,73.1,444.3)"
             id="text4062"><tspan
               style="font-size:8px;font-variant:normal;font-weight:normal;writing-mode:lr-tb;fill:#000000;fill-opacity:1;fill-rule:nonzero;stroke:none;font-family:ArialMT;-inkscape-font-specification:ArialMT"
               x="0 4.5040002 9.0080004"
               y="0"
               sodipodi:role="line"
               id="tspan4064">70%</tspan></text>
</g><g
           id="g4066"><text
             transform="matrix(1,0,0,-1,73.1,461.3)"
             id="text4068"><tspan
               style="font-size:8px;font-variant:normal;font-weight:normal;writing-mode:lr-tb;fill:#000000;fill-opacity:1;fill-rule:nonzero;stroke:none;font-family:ArialMT;-inkscape-font-specification:ArialMT"
               x="0 4.5040002 9.0080004"
               y="0"
               sodipodi:role="line"
               id="tspan4070">80%</tspan></text>
</g><g
           id="g4072"><text
             transform="matrix(1,0,0,-1,73.1,478.3)"
             id="text4074"><tspan
               style="font-size:8px;font-variant:normal;font-weight:normal;writing-mode:lr-tb;fill:#000000;fill-opacity:1;fill-rule:nonzero;stroke:none;font-family:ArialMT;-inkscape-font-specification:ArialMT"
               x="0 4.5040002 9.0080004"
               y="0"
               sodipodi:role="line"
               id="tspan4076">90%</tspan></text>
</g><g
           id="g4078"><text
             transform="matrix(1,0,0,-1,68.6,495.3)"
             id="text4080"><tspan
               style="font-size:8px;font-variant:normal;font-weight:normal;writing-mode:lr-tb;fill:#000000;fill-opacity:1;fill-rule:nonzero;stroke:none;font-family:ArialMT;-inkscape-font-specification:ArialMT"
               x="0 4.5040002 9.0080004 13.512"
               y="0"
               sodipodi:role="line"
               id="tspan4082">100%</tspan></text>
</g><path
           d="M 92.4,328.2 L 96.7,328.2"
           style="fill:none;stroke:#b3b3b3;stroke-width:0.1;stroke-linecap:butt;stroke-linejoin:miter;stroke-miterlimit:10;stroke-dasharray:none;stroke-opacity:1"
           id="path4084" /><path
           d="M 92.4,345.2 L 96.7,345.2"
           style="fill:none;stroke:#b3b3b3;stroke-width:0.1;stroke-linecap:butt;stroke-linejoin:miter;stroke-miterlimit:10;stroke-dasharray:none;stroke-opacity:1"
           id="path4086" /><path
           d="M 92.4,362.2 L 96.7,362.2"
           style="fill:none;stroke:#b3b3b3;stroke-width:0.1;stroke-linecap:butt;stroke-linejoin:miter;stroke-miterlimit:10;stroke-dasharray:none;stroke-opacity:1"
           id="path4088" /><path
           d="M 92.4,379.2 L 96.7,379.2"
           style="fill:none;stroke:#b3b3b3;stroke-width:0.1;stroke-linecap:butt;stroke-linejoin:miter;stroke-miterlimit:10;stroke-dasharray:none;stroke-opacity:1"
           id="path4090" /><path
           d="M 92.4,396.3 L 96.7,396.3"
           style="fill:none;stroke:#b3b3b3;stroke-width:0.1;stroke-linecap:butt;stroke-linejoin:miter;stroke-miterlimit:10;stroke-dasharray:none;stroke-opacity:1"
           id="path4092" /><path
           d="M 92.4,413.3 L 96.7,413.3"
           style="fill:none;stroke:#b3b3b3;stroke-width:0.1;stroke-linecap:butt;stroke-linejoin:miter;stroke-miterlimit:10;stroke-dasharray:none;stroke-opacity:1"
           id="path4094" /><path
           d="M 92.4,430.3 L 96.7,430.3"
           style="fill:none;stroke:#b3b3b3;stroke-width:0.1;stroke-linecap:butt;stroke-linejoin:miter;stroke-miterlimit:10;stroke-dasharray:none;stroke-opacity:1"
           id="path4096" /><path
           d="M 92.4,447.3 L 96.7,447.3"
           style="fill:none;stroke:#b3b3b3;stroke-width:0.1;stroke-linecap:butt;stroke-linejoin:miter;stroke-miterlimit:10;stroke-dasharray:none;stroke-opacity:1"
           id="path4098" /><path
           d="M 92.4,464.3 L 96.7,464.3"
           style="fill:none;stroke:#b3b3b3;stroke-width:0.1;stroke-linecap:butt;stroke-linejoin:miter;stroke-miterlimit:10;stroke-dasharray:none;stroke-opacity:1"
           id="path4100" /><path
           d="M 92.4,481.3 L 96.7,481.3"
           style="fill:none;stroke:#b3b3b3;stroke-width:0.1;stroke-linecap:butt;stroke-linejoin:miter;stroke-miterlimit:10;stroke-dasharray:none;stroke-opacity:1"
           id="path4102" /><path
           d="M 92.4,498.3 L 96.7,498.3"
           style="fill:none;stroke:#b3b3b3;stroke-width:0.1;stroke-linecap:butt;stroke-linejoin:miter;stroke-miterlimit:10;stroke-dasharray:none;stroke-opacity:1"
           id="path4104" /><g
           id="g4106"><path
             d="M 96.7,328.2 L 96.7,498.3"
             style="fill:none;stroke:none"
             id="path4108" /></g><path
           d="M 96.7,489.8 L 114.3,392 L 132,341 L 149.7,332.5 L 167.4,328.2 L 185.1,328.2 L 202.8,328.2 L 220.5,328.2 L 238.2,328.2 L 255.9,328.2 L 273.5,328.2 L 291.2,328.2 L 308.9,328.2 L 326.6,328.2 L 344.3,328.2 L 362,328.2 L 362,328.2 L 96.7,328.2 L 96.7,489.8 z"
           style="fill:#c847d8;fill-opacity:1;fill-rule:evenodd;stroke:none"
           id="path4110" /><path
           d="M 96.7,489.8 L 114.3,485.5 L 132,477 L 149.7,455.8 L 167.4,430.3 L 185.1,387.8 L 202.8,353.7 L 220.5,343.5 L 238.2,332.5 L 255.9,329.5 L 273.5,328.2 L 291.2,328.2 L 308.9,328.2 L 326.6,328.2 L 344.3,328.2 L 362,328.2 L 362,328.2 L 344.3,328.2 L 326.6,328.2 L 308.9,328.2 L 291.2,328.2 L 273.5,328.2 L 255.9,328.2 L 238.2,328.2 L 220.5,328.2 L 202.8,328.2 L 185.1,328.2 L 167.4,328.2 L 149.7,332.5 L 132,341 L 114.3,392 L 96.7,489.8 z"
           style="fill:#51d847;fill-opacity:1;fill-rule:evenodd;stroke:none"
           id="path4112" /><path
           d="M 96.7,489.8 L 114.3,485.5 L 132,483.4 L 149.7,485.5 L 167.4,489.8 L 185.1,494.1 L 202.8,496.2 L 220.5,496.6 L 238.2,494.5 L 255.9,490.6 L 273.5,483.4 L 291.2,476.4 L 308.9,469.4 L 326.6,461.9 L 344.3,451.8 L 362,441.6 L 362,328.2 L 344.3,328.2 L 326.6,328.2 L 308.9,328.2 L 291.2,328.2 L 273.5,328.2 L 255.9,329.5 L 238.2,332.5 L 220.5,343.5 L 202.8,353.7 L 185.1,387.8 L 167.4,430.3 L 149.7,455.8 L 132,477 L 114.3,485.5 L 96.7,489.8 z"
           style="opacity:1;fill:#4762d8;fill-opacity:1;fill-rule:evenodd;stroke:none"
           id="path4114" /><path
           d="M 96.7,489.8 L 114.3,485.5 L 132,483.4 L 149.7,485.5 L 167.4,489.8 L 185.1,494.1 L 202.8,496.2 L 220.5,496.6 L 238.2,496.2 L 255.9,494.1 L 273.5,493.4 L 291.2,493.4 L 308.9,491.2 L 326.6,488.8 L 344.3,485.2 L 362,480 L 362,441.6 L 344.3,451.8 L 326.6,461.9 L 308.9,469.4 L 291.2,476.4 L 273.5,483.4 L 255.9,490.6 L 238.2,494.5 L 220.5,496.6 L 202.8,496.2 L 185.1,494.1 L 167.4,489.8 L 149.7,485.5 L 132,483.4 L 114.3,485.5 L 96.7,489.8 z"
           style="fill:#ff8b10;fill-opacity:1;fill-rule:evenodd;stroke:none"
           id="path4116" /><path
           d="M 96.7,489.8 L 114.3,485.5 L 132,483.4 L 149.7,485.5 L 167.4,489.8 L 185.1,494.1 L 202.8,496.2 L 220.5,496.6 L 238.2,496.2 L 255.9,494.1 L 273.5,495.9 L 291.2,497.1 L 308.9,497.1 L 326.6,497 L 344.3,496.5 L 362,496.7 L 362,480 L 344.3,485.2 L 326.6,488.8 L 308.9,491.2 L 291.2,493.4 L 273.5,493.4 L 255.9,494.1 L 238.2,496.2 L 220.5,496.6 L 202.8,496.2 L 185.1,494.1 L 167.4,489.8 L 149.7,485.5 L 132,483.4 L 114.3,485.5 L 96.7,489.8 z"
           style="fill:#e6e6e6;fill-opacity:1;fill-rule:evenodd;stroke:none"
           id="path4118" /><path
           d="M 96.7,489.8 L 114.3,485.5 L 132,483.4 L 149.7,485.5 L 167.4,489.8 L 185.1,494.1 L 202.8,496.2 L 220.5,496.6 L 238.2,496.2 L 255.9,494.1 L 273.5,496.8 L 291.2,498 L 308.9,498.1 L 326.6,497.9 L 344.3,497.7 L 362,497.8 L 362,496.7 L 344.3,496.5 L 326.6,497 L 308.9,497.1 L 291.2,497.1 L 273.5,495.9 L 255.9,494.1 L 238.2,496.2 L 220.5,496.6 L 202.8,496.2 L 185.1,494.1 L 167.4,489.8 L 149.7,485.5 L 132,483.4 L 114.3,485.5 L 96.7,489.8 z"
           style="fill:#b80000;fill-opacity:1;fill-rule:evenodd;stroke:none"
           id="path4120" /><path
           d="M 96.7,498.3 L 114.3,498.3 L 132,498.3 L 149.7,498.3 L 167.4,498.3 L 185.1,498.3 L 202.8,498.3 L 220.5,498.3 L 238.2,498.3 L 255.9,498.3 L 273.5,498.3 L 291.2,498.3 L 320.7,498.3 L 326.6,498.3 L 344.3,498.3 L 362,498.3 L 362,497.8 L 344.3,497.7 L 326.6,497.9 L 308.9,498.1 L 291.2,498 L 273.5,496.8 L 255.9,494.1 L 238.2,496.2 L 220.5,496.6 L 202.8,496.2 L 185.1,494.1 L 167.4,489.8 L 149.7,485.5 L 132,483.4 L 114.3,485.5 L 96.7,489.8 L 96.7,498.3 z"
           style="fill:#848484;fill-opacity:1;fill-rule:evenodd;stroke:none"
           id="path4122" /><g
           id="g4124"><text
             transform="matrix(1,0,0,-1,172.1,505.5)"
             id="text4126"><tspan
               style="font-size:10.5px;font-variant:normal;font-weight:normal;writing-mode:lr-tb;fill:#000000;fill-opacity:1;fill-rule:nonzero;stroke:none;font-family:Cortoba;-inkscape-font-specification:Cortoba"
               x="0 5.9955001 11.991 17.293501 23.289 29.2845 32.287498 35.290501 41.285999 47.281502 53.277 55.481998 61.477501 67.473 70.475998 76.471497 81.774002 87.769501 93.764999 99.760498 102.7635 107.961 113.9565 119.952 123.753 129.7485 132.7515 138.74699 144.74249 150.73801 156.73351 160.4295 168.7245 174.72 177.72301 183.71851 189.714 195.7095"
               y="0"
               sodipodi:role="line"
               id="tspan4128">Layout engine usage share 1994-Q2 2009</tspan></text>
</g><path
           d="M 375,413.4 L 372.8,413.4 L 372.8,417.9 L 377.3,417.9 L 377.3,413.4 L 375,413.4 z"
           style="fill:#c847d8;fill-opacity:1;fill-rule:evenodd;stroke:none"
           id="path4130" /><path
           d="M 375,423.6 L 372.8,423.6 L 372.8,428.1 L 377.3,428.1 L 377.3,423.6 L 375,423.6 z"
           style="fill:#51d847;fill-opacity:1;fill-rule:evenodd;stroke:none"
           id="path4132" /><path
           d="M 375,442.9 L 372.8,442.9 L 372.8,447.4 L 377.3,447.4 L 377.3,442.9 L 375,442.9 z"
           style="fill:#4762d8;fill-opacity:1;fill-rule:evenodd;stroke:none"
           id="path4134" /><path
           d="M 375,462.1 L 372.8,462.1 L 372.8,466.6 L 377.3,466.6 L 377.3,462.1 L 375,462.1 z"
           style="fill:#ff8b10;fill-opacity:1;fill-rule:evenodd;stroke:none"
           id="path4136" /><path
           d="M 375,472.4 L 372.8,472.4 L 372.8,476.8 L 377.3,476.8 L 377.3,472.4 L 375,472.4 z"
           style="fill:#e6e6e6;fill-opacity:1;fill-rule:evenodd;stroke:none"
           id="path4138" /><path
           d="M 375,482.6 L 372.8,482.6 L 372.8,487.1 L 377.3,487.1 L 377.3,482.6 L 375,482.6 z"
           style="fill:#b80000;fill-opacity:1;fill-rule:evenodd;stroke:none"
           id="path4140" /><path
           d="M 375,492.8 L 372.8,492.8 L 372.8,497.3 L 377.3,497.3 L 377.3,492.8 L 375,492.8 z"
           style="fill:#848484;fill-opacity:1;fill-rule:evenodd;stroke:none"
           id="path4142" /><g
           id="g4144"><text
             transform="matrix(1,0,0,-1,379.5,492.1)"
             id="text4146"><tspan
               style="font-size:6px;font-variant:normal;font-weight:normal;writing-mode:lr-tb;fill:#000000;fill-opacity:1;fill-rule:nonzero;stroke:none;font-family:AlBattar;-inkscape-font-specification:AlBattar"
               x="0 4.5 6 9 12 14.298"
               y="0"
               sodipodi:role="line"
               id="tspan4148">Others</tspan></text>
</g><g
           id="g4150"><text
             transform="matrix(1,0,0,-1,379.5,481.9)"
             id="text4152"><tspan
               style="font-size:6px;font-variant:normal;font-weight:normal;writing-mode:lr-tb;fill:#000000;fill-opacity:1;fill-rule:nonzero;stroke:none;font-family:AlBattar;-inkscape-font-specification:AlBattar"
               x="0 3.7980001 6 9 12 13.5 16.5 18 20.298 24.798 27.798 30.798 33 36 37.5 40.5 44.298"
               y="0"
               sodipodi:role="line"
               id="tspan4154">Presto (Opera 7+)</tspan></text>
</g><g
           id="g4156"><text
             transform="matrix(1,0,0,-1,379.5,471.7)"
             id="text4158"><tspan
               style="font-size:6px;font-variant:normal;font-weight:normal;writing-mode:lr-tb;fill:#000000;fill-opacity:1;fill-rule:nonzero;stroke:none;font-family:AlBattar;-inkscape-font-specification:AlBattar"
               x="0 6 9 12 15.798 17.298 18.798 20.298 22.5 26.298 29.298 30.798 33.798 36 37.5 39 40.5 45 48 50.298 53.298 58.5 61.5"
               y="0"
               sodipodi:role="line"
               id="tspan4160">WebKit (Safari, Chrome)</tspan></text>
</g><g
           id="g4162"><text
             transform="matrix(1,0,0,-1,379.5,461.4)"
             id="text4164"><tspan
               style="font-size:6px;font-variant:normal;font-weight:normal;writing-mode:lr-tb;fill:#000000;fill-opacity:1;fill-rule:nonzero;stroke:none;font-family:AlBattar;-inkscape-font-specification:AlBattar"
               x="0 4.5 7.5 10.5 13.5 16.5 18 20.298 25.5 28.5 31.5 33 34.5 36 39 40.5 42 45.798 47.298 49.5 52.5 54 57 60 61.5"
               y="0"
               sodipodi:role="line"
               id="tspan4166">Gecko (Mozilla, Firefox, </tspan></text>
</g><g
           id="g4168"><text
             transform="matrix(1,0,0,-1,379.5,452.4)"
             id="text4170"><tspan
               style="font-size:6px;font-variant:normal;font-weight:normal;writing-mode:lr-tb;fill:#000000;fill-opacity:1;fill-rule:nonzero;stroke:none;font-family:AlBattar;-inkscape-font-specification:AlBattar"
               x="0 4.5 7.5 9 12 15 18 21 24 25.5 28.5 32.298 33.798 35.298 38.298 39.798 42.798"
               y="0"
               sodipodi:role="line"
               id="tspan4172">Netscape 6+, etc)</tspan></text>
</g><g
           id="g4174"><text
             transform="matrix(1,0,0,-1,379.5,442.2)"
             id="text4176"><tspan
               style="font-size:6px;font-variant:normal;font-weight:normal;writing-mode:lr-tb;fill:#000000;fill-opacity:1;fill-rule:nonzero;stroke:none;font-family:AlBattar;-inkscape-font-specification:AlBattar"
               x="0 3.7980001 6 7.5 10.5 13.5 16.5 18 19.5 21.798 23.298 26.298 27.798 30.798 33 36 39 40.5 42 45.798 48.798 51.798 53.298 56.298 58.5 61.5 63.798 65.297997 66.797997 69.797997 72"
               y="0"
               sodipodi:role="line"
               id="tspan4178">Trident (Internet Explorer for </tspan></text>
</g><g
           id="g4180"><text
             transform="matrix(1,0,0,-1,379.5,433.2)"
             id="text4182"><tspan
               style="font-size:6px;font-variant:normal;font-weight:normal;writing-mode:lr-tb;fill:#000000;fill-opacity:1;fill-rule:nonzero;stroke:none;font-family:AlBattar;-inkscape-font-specification:AlBattar"
               x="0 6 7.5 10.5 13.5 16.5 21 24"
               y="0"
               sodipodi:role="line"
               id="tspan4184">Windows)</tspan></text>
</g><g
           id="g4186"><text
             transform="matrix(1,0,0,-1,379.5,422.9)"
             id="text4188"><tspan
               style="font-size:6px;font-variant:normal;font-weight:normal;writing-mode:lr-tb;fill:#000000;fill-opacity:1;fill-rule:nonzero;stroke:none;font-family:AlBattar;-inkscape-font-specification:AlBattar"
               x="0 4.5 7.5 9 12 15 18 21 24 25.5 30 31.5 34.5 37.5 40.5 42"
               y="0"
               sodipodi:role="line"
               id="tspan4190">Netscape Classic</tspan></text>
</g><g
           id="g4192"><text
             transform="matrix(1,0,0,-1,379.5,412.7)"
             id="text4194"><tspan
               style="font-size:6px;font-variant:normal;font-weight:normal;writing-mode:lr-tb;fill:#000000;fill-opacity:1;fill-rule:nonzero;stroke:none;font-family:AlBattar;-inkscape-font-specification:AlBattar"
               x="0 5.2979999 8.2980003 11.298 14.298 15.798"
               y="0"
               sodipodi:role="line"
               id="tspan4196">Mosaic</tspan></text>
</g></g></g></g></svg>