<?xml version="1.0" encoding="UTF-8" standalone="no"?>
<svg
   xmlns:dc="http://purl.org/dc/elements/1.1/"
   xmlns:cc="http://creativecommons.org/ns#"
   xmlns:rdf="http://www.w3.org/1999/02/22-rdf-syntax-ns#"
   xmlns:svg="http://www.w3.org/2000/svg"
   xmlns="http://www.w3.org/2000/svg"
   xmlns:sodipodi="http://sodipodi.sourceforge.net/DTD/sodipodi-0.dtd"
   xmlns:inkscape="http://www.inkscape.org/namespaces/inkscape"
   id="svgRoot"
   viewBox="0 0 77.748927 119.15739"
   xml:space="preserve"
   sodipodi:version="0.32"
   inkscape:version="0.91 r13725"
   width="99.518639"
   height="99.518639"
   sodipodi:docname="1.svg"
   inkscape:output_extension="org.inkscape.output.svg.inkscape"
   version="1.0"
   inkscape:export-filename="/home/ckhung/1.png"
   inkscape:export-xdpi="90"
   inkscape:export-ydpi="90"><metadata
     id="metadata24"><rdf:RDF><cc:Work
         rdf:about=""><dc:format>image/svg+xml</dc:format><dc:type
           rdf:resource="http://purl.org/dc/dcmitype/StillImage" /><dc:title></dc:title></cc:Work></rdf:RDF></metadata><sodipodi:namedview
     inkscape:window-height="667"
     inkscape:window-width="869"
     inkscape:pageshadow="2"
     inkscape:pageopacity="1"
     guidetolerance="10.0"
     gridtolerance="10.0"
     objecttolerance="10.0"
     borderopacity="1.0"
     bordercolor="#666666"
     pagecolor="#ffffff"
     id="base"
     showgrid="false"
     inkscape:zoom="3.0195309"
     inkscape:cx="-12.848378"
     inkscape:cy="49.759321"
     inkscape:window-x="88"
     inkscape:window-y="0"
     inkscape:current-layer="g7"
     showborder="false"
     fit-margin-top="8"
     fit-margin-left="8"
     fit-margin-right="8"
     fit-margin-bottom="8"
     inkscape:window-maximized="0" /><defs
     id="defs3"><inkscape:perspective
       sodipodi:type="inkscape:persp3d"
       inkscape:vp_x="0 : 526.18109 : 1"
       inkscape:vp_y="0 : 1000 : 0"
       inkscape:vp_z="744.09448 : 526.18109 : 1"
       inkscape:persp3d-origin="372.04724 : 350.78739 : 1"
       id="perspective26" /></defs><g
     transform="matrix(2.556237,0,0,-2.556237,-97.88142,174.86498)"
     id="g7"><path
       d="m 54.15,64.66 c -2.99,0 -5.81,-0.66 -8.34,-1.86 l 16.68,0 c -2.53,1.2 -5.36,1.86 -8.34,1.86 m -6.26,-3.72 -5.23,0 c -0.78,-0.57 -1.51,-1.19 -2.2,-1.86 l 4.8,0 c 0.8,0.71 1.68,1.33 2.63,1.86 m 10.01,-5.59 12.91,0 c -0.4,0.64 -0.83,1.27 -1.3,1.86 l -11.61,0 0,-1.86 m -14.43,1.86 -4.68,0 c -0.47,-0.59 -0.91,-1.22 -1.31,-1.86 l 4.72,0 c 0.38,0.65 0.81,1.28 1.27,1.86 m 14.43,1.87 9.94,0 c -0.69,0.67 -1.43,1.29 -2.21,1.86 l -7.73,0 0,-1.86 M 73.71,45.1 c 0,0.31 -0.01,0.62 -0.03,0.93 l -6.74,0 c -0.27,0.65 -0.57,1.27 -0.92,1.87 l 7.49,0 c -0.09,0.63 -0.21,1.25 -0.36,1.86 l -8.41,0 c -0.54,0.67 -1.14,1.29 -1.78,1.86 l 9.64,0 c -0.23,0.64 -0.49,1.26 -0.77,1.86 l -21.46,0 0,-9.31 7.53,0 0,-9.32 -20.42,0 c 0.4,-0.64 0.84,-1.27 1.31,-1.86 l 11.57,0 0,-1.86 -9.9,0 c 0.69,-0.68 1.42,-1.3 2.2,-1.86 l 7.7,0 0,-1.87 -4.55,0 c 2.53,-1.2 5.35,-1.86 8.34,-1.86 2.98,0 5.81,0.66 8.34,1.86 l -2.11,0 c 0.94,0.53 1.82,1.15 2.62,1.87 l 2.63,0 c 0.78,0.56 1.52,1.18 2.21,1.86 l -3.07,0 c 0.47,0.58 0.89,1.21 1.28,1.86 l 3.46,0 c 0.47,0.59 0.9,1.22 1.3,1.86 l -3.86,0 c 0.24,0.61 0.45,1.23 0.61,1.87 l 4.27,0 c 0.28,0.61 0.54,1.22 0.77,1.86 l -4.69,0 c 0.08,0.61 0.12,1.22 0.12,1.84 l 0,0.02 5.12,0 c 0.15,0.61 0.27,1.23 0.36,1.86 l -5.6,0 c -0.08,0.64 -0.2,1.26 -0.36,1.87 l 6.13,0 c 0.02,0.31 0.03,0.62 0.03,0.93 m -30.24,-6.52 -7.77,0 c 0.23,-0.64 0.48,-1.25 0.77,-1.86 l 8.79,0 c -0.65,0.57 -1.25,1.19 -1.79,1.86 m -2.18,3.72 -6.5,0 c 0.09,-0.63 0.2,-1.25 0.35,-1.86 l 7.06,0 c -0.34,0.6 -0.65,1.22 -0.91,1.86 m -1.08,5.6 c 0,0.63 0.04,1.25 0.11,1.86 l -5.18,0 C 34.99,49.15 34.88,48.53 34.79,47.9 l 5.42,0 m 1.08,5.58 -4.82,0 c -0.29,-0.6 -0.54,-1.22 -0.77,-1.86 l 4.98,0 c 0.16,0.64 0.37,1.26 0.61,1.86 m -0.97,-7.45 -5.71,0 c -0.02,-0.31 -0.02,-0.62 -0.02,-0.93 0,-0.31 0,-0.62 0.02,-0.93 l 6.07,0 c -0.16,0.6 -0.28,1.23 -0.36,1.86"
       class="ps00 ps10"
       id="path9"
       style="fill:#0069aa;fill-rule:nonzero;stroke:none;stroke-miterlimit:4"
       inkscape:connector-curvature="0" /><g
       id="xfrm1"
       transform="scale(200,100)"><g
         id="frm2"
         transform="scale(0.01,0.01)" /></g></g></svg>