<?xml version="1.0" encoding="UTF-8" standalone="no"?>
<!DOCTYPE svg PUBLIC "-//W3C//DTD SVG 1.1//EN"
 "http://www.w3.org/Graphics/SVG/1.1/DTD/svg11.dtd">
<!-- Generated by graphviz version 2.40.1 (20161225.0304)
 -->
<!-- Title: %3 Pages: 1 -->
<svg width="631pt" height="500pt"
 viewBox="0.00 0.00 631.44 500.00" xmlns="http://www.w3.org/2000/svg" xmlns:xlink="http://www.w3.org/1999/xlink">
<g id="graph0" class="graph" transform="scale(1 1) rotate(0) translate(4 496)">
<title>%3</title>
<polygon fill="#ffffff" stroke="transparent" points="-4,4 -4,-496 627.4423,-496 627.4423,4 -4,4"/>
<!-- My Drive -->
<g id="node1" class="node">
<title>My Drive</title>
<polygon fill="none" stroke="#000000" points="457.3962,-492 454.3962,-496 433.3962,-496 430.3962,-492 386.3962,-492 386.3962,-456 457.3962,-456 457.3962,-492"/>
<text text-anchor="middle" x="421.8962" y="-470.3" font-family="Times,serif" font-size="14.00" fill="#000000">My Drive</text>
</g>
<!-- colab -->
<g id="node2" class="node">
<title>colab</title>
<polygon fill="none" stroke="#000000" points="448.8962,-420 445.8962,-424 424.8962,-424 421.8962,-420 394.8962,-420 394.8962,-384 448.8962,-384 448.8962,-420"/>
<text text-anchor="middle" x="421.8962" y="-398.3" font-family="Times,serif" font-size="14.00" fill="#000000">colab</text>
</g>
<!-- My Drive&#45;&#45;colab -->
<g id="edge1" class="edge">
<title>My Drive&#45;&#45;colab</title>
<path fill="none" stroke="#000000" d="M421.8962,-455.8314C421.8962,-445 421.8962,-431.2876 421.8962,-420.4133"/>
</g>
<!-- img -->
<g id="node3" class="node">
<title>img</title>
<polygon fill="none" stroke="#0000ff" points="277.8962,-344 274.8962,-348 253.8962,-348 250.8962,-344 223.8962,-344 223.8962,-308 277.8962,-308 277.8962,-344"/>
<text text-anchor="middle" x="250.8962" y="-322.3" font-family="Times,serif" font-size="14.00" fill="#000000">img</text>
</g>
<!-- colab&#45;&#45;img -->
<g id="edge2" class="edge">
<title>colab&#45;&#45;img</title>
<path fill="none" stroke="#000000" d="M394.8007,-389.9576C362.8756,-375.7686 310.1402,-352.3307 278.1475,-338.1117"/>
</g>
<!-- Automatic&#45;Image&#45;Colorization -->
<g id="node4" class="node">
<title>Automatic&#45;Image&#45;Colorization</title>
<polygon fill="none" stroke="#a020f0" points="514.3962,-344 511.3962,-348 490.3962,-348 487.3962,-344 329.3962,-344 329.3962,-308 514.3962,-308 514.3962,-344"/>
<polygon fill="none" stroke="#a020f0" points="518.3962,-348 515.3962,-352 494.3962,-352 491.3962,-348 325.3962,-348 325.3962,-304 518.3962,-304 518.3962,-348"/>
<text text-anchor="middle" x="421.8962" y="-322.3" font-family="Times,serif" font-size="14.00" fill="#000000">Automatic&#45;Image&#45;Colorization</text>
</g>
<!-- colab&#45;&#45;Automatic&#45;Image&#45;Colorization -->
<g id="edge3" class="edge">
<title>colab&#45;&#45;Automatic&#45;Image&#45;Colorization</title>
<path fill="none" stroke="#000000" d="M421.8962,-383.9891C421.8962,-373.2787 421.8962,-359.6066 421.8962,-348.2282"/>
</g>
<!-- aic.ipynb -->
<g id="node9" class="node">
<title>aic.ipynb</title>
<ellipse fill="none" stroke="#0000ff" cx="579.8962" cy="-326" rx="43.5923" ry="18"/>
<text text-anchor="middle" x="579.8962" y="-322.3" font-family="Times,serif" font-size="14.00" fill="#000000">aic.ipynb</text>
</g>
<!-- colab&#45;&#45;aic.ipynb -->
<g id="edge4" class="edge">
<title>colab&#45;&#45;aic.ipynb</title>
<path fill="none" stroke="#000000" d="M449.0574,-388.9351C477.6444,-375.1844 522.4456,-353.6345 551.4922,-339.6627"/>
</g>
<!-- img1.jpg -->
<g id="node10" class="node">
<title>img1.jpg</title>
<ellipse fill="none" stroke="#ff0000" cx="42.8962" cy="-246" rx="42.7926" ry="18"/>
<text text-anchor="middle" x="42.8962" y="-242.3" font-family="Times,serif" font-size="14.00" fill="#000000">img1.jpg</text>
</g>
<!-- img&#45;&#45;img1.jpg -->
<g id="edge5" class="edge">
<title>img&#45;&#45;img1.jpg</title>
<path fill="none" stroke="#000000" d="M223.7023,-316.3027C192.4642,-305.0678 139.742,-285.8132 94.8962,-268 87.7903,-265.1775 80.1872,-262.0326 73.0495,-259.0237"/>
</g>
<!-- img2.jpg -->
<g id="node11" class="node">
<title>img2.jpg</title>
<ellipse fill="none" stroke="#ff0000" cx="146.8962" cy="-246" rx="42.7926" ry="18"/>
<text text-anchor="middle" x="146.8962" y="-242.3" font-family="Times,serif" font-size="14.00" fill="#000000">img2.jpg</text>
</g>
<!-- img&#45;&#45;img2.jpg -->
<g id="edge6" class="edge">
<title>img&#45;&#45;img2.jpg</title>
<path fill="none" stroke="#000000" d="M227.297,-307.8468C209.3179,-294.0167 184.8046,-275.1603 167.587,-261.916"/>
</g>
<!-- img3.jpg -->
<g id="node12" class="node">
<title>img3.jpg</title>
<ellipse fill="none" stroke="#ff0000" cx="250.8962" cy="-246" rx="42.7926" ry="18"/>
<text text-anchor="middle" x="250.8962" y="-242.3" font-family="Times,serif" font-size="14.00" fill="#000000">img3.jpg</text>
</g>
<!-- img&#45;&#45;img3.jpg -->
<g id="edge7" class="edge">
<title>img&#45;&#45;img3.jpg</title>
<path fill="none" stroke="#000000" d="M250.8962,-307.8468C250.8962,-294.7543 250.8962,-277.1574 250.8962,-264.0814"/>
</g>
<!-- ... -->
<g id="node13" class="node">
<title>...</title>
<ellipse fill="none" stroke="#ff0000" cx="338.8962" cy="-246" rx="27" ry="18"/>
<text text-anchor="middle" x="338.8962" y="-242.3" font-family="Times,serif" font-size="14.00" fill="#000000">...</text>
</g>
<!-- img&#45;&#45;... -->
<g id="edge8" class="edge">
<title>img&#45;&#45;...</title>
<path fill="none" stroke="#000000" d="M270.8648,-307.8468C286.585,-293.5557 308.2088,-273.8976 322.8244,-260.6107"/>
</g>
<!-- summary -->
<g id="node5" class="node">
<title>summary</title>
<polygon fill="none" stroke="#ff0000" points="455.8962,-264 452.8962,-268 431.8962,-268 428.8962,-264 387.8962,-264 387.8962,-228 455.8962,-228 455.8962,-264"/>
<polygon fill="none" stroke="#ff0000" points="459.8962,-268 456.8962,-272 435.8962,-272 432.8962,-268 383.8962,-268 383.8962,-224 459.8962,-224 459.8962,-268"/>
<text text-anchor="middle" x="421.8962" y="-242.3" font-family="Times,serif" font-size="14.00" fill="#000000">summary</text>
</g>
<!-- Automatic&#45;Image&#45;Colorization&#45;&#45;summary -->
<g id="edge9" class="edge">
<title>Automatic&#45;Image&#45;Colorization&#45;&#45;summary</title>
<path fill="none" stroke="#000000" d="M421.8962,-303.7155C421.8962,-292.6196 421.8962,-279.2445 421.8962,-268.165"/>
</g>
<!-- vgg -->
<g id="node8" class="node">
<title>vgg</title>
<polygon fill="none" stroke="#000000" points="538.8962,-264 535.8962,-268 514.8962,-268 511.8962,-264 484.8962,-264 484.8962,-228 538.8962,-228 538.8962,-264"/>
<text text-anchor="middle" x="511.8962" y="-242.3" font-family="Times,serif" font-size="14.00" fill="#000000">vgg</text>
</g>
<!-- Automatic&#45;Image&#45;Colorization&#45;&#45;vgg -->
<g id="edge10" class="edge">
<title>Automatic&#45;Image&#45;Colorization&#45;&#45;vgg</title>
<path fill="none" stroke="#000000" d="M446.9662,-303.7155C461.0095,-291.2326 478.298,-275.8651 491.5037,-264.1267"/>
</g>
<!-- test -->
<g id="node6" class="node">
<title>test</title>
<polygon fill="none" stroke="#0000ff" points="444.8962,-184 441.8962,-188 420.8962,-188 417.8962,-184 390.8962,-184 390.8962,-148 444.8962,-148 444.8962,-184"/>
<text text-anchor="middle" x="417.8962" y="-162.3" font-family="Times,serif" font-size="14.00" fill="#000000">test</text>
</g>
<!-- summary&#45;&#45;test -->
<g id="edge12" class="edge">
<title>summary&#45;&#45;test</title>
<path fill="none" stroke="#000000" d="M420.782,-223.7155C420.1578,-211.2326 419.3894,-195.8651 418.8025,-184.1267"/>
</g>
<!-- images -->
<g id="node7" class="node">
<title>images</title>
<polygon fill="none" stroke="#0000ff" points="445.8962,-108 442.8962,-112 421.8962,-112 418.8962,-108 389.8962,-108 389.8962,-72 445.8962,-72 445.8962,-108"/>
<text text-anchor="middle" x="417.8962" y="-86.3" font-family="Times,serif" font-size="14.00" fill="#000000">images</text>
</g>
<!-- test&#45;&#45;images -->
<g id="edge13" class="edge">
<title>test&#45;&#45;images</title>
<path fill="none" stroke="#000000" d="M417.8962,-147.9891C417.8962,-135.9618 417.8962,-120.1999 417.8962,-108.145"/>
</g>
<!-- 1_0.png -->
<g id="node15" class="node">
<title>1_0.png</title>
<ellipse fill="none" stroke="#00aa00" cx="272.8962" cy="-18" rx="39.7935" ry="18"/>
<text text-anchor="middle" x="272.8962" y="-14.3" font-family="Times,serif" font-size="14.00" fill="#000000">1_0.png</text>
</g>
<!-- images&#45;&#45;1_0.png -->
<g id="edge14" class="edge">
<title>images&#45;&#45;1_0.png</title>
<path fill="none" stroke="#000000" stroke-dasharray="5,2" d="M389.5945,-75.9468C363.5507,-63.0146 325.2019,-43.9725 299.6578,-31.2885"/>
</g>
<!-- 1_1.png -->
<g id="node16" class="node">
<title>1_1.png</title>
<ellipse fill="none" stroke="#00aa00" cx="369.8962" cy="-18" rx="39.7935" ry="18"/>
<text text-anchor="middle" x="369.8962" y="-14.3" font-family="Times,serif" font-size="14.00" fill="#000000">1_1.png</text>
</g>
<!-- images&#45;&#45;1_1.png -->
<g id="edge15" class="edge">
<title>images&#45;&#45;1_1.png</title>
<path fill="none" stroke="#000000" stroke-dasharray="5,2" d="M405.7838,-71.8314C398.3407,-60.6667 388.8569,-46.441 381.508,-35.4177"/>
</g>
<!-- 1_2.png -->
<g id="node17" class="node">
<title>1_2.png</title>
<ellipse fill="none" stroke="#00aa00" cx="466.8962" cy="-18" rx="39.7935" ry="18"/>
<text text-anchor="middle" x="466.8962" y="-14.3" font-family="Times,serif" font-size="14.00" fill="#000000">1_2.png</text>
</g>
<!-- images&#45;&#45;1_2.png -->
<g id="edge16" class="edge">
<title>images&#45;&#45;1_2.png</title>
<path fill="none" stroke="#000000" stroke-dasharray="5,2" d="M430.261,-71.8314C437.8591,-60.6667 447.5405,-46.441 455.0425,-35.4177"/>
</g>
<!-- ...  -->
<g id="node18" class="node">
<title>... </title>
<ellipse fill="none" stroke="#00aa00" cx="551.8962" cy="-18" rx="27" ry="18"/>
<text text-anchor="middle" x="551.8962" y="-14.3" font-family="Times,serif" font-size="14.00" fill="#000000">... </text>
</g>
<!-- images&#45;&#45;...  -->
<g id="edge17" class="edge">
<title>images&#45;&#45;... </title>
<path fill="none" stroke="#000000" stroke-dasharray="5,2" d="M445.987,-74.9064C471.3126,-61.2986 507.9888,-41.592 530.8632,-29.3013"/>
</g>
<!-- vgg16.npy -->
<g id="node14" class="node">
<title>vgg16.npy</title>
<ellipse fill="none" stroke="#ff0000" cx="514.8962" cy="-166" rx="48.1843" ry="18"/>
<ellipse fill="none" stroke="#ff0000" cx="514.8962" cy="-166" rx="52.1916" ry="22"/>
<text text-anchor="middle" x="514.8962" y="-162.3" font-family="Times,serif" font-size="14.00" fill="#000000">vgg16.npy</text>
</g>
<!-- vgg&#45;&#45;vgg16.npy -->
<g id="edge11" class="edge">
<title>vgg&#45;&#45;vgg16.npy</title>
<path fill="none" stroke="#000000" d="M512.5769,-227.8468C513.0195,-216.0451 513.5993,-200.5834 514.0685,-188.0721"/>
</g>
</g>
</svg>
