<?xml version="1.0" encoding="UTF-8" standalone="no"?>
<!DOCTYPE svg PUBLIC "-//W3C//DTD SVG 1.1//EN"
 "http://www.w3.org/Graphics/SVG/1.1/DTD/svg11.dtd">
<!-- Generated by graphviz version 2.43.0 (0)
 -->
<!-- Title: %3 Pages: 1 -->
<svg width="1262pt" height="260pt"
 viewBox="0.00 0.00 1262.19 260.00" xmlns="http://www.w3.org/2000/svg" xmlns:xlink="http://www.w3.org/1999/xlink">
<g id="graph0" class="graph" transform="scale(1 1) rotate(0) translate(4 256)">
<title>%3</title>
<polygon fill="white" stroke="transparent" points="-4,4 -4,-256 1258.19,-256 1258.19,4 -4,4"/>
<!-- My Drive -->
<g id="node1" class="node">
<title>My Drive</title>
<polygon fill="none" stroke="black" points="743.5,-252 740.5,-256 719.5,-256 716.5,-252 660.5,-252 660.5,-216 743.5,-216 743.5,-252"/>
<text text-anchor="middle" x="702" y="-230.3" font-family="Times,serif" font-size="14.00">My Drive</text>
</g>
<!-- colab -->
<g id="node2" class="node">
<title>colab</title>
<polygon fill="none" stroke="black" points="537,-180 534,-184 513,-184 510,-180 483,-180 483,-144 537,-144 537,-180"/>
<text text-anchor="middle" x="510" y="-158.3" font-family="Times,serif" font-size="14.00">colab</text>
</g>
<!-- My Drive&#45;&#45;colab -->
<g id="edge1" class="edge">
<title>My Drive&#45;&#45;colab</title>
<path fill="none" stroke="black" d="M660.34,-217.81C622.95,-204.18 569.17,-184.57 537.09,-172.88"/>
</g>
<!-- dog_behaviors -->
<g id="node3" class="node">
<title>dog_behaviors</title>
<polygon fill="none" stroke="black" points="978.5,-180 975.5,-184 954.5,-184 951.5,-180 859.5,-180 859.5,-144 978.5,-144 978.5,-180"/>
<text text-anchor="middle" x="919" y="-158.3" font-family="Times,serif" font-size="14.00">dog_behaviors</text>
</g>
<!-- My Drive&#45;&#45;dog_behaviors -->
<g id="edge2" class="edge">
<title>My Drive&#45;&#45;dog_behaviors</title>
<path fill="none" stroke="black" d="M743.58,-219.59C778.41,-208.35 828.33,-192.25 866.02,-180.09"/>
</g>
<!-- quiz -->
<g id="node4" class="node">
<title>quiz</title>
<polygon fill="none" stroke="black" points="224,-108 221,-112 200,-112 197,-108 170,-108 170,-72 224,-72 224,-108"/>
<text text-anchor="middle" x="197" y="-86.3" font-family="Times,serif" font-size="14.00">quiz</text>
</g>
<!-- colab&#45;&#45;quiz -->
<g id="edge3" class="edge">
<title>colab&#45;&#45;quiz</title>
<path fill="none" stroke="black" d="M482.64,-157.13C433.75,-149.87 328.42,-132.68 242,-108 236.22,-106.35 230.13,-104.28 224.36,-102.16"/>
</g>
<!-- km&#45;transfer.ipynb -->
<g id="node12" class="node">
<title>km&#45;transfer.ipynb</title>
<ellipse fill="none" stroke="black" cx="344" cy="-90" rx="92.88" ry="18"/>
<text text-anchor="middle" x="344" y="-86.3" font-family="Times,serif" font-size="14.00">km&#45;transfer.ipynb</text>
</g>
<!-- colab&#45;&#45;km&#45;transfer.ipynb -->
<g id="edge4" class="edge">
<title>colab&#45;&#45;km&#45;transfer.ipynb</title>
<path fill="none" stroke="black" d="M482.96,-149.6C455.21,-137.9 411.85,-119.61 380.95,-106.58"/>
</g>
<!-- LICENSE -->
<g id="node13" class="node">
<title>LICENSE</title>
<ellipse fill="none" stroke="black" cx="510" cy="-90" rx="54.69" ry="18"/>
<text text-anchor="middle" x="510" y="-86.3" font-family="Times,serif" font-size="14.00">LICENSE</text>
</g>
<!-- colab&#45;&#45;LICENSE -->
<g id="edge5" class="edge">
<title>colab&#45;&#45;LICENSE</title>
<path fill="none" stroke="black" d="M510,-143.7C510,-132.85 510,-118.92 510,-108.1"/>
</g>
<!-- README.md -->
<g id="node14" class="node">
<title>README.md</title>
<ellipse fill="none" stroke="black" cx="654" cy="-90" rx="71.49" ry="18"/>
<text text-anchor="middle" x="654" y="-86.3" font-family="Times,serif" font-size="14.00">README.md</text>
</g>
<!-- colab&#45;&#45;README.md -->
<g id="edge6" class="edge">
<title>colab&#45;&#45;README.md</title>
<path fill="none" stroke="black" d="M537.09,-147.83C561.36,-136.03 596.99,-118.71 622.52,-106.3"/>
</g>
<!-- 0_other -->
<g id="node5" class="node">
<title>0_other</title>
<polygon fill="none" stroke="black" points="819.5,-108 816.5,-112 795.5,-112 792.5,-108 748.5,-108 748.5,-72 819.5,-72 819.5,-108"/>
<text text-anchor="middle" x="784" y="-86.3" font-family="Times,serif" font-size="14.00">0_other</text>
</g>
<!-- dog_behaviors&#45;&#45;0_other -->
<g id="edge10" class="edge">
<title>dog_behaviors&#45;&#45;0_other</title>
<path fill="none" stroke="black" d="M885.98,-143.88C865.06,-133.03 838.1,-119.05 817.15,-108.19"/>
</g>
<!-- 1_jump -->
<g id="node6" class="node">
<title>1_jump</title>
<polygon fill="none" stroke="black" points="953,-108 950,-112 929,-112 926,-108 885,-108 885,-72 953,-72 953,-108"/>
<text text-anchor="middle" x="919" y="-86.3" font-family="Times,serif" font-size="14.00">1_jump</text>
</g>
<!-- dog_behaviors&#45;&#45;1_jump -->
<g id="edge11" class="edge">
<title>dog_behaviors&#45;&#45;1_jump</title>
<path fill="none" stroke="black" d="M919,-143.7C919,-132.85 919,-118.92 919,-108.1"/>
</g>
<!-- 2_sleep -->
<g id="node7" class="node">
<title>2_sleep</title>
<polygon fill="none" stroke="black" points="1041,-108 1038,-112 1017,-112 1014,-108 971,-108 971,-72 1041,-72 1041,-108"/>
<text text-anchor="middle" x="1006" y="-86.3" font-family="Times,serif" font-size="14.00">2_sleep</text>
</g>
<!-- dog_behaviors&#45;&#45;2_sleep -->
<g id="edge12" class="edge">
<title>dog_behaviors&#45;&#45;2_sleep</title>
<path fill="none" stroke="black" d="M940.51,-143.7C953.99,-132.85 971.3,-118.92 984.74,-108.1"/>
</g>
<!-- ...f1 -->
<g id="node8" class="node">
<title>...f1</title>
<text text-anchor="middle" x="1086" y="-86.3" font-family="Times,serif" font-size="14.00">...</text>
</g>
<!-- dog_behaviors&#45;&#45;...f1 -->
<g id="edge13" class="edge">
<title>dog_behaviors&#45;&#45;...f1</title>
<path fill="none" stroke="black" d="M962.93,-143.95C988.48,-133.85 1021.23,-120.6 1050,-108 1052.91,-106.72 1055.94,-105.36 1058.95,-103.98"/>
</g>
<!-- ...1 -->
<g id="node9" class="node">
<title>...1</title>
<text text-anchor="middle" x="27" y="-14.3" font-family="Times,serif" font-size="14.00">...</text>
</g>
<!-- quiz&#45;&#45;...1 -->
<g id="edge7" class="edge">
<title>quiz&#45;&#45;...1</title>
<path fill="none" stroke="black" d="M169.84,-78.85C142.62,-68.54 99.61,-51.87 63,-36 60.08,-34.74 57.05,-33.38 54.04,-32"/>
</g>
<!-- 0&#45;german_shepherd.jpg -->
<g id="node15" class="node">
<title>0&#45;german_shepherd.jpg</title>
<ellipse fill="none" stroke="black" cx="192" cy="-18" rx="120.48" ry="18"/>
<text text-anchor="middle" x="192" y="-14.3" font-family="Times,serif" font-size="14.00">0&#45;german_shepherd.jpg</text>
</g>
<!-- quiz&#45;&#45;0&#45;german_shepherd.jpg -->
<g id="edge8" class="edge">
<title>quiz&#45;&#45;0&#45;german_shepherd.jpg</title>
<path fill="none" stroke="black" d="M195.76,-71.7C194.99,-60.85 193.99,-46.92 193.22,-36.1"/>
</g>
<!-- 0&#45;labrador1.jpg -->
<g id="node16" class="node">
<title>0&#45;labrador1.jpg</title>
<ellipse fill="none" stroke="black" cx="413" cy="-18" rx="82.59" ry="18"/>
<text text-anchor="middle" x="413" y="-14.3" font-family="Times,serif" font-size="14.00">0&#45;labrador1.jpg</text>
</g>
<!-- quiz&#45;&#45;0&#45;labrador1.jpg -->
<g id="edge9" class="edge">
<title>quiz&#45;&#45;0&#45;labrador1.jpg</title>
<path fill="none" stroke="black" d="M224.03,-78.48C229.93,-76.28 236.16,-74.01 242,-72 283.45,-57.76 331.11,-43.13 365.57,-32.86"/>
</g>
<!-- ...2 -->
<g id="node10" class="node">
<title>...2</title>
<text text-anchor="middle" x="541" y="-14.3" font-family="Times,serif" font-size="14.00">...</text>
</g>
<!-- 0_other&#45;&#45;...2 -->
<g id="edge14" class="edge">
<title>0_other&#45;&#45;...2</title>
<path fill="none" stroke="black" d="M748.36,-76.39C743.56,-74.83 738.67,-73.33 734,-72 665.13,-52.45 644.65,-59.42 577,-36 574.13,-35.01 571.18,-33.85 568.26,-32.62"/>
</g>
<!-- 01.dog*.jpg -->
<g id="node17" class="node">
<title>01.dog*.jpg</title>
<ellipse fill="none" stroke="black" cx="650" cy="-18" rx="64.19" ry="18"/>
<text text-anchor="middle" x="650" y="-14.3" font-family="Times,serif" font-size="14.00">01.dog*.jpg</text>
</g>
<!-- 0_other&#45;&#45;01.dog*.jpg -->
<g id="edge15" class="edge">
<title>0_other&#45;&#45;01.dog*.jpg</title>
<path fill="none" stroke="black" d="M751.22,-71.88C729.22,-60.38 700.48,-45.37 679.25,-34.28"/>
</g>
<!-- 02.corgi*.jpg -->
<g id="node18" class="node">
<title>02.corgi*.jpg</title>
<ellipse fill="none" stroke="black" cx="803" cy="-18" rx="70.69" ry="18"/>
<text text-anchor="middle" x="803" y="-14.3" font-family="Times,serif" font-size="14.00">02.corgi*.jpg</text>
</g>
<!-- 0_other&#45;&#45;02.corgi*.jpg -->
<g id="edge16" class="edge">
<title>0_other&#45;&#45;02.corgi*.jpg</title>
<path fill="none" stroke="black" d="M788.7,-71.7C791.64,-60.85 795.42,-46.92 798.36,-36.1"/>
</g>
<!-- ...3 -->
<g id="node11" class="node">
<title>...3</title>
<text text-anchor="middle" x="919" y="-14.3" font-family="Times,serif" font-size="14.00">...</text>
</g>
<!-- 1_jump&#45;&#45;...3 -->
<g id="edge17" class="edge">
<title>1_jump&#45;&#45;...3</title>
<path fill="none" stroke="black" d="M919,-71.7C919,-60.85 919,-46.92 919,-36.1"/>
</g>
<!-- 01.Dog*.jpg -->
<g id="node19" class="node">
<title>01.Dog*.jpg</title>
<ellipse fill="none" stroke="black" cx="1030" cy="-18" rx="65.79" ry="18"/>
<text text-anchor="middle" x="1030" y="-14.3" font-family="Times,serif" font-size="14.00">01.Dog*.jpg</text>
</g>
<!-- 1_jump&#45;&#45;01.Dog*.jpg -->
<g id="edge18" class="edge">
<title>1_jump&#45;&#45;01.Dog*.jpg</title>
<path fill="none" stroke="black" d="M946.15,-71.88C964.12,-60.54 987.52,-45.79 1005.02,-34.75"/>
</g>
<!-- 02.anim*.jpg -->
<g id="node20" class="node">
<title>02.anim*.jpg</title>
<ellipse fill="none" stroke="black" cx="1184" cy="-18" rx="70.39" ry="18"/>
<text text-anchor="middle" x="1184" y="-14.3" font-family="Times,serif" font-size="14.00">02.anim*.jpg</text>
</g>
<!-- 1_jump&#45;&#45;02.anim*.jpg -->
<g id="edge19" class="edge">
<title>1_jump&#45;&#45;02.anim*.jpg</title>
<path fill="none" stroke="black" d="M953.11,-75.01C956.1,-73.94 959.09,-72.92 962,-72 993.37,-62.11 1077.4,-42.76 1132.61,-30.38"/>
</g>
</g>
</svg>
