<?xml version="1.0" encoding="UTF-8" standalone="no"?>
<!DOCTYPE svg PUBLIC "-//W3C//DTD SVG 1.1//EN"
 "http://www.w3.org/Graphics/SVG/1.1/DTD/svg11.dtd">
<!-- Generated by graphviz version 2.43.0 (0)
 -->
<!-- Title: %3 Pages: 1 -->
<svg width="1308pt" height="428pt"
 viewBox="0.00 0.00 1308.49 428.00" xmlns="http://www.w3.org/2000/svg" xmlns:xlink="http://www.w3.org/1999/xlink">
<g id="graph0" class="graph" transform="scale(1 1) rotate(0) translate(4 424)">
<title>%3</title>
<polygon fill="white" stroke="transparent" points="-4,4 -4,-424 1304.49,-424 1304.49,4 -4,4"/>
<!-- My Drive -->
<g id="node1" class="node">
<title>My Drive</title>
<polygon fill="none" stroke="black" points="960.5,-420 957.5,-424 936.5,-424 933.5,-420 877.5,-420 877.5,-384 960.5,-384 960.5,-420"/>
<text text-anchor="middle" x="919" y="-398.3" font-family="Times,serif" font-size="14.00">My Drive</text>
</g>
<!-- colab -->
<g id="node2" class="node">
<title>colab</title>
<polygon fill="none" stroke="blue" points="946,-348 943,-352 922,-352 919,-348 892,-348 892,-312 946,-312 946,-348"/>
<text text-anchor="middle" x="919" y="-326.3" font-family="Times,serif" font-size="14.00">colab</text>
</g>
<!-- My Drive&#45;&#45;colab -->
<g id="edge1" class="edge">
<title>My Drive&#45;&#45;colab</title>
<path fill="none" stroke="black" d="M919,-383.7C919,-372.85 919,-358.92 919,-348.1"/>
</g>
<!-- keras&#45;mobilenet -->
<g id="node3" class="node">
<title>keras&#45;mobilenet</title>
<polygon fill="none" stroke="red" points="984.5,-276 981.5,-280 960.5,-280 957.5,-276 853.5,-276 853.5,-240 984.5,-240 984.5,-276"/>
<text text-anchor="middle" x="919" y="-254.3" font-family="Times,serif" font-size="14.00">keras&#45;mobilenet</text>
</g>
<!-- colab&#45;&#45;keras&#45;mobilenet -->
<g id="edge2" class="edge">
<title>colab&#45;&#45;keras&#45;mobilenet</title>
<path fill="none" stroke="black" d="M919,-311.7C919,-300.85 919,-286.92 919,-276.1"/>
</g>
<!-- dog_behaviors -->
<g id="node4" class="node">
<title>dog_behaviors</title>
<polygon fill="none" stroke="red" points="606.5,-204 603.5,-208 582.5,-208 579.5,-204 487.5,-204 487.5,-168 606.5,-168 606.5,-204"/>
<text text-anchor="middle" x="547" y="-182.3" font-family="Times,serif" font-size="14.00">dog_behaviors</text>
</g>
<!-- keras&#45;mobilenet&#45;&#45;dog_behaviors -->
<g id="edge3" class="edge">
<title>keras&#45;mobilenet&#45;&#45;dog_behaviors</title>
<path fill="none" stroke="black" d="M853.35,-244.65C783.58,-231.52 674.22,-210.94 606.77,-198.25"/>
</g>
<!-- quiz -->
<g id="node5" class="node">
<title>quiz</title>
<polygon fill="none" stroke="black" points="808,-204 805,-208 784,-208 781,-204 754,-204 754,-168 808,-168 808,-204"/>
<text text-anchor="middle" x="781" y="-182.3" font-family="Times,serif" font-size="14.00">quiz</text>
</g>
<!-- keras&#45;mobilenet&#45;&#45;quiz -->
<g id="edge4" class="edge">
<title>keras&#45;mobilenet&#45;&#45;quiz</title>
<path fill="none" stroke="black" d="M885.24,-239.88C861.62,-227.9 830.47,-212.09 808.39,-200.9"/>
</g>
<!-- km&#45;transfer.ipynb -->
<g id="node13" class="node">
<title>km&#45;transfer.ipynb</title>
<ellipse fill="none" stroke="black" cx="919" cy="-186" rx="92.88" ry="18"/>
<text text-anchor="middle" x="919" y="-182.3" font-family="Times,serif" font-size="14.00">km&#45;transfer.ipynb</text>
</g>
<!-- keras&#45;mobilenet&#45;&#45;km&#45;transfer.ipynb -->
<g id="edge5" class="edge">
<title>keras&#45;mobilenet&#45;&#45;km&#45;transfer.ipynb</title>
<path fill="none" stroke="black" d="M919,-239.7C919,-228.85 919,-214.92 919,-204.1"/>
</g>
<!-- LICENSE -->
<g id="node14" class="node">
<title>LICENSE</title>
<ellipse fill="none" stroke="black" cx="1085" cy="-186" rx="54.69" ry="18"/>
<text text-anchor="middle" x="1085" y="-182.3" font-family="Times,serif" font-size="14.00">LICENSE</text>
</g>
<!-- keras&#45;mobilenet&#45;&#45;LICENSE -->
<g id="edge6" class="edge">
<title>keras&#45;mobilenet&#45;&#45;LICENSE</title>
<path fill="none" stroke="black" d="M959.61,-239.88C988.31,-227.77 1026.25,-211.77 1052.85,-200.56"/>
</g>
<!-- README.md -->
<g id="node15" class="node">
<title>README.md</title>
<ellipse fill="none" stroke="black" cx="1229" cy="-186" rx="71.49" ry="18"/>
<text text-anchor="middle" x="1229" y="-182.3" font-family="Times,serif" font-size="14.00">README.md</text>
</g>
<!-- keras&#45;mobilenet&#45;&#45;README.md -->
<g id="edge7" class="edge">
<title>keras&#45;mobilenet&#45;&#45;README.md</title>
<path fill="none" stroke="black" d="M984.74,-242.15C1042.33,-229.15 1124.84,-210.52 1177.68,-198.59"/>
</g>
<!-- 0_other -->
<g id="node6" class="node">
<title>0_other</title>
<polygon fill="none" stroke="black" points="248.5,-126 245.5,-130 224.5,-130 221.5,-126 177.5,-126 177.5,-90 248.5,-90 248.5,-126"/>
<text text-anchor="middle" x="213" y="-104.3" font-family="Times,serif" font-size="14.00">0_other</text>
</g>
<!-- dog_behaviors&#45;&#45;0_other -->
<g id="edge11" class="edge">
<title>dog_behaviors&#45;&#45;0_other</title>
<path fill="none" stroke="black" d="M487.29,-171.41C417.86,-155.62 305.54,-130.06 248.57,-117.09"/>
</g>
<!-- 1_jump -->
<g id="node7" class="node">
<title>1_jump</title>
<polygon fill="none" stroke="black" points="494,-126 491,-130 470,-130 467,-126 426,-126 426,-90 494,-90 494,-126"/>
<text text-anchor="middle" x="460" y="-104.3" font-family="Times,serif" font-size="14.00">1_jump</text>
</g>
<!-- dog_behaviors&#45;&#45;1_jump -->
<g id="edge12" class="edge">
<title>dog_behaviors&#45;&#45;1_jump</title>
<path fill="none" stroke="black" d="M527.26,-167.75C513.02,-155.32 493.88,-138.6 479.66,-126.18"/>
</g>
<!-- 2_sleep -->
<g id="node8" class="node">
<title>2_sleep</title>
<polygon fill="none" stroke="black" points="582,-126 579,-130 558,-130 555,-126 512,-126 512,-90 582,-90 582,-126"/>
<text text-anchor="middle" x="547" y="-104.3" font-family="Times,serif" font-size="14.00">2_sleep</text>
</g>
<!-- dog_behaviors&#45;&#45;2_sleep -->
<g id="edge13" class="edge">
<title>dog_behaviors&#45;&#45;2_sleep</title>
<path fill="none" stroke="black" d="M547,-167.75C547,-155.32 547,-138.6 547,-126.18"/>
</g>
<!-- ...f1 -->
<g id="node9" class="node">
<title>...f1</title>
<text text-anchor="middle" x="627" y="-99.2" font-family="Times,serif" font-size="36.00">...</text>
</g>
<!-- dog_behaviors&#45;&#45;...f1 -->
<g id="edge14" class="edge">
<title>dog_behaviors&#45;&#45;...f1</title>
<path fill="none" stroke="black" d="M565.15,-167.75C576.22,-157.24 590.5,-143.68 602.55,-132.23"/>
</g>
<!-- ...1 -->
<g id="node10" class="node">
<title>...1</title>
<text text-anchor="middle" x="699" y="-99.2" font-family="Times,serif" font-size="36.00">...</text>
</g>
<!-- quiz&#45;&#45;...1 -->
<g id="edge8" class="edge">
<title>quiz&#45;&#45;...1</title>
<path fill="none" stroke="black" d="M762.39,-167.75C751.05,-157.24 736.41,-143.68 724.06,-132.23"/>
</g>
<!-- 0&#45;german_shepherd.jpg -->
<g id="node16" class="node">
<title>0&#45;german_shepherd.jpg</title>
<ellipse fill="none" stroke="black" cx="864" cy="-108" rx="120.48" ry="18"/>
<text text-anchor="middle" x="864" y="-104.3" font-family="Times,serif" font-size="14.00">0&#45;german_shepherd.jpg</text>
</g>
<!-- quiz&#45;&#45;0&#45;german_shepherd.jpg -->
<g id="edge9" class="edge">
<title>quiz&#45;&#45;0&#45;german_shepherd.jpg</title>
<path fill="none" stroke="black" d="M799.83,-167.75C813.51,-155.23 831.93,-138.36 845.53,-125.92"/>
</g>
<!-- 0&#45;labrador1.jpg -->
<g id="node17" class="node">
<title>0&#45;labrador1.jpg</title>
<ellipse fill="none" stroke="black" cx="1085" cy="-108" rx="82.59" ry="18"/>
<text text-anchor="middle" x="1085" y="-104.3" font-family="Times,serif" font-size="14.00">0&#45;labrador1.jpg</text>
</g>
<!-- quiz&#45;&#45;0&#45;labrador1.jpg -->
<g id="edge10" class="edge">
<title>quiz&#45;&#45;0&#45;labrador1.jpg</title>
<path fill="none" stroke="black" d="M808.24,-171.31C811.16,-170.09 814.11,-168.96 817,-168 892.75,-142.77 915.14,-149.69 993,-132 1006.33,-128.97 1020.68,-125.49 1034,-122.17"/>
</g>
<!-- ...2 -->
<g id="node11" class="node">
<title>...2</title>
<text text-anchor="middle" x="27" y="-15.2" font-family="Times,serif" font-size="36.00">...</text>
</g>
<!-- 0_other&#45;&#45;...2 -->
<g id="edge15" class="edge">
<title>0_other&#45;&#45;...2</title>
<path fill="none" stroke="black" d="M177.3,-95.16C146.37,-84.39 100.77,-67.26 63,-48 60.09,-46.52 57.12,-44.86 54.19,-43.14"/>
</g>
<!-- 01.dog*.jpg -->
<g id="node18" class="node">
<title>01.dog*.jpg</title>
<ellipse fill="none" stroke="black" cx="136" cy="-24" rx="64.19" ry="18"/>
<text text-anchor="middle" x="136" y="-20.3" font-family="Times,serif" font-size="14.00">01.dog*.jpg</text>
</g>
<!-- 0_other&#45;&#45;01.dog*.jpg -->
<g id="edge16" class="edge">
<title>0_other&#45;&#45;01.dog*.jpg</title>
<path fill="none" stroke="black" d="M196.67,-89.61C183.34,-75.41 164.63,-55.48 151.52,-41.53"/>
</g>
<!-- 02.corgi*.jpg -->
<g id="node19" class="node">
<title>02.corgi*.jpg</title>
<ellipse fill="none" stroke="black" cx="289" cy="-24" rx="70.69" ry="18"/>
<text text-anchor="middle" x="289" y="-20.3" font-family="Times,serif" font-size="14.00">02.corgi*.jpg</text>
</g>
<!-- 0_other&#45;&#45;02.corgi*.jpg -->
<g id="edge17" class="edge">
<title>0_other&#45;&#45;02.corgi*.jpg</title>
<path fill="none" stroke="black" d="M229.12,-89.61C242.19,-75.51 260.5,-55.75 273.43,-41.8"/>
</g>
<!-- ...3 -->
<g id="node12" class="node">
<title>...3</title>
<text text-anchor="middle" x="405" y="-15.2" font-family="Times,serif" font-size="36.00">...</text>
</g>
<!-- 1_jump&#45;&#45;...3 -->
<g id="edge18" class="edge">
<title>1_jump&#45;&#45;...3</title>
<path fill="none" stroke="black" d="M448.34,-89.61C440.26,-77.57 429.43,-61.42 420.61,-48.28"/>
</g>
<!-- 01.Dog*.jpg -->
<g id="node20" class="node">
<title>01.Dog*.jpg</title>
<ellipse fill="none" stroke="black" cx="516" cy="-24" rx="65.79" ry="18"/>
<text text-anchor="middle" x="516" y="-20.3" font-family="Times,serif" font-size="14.00">01.Dog*.jpg</text>
</g>
<!-- 1_jump&#45;&#45;01.Dog*.jpg -->
<g id="edge19" class="edge">
<title>1_jump&#45;&#45;01.Dog*.jpg</title>
<path fill="none" stroke="black" d="M471.88,-89.61C481.51,-75.51 495,-55.75 504.52,-41.8"/>
</g>
<!-- 02.anim*.jpg -->
<g id="node21" class="node">
<title>02.anim*.jpg</title>
<ellipse fill="none" stroke="black" cx="670" cy="-24" rx="70.39" ry="18"/>
<text text-anchor="middle" x="670" y="-20.3" font-family="Times,serif" font-size="14.00">02.anim*.jpg</text>
</g>
<!-- 1_jump&#45;&#45;02.anim*.jpg -->
<g id="edge20" class="edge">
<title>1_jump&#45;&#45;02.anim*.jpg</title>
<path fill="none" stroke="black" d="M490.72,-89.85C494.81,-87.78 498.97,-85.78 503,-84 544.08,-65.88 592.62,-49.24 626.75,-38.28"/>
</g>
</g>
</svg>
