<?xml version="1.0" encoding="UTF-8" standalone="no"?>
<!DOCTYPE svg PUBLIC "-//W3C//DTD SVG 1.1//EN"
 "http://www.w3.org/Graphics/SVG/1.1/DTD/svg11.dtd">
<!-- Generated by graphviz version 2.43.0 (0)
 -->
<!-- Title: %3 Pages: 1 -->
<svg width="1789pt" height="1342pt"
 viewBox="0.00 0.00 1789.00 1342.00" xmlns="http://www.w3.org/2000/svg" xmlns:xlink="http://www.w3.org/1999/xlink">
<g id="graph0" class="graph" transform="scale(1 1) rotate(0) translate(4 1338)">
<title>%3</title>
<polygon fill="white" stroke="transparent" points="-4,4 -4,-1338 1785,-1338 1785,4 -4,4"/>
<!-- actor -->
<g id="node1" class="node">
<title>actor</title>
<polygon fill="#ececfc" stroke="transparent" points="738.5,-1174 738.5,-1330 863.5,-1330 863.5,-1174 738.5,-1174"/>
<polygon fill="none" stroke="black" points="739,-1302 739,-1330 864,-1330 864,-1302 739,-1302"/>
<text text-anchor="start" x="777.5" y="-1313.2" font-family="Helvetica,sans-Serif" font-weight="bold" font-size="16.00">actor</text>
<polygon fill="none" stroke="black" points="739,-1270 739,-1302 864,-1302 864,-1270 739,-1270"/>
<text text-anchor="start" x="744" y="-1282" font-family="Helvetica,sans-Serif" text-decoration="underline" font-size="20.00">actor_id</text>
<polygon fill="none" stroke="black" points="739,-1238 739,-1270 864,-1270 864,-1238 739,-1238"/>
<text text-anchor="start" x="744" y="-1249" font-family="Helvetica,sans-Serif" font-size="20.00">first_name</text>
<polygon fill="none" stroke="black" points="739,-1206 739,-1238 864,-1238 864,-1206 739,-1206"/>
<text text-anchor="start" x="744" y="-1217" font-family="Helvetica,sans-Serif" font-size="20.00">last_name</text>
<polygon fill="none" stroke="black" points="739,-1174 739,-1206 864,-1206 864,-1174 739,-1174"/>
<text text-anchor="start" x="744" y="-1185" font-family="Helvetica,sans-Serif" font-size="20.00">last_update</text>
</g>
<!-- address -->
<g id="node2" class="node">
<title>address</title>
<polygon fill="#ececfc" stroke="transparent" points="1217,-274 1217,-558 1345,-558 1345,-274 1217,-274"/>
<polygon fill="none" stroke="black" points="1217,-530 1217,-558 1345,-558 1345,-530 1217,-530"/>
<text text-anchor="start" x="1245" y="-541.2" font-family="Helvetica,sans-Serif" font-weight="bold" font-size="16.00">address</text>
<polygon fill="none" stroke="black" points="1217,-498 1217,-530 1345,-530 1345,-498 1217,-498"/>
<text text-anchor="start" x="1222" y="-510" font-family="Helvetica,sans-Serif" text-decoration="underline" font-size="20.00">address_id</text>
<polygon fill="none" stroke="black" points="1217,-466 1217,-498 1345,-498 1345,-466 1217,-466"/>
<text text-anchor="start" x="1222" y="-477" font-family="Helvetica,sans-Serif" font-size="20.00">address</text>
<polygon fill="none" stroke="black" points="1217,-434 1217,-466 1345,-466 1345,-434 1217,-434"/>
<text text-anchor="start" x="1222" y="-445" font-family="Helvetica,sans-Serif" font-size="20.00">address2</text>
<polygon fill="none" stroke="black" points="1217,-402 1217,-434 1345,-434 1345,-402 1217,-402"/>
<text text-anchor="start" x="1222" y="-413" font-family="Helvetica,sans-Serif" font-size="20.00">district</text>
<polygon fill="none" stroke="black" points="1217,-370 1217,-402 1345,-402 1345,-370 1217,-370"/>
<text text-anchor="start" x="1222" y="-382" font-family="Helvetica,sans-Serif" font-style="italic" font-size="20.00">city_id</text>
<polygon fill="none" stroke="black" points="1217,-338 1217,-370 1345,-370 1345,-338 1217,-338"/>
<text text-anchor="start" x="1222" y="-349" font-family="Helvetica,sans-Serif" font-size="20.00">postal_code</text>
<polygon fill="none" stroke="black" points="1217,-306 1217,-338 1345,-338 1345,-306 1217,-306"/>
<text text-anchor="start" x="1222" y="-317" font-family="Helvetica,sans-Serif" font-size="20.00">phone</text>
<polygon fill="none" stroke="black" points="1217,-274 1217,-306 1345,-306 1345,-274 1217,-274"/>
<text text-anchor="start" x="1222" y="-285" font-family="Helvetica,sans-Serif" font-size="20.00">last_update</text>
</g>
<!-- city -->
<g id="node4" class="node">
<title>city</title>
<polygon fill="#ececfc" stroke="transparent" points="1434,-338 1434,-494 1559,-494 1559,-338 1434,-338"/>
<polygon fill="none" stroke="black" points="1434.5,-466 1434.5,-494 1559.5,-494 1559.5,-466 1434.5,-466"/>
<text text-anchor="start" x="1480" y="-477.2" font-family="Helvetica,sans-Serif" font-weight="bold" font-size="16.00">city</text>
<polygon fill="none" stroke="black" points="1434.5,-434 1434.5,-466 1559.5,-466 1559.5,-434 1434.5,-434"/>
<text text-anchor="start" x="1439.5" y="-446" font-family="Helvetica,sans-Serif" text-decoration="underline" font-size="20.00">city_id</text>
<polygon fill="none" stroke="black" points="1434.5,-402 1434.5,-434 1559.5,-434 1559.5,-402 1434.5,-402"/>
<text text-anchor="start" x="1439.5" y="-413" font-family="Helvetica,sans-Serif" font-size="20.00">city</text>
<polygon fill="none" stroke="black" points="1434.5,-370 1434.5,-402 1559.5,-402 1559.5,-370 1434.5,-370"/>
<text text-anchor="start" x="1439.5" y="-382" font-family="Helvetica,sans-Serif" font-style="italic" font-size="20.00">country_id</text>
<polygon fill="none" stroke="black" points="1434.5,-338 1434.5,-370 1559.5,-370 1559.5,-338 1434.5,-338"/>
<text text-anchor="start" x="1439.5" y="-349" font-family="Helvetica,sans-Serif" font-size="20.00">last_update</text>
</g>
<!-- address&#45;&#45;city -->
<g id="edge1" class="edge">
<title>address&#45;&#45;city</title>
<path fill="none" stroke="#7f7f7f" stroke-dasharray="5,2" d="M1353.09,-416C1376.5,-416 1402.5,-416 1425.81,-416"/>
<text text-anchor="start" x="1415.81" y="-404.8" font-family="Times,serif" font-size="14.00">1</text>
<text text-anchor="start" x="1353.09" y="-404.8" font-family="Times,serif" font-size="14.00">0..N</text>
</g>
<!-- category -->
<g id="node3" class="node">
<title>category</title>
<polygon fill="#ececfc" stroke="transparent" points="738,-554 738,-678 864,-678 864,-554 738,-554"/>
<polygon fill="none" stroke="black" points="738,-650 738,-678 864,-678 864,-650 738,-650"/>
<text text-anchor="start" x="761" y="-661.2" font-family="Helvetica,sans-Serif" font-weight="bold" font-size="16.00">category</text>
<polygon fill="none" stroke="black" points="738,-618 738,-650 864,-650 864,-618 738,-618"/>
<text text-anchor="start" x="743" y="-630" font-family="Helvetica,sans-Serif" text-decoration="underline" font-size="20.00">category_id</text>
<polygon fill="none" stroke="black" points="738,-586 738,-618 864,-618 864,-586 738,-586"/>
<text text-anchor="start" x="743" y="-597" font-family="Helvetica,sans-Serif" font-size="20.00">name</text>
<polygon fill="none" stroke="black" points="738,-554 738,-586 864,-586 864,-554 738,-554"/>
<text text-anchor="start" x="743" y="-565" font-family="Helvetica,sans-Serif" font-size="20.00">last_update</text>
</g>
<!-- country -->
<g id="node5" class="node">
<title>country</title>
<polygon fill="#ececfc" stroke="transparent" points="1648,-354 1648,-478 1773,-478 1773,-354 1648,-354"/>
<polygon fill="none" stroke="black" points="1648.5,-450 1648.5,-478 1773.5,-478 1773.5,-450 1648.5,-450"/>
<text text-anchor="start" x="1676" y="-461.2" font-family="Helvetica,sans-Serif" font-weight="bold" font-size="16.00">country</text>
<polygon fill="none" stroke="black" points="1648.5,-418 1648.5,-450 1773.5,-450 1773.5,-418 1648.5,-418"/>
<text text-anchor="start" x="1653.5" y="-430" font-family="Helvetica,sans-Serif" text-decoration="underline" font-size="20.00">country_id</text>
<polygon fill="none" stroke="black" points="1648.5,-386 1648.5,-418 1773.5,-418 1773.5,-386 1648.5,-386"/>
<text text-anchor="start" x="1653.5" y="-397" font-family="Helvetica,sans-Serif" font-size="20.00">country</text>
<polygon fill="none" stroke="black" points="1648.5,-354 1648.5,-386 1773.5,-386 1773.5,-354 1648.5,-354"/>
<text text-anchor="start" x="1653.5" y="-365" font-family="Helvetica,sans-Serif" font-size="20.00">last_update</text>
</g>
<!-- city&#45;&#45;country -->
<g id="edge2" class="edge">
<title>city&#45;&#45;country</title>
<path fill="none" stroke="#7f7f7f" stroke-dasharray="5,2" d="M1567.21,-416C1590.5,-416 1616.45,-416 1639.75,-416"/>
<text text-anchor="start" x="1629.75" y="-404.8" font-family="Times,serif" font-size="14.00">1</text>
<text text-anchor="start" x="1567.21" y="-404.8" font-family="Times,serif" font-size="14.00">0..N</text>
</g>
<!-- customer -->
<g id="node6" class="node">
<title>customer</title>
<polygon fill="#ececfc" stroke="transparent" points="472.5,-226 472.5,-542 604.5,-542 604.5,-226 472.5,-226"/>
<polygon fill="none" stroke="black" points="472.5,-514 472.5,-542 604.5,-542 604.5,-514 472.5,-514"/>
<text text-anchor="start" x="496" y="-525.2" font-family="Helvetica,sans-Serif" font-weight="bold" font-size="16.00">customer</text>
<polygon fill="none" stroke="black" points="472.5,-482 472.5,-514 604.5,-514 604.5,-482 472.5,-482"/>
<text text-anchor="start" x="477.5" y="-494" font-family="Helvetica,sans-Serif" text-decoration="underline" font-size="20.00">customer_id</text>
<polygon fill="none" stroke="black" points="472.5,-450 472.5,-482 604.5,-482 604.5,-450 472.5,-450"/>
<text text-anchor="start" x="477.5" y="-462" font-family="Helvetica,sans-Serif" font-style="italic" font-size="20.00">store_id</text>
<polygon fill="none" stroke="black" points="472.5,-418 472.5,-450 604.5,-450 604.5,-418 472.5,-418"/>
<text text-anchor="start" x="477.5" y="-429" font-family="Helvetica,sans-Serif" font-size="20.00">first_name</text>
<polygon fill="none" stroke="black" points="472.5,-386 472.5,-418 604.5,-418 604.5,-386 472.5,-386"/>
<text text-anchor="start" x="477.5" y="-397" font-family="Helvetica,sans-Serif" font-size="20.00">last_name</text>
<polygon fill="none" stroke="black" points="472.5,-354 472.5,-386 604.5,-386 604.5,-354 472.5,-354"/>
<text text-anchor="start" x="477.5" y="-365" font-family="Helvetica,sans-Serif" font-size="20.00">email</text>
<polygon fill="none" stroke="black" points="472.5,-322 472.5,-354 604.5,-354 604.5,-322 472.5,-322"/>
<text text-anchor="start" x="477.5" y="-334" font-family="Helvetica,sans-Serif" font-style="italic" font-size="20.00">address_id</text>
<polygon fill="none" stroke="black" points="472.5,-290 472.5,-322 604.5,-322 604.5,-290 472.5,-290"/>
<text text-anchor="start" x="477.5" y="-301" font-family="Helvetica,sans-Serif" font-size="20.00">active</text>
<polygon fill="none" stroke="black" points="472.5,-258 472.5,-290 604.5,-290 604.5,-258 472.5,-258"/>
<text text-anchor="start" x="477.5" y="-269" font-family="Helvetica,sans-Serif" font-size="20.00">create_date</text>
<polygon fill="none" stroke="black" points="472.5,-226 472.5,-258 604.5,-258 604.5,-226 472.5,-226"/>
<text text-anchor="start" x="477.5" y="-237" font-family="Helvetica,sans-Serif" font-size="20.00">last_update</text>
</g>
<!-- customer&#45;&#45;address -->
<g id="edge3" class="edge">
<title>customer&#45;&#45;address</title>
<path fill="none" stroke="#7f7f7f" stroke-dasharray="5,2" d="M612.77,-414.7C664.21,-433.51 735.14,-454 800,-454 800,-454 800,-454 1063.5,-454 1112.54,-454 1166.89,-444.43 1208.88,-434.89"/>
<text text-anchor="start" x="1198.88" y="-423.69" font-family="Times,serif" font-size="14.00">1</text>
<text text-anchor="start" x="612.77" y="-403.5" font-family="Times,serif" font-size="14.00">0..N</text>
</g>
<!-- store -->
<g id="node16" class="node">
<title>store</title>
<polygon fill="#ececfc" stroke="transparent" points="710.5,-266 710.5,-422 891.5,-422 891.5,-266 710.5,-266"/>
<polygon fill="none" stroke="black" points="711,-394 711,-422 892,-422 892,-394 711,-394"/>
<text text-anchor="start" x="777.5" y="-405.2" font-family="Helvetica,sans-Serif" font-weight="bold" font-size="16.00">store</text>
<polygon fill="none" stroke="black" points="711,-362 711,-394 892,-394 892,-362 711,-362"/>
<text text-anchor="start" x="716" y="-374" font-family="Helvetica,sans-Serif" text-decoration="underline" font-size="20.00">store_id</text>
<polygon fill="none" stroke="black" points="711,-330 711,-362 892,-362 892,-330 711,-330"/>
<text text-anchor="start" x="716" y="-342" font-family="Helvetica,sans-Serif" font-style="italic" font-size="20.00">manager_staff_id</text>
<polygon fill="none" stroke="black" points="711,-298 711,-330 892,-330 892,-298 711,-298"/>
<text text-anchor="start" x="716" y="-310" font-family="Helvetica,sans-Serif" font-style="italic" font-size="20.00">address_id</text>
<polygon fill="none" stroke="black" points="711,-266 711,-298 892,-298 892,-266 711,-266"/>
<text text-anchor="start" x="716" y="-277" font-family="Helvetica,sans-Serif" font-size="20.00">last_update</text>
</g>
<!-- customer&#45;&#45;store -->
<g id="edge4" class="edge">
<title>customer&#45;&#45;store</title>
<path fill="none" stroke="#7f7f7f" stroke-dasharray="5,2" d="M612.76,-372.75C640.6,-368.48 672.76,-363.54 702.5,-358.97"/>
<text text-anchor="start" x="692.5" y="-347.77" font-family="Times,serif" font-size="14.00">1</text>
<text text-anchor="start" x="612.76" y="-361.55" font-family="Times,serif" font-size="14.00">0..N</text>
</g>
<!-- film -->
<g id="node7" class="node">
<title>film</title>
<polygon fill="#ececfc" stroke="transparent" points="694,-704 694,-1148 908,-1148 908,-704 694,-704"/>
<polygon fill="none" stroke="black" points="694,-1120 694,-1148 908,-1148 908,-1120 694,-1120"/>
<text text-anchor="start" x="784" y="-1131.2" font-family="Helvetica,sans-Serif" font-weight="bold" font-size="16.00">film</text>
<polygon fill="none" stroke="black" points="694,-1088 694,-1120 908,-1120 908,-1088 694,-1088"/>
<text text-anchor="start" x="699" y="-1100" font-family="Helvetica,sans-Serif" text-decoration="underline" font-size="20.00">film_id</text>
<polygon fill="none" stroke="black" points="694,-1056 694,-1088 908,-1088 908,-1056 694,-1056"/>
<text text-anchor="start" x="699" y="-1067" font-family="Helvetica,sans-Serif" font-size="20.00">title</text>
<polygon fill="none" stroke="black" points="694,-1024 694,-1056 908,-1056 908,-1024 694,-1024"/>
<text text-anchor="start" x="699" y="-1035" font-family="Helvetica,sans-Serif" font-size="20.00">description</text>
<polygon fill="none" stroke="black" points="694,-992 694,-1024 908,-1024 908,-992 694,-992"/>
<text text-anchor="start" x="699" y="-1003" font-family="Helvetica,sans-Serif" font-size="20.00">release_year</text>
<polygon fill="none" stroke="black" points="694,-960 694,-992 908,-992 908,-960 694,-960"/>
<text text-anchor="start" x="699" y="-972" font-family="Helvetica,sans-Serif" font-style="italic" font-size="20.00">language_id</text>
<polygon fill="none" stroke="black" points="694,-928 694,-960 908,-960 908,-928 694,-928"/>
<text text-anchor="start" x="699" y="-940" font-family="Helvetica,sans-Serif" font-style="italic" font-size="20.00">original_language_id</text>
<polygon fill="none" stroke="black" points="694,-896 694,-928 908,-928 908,-896 694,-896"/>
<text text-anchor="start" x="699" y="-907" font-family="Helvetica,sans-Serif" font-size="20.00">rental_duration</text>
<polygon fill="none" stroke="black" points="694,-864 694,-896 908,-896 908,-864 694,-864"/>
<text text-anchor="start" x="699" y="-875" font-family="Helvetica,sans-Serif" font-size="20.00">rental_rate</text>
<polygon fill="none" stroke="black" points="694,-832 694,-864 908,-864 908,-832 694,-832"/>
<text text-anchor="start" x="699" y="-843" font-family="Helvetica,sans-Serif" font-size="20.00">length</text>
<polygon fill="none" stroke="black" points="694,-800 694,-832 908,-832 908,-800 694,-800"/>
<text text-anchor="start" x="699" y="-811" font-family="Helvetica,sans-Serif" font-size="20.00">replacement_cost</text>
<polygon fill="none" stroke="black" points="694,-768 694,-800 908,-800 908,-768 694,-768"/>
<text text-anchor="start" x="699" y="-779" font-family="Helvetica,sans-Serif" font-size="20.00">rating</text>
<polygon fill="none" stroke="black" points="694,-736 694,-768 908,-768 908,-736 694,-736"/>
<text text-anchor="start" x="699" y="-747" font-family="Helvetica,sans-Serif" font-size="20.00">special_features</text>
<polygon fill="none" stroke="black" points="694,-704 694,-736 908,-736 908,-704 694,-704"/>
<text text-anchor="start" x="699" y="-715" font-family="Helvetica,sans-Serif" font-size="20.00">last_update</text>
</g>
<!-- language -->
<g id="node12" class="node">
<title>language</title>
<polygon fill="#ececfc" stroke="transparent" points="997,-864 997,-988 1128,-988 1128,-864 997,-864"/>
<polygon fill="none" stroke="black" points="997.5,-960 997.5,-988 1128.5,-988 1128.5,-960 997.5,-960"/>
<text text-anchor="start" x="1022" y="-971.2" font-family="Helvetica,sans-Serif" font-weight="bold" font-size="16.00">language</text>
<polygon fill="none" stroke="black" points="997.5,-928 997.5,-960 1128.5,-960 1128.5,-928 997.5,-928"/>
<text text-anchor="start" x="1002.5" y="-940" font-family="Helvetica,sans-Serif" text-decoration="underline" font-size="20.00">language_id</text>
<polygon fill="none" stroke="black" points="997.5,-896 997.5,-928 1128.5,-928 1128.5,-896 997.5,-896"/>
<text text-anchor="start" x="1002.5" y="-907" font-family="Helvetica,sans-Serif" font-size="20.00">name</text>
<polygon fill="none" stroke="black" points="997.5,-864 997.5,-896 1128.5,-896 1128.5,-864 997.5,-864"/>
<text text-anchor="start" x="1002.5" y="-875" font-family="Helvetica,sans-Serif" font-size="20.00">last_update</text>
</g>
<!-- film&#45;&#45;language -->
<g id="edge5" class="edge">
<title>film&#45;&#45;language</title>
<path fill="none" stroke="#7f7f7f" stroke-dasharray="5,2" d="M916.2,-919.29C940.81,-919.16 966.18,-919.35 988.69,-919.86"/>
<text text-anchor="start" x="978.69" y="-908.66" font-family="Times,serif" font-size="14.00">1</text>
<text text-anchor="start" x="916.2" y="-908.09" font-family="Times,serif" font-size="14.00">0..N</text>
</g>
<!-- film&#45;&#45;language -->
<g id="edge6" class="edge">
<title>film&#45;&#45;language</title>
<path fill="none" stroke="#7f7f7f" stroke-dasharray="5,2" d="M916.2,-932.71C940.81,-932.84 966.18,-932.65 988.69,-932.14"/>
<text text-anchor="start" x="978.69" y="-935.94" font-family="Times,serif" font-size="14.00">1</text>
<text text-anchor="start" x="916.2" y="-936.51" font-family="Times,serif" font-size="14.00">0..N</text>
</g>
<!-- film_actor -->
<g id="node8" class="node">
<title>film_actor</title>
<polygon fill="#ececfc" stroke="transparent" points="476,-1003 476,-1127 601,-1127 601,-1003 476,-1003"/>
<polygon fill="none" stroke="black" points="476.5,-1099 476.5,-1127 601.5,-1127 601.5,-1099 476.5,-1099"/>
<text text-anchor="start" x="494" y="-1110.2" font-family="Helvetica,sans-Serif" font-weight="bold" font-size="16.00">film_actor</text>
<polygon fill="none" stroke="black" points="476.5,-1067 476.5,-1099 601.5,-1099 601.5,-1067 476.5,-1067"/>
<text text-anchor="start" x="481.5" y="-1079" font-family="Helvetica,sans-Serif" font-style="italic" text-decoration="underline" font-size="20.00">actor_id</text>
<polygon fill="none" stroke="black" points="476.5,-1035 476.5,-1067 601.5,-1067 601.5,-1035 476.5,-1035"/>
<text text-anchor="start" x="481.5" y="-1047" font-family="Helvetica,sans-Serif" font-style="italic" text-decoration="underline" font-size="20.00">film_id</text>
<polygon fill="none" stroke="black" points="476.5,-1003 476.5,-1035 601.5,-1035 601.5,-1003 476.5,-1003"/>
<text text-anchor="start" x="481.5" y="-1014" font-family="Helvetica,sans-Serif" font-size="20.00">last_update</text>
</g>
<!-- film_actor&#45;&#45;actor -->
<g id="edge7" class="edge">
<title>film_actor&#45;&#45;actor</title>
<path fill="none" stroke="#7f7f7f" stroke-dasharray="5,2" d="M609.31,-1115.11C646.84,-1142.05 692.96,-1175.16 730.45,-1202.07"/>
<text text-anchor="start" x="720.45" y="-1190.87" font-family="Times,serif" font-size="14.00">1</text>
<text text-anchor="start" x="609.31" y="-1103.91" font-family="Times,serif" font-size="14.00">0..N</text>
</g>
<!-- film_actor&#45;&#45;film -->
<g id="edge8" class="edge">
<title>film_actor&#45;&#45;film</title>
<path fill="none" stroke="#7f7f7f" stroke-dasharray="5,2" d="M609.31,-1027.75C632.9,-1015.17 659.88,-1000.77 685.98,-986.84"/>
<text text-anchor="start" x="675.98" y="-975.64" font-family="Times,serif" font-size="14.00">1</text>
<text text-anchor="start" x="609.31" y="-1016.55" font-family="Times,serif" font-size="14.00">0..N</text>
</g>
<!-- film_category -->
<g id="node9" class="node">
<title>film_category</title>
<polygon fill="#ececfc" stroke="transparent" points="472.5,-773 472.5,-897 604.5,-897 604.5,-773 472.5,-773"/>
<polygon fill="none" stroke="black" points="472.5,-869 472.5,-897 604.5,-897 604.5,-869 472.5,-869"/>
<text text-anchor="start" x="477.5" y="-880.2" font-family="Helvetica,sans-Serif" font-weight="bold" font-size="16.00">film_category</text>
<polygon fill="none" stroke="black" points="472.5,-837 472.5,-869 604.5,-869 604.5,-837 472.5,-837"/>
<text text-anchor="start" x="477.5" y="-849" font-family="Helvetica,sans-Serif" font-style="italic" text-decoration="underline" font-size="20.00">film_id</text>
<polygon fill="none" stroke="black" points="472.5,-805 472.5,-837 604.5,-837 604.5,-805 472.5,-805"/>
<text text-anchor="start" x="477.5" y="-817" font-family="Helvetica,sans-Serif" font-style="italic" text-decoration="underline" font-size="20.00">category_id</text>
<polygon fill="none" stroke="black" points="472.5,-773 472.5,-805 604.5,-805 604.5,-773 472.5,-773"/>
<text text-anchor="start" x="477.5" y="-784" font-family="Helvetica,sans-Serif" font-size="20.00">last_update</text>
</g>
<!-- film_category&#45;&#45;category -->
<g id="edge10" class="edge">
<title>film_category&#45;&#45;category</title>
<path fill="none" stroke="#7f7f7f" stroke-dasharray="5,2" d="M601.51,-768.72C626.7,-743.25 656.73,-714.64 686,-691 699.64,-679.99 714.92,-669.07 729.75,-659.12"/>
<text text-anchor="start" x="719.75" y="-647.92" font-family="Times,serif" font-size="14.00">1</text>
<text text-anchor="start" x="570.51" y="-757.52" font-family="Times,serif" font-size="14.00">0..N</text>
</g>
<!-- film_category&#45;&#45;film -->
<g id="edge9" class="edge">
<title>film_category&#45;&#45;film</title>
<path fill="none" stroke="#7f7f7f" stroke-dasharray="5,2" d="M612.76,-860.59C635.48,-868.53 661.09,-877.47 685.9,-886.14"/>
<text text-anchor="start" x="675.9" y="-874.94" font-family="Times,serif" font-size="14.00">1</text>
<text text-anchor="start" x="612.76" y="-849.39" font-family="Times,serif" font-size="14.00">0..N</text>
</g>
<!-- film_text -->
<g id="node10" class="node">
<title>film_text</title>
<polygon fill="#ececfc" stroke="transparent" points="24,-466 24,-590 145,-590 145,-466 24,-466"/>
<polygon fill="none" stroke="black" points="24.5,-562 24.5,-590 145.5,-590 145.5,-562 24.5,-562"/>
<text text-anchor="start" x="45.5" y="-573.2" font-family="Helvetica,sans-Serif" font-weight="bold" font-size="16.00">film_text</text>
<polygon fill="none" stroke="black" points="24.5,-530 24.5,-562 145.5,-562 145.5,-530 24.5,-530"/>
<text text-anchor="start" x="29.5" y="-542" font-family="Helvetica,sans-Serif" text-decoration="underline" font-size="20.00">film_id</text>
<polygon fill="none" stroke="black" points="24.5,-498 24.5,-530 145.5,-530 145.5,-498 24.5,-498"/>
<text text-anchor="start" x="29.5" y="-509" font-family="Helvetica,sans-Serif" font-size="20.00">title</text>
<polygon fill="none" stroke="black" points="24.5,-466 24.5,-498 145.5,-498 145.5,-466 24.5,-466"/>
<text text-anchor="start" x="29.5" y="-477" font-family="Helvetica,sans-Serif" font-size="20.00">description</text>
</g>
<!-- inventory -->
<g id="node11" class="node">
<title>inventory</title>
<polygon fill="#ececfc" stroke="transparent" points="472,-568 472,-724 605,-724 605,-568 472,-568"/>
<polygon fill="none" stroke="black" points="472.5,-696 472.5,-724 605.5,-724 605.5,-696 472.5,-696"/>
<text text-anchor="start" x="495.5" y="-707.2" font-family="Helvetica,sans-Serif" font-weight="bold" font-size="16.00">inventory</text>
<polygon fill="none" stroke="black" points="472.5,-664 472.5,-696 605.5,-696 605.5,-664 472.5,-664"/>
<text text-anchor="start" x="477.5" y="-676" font-family="Helvetica,sans-Serif" text-decoration="underline" font-size="20.00">inventory_id</text>
<polygon fill="none" stroke="black" points="472.5,-632 472.5,-664 605.5,-664 605.5,-632 472.5,-632"/>
<text text-anchor="start" x="477.5" y="-644" font-family="Helvetica,sans-Serif" font-style="italic" font-size="20.00">film_id</text>
<polygon fill="none" stroke="black" points="472.5,-600 472.5,-632 605.5,-632 605.5,-600 472.5,-600"/>
<text text-anchor="start" x="477.5" y="-612" font-family="Helvetica,sans-Serif" font-style="italic" font-size="20.00">store_id</text>
<polygon fill="none" stroke="black" points="472.5,-568 472.5,-600 605.5,-600 605.5,-568 472.5,-568"/>
<text text-anchor="start" x="477.5" y="-579" font-family="Helvetica,sans-Serif" font-size="20.00">last_update</text>
</g>
<!-- inventory&#45;&#45;film -->
<g id="edge12" class="edge">
<title>inventory&#45;&#45;film</title>
<path fill="none" stroke="#7f7f7f" stroke-dasharray="5,2" d="M613.1,-725.11C635.75,-749.45 661.23,-776.84 685.92,-803.38"/>
<text text-anchor="start" x="675.92" y="-792.18" font-family="Times,serif" font-size="14.00">1</text>
<text text-anchor="start" x="613.1" y="-713.91" font-family="Times,serif" font-size="14.00">0..N</text>
</g>
<!-- inventory&#45;&#45;store -->
<g id="edge11" class="edge">
<title>inventory&#45;&#45;store</title>
<path fill="none" stroke="#7f7f7f" stroke-dasharray="5,2" d="M610.34,-563.88C647.25,-521.08 692.27,-468.9 729.18,-426.11"/>
<text text-anchor="start" x="719.18" y="-429.91" font-family="Times,serif" font-size="14.00">1</text>
<text text-anchor="start" x="579.34" y="-552.68" font-family="Times,serif" font-size="14.00">0..N</text>
</g>
<!-- payment -->
<g id="node13" class="node">
<title>payment</title>
<polygon fill="#ececfc" stroke="transparent" points="8,-188 8,-440 161,-440 161,-188 8,-188"/>
<polygon fill="none" stroke="black" points="8.5,-412 8.5,-440 161.5,-440 161.5,-412 8.5,-412"/>
<text text-anchor="start" x="45.5" y="-423.2" font-family="Helvetica,sans-Serif" font-weight="bold" font-size="16.00">payment</text>
<polygon fill="none" stroke="black" points="8.5,-380 8.5,-412 161.5,-412 161.5,-380 8.5,-380"/>
<text text-anchor="start" x="13.5" y="-392" font-family="Helvetica,sans-Serif" text-decoration="underline" font-size="20.00">payment_id</text>
<polygon fill="none" stroke="black" points="8.5,-348 8.5,-380 161.5,-380 161.5,-348 8.5,-348"/>
<text text-anchor="start" x="13.5" y="-360" font-family="Helvetica,sans-Serif" font-style="italic" font-size="20.00">customer_id</text>
<polygon fill="none" stroke="black" points="8.5,-316 8.5,-348 161.5,-348 161.5,-316 8.5,-316"/>
<text text-anchor="start" x="13.5" y="-328" font-family="Helvetica,sans-Serif" font-style="italic" font-size="20.00">staff_id</text>
<polygon fill="none" stroke="black" points="8.5,-284 8.5,-316 161.5,-316 161.5,-284 8.5,-284"/>
<text text-anchor="start" x="13.5" y="-296" font-family="Helvetica,sans-Serif" font-style="italic" font-size="20.00">rental_id</text>
<polygon fill="none" stroke="black" points="8.5,-252 8.5,-284 161.5,-284 161.5,-252 8.5,-252"/>
<text text-anchor="start" x="13.5" y="-263" font-family="Helvetica,sans-Serif" font-size="20.00">amount</text>
<polygon fill="none" stroke="black" points="8.5,-220 8.5,-252 161.5,-252 161.5,-220 8.5,-220"/>
<text text-anchor="start" x="13.5" y="-231" font-family="Helvetica,sans-Serif" font-size="20.00">payment_date</text>
<polygon fill="none" stroke="black" points="8.5,-188 8.5,-220 161.5,-220 161.5,-188 8.5,-188"/>
<text text-anchor="start" x="13.5" y="-199" font-family="Helvetica,sans-Serif" font-size="20.00">last_update</text>
</g>
<!-- payment&#45;&#45;customer -->
<g id="edge14" class="edge">
<title>payment&#45;&#45;customer</title>
<path fill="none" stroke="#7f7f7f" stroke-dasharray="5,2" d="M169.26,-407.91C190.94,-426.31 215.67,-443 242,-453 303.9,-476.52 326.38,-467.46 391,-453 415.97,-447.41 441.69,-437.08 464.49,-426.08"/>
<text text-anchor="start" x="454.49" y="-414.88" font-family="Times,serif" font-size="14.00">1</text>
<text text-anchor="start" x="169.26" y="-396.71" font-family="Times,serif" font-size="14.00">0..N</text>
</g>
<!-- rental -->
<g id="node14" class="node">
<title>rental</title>
<polygon fill="#ececfc" stroke="transparent" points="250,-188 250,-440 383,-440 383,-188 250,-188"/>
<polygon fill="none" stroke="black" points="250.5,-412 250.5,-440 383.5,-440 383.5,-412 250.5,-412"/>
<text text-anchor="start" x="290" y="-423.2" font-family="Helvetica,sans-Serif" font-weight="bold" font-size="16.00">rental</text>
<polygon fill="none" stroke="black" points="250.5,-380 250.5,-412 383.5,-412 383.5,-380 250.5,-380"/>
<text text-anchor="start" x="255.5" y="-392" font-family="Helvetica,sans-Serif" text-decoration="underline" font-size="20.00">rental_id</text>
<polygon fill="none" stroke="black" points="250.5,-348 250.5,-380 383.5,-380 383.5,-348 250.5,-348"/>
<text text-anchor="start" x="255.5" y="-359" font-family="Helvetica,sans-Serif" font-size="20.00">rental_date</text>
<polygon fill="none" stroke="black" points="250.5,-316 250.5,-348 383.5,-348 383.5,-316 250.5,-316"/>
<text text-anchor="start" x="255.5" y="-328" font-family="Helvetica,sans-Serif" font-style="italic" font-size="20.00">inventory_id</text>
<polygon fill="none" stroke="black" points="250.5,-284 250.5,-316 383.5,-316 383.5,-284 250.5,-284"/>
<text text-anchor="start" x="255.5" y="-296" font-family="Helvetica,sans-Serif" font-style="italic" font-size="20.00">customer_id</text>
<polygon fill="none" stroke="black" points="250.5,-252 250.5,-284 383.5,-284 383.5,-252 250.5,-252"/>
<text text-anchor="start" x="255.5" y="-263" font-family="Helvetica,sans-Serif" font-size="20.00">return_date</text>
<polygon fill="none" stroke="black" points="250.5,-220 250.5,-252 383.5,-252 383.5,-220 250.5,-220"/>
<text text-anchor="start" x="255.5" y="-232" font-family="Helvetica,sans-Serif" font-style="italic" font-size="20.00">staff_id</text>
<polygon fill="none" stroke="black" points="250.5,-188 250.5,-220 383.5,-220 383.5,-188 250.5,-188"/>
<text text-anchor="start" x="255.5" y="-199" font-family="Helvetica,sans-Serif" font-size="20.00">last_update</text>
</g>
<!-- payment&#45;&#45;rental -->
<g id="edge13" class="edge">
<title>payment&#45;&#45;rental</title>
<path fill="none" stroke="#7f7f7f" stroke-dasharray="5,2" d="M169.19,-314C192.95,-314 218.64,-314 241.77,-314"/>
<text text-anchor="start" x="231.77" y="-302.8" font-family="Times,serif" font-size="14.00">1</text>
<text text-anchor="start" x="169.19" y="-302.8" font-family="Times,serif" font-size="14.00">0..N</text>
</g>
<!-- staff -->
<g id="node15" class="node">
<title>staff</title>
<polygon fill="#ececfc" stroke="transparent" points="1000,-4 1000,-384 1125,-384 1125,-4 1000,-4"/>
<polygon fill="none" stroke="black" points="1000.5,-356 1000.5,-384 1125.5,-384 1125.5,-356 1000.5,-356"/>
<text text-anchor="start" x="1042" y="-367.2" font-family="Helvetica,sans-Serif" font-weight="bold" font-size="16.00">staff</text>
<polygon fill="none" stroke="black" points="1000.5,-324 1000.5,-356 1125.5,-356 1125.5,-324 1000.5,-324"/>
<text text-anchor="start" x="1005.5" y="-336" font-family="Helvetica,sans-Serif" text-decoration="underline" font-size="20.00">staff_id</text>
<polygon fill="none" stroke="black" points="1000.5,-292 1000.5,-324 1125.5,-324 1125.5,-292 1000.5,-292"/>
<text text-anchor="start" x="1005.5" y="-303" font-family="Helvetica,sans-Serif" font-size="20.00">first_name</text>
<polygon fill="none" stroke="black" points="1000.5,-260 1000.5,-292 1125.5,-292 1125.5,-260 1000.5,-260"/>
<text text-anchor="start" x="1005.5" y="-271" font-family="Helvetica,sans-Serif" font-size="20.00">last_name</text>
<polygon fill="none" stroke="black" points="1000.5,-228 1000.5,-260 1125.5,-260 1125.5,-228 1000.5,-228"/>
<text text-anchor="start" x="1005.5" y="-240" font-family="Helvetica,sans-Serif" font-style="italic" font-size="20.00">address_id</text>
<polygon fill="none" stroke="black" points="1000.5,-196 1000.5,-228 1125.5,-228 1125.5,-196 1000.5,-196"/>
<text text-anchor="start" x="1005.5" y="-207" font-family="Helvetica,sans-Serif" font-size="20.00">picture</text>
<polygon fill="none" stroke="black" points="1000.5,-164 1000.5,-196 1125.5,-196 1125.5,-164 1000.5,-164"/>
<text text-anchor="start" x="1005.5" y="-175" font-family="Helvetica,sans-Serif" font-size="20.00">email</text>
<polygon fill="none" stroke="black" points="1000.5,-132 1000.5,-164 1125.5,-164 1125.5,-132 1000.5,-132"/>
<text text-anchor="start" x="1005.5" y="-144" font-family="Helvetica,sans-Serif" font-style="italic" font-size="20.00">store_id</text>
<polygon fill="none" stroke="black" points="1000.5,-100 1000.5,-132 1125.5,-132 1125.5,-100 1000.5,-100"/>
<text text-anchor="start" x="1005.5" y="-111" font-family="Helvetica,sans-Serif" font-size="20.00">active</text>
<polygon fill="none" stroke="black" points="1000.5,-68 1000.5,-100 1125.5,-100 1125.5,-68 1000.5,-68"/>
<text text-anchor="start" x="1005.5" y="-79" font-family="Helvetica,sans-Serif" font-size="20.00">username</text>
<polygon fill="none" stroke="black" points="1000.5,-36 1000.5,-68 1125.5,-68 1125.5,-36 1000.5,-36"/>
<text text-anchor="start" x="1005.5" y="-47" font-family="Helvetica,sans-Serif" font-size="20.00">password</text>
<polygon fill="none" stroke="black" points="1000.5,-4 1000.5,-36 1125.5,-36 1125.5,-4 1000.5,-4"/>
<text text-anchor="start" x="1005.5" y="-15" font-family="Helvetica,sans-Serif" font-size="20.00">last_update</text>
</g>
<!-- payment&#45;&#45;staff -->
<g id="edge15" class="edge">
<title>payment&#45;&#45;staff</title>
<path fill="none" stroke="#7f7f7f" stroke-dasharray="5,2" d="M169.11,-221.41C209.3,-186.92 260.64,-156 315.5,-156 315.5,-156 315.5,-156 802,-156 866.88,-156 939.94,-167.77 991.97,-178.21"/>
<text text-anchor="start" x="981.97" y="-167.01" font-family="Times,serif" font-size="14.00">1</text>
<text text-anchor="start" x="169.11" y="-210.21" font-family="Times,serif" font-size="14.00">0..N</text>
</g>
<!-- rental&#45;&#45;customer -->
<g id="edge18" class="edge">
<title>rental&#45;&#45;customer</title>
<path fill="none" stroke="#7f7f7f" stroke-dasharray="5,2" d="M391.06,-337.41C414.67,-344.92 440.8,-353.23 464.38,-360.73"/>
<text text-anchor="start" x="454.38" y="-349.53" font-family="Times,serif" font-size="14.00">1</text>
<text text-anchor="start" x="391.06" y="-326.21" font-family="Times,serif" font-size="14.00">0..N</text>
</g>
<!-- rental&#45;&#45;inventory -->
<g id="edge17" class="edge">
<title>rental&#45;&#45;inventory</title>
<path fill="none" stroke="#7f7f7f" stroke-dasharray="5,2" d="M391,-442.05C413.45,-479.14 438.86,-519.25 464,-555 466.04,-557.91 468.15,-560.84 470.31,-563.79"/>
<text text-anchor="start" x="460.31" y="-552.59" font-family="Times,serif" font-size="14.00">1</text>
<text text-anchor="start" x="391" y="-430.85" font-family="Times,serif" font-size="14.00">0..N</text>
</g>
<!-- rental&#45;&#45;staff -->
<g id="edge16" class="edge">
<title>rental&#45;&#45;staff</title>
<path fill="none" stroke="#7f7f7f" stroke-dasharray="5,2" d="M391.1,-250.14C431.54,-221.48 484.2,-194 537.5,-194 537.5,-194 537.5,-194 802,-194 866.31,-194 939.59,-194 991.84,-194"/>
<text text-anchor="start" x="981.84" y="-182.8" font-family="Times,serif" font-size="14.00">1</text>
<text text-anchor="start" x="391.1" y="-238.94" font-family="Times,serif" font-size="14.00">0..N</text>
</g>
<!-- staff&#45;&#45;address -->
<g id="edge20" class="edge">
<title>staff&#45;&#45;address</title>
<path fill="none" stroke="#7f7f7f" stroke-dasharray="5,2" d="M1133.19,-265.46C1157.42,-290.31 1184.61,-318.19 1208.95,-343.15"/>
<text text-anchor="start" x="1198.95" y="-331.95" font-family="Times,serif" font-size="14.00">1</text>
<text text-anchor="start" x="1133.19" y="-254.26" font-family="Times,serif" font-size="14.00">0..N</text>
</g>
<!-- staff&#45;&#45;store -->
<g id="edge19" class="edge">
<title>staff&#45;&#45;store</title>
<path fill="none" stroke="#7f7f7f" stroke-dasharray="5,2" d="M991.74,-240.39C963.47,-257.42 930.34,-276.74 899.74,-294.07"/>
<text text-anchor="start" x="899.74" y="-282.87" font-family="Times,serif" font-size="14.00">1</text>
<text text-anchor="start" x="960.74" y="-229.19" font-family="Times,serif" font-size="14.00">0..N</text>
</g>
<!-- store&#45;&#45;address -->
<g id="edge22" class="edge">
<title>store&#45;&#45;address</title>
<path fill="none" stroke="#7f7f7f" stroke-dasharray="5,2" d="M899.61,-375.86C928.14,-384.03 959.57,-391.93 989,-397 1063.34,-409.81 1149.72,-414.15 1208.95,-415.53"/>
<text text-anchor="start" x="1198.95" y="-404.33" font-family="Times,serif" font-size="14.00">1</text>
<text text-anchor="start" x="899.61" y="-364.66" font-family="Times,serif" font-size="14.00">0..N</text>
</g>
<!-- store&#45;&#45;staff -->
<g id="edge21" class="edge">
<title>store&#45;&#45;staff</title>
<path fill="none" stroke="#7f7f7f" stroke-dasharray="5,2" d="M899.74,-280.94C930.34,-262.89 963.47,-243.9 991.74,-228.26"/>
<text text-anchor="start" x="981.74" y="-217.06" font-family="Times,serif" font-size="14.00">1</text>
<text text-anchor="start" x="899.74" y="-269.74" font-family="Times,serif" font-size="14.00">0..N</text>
</g>
<!-- tmpCustomer -->
<g id="node17" class="node">
<title>tmpCustomer</title>
<polygon fill="#ececfc" stroke="transparent" points="18,-616 18,-676 151,-676 151,-616 18,-616"/>
<polygon fill="none" stroke="black" points="18.5,-648 18.5,-676 151.5,-676 151.5,-648 18.5,-648"/>
<text text-anchor="start" x="23.5" y="-659.2" font-family="Helvetica,sans-Serif" font-weight="bold" font-size="16.00">tmpCustomer</text>
<polygon fill="none" stroke="black" points="18.5,-616 18.5,-648 151.5,-648 151.5,-616 18.5,-616"/>
<text text-anchor="start" x="23.5" y="-627" font-family="Helvetica,sans-Serif" font-size="20.00">customer_id</text>
</g>
</g>
</svg>
