<?xml version="1.0" encoding="UTF-8" standalone="no"?>
<!DOCTYPE svg PUBLIC "-//W3C//DTD SVG 1.1//EN"
 "http://www.w3.org/Graphics/SVG/1.1/DTD/svg11.dtd">
<!-- Generated by graphviz version 2.43.0 (0)
 -->
<!-- Title: %3 Pages: 1 -->
<svg width="1086pt" height="782pt"
 viewBox="0.00 0.00 1086.00 782.00" xmlns="http://www.w3.org/2000/svg" xmlns:xlink="http://www.w3.org/1999/xlink">
<g id="graph0" class="graph" transform="scale(1 1) rotate(0) translate(4 778)">
<title>%3</title>
<polygon fill="white" stroke="transparent" points="-4,4 -4,-778 1082,-778 1082,4 -4,4"/>
<!-- College -->
<g id="node1" class="node">
<title>College</title>
<polygon fill="#ececfc" stroke="transparent" points="852,-642 852,-734 1070,-734 1070,-642 852,-642"/>
<polygon fill="none" stroke="black" points="852,-706 852,-734 1070,-734 1070,-706 852,-706"/>
<text text-anchor="start" x="927.5" y="-717.2" font-family="Helvetica,sans-Serif" font-weight="bold" font-size="16.00">College</text>
<polygon fill="none" stroke="black" points="852,-674 852,-706 1070,-706 1070,-674 852,-674"/>
<text text-anchor="start" x="857" y="-686" font-family="Helvetica,sans-Serif" text-decoration="underline" font-size="20.00">CollegeName</text>
<polygon fill="none" stroke="black" points="852,-642 852,-674 1070,-674 1070,-642 852,-642"/>
<text text-anchor="start" x="857" y="-653" font-family="Helvetica,sans-Serif" font-size="20.00">CollegeTotalStudents</text>
</g>
<!-- Buildings -->
<g id="node2" class="node">
<title>Buildings</title>
<polygon fill="#ececfc" stroke="transparent" points="605.5,-626 605.5,-750 754.5,-750 754.5,-626 605.5,-626"/>
<polygon fill="none" stroke="black" points="606,-722 606,-750 755,-750 755,-722 606,-722"/>
<text text-anchor="start" x="639" y="-733.2" font-family="Helvetica,sans-Serif" font-weight="bold" font-size="16.00">Buildings</text>
<polygon fill="none" stroke="black" points="606,-690 606,-722 755,-722 755,-690 606,-690"/>
<text text-anchor="start" x="611" y="-702" font-family="Helvetica,sans-Serif" text-decoration="underline" font-size="20.00">BuildingID</text>
<polygon fill="none" stroke="black" points="606,-658 606,-690 755,-690 755,-658 606,-658"/>
<text text-anchor="start" x="611" y="-669" font-family="Helvetica,sans-Serif" font-size="20.00">BuildingName</text>
<polygon fill="none" stroke="black" points="606,-626 606,-658 755,-658 755,-626 606,-626"/>
<text text-anchor="start" x="611" y="-638" font-family="Helvetica,sans-Serif" font-style="italic" font-size="20.00">CollegeName</text>
</g>
<!-- Buildings&#45;&#45;College -->
<g id="edge1" class="edge">
<title>Buildings&#45;&#45;College</title>
<path fill="none" stroke="#7f7f7f" stroke-dasharray="5,2" d="M762.82,-688C788.15,-688 816.55,-688 843.74,-688"/>
<text text-anchor="start" x="833.74" y="-676.8" font-family="Times,serif" font-size="14.00">1</text>
<text text-anchor="start" x="762.82" y="-676.8" font-family="Times,serif" font-size="14.00">0..N</text>
</g>
<!-- Classrooms -->
<g id="node3" class="node">
<title>Classrooms</title>
<polygon fill="#ececfc" stroke="transparent" points="324,-598 324,-722 472,-722 472,-598 324,-598"/>
<polygon fill="none" stroke="black" points="324,-694 324,-722 472,-722 472,-694 324,-694"/>
<text text-anchor="start" x="345.5" y="-705.2" font-family="Helvetica,sans-Serif" font-weight="bold" font-size="16.00">Classrooms</text>
<polygon fill="none" stroke="black" points="324,-662 324,-694 472,-694 472,-662 324,-662"/>
<text text-anchor="start" x="329" y="-674" font-family="Helvetica,sans-Serif" text-decoration="underline" font-size="20.00">RoomNumber</text>
<polygon fill="none" stroke="black" points="324,-630 324,-662 472,-662 472,-630 324,-630"/>
<text text-anchor="start" x="329" y="-641" font-family="Helvetica,sans-Serif" font-size="20.00">HasProjector</text>
<polygon fill="none" stroke="black" points="324,-598 324,-630 472,-630 472,-598 324,-598"/>
<text text-anchor="start" x="329" y="-610" font-family="Helvetica,sans-Serif" font-style="italic" font-size="20.00">BuildingID</text>
</g>
<!-- Classrooms&#45;&#45;Buildings -->
<g id="edge2" class="edge">
<title>Classrooms&#45;&#45;Buildings</title>
<path fill="none" stroke="#7f7f7f" stroke-dasharray="5,2" d="M480.36,-668.14C517.18,-671.82 560.59,-676.16 597.43,-679.84"/>
<text text-anchor="start" x="587.43" y="-668.64" font-family="Times,serif" font-size="14.00">1</text>
<text text-anchor="start" x="480.36" y="-656.94" font-family="Times,serif" font-size="14.00">0..N</text>
</g>
<!-- Textbook -->
<g id="node4" class="node">
<title>Textbook</title>
<polygon fill="#ececfc" stroke="transparent" points="597,-448 597,-572 763,-572 763,-448 597,-448"/>
<polygon fill="none" stroke="black" points="597,-544 597,-572 763,-572 763,-544 597,-544"/>
<text text-anchor="start" x="639" y="-555.2" font-family="Helvetica,sans-Serif" font-weight="bold" font-size="16.00">Textbook</text>
<polygon fill="none" stroke="black" points="597,-512 597,-544 763,-544 763,-512 597,-512"/>
<text text-anchor="start" x="602" y="-524" font-family="Helvetica,sans-Serif" text-decoration="underline" font-size="20.00">TextbookISBN</text>
<polygon fill="none" stroke="black" points="597,-480 597,-512 763,-512 763,-480 597,-480"/>
<text text-anchor="start" x="602" y="-491" font-family="Helvetica,sans-Serif" font-size="20.00">TextbookTitle</text>
<polygon fill="none" stroke="black" points="597,-448 597,-480 763,-480 763,-448 597,-448"/>
<text text-anchor="start" x="602" y="-459" font-family="Helvetica,sans-Serif" font-size="20.00">TextbookAuthor</text>
</g>
<!-- Course -->
<g id="node5" class="node">
<title>Course</title>
<polygon fill="#ececfc" stroke="transparent" points="324,-448 324,-572 472,-572 472,-448 324,-448"/>
<polygon fill="none" stroke="black" points="324,-544 324,-572 472,-572 472,-544 324,-544"/>
<text text-anchor="start" x="366" y="-555.2" font-family="Helvetica,sans-Serif" font-weight="bold" font-size="16.00">Course</text>
<polygon fill="none" stroke="black" points="324,-512 324,-544 472,-544 472,-512 324,-512"/>
<text text-anchor="start" x="329" y="-524" font-family="Helvetica,sans-Serif" text-decoration="underline" font-size="20.00">CourseID</text>
<polygon fill="none" stroke="black" points="324,-480 324,-512 472,-512 472,-480 324,-480"/>
<text text-anchor="start" x="329" y="-491" font-family="Helvetica,sans-Serif" font-size="20.00">CourseName</text>
<polygon fill="none" stroke="black" points="324,-448 324,-480 472,-480 472,-448 324,-448"/>
<text text-anchor="start" x="329" y="-460" font-family="Helvetica,sans-Serif" font-style="italic" font-size="20.00">TextbookISBN</text>
</g>
<!-- Course&#45;&#45;Textbook -->
<g id="edge3" class="edge">
<title>Course&#45;&#45;Textbook</title>
<path fill="none" stroke="#7f7f7f" stroke-dasharray="5,2" d="M480.36,-510C514.27,-510 553.78,-510 588.59,-510"/>
<text text-anchor="start" x="578.59" y="-498.8" font-family="Times,serif" font-size="14.00">1</text>
<text text-anchor="start" x="480.36" y="-498.8" font-family="Times,serif" font-size="14.00">0..N</text>
</g>
<!-- Person -->
<g id="node6" class="node">
<title>Person</title>
<polygon fill="#ececfc" stroke="transparent" points="288,-242 288,-366 508,-366 508,-242 288,-242"/>
<polygon fill="none" stroke="black" points="288,-338 288,-366 508,-366 508,-338 288,-338"/>
<text text-anchor="start" x="366" y="-349.2" font-family="Helvetica,sans-Serif" font-weight="bold" font-size="16.00">Person</text>
<polygon fill="none" stroke="black" points="288,-306 288,-338 508,-338 508,-306 288,-306"/>
<text text-anchor="start" x="293" y="-318" font-family="Helvetica,sans-Serif" text-decoration="underline" font-size="20.00">PersonID</text>
<polygon fill="none" stroke="black" points="288,-274 288,-306 508,-306 508,-274 288,-274"/>
<text text-anchor="start" x="293" y="-285" font-family="Helvetica,sans-Serif" font-size="20.00">PersonPhoneNumber</text>
<polygon fill="none" stroke="black" points="288,-242 288,-274 508,-274 508,-242 288,-242"/>
<text text-anchor="start" x="293" y="-253" font-family="Helvetica,sans-Serif" font-size="20.00">PersonName</text>
</g>
<!-- Faculty -->
<g id="node7" class="node">
<title>Faculty</title>
<polygon fill="#ececfc" stroke="transparent" points="32,-336 32,-524 175,-524 175,-336 32,-336"/>
<polygon fill="none" stroke="black" points="32.5,-496 32.5,-524 175.5,-524 175.5,-496 32.5,-496"/>
<text text-anchor="start" x="71" y="-507.2" font-family="Helvetica,sans-Serif" font-weight="bold" font-size="16.00">Faculty</text>
<polygon fill="none" stroke="black" points="32.5,-464 32.5,-496 175.5,-496 175.5,-464 32.5,-464"/>
<text text-anchor="start" x="37.5" y="-476" font-family="Helvetica,sans-Serif" text-decoration="underline" font-size="20.00">FacultyID</text>
<polygon fill="none" stroke="black" points="32.5,-432 32.5,-464 175.5,-464 175.5,-432 32.5,-432"/>
<text text-anchor="start" x="37.5" y="-443" font-family="Helvetica,sans-Serif" font-size="20.00">FacultyTitle</text>
<polygon fill="none" stroke="black" points="32.5,-400 32.5,-432 175.5,-432 175.5,-400 32.5,-400"/>
<text text-anchor="start" x="37.5" y="-411" font-family="Helvetica,sans-Serif" font-size="20.00">FacultySalary</text>
<polygon fill="none" stroke="black" points="32.5,-368 32.5,-400 175.5,-400 175.5,-368 32.5,-368"/>
<text text-anchor="start" x="37.5" y="-379" font-family="Helvetica,sans-Serif" font-size="20.00">FacultyName</text>
<polygon fill="none" stroke="black" points="32.5,-336 32.5,-368 175.5,-368 175.5,-336 32.5,-336"/>
<text text-anchor="start" x="37.5" y="-348" font-family="Helvetica,sans-Serif" font-style="italic" font-size="20.00">PersonID</text>
</g>
<!-- Faculty&#45;&#45;Person -->
<g id="edge4" class="edge">
<title>Faculty&#45;&#45;Person</title>
<path fill="none" stroke="#7f7f7f" stroke-dasharray="5,2" d="M183.27,-396.07C212.97,-383.28 247.42,-368.44 279.87,-354.46"/>
<text text-anchor="start" x="269.87" y="-343.26" font-family="Times,serif" font-size="14.00">1</text>
<text text-anchor="start" x="183.27" y="-384.87" font-family="Times,serif" font-size="14.00">0..N</text>
</g>
<!-- Interns -->
<g id="node8" class="node">
<title>Interns</title>
<polygon fill="#ececfc" stroke="transparent" points="8,-186 8,-310 199,-310 199,-186 8,-186"/>
<polygon fill="none" stroke="black" points="8.5,-282 8.5,-310 199.5,-310 199.5,-282 8.5,-282"/>
<text text-anchor="start" x="71.5" y="-293.2" font-family="Helvetica,sans-Serif" font-weight="bold" font-size="16.00">Interns</text>
<polygon fill="none" stroke="black" points="8.5,-250 8.5,-282 199.5,-282 199.5,-250 8.5,-250"/>
<text text-anchor="start" x="13.5" y="-262" font-family="Helvetica,sans-Serif" text-decoration="underline" font-size="20.00">InternID</text>
<polygon fill="none" stroke="black" points="8.5,-218 8.5,-250 199.5,-250 199.5,-218 8.5,-218"/>
<text text-anchor="start" x="13.5" y="-230" font-family="Helvetica,sans-Serif" font-style="italic" font-size="20.00">PersonID</text>
<polygon fill="none" stroke="black" points="8.5,-186 8.5,-218 199.5,-218 199.5,-186 8.5,-186"/>
<text text-anchor="start" x="13.5" y="-197" font-family="Helvetica,sans-Serif" font-size="20.00">InternHourlyWage</text>
</g>
<!-- Interns&#45;&#45;Person -->
<g id="edge5" class="edge">
<title>Interns&#45;&#45;Person</title>
<path fill="none" stroke="#7f7f7f" stroke-dasharray="5,2" d="M207.21,-267.66C230.67,-272.16 255.77,-276.96 279.78,-281.56"/>
<text text-anchor="start" x="269.78" y="-270.36" font-family="Times,serif" font-size="14.00">1</text>
<text text-anchor="start" x="207.21" y="-256.46" font-family="Times,serif" font-size="14.00">0..N</text>
</g>
<!-- Section -->
<g id="node9" class="node">
<title>Section</title>
<polygon fill="#ececfc" stroke="transparent" points="29,-550 29,-770 178,-770 178,-550 29,-550"/>
<polygon fill="none" stroke="black" points="29.5,-742 29.5,-770 178.5,-770 178.5,-742 29.5,-742"/>
<text text-anchor="start" x="70.5" y="-753.2" font-family="Helvetica,sans-Serif" font-weight="bold" font-size="16.00">Section</text>
<polygon fill="none" stroke="black" points="29.5,-710 29.5,-742 178.5,-742 178.5,-710 29.5,-710"/>
<text text-anchor="start" x="34.5" y="-722" font-family="Helvetica,sans-Serif" text-decoration="underline" font-size="20.00">SectionID</text>
<polygon fill="none" stroke="black" points="29.5,-678 29.5,-710 178.5,-710 178.5,-678 29.5,-678"/>
<text text-anchor="start" x="34.5" y="-689" font-family="Helvetica,sans-Serif" font-size="20.00">SectionDate</text>
<polygon fill="none" stroke="black" points="29.5,-646 29.5,-678 178.5,-678 178.5,-646 29.5,-646"/>
<text text-anchor="start" x="34.5" y="-658" font-family="Helvetica,sans-Serif" font-style="italic" font-size="20.00">RoomNumber</text>
<polygon fill="none" stroke="black" points="29.5,-614 29.5,-646 178.5,-646 178.5,-614 29.5,-614"/>
<text text-anchor="start" x="34.5" y="-626" font-family="Helvetica,sans-Serif" font-style="italic" font-size="20.00">CourseID</text>
<polygon fill="none" stroke="black" points="29.5,-582 29.5,-614 178.5,-614 178.5,-582 29.5,-582"/>
<text text-anchor="start" x="34.5" y="-594" font-family="Helvetica,sans-Serif" font-style="italic" font-size="20.00">BuildingID</text>
<polygon fill="none" stroke="black" points="29.5,-550 29.5,-582 178.5,-582 178.5,-550 29.5,-550"/>
<text text-anchor="start" x="34.5" y="-562" font-family="Helvetica,sans-Serif" font-style="italic" font-size="20.00">PersonID</text>
</g>
<!-- Section&#45;&#45;Buildings -->
<g id="edge7" class="edge">
<title>Section&#45;&#45;Buildings</title>
<path fill="none" stroke="#7f7f7f" stroke-dasharray="5,2" d="M186.18,-703C215.01,-715.97 248.19,-728.49 280,-735 382.76,-756.04 412.14,-749.67 516,-735 542.97,-731.19 571.74,-724 597.47,-716.36"/>
<text text-anchor="start" x="587.47" y="-705.16" font-family="Times,serif" font-size="14.00">1</text>
<text text-anchor="start" x="186.18" y="-691.8" font-family="Times,serif" font-size="14.00">0..N</text>
</g>
<!-- Section&#45;&#45;Classrooms -->
<g id="edge9" class="edge">
<title>Section&#45;&#45;Classrooms</title>
<path fill="none" stroke="#7f7f7f" stroke-dasharray="5,2" d="M186.37,-660C226.84,-660 275.54,-660 315.91,-660"/>
<text text-anchor="start" x="305.91" y="-648.8" font-family="Times,serif" font-size="14.00">1</text>
<text text-anchor="start" x="186.37" y="-648.8" font-family="Times,serif" font-size="14.00">0..N</text>
</g>
<!-- Section&#45;&#45;Course -->
<g id="edge6" class="edge">
<title>Section&#45;&#45;Course</title>
<path fill="none" stroke="#7f7f7f" stroke-dasharray="5,2" d="M186.37,-618.02C226.84,-597.26 275.54,-572.29 315.91,-551.58"/>
<text text-anchor="start" x="305.91" y="-540.38" font-family="Times,serif" font-size="14.00">1</text>
<text text-anchor="start" x="186.37" y="-606.82" font-family="Times,serif" font-size="14.00">0..N</text>
</g>
<!-- Section&#45;&#45;Person -->
<g id="edge8" class="edge">
<title>Section&#45;&#45;Person</title>
<path fill="none" stroke="#7f7f7f" stroke-dasharray="5,2" d="M186.03,-563.52C193.2,-554.62 200.29,-545.69 207,-537 241.09,-492.89 245.16,-478.52 280,-435 297.34,-413.34 317.14,-390.52 335.45,-370.11"/>
<text text-anchor="start" x="325.45" y="-373.91" font-family="Times,serif" font-size="14.00">1</text>
<text text-anchor="start" x="186.03" y="-552.32" font-family="Times,serif" font-size="14.00">0..N</text>
</g>
<!-- Student -->
<g id="node10" class="node">
<title>Student</title>
<polygon fill="#ececfc" stroke="transparent" points="30,-4 30,-160 177,-160 177,-4 30,-4"/>
<polygon fill="none" stroke="black" points="30.5,-132 30.5,-160 177.5,-160 177.5,-132 30.5,-132"/>
<text text-anchor="start" x="68.5" y="-143.2" font-family="Helvetica,sans-Serif" font-weight="bold" font-size="16.00">Student</text>
<polygon fill="none" stroke="black" points="30.5,-100 30.5,-132 177.5,-132 177.5,-100 30.5,-100"/>
<text text-anchor="start" x="35.5" y="-112" font-family="Helvetica,sans-Serif" text-decoration="underline" font-size="20.00">StudentID</text>
<polygon fill="none" stroke="black" points="30.5,-68 30.5,-100 177.5,-100 177.5,-68 30.5,-68"/>
<text text-anchor="start" x="35.5" y="-79" font-family="Helvetica,sans-Serif" font-size="20.00">StudentGPA</text>
<polygon fill="none" stroke="black" points="30.5,-36 30.5,-68 177.5,-68 177.5,-36 30.5,-36"/>
<text text-anchor="start" x="35.5" y="-47" font-family="Helvetica,sans-Serif" font-size="20.00">StudentName</text>
<polygon fill="none" stroke="black" points="30.5,-4 30.5,-36 177.5,-36 177.5,-4 30.5,-4"/>
<text text-anchor="start" x="35.5" y="-16" font-family="Helvetica,sans-Serif" font-style="italic" font-size="20.00">PersonID</text>
</g>
<!-- Student&#45;&#45;Person -->
<g id="edge10" class="edge">
<title>Student&#45;&#45;Person</title>
<path fill="none" stroke="#7f7f7f" stroke-dasharray="5,2" d="M185.2,-143.25C223.92,-172.64 270.38,-207.9 309.9,-237.89"/>
<text text-anchor="start" x="299.9" y="-226.69" font-family="Times,serif" font-size="14.00">1</text>
<text text-anchor="start" x="185.2" y="-132.05" font-family="Times,serif" font-size="14.00">0..N</text>
</g>
</g>
</svg>
