<?xml version="1.0" encoding="UTF-8" standalone="no"?>
<!DOCTYPE svg PUBLIC "-//W3C//DTD SVG 1.1//EN"
 "http://www.w3.org/Graphics/SVG/1.1/DTD/svg11.dtd">
<!-- Generated by graphviz version 2.43.0 (0)
 -->
<!-- Title: G Pages: 1 -->
<svg width="944pt" height="763pt"
 viewBox="0.00 0.00 943.80 763.30" xmlns="http://www.w3.org/2000/svg" xmlns:xlink="http://www.w3.org/1999/xlink">
<g id="graph0" class="graph" transform="scale(1 1) rotate(0) translate(14.4 748.9)">
<title>G</title>
<polygon fill="white" stroke="transparent" points="-14.4,14.4 -14.4,-748.9 929.4,-748.9 929.4,14.4 -14.4,14.4"/>
<!-- College -->
<g id="node1" class="node">
<title>College</title>
<polygon fill="none" stroke="black" points="717,-603.5 717,-624.5 915,-624.5 915,-603.5 717,-603.5"/>
<text text-anchor="start" x="790" y="-611.3" font-family="Helvetica,sans-Serif" font-style="italic" font-size="14.00">College</text>
<polygon fill="none" stroke="black" points="717,-576.5 717,-603.5 915,-603.5 915,-576.5 717,-576.5"/>
<text text-anchor="start" x="723" y="-587.3" font-family="Helvetica,sans-Serif" font-size="14.00">PK CollegeName </text>
<text text-anchor="start" x="841" y="-587.3" font-family="Helvetica,sans-Serif" font-size="14.00" fill="#999999">VARCHAR</text>
<polygon fill="none" stroke="black" points="717,-549.5 717,-576.5 915,-576.5 915,-549.5 717,-549.5"/>
<text text-anchor="start" x="723" y="-560.3" font-family="Helvetica,sans-Serif" font-size="14.00">CollegeTotalStudents </text>
<text text-anchor="start" x="874" y="-560.3" font-family="Helvetica,sans-Serif" font-size="14.00" fill="#999999">INT</text>
</g>
<!-- Buildings -->
<g id="node2" class="node">
<title>Buildings</title>
<polygon fill="none" stroke="black" points="483,-658.5 483,-679.5 681,-679.5 681,-658.5 483,-658.5"/>
<text text-anchor="start" x="549.5" y="-666.3" font-family="Helvetica,sans-Serif" font-style="italic" font-size="14.00">Buildings</text>
<polygon fill="none" stroke="black" points="483,-631.5 483,-658.5 681,-658.5 681,-631.5 483,-631.5"/>
<text text-anchor="start" x="489" y="-642.3" font-family="Helvetica,sans-Serif" font-size="14.00">PK BuildingID </text>
<text text-anchor="start" x="588" y="-642.3" font-family="Helvetica,sans-Serif" font-size="14.00" fill="#999999">INT</text>
<polygon fill="none" stroke="black" points="483,-604.5 483,-631.5 681,-631.5 681,-604.5 483,-604.5"/>
<text text-anchor="start" x="489" y="-615.3" font-family="Helvetica,sans-Serif" font-size="14.00">BuildingName </text>
<text text-anchor="start" x="592" y="-615.3" font-family="Helvetica,sans-Serif" font-size="14.00" fill="#999999">VARCHAR</text>
<polygon fill="none" stroke="black" points="483,-577.5 483,-604.5 681,-604.5 681,-577.5 483,-577.5"/>
<text text-anchor="start" x="489" y="-588.3" font-family="Helvetica,sans-Serif" font-size="14.00">FK CollegeName </text>
<text text-anchor="start" x="607" y="-588.3" font-family="Helvetica,sans-Serif" font-size="14.00" fill="#999999">VARCHAR</text>
</g>
<!-- Buildings&#45;&gt;College -->
<g id="edge1" class="edge">
<title>Buildings:CollegeName&#45;&gt;College:CollegeName</title>
<path fill="none" stroke="black" d="M690.03,-590.5C696.71,-590.5 701.26,-590.5 707.94,-590.5"/>
<polygon fill="black" stroke="black" points="690,-590.5 681,-586.45 685.5,-590.5 681,-590.5 681,-590.5 681,-590.5 685.5,-590.5 681,-594.55 690,-590.5 690,-590.5"/>
<polyline fill="none" stroke="black" points="717,-590.5 712.5,-590.5 "/>
<polygon fill="black" stroke="black" points="711.6,-586 711.6,-595 709.8,-595 709.8,-586 711.6,-586"/>
<polyline fill="none" stroke="black" points="712.5,-590.5 708,-590.5 "/>
</g>
<!-- Classrooms -->
<g id="node3" class="node">
<title>Classrooms</title>
<polygon fill="none" stroke="black" points="245.5,-713.5 245.5,-734.5 417.5,-734.5 417.5,-713.5 245.5,-713.5"/>
<text text-anchor="start" x="291" y="-721.3" font-family="Helvetica,sans-Serif" font-style="italic" font-size="14.00">Classrooms</text>
<polygon fill="none" stroke="black" points="245.5,-686.5 245.5,-713.5 417.5,-713.5 417.5,-686.5 245.5,-686.5"/>
<text text-anchor="start" x="251.5" y="-697.3" font-family="Helvetica,sans-Serif" font-size="14.00">PK RoomNumber </text>
<text text-anchor="start" x="374.5" y="-697.3" font-family="Helvetica,sans-Serif" font-size="14.00" fill="#999999">INT</text>
<polygon fill="none" stroke="black" points="245.5,-659.5 245.5,-686.5 417.5,-686.5 417.5,-659.5 245.5,-659.5"/>
<text text-anchor="start" x="251.5" y="-670.3" font-family="Helvetica,sans-Serif" font-size="14.00">HasProjector </text>
<text text-anchor="start" x="343.5" y="-670.3" font-family="Helvetica,sans-Serif" font-size="14.00" fill="#999999">VARCHAR</text>
<polygon fill="none" stroke="black" points="245.5,-632.5 245.5,-659.5 417.5,-659.5 417.5,-632.5 245.5,-632.5"/>
<text text-anchor="start" x="251.5" y="-643.3" font-family="Helvetica,sans-Serif" font-size="14.00">FK BuildingID </text>
<text text-anchor="start" x="350.5" y="-643.3" font-family="Helvetica,sans-Serif" font-size="14.00" fill="#999999">INT</text>
</g>
<!-- Classrooms&#45;&gt;Buildings -->
<g id="edge2" class="edge">
<title>Classrooms:BuildingID&#45;&gt;Buildings:BuildingID</title>
<path fill="none" stroke="black" d="M427.76,-645.5C446.3,-645.5 455.2,-645.5 473.73,-645.5"/>
<polygon fill="black" stroke="black" points="427.5,-645.5 418.5,-641.45 423,-645.5 418.5,-645.5 418.5,-645.5 418.5,-645.5 423,-645.5 418.5,-649.55 427.5,-645.5 427.5,-645.5"/>
<polyline fill="none" stroke="black" points="483,-645.5 478.5,-645.5 "/>
<polygon fill="black" stroke="black" points="477.6,-641 477.6,-650 475.8,-650 475.8,-641 477.6,-641"/>
<polyline fill="none" stroke="black" points="478.5,-645.5 474,-645.5 "/>
</g>
<!-- Textbook -->
<g id="node4" class="node">
<title>Textbook</title>
<polygon fill="none" stroke="black" points="485,-520.5 485,-541.5 680,-541.5 680,-520.5 485,-520.5"/>
<text text-anchor="start" x="551" y="-528.3" font-family="Helvetica,sans-Serif" font-style="italic" font-size="14.00">Textbook</text>
<polygon fill="none" stroke="black" points="485,-493.5 485,-520.5 680,-520.5 680,-493.5 485,-493.5"/>
<text text-anchor="start" x="491" y="-504.3" font-family="Helvetica,sans-Serif" font-size="14.00">PK TextbookISBN </text>
<text text-anchor="start" x="614" y="-504.3" font-family="Helvetica,sans-Serif" font-size="14.00" fill="#999999">INT</text>
<polygon fill="none" stroke="black" points="485,-466.5 485,-493.5 680,-493.5 680,-466.5 485,-466.5"/>
<text text-anchor="start" x="491" y="-477.3" font-family="Helvetica,sans-Serif" font-size="14.00">TextbookTitle </text>
<text text-anchor="start" x="588" y="-477.3" font-family="Helvetica,sans-Serif" font-size="14.00" fill="#999999">VARCHAR</text>
<polygon fill="none" stroke="black" points="485,-439.5 485,-466.5 680,-466.5 680,-439.5 485,-439.5"/>
<text text-anchor="start" x="491" y="-450.3" font-family="Helvetica,sans-Serif" font-size="14.00">TextbookAuthor </text>
<text text-anchor="start" x="606" y="-450.3" font-family="Helvetica,sans-Serif" font-size="14.00" fill="#999999">VARCHAR</text>
</g>
<!-- Course -->
<g id="node5" class="node">
<title>Course</title>
<polygon fill="none" stroke="black" points="244.5,-575.5 244.5,-596.5 418.5,-596.5 418.5,-575.5 244.5,-575.5"/>
<text text-anchor="start" x="307" y="-583.3" font-family="Helvetica,sans-Serif" font-style="italic" font-size="14.00">Course</text>
<polygon fill="none" stroke="black" points="244.5,-548.5 244.5,-575.5 418.5,-575.5 418.5,-548.5 244.5,-548.5"/>
<text text-anchor="start" x="250.5" y="-559.3" font-family="Helvetica,sans-Serif" font-size="14.00">PK CourseID </text>
<text text-anchor="start" x="341.5" y="-559.3" font-family="Helvetica,sans-Serif" font-size="14.00" fill="#999999">INT</text>
<polygon fill="none" stroke="black" points="244.5,-521.5 244.5,-548.5 418.5,-548.5 418.5,-521.5 244.5,-521.5"/>
<text text-anchor="start" x="250.5" y="-532.3" font-family="Helvetica,sans-Serif" font-size="14.00">CourseName </text>
<text text-anchor="start" x="344.5" y="-532.3" font-family="Helvetica,sans-Serif" font-size="14.00" fill="#999999">VARCHAR</text>
<polygon fill="none" stroke="black" points="244.5,-494.5 244.5,-521.5 418.5,-521.5 418.5,-494.5 244.5,-494.5"/>
<text text-anchor="start" x="250.5" y="-505.3" font-family="Helvetica,sans-Serif" font-size="14.00">FK TextbookISBN </text>
<text text-anchor="start" x="373.5" y="-505.3" font-family="Helvetica,sans-Serif" font-size="14.00" fill="#999999">INT</text>
</g>
<!-- Course&#45;&gt;Textbook -->
<g id="edge3" class="edge">
<title>Course:TextbookISBN&#45;&gt;Textbook:TextbookISBN</title>
<path fill="none" stroke="black" d="M428.76,-507.5C447.3,-507.5 456.2,-507.5 474.73,-507.5"/>
<polygon fill="black" stroke="black" points="428.5,-507.5 419.5,-503.45 424,-507.5 419.5,-507.5 419.5,-507.5 419.5,-507.5 424,-507.5 419.5,-511.55 428.5,-507.5 428.5,-507.5"/>
<polyline fill="none" stroke="black" points="484,-507.5 479.5,-507.5 "/>
<polygon fill="black" stroke="black" points="478.6,-503 478.6,-512 476.8,-512 476.8,-503 478.6,-503"/>
<polyline fill="none" stroke="black" points="479.5,-507.5 475,-507.5 "/>
</g>
<!-- Person -->
<g id="node6" class="node">
<title>Person</title>
<polygon fill="none" stroke="black" points="216.5,-274.5 216.5,-295.5 447.5,-295.5 447.5,-274.5 216.5,-274.5"/>
<text text-anchor="start" x="308" y="-282.3" font-family="Helvetica,sans-Serif" font-style="italic" font-size="14.00">Person</text>
<polygon fill="none" stroke="black" points="216.5,-247.5 216.5,-274.5 447.5,-274.5 447.5,-247.5 216.5,-247.5"/>
<text text-anchor="start" x="222.5" y="-258.3" font-family="Helvetica,sans-Serif" font-size="14.00">PK PersonID </text>
<text text-anchor="start" x="311.5" y="-258.3" font-family="Helvetica,sans-Serif" font-size="14.00" fill="#999999">INT</text>
<polygon fill="none" stroke="black" points="216.5,-220.5 216.5,-247.5 447.5,-247.5 447.5,-220.5 216.5,-220.5"/>
<text text-anchor="start" x="222.5" y="-231.3" font-family="Helvetica,sans-Serif" font-size="14.00">PersonPhoneNumber </text>
<text text-anchor="start" x="373.5" y="-231.3" font-family="Helvetica,sans-Serif" font-size="14.00" fill="#999999">VARCHAR</text>
<polygon fill="none" stroke="black" points="216.5,-193.5 216.5,-220.5 447.5,-220.5 447.5,-193.5 216.5,-193.5"/>
<text text-anchor="start" x="222.5" y="-204.3" font-family="Helvetica,sans-Serif" font-size="14.00">PersonName </text>
<text text-anchor="start" x="315.5" y="-204.3" font-family="Helvetica,sans-Serif" font-size="14.00" fill="#999999">VARCHAR</text>
</g>
<!-- Faculty -->
<g id="node7" class="node">
<title>Faculty</title>
<polygon fill="none" stroke="black" points="3,-438.5 3,-459.5 178,-459.5 178,-438.5 3,-438.5"/>
<text text-anchor="start" x="65" y="-446.3" font-family="Helvetica,sans-Serif" font-style="italic" font-size="14.00">Faculty</text>
<polygon fill="none" stroke="black" points="3,-411.5 3,-438.5 178,-438.5 178,-411.5 3,-411.5"/>
<text text-anchor="start" x="9" y="-422.3" font-family="Helvetica,sans-Serif" font-size="14.00">PK FacultyID </text>
<text text-anchor="start" x="100" y="-422.3" font-family="Helvetica,sans-Serif" font-size="14.00" fill="#999999">INT</text>
<polygon fill="none" stroke="black" points="3,-384.5 3,-411.5 178,-411.5 178,-384.5 3,-384.5"/>
<text text-anchor="start" x="9" y="-395.3" font-family="Helvetica,sans-Serif" font-size="14.00">FacultyTitle </text>
<text text-anchor="start" x="93" y="-395.3" font-family="Helvetica,sans-Serif" font-size="14.00" fill="#999999">VARCHAR</text>
<polygon fill="none" stroke="black" points="3,-357.5 3,-384.5 178,-384.5 178,-357.5 3,-357.5"/>
<text text-anchor="start" x="9" y="-368.3" font-family="Helvetica,sans-Serif" font-size="14.00">FacultySalary </text>
<text text-anchor="start" x="107" y="-368.3" font-family="Helvetica,sans-Serif" font-size="14.00" fill="#999999">INT</text>
<polygon fill="none" stroke="black" points="3,-330.5 3,-357.5 178,-357.5 178,-330.5 3,-330.5"/>
<text text-anchor="start" x="9" y="-341.3" font-family="Helvetica,sans-Serif" font-size="14.00">FacultyName </text>
<text text-anchor="start" x="104" y="-341.3" font-family="Helvetica,sans-Serif" font-size="14.00" fill="#999999">VARCHAR</text>
<polygon fill="none" stroke="black" points="3,-303.5 3,-330.5 178,-330.5 178,-303.5 3,-303.5"/>
<text text-anchor="start" x="9" y="-314.3" font-family="Helvetica,sans-Serif" font-size="14.00">FK PersonID </text>
<text text-anchor="start" x="98" y="-314.3" font-family="Helvetica,sans-Serif" font-size="14.00" fill="#999999">INT</text>
</g>
<!-- Faculty&#45;&gt;Person -->
<g id="edge4" class="edge">
<title>Faculty:PersonID&#45;&gt;Person:PersonID</title>
<path fill="none" stroke="black" d="M187.84,-314.14C201.54,-305.09 193.45,-272.72 207.27,-263.79"/>
<polygon fill="black" stroke="black" points="187.69,-314.18 177.95,-312.59 183.35,-315.34 179,-316.5 179,-316.5 179,-316.5 183.35,-315.34 180.05,-320.41 187.69,-314.18 187.69,-314.18"/>
<polyline fill="none" stroke="black" points="216,-261.5 211.65,-262.64 "/>
<polygon fill="black" stroke="black" points="209.63,-258.52 211.92,-267.22 210.18,-267.68 207.89,-258.98 209.63,-258.52"/>
<polyline fill="none" stroke="black" points="211.65,-262.64 207.3,-263.79 "/>
</g>
<!-- Interns -->
<g id="node8" class="node">
<title>Interns</title>
<polygon fill="none" stroke="black" points="6,-246.5 6,-267.5 174,-267.5 174,-246.5 6,-246.5"/>
<text text-anchor="start" x="65" y="-254.3" font-family="Helvetica,sans-Serif" font-style="italic" font-size="14.00">Interns</text>
<polygon fill="none" stroke="black" points="6,-219.5 6,-246.5 174,-246.5 174,-219.5 6,-219.5"/>
<text text-anchor="start" x="12" y="-230.3" font-family="Helvetica,sans-Serif" font-size="14.00">PK InternID </text>
<text text-anchor="start" x="96" y="-230.3" font-family="Helvetica,sans-Serif" font-size="14.00" fill="#999999">INT</text>
<polygon fill="none" stroke="black" points="6,-192.5 6,-219.5 174,-219.5 174,-192.5 6,-192.5"/>
<text text-anchor="start" x="12" y="-203.3" font-family="Helvetica,sans-Serif" font-size="14.00">FK PersonID </text>
<text text-anchor="start" x="101" y="-203.3" font-family="Helvetica,sans-Serif" font-size="14.00" fill="#999999">INT</text>
<polygon fill="none" stroke="black" points="6,-165.5 6,-192.5 174,-192.5 174,-165.5 6,-165.5"/>
<text text-anchor="start" x="12" y="-176.3" font-family="Helvetica,sans-Serif" font-size="14.00">InternHourlyWage </text>
<text text-anchor="start" x="144" y="-176.3" font-family="Helvetica,sans-Serif" font-size="14.00" fill="#999999">INT</text>
</g>
<!-- Interns&#45;&gt;Person -->
<g id="edge5" class="edge">
<title>Interns:PersonID&#45;&gt;Person:PersonID</title>
<path fill="none" stroke="black" d="M183.89,-207.63C199.34,-216.5 191.66,-250.5 207.11,-259.37"/>
<polygon fill="black" stroke="black" points="183.75,-207.59 175.94,-201.56 179.38,-206.55 175,-205.5 175,-205.5 175,-205.5 179.38,-206.55 174.06,-209.44 183.75,-207.59 183.75,-207.59"/>
<polyline fill="none" stroke="black" points="216,-261.5 211.62,-260.45 "/>
<polygon fill="black" stroke="black" points="211.8,-255.87 209.7,-264.62 207.95,-264.2 210.05,-255.45 211.8,-255.87"/>
<polyline fill="none" stroke="black" points="211.62,-260.45 207.25,-259.4 "/>
</g>
<!-- Section -->
<g id="node9" class="node">
<title>Section</title>
<polygon fill="none" stroke="black" points="11,-657.5 11,-678.5 170,-678.5 170,-657.5 11,-657.5"/>
<text text-anchor="start" x="64.5" y="-665.3" font-family="Helvetica,sans-Serif" font-style="italic" font-size="14.00">Section</text>
<polygon fill="none" stroke="black" points="11,-630.5 11,-657.5 170,-657.5 170,-630.5 11,-630.5"/>
<text text-anchor="start" x="17" y="-641.3" font-family="Helvetica,sans-Serif" font-size="14.00">PK SectionID </text>
<text text-anchor="start" x="110" y="-641.3" font-family="Helvetica,sans-Serif" font-size="14.00" fill="#999999">INT</text>
<polygon fill="none" stroke="black" points="11,-603.5 11,-630.5 170,-630.5 170,-603.5 11,-603.5"/>
<text text-anchor="start" x="17" y="-614.3" font-family="Helvetica,sans-Serif" font-size="14.00">SectionDate </text>
<text text-anchor="start" x="105" y="-614.3" font-family="Helvetica,sans-Serif" font-size="14.00" fill="#999999">DATE</text>
<polygon fill="none" stroke="black" points="11,-576.5 11,-603.5 170,-603.5 170,-576.5 11,-576.5"/>
<text text-anchor="start" x="17" y="-587.3" font-family="Helvetica,sans-Serif" font-size="14.00">FK RoomNumber </text>
<text text-anchor="start" x="140" y="-587.3" font-family="Helvetica,sans-Serif" font-size="14.00" fill="#999999">INT</text>
<polygon fill="none" stroke="black" points="11,-549.5 11,-576.5 170,-576.5 170,-549.5 11,-549.5"/>
<text text-anchor="start" x="17" y="-560.3" font-family="Helvetica,sans-Serif" font-size="14.00">FK CourseID </text>
<text text-anchor="start" x="108" y="-560.3" font-family="Helvetica,sans-Serif" font-size="14.00" fill="#999999">INT</text>
<polygon fill="none" stroke="black" points="11,-522.5 11,-549.5 170,-549.5 170,-522.5 11,-522.5"/>
<text text-anchor="start" x="17" y="-533.3" font-family="Helvetica,sans-Serif" font-size="14.00">FK BuildingID </text>
<text text-anchor="start" x="116" y="-533.3" font-family="Helvetica,sans-Serif" font-size="14.00" fill="#999999">INT</text>
<polygon fill="none" stroke="black" points="11,-495.5 11,-522.5 170,-522.5 170,-495.5 11,-495.5"/>
<text text-anchor="start" x="17" y="-506.3" font-family="Helvetica,sans-Serif" font-size="14.00">FK PersonID </text>
<text text-anchor="start" x="106" y="-506.3" font-family="Helvetica,sans-Serif" font-size="14.00" fill="#999999">INT</text>
</g>
<!-- Section&#45;&gt;Buildings -->
<g id="edge7" class="edge">
<title>Section:BuildingID&#45;&gt;Buildings:BuildingID</title>
<path fill="none" stroke="black" d="M180.14,-534C200.71,-526.15 189.68,-489.53 216,-476.5 308.01,-430.96 367.2,-411.91 447,-476.5 504.01,-522.65 414.91,-634.8 473.69,-644.79"/>
<polygon fill="black" stroke="black" points="179.88,-534.05 170.35,-531.5 175.44,-534.77 171,-535.5 171,-535.5 171,-535.5 175.44,-534.77 171.65,-539.5 179.88,-534.05 179.88,-534.05"/>
<polyline fill="none" stroke="black" points="483,-645.5 478.51,-645.16 "/>
<polygon fill="black" stroke="black" points="477.96,-640.6 477.27,-649.57 475.48,-649.44 476.16,-640.46 477.96,-640.6"/>
<polyline fill="none" stroke="black" points="478.51,-645.16 474.03,-644.81 "/>
</g>
<!-- Section&#45;&gt;Classrooms -->
<g id="edge9" class="edge">
<title>Section:RoomNumber&#45;&gt;Classrooms:RoomNumber</title>
<path fill="none" stroke="black" d="M180.04,-591.52C222.4,-601.94 193.11,-688.96 235.39,-699.46"/>
<polygon fill="black" stroke="black" points="179.94,-591.51 171.45,-586.48 175.47,-591 171,-590.5 171,-590.5 171,-590.5 175.47,-591 170.55,-594.52 179.94,-591.51 179.94,-591.51"/>
<polyline fill="none" stroke="black" points="244.5,-700.5 240.03,-699.99 "/>
<polygon fill="black" stroke="black" points="239.64,-695.42 238.63,-704.36 236.84,-704.16 237.85,-695.22 239.64,-695.42"/>
<polyline fill="none" stroke="black" points="240.03,-699.99 235.56,-699.48 "/>
</g>
<!-- Section&#45;&gt;Course -->
<g id="edge6" class="edge">
<title>Section:CourseID&#45;&gt;Course:CourseID</title>
<path fill="none" stroke="black" d="M180.12,-562.5C202.28,-562.5 212.21,-562.5 234.36,-562.5"/>
<polygon fill="black" stroke="black" points="180,-562.5 171,-558.45 175.5,-562.5 171,-562.5 171,-562.5 171,-562.5 175.5,-562.5 171,-566.55 180,-562.5 180,-562.5"/>
<polyline fill="none" stroke="black" points="243.5,-562.5 239,-562.5 "/>
<polygon fill="black" stroke="black" points="238.1,-558 238.1,-567 236.3,-567 236.3,-558 238.1,-558"/>
<polyline fill="none" stroke="black" points="239,-562.5 234.5,-562.5 "/>
</g>
<!-- Section&#45;&gt;Person -->
<g id="edge8" class="edge">
<title>Section:PersonID&#45;&gt;Person:PersonID</title>
<path fill="none" stroke="black" d="M179.84,-505.89C216.57,-481.25 170.55,-289.61 206.93,-264.26"/>
<polygon fill="black" stroke="black" points="179.63,-505.96 169.85,-504.62 175.32,-507.23 171,-508.5 171,-508.5 171,-508.5 175.32,-507.23 172.15,-512.38 179.63,-505.96 179.63,-505.96"/>
<polyline fill="none" stroke="black" points="216,-261.5 211.7,-262.81 "/>
<polygon fill="black" stroke="black" points="209.52,-258.77 212.15,-267.38 210.42,-267.9 207.8,-259.29 209.52,-258.77"/>
<polyline fill="none" stroke="black" points="211.7,-262.81 207.39,-264.12 "/>
</g>
<!-- Student -->
<g id="node10" class="node">
<title>Student</title>
<polygon fill="none" stroke="black" points="0,-107.5 0,-128.5 180,-128.5 180,-107.5 0,-107.5"/>
<text text-anchor="start" x="62.5" y="-115.3" font-family="Helvetica,sans-Serif" font-style="italic" font-size="14.00">Student</text>
<polygon fill="none" stroke="black" points="0,-80.5 0,-107.5 180,-107.5 180,-80.5 0,-80.5"/>
<text text-anchor="start" x="6" y="-91.3" font-family="Helvetica,sans-Serif" font-size="14.00">PK StudentID </text>
<text text-anchor="start" x="103" y="-91.3" font-family="Helvetica,sans-Serif" font-size="14.00" fill="#999999">INT</text>
<polygon fill="none" stroke="black" points="0,-53.5 0,-80.5 180,-80.5 180,-53.5 0,-53.5"/>
<text text-anchor="start" x="6" y="-64.3" font-family="Helvetica,sans-Serif" font-size="14.00">StudentGPA </text>
<text text-anchor="start" x="94" y="-64.3" font-family="Helvetica,sans-Serif" font-size="14.00" fill="#999999">DOUBLE</text>
<polygon fill="none" stroke="black" points="0,-26.5 0,-53.5 180,-53.5 180,-26.5 0,-26.5"/>
<text text-anchor="start" x="6" y="-37.3" font-family="Helvetica,sans-Serif" font-size="14.00">StudentName </text>
<text text-anchor="start" x="106" y="-37.3" font-family="Helvetica,sans-Serif" font-size="14.00" fill="#999999">VARCHAR</text>
<polygon fill="none" stroke="black" points="0,0.5 0,-26.5 180,-26.5 180,0.5 0,0.5"/>
<text text-anchor="start" x="6" y="-10.3" font-family="Helvetica,sans-Serif" font-size="14.00">FK PersonID </text>
<text text-anchor="start" x="95" y="-10.3" font-family="Helvetica,sans-Serif" font-size="14.00" fill="#999999">INT</text>
</g>
<!-- Student&#45;&gt;Person -->
<g id="edge10" class="edge">
<title>Student:PersonID&#45;&gt;Person:PersonID</title>
<path fill="none" stroke="black" d="M189,-15.3C224.43,-40.84 171.55,-233.28 207.03,-258.72"/>
<polygon fill="black" stroke="black" points="188.59,-15.17 181.2,-8.63 184.3,-13.83 180,-12.5 180,-12.5 180,-12.5 184.3,-13.83 178.8,-16.37 188.59,-15.17 188.59,-15.17"/>
<polyline fill="none" stroke="black" points="216,-261.5 211.7,-260.17 "/>
<polygon fill="black" stroke="black" points="212.17,-255.61 209.51,-264.2 207.79,-263.67 210.45,-255.07 212.17,-255.61"/>
<polyline fill="none" stroke="black" points="211.7,-260.17 207.4,-258.84 "/>
</g>
</g>
</svg>
