<?xml version="1.0" encoding="UTF-8" standalone="no"?>
<!-- Created with Inkscape (http://www.inkscape.org/) -->

<svg
   xmlns:dc="http://purl.org/dc/elements/1.1/"
   xmlns:cc="http://creativecommons.org/ns#"
   xmlns:rdf="http://www.w3.org/1999/02/22-rdf-syntax-ns#"
   xmlns:svg="http://www.w3.org/2000/svg"
   xmlns="http://www.w3.org/2000/svg"
   xmlns:xlink="http://www.w3.org/1999/xlink"
   xmlns:sodipodi="http://sodipodi.sourceforge.net/DTD/sodipodi-0.dtd"
   xmlns:inkscape="http://www.inkscape.org/namespaces/inkscape"
   width="600"
   height="900"
   id="svg2"
   version="1.1"
   inkscape:version="0.48.3.1 r9886"
   sodipodi:docname="authorized_keys.svg"
   inkscape:export-filename="/home/ckhung/public_html/m/14/ssh/authorized_keys.png"
   inkscape:export-xdpi="90"
   inkscape:export-ydpi="90">
  <defs
     id="defs4">
    <mask
       maskUnits="userSpaceOnUse"
       id="mask3106">
      <path
         style="fill:#ffffff;stroke:#000000;stroke-width:1px;stroke-linecap:butt;stroke-linejoin:miter;stroke-opacity:1"
         d="m 293.54007,62.498766 c 0,0 53.60416,28.609806 5.03273,48.609804 -48.57143,20 -72.50285,4.74474 -72.50285,4.74474 0,0 38.21713,18.1124 35.35999,52.39812 -2.85714,34.28571 -71.42857,77.14286 -71.42857,77.14286 L 295.37858,197.5902 c 0,0 -13.94864,10.66123 -13.94864,36.37551 0,25.71429 35.86448,42.72314 35.86448,42.72314 0,0 -77.90212,20.44302 -91.46011,56.74846 -11.17535,29.92523 73.42004,43.31132 73.42004,43.31132 l -186.63524,1.0009 0,-315.250764 z"
         id="use3108"
         inkscape:connector-curvature="0"
         sodipodi:nodetypes="cscsccscscccc" />
    </mask>
    <clipPath
       clipPathUnits="userSpaceOnUse"
       id="clipPath3124">
      <rect
         style="fill:#ff0000;fill-opacity:1"
         id="rect3126"
         width="310.27783"
         height="295.2644"
         x="155.1389"
         y="73.485748" />
    </clipPath>
    <clipPath
       clipPathUnits="userSpaceOnUse"
       id="clipPath4282">
      <path
         inkscape:tile-y0="394.814"
         inkscape:tile-x0="-210.4165"
         style="stroke:#000000;stroke-opacity:1"
         inkscape:connector-curvature="0"
         id="use4284"
         d="m 170.61111,166.22022 c -3.4964,-1.6541 -7.5885,-3.8842 -9.0934,-4.9558 -1.9097,-1.3598 -3.0532,-1.6314 -3.7855,-0.89913 -1.3965,1.3965 -4.2975,-0.19635 -11.264,-6.1847 -4.9455,-4.2511 -14.567,-9.9514 -16.798,-9.9514 -0.47534,0 -1.4397,1.0753 -2.1431,2.3895 -1.4082,2.6313 -4.9478,4.5956 -8.3562,4.6375 -1.2116,0.0149 -3.8904,1.5959 -5.953,3.5135 -4.0692,3.7832 -4.4394,4.4595 -2.4411,4.4595 0.71988,0 2.1268,0.59812 3.1266,1.3292 1.4639,1.0704 1.6046,1.7274 0.7228,3.3751 -1.3171,2.461 -5.1583,3.7584 -5.1583,1.7423 0,-2.0542 -7.1407,-3.8418 -11.654001,-2.9174 -4.9234,1.0085 -11.345,1.1721 -11.346,0.28894 -0.001,-1.6428 6.1138,-4.8181 9.2788,-4.8181 6.464401,0 9.813601,-1.2594 14.406001,-5.4168 l 4.5789,-4.1456 -2.0052,-3.9688 c -1.1028,-2.1828 -2.7268,-6.477 -3.6087,-9.5427 -1.2914,-4.4888 -2.5347,-6.35899 -6.387,-9.60739 -2.6309,-2.2184 -6.609001,-4.9648 -8.840201,-6.1031 -5.4729,-2.7921 -6.1586,-3.8085 -7.7766,-11.527 -1.807,-8.62041 -3.8071,-11.68901 -7.6196,-11.68901 -1.7469,0 -3.3234,0.70563 -3.9097,1.75 -0.92133,1.6412 -1.0281,1.6314 -1.7172,-0.15758 -0.74386,-1.9314 -0.50133,-2.2095 7.2626,-8.329 3.4059,-2.6845 9.1243,-2.9556 15.428,-0.73146 8.068801,2.8468 11.069001,0.87119 17.513001,-11.531998 4.6518,-8.9538 12.924,-17.661 19.896,-20.941 4.9878,-2.3466 19.5,-4.2217 19.5,-2.5195 0,0.44152 -0.68334,1.5578 -1.5185,2.4807 -1.4099,1.558 -0.7484,1.7192 9.25,2.255 11.055,0.59243 32.566,4.8291 37.58901,7.4035 2.2935,1.1753 2.5977,1.7143 1.6276,2.8833 -0.65627,0.79075 -2.433,1.4377 -3.9483,1.4377 -1.5153,0 -3.36841,0.73896 -4.11801,1.6421 -1.181,1.423 -2.9651,1.5597 -13.372,1.0244 -6.6053,-0.33977 -14.26,-0.87657 -17.01,-1.1929 -4.4214,-0.50858 -3.6674,-0.0668 6.5159,3.8178 14.676,5.5983 28.10301,11.898998 29.82001,13.991998 0.73485,0.89585 1.0458,2.0985 0.69098,2.6726 -0.81382,1.3168 -6.97441,1.3495 -11.46701,0.0609 -1.8849,-0.54059 -3.5754,-0.83462 -3.7567,-0.6534 -0.18122,0.18123 1.7155,1.6221 4.2149,3.202 5.9039,3.7318 5.6909,6.0185 -0.5188,5.5701 -2.4648,-0.17796 -5.2729,-0.74715 -6.2402,-1.2649 -2.6283,-1.4066 -2.1298,-0.0881 1.2412,3.2829 4.5901,4.59011 3.7865,7.43451 -1.3157,4.65721 -1.2013,-0.6539 -3.8097,-1.2789 -5.7964,-1.3889 -1.9867,-0.10998 -4.5742,-0.5053 -5.75,-0.87848 -1.8094,-0.57428 -2.1378,-0.27928 -2.1378,1.9203 0,2.9789 -0.64664,3.3188 -7.5,3.9426 -2.75,0.2503 -5.9913,0.75814 -7.2028,1.1285 l -2.2028,0.67345 2.0875,2.8235 c 3.2365,4.3776 1.5318,6.5057 -4.9881,6.2272 -0.71845,-0.0307 -2.3288,0.96676 -3.5786,2.2166 -1.9482,1.9482 -2.0857,2.5276 -0.96406,4.0616 0.71957,0.98407 2.0675,3.85319 2.9954,6.37589 0.92788,2.5227 2.6245,5.6539 3.7703,6.9582 2.7547,3.1359 21.443,16.39 29.333,20.804 6.6368,3.7128 7.7897,5.3242 3.809,5.3242 -1.3425,0 -2.7191,0.45 -3.059,1 -0.8834,1.4294 -1.3016,1.3288 -8.3572,-2.009 z" />
    </clipPath>
    <clipPath
       clipPathUnits="userSpaceOnUse"
       id="clipPath4298">
      <g
         inkscape:tile-y0="610.45691"
         inkscape:tile-x0="-215.49924"
         style="stroke:#000000;stroke-opacity:1"
         id="use4300"
         inkscape:label="Layer 1"
         transform="matrix(0.27724626,0,0,0.27724626,44.64782,239.77445)">
        <path
           style="stroke:#000000;stroke-opacity:1"
           inkscape:connector-curvature="0"
           id="path4342"
           d="m 369.49,695.16 c -5.1,-0.41 -14.91,-1.81 -18.19,-2.59 -3.99,-0.95 -7.06,-2.24 -7.39,-3.1 -0.24,-0.62 1.27,-3.18 6.23,-10.56 2.67,-3.98 3.59,-5.75 4.6,-8.9 3.13,-9.76 5.27,-20.17 7.88,-38.34 1.81,-12.6 3.18,-20.84 4.51,-27.12 0.93,-4.36 1.01,-5.49 0.83,-10.93 -0.13,-3.94 -0.58,-8.21 -1.28,-12.14 -2.66,-15.01 -2.98,-19.84 -2.08,-31.58 0.36,-4.67 0.75,-8.95 0.86,-9.51 0.11,-0.55 0.65,-4.47 1.2,-8.7 0.54,-4.23 1.12,-8.4 1.27,-9.27 l 0.27,-1.58 -1.75,0.28 c -0.96,0.15 -3.91,0.06 -6.56,-0.22 -3.86,-0.39 -5.43,-0.39 -7.92,0.03 -7.03,1.17 -16.69,4.11 -33.27,10.15 -12.59,4.59 -23.89,8.31 -30.36,10.01 -7.52,1.97 -13.83,2.21 -24.11,0.92 -8.22,-1.03 -12.12,-0.94 -15.58,0.37 -2.79,1.05 -4.29,2.57 -6.62,6.72 -4.74,8.44 -4.79,8.48 -11.58,9.91 -6.37,1.34 -7.24,1.95 -9.46,6.67 -1.85,3.94 -2.15,4.79 -3.06,8.71 -1.43,6.24 -1.76,11.18 -1.53,23.44 0.38,20.83 3.2,34.88 10.92,54.48 4.01,10.17 3.76,9.8 11.44,16.92 3.21,2.97 7.07,8.59 7.36,10.7 0.4,2.98 -2.97,7.3 -7.16,9.18 -4.95,2.22 -10,2.19 -27.36,-0.15 -4.91,-0.66 -11.92,-1.5 -15.58,-1.85 -3.66,-0.36 -7.26,-0.74 -8.01,-0.85 l -1.36,-0.2 0.24,-2.1 c 0.71,-6.23 1.15,-16.07 0.93,-20.71 -0.3,-6.48 -1.3,-11.36 -4.11,-20.04 -3.18,-9.85 -4.51,-14.64 -5.48,-19.84 -0.47,-2.56 -1.29,-6.11 -1.82,-7.89 -2.58,-8.8 -3.69,-12.15 -4.03,-12.15 -0.64,0 -3.74,6.25 -5.73,11.54 -2.84,7.55 -4.79,12.53 -5.71,14.57 -6.97,15.53 -11.02,27.73 -11.67,35.22 -0.23,2.63 -0.12,3.51 0.79,6.4 1.43,4.53 1.39,5.82 -0.22,7.36 -2.03,1.94 -4.92,2.58 -10.24,2.28 -11.36,-0.66 -15.68,-1.03 -19.24,-1.65 -4.85,-0.85 -17.09,-3.82 -17.54,-4.25 -0.35,-0.34 1.42,-4.1 4.47,-9.48 1.97,-3.48 12.5,-24.41 14.89,-29.6 5.12,-11.13 10.57,-24.76 13.83,-34.6 3.79,-11.46 8.24,-28.6 9.44,-36.44 0.26,-1.67 0.63,-3.77 0.82,-4.66 0.31,-1.4 1.42,-10.62 2.85,-23.68 0.24,-2.11 0.78,-6.08 1.21,-8.81 1.36,-8.55 0.9,-12.96 -1.97,-19.16 -0.69,-1.47 -1.45,-3.93 -1.69,-5.46 -0.92,-5.72 -2.16,-10.28 -2.79,-10.28 -0.14,0 -0.71,-0.73 -1.26,-1.62 -0.91,-1.48 -1.62,-2.06 -1.62,-1.33 0,0.15 -0.45,3.57 -1,7.59 -0.96,6.97 -2.42,19.33 -4.26,36.04 -1.27,11.49 -3.6,30.48 -4.02,32.78 -0.2,1.12 -0.58,3.49 -0.84,5.27 -1.76,11.98 -3.47,18.73 -7.25,28.66 -3.22,8.44 -4.3,11.58 -5.08,14.79 l -0.55,2.29 -0.03,-4.66 c -0.07,-11.97 1.74,-23.53 5.76,-36.86 3.9,-12.92 5.91,-26.91 7.74,-54.01 1.23,-18.27 1.71,-28.67 2.24,-48.17 0.56,-20.51 1.46,-28.14 5.1,-42.9 1.97,-7.98 2.81,-10.85 5.33,-18.22 12.71,-37.09 33.8,-61.71 62.43,-72.86 13.43,-5.23 27.35,-7.42 44.33,-6.97 13.82,0.37 22.3,1.57 43.51,6.17 15.19,3.3 19.94,3.71 35.21,3.07 28.32,-1.2 47.51,-5.33 64.51,-13.87 7.87,-3.96 9.75,-4.67 17.06,-6.4 8.45,-2 21.64,-3.18 27.72,-2.48 8.39,0.97 28.19,8.4 37.22,13.97 2.9,1.79 6.46,3.17 9.33,3.64 0.78,0.13 5.69,0.51 10.9,0.85 10.79,0.71 12.43,1.02 19.95,3.79 15.21,5.6 22.73,10.41 32.92,21.1 6.64,6.98 14.96,18.61 21.16,29.63 2.61,4.63 8.57,16.22 8.57,16.66 0,0.1 0.81,1.88 1.79,3.96 3.35,7.11 7.12,16.43 12.58,31.11 1.94,5.23 3.94,10.61 4.44,11.94 0.51,1.34 1.71,4.6 2.68,7.26 2.1,5.77 2.82,6.91 5.39,8.6 3.22,2.11 8.29,3.27 19.07,4.36 8.59,0.88 11.53,1.43 11.53,2.18 0,1.28 -2.06,4.06 -3.73,5.04 -2.5,1.46 -4.98,2.2 -10.34,3.12 -7.83,1.35 -9.48,1.68 -12.34,2.52 -1.5,0.44 -2.73,0.92 -2.73,1.06 0,0.15 1.26,6.73 2.8,14.64 3.86,19.78 6.11,32.5 9.56,54.03 4.85,30.33 8.17,68.93 9.31,108.28 0.26,8.95 0.91,14.69 1.99,17.77 0.34,0.97 0.62,1.8 0.62,1.85 0,0.05 -0.77,0.1 -1.72,0.12 -0.94,0.02 -3.78,0.77 -6.3,1.68 -4.37,1.57 -6.51,1.95 -7.93,1.41 -0.83,-0.32 -0.83,-2.31 0.01,-6.23 1.12,-5.27 0.48,-15.07 -2.28,-34.61 -2.11,-14.92 -7.21,-38.55 -11.6,-53.78 -0.78,-2.7 -1.56,-5.46 -1.74,-6.13 -1.13,-4.16 -9.56,-35.35 -10.77,-39.87 -9.36,-34.76 -16.54,-52.82 -26.49,-66.58 -5.21,-7.22 -8.68,-9.43 -19.42,-12.35 -5.37,-1.46 -8.13,-2.53 -16.19,-6.27 -8.89,-4.14 -12.76,-5.55 -15.87,-5.78 -2.7,-0.2 -2.73,-0.19 -3.18,0.97 -0.35,0.89 -0.31,2.24 0.19,5.82 0.78,5.59 0.83,8.92 0.14,9.83 -0.8,1.06 -13.93,3.55 -20.15,3.82 -4.24,0.18 -5.94,0.06 -10.32,-0.74 -7.19,-1.31 -19.45,-1.41 -22.76,-0.18 -2.95,1.1 -4.71,2.67 -5.99,5.36 -1.5,3.18 -2.1,7.04 -2.63,16.92 -0.63,11.79 -0.18,14.37 5.52,31.95 1.88,5.8 4.15,13.56 5.06,17.23 3.59,14.66 5.43,19.07 19.26,46.15 6.47,12.68 8.97,18.32 11.49,25.9 2.76,8.34 3.65,13.09 3.89,20.85 0.12,3.82 0.43,7.19 0.76,8.21 0.8,2.52 2.6,4.58 7.02,8.05 5.1,4.02 9.07,7.92 15.52,15.24 l 5.29,6 -1.98,2.03 c -2.6,2.68 -7.94,7.12 -10.48,8.72 -8.1,5.11 -14.91,6.23 -28.86,4.74 -3.27,-0.35 -8.63,-0.76 -11.9,-0.92 -3.28,-0.16 -6.05,-0.39 -6.17,-0.51 -0.12,-0.12 -0.4,-3.23 -0.63,-6.91 -0.91,-15.18 -3.19,-25.95 -8.12,-38.38 -2.73,-6.9 -4.33,-10.04 -8.01,-15.69 -3.47,-5.33 -6.25,-10.17 -9.59,-16.69 -3.06,-5.97 -7.28,-12.78 -11.18,-18.01 -2.65,-3.57 -5.83,-7.01 -6.16,-6.66 -0.09,0.1 -1.35,3.37 -2.81,7.26 -2.6,6.97 -3.69,10.16 -9.63,28.34 -2.47,7.56 -3.72,10.62 -7.37,18.01 -6.55,13.24 -8.35,18.4 -7.58,21.78 0.36,1.59 2.1,4.43 3.24,5.27 0.68,0.5 8.53,10.09 10.05,12.27 0.8,1.14 3.32,7.64 3.32,8.54 0,0.36 -2.13,0.75 -10.73,1.99 -3.92,0.57 -22.01,1.04 -26.31,0.69 z" />
      </g>
    </clipPath>
    <clipPath
       clipPathUnits="userSpaceOnUse"
       id="clipPath4312">
      <path
         inkscape:tile-y0="807.71334"
         inkscape:tile-x0="-200.54957"
         sodipodi:nodetypes="cssssscscsccccscsccscsccsscsccccsscscsccsscsssscssccc"
         inkscape:connector-curvature="0"
         id="use4314"
         style="stroke:#000000;stroke-width:0.89484566;stroke-opacity:1"
         d="m 156.67189,687.70478 c -2.28503,-0.0341 -4.05783,1.03586 -4.05783,3.21761 0,2.68516 -0.67905,14.0966 0.32789,17.7888 1.00693,3.69221 5.03665,9.09332 8.05407,12.75753 2.3494,2.85292 1.01445,9.7289 1.01445,13.08535 0,3.35644 -0.67608,6.0458 -2.01865,6.0458 -1.34258,0 -3.35062,1.34217 -4.6932,2.68469 -1.34257,1.34258 -2.68701,3.02302 -4.36513,1.68052 -1.67821,-1.34259 -4.70252,-2.6819 -10.07283,-3.68894 -5.37031,-1.00694 -14.42933,-0.005 -20.1354,2.0084 -5.70607,2.01387 -17.79347,13.09235 -21.14992,18.1269 -3.35644,5.03478 -3.68637,20.47047 -3.35084,22.82009 0.33564,2.34963 -0.6786,4.03264 -2.35686,2.01865 -1.67823,-2.01386 -3.01253,-1.0042 -3.01253,-1.0042 0,0 -1.6805,3.35294 -1.6805,5.03128 0,1.6782 0.66606,3.35085 0.66606,3.35085 0,0 -2.68469,2.01844 -2.68469,3.36111 0,1.34258 2.68702,3.6936 4.36513,5.70747 1.67822,2.01386 7.38511,6.04324 9.73474,5.70747 2.34962,-0.33563 6.71405,-0.003 8.3924,1.00421 1.67822,1.00693 5.7042,2.34916 10.73875,2.68469 5.03479,0.33565 19.12788,1.34237 22.82009,1.34237 3.69221,0 4.70579,-0.66836 6.3839,-2.3466 1.67822,-1.6782 -1.34988,-3.69617 -2.35686,-6.0458 -1.00694,-2.34939 3.36088,-1.67277 4.70345,-2.0084 1.34258,-0.33565 5.03852,-2.68469 7.38815,-2.68469 2.34963,0 2.01049,2.34635 5.03129,3.68893 3.02091,1.34256 7.38231,5.70235 10.73875,6.37363 3.35645,0.67129 11.07663,0.003 13.76178,-1.0042 2.68516,-1.00694 2.34939,-3.35294 0,-5.03128 -2.34962,-1.6782 -8.0515,-4.70556 -9.05831,-6.3839 -1.00694,-1.67822 -1.34009,-3.69128 0.33814,-5.36938 1.67822,-1.67822 3.35037,-1.004 6.03553,-2.3466 2.68515,-1.34257 3.68894,-5.37684 3.68894,-7.72624 0,-2.34962 0.31949,-4.90318 1.34236,-6.37363 0.85712,-1.23228 1.19004,-5.16404 1.23783,-7.8492 0.051,-2.86739 -1.2351,-3.55804 -2.24203,-5.23614 -1.00691,-1.67823 1.00398,-4.02704 2.3466,-4.02704 1.34258,0 7.38511,-1.01171 9.73474,-2.01865 2.3494,-1.00693 4.70555,-5.37428 6.38389,-7.38815 1.67823,-2.01386 0.33087,-6.37339 -2.01865,-7.71596 -2.34951,-1.34259 -2.35126,-5.03852 -4.36513,-7.38815 -2.01387,-2.34963 -4.35976,-7.38022 -6.37362,-9.05832 -2.01386,-1.67822 -6.71406,-3.02278 -8.3924,-3.02278 -1.67822,0 -2.68468,2e-4 -2.68468,-1.34238 0,-1.34257 -0.33815,-3.01461 -0.33815,-6.03553 0,-3.02091 -3.78997,-15.9749 -8.72022,-23.8346 -1.02853,-1.63968 -2.69683,-1.26122 -4.70346,-0.67631 -1.3286,0.38731 -2.00841,1.01629 -2.00841,5.37964 0,4.3635 -2.68446,-0.007 -4.02704,-2.35686 -1.34257,-2.34955 -3.70131,-5.03618 -6.72198,-5.70747 -0.56641,-0.12587 -1.11222,-0.18682 -1.63951,-0.19469 z" />
    </clipPath>
    <clipPath
       clipPathUnits="userSpaceOnUse"
       id="clipPath4324">
      <path
         inkscape:tile-y0="394.814"
         inkscape:tile-x0="-210.4165"
         style="stroke:#000000;stroke-opacity:1"
         inkscape:connector-curvature="0"
         id="use4326"
         d="m 179.78203,399.42356 c -3.4964,-1.6541 -7.5885,-3.8842 -9.0934,-4.9558 -1.9097,-1.3598 -3.0532,-1.6314 -3.7855,-0.89913 -1.3965,1.3965 -4.2975,-0.19635 -11.264,-6.1847 -4.9455,-4.2511 -14.567,-9.9514 -16.798,-9.9514 -0.47534,0 -1.4397,1.0753 -2.1431,2.3895 -1.4082,2.6313 -4.9478,4.5956 -8.3562,4.6375 -1.2116,0.0149 -3.8904,1.5959 -5.953,3.5135 -4.0692,3.7832 -4.4394,4.4595 -2.4411,4.4595 0.71988,0 2.1268,0.59812 3.1266,1.3292 1.4639,1.0704 1.6046,1.7274 0.7228,3.3751 -1.3171,2.461 -5.1583,3.7584 -5.1583,1.7423 0,-2.0542 -7.1407,-3.8418 -11.654,-2.9174 -4.9234,1.0085 -11.345,1.1721 -11.346,0.28894 -0.001,-1.6428 6.1138,-4.8181 9.2788,-4.8181 6.4644,0 9.8136,-1.2594 14.406,-5.4168 l 4.5789,-4.1456 -2.0052,-3.9688 c -1.1028,-2.1828 -2.7268,-6.477 -3.6087,-9.5427 -1.2914,-4.4888 -2.5347,-6.35899 -6.387,-9.60739 -2.6309,-2.2184 -6.609,-4.9648 -8.8402,-6.1031 -5.4729,-2.7921 -6.1586,-3.8085 -7.7766,-11.527 -1.807,-8.62041 -3.8071,-11.68901 -7.6196,-11.68901 -1.7469,0 -3.3234,0.70563 -3.9097,1.75 -0.92133,1.6412 -1.0281,1.6314 -1.7172,-0.15758 -0.74386,-1.9314 -0.50133,-2.2095 7.2626,-8.329 3.4059,-2.6845 9.1243,-2.9556 15.428,-0.73146 8.0688,2.8468 11.069,0.87119 17.513,-11.532 4.6518,-8.9538 12.924,-17.661 19.896,-20.941 4.9878,-2.3466 19.5,-4.2217 19.5,-2.5195 0,0.44152 -0.68334,1.5578 -1.5185,2.4807 -1.4099,1.558 -0.7484,1.7192 9.25,2.255 11.055,0.59243 32.566,4.8291 37.58901,7.4035 2.2935,1.1753 2.5977,1.7143 1.6276,2.8833 -0.65627,0.79075 -2.433,1.4377 -3.9483,1.4377 -1.5153,0 -3.36841,0.73896 -4.11801,1.6421 -1.181,1.423 -2.9651,1.5597 -13.372,1.0244 -6.6053,-0.33977 -14.26,-0.87657 -17.01,-1.1929 -4.4214,-0.50858 -3.6674,-0.0668 6.5159,3.8178 14.676,5.5983 28.10301,11.899 29.82001,13.992 0.73485,0.89585 1.0458,2.0985 0.69098,2.6726 -0.81382,1.3168 -6.97441,1.3495 -11.46701,0.0609 -1.8849,-0.54059 -3.5754,-0.83462 -3.7567,-0.6534 -0.18122,0.18123 1.7155,1.6221 4.2149,3.202 5.9039,3.7318 5.6909,6.0185 -0.5188,5.5701 -2.4648,-0.17796 -5.2729,-0.74715 -6.2402,-1.2649 -2.6283,-1.4066 -2.1298,-0.0881 1.2412,3.2829 4.5901,4.59011 3.7865,7.43451 -1.3157,4.65721 -1.2013,-0.6539 -3.8097,-1.2789 -5.7964,-1.3889 -1.9867,-0.10998 -4.5742,-0.5053 -5.75,-0.87848 -1.8094,-0.57428 -2.1378,-0.27928 -2.1378,1.9203 0,2.9789 -0.64664,3.3188 -7.5,3.9426 -2.75,0.2503 -5.9913,0.75814 -7.2028,1.1285 l -2.2028,0.67345 2.0875,2.8235 c 3.2365,4.3776 1.5318,6.5057 -4.9881,6.2272 -0.71845,-0.0307 -2.3288,0.96676 -3.5786,2.2166 -1.9482,1.9482 -2.0857,2.5276 -0.96406,4.0616 0.71957,0.98407 2.0675,3.85319 2.9954,6.37589 0.92788,2.5227 2.6245,5.6539 3.7703,6.9582 2.7547,3.1359 21.443,16.39 29.333,20.804 6.6368,3.7128 7.7897,5.3242 3.809,5.3242 -1.3425,0 -2.7191,0.45 -3.059,1 -0.8834,1.4294 -1.3016,1.3288 -8.3572,-2.009 z" />
    </clipPath>
    <clipPath
       clipPathUnits="userSpaceOnUse"
       id="clipPath4426">
      <use
         x="0"
         y="0"
         xlink:href="#use4420"
         id="use4428"
         width="744.09448"
         height="1052.3622" />
    </clipPath>
    <clipPath
       clipPathUnits="userSpaceOnUse"
       id="clipPath4440">
      <use
         x="0"
         y="0"
         xlink:href="#use4434"
         id="use4442"
         width="744.09448"
         height="1052.3622" />
    </clipPath>
    <clipPath
       clipPathUnits="userSpaceOnUse"
       id="clipPath4454">
      <use
         x="0"
         y="0"
         xlink:href="#use4448"
         id="use4456"
         width="744.09448"
         height="1052.3622" />
    </clipPath>
    <clipPath
       clipPathUnits="userSpaceOnUse"
       id="clipPath3856">
      <path
         style="fill:#ffffff;fill-opacity:1;stroke:none"
         d="m 130.29772,214.53381 0,82.662 c 0,0 36.42733,-18.21366 50.43783,-14.01051 14.01051,4.20315 2.8021,1.40105 12.60946,-16.81261 9.80736,-18.21366 18.21366,5.60421 18.21366,5.60421 l -5.6042,-26.61997 c 0,0 39.22942,-11.20841 37.82837,-29.42207 -1.40105,-18.21366 -113.48512,-1.40105 -113.48512,-1.40105 z"
         id="use3858"
         inkscape:connector-curvature="0"
         inkscape:tile-x0="-190.54291"
         inkscape:tile-y0="-258.9127" />
    </clipPath>
  </defs>
  <sodipodi:namedview
     id="base"
     pagecolor="#ffffff"
     bordercolor="#666666"
     borderopacity="1.0"
     inkscape:pageopacity="1"
     inkscape:pageshadow="2"
     inkscape:zoom="0.55777778"
     inkscape:cx="300"
     inkscape:cy="386.91384"
     inkscape:document-units="px"
     inkscape:current-layer="layer1"
     showgrid="false"
     inkscape:window-width="1024"
     inkscape:window-height="719"
     inkscape:window-x="-1"
     inkscape:window-y="-4"
     inkscape:window-maximized="1" />
  <metadata
     id="metadata7">
    <rdf:RDF>
      <cc:Work
         rdf:about="">
        <dc:format>image/svg+xml</dc:format>
        <dc:type
           rdf:resource="http://purl.org/dc/dcmitype/StillImage" />
        <dc:title />
      </cc:Work>
    </rdf:RDF>
  </metadata>
  <g
     inkscape:label="Layer 1"
     inkscape:groupmode="layer"
     id="layer1"
     transform="translate(0,-152.36218)">
    <g
       transform="matrix(0.27724626,0,0,0.27724626,-302.82798,347.86976)"
       inkscape:label="Layer 1"
       id="layer1-2"
       style="stroke:#000000;stroke-opacity:1"
       inkscape:tile-cx="-137.33625"
       inkscape:tile-cy="665.62318"
       inkscape:tile-w="156.32597"
       inkscape:tile-h="110.33254"
       inkscape:tile-x0="-215.49924"
       inkscape:tile-y0="610.45691">
      <path
         d="m 369.49,695.16 c -5.1,-0.41 -14.91,-1.81 -18.19,-2.59 -3.99,-0.95 -7.06,-2.24 -7.39,-3.1 -0.24,-0.62 1.27,-3.18 6.23,-10.56 2.67,-3.98 3.59,-5.75 4.6,-8.9 3.13,-9.76 5.27,-20.17 7.88,-38.34 1.81,-12.6 3.18,-20.84 4.51,-27.12 0.93,-4.36 1.01,-5.49 0.83,-10.93 -0.13,-3.94 -0.58,-8.21 -1.28,-12.14 -2.66,-15.01 -2.98,-19.84 -2.08,-31.58 0.36,-4.67 0.75,-8.95 0.86,-9.51 0.11,-0.55 0.65,-4.47 1.2,-8.7 0.54,-4.23 1.12,-8.4 1.27,-9.27 l 0.27,-1.58 -1.75,0.28 c -0.96,0.15 -3.91,0.06 -6.56,-0.22 -3.86,-0.39 -5.43,-0.39 -7.92,0.03 -7.03,1.17 -16.69,4.11 -33.27,10.15 -12.59,4.59 -23.89,8.31 -30.36,10.01 -7.52,1.97 -13.83,2.21 -24.11,0.92 -8.22,-1.03 -12.12,-0.94 -15.58,0.37 -2.79,1.05 -4.29,2.57 -6.62,6.72 -4.74,8.44 -4.79,8.48 -11.58,9.91 -6.37,1.34 -7.24,1.95 -9.46,6.67 -1.85,3.94 -2.15,4.79 -3.06,8.71 -1.43,6.24 -1.76,11.18 -1.53,23.44 0.38,20.83 3.2,34.88 10.92,54.48 4.01,10.17 3.76,9.8 11.44,16.92 3.21,2.97 7.07,8.59 7.36,10.7 0.4,2.98 -2.97,7.3 -7.16,9.18 -4.95,2.22 -10,2.19 -27.36,-0.15 -4.91,-0.66 -11.92,-1.5 -15.58,-1.85 -3.66,-0.36 -7.26,-0.74 -8.01,-0.85 l -1.36,-0.2 0.24,-2.1 c 0.71,-6.23 1.15,-16.07 0.93,-20.71 -0.3,-6.48 -1.3,-11.36 -4.11,-20.04 -3.18,-9.85 -4.51,-14.64 -5.48,-19.84 -0.47,-2.56 -1.29,-6.11 -1.82,-7.89 -2.58,-8.8 -3.69,-12.15 -4.03,-12.15 -0.64,0 -3.74,6.25 -5.73,11.54 -2.84,7.55 -4.79,12.53 -5.71,14.57 -6.97,15.53 -11.02,27.73 -11.67,35.22 -0.23,2.63 -0.12,3.51 0.79,6.4 1.43,4.53 1.39,5.82 -0.22,7.36 -2.03,1.94 -4.92,2.58 -10.24,2.28 -11.36,-0.66 -15.68,-1.03 -19.24,-1.65 -4.85,-0.85 -17.09,-3.82 -17.54,-4.25 -0.35,-0.34 1.42,-4.1 4.47,-9.48 1.97,-3.48 12.5,-24.41 14.89,-29.6 5.12,-11.13 10.57,-24.76 13.83,-34.6 3.79,-11.46 8.24,-28.6 9.44,-36.44 0.26,-1.67 0.63,-3.77 0.82,-4.66 0.31,-1.4 1.42,-10.62 2.85,-23.68 0.24,-2.11 0.78,-6.08 1.21,-8.81 1.36,-8.55 0.9,-12.96 -1.97,-19.16 -0.69,-1.47 -1.45,-3.93 -1.69,-5.46 -0.92,-5.72 -2.16,-10.28 -2.79,-10.28 -0.14,0 -0.71,-0.73 -1.26,-1.62 -0.91,-1.48 -1.62,-2.06 -1.62,-1.33 0,0.15 -0.45,3.57 -1,7.59 -0.96,6.97 -2.42,19.33 -4.26,36.04 -1.27,11.49 -3.6,30.48 -4.02,32.78 -0.2,1.12 -0.58,3.49 -0.84,5.27 -1.76,11.98 -3.47,18.73 -7.25,28.66 -3.22,8.44 -4.3,11.58 -5.08,14.79 l -0.55,2.29 -0.03,-4.66 c -0.07,-11.97 1.74,-23.53 5.76,-36.86 3.9,-12.92 5.91,-26.91 7.74,-54.01 1.23,-18.27 1.71,-28.67 2.24,-48.17 0.56,-20.51 1.46,-28.14 5.1,-42.9 1.97,-7.98 2.81,-10.85 5.33,-18.22 12.71,-37.09 33.8,-61.71 62.43,-72.86 13.43,-5.23 27.35,-7.42 44.33,-6.97 13.82,0.37 22.3,1.57 43.51,6.17 15.19,3.3 19.94,3.71 35.21,3.07 28.32,-1.2 47.51,-5.33 64.51,-13.87 7.87,-3.96 9.75,-4.67 17.06,-6.4 8.45,-2 21.64,-3.18 27.72,-2.48 8.39,0.97 28.19,8.4 37.22,13.97 2.9,1.79 6.46,3.17 9.33,3.64 0.78,0.13 5.69,0.51 10.9,0.85 10.79,0.71 12.43,1.02 19.95,3.79 15.21,5.6 22.73,10.41 32.92,21.1 6.64,6.98 14.96,18.61 21.16,29.63 2.61,4.63 8.57,16.22 8.57,16.66 0,0.1 0.81,1.88 1.79,3.96 3.35,7.11 7.12,16.43 12.58,31.11 1.94,5.23 3.94,10.61 4.44,11.94 0.51,1.34 1.71,4.6 2.68,7.26 2.1,5.77 2.82,6.91 5.39,8.6 3.22,2.11 8.29,3.27 19.07,4.36 8.59,0.88 11.53,1.43 11.53,2.18 0,1.28 -2.06,4.06 -3.73,5.04 -2.5,1.46 -4.98,2.2 -10.34,3.12 -7.83,1.35 -9.48,1.68 -12.34,2.52 -1.5,0.44 -2.73,0.92 -2.73,1.06 0,0.15 1.26,6.73 2.8,14.64 3.86,19.78 6.11,32.5 9.56,54.03 4.85,30.33 8.17,68.93 9.31,108.28 0.26,8.95 0.91,14.69 1.99,17.77 0.34,0.97 0.62,1.8 0.62,1.85 0,0.05 -0.77,0.1 -1.72,0.12 -0.94,0.02 -3.78,0.77 -6.3,1.68 -4.37,1.57 -6.51,1.95 -7.93,1.41 -0.83,-0.32 -0.83,-2.31 0.01,-6.23 1.12,-5.27 0.48,-15.07 -2.28,-34.61 -2.11,-14.92 -7.21,-38.55 -11.6,-53.78 -0.78,-2.7 -1.56,-5.46 -1.74,-6.13 -1.13,-4.16 -9.56,-35.35 -10.77,-39.87 -9.36,-34.76 -16.54,-52.82 -26.49,-66.58 -5.21,-7.22 -8.68,-9.43 -19.42,-12.35 -5.37,-1.46 -8.13,-2.53 -16.19,-6.27 -8.89,-4.14 -12.76,-5.55 -15.87,-5.78 -2.7,-0.2 -2.73,-0.19 -3.18,0.97 -0.35,0.89 -0.31,2.24 0.19,5.82 0.78,5.59 0.83,8.92 0.14,9.83 -0.8,1.06 -13.93,3.55 -20.15,3.82 -4.24,0.18 -5.94,0.06 -10.32,-0.74 -7.19,-1.31 -19.45,-1.41 -22.76,-0.18 -2.95,1.1 -4.71,2.67 -5.99,5.36 -1.5,3.18 -2.1,7.04 -2.63,16.92 -0.63,11.79 -0.18,14.37 5.52,31.95 1.88,5.8 4.15,13.56 5.06,17.23 3.59,14.66 5.43,19.07 19.26,46.15 6.47,12.68 8.97,18.32 11.49,25.9 2.76,8.34 3.65,13.09 3.89,20.85 0.12,3.82 0.43,7.19 0.76,8.21 0.8,2.52 2.6,4.58 7.02,8.05 5.1,4.02 9.07,7.92 15.52,15.24 l 5.29,6 -1.98,2.03 c -2.6,2.68 -7.94,7.12 -10.48,8.72 -8.1,5.11 -14.91,6.23 -28.86,4.74 -3.27,-0.35 -8.63,-0.76 -11.9,-0.92 -3.28,-0.16 -6.05,-0.39 -6.17,-0.51 -0.12,-0.12 -0.4,-3.23 -0.63,-6.91 -0.91,-15.18 -3.19,-25.95 -8.12,-38.38 -2.73,-6.9 -4.33,-10.04 -8.01,-15.69 -3.47,-5.33 -6.25,-10.17 -9.59,-16.69 -3.06,-5.97 -7.28,-12.78 -11.18,-18.01 -2.65,-3.57 -5.83,-7.01 -6.16,-6.66 -0.09,0.1 -1.35,3.37 -2.81,7.26 -2.6,6.97 -3.69,10.16 -9.63,28.34 -2.47,7.56 -3.72,10.62 -7.37,18.01 -6.55,13.24 -8.35,18.4 -7.58,21.78 0.36,1.59 2.1,4.43 3.24,5.27 0.68,0.5 8.53,10.09 10.05,12.27 0.8,1.14 3.32,7.64 3.32,8.54 0,0.36 -2.13,0.75 -10.73,1.99 -3.92,0.57 -22.01,1.04 -26.31,0.69 z"
         id="path1368"
         inkscape:connector-curvature="0"
         style="stroke:#000000;stroke-opacity:1" />
    </g>
    <path
       d="m -186.82568,812.03856 c -2.28503,-0.0341 -4.05783,1.03586 -4.05783,3.21761 0,2.68516 -0.67905,14.0966 0.32789,17.7888 1.00693,3.69221 5.03665,9.09332 8.05407,12.75753 2.34939,2.85292 1.01444,9.7289 1.01444,13.08535 0,3.35644 -0.67608,6.0458 -2.01865,6.0458 -1.34257,0 -3.35061,1.34217 -4.69319,2.68469 -1.34257,1.34258 -2.68701,3.02302 -4.36513,1.68052 -1.67821,-1.34259 -4.70252,-2.6819 -10.07283,-3.68894 -5.37031,-1.00694 -14.42933,-0.005 -20.1354,2.0084 -5.70607,2.01387 -17.79347,13.09235 -21.14992,18.1269 -3.35644,5.03478 -3.68637,20.47047 -3.35084,22.82009 0.33564,2.34963 -0.6786,4.03264 -2.35686,2.01865 -1.67823,-2.01386 -3.01253,-1.0042 -3.01253,-1.0042 0,0 -1.6805,3.35294 -1.6805,5.03128 0,1.6782 0.66606,3.35085 0.66606,3.35085 0,0 -2.68469,2.01844 -2.68469,3.36111 0,1.34258 2.68702,3.69356 4.36513,5.70746 1.67822,2.0139 7.38511,6.0433 9.73474,5.7075 2.34962,-0.3356 6.71405,0 8.3924,1.0042 1.67822,1.0069 5.7042,2.3492 10.73875,2.6847 5.03479,0.3356 19.12788,1.3424 22.82009,1.3424 3.69221,0 4.70579,-0.6684 6.3839,-2.3466 1.67822,-1.6782 -1.34988,-3.6962 -2.35686,-6.0458 -1.00694,-2.3494 3.36088,-1.6728 4.70345,-2.0084 1.34258,-0.3357 5.03852,-2.6847 7.38815,-2.6847 2.34963,0 2.01048,2.3463 5.03128,3.6889 3.02091,1.3426 7.38231,5.7023 10.73875,6.3736 3.35645,0.6713 11.07663,0 13.76178,-1.0042 2.68516,-1.0069 2.34939,-3.3529 0,-5.0313 -2.34962,-1.6782 -8.0515,-4.70552 -9.05831,-6.38386 -1.00694,-1.67822 -1.34009,-3.69128 0.33814,-5.36938 1.67822,-1.67822 3.35037,-1.004 6.03553,-2.3466 2.68515,-1.34257 3.68894,-5.37684 3.68894,-7.72624 0,-2.34962 0.31949,-4.90318 1.34236,-6.37363 0.85712,-1.23228 1.19004,-5.16404 1.23783,-7.8492 0.051,-2.86739 -1.2351,-3.55804 -2.24203,-5.23614 -1.00691,-1.67823 1.00398,-4.02704 2.3466,-4.02704 1.34258,0 7.38511,-1.01171 9.73474,-2.01865 2.3494,-1.00693 4.70555,-5.37428 6.38389,-7.38815 1.67823,-2.01386 0.33087,-6.37339 -2.01865,-7.71596 -2.34951,-1.34259 -2.35126,-5.03852 -4.36513,-7.38815 -2.01387,-2.34963 -4.35976,-7.38022 -6.37362,-9.05832 -2.01386,-1.67822 -6.71406,-3.02278 -8.39239,-3.02278 -1.67822,0 -2.68469,2e-4 -2.68469,-1.34238 0,-1.34257 -0.33815,-3.01461 -0.33815,-6.03553 0,-3.02091 -3.78997,-15.9749 -8.72022,-23.8346 -1.02852,-1.63968 -2.69683,-1.26122 -4.70346,-0.67631 -1.3286,0.38731 -2.00841,1.01629 -2.00841,5.37964 0,4.3635 -2.68445,-0.007 -4.02704,-2.35686 -1.34257,-2.34955 -3.70131,-5.03618 -6.72197,-5.70747 -0.56641,-0.12587 -1.11222,-0.18682 -1.63951,-0.19469 z"
       style="stroke:#000000;stroke-width:0.89484566;stroke-opacity:1"
       id="rabbit"
       inkscape:connector-curvature="0"
       sodipodi:nodetypes="cssssscscsccccscsccscsccsscsccccsscscsccsscsssscssccc"
       inkscape:tile-cx="-132.23723"
       inkscape:tile-cy="877.96648"
       inkscape:tile-w="136.62469"
       inkscape:tile-h="140.50629"
       inkscape:tile-x0="-200.54957"
       inkscape:tile-y0="807.71334" />
    <path
       d="m -163.35556,747.16376 c -3.4964,-1.6541 -7.5885,-3.8842 -9.0934,-4.9558 -1.9097,-1.3598 -3.0532,-1.6314 -3.7855,-0.89913 -1.3965,1.3965 -4.2975,-0.19635 -11.264,-6.1847 -4.9455,-4.2511 -14.567,-9.9514 -16.798,-9.9514 -0.47534,0 -1.4397,1.0753 -2.1431,2.3895 -1.4082,2.6313 -4.9478,4.5956 -8.3562,4.6375 -1.2116,0.0149 -3.8904,1.5959 -5.953,3.5135 -4.0692,3.7832 -4.4394,4.4595 -2.4411,4.4595 0.71988,0 2.1268,0.59812 3.1266,1.3292 1.4639,1.0704 1.6046,1.7274 0.7228,3.3751 -1.3171,2.461 -5.1583,3.7584 -5.1583,1.7423 0,-2.0542 -7.1407,-3.8418 -11.654,-2.9174 -4.9234,1.0085 -11.345,1.1721 -11.346,0.28894 -0.001,-1.6428 6.1138,-4.8181 9.2788,-4.8181 6.4644,0 9.8136,-1.2594 14.406,-5.4168 l 4.5789,-4.1456 -2.0052,-3.9688 c -1.1028,-2.1828 -2.7268,-6.477 -3.6087,-9.5427 -1.2914,-4.4888 -2.5347,-6.35899 -6.387,-9.60739 -2.6309,-2.2184 -6.609,-4.9648 -8.8402,-6.1031 -5.4729,-2.7921 -6.1586,-3.8085 -7.7766,-11.527 -1.807,-8.62041 -3.8071,-11.68901 -7.6196,-11.68901 -1.7469,0 -3.3234,0.70563 -3.9097,1.75 -0.92133,1.6412 -1.0281,1.6314 -1.7172,-0.15758 -0.74386,-1.9314 -0.50133,-2.2095 7.2626,-8.329 3.4059,-2.6845 9.1243,-2.9556 15.428,-0.73146 8.0688,2.8468 11.069,0.87119 17.513,-11.532 4.6518,-8.9538 12.924,-17.661 19.896,-20.941 4.9878,-2.3466 19.5,-4.2217 19.5,-2.5195 0,0.44152 -0.68334,1.5578 -1.5185,2.4807 -1.4099,1.558 -0.7484,1.7192 9.25,2.255 11.055,0.59243 32.566,4.8291 37.58901,7.4035 2.2935,1.1753 2.5977,1.7143 1.6276,2.8833 -0.65627,0.79075 -2.433,1.4377 -3.9483,1.4377 -1.5153,0 -3.36841,0.73896 -4.11801,1.6421 -1.181,1.423 -2.9651,1.5597 -13.372,1.0244 -6.6053,-0.33977 -14.26,-0.87657 -17.01,-1.1929 -4.4214,-0.50858 -3.6674,-0.0668 6.5159,3.8178 14.676,5.5983 28.10301,11.899 29.82001,13.992 0.73485,0.89585 1.0458,2.0985 0.69098,2.6726 -0.81382,1.3168 -6.97441,1.3495 -11.46701,0.0609 -1.8849,-0.54059 -3.5754,-0.83462 -3.7567,-0.6534 -0.18122,0.18123 1.7155,1.6221 4.2149,3.202 5.9039,3.7318 5.6909,6.0185 -0.5188,5.5701 -2.4648,-0.17796 -5.2729,-0.74715 -6.2402,-1.2649 -2.6283,-1.4066 -2.1298,-0.0881 1.2412,3.2829 4.5901,4.59011 3.7865,7.43451 -1.3157,4.65721 -1.2013,-0.6539 -3.8097,-1.2789 -5.7964,-1.3889 -1.9867,-0.10998 -4.5742,-0.5053 -5.75,-0.87848 -1.8094,-0.57428 -2.1378,-0.27928 -2.1378,1.9203 0,2.9789 -0.64664,3.3188 -7.5,3.9426 -2.75,0.2503 -5.9913,0.75814 -7.2028,1.1285 l -2.2028,0.67345 2.0875,2.8235 c 3.2365,4.3776 1.5318,6.5057 -4.9881,6.2272 -0.71845,-0.0307 -2.3288,0.96676 -3.5786,2.2166 -1.9482,1.9482 -2.0857,2.5276 -0.96406,4.0616 0.71957,0.98407 2.0675,3.85319 2.9954,6.37589 0.92788,2.5227 2.6245,5.6539 3.7703,6.9582 2.7547,3.1359 21.443,16.39 29.333,20.804 6.6368,3.7128 7.7897,5.3242 3.809,5.3242 -1.3425,0 -2.7191,0.45 -3.059,1 -0.8834,1.4294 -1.3016,1.3288 -8.3572,-2.009 z"
       id="path3056"
       inkscape:connector-curvature="0"
       style="stroke:#000000;stroke-opacity:1"
       inkscape:tile-cx="-146.74373"
       inkscape:tile-cy="452.80921"
       inkscape:tile-w="127.34555"
       inkscape:tile-h="115.99041"
       inkscape:tile-x0="-210.4165"
       inkscape:tile-y0="394.814" />
    <image
       y="212.70105"
       x="-288.30927"
       id="image4411"
       xlink:href="file:///home/ckhung/public_html/m/14/ssh/transparent-lake.jpg"
       height="140.45619"
       width="188.11096"
       inkscape:tile-cx="132.90334"
       inkscape:tile-cy="96.309109"
       inkscape:tile-w="188.11096"
       inkscape:tile-h="140.45619"
       inkscape:tile-x0="38.847862"
       inkscape:tile-y0="26.081013" />
    <g
       id="g4430"
       transform="translate(297.56095,96.487957)">
      <use
         height="1052.3622"
         width="744.09448"
         style="fill:#ffffff;stroke:#ffffff"
         transform="translate(317.93272,104.60604)"
         id="use4414"
         xlink:href="#image4411"
         inkscape:tiled-clone-of="#image4411"
         y="0"
         x="0" />
      <use
         height="1052.3622"
         width="744.09448"
         style="fill:#ffffff;stroke:#ffffff"
         transform="translate(326.13442,-94.925287)"
         id="use4420"
         xlink:href="#layer1-2"
         inkscape:tiled-clone-of="#layer1-2"
         y="0"
         x="0" />
    </g>
    <use
       x="0"
       y="0"
       xlink:href="#use4414"
       id="use4422"
       transform="translate(8.414968,98.248097)"
       width="744.09448"
       height="1052.3622"
       clip-path="url(#clipPath4426)" />
    <g
       id="g4444"
       transform="translate(292.14925,230.20576)">
      <use
         height="1052.3622"
         width="744.09448"
         style="fill:#ffffff;stroke:#ffffff"
         id="use4416"
         transform="translate(335.06367,351.8012)"
         xlink:href="#image4411"
         inkscape:tiled-clone-of="#image4411"
         y="0"
         x="0" />
      <use
         height="1052.3622"
         width="744.09448"
         style="fill:#ffffff;stroke:#ffffff"
         transform="translate(337.87346,-55.515507)"
         id="use4434"
         xlink:href="#path3056"
         inkscape:tiled-clone-of="#path3056"
         y="0"
         x="0" />
    </g>
    <use
       x="0"
       y="0"
       xlink:href="#use4416"
       id="use4436"
       transform="translate(-4.231392,235.52563)"
       width="744.09448"
       height="1052.3622"
       clip-path="url(#clipPath4440)" />
    <g
       id="g4458"
       transform="translate(289.43493,-242.67903)">
      <use
         height="1052.3622"
         width="744.09448"
         style="fill:#ffffff;stroke:#ffffff"
         id="use4418"
         transform="translate(335.06367,617.44507)"
         xlink:href="#image4411"
         inkscape:tiled-clone-of="#image4411"
         y="0"
         x="0" />
      <use
         height="1052.3622"
         width="744.09448"
         style="fill:#ffffff;stroke:#ffffff"
         transform="matrix(-1,0,0,1,-58.601353,23.248269)"
         id="use4448"
         xlink:href="#rabbit"
         inkscape:tiled-clone-of="#rabbit"
         y="0"
         x="0" />
    </g>
    <use
       x="0"
       y="0"
       xlink:href="#use4418"
       id="use4450"
       transform="translate(-6.739161,-243.27557)"
       width="744.09448"
       height="1052.3622"
       clip-path="url(#clipPath4454)" />
    <rect
       style="fill:none;stroke:#000000;stroke-opacity:1"
       id="rect4462"
       width="250.3102"
       height="435.24496"
       x="306.673"
       y="319.92285" />
    <rect
       style="fill:none;stroke:#000000;stroke-opacity:1"
       id="rect4464"
       width="183.8913"
       height="449.27643"
       x="45.428123"
       y="577.88782" />
    <text
       xml:space="preserve"
       style="font-size:16px;font-style:normal;font-weight:normal;line-height:125%;letter-spacing:0px;word-spacing:0px;fill:#000000;fill-opacity:1;stroke:none;font-family:Sans"
       x="343.25742"
       y="339.22739"
       id="text4466"
       sodipodi:linespacing="125%"><tspan
         sodipodi:role="line"
         id="tspan4468"
         x="343.25742"
         y="339.22739">伺服器 abc.org 裡面的</tspan><tspan
         sodipodi:role="line"
         x="343.25742"
         y="360.93784"
         id="tspan3040">mammal 帳號底下的</tspan><tspan
         sodipodi:role="line"
         x="343.25742"
         y="381.04349"
         id="tspan3046">.ssh/authorized_keys</tspan></text>
    <text
       xml:space="preserve"
       style="font-size:16px;font-style:normal;font-weight:normal;line-height:125%;letter-spacing:0px;word-spacing:0px;fill:#000000;fill-opacity:1;stroke:none;font-family:Sans"
       x="67.25045"
       y="968.29919"
       id="text4470"
       sodipodi:linespacing="125%"><tspan
         sodipodi:role="line"
         id="tspan4472"
         x="67.25045"
         y="968.29919">我的筆記電腦的</tspan><tspan
         sodipodi:role="line"
         x="67.25045"
         y="988.29919"
         id="tspan3054">ckhung 帳號底下的</tspan><tspan
         sodipodi:role="line"
         x="67.25045"
         y="1008.4048"
         id="tspan3056">.ssh/id_*</tspan></text>
    <text
       xml:space="preserve"
       style="font-size:16px;font-style:normal;font-weight:normal;line-height:125%;letter-spacing:0px;word-spacing:0px;fill:#000000;fill-opacity:1;stroke:none;font-family:Sans"
       x="63.047264"
       y="353.23785"
       id="text4474"
       sodipodi:linespacing="125%"><tspan
         sodipodi:role="line"
         x="63.047264"
         y="353.23785"
         id="tspan4500">我朋友的筆電的</tspan><tspan
         sodipodi:role="line"
         x="63.047264"
         y="373.23785"
         id="tspan3052">steven 帳號底下的</tspan><tspan
         sodipodi:role="line"
         x="63.047264"
         y="393.34348"
         id="tspan3048">.ssh/id_elephant</tspan></text>
    <text
       xml:space="preserve"
       style="font-size:16px;font-style:normal;font-weight:normal;line-height:125%;letter-spacing:0px;word-spacing:0px;fill:#000000;fill-opacity:1;stroke:none;font-family:Sans"
       x="350.26266"
       y="971.1012"
       id="text4478"
       sodipodi:linespacing="125%"><tspan
         sodipodi:role="line"
         id="tspan4480"
         x="350.26266"
         y="971.1012">伺服器 xyz.com 裡面的</tspan><tspan
         sodipodi:role="line"
         x="350.26266"
         y="992.81165"
         id="tspan3058">librarian 帳號底下的</tspan><tspan
         sodipodi:role="line"
         x="350.26266"
         y="1012.9173"
         id="tspan4482">.ssh/authorized_keys</tspan></text>
    <rect
       style="fill:none;stroke:#000000;stroke-opacity:1"
       id="rect3060"
       width="179.33452"
       height="238.17854"
       x="44.833626"
       y="318.21158" />
    <rect
       style="fill:none;stroke:#000000;stroke-opacity:1"
       id="rect3062"
       width="256.3923"
       height="247.98599"
       x="301.22592"
       y="780.55835" />
    <text
       xml:space="preserve"
       style="font-size:24px;font-style:normal;font-weight:normal;line-height:125%;letter-spacing:0px;word-spacing:0px;fill:#000000;fill-opacity:1;stroke:none;font-family:Sans"
       x="107.88092"
       y="222.94011"
       id="text4272"
       sodipodi:linespacing="125%"><tspan
         sodipodi:role="line"
         id="tspan4274"
         x="107.88092"
         y="222.94011">私鑰</tspan><tspan
         sodipodi:role="line"
         x="107.88092"
         y="252.94011"
         id="tspan4276"> ||</tspan><tspan
         sodipodi:role="line"
         x="107.88092"
         y="282.94009"
         id="tspan4278"> \/</tspan></text>
    <text
       sodipodi:linespacing="125%"
       id="text4280"
       y="220.138"
       x="392.29425"
       style="font-size:24px;font-style:normal;font-weight:normal;line-height:125%;letter-spacing:0px;word-spacing:0px;fill:#000000;fill-opacity:1;stroke:none;font-family:Sans"
       xml:space="preserve"><tspan
         y="220.138"
         x="392.29425"
         id="tspan4282"
         sodipodi:role="line">公鑰</tspan><tspan
         id="tspan4284"
         y="250.138"
         x="392.29425"
         sodipodi:role="line"> ||</tspan><tspan
         id="tspan4286"
         y="280.138"
         x="392.29425"
         sodipodi:role="line"> \/</tspan></text>
  </g>
</svg>
