<?xml version="1.0" encoding="UTF-8" standalone="no"?>
<!-- Created with Inkscape (http://www.inkscape.org/) -->

<svg
   xmlns:dc="http://purl.org/dc/elements/1.1/"
   xmlns:cc="http://creativecommons.org/ns#"
   xmlns:rdf="http://www.w3.org/1999/02/22-rdf-syntax-ns#"
   xmlns:svg="http://www.w3.org/2000/svg"
   xmlns="http://www.w3.org/2000/svg"
   xmlns:xlink="http://www.w3.org/1999/xlink"
   xmlns:sodipodi="http://sodipodi.sourceforge.net/DTD/sodipodi-0.dtd"
   xmlns:inkscape="http://www.inkscape.org/namespaces/inkscape"
   width="720"
   height="400"
   id="svg3935"
   version="1.1"
   inkscape:version="0.48.3.1 r9886"
   sodipodi:docname="key-lock-pair.svg"
   inkscape:export-filename="/home/ckhung/public_html/m/14/ssh/key-lock-pair.png"
   inkscape:export-xdpi="90"
   inkscape:export-ydpi="90">
  <defs
     id="defs3937">
    <clipPath
       clipPathUnits="userSpaceOnUse"
       id="clipPath4201">
      <use
         x="0"
         y="0"
         xlink:href="#use4195"
         id="use4203"
         width="744.09448"
         height="1052.3622" />
    </clipPath>
    <clipPath
       clipPathUnits="userSpaceOnUse"
       id="clipPath4237">
      <use
         x="0"
         y="0"
         xlink:href="#use4215"
         id="use4239"
         width="744.09448"
         height="1052.3622" />
    </clipPath>
  </defs>
  <sodipodi:namedview
     id="base"
     pagecolor="#ffffff"
     bordercolor="#666666"
     borderopacity="1.0"
     inkscape:pageopacity="1"
     inkscape:pageshadow="2"
     inkscape:zoom="1.2472222"
     inkscape:cx="360"
     inkscape:cy="176.177"
     inkscape:document-units="px"
     inkscape:current-layer="layer1"
     showgrid="false"
     inkscape:window-width="1024"
     inkscape:window-height="719"
     inkscape:window-x="-1"
     inkscape:window-y="-4"
     inkscape:window-maximized="1" />
  <metadata
     id="metadata3940">
    <rdf:RDF>
      <cc:Work
         rdf:about="">
        <dc:format>image/svg+xml</dc:format>
        <dc:type
           rdf:resource="http://purl.org/dc/dcmitype/StillImage" />
        <dc:title />
      </cc:Work>
    </rdf:RDF>
  </metadata>
  <g
     inkscape:label="Layer 1"
     inkscape:groupmode="layer"
     id="layer1"
     transform="translate(0,-652.36218)">
    <path
       d="m -73.640716,835.31772 c -3.4964,-1.6541 -7.5885,-3.8842 -9.0934,-4.9558 -1.9097,-1.3598 -3.0532,-1.6314 -3.7855,-0.89913 -1.3965,1.3965 -4.2975,-0.19635 -11.264,-6.1847 -4.945504,-4.2511 -14.567004,-9.9514 -16.798004,-9.9514 -0.47534,0 -1.4397,1.0753 -2.1431,2.3895 -1.40819,2.6313 -4.9478,4.5956 -8.3562,4.6375 -1.2116,0.0149 -3.8904,1.5959 -5.953,3.5135 -4.0692,3.7832 -4.4394,4.4595 -2.4411,4.4595 0.71988,0 2.1268,0.59812 3.1266,1.3292 1.4639,1.0704 1.6046,1.7274 0.7228,3.3751 -1.3171,2.461 -5.1583,3.7584 -5.1583,1.7423 0,-2.0542 -7.1407,-3.8418 -11.654,-2.9174 -4.9234,1.0085 -11.345,1.1721 -11.346,0.28894 -0.001,-1.6428 6.1138,-4.8181 9.2788,-4.8181 6.4644,0 9.8136,-1.2594 14.406,-5.4168 l 4.5789,-4.1456 -2.0052,-3.9688 c -1.1028,-2.1828 -2.7268,-6.477 -3.6087,-9.5427 -1.2914,-4.4888 -2.5347,-6.35899 -6.387,-9.60739 -2.6309,-2.2184 -6.609,-4.9648 -8.8402,-6.1031 -5.4729,-2.7921 -6.1586,-3.8085 -7.7766,-11.527 -1.807,-8.62041 -3.8071,-11.68901 -7.6196,-11.68901 -1.7469,0 -3.3234,0.70563 -3.9097,1.75 -0.92133,1.6412 -1.0281,1.6314 -1.7172,-0.15758 -0.74386,-1.9314 -0.50133,-2.2095 7.2626,-8.329 3.4059,-2.6845 9.1243,-2.9556 15.428,-0.73146 8.0688,2.8468 11.069,0.87119 17.513,-11.532 4.6518,-8.9538 12.92401,-17.661 19.896,-20.941 4.9878,-2.3466 19.500004,-4.2217 19.500004,-2.5195 0,0.44152 -0.68334,1.5578 -1.5185,2.4807 -1.4099,1.558 -0.7484,1.7192 9.25,2.255 11.055,0.59243 32.566,4.8291 37.58901,7.4035 2.2935,1.1753 2.5977,1.7143 1.6276,2.8833 -0.65627,0.79075 -2.433,1.4377 -3.9483,1.4377 -1.5153,0 -3.36841,0.73896 -4.11801,1.6421 -1.181,1.423 -2.9651,1.5597 -13.372,1.0244 -6.6053,-0.33977 -14.26,-0.87657 -17.01,-1.1929 -4.4214,-0.50858 -3.6674,-0.0668 6.5159,3.8178 14.676,5.5983 28.10301,11.899 29.82001,13.992 0.73485,0.89585 1.0458,2.0985 0.69098,2.6726 -0.81382,1.3168 -6.97441,1.3495 -11.46701,0.0609 -1.8849,-0.54059 -3.5754,-0.83462 -3.7567,-0.6534 -0.18122,0.18123 1.7155,1.6221 4.2149,3.202 5.9039,3.7318 5.6909,6.0185 -0.5188,5.5701 -2.4648,-0.17796 -5.2729,-0.74715 -6.2402,-1.2649 -2.6283,-1.4066 -2.1298,-0.0881 1.2412,3.2829 4.5901,4.59011 3.7865,7.43451 -1.3157,4.65721 -1.2013,-0.6539 -3.8097,-1.2789 -5.7964,-1.3889 -1.9867,-0.10998 -4.5742,-0.5053 -5.75,-0.87848 -1.8094,-0.57428 -2.1378,-0.27928 -2.1378,1.9203 0,2.9789 -0.64664,3.3188 -7.5,3.9426 -2.75,0.2503 -5.9913,0.75814 -7.2028,1.1285 l -2.2028,0.67345 2.0875,2.8235 c 3.2365,4.3776 1.5318,6.5057 -4.9881,6.2272 -0.71845,-0.0307 -2.3288,0.96676 -3.578604,2.2166 -1.9482,1.9482 -2.0857,2.5276 -0.96406,4.0616 0.71957,0.98407 2.0675,3.85319 2.995404,6.37589 0.92788,2.5227 2.6245,5.6539 3.7703,6.9582 2.7547,3.1359 21.443,16.39 29.333,20.804 6.6368,3.7128 7.7897,5.3242 3.809,5.3242 -1.3425,0 -2.7191,0.45 -3.059,1 -0.8834,1.4294 -1.3016,1.3288 -8.3572,-2.009 z"
       id="path3056"
       inkscape:connector-curvature="0"
       style="stroke:#000000;stroke-opacity:1"
       inkscape:tile-cx="-146.74373"
       inkscape:tile-cy="452.80921"
       inkscape:tile-w="127.34555"
       inkscape:tile-h="115.99041"
       inkscape:tile-x0="-210.4165"
       inkscape:tile-y0="394.814" />
    <image
       y="709.36926"
       x="494.68674"
       id="image4411"
       xlink:href="file:///home/ckhung/public_html/m/14/ssh/transparent-lake.jpg"
       height="140.45619"
       width="188.11096"
       inkscape:tile-cx="132.90334"
       inkscape:tile-cy="96.309109"
       inkscape:tile-w="188.11096"
       inkscape:tile-h="140.45619"
       inkscape:tile-x0="38.847862"
       inkscape:tile-y0="26.081013" />
    <path
       d="m -165.39131,934.45002 0,82.66198 c 0,0 50.80537,12.8533 62.41454,3.9546 15.721472,-12.051 -12.59652,-13.1421 -2.78916,-31.35578 9.807356,-18.21366 25.91297,7.31517 25.91297,7.31517 0,0 -14.204168,-18.68842 -7.315159,-25.7645 6.88901,-7.07607 20.295058,3.24032 20.295058,3.24032 0,0 -0.720764,-16.75065 17.533312,-44.6391 9.733118,-14.87018 -116.051561,4.58731 -116.051561,4.58731 z"
       id="path3080"
       inkscape:connector-curvature="0"
       inkscape:tile-cx="-133.78202"
       inkscape:tile-cy="-214.04479"
       inkscape:tile-w="113.52177"
       inkscape:tile-h="89.735823"
       inkscape:tile-x0="-190.54291"
       inkscape:tile-y0="-258.9127"
       sodipodi:nodetypes="ccssczcsc" />
    <g
       id="g4205"
       transform="translate(2.9053119,525.32561)">
      <use
         height="1052.3622"
         width="744.09448"
         transform="translate(-282.69182,-530.14713)"
         id="use4191"
         xlink:href="#image4411"
         y="0"
         x="0" />
      <use
         height="1052.3622"
         width="744.09448"
         style="fill:#ffffff;stroke:#ffffff"
         transform="translate(414.56858,-528.74753)"
         id="use4195"
         xlink:href="#path3056"
         inkscape:tiled-clone-of="#path3056"
         y="0"
         x="0" />
    </g>
    <use
       x="0"
       y="0"
       xlink:href="#use4191"
       id="use4197"
       transform="translate(-223.7967,527.03657)"
       width="744.09448"
       height="1052.3622"
       clip-path="url(#clipPath4201)" />
    <text
       xml:space="preserve"
       style="font-size:16px;font-style:normal;font-weight:normal;line-height:125%;letter-spacing:0px;word-spacing:0px;fill:#000000;fill-opacity:1;stroke:none;font-family:Sans"
       x="72.160912"
       y="694.40955"
       id="text4209"
       sodipodi:linespacing="125%"><tspan
         sodipodi:role="line"
         id="tspan4211"
         x="72.160912"
         y="694.40955">私鑰         +              公鑰                 =             解鎖</tspan></text>
    <g
       id="g4241"
       transform="translate(-5.6494811,534.73588)">
      <use
         height="1052.3622"
         width="744.09448"
         transform="translate(36.446736,-328.56537)"
         id="use4213"
         xlink:href="#use4197"
         y="0"
         x="0" />
      <use
         height="1052.3622"
         width="744.09448"
         style="fill:#ffffff;stroke:#ffffff"
         transform="translate(197.27684,-545.00164)"
         id="use4215"
         xlink:href="#path3080"
         inkscape:tiled-clone-of="#path3080"
         y="0"
         x="0" />
    </g>
    <use
       x="0"
       y="0"
       xlink:href="#use4213"
       id="use4233"
       transform="translate(-30.458379,512.49342)"
       width="744.09448"
       height="1052.3622"
       clip-path="url(#clipPath4237)" />
    <use
       x="0"
       y="0"
       xlink:href="#g4205"
       id="use4245"
       transform="translate(11.97671,195.90476)"
       width="744.09448"
       height="1052.3622" />
    <use
       x="0"
       y="0"
       xlink:href="#image4411"
       id="use4247"
       transform="translate(7.358074e-8,194.1938)"
       width="744.09448"
       height="1052.3622" />
    <text
       xml:space="preserve"
       style="font-size:16px;font-style:normal;font-weight:normal;line-height:125%;letter-spacing:0px;word-spacing:0px;fill:#000000;fill-opacity:1;stroke:none;font-family:Sans"
       x="57.787209"
       y="889.96716"
       id="text4249"
       sodipodi:linespacing="125%"><tspan
         sodipodi:role="line"
         id="tspan4251"
         x="57.787209"
         y="889.96716">密碼   +   私鑰      +       公鑰                 =             解鎖 </tspan></text>
  </g>
</svg>
