<svg class="main-svg" xmlns="http://www.w3.org/2000/svg" xmlns:xlink="http://www.w3.org/1999/xlink" width="1010.04" height="720" style="" viewBox="0 0 841.7 600"><rect x="0" y="0" width="841.7" height="600" style="fill: rgb(255, 255, 255); fill-opacity: 1;"/><defs id="defs-9ab8ce"><g class="clips"><clipPath id="clip9ab8cexyplot" class="plotclip"><rect width="682" height="420"/></clipPath><clipPath class="axesclip" id="clip9ab8cex"><rect x="80" y="0" width="682" height="600"/></clipPath><clipPath class="axesclip" id="clip9ab8cey"><rect x="0" y="100" width="841.7" height="420"/></clipPath><clipPath class="axesclip" id="clip9ab8cexy"><rect x="80" y="100" width="682" height="420"/></clipPath></g><g class="gradients"/></defs><g class="bglayer"/><g class="layer-below"><g class="imagelayer"/><g class="shapelayer"/></g><g class="cartesianlayer"><g class="subplot xy"><g class="layer-subplot"><g class="shapelayer"/><g class="imagelayer"/></g><g class="gridlayer"><g class="x"><path class="xgrid crisp" transform="translate(266.82,0)" d="M0,100v420" style="stroke: rgb(238, 238, 238); stroke-opacity: 1; stroke-width: 1px;"/><path class="xgrid crisp" transform="translate(403.14,0)" d="M0,100v420" style="stroke: rgb(238, 238, 238); stroke-opacity: 1; stroke-width: 1px;"/><path class="xgrid crisp" transform="translate(539.46,0)" d="M0,100v420" style="stroke: rgb(238, 238, 238); stroke-opacity: 1; stroke-width: 1px;"/><path class="xgrid crisp" transform="translate(675.77,0)" d="M0,100v420" style="stroke: rgb(238, 238, 238); stroke-opacity: 1; stroke-width: 1px;"/></g><g class="y"><path class="ygrid crisp" transform="translate(0,442.79)" d="M80,0h682" style="stroke: rgb(238, 238, 238); stroke-opacity: 1; stroke-width: 1px;"/><path class="ygrid crisp" transform="translate(0,399.3)" d="M80,0h682" style="stroke: rgb(238, 238, 238); stroke-opacity: 1; stroke-width: 1px;"/><path class="ygrid crisp" transform="translate(0,355.8)" d="M80,0h682" style="stroke: rgb(238, 238, 238); stroke-opacity: 1; stroke-width: 1px;"/><path class="ygrid crisp" transform="translate(0,312.31)" d="M80,0h682" style="stroke: rgb(238, 238, 238); stroke-opacity: 1; stroke-width: 1px;"/><path class="ygrid crisp" transform="translate(0,268.81)" d="M80,0h682" style="stroke: rgb(238, 238, 238); stroke-opacity: 1; stroke-width: 1px;"/><path class="ygrid crisp" transform="translate(0,225.32)" d="M80,0h682" style="stroke: rgb(238, 238, 238); stroke-opacity: 1; stroke-width: 1px;"/><path class="ygrid crisp" transform="translate(0,181.82)" d="M80,0h682" style="stroke: rgb(238, 238, 238); stroke-opacity: 1; stroke-width: 1px;"/><path class="ygrid crisp" transform="translate(0,138.32999999999998)" d="M80,0h682" style="stroke: rgb(238, 238, 238); stroke-opacity: 1; stroke-width: 1px;"/></g></g><g class="zerolinelayer"><path class="xzl zl crisp" transform="translate(130.5,0)" d="M0,100v420" style="stroke: rgb(68, 68, 68); stroke-opacity: 1; stroke-width: 1px;"/><path class="yzl zl crisp" transform="translate(0,486.28)" d="M80,0h682" style="stroke: rgb(68, 68, 68); stroke-opacity: 1; stroke-width: 1px;"/></g><path class="xlines-below"/><path class="ylines-below"/><g class="overlines-below"/><g class="xaxislayer-below"/><g class="yaxislayer-below"/><g class="overaxes-below"/><g class="plot" transform="translate(80,100)" clip-path="url('#clip9ab8cexyplot')"><g class="scatterlayer mlayer"><g class="trace scatter trace15c15b" style="stroke-miterlimit: 2; opacity: 1;"><g class="fills"/><g class="errorbars"/><g class="lines"/><g class="points"><path class="point" transform="translate(58.12,385.96)" style="opacity: 0.7; stroke-width: 1px; fill: rgb(255, 255, 255); fill-opacity: 0.3; stroke: rgb(0, 0, 0); stroke-opacity: 1;" d="M6.43,0A6.43,6.43 0 1,1 0,-6.43A6.43,6.43 0 0,1 6.43,0Z"/><path class="point" transform="translate(60.93,362.25)" style="opacity: 0.7; stroke-width: 1px; fill: rgb(255, 255, 255); fill-opacity: 0.3; stroke: rgb(0, 0, 0); stroke-opacity: 1;" d="M21.47,0A21.47,21.47 0 1,1 0,-21.47A21.47,21.47 0 0,1 21.47,0Z"/><path class="point" transform="translate(61.39,209.8)" style="opacity: 0.7; stroke-width: 1px; fill: rgb(255, 255, 255); fill-opacity: 0.3; stroke: rgb(0, 0, 0); stroke-opacity: 1;" d="M6.67,0A6.67,6.67 0 1,1 0,-6.67A6.67,6.67 0 0,1 6.67,0Z"/><path class="point" transform="translate(65.73,386.09)" style="opacity: 0.7; stroke-width: 1px; fill: rgb(255, 255, 255); fill-opacity: 0.3; stroke: rgb(0, 0, 0); stroke-opacity: 1;" d="M6.14,0A6.14,6.14 0 1,1 0,-6.14A6.14,6.14 0 0,1 6.14,0Z"/><path class="point" transform="translate(67.94,386.22)" style="opacity: 0.7; stroke-width: 1px; fill: rgb(255, 255, 255); fill-opacity: 0.3; stroke: rgb(0, 0, 0); stroke-opacity: 1;" d="M3.36,0A3.36,3.36 0 1,1 0,-3.36A3.36,3.36 0 0,1 3.36,0Z"/><path class="point" transform="translate(68.32,384.46)" style="opacity: 0.7; stroke-width: 1px; fill: rgb(255, 255, 255); fill-opacity: 0.3; stroke: rgb(0, 0, 0); stroke-opacity: 1;" d="M11.26,0A11.26,11.26 0 1,1 0,-11.26A11.26,11.26 0 0,1 11.26,0Z"/><path class="point" transform="translate(68.79,386.1)" style="opacity: 0.7; stroke-width: 1px; fill: rgb(255, 255, 255); fill-opacity: 0.3; stroke: rgb(0, 0, 0); stroke-opacity: 1;" d="M5.59,0A5.59,5.59 0 1,1 0,-5.59A5.59,5.59 0 0,1 5.59,0Z"/><path class="point" transform="translate(71.15,386.15)" style="opacity: 0.7; stroke-width: 1px; fill: rgb(255, 255, 255); fill-opacity: 0.3; stroke: rgb(0, 0, 0); stroke-opacity: 1;" d="M5.32,0A5.32,5.32 0 1,1 0,-5.32A5.32,5.32 0 0,1 5.32,0Z"/><path class="point" transform="translate(72.07,386.07)" style="opacity: 0.7; stroke-width: 1px; fill: rgb(255, 255, 255); fill-opacity: 0.3; stroke: rgb(0, 0, 0); stroke-opacity: 1;" d="M6.32,0A6.32,6.32 0 1,1 0,-6.32A6.32,6.32 0 0,1 6.32,0Z"/><path class="point" transform="translate(72.63,386.24)" style="opacity: 0.7; stroke-width: 1px; fill: rgb(255, 255, 255); fill-opacity: 0.3; stroke: rgb(0, 0, 0); stroke-opacity: 1;" d="M3.36,0A3.36,3.36 0 1,1 0,-3.36A3.36,3.36 0 0,1 3.36,0Z"/><path class="point" transform="translate(78.28,233.78)" style="opacity: 0.7; stroke-width: 1px; fill: rgb(255, 255, 255); fill-opacity: 0.3; stroke: rgb(0, 0, 0); stroke-opacity: 1;" d="M33.78,0A33.78,33.78 0 1,1 0,-33.78A33.78,33.78 0 0,1 33.78,0Z"/><path class="point" transform="translate(78.46,386.19)" style="opacity: 0.7; stroke-width: 1px; fill: rgb(255, 255, 255); fill-opacity: 0.3; stroke: rgb(0, 0, 0); stroke-opacity: 1;" d="M3.36,0A3.36,3.36 0 1,1 0,-3.36A3.36,3.36 0 0,1 3.36,0Z"/><path class="point" transform="translate(82.88,369.31)" style="opacity: 0.7; stroke-width: 1px; fill: rgb(255, 255, 255); fill-opacity: 0.3; stroke: rgb(0, 0, 0); stroke-opacity: 1;" d="M6.11,0A6.11,6.11 0 1,1 0,-6.11A6.11,6.11 0 0,1 6.11,0Z"/><path class="point" transform="translate(89.66,383.63)" style="opacity: 0.7; stroke-width: 1px; fill: rgb(255, 255, 255); fill-opacity: 0.3; stroke: rgb(0, 0, 0); stroke-opacity: 1;" d="M5.61,0A5.61,5.61 0 1,1 0,-5.61A5.61,5.61 0 0,1 5.61,0Z"/><path class="point" transform="translate(95.54,338.17)" style="opacity: 0.7; stroke-width: 1px; fill: rgb(255, 255, 255); fill-opacity: 0.3; stroke: rgb(0, 0, 0); stroke-opacity: 1;" d="M25.6,0A25.6,25.6 0 1,1 0,-25.6A25.6,25.6 0 0,1 25.6,0Z"/><path class="point" transform="translate(96.35,385.83)" style="opacity: 0.7; stroke-width: 1px; fill: rgb(255, 255, 255); fill-opacity: 0.3; stroke: rgb(0, 0, 0); stroke-opacity: 1;" d="M6.51,0A6.51,6.51 0 1,1 0,-6.51A6.51,6.51 0 0,1 6.51,0Z"/><path class="point" transform="translate(97.17,384.95)" style="opacity: 0.7; stroke-width: 1px; fill: rgb(255, 255, 255); fill-opacity: 0.3; stroke: rgb(0, 0, 0); stroke-opacity: 1;" d="M3.36,0A3.36,3.36 0 1,1 0,-3.36A3.36,3.36 0 0,1 3.36,0Z"/><path class="point" transform="translate(98.36,386.23)" style="opacity: 0.7; stroke-width: 1px; fill: rgb(255, 255, 255); fill-opacity: 0.3; stroke: rgb(0, 0, 0); stroke-opacity: 1;" d="M3.36,0A3.36,3.36 0 1,1 0,-3.36A3.36,3.36 0 0,1 3.36,0Z"/><path class="point" transform="translate(98.36,384.06)" style="opacity: 0.7; stroke-width: 1px; fill: rgb(255, 255, 255); fill-opacity: 0.3; stroke: rgb(0, 0, 0); stroke-opacity: 1;" d="M3.36,0A3.36,3.36 0 1,1 0,-3.36A3.36,3.36 0 0,1 3.36,0Z"/><path class="point" transform="translate(98.36,386.23)" style="opacity: 0.7; stroke-width: 1px; fill: rgb(255, 255, 255); fill-opacity: 0.3; stroke: rgb(0, 0, 0); stroke-opacity: 1;" d="M3.36,0A3.36,3.36 0 1,1 0,-3.36A3.36,3.36 0 0,1 3.36,0Z"/><path class="point" transform="translate(98.36,385.37)" style="opacity: 0.7; stroke-width: 1px; fill: rgb(255, 255, 255); fill-opacity: 0.3; stroke: rgb(0, 0, 0); stroke-opacity: 1;" d="M5.79,0A5.79,5.79 0 1,1 0,-5.79A5.79,5.79 0 0,1 5.79,0Z"/><path class="point" transform="translate(98.36,384.8)" style="opacity: 0.7; stroke-width: 1px; fill: rgb(255, 255, 255); fill-opacity: 0.3; stroke: rgb(0, 0, 0); stroke-opacity: 1;" d="M3.36,0A3.36,3.36 0 1,1 0,-3.36A3.36,3.36 0 0,1 3.36,0Z"/><path class="point" transform="translate(98.36,386.24)" style="opacity: 0.7; stroke-width: 1px; fill: rgb(255, 255, 255); fill-opacity: 0.3; stroke: rgb(0, 0, 0); stroke-opacity: 1;" d="M3.36,0A3.36,3.36 0 1,1 0,-3.36A3.36,3.36 0 0,1 3.36,0Z"/><path class="point" transform="translate(98.36,386.24)" style="opacity: 0.7; stroke-width: 1px; fill: rgb(255, 255, 255); fill-opacity: 0.3; stroke: rgb(0, 0, 0); stroke-opacity: 1;" d="M3.36,0A3.36,3.36 0 1,1 0,-3.36A3.36,3.36 0 0,1 3.36,0Z"/><path class="point" transform="translate(98.36,386.05)" style="opacity: 0.7; stroke-width: 1px; fill: rgb(255, 255, 255); fill-opacity: 0.3; stroke: rgb(0, 0, 0); stroke-opacity: 1;" d="M3.36,0A3.36,3.36 0 1,1 0,-3.36A3.36,3.36 0 0,1 3.36,0Z"/><path class="point" transform="translate(98.36,386.22)" style="opacity: 0.7; stroke-width: 1px; fill: rgb(255, 255, 255); fill-opacity: 0.3; stroke: rgb(0, 0, 0); stroke-opacity: 1;" d="M3.36,0A3.36,3.36 0 1,1 0,-3.36A3.36,3.36 0 0,1 3.36,0Z"/><path class="point" transform="translate(98.37,386.23)" style="opacity: 0.7; stroke-width: 1px; fill: rgb(255, 255, 255); fill-opacity: 0.3; stroke: rgb(0, 0, 0); stroke-opacity: 1;" d="M3.36,0A3.36,3.36 0 1,1 0,-3.36A3.36,3.36 0 0,1 3.36,0Z"/><path class="point" transform="translate(98.37,386.03)" style="opacity: 0.7; stroke-width: 1px; fill: rgb(255, 255, 255); fill-opacity: 0.3; stroke: rgb(0, 0, 0); stroke-opacity: 1;" d="M6.62,0A6.62,6.62 0 1,1 0,-6.62A6.62,6.62 0 0,1 6.62,0Z"/><path class="point" transform="translate(98.37,385.95)" style="opacity: 0.7; stroke-width: 1px; fill: rgb(255, 255, 255); fill-opacity: 0.3; stroke: rgb(0, 0, 0); stroke-opacity: 1;" d="M5.72,0A5.72,5.72 0 1,1 0,-5.72A5.72,5.72 0 0,1 5.72,0Z"/><path class="point" transform="translate(98.39,385.89)" style="opacity: 0.7; stroke-width: 1px; fill: rgb(255, 255, 255); fill-opacity: 0.3; stroke: rgb(0, 0, 0); stroke-opacity: 1;" d="M7.28,0A7.28,7.28 0 1,1 0,-7.28A7.28,7.28 0 0,1 7.28,0Z"/><path class="point" transform="translate(103.53,383.61)" style="opacity: 0.7; stroke-width: 1px; fill: rgb(255, 255, 255); fill-opacity: 0.3; stroke: rgb(0, 0, 0); stroke-opacity: 1;" d="M6.94,0A6.94,6.94 0 1,1 0,-6.94A6.94,6.94 0 0,1 6.94,0Z"/><path class="point" transform="translate(104.2,386.14)" style="opacity: 0.7; stroke-width: 1px; fill: rgb(255, 255, 255); fill-opacity: 0.3; stroke: rgb(0, 0, 0); stroke-opacity: 1;" d="M5.47,0A5.47,5.47 0 1,1 0,-5.47A5.47,5.47 0 0,1 5.47,0Z"/><path class="point" transform="translate(106.13,363.45)" style="opacity: 0.7; stroke-width: 1px; fill: rgb(255, 255, 255); fill-opacity: 0.3; stroke: rgb(0, 0, 0); stroke-opacity: 1;" d="M20.88,0A20.88,20.88 0 1,1 0,-20.88A20.88,20.88 0 0,1 20.88,0Z"/><path class="point" transform="translate(113.7,379.41)" style="opacity: 0.7; stroke-width: 1px; fill: rgb(255, 255, 255); fill-opacity: 0.3; stroke: rgb(0, 0, 0); stroke-opacity: 1;" d="M15.67,0A15.67,15.67 0 1,1 0,-15.67A15.67,15.67 0 0,1 15.67,0Z"/><path class="point" transform="translate(118.37,314.73)" style="opacity: 0.7; stroke-width: 1px; fill: rgb(255, 255, 255); fill-opacity: 0.3; stroke: rgb(0, 0, 0); stroke-opacity: 1;" d="M3.36,0A3.36,3.36 0 1,1 0,-3.36A3.36,3.36 0 0,1 3.36,0Z"/><path class="point" transform="translate(158.68,363.39)" style="opacity: 0.7; stroke-width: 1px; fill: rgb(255, 255, 255); fill-opacity: 0.3; stroke: rgb(0, 0, 0); stroke-opacity: 1;" d="M20.48,0A20.48,20.48 0 1,1 0,-20.48A20.48,20.48 0 0,1 20.48,0Z"/><path class="point" transform="translate(173.8,352.89)" style="opacity: 0.7; stroke-width: 1px; fill: rgb(255, 255, 255); fill-opacity: 0.3; stroke: rgb(0, 0, 0); stroke-opacity: 1;" d="M10.74,0A10.74,10.74 0 1,1 0,-10.74A10.74,10.74 0 0,1 10.74,0Z"/><path class="point" transform="translate(174.57,376.87)" style="opacity: 0.7; stroke-width: 1px; fill: rgb(255, 255, 255); fill-opacity: 0.3; stroke: rgb(0, 0, 0); stroke-opacity: 1;" d="M6.92,0A6.92,6.92 0 1,1 0,-6.92A6.92,6.92 0 0,1 6.92,0Z"/><path class="point" transform="translate(182.6,385.13)" style="opacity: 0.7; stroke-width: 1px; fill: rgb(255, 255, 255); fill-opacity: 0.3; stroke: rgb(0, 0, 0); stroke-opacity: 1;" d="M7.02,0A7.02,7.02 0 1,1 0,-7.02A7.02,7.02 0 0,1 7.02,0Z"/><path class="point" transform="translate(182.99,385.35)" style="opacity: 0.7; stroke-width: 1px; fill: rgb(255, 255, 255); fill-opacity: 0.3; stroke: rgb(0, 0, 0); stroke-opacity: 1;" d="M7.2,0A7.2,7.2 0 1,1 0,-7.2A7.2,7.2 0 0,1 7.2,0Z"/><path class="point" transform="translate(229.65,99.41)" style="opacity: 0.7; stroke-width: 1px; fill: rgb(255, 255, 255); fill-opacity: 0.3; stroke: rgb(0, 0, 0); stroke-opacity: 1;" d="M7.49,0A7.49,7.49 0 1,1 0,-7.49A7.49,7.49 0 0,1 7.49,0Z"/><path class="point" transform="translate(236.97,95.48)" style="opacity: 0.7; stroke-width: 1px; fill: rgb(255, 255, 255); fill-opacity: 0.3; stroke: rgb(0, 0, 0); stroke-opacity: 1;" d="M39.67,0A39.67,39.67 0 1,1 0,-39.67A39.67,39.67 0 0,1 39.67,0Z"/><path class="point" transform="translate(391.38,60.78)" style="opacity: 0.7; stroke-width: 1px; fill: rgb(255, 255, 255); fill-opacity: 0.3; stroke: rgb(0, 0, 0); stroke-opacity: 1;" d="M31.82,0A31.82,31.82 0 1,1 0,-31.82A31.82,31.82 0 0,1 31.82,0Z"/><path class="point" transform="translate(441.2,386.22)" style="opacity: 0.7; stroke-width: 1px; fill: rgb(255, 255, 255); fill-opacity: 0.3; stroke: rgb(0, 0, 0); stroke-opacity: 1;" d="M3.36,0A3.36,3.36 0 1,1 0,-3.36A3.36,3.36 0 0,1 3.36,0Z"/><path class="point" transform="translate(534.46,347.29)" style="opacity: 0.7; stroke-width: 1px; fill: rgb(255, 255, 255); fill-opacity: 0.3; stroke: rgb(0, 0, 0); stroke-opacity: 1;" d="M23.35,0A23.35,23.35 0 1,1 0,-23.35A23.35,23.35 0 0,1 23.35,0Z"/><path class="point" transform="translate(630.98,320.75)" style="opacity: 0.7; stroke-width: 1px; fill: rgb(255, 255, 255); fill-opacity: 0.3; stroke: rgb(0, 0, 0); stroke-opacity: 1;" d="M13.54,0A13.54,13.54 0 1,1 0,-13.54A13.54,13.54 0 0,1 13.54,0Z"/></g><g class="text"><g class="textpoint" transform="translate(0,3)"><text x="58.12" y="385.96" style="font-family: TOBESTRIPPEDOpen SansTOBESTRIPPED, verdana, arial, sans-serif; font-size: 12px; fill: rgb(68, 68, 68); fill-opacity: 1; white-space: pre;" text-anchor="middle">mather</text></g><g class="textpoint" transform="translate(0,3)"><text x="60.93" y="362.25" style="font-family: TOBESTRIPPEDOpen SansTOBESTRIPPED, verdana, arial, sans-serif; font-size: 12px; fill: rgb(68, 68, 68); fill-opacity: 1; white-space: pre;" text-anchor="middle">jumpgo</text></g><g class="textpoint" transform="translate(0,3)"><text x="61.39" y="209.8" style="font-family: TOBESTRIPPEDOpen SansTOBESTRIPPED, verdana, arial, sans-serif; font-size: 12px; fill: rgb(68, 68, 68); fill-opacity: 1; white-space: pre;" text-anchor="middle">quickdic</text></g><g class="textpoint" transform="translate(0,3)"><text x="65.73" y="386.09" style="font-family: TOBESTRIPPEDOpen SansTOBESTRIPPED, verdana, arial, sans-serif; font-size: 12px; fill: rgb(68, 68, 68); fill-opacity: 1; white-space: pre;" text-anchor="middle">binaryeye</text></g><g class="textpoint" transform="translate(0,3)"><text x="67.94" y="386.22" style="font-family: TOBESTRIPPEDOpen SansTOBESTRIPPED, verdana, arial, sans-serif; font-size: 12px; fill: rgb(68, 68, 68); fill-opacity: 1; white-space: pre;" text-anchor="middle">webview</text></g><g class="textpoint" transform="translate(0,3)"><text x="68.32" y="384.46" style="font-family: TOBESTRIPPEDOpen SansTOBESTRIPPED, verdana, arial, sans-serif; font-size: 12px; fill: rgb(68, 68, 68); fill-opacity: 1; white-space: pre;" text-anchor="middle">pro</text></g><g class="textpoint" transform="translate(0,3)"><text x="68.79" y="386.1" style="font-family: TOBESTRIPPEDOpen SansTOBESTRIPPED, verdana, arial, sans-serif; font-size: 12px; fill: rgb(68, 68, 68); fill-opacity: 1; white-space: pre;" text-anchor="middle">barcodescanner</text></g><g class="textpoint" transform="translate(0,3)"><text x="71.15" y="386.15" style="font-family: TOBESTRIPPEDOpen SansTOBESTRIPPED, verdana, arial, sans-serif; font-size: 12px; fill: rgb(68, 68, 68); fill-opacity: 1; white-space: pre;" text-anchor="middle">primftpd</text></g><g class="textpoint" transform="translate(0,3)"><text x="72.07" y="386.07" style="font-family: TOBESTRIPPEDOpen SansTOBESTRIPPED, verdana, arial, sans-serif; font-size: 12px; fill: rgb(68, 68, 68); fill-opacity: 1; white-space: pre;" text-anchor="middle">etar</text></g><g class="textpoint" transform="translate(0,3)"><text x="72.63" y="386.24" style="font-family: TOBESTRIPPEDOpen SansTOBESTRIPPED, verdana, arial, sans-serif; font-size: 12px; fill: rgb(68, 68, 68); fill-opacity: 1; white-space: pre;" text-anchor="middle">voicerecorder</text></g><g class="textpoint" transform="translate(0,3)"><text x="78.28" y="233.78" style="font-family: TOBESTRIPPEDOpen SansTOBESTRIPPED, verdana, arial, sans-serif; font-size: 12px; fill: rgb(68, 68, 68); fill-opacity: 1; white-space: pre;" text-anchor="middle">fdroid</text></g><g class="textpoint" transform="translate(0,3)"><text x="78.46" y="386.19" style="font-family: TOBESTRIPPEDOpen SansTOBESTRIPPED, verdana, arial, sans-serif; font-size: 12px; fill: rgb(68, 68, 68); fill-opacity: 1; white-space: pre;" text-anchor="middle">davdroid</text></g><g class="textpoint" transform="translate(0,3)"><text x="82.88" y="369.31" style="font-family: TOBESTRIPPEDOpen SansTOBESTRIPPED, verdana, arial, sans-serif; font-size: 12px; fill: rgb(68, 68, 68); fill-opacity: 1; white-space: pre;" text-anchor="middle">viewer</text></g><g class="textpoint" transform="translate(0,3)"><text x="89.66" y="383.63" style="font-family: TOBESTRIPPEDOpen SansTOBESTRIPPED, verdana, arial, sans-serif; font-size: 12px; fill: rgb(68, 68, 68); fill-opacity: 1; white-space: pre;" text-anchor="middle">alarm</text></g><g class="textpoint" transform="translate(0,3)"><text x="95.54" y="338.17" style="font-family: TOBESTRIPPEDOpen SansTOBESTRIPPED, verdana, arial, sans-serif; font-size: 12px; fill: rgb(68, 68, 68); fill-opacity: 1; white-space: pre;" text-anchor="middle">pro</text></g><g class="textpoint" transform="translate(0,3)"><text x="96.35" y="385.83" style="font-family: TOBESTRIPPEDOpen SansTOBESTRIPPED, verdana, arial, sans-serif; font-size: 12px; fill: rgb(68, 68, 68); fill-opacity: 1; white-space: pre;" text-anchor="middle">v1</text></g><g class="textpoint" transform="translate(0,3)"><text x="97.17" y="384.95" style="font-family: TOBESTRIPPEDOpen SansTOBESTRIPPED, verdana, arial, sans-serif; font-size: 12px; fill: rgb(68, 68, 68); fill-opacity: 1; white-space: pre;" text-anchor="middle">wellbeing</text></g><g class="textpoint" transform="translate(0,3)"><text x="98.36" y="386.23" style="font-family: TOBESTRIPPEDOpen SansTOBESTRIPPED, verdana, arial, sans-serif; font-size: 12px; fill: rgb(68, 68, 68); fill-opacity: 1; white-space: pre;" text-anchor="middle">blockednumber</text></g><g class="textpoint" transform="translate(0,3)"><text x="98.36" y="384.06" style="font-family: TOBESTRIPPEDOpen SansTOBESTRIPPED, verdana, arial, sans-serif; font-size: 12px; fill: rgb(68, 68, 68); fill-opacity: 1; white-space: pre;" text-anchor="middle">contacts</text></g><g class="textpoint" transform="translate(0,3)"><text x="98.36" y="386.23" style="font-family: TOBESTRIPPEDOpen SansTOBESTRIPPED, verdana, arial, sans-serif; font-size: 12px; fill: rgb(68, 68, 68); fill-opacity: 1; white-space: pre;" text-anchor="middle">downloads</text></g><g class="textpoint" transform="translate(0,3)"><text x="98.36" y="385.37" style="font-family: TOBESTRIPPEDOpen SansTOBESTRIPPED, verdana, arial, sans-serif; font-size: 12px; fill: rgb(68, 68, 68); fill-opacity: 1; white-space: pre;" text-anchor="middle">media</text></g><g class="textpoint" transform="translate(0,3)"><text x="98.36" y="384.8" style="font-family: TOBESTRIPPEDOpen SansTOBESTRIPPED, verdana, arial, sans-serif; font-size: 12px; fill: rgb(68, 68, 68); fill-opacity: 1; white-space: pre;" text-anchor="middle">telephony</text></g><g class="textpoint" transform="translate(0,3)"><text x="98.36" y="386.24" style="font-family: TOBESTRIPPEDOpen SansTOBESTRIPPED, verdana, arial, sans-serif; font-size: 12px; fill: rgb(68, 68, 68); fill-opacity: 1; white-space: pre;" text-anchor="middle">keychain</text></g><g class="textpoint" transform="translate(0,3)"><text x="98.36" y="386.24" style="font-family: TOBESTRIPPEDOpen SansTOBESTRIPPED, verdana, arial, sans-serif; font-size: 12px; fill: rgb(68, 68, 68); fill-opacity: 1; white-space: pre;" text-anchor="middle">mtp</text></g><g class="textpoint" transform="translate(0,3)"><text x="98.36" y="386.05" style="font-family: TOBESTRIPPEDOpen SansTOBESTRIPPED, verdana, arial, sans-serif; font-size: 12px; fill: rgb(68, 68, 68); fill-opacity: 1; white-space: pre;" text-anchor="middle">gsf</text></g><g class="textpoint" transform="translate(0,3)"><text x="98.36" y="386.22" style="font-family: TOBESTRIPPEDOpen SansTOBESTRIPPED, verdana, arial, sans-serif; font-size: 12px; fill: rgb(68, 68, 68); fill-opacity: 1; white-space: pre;" text-anchor="middle">lineagesettings</text></g><g class="textpoint" transform="translate(0,3)"><text x="98.37" y="386.23" style="font-family: TOBESTRIPPEDOpen SansTOBESTRIPPED, verdana, arial, sans-serif; font-size: 12px; fill: rgb(68, 68, 68); fill-opacity: 1; white-space: pre;" text-anchor="middle">networkstack</text></g><g class="textpoint" transform="translate(0,3)"><text x="98.37" y="386.03" style="font-family: TOBESTRIPPEDOpen SansTOBESTRIPPED, verdana, arial, sans-serif; font-size: 12px; fill: rgb(68, 68, 68); fill-opacity: 1; white-space: pre;" text-anchor="middle">phone</text></g><g class="textpoint" transform="translate(0,3)"><text x="98.37" y="385.95" style="font-family: TOBESTRIPPEDOpen SansTOBESTRIPPED, verdana, arial, sans-serif; font-size: 12px; fill: rgb(68, 68, 68); fill-opacity: 1; white-space: pre;" text-anchor="middle">lineageparts</text></g><g class="textpoint" transform="translate(0,3)"><text x="98.39" y="385.89" style="font-family: TOBESTRIPPEDOpen SansTOBESTRIPPED, verdana, arial, sans-serif; font-size: 12px; fill: rgb(68, 68, 68); fill-opacity: 1; white-space: pre;" text-anchor="middle">settings</text></g><g class="textpoint" transform="translate(0,3)"><text x="103.53" y="383.61" style="font-family: TOBESTRIPPEDOpen SansTOBESTRIPPED, verdana, arial, sans-serif; font-size: 12px; fill: rgb(68, 68, 68); fill-opacity: 1; white-space: pre;" text-anchor="middle">zhuyin</text></g><g class="textpoint" transform="translate(0,3)"><text x="104.2" y="386.14" style="font-family: TOBESTRIPPEDOpen SansTOBESTRIPPED, verdana, arial, sans-serif; font-size: 12px; fill: rgb(68, 68, 68); fill-opacity: 1; white-space: pre;" text-anchor="middle">klik</text></g><g class="textpoint" transform="translate(0,3)"><text x="106.13" y="363.45" style="font-family: TOBESTRIPPEDOpen SansTOBESTRIPPED, verdana, arial, sans-serif; font-size: 12px; fill: rgb(68, 68, 68); fill-opacity: 1; white-space: pre;" text-anchor="middle">bustaiwan</text></g><g class="textpoint" transform="translate(0,3)"><text x="113.7" y="379.41" style="font-family: TOBESTRIPPEDOpen SansTOBESTRIPPED, verdana, arial, sans-serif; font-size: 12px; fill: rgb(68, 68, 68); fill-opacity: 1; white-space: pre;" text-anchor="middle">act</text></g><g class="textpoint" transform="translate(0,3)"><text x="118.37" y="314.73" style="font-family: TOBESTRIPPEDOpen SansTOBESTRIPPED, verdana, arial, sans-serif; font-size: 12px; fill: rgb(68, 68, 68); fill-opacity: 1; white-space: pre;" text-anchor="middle">tts</text></g><g class="textpoint" transform="translate(0,3)"><text x="158.68" y="363.39" style="font-family: TOBESTRIPPEDOpen SansTOBESTRIPPED, verdana, arial, sans-serif; font-size: 12px; fill: rgb(68, 68, 68); fill-opacity: 1; white-space: pre;" text-anchor="middle">vending</text></g><g class="textpoint" transform="translate(0,3)"><text x="173.8" y="352.89" style="font-family: TOBESTRIPPEDOpen SansTOBESTRIPPED, verdana, arial, sans-serif; font-size: 12px; fill: rgb(68, 68, 68); fill-opacity: 1; white-space: pre;" text-anchor="middle">sheets</text></g><g class="textpoint" transform="translate(0,3)"><text x="174.57" y="376.87" style="font-family: TOBESTRIPPEDOpen SansTOBESTRIPPED, verdana, arial, sans-serif; font-size: 12px; fill: rgb(68, 68, 68); fill-opacity: 1; white-space: pre;" text-anchor="middle">meet</text></g><g class="textpoint" transform="translate(0,3)"><text x="182.6" y="385.13" style="font-family: TOBESTRIPPEDOpen SansTOBESTRIPPED, verdana, arial, sans-serif; font-size: 12px; fill: rgb(68, 68, 68); fill-opacity: 1; white-space: pre;" text-anchor="middle">vlc</text></g><g class="textpoint" transform="translate(0,3)"><text x="182.99" y="385.35" style="font-family: TOBESTRIPPEDOpen SansTOBESTRIPPED, verdana, arial, sans-serif; font-size: 12px; fill: rgb(68, 68, 68); fill-opacity: 1; white-space: pre;" text-anchor="middle">rnbeta</text></g><g class="textpoint" transform="translate(0,3)"><text x="229.65" y="99.41" style="font-family: TOBESTRIPPEDOpen SansTOBESTRIPPED, verdana, arial, sans-serif; font-size: 12px; fill: rgb(68, 68, 68); fill-opacity: 1; white-space: pre;" text-anchor="middle">plus</text></g><g class="textpoint" transform="translate(0,3)"><text x="236.97" y="95.48" style="font-family: TOBESTRIPPEDOpen SansTOBESTRIPPED, verdana, arial, sans-serif; font-size: 12px; fill: rgb(68, 68, 68); fill-opacity: 1; white-space: pre;" text-anchor="middle">icecat</text></g><g class="textpoint" transform="translate(0,3)"><text x="391.38" y="60.78" style="font-family: TOBESTRIPPEDOpen SansTOBESTRIPPED, verdana, arial, sans-serif; font-size: 12px; fill: rgb(68, 68, 68); fill-opacity: 1; white-space: pre;" text-anchor="middle">line</text></g><g class="textpoint" transform="translate(0,3)"><text x="441.2" y="386.22" style="font-family: TOBESTRIPPEDOpen SansTOBESTRIPPED, verdana, arial, sans-serif; font-size: 12px; fill: rgb(68, 68, 68); fill-opacity: 1; white-space: pre;" text-anchor="middle">partnersetup</text></g><g class="textpoint" transform="translate(0,3)"><text x="534.46" y="347.29" style="font-family: TOBESTRIPPEDOpen SansTOBESTRIPPED, verdana, arial, sans-serif; font-size: 12px; fill: rgb(68, 68, 68); fill-opacity: 1; white-space: pre;" text-anchor="middle">googlequicksearchbox</text></g><g class="textpoint" transform="translate(0,3)"><text x="630.98" y="320.75" style="font-family: TOBESTRIPPEDOpen SansTOBESTRIPPED, verdana, arial, sans-serif; font-size: 12px; fill: rgb(68, 68, 68); fill-opacity: 1; white-space: pre;" text-anchor="middle">gms</text></g></g></g></g></g><g class="overplot"/><path class="xlines-above crisp" style="fill: none;" d="M0,0"/><path class="ylines-above crisp" style="fill: none;" d="M0,0"/><g class="overlines-above"/><g class="xaxislayer-above"><g class="xtick"><text text-anchor="middle" x="0" y="533" style="font-family: TOBESTRIPPEDOpen SansTOBESTRIPPED, verdana, arial, sans-serif; font-size: 12px; fill: rgb(68, 68, 68); fill-opacity: 1; white-space: pre;" transform="translate(130.5,0)">0</text></g><g class="xtick"><text text-anchor="middle" x="0" y="533" style="font-family: TOBESTRIPPEDOpen SansTOBESTRIPPED, verdana, arial, sans-serif; font-size: 12px; fill: rgb(68, 68, 68); fill-opacity: 1; white-space: pre;" transform="translate(266.82,0)">100M</text></g><g class="xtick"><text text-anchor="middle" x="0" y="533" style="font-family: TOBESTRIPPEDOpen SansTOBESTRIPPED, verdana, arial, sans-serif; font-size: 12px; fill: rgb(68, 68, 68); fill-opacity: 1; white-space: pre;" transform="translate(403.14,0)">200M</text></g><g class="xtick"><text text-anchor="middle" x="0" y="533" style="font-family: TOBESTRIPPEDOpen SansTOBESTRIPPED, verdana, arial, sans-serif; font-size: 12px; fill: rgb(68, 68, 68); fill-opacity: 1; white-space: pre;" transform="translate(539.46,0)">300M</text></g><g class="xtick"><text text-anchor="middle" x="0" y="533" style="font-family: TOBESTRIPPEDOpen SansTOBESTRIPPED, verdana, arial, sans-serif; font-size: 12px; fill: rgb(68, 68, 68); fill-opacity: 1; white-space: pre;" transform="translate(675.77,0)">400M</text></g></g><g class="yaxislayer-above"><g class="ytick"><text text-anchor="end" x="79" y="4.199999999999999" style="font-family: TOBESTRIPPEDOpen SansTOBESTRIPPED, verdana, arial, sans-serif; font-size: 12px; fill: rgb(68, 68, 68); fill-opacity: 1; white-space: pre;" transform="translate(0,486.28)">0</text></g><g class="ytick"><text text-anchor="end" x="79" y="4.199999999999999" style="font-family: TOBESTRIPPEDOpen SansTOBESTRIPPED, verdana, arial, sans-serif; font-size: 12px; fill: rgb(68, 68, 68); fill-opacity: 1; white-space: pre;" transform="translate(0,442.79)">100M</text></g><g class="ytick"><text text-anchor="end" x="79" y="4.199999999999999" style="font-family: TOBESTRIPPEDOpen SansTOBESTRIPPED, verdana, arial, sans-serif; font-size: 12px; fill: rgb(68, 68, 68); fill-opacity: 1; white-space: pre;" transform="translate(0,399.3)">200M</text></g><g class="ytick"><text text-anchor="end" x="79" y="4.199999999999999" style="font-family: TOBESTRIPPEDOpen SansTOBESTRIPPED, verdana, arial, sans-serif; font-size: 12px; fill: rgb(68, 68, 68); fill-opacity: 1; white-space: pre;" transform="translate(0,355.8)">300M</text></g><g class="ytick"><text text-anchor="end" x="79" y="4.199999999999999" style="font-family: TOBESTRIPPEDOpen SansTOBESTRIPPED, verdana, arial, sans-serif; font-size: 12px; fill: rgb(68, 68, 68); fill-opacity: 1; white-space: pre;" transform="translate(0,312.31)">400M</text></g><g class="ytick"><text text-anchor="end" x="79" y="4.199999999999999" style="font-family: TOBESTRIPPEDOpen SansTOBESTRIPPED, verdana, arial, sans-serif; font-size: 12px; fill: rgb(68, 68, 68); fill-opacity: 1; white-space: pre;" transform="translate(0,268.81)">500M</text></g><g class="ytick"><text text-anchor="end" x="79" y="4.199999999999999" style="font-family: TOBESTRIPPEDOpen SansTOBESTRIPPED, verdana, arial, sans-serif; font-size: 12px; fill: rgb(68, 68, 68); fill-opacity: 1; white-space: pre;" transform="translate(0,225.32)">600M</text></g><g class="ytick"><text text-anchor="end" x="79" y="4.199999999999999" style="font-family: TOBESTRIPPEDOpen SansTOBESTRIPPED, verdana, arial, sans-serif; font-size: 12px; fill: rgb(68, 68, 68); fill-opacity: 1; white-space: pre;" transform="translate(0,181.82)">700M</text></g><g class="ytick"><text text-anchor="end" x="79" y="4.199999999999999" style="font-family: TOBESTRIPPEDOpen SansTOBESTRIPPED, verdana, arial, sans-serif; font-size: 12px; fill: rgb(68, 68, 68); fill-opacity: 1; white-space: pre;" transform="translate(0,138.32999999999998)">800M</text></g></g><g class="overaxes-above"/></g></g><g class="polarlayer"/><g class="ternarylayer"/><g class="geolayer"/><g class="funnelarealayer"/><g class="pielayer"/><g class="treemaplayer"/><g class="sunburstlayer"/><g class="glimages"/><defs id="topdefs-9ab8ce"><g class="clips"/></defs><g class="layer-above"><g class="imagelayer"/><g class="shapelayer"/></g><g class="infolayer"><g class="g-gtitle"><text class="gtitle" style="font-family: TOBESTRIPPEDOpen SansTOBESTRIPPED, verdana, arial, sans-serif; font-size: 17px; fill: rgb(68, 68, 68); opacity: 1; font-weight: normal; white-space: pre;" x="420.85" y="50" text-anchor="middle" dy="0em">sizes of android apps</text></g><g class="g-xtitle"><text class="xtitle" style="font-family: TOBESTRIPPEDOpen SansTOBESTRIPPED, verdana, arial, sans-serif; font-size: 14px; fill: rgb(68, 68, 68); opacity: 1; font-weight: normal; white-space: pre;" x="421" y="572" text-anchor="middle">App</text></g><g class="g-ytitle"><text class="ytitle" transform="rotate(-90,42,310)" style="font-family: TOBESTRIPPEDOpen SansTOBESTRIPPED, verdana, arial, sans-serif; font-size: 14px; fill: rgb(68, 68, 68); opacity: 1; font-weight: normal; white-space: pre;" x="42" y="310" text-anchor="middle">Data</text></g></g></svg>