<?xml version="1.0" encoding="UTF-8" standalone="no"?>
<!DOCTYPE svg PUBLIC "-//W3C//DTD SVG 1.1//EN"
 "http://www.w3.org/Graphics/SVG/1.1/DTD/svg11.dtd">
<!-- Generated by graphviz version 2.43.0 (0)
 -->
<!-- Title: largeRelationshipsDiagram Pages: 1 -->
<svg width="699pt" height="879pt"
 viewBox="0.00 0.00 699.43 879.00" xmlns="http://www.w3.org/2000/svg" xmlns:xlink="http://www.w3.org/1999/xlink">
<g id="graph0" class="graph" transform="scale(1 1) rotate(0) translate(4 875)">
<title>largeRelationshipsDiagram</title>
<polygon fill="#ffffff" stroke="transparent" points="-4,4 -4,-875 695.43,-875 695.43,4 -4,4"/>
<text text-anchor="middle" x="79.5" y="-7.2" font-family="Helvetica,sans-Serif" font-size="11.00">Generated by SchemaSpy</text>
<!-- albums -->
<g id="node1" class="node">
<title>albums</title>
<g id="a_node1"><a xlink:href="tables/albums.html" xlink:title="albums" target="_top">
<polygon fill="#ffffff" stroke="transparent" points="204.43,-282 204.43,-388 313.43,-388 313.43,-282 204.43,-282"/>
<polygon fill="#f5f5f5" stroke="transparent" points="204.93,-366 204.93,-388 313.93,-388 313.93,-366 204.93,-366"/>
<polygon fill="none" stroke="black" points="204.93,-366 204.93,-388 313.93,-388 313.93,-366 204.93,-366"/>
<text text-anchor="start" x="209.93" y="-375.2" font-family="Helvetica,sans-Serif" font-weight="bold" font-size="11.00">albums</text>
<text text-anchor="start" x="271.93" y="-374.2" font-family="Helvetica,sans-Serif" font-size="11.00">[table]</text>
<polygon fill="none" stroke="black" points="204.93,-344 204.93,-366 313.93,-366 313.93,-344 204.93,-344"/>
<image xlink:href="../../images/primaryKeys.png" width="11px" height="12px" preserveAspectRatio="xMinYMin meet" x="209.928" y="-361"/>
<text text-anchor="start" x="243.93" y="-352.2" font-family="Helvetica,sans-Serif" font-size="11.00">AlbumId</text>
<polygon fill="none" stroke="black" points="204.93,-322 204.93,-344 313.93,-344 313.93,-322 204.93,-322"/>
<text text-anchor="start" x="243.93" y="-330.2" font-family="Helvetica,sans-Serif" font-size="11.00">Title</text>
<polygon fill="#ffffff" stroke="transparent" points="204.93,-300 204.93,-322 313.93,-322 313.93,-300 204.93,-300"/>
<polygon fill="none" stroke="black" points="204.93,-300 204.93,-322 313.93,-322 313.93,-300 204.93,-300"/>
<image xlink:href="../../images/foreignKeys.png" width="11px" height="12px" preserveAspectRatio="xMinYMin meet" x="209.928" y="-317"/>
<text text-anchor="start" x="243.93" y="-308.2" font-family="Helvetica,sans-Serif" font-size="11.00">ArtistId</text>
<polygon fill="#ffffff" stroke="transparent" points="204.93,-282 204.93,-300 230.93,-300 230.93,-282 204.93,-282"/>
<polygon fill="none" stroke="black" points="204.93,-282 204.93,-300 230.93,-300 230.93,-282 204.93,-282"/>
<text text-anchor="start" x="207.93" y="-288.2" font-family="Helvetica,sans-Serif" font-size="11.00">&lt; 1</text>
<polygon fill="#ffffff" stroke="transparent" points="230.93,-282 230.93,-300 287.93,-300 287.93,-282 230.93,-282"/>
<polygon fill="none" stroke="black" points="230.93,-282 230.93,-300 287.93,-300 287.93,-282 230.93,-282"/>
<text text-anchor="start" x="233.93" y="-288.2" font-family="Helvetica,sans-Serif" font-size="11.00">347 rows</text>
<polygon fill="#ffffff" stroke="transparent" points="287.93,-282 287.93,-300 313.93,-300 313.93,-282 287.93,-282"/>
<polygon fill="none" stroke="black" points="287.93,-282 287.93,-300 313.93,-300 313.93,-282 287.93,-282"/>
<text text-anchor="start" x="290.93" y="-288.2" font-family="Helvetica,sans-Serif" font-size="11.00">1 &gt;</text>
</a>
</g>
</g>
<!-- artists -->
<g id="node2" class="node">
<title>artists</title>
<g id="a_node2"><a xlink:href="tables/artists.html" xlink:title="artists" target="_top">
<polygon fill="#ffffff" stroke="transparent" points="37.93,-194 37.93,-278 134.93,-278 134.93,-194 37.93,-194"/>
<polygon fill="#f5f5f5" stroke="transparent" points="38.43,-256 38.43,-278 135.43,-278 135.43,-256 38.43,-256"/>
<polygon fill="none" stroke="black" points="38.43,-256 38.43,-278 135.43,-278 135.43,-256 38.43,-256"/>
<text text-anchor="start" x="43.43" y="-265.2" font-family="Helvetica,sans-Serif" font-weight="bold" font-size="11.00">artists</text>
<text text-anchor="start" x="93.43" y="-264.2" font-family="Helvetica,sans-Serif" font-size="11.00">[table]</text>
<polygon fill="none" stroke="black" points="38.43,-234 38.43,-256 135.43,-256 135.43,-234 38.43,-234"/>
<image xlink:href="../../images/primaryKeys.png" width="11px" height="12px" preserveAspectRatio="xMinYMin meet" x="43.4282" y="-251"/>
<text text-anchor="start" x="74.43" y="-242.2" font-family="Helvetica,sans-Serif" font-size="11.00">ArtistId</text>
<polygon fill="none" stroke="black" points="38.43,-212 38.43,-234 135.43,-234 135.43,-212 38.43,-212"/>
<text text-anchor="start" x="74.43" y="-220.2" font-family="Helvetica,sans-Serif" font-size="11.00">Name</text>
<polygon fill="#ffffff" stroke="transparent" points="38.43,-194 38.43,-212 52.43,-212 52.43,-194 38.43,-194"/>
<polygon fill="none" stroke="black" points="38.43,-194 38.43,-212 52.43,-212 52.43,-194 38.43,-194"/>
<text text-anchor="start" x="41.43" y="-200.2" font-family="Helvetica,sans-Serif" font-size="11.00"> &#160;</text>
<polygon fill="#ffffff" stroke="transparent" points="52.43,-194 52.43,-212 109.43,-212 109.43,-194 52.43,-194"/>
<polygon fill="none" stroke="black" points="52.43,-194 52.43,-212 109.43,-212 109.43,-194 52.43,-194"/>
<text text-anchor="start" x="55.43" y="-200.2" font-family="Helvetica,sans-Serif" font-size="11.00">275 rows</text>
<polygon fill="#ffffff" stroke="transparent" points="109.43,-194 109.43,-212 135.43,-212 135.43,-194 109.43,-194"/>
<polygon fill="none" stroke="black" points="109.43,-194 109.43,-212 135.43,-212 135.43,-194 109.43,-194"/>
<text text-anchor="start" x="112.43" y="-200.2" font-family="Helvetica,sans-Serif" font-size="11.00">1 &gt;</text>
</a>
</g>
</g>
<!-- albums&#45;&gt;artists -->
<g id="edge1" class="edge">
<title>albums:w&#45;&gt;artists:e</title>
<path fill="none" stroke="black" d="M189.69,-307.64C165.37,-294.19 172.65,-245 136.43,-245"/>
<polygon fill="black" stroke="black" points="196.14,-309.16 203.1,-314.5 200.04,-310.08 203.93,-311 203.93,-311 203.93,-311 200.04,-310.08 204.76,-307.5 196.14,-309.16 196.14,-309.16"/>
<ellipse fill="none" stroke="black" cx="193.03" cy="-308.42" rx="3.2" ry="3.2"/>
</g>
<!-- customers -->
<g id="node3" class="node">
<title>customers</title>
<g id="a_node3"><a xlink:href="tables/customers.html" xlink:title="customers" target="_top">
<polygon fill="#ffffff" stroke="transparent" points="200.93,-541 200.93,-867 316.93,-867 316.93,-541 200.93,-541"/>
<polygon fill="#f5f5f5" stroke="transparent" points="200.93,-845 200.93,-867 316.93,-867 316.93,-845 200.93,-845"/>
<polygon fill="none" stroke="black" points="200.93,-845 200.93,-867 316.93,-867 316.93,-845 200.93,-845"/>
<text text-anchor="start" x="205.93" y="-854.2" font-family="Helvetica,sans-Serif" font-weight="bold" font-size="11.00">customers</text>
<text text-anchor="start" x="274.93" y="-853.2" font-family="Helvetica,sans-Serif" font-size="11.00">[table]</text>
<polygon fill="none" stroke="black" points="200.93,-823 200.93,-845 316.93,-845 316.93,-823 200.93,-823"/>
<image xlink:href="../../images/primaryKeys.png" width="11px" height="12px" preserveAspectRatio="xMinYMin meet" x="205.928" y="-840"/>
<text text-anchor="start" x="227.93" y="-831.2" font-family="Helvetica,sans-Serif" font-size="11.00">CustomerId</text>
<polygon fill="none" stroke="black" points="200.93,-801 200.93,-823 316.93,-823 316.93,-801 200.93,-801"/>
<text text-anchor="start" x="227.93" y="-809.2" font-family="Helvetica,sans-Serif" font-size="11.00">FirstName</text>
<polygon fill="none" stroke="black" points="200.93,-779 200.93,-801 316.93,-801 316.93,-779 200.93,-779"/>
<text text-anchor="start" x="227.93" y="-787.2" font-family="Helvetica,sans-Serif" font-size="11.00">LastName</text>
<polygon fill="none" stroke="black" points="200.93,-757 200.93,-779 316.93,-779 316.93,-757 200.93,-757"/>
<text text-anchor="start" x="227.93" y="-765.2" font-family="Helvetica,sans-Serif" font-size="11.00">Company</text>
<polygon fill="none" stroke="black" points="200.93,-735 200.93,-757 316.93,-757 316.93,-735 200.93,-735"/>
<text text-anchor="start" x="227.93" y="-743.2" font-family="Helvetica,sans-Serif" font-size="11.00">Address</text>
<polygon fill="none" stroke="black" points="200.93,-713 200.93,-735 316.93,-735 316.93,-713 200.93,-713"/>
<text text-anchor="start" x="227.93" y="-721.2" font-family="Helvetica,sans-Serif" font-size="11.00">City</text>
<polygon fill="none" stroke="black" points="200.93,-691 200.93,-713 316.93,-713 316.93,-691 200.93,-691"/>
<text text-anchor="start" x="227.93" y="-699.2" font-family="Helvetica,sans-Serif" font-size="11.00">State</text>
<polygon fill="none" stroke="black" points="200.93,-669 200.93,-691 316.93,-691 316.93,-669 200.93,-669"/>
<text text-anchor="start" x="227.93" y="-677.2" font-family="Helvetica,sans-Serif" font-size="11.00">Country</text>
<polygon fill="none" stroke="black" points="200.93,-647 200.93,-669 316.93,-669 316.93,-647 200.93,-647"/>
<text text-anchor="start" x="227.93" y="-655.2" font-family="Helvetica,sans-Serif" font-size="11.00">PostalCode</text>
<polygon fill="none" stroke="black" points="200.93,-625 200.93,-647 316.93,-647 316.93,-625 200.93,-625"/>
<text text-anchor="start" x="227.93" y="-633.2" font-family="Helvetica,sans-Serif" font-size="11.00">Phone</text>
<polygon fill="none" stroke="black" points="200.93,-603 200.93,-625 316.93,-625 316.93,-603 200.93,-603"/>
<text text-anchor="start" x="227.93" y="-611.2" font-family="Helvetica,sans-Serif" font-size="11.00">Fax</text>
<polygon fill="none" stroke="black" points="200.93,-581 200.93,-603 316.93,-603 316.93,-581 200.93,-581"/>
<text text-anchor="start" x="227.93" y="-589.2" font-family="Helvetica,sans-Serif" font-size="11.00">Email</text>
<polygon fill="#ffffff" stroke="transparent" points="200.93,-559 200.93,-581 316.93,-581 316.93,-559 200.93,-559"/>
<polygon fill="none" stroke="black" points="200.93,-559 200.93,-581 316.93,-581 316.93,-559 200.93,-559"/>
<image xlink:href="../../images/foreignKeys.png" width="11px" height="12px" preserveAspectRatio="xMinYMin meet" x="205.928" y="-576"/>
<text text-anchor="start" x="227.93" y="-567.2" font-family="Helvetica,sans-Serif" font-size="11.00">SupportRepId</text>
<polygon fill="#ffffff" stroke="transparent" points="200.93,-541 200.93,-559 233.93,-559 233.93,-541 200.93,-541"/>
<polygon fill="none" stroke="black" points="200.93,-541 200.93,-559 233.93,-559 233.93,-541 200.93,-541"/>
<text text-anchor="start" x="203.93" y="-547.2" font-family="Helvetica,sans-Serif" font-size="11.00">&lt; 1</text>
<polygon fill="#ffffff" stroke="transparent" points="233.93,-541 233.93,-559 286.93,-559 286.93,-541 233.93,-541"/>
<polygon fill="none" stroke="black" points="233.93,-541 233.93,-559 286.93,-559 286.93,-541 233.93,-541"/>
<text text-anchor="start" x="239.93" y="-547.2" font-family="Helvetica,sans-Serif" font-size="11.00">59 rows</text>
<polygon fill="#ffffff" stroke="transparent" points="286.93,-541 286.93,-559 316.93,-559 316.93,-541 286.93,-541"/>
<polygon fill="none" stroke="black" points="286.93,-541 286.93,-559 316.93,-559 316.93,-541 286.93,-541"/>
<text text-anchor="start" x="293.93" y="-547.2" font-family="Helvetica,sans-Serif" font-size="11.00">1 &gt;</text>
</a>
</g>
</g>
<!-- employees -->
<g id="node4" class="node">
<title>employees</title>
<g id="a_node4"><a xlink:href="tables/employees.html" xlink:title="employees" target="_top">
<polygon fill="#ffffff" stroke="transparent" points="27.43,-299 27.43,-669 145.43,-669 145.43,-299 27.43,-299"/>
<polygon fill="#f5f5f5" stroke="transparent" points="27.43,-647 27.43,-669 145.43,-669 145.43,-647 27.43,-647"/>
<polygon fill="none" stroke="black" points="27.43,-647 27.43,-669 145.43,-669 145.43,-647 27.43,-647"/>
<text text-anchor="start" x="32.43" y="-656.2" font-family="Helvetica,sans-Serif" font-weight="bold" font-size="11.00">employees</text>
<text text-anchor="start" x="103.43" y="-655.2" font-family="Helvetica,sans-Serif" font-size="11.00">[table]</text>
<polygon fill="none" stroke="black" points="27.43,-625 27.43,-647 145.43,-647 145.43,-625 27.43,-625"/>
<image xlink:href="../../images/primaryKeys.png" width="11px" height="12px" preserveAspectRatio="xMinYMin meet" x="32.4282" y="-642"/>
<text text-anchor="start" x="61.43" y="-633.2" font-family="Helvetica,sans-Serif" font-size="11.00">EmployeeId</text>
<polygon fill="none" stroke="black" points="27.43,-603 27.43,-625 145.43,-625 145.43,-603 27.43,-603"/>
<text text-anchor="start" x="61.43" y="-611.2" font-family="Helvetica,sans-Serif" font-size="11.00">LastName</text>
<polygon fill="none" stroke="black" points="27.43,-581 27.43,-603 145.43,-603 145.43,-581 27.43,-581"/>
<text text-anchor="start" x="61.43" y="-589.2" font-family="Helvetica,sans-Serif" font-size="11.00">FirstName</text>
<polygon fill="none" stroke="black" points="27.43,-559 27.43,-581 145.43,-581 145.43,-559 27.43,-559"/>
<text text-anchor="start" x="61.43" y="-567.2" font-family="Helvetica,sans-Serif" font-size="11.00">Title</text>
<polygon fill="#ffffff" stroke="transparent" points="27.43,-537 27.43,-559 145.43,-559 145.43,-537 27.43,-537"/>
<polygon fill="none" stroke="black" points="27.43,-537 27.43,-559 145.43,-559 145.43,-537 27.43,-537"/>
<image xlink:href="../../images/foreignKeys.png" width="11px" height="12px" preserveAspectRatio="xMinYMin meet" x="32.4282" y="-554"/>
<text text-anchor="start" x="61.43" y="-545.2" font-family="Helvetica,sans-Serif" font-size="11.00">ReportsTo</text>
<polygon fill="none" stroke="black" points="27.43,-515 27.43,-537 145.43,-537 145.43,-515 27.43,-515"/>
<text text-anchor="start" x="61.43" y="-523.2" font-family="Helvetica,sans-Serif" font-size="11.00">BirthDate</text>
<polygon fill="none" stroke="black" points="27.43,-493 27.43,-515 145.43,-515 145.43,-493 27.43,-493"/>
<text text-anchor="start" x="61.43" y="-501.2" font-family="Helvetica,sans-Serif" font-size="11.00">HireDate</text>
<polygon fill="none" stroke="black" points="27.43,-471 27.43,-493 145.43,-493 145.43,-471 27.43,-471"/>
<text text-anchor="start" x="61.43" y="-479.2" font-family="Helvetica,sans-Serif" font-size="11.00">Address</text>
<polygon fill="none" stroke="black" points="27.43,-449 27.43,-471 145.43,-471 145.43,-449 27.43,-449"/>
<text text-anchor="start" x="61.43" y="-457.2" font-family="Helvetica,sans-Serif" font-size="11.00">City</text>
<polygon fill="none" stroke="black" points="27.43,-427 27.43,-449 145.43,-449 145.43,-427 27.43,-427"/>
<text text-anchor="start" x="61.43" y="-435.2" font-family="Helvetica,sans-Serif" font-size="11.00">State</text>
<polygon fill="none" stroke="black" points="27.43,-405 27.43,-427 145.43,-427 145.43,-405 27.43,-405"/>
<text text-anchor="start" x="61.43" y="-413.2" font-family="Helvetica,sans-Serif" font-size="11.00">Country</text>
<polygon fill="none" stroke="black" points="27.43,-383 27.43,-405 145.43,-405 145.43,-383 27.43,-383"/>
<text text-anchor="start" x="61.43" y="-391.2" font-family="Helvetica,sans-Serif" font-size="11.00">PostalCode</text>
<polygon fill="none" stroke="black" points="27.43,-361 27.43,-383 145.43,-383 145.43,-361 27.43,-361"/>
<text text-anchor="start" x="61.43" y="-369.2" font-family="Helvetica,sans-Serif" font-size="11.00">Phone</text>
<polygon fill="none" stroke="black" points="27.43,-339 27.43,-361 145.43,-361 145.43,-339 27.43,-339"/>
<text text-anchor="start" x="61.43" y="-347.2" font-family="Helvetica,sans-Serif" font-size="11.00">Fax</text>
<polygon fill="none" stroke="black" points="27.43,-317 27.43,-339 145.43,-339 145.43,-317 27.43,-317"/>
<text text-anchor="start" x="61.43" y="-325.2" font-family="Helvetica,sans-Serif" font-size="11.00">Email</text>
<polygon fill="#ffffff" stroke="transparent" points="27.43,-299 27.43,-317 64.43,-317 64.43,-299 27.43,-299"/>
<polygon fill="none" stroke="black" points="27.43,-299 27.43,-317 64.43,-317 64.43,-299 27.43,-299"/>
<text text-anchor="start" x="30.43" y="-305.2" font-family="Helvetica,sans-Serif" font-size="11.00">&lt; 1</text>
<polygon fill="#ffffff" stroke="transparent" points="64.43,-299 64.43,-317 113.43,-317 113.43,-299 64.43,-299"/>
<polygon fill="none" stroke="black" points="64.43,-299 64.43,-317 113.43,-317 113.43,-299 64.43,-299"/>
<text text-anchor="start" x="73.43" y="-305.2" font-family="Helvetica,sans-Serif" font-size="11.00">8 rows</text>
<polygon fill="#ffffff" stroke="transparent" points="113.43,-299 113.43,-317 145.43,-317 145.43,-299 113.43,-299"/>
<polygon fill="none" stroke="black" points="113.43,-299 113.43,-317 145.43,-317 145.43,-299 113.43,-299"/>
<text text-anchor="start" x="122.43" y="-305.2" font-family="Helvetica,sans-Serif" font-size="11.00">2 &gt;</text>
</a>
</g>
</g>
<!-- customers&#45;&gt;employees -->
<g id="edge2" class="edge">
<title>customers:w&#45;&gt;employees:e</title>
<path fill="none" stroke="black" d="M186.15,-574.33C167.59,-589.01 178.29,-636 146.43,-636"/>
<polygon fill="black" stroke="black" points="192.3,-572.4 201.01,-573.43 196.11,-571.2 199.93,-570 199.93,-570 199.93,-570 196.11,-571.2 198.85,-566.57 192.3,-572.4 192.3,-572.4"/>
<ellipse fill="none" stroke="black" cx="189.24" cy="-573.36" rx="3.2" ry="3.2"/>
</g>
<!-- employees&#45;&gt;employees -->
<g id="edge3" class="edge">
<title>employees:w&#45;&gt;employees:e</title>
<path fill="none" stroke="black" d="M19.88,-560.65C-15.17,-623.89 -9.2,-686 86.43,-686 188.43,-686 188.43,-677.33 145.43,-636"/>
<polygon fill="black" stroke="black" points="23.33,-554.87 30.52,-549.84 25.38,-551.44 27.43,-548 27.43,-548 27.43,-548 25.38,-551.44 24.34,-546.16 23.33,-554.87 23.33,-554.87"/>
<ellipse fill="none" stroke="black" cx="21.69" cy="-557.62" rx="3.2" ry="3.2"/>
</g>
<!-- genres -->
<g id="node5" class="node">
<title>genres</title>
<g id="a_node5"><a xlink:href="tables/genres.html" xlink:title="genres" target="_top">
<polygon fill="#ffffff" stroke="transparent" points="211.93,-72 211.93,-156 305.93,-156 305.93,-72 211.93,-72"/>
<polygon fill="#f5f5f5" stroke="transparent" points="211.93,-134 211.93,-156 305.93,-156 305.93,-134 211.93,-134"/>
<polygon fill="none" stroke="black" points="211.93,-134 211.93,-156 305.93,-156 305.93,-134 211.93,-134"/>
<text text-anchor="start" x="216.93" y="-143.2" font-family="Helvetica,sans-Serif" font-weight="bold" font-size="11.00">genres</text>
<text text-anchor="start" x="263.93" y="-142.2" font-family="Helvetica,sans-Serif" font-size="11.00">[table]</text>
<polygon fill="none" stroke="black" points="211.93,-112 211.93,-134 305.93,-134 305.93,-112 211.93,-112"/>
<image xlink:href="../../images/primaryKeys.png" width="11px" height="12px" preserveAspectRatio="xMinYMin meet" x="216.928" y="-129"/>
<text text-anchor="start" x="244.93" y="-120.2" font-family="Helvetica,sans-Serif" font-size="11.00">GenreId</text>
<polygon fill="none" stroke="black" points="211.93,-90 211.93,-112 305.93,-112 305.93,-90 211.93,-90"/>
<text text-anchor="start" x="244.93" y="-98.2" font-family="Helvetica,sans-Serif" font-size="11.00">Name</text>
<polygon fill="#ffffff" stroke="transparent" points="211.93,-72 211.93,-90 227.93,-90 227.93,-72 211.93,-72"/>
<polygon fill="none" stroke="black" points="211.93,-72 211.93,-90 227.93,-90 227.93,-72 211.93,-72"/>
<text text-anchor="start" x="214.93" y="-78.2" font-family="Helvetica,sans-Serif" font-size="11.00"> &#160;</text>
<polygon fill="#ffffff" stroke="transparent" points="227.93,-72 227.93,-90 278.93,-90 278.93,-72 227.93,-72"/>
<polygon fill="none" stroke="black" points="227.93,-72 227.93,-90 278.93,-90 278.93,-72 227.93,-72"/>
<text text-anchor="start" x="231.93" y="-78.2" font-family="Helvetica,sans-Serif" font-size="11.00">25 rows</text>
<polygon fill="#ffffff" stroke="transparent" points="278.93,-72 278.93,-90 305.93,-90 305.93,-72 278.93,-72"/>
<polygon fill="none" stroke="black" points="278.93,-72 278.93,-90 305.93,-90 305.93,-72 278.93,-72"/>
<text text-anchor="start" x="282.93" y="-78.2" font-family="Helvetica,sans-Serif" font-size="11.00">1 &gt;</text>
</a>
</g>
</g>
<!-- invoice_items -->
<g id="node6" class="node">
<title>invoice_items</title>
<g id="a_node6"><a xlink:href="tables/invoice_items.html" xlink:title="invoice_items" target="_top">
<polygon fill="#ffffff" stroke="transparent" points="547.43,-381 547.43,-531 683.43,-531 683.43,-381 547.43,-381"/>
<polygon fill="#f5f5f5" stroke="transparent" points="547.43,-509 547.43,-531 683.43,-531 683.43,-509 547.43,-509"/>
<polygon fill="none" stroke="black" points="547.43,-509 547.43,-531 683.43,-531 683.43,-509 547.43,-509"/>
<text text-anchor="start" x="552.43" y="-518.2" font-family="Helvetica,sans-Serif" font-weight="bold" font-size="11.00">invoice_items</text>
<text text-anchor="start" x="641.43" y="-517.2" font-family="Helvetica,sans-Serif" font-size="11.00">[table]</text>
<polygon fill="none" stroke="black" points="547.43,-487 547.43,-509 683.43,-509 683.43,-487 547.43,-487"/>
<image xlink:href="../../images/primaryKeys.png" width="11px" height="12px" preserveAspectRatio="xMinYMin meet" x="552.428" y="-504"/>
<text text-anchor="start" x="584.43" y="-495.2" font-family="Helvetica,sans-Serif" font-size="11.00">InvoiceLineId</text>
<polygon fill="#ffffff" stroke="transparent" points="547.43,-465 547.43,-487 683.43,-487 683.43,-465 547.43,-465"/>
<polygon fill="none" stroke="black" points="547.43,-465 547.43,-487 683.43,-487 683.43,-465 547.43,-465"/>
<image xlink:href="../../images/foreignKeys.png" width="11px" height="12px" preserveAspectRatio="xMinYMin meet" x="552.428" y="-482"/>
<text text-anchor="start" x="584.43" y="-473.2" font-family="Helvetica,sans-Serif" font-size="11.00">InvoiceId</text>
<polygon fill="#ffffff" stroke="transparent" points="547.43,-443 547.43,-465 683.43,-465 683.43,-443 547.43,-443"/>
<polygon fill="none" stroke="black" points="547.43,-443 547.43,-465 683.43,-465 683.43,-443 547.43,-443"/>
<image xlink:href="../../images/foreignKeys.png" width="11px" height="12px" preserveAspectRatio="xMinYMin meet" x="552.428" y="-460"/>
<text text-anchor="start" x="584.43" y="-451.2" font-family="Helvetica,sans-Serif" font-size="11.00">TrackId</text>
<polygon fill="none" stroke="black" points="547.43,-421 547.43,-443 683.43,-443 683.43,-421 547.43,-421"/>
<text text-anchor="start" x="584.43" y="-429.2" font-family="Helvetica,sans-Serif" font-size="11.00">UnitPrice</text>
<polygon fill="none" stroke="black" points="547.43,-399 547.43,-421 683.43,-421 683.43,-399 547.43,-399"/>
<text text-anchor="start" x="584.43" y="-407.2" font-family="Helvetica,sans-Serif" font-size="11.00">Quantity</text>
<polygon fill="#ffffff" stroke="transparent" points="547.43,-381 547.43,-399 587.43,-399 587.43,-381 547.43,-381"/>
<polygon fill="none" stroke="black" points="547.43,-381 547.43,-399 587.43,-399 587.43,-381 547.43,-381"/>
<text text-anchor="start" x="550.43" y="-387.2" font-family="Helvetica,sans-Serif" font-size="11.00">&lt; 2</text>
<polygon fill="#ffffff" stroke="transparent" points="587.43,-381 587.43,-399 661.43,-399 661.43,-381 587.43,-381"/>
<polygon fill="none" stroke="black" points="587.43,-381 587.43,-399 661.43,-399 661.43,-381 587.43,-381"/>
<text text-anchor="start" x="597.43" y="-387.2" font-family="Helvetica,sans-Serif" font-size="11.00">2,240 rows</text>
<polygon fill="#ffffff" stroke="transparent" points="661.43,-381 661.43,-399 683.43,-399 683.43,-381 661.43,-381"/>
<polygon fill="none" stroke="black" points="661.43,-381 661.43,-399 683.43,-399 683.43,-381 661.43,-381"/>
<text text-anchor="start" x="672.43" y="-387.2" font-family="Helvetica,sans-Serif" font-size="11.00"> &#160;</text>
</a>
</g>
</g>
<!-- invoices -->
<g id="node7" class="node">
<title>invoices</title>
<g id="a_node7"><a xlink:href="tables/invoices.html" xlink:title="invoices" target="_top">
<polygon fill="#ffffff" stroke="transparent" points="372.43,-434 372.43,-672 498.43,-672 498.43,-434 372.43,-434"/>
<polygon fill="#f5f5f5" stroke="transparent" points="372.43,-650 372.43,-672 498.43,-672 498.43,-650 372.43,-650"/>
<polygon fill="none" stroke="black" points="372.43,-650 372.43,-672 498.43,-672 498.43,-650 372.43,-650"/>
<text text-anchor="start" x="377.43" y="-659.2" font-family="Helvetica,sans-Serif" font-weight="bold" font-size="11.00">invoices</text>
<text text-anchor="start" x="456.43" y="-658.2" font-family="Helvetica,sans-Serif" font-size="11.00">[table]</text>
<polygon fill="none" stroke="black" points="372.43,-628 372.43,-650 498.43,-650 498.43,-628 372.43,-628"/>
<image xlink:href="../../images/primaryKeys.png" width="11px" height="12px" preserveAspectRatio="xMinYMin meet" x="377.428" y="-645"/>
<text text-anchor="start" x="392.43" y="-636.2" font-family="Helvetica,sans-Serif" font-size="11.00">InvoiceId</text>
<polygon fill="#ffffff" stroke="transparent" points="372.43,-606 372.43,-628 498.43,-628 498.43,-606 372.43,-606"/>
<polygon fill="none" stroke="black" points="372.43,-606 372.43,-628 498.43,-628 498.43,-606 372.43,-606"/>
<image xlink:href="../../images/foreignKeys.png" width="11px" height="12px" preserveAspectRatio="xMinYMin meet" x="377.428" y="-623"/>
<text text-anchor="start" x="392.43" y="-614.2" font-family="Helvetica,sans-Serif" font-size="11.00">CustomerId</text>
<polygon fill="none" stroke="black" points="372.43,-584 372.43,-606 498.43,-606 498.43,-584 372.43,-584"/>
<text text-anchor="start" x="392.43" y="-592.2" font-family="Helvetica,sans-Serif" font-size="11.00">InvoiceDate</text>
<polygon fill="none" stroke="black" points="372.43,-562 372.43,-584 498.43,-584 498.43,-562 372.43,-562"/>
<text text-anchor="start" x="392.43" y="-570.2" font-family="Helvetica,sans-Serif" font-size="11.00">BillingAddress</text>
<polygon fill="none" stroke="black" points="372.43,-540 372.43,-562 498.43,-562 498.43,-540 372.43,-540"/>
<text text-anchor="start" x="392.43" y="-548.2" font-family="Helvetica,sans-Serif" font-size="11.00">BillingCity</text>
<polygon fill="none" stroke="black" points="372.43,-518 372.43,-540 498.43,-540 498.43,-518 372.43,-518"/>
<text text-anchor="start" x="392.43" y="-526.2" font-family="Helvetica,sans-Serif" font-size="11.00">BillingState</text>
<polygon fill="none" stroke="black" points="372.43,-496 372.43,-518 498.43,-518 498.43,-496 372.43,-496"/>
<text text-anchor="start" x="392.43" y="-504.2" font-family="Helvetica,sans-Serif" font-size="11.00">BillingCountry</text>
<polygon fill="none" stroke="black" points="372.43,-474 372.43,-496 498.43,-496 498.43,-474 372.43,-474"/>
<text text-anchor="start" x="392.43" y="-482.2" font-family="Helvetica,sans-Serif" font-size="11.00">BillingPostalCode</text>
<polygon fill="none" stroke="black" points="372.43,-452 372.43,-474 498.43,-474 498.43,-452 372.43,-452"/>
<text text-anchor="start" x="392.43" y="-460.2" font-family="Helvetica,sans-Serif" font-size="11.00">Total</text>
<polygon fill="#ffffff" stroke="transparent" points="372.43,-434 372.43,-452 406.43,-452 406.43,-434 372.43,-434"/>
<polygon fill="none" stroke="black" points="372.43,-434 372.43,-452 406.43,-452 406.43,-434 372.43,-434"/>
<text text-anchor="start" x="375.43" y="-440.2" font-family="Helvetica,sans-Serif" font-size="11.00">&lt; 1</text>
<polygon fill="#ffffff" stroke="transparent" points="406.43,-434 406.43,-452 467.43,-452 467.43,-434 406.43,-434"/>
<polygon fill="none" stroke="black" points="406.43,-434 406.43,-452 467.43,-452 467.43,-434 406.43,-434"/>
<text text-anchor="start" x="413.43" y="-440.2" font-family="Helvetica,sans-Serif" font-size="11.00">412 rows</text>
<polygon fill="#ffffff" stroke="transparent" points="467.43,-434 467.43,-452 498.43,-452 498.43,-434 467.43,-434"/>
<polygon fill="none" stroke="black" points="467.43,-434 467.43,-452 498.43,-452 498.43,-434 467.43,-434"/>
<text text-anchor="start" x="475.43" y="-440.2" font-family="Helvetica,sans-Serif" font-size="11.00">1 &gt;</text>
</a>
</g>
</g>
<!-- invoice_items&#45;&gt;invoices -->
<g id="edge4" class="edge">
<title>invoice_items:w&#45;&gt;invoices:e</title>
<path fill="none" stroke="black" d="M532.16,-478.69C485.8,-499.89 569.08,-639 499.43,-639"/>
<polygon fill="black" stroke="black" points="538.57,-477.48 547.1,-479.54 542.5,-476.74 546.43,-476 546.43,-476 546.43,-476 542.5,-476.74 545.76,-472.46 538.57,-477.48 538.57,-477.48"/>
<ellipse fill="none" stroke="black" cx="535.42" cy="-478.08" rx="3.2" ry="3.2"/>
</g>
<!-- tracks -->
<g id="node11" class="node">
<title>tracks</title>
<g id="a_node11"><a xlink:href="tables/tracks.html" xlink:title="tracks" target="_top">
<polygon fill="#ffffff" stroke="transparent" points="375.93,-142 375.93,-380 494.93,-380 494.93,-142 375.93,-142"/>
<polygon fill="#f5f5f5" stroke="transparent" points="376.43,-358 376.43,-380 495.43,-380 495.43,-358 376.43,-358"/>
<polygon fill="none" stroke="black" points="376.43,-358 376.43,-380 495.43,-380 495.43,-358 376.43,-358"/>
<text text-anchor="start" x="381.43" y="-367.2" font-family="Helvetica,sans-Serif" font-weight="bold" font-size="11.00">tracks</text>
<text text-anchor="start" x="453.43" y="-366.2" font-family="Helvetica,sans-Serif" font-size="11.00">[table]</text>
<polygon fill="none" stroke="black" points="376.43,-336 376.43,-358 495.43,-358 495.43,-336 376.43,-336"/>
<image xlink:href="../../images/primaryKeys.png" width="11px" height="12px" preserveAspectRatio="xMinYMin meet" x="381.428" y="-353"/>
<text text-anchor="start" x="407.43" y="-344.2" font-family="Helvetica,sans-Serif" font-size="11.00">TrackId</text>
<polygon fill="none" stroke="black" points="376.43,-314 376.43,-336 495.43,-336 495.43,-314 376.43,-314"/>
<text text-anchor="start" x="407.43" y="-322.2" font-family="Helvetica,sans-Serif" font-size="11.00">Name</text>
<polygon fill="#ffffff" stroke="transparent" points="376.43,-292 376.43,-314 495.43,-314 495.43,-292 376.43,-292"/>
<polygon fill="none" stroke="black" points="376.43,-292 376.43,-314 495.43,-314 495.43,-292 376.43,-292"/>
<image xlink:href="../../images/foreignKeys.png" width="11px" height="12px" preserveAspectRatio="xMinYMin meet" x="381.428" y="-309"/>
<text text-anchor="start" x="407.43" y="-300.2" font-family="Helvetica,sans-Serif" font-size="11.00">AlbumId</text>
<polygon fill="#ffffff" stroke="transparent" points="376.43,-270 376.43,-292 495.43,-292 495.43,-270 376.43,-270"/>
<polygon fill="none" stroke="black" points="376.43,-270 376.43,-292 495.43,-292 495.43,-270 376.43,-270"/>
<image xlink:href="../../images/foreignKeys.png" width="11px" height="12px" preserveAspectRatio="xMinYMin meet" x="381.428" y="-287"/>
<text text-anchor="start" x="407.43" y="-278.2" font-family="Helvetica,sans-Serif" font-size="11.00">MediaTypeId</text>
<polygon fill="#ffffff" stroke="transparent" points="376.43,-248 376.43,-270 495.43,-270 495.43,-248 376.43,-248"/>
<polygon fill="none" stroke="black" points="376.43,-248 376.43,-270 495.43,-270 495.43,-248 376.43,-248"/>
<image xlink:href="../../images/foreignKeys.png" width="11px" height="12px" preserveAspectRatio="xMinYMin meet" x="381.428" y="-265"/>
<text text-anchor="start" x="407.43" y="-256.2" font-family="Helvetica,sans-Serif" font-size="11.00">GenreId</text>
<polygon fill="none" stroke="black" points="376.43,-226 376.43,-248 495.43,-248 495.43,-226 376.43,-226"/>
<text text-anchor="start" x="407.43" y="-234.2" font-family="Helvetica,sans-Serif" font-size="11.00">Composer</text>
<polygon fill="none" stroke="black" points="376.43,-204 376.43,-226 495.43,-226 495.43,-204 376.43,-204"/>
<text text-anchor="start" x="407.43" y="-212.2" font-family="Helvetica,sans-Serif" font-size="11.00">Milliseconds</text>
<polygon fill="none" stroke="black" points="376.43,-182 376.43,-204 495.43,-204 495.43,-182 376.43,-182"/>
<text text-anchor="start" x="407.43" y="-190.2" font-family="Helvetica,sans-Serif" font-size="11.00">Bytes</text>
<polygon fill="none" stroke="black" points="376.43,-160 376.43,-182 495.43,-182 495.43,-160 376.43,-160"/>
<text text-anchor="start" x="407.43" y="-168.2" font-family="Helvetica,sans-Serif" font-size="11.00">UnitPrice</text>
<polygon fill="#ffffff" stroke="transparent" points="376.43,-142 376.43,-160 402.43,-160 402.43,-142 376.43,-142"/>
<polygon fill="none" stroke="black" points="376.43,-142 376.43,-160 402.43,-160 402.43,-142 376.43,-142"/>
<text text-anchor="start" x="379.43" y="-148.2" font-family="Helvetica,sans-Serif" font-size="11.00">&lt; 3</text>
<polygon fill="#ffffff" stroke="transparent" points="402.43,-142 402.43,-160 469.43,-160 469.43,-142 402.43,-142"/>
<polygon fill="none" stroke="black" points="402.43,-142 402.43,-160 469.43,-160 469.43,-142 402.43,-142"/>
<text text-anchor="start" x="405.43" y="-148.2" font-family="Helvetica,sans-Serif" font-size="11.00">3,503 rows</text>
<polygon fill="#ffffff" stroke="transparent" points="469.43,-142 469.43,-160 495.43,-160 495.43,-142 469.43,-142"/>
<polygon fill="none" stroke="black" points="469.43,-142 469.43,-160 495.43,-160 495.43,-142 469.43,-142"/>
<text text-anchor="start" x="472.43" y="-148.2" font-family="Helvetica,sans-Serif" font-size="11.00">2 &gt;</text>
</a>
</g>
</g>
<!-- invoice_items&#45;&gt;tracks -->
<g id="edge5" class="edge">
<title>invoice_items:w&#45;&gt;tracks:e</title>
<path fill="none" stroke="black" d="M532.41,-450.19C505.01,-431.13 542.97,-347 496.43,-347"/>
<polygon fill="black" stroke="black" points="538.71,-451.9 545.48,-457.47 542.57,-452.95 546.43,-454 546.43,-454 546.43,-454 542.57,-452.95 547.37,-450.53 538.71,-451.9 538.71,-451.9"/>
<ellipse fill="none" stroke="black" cx="535.62" cy="-451.06" rx="3.2" ry="3.2"/>
</g>
<!-- invoices&#45;&gt;customers -->
<g id="edge6" class="edge">
<title>invoices:w&#45;&gt;customers:e</title>
<path fill="none" stroke="black" d="M356.81,-619.01C287.76,-640.89 411.63,-834 317.93,-834"/>
<polygon fill="black" stroke="black" points="363.5,-618.09 371.92,-620.57 367.47,-617.54 371.43,-617 371.43,-617 371.43,-617 367.47,-617.54 370.94,-613.43 363.5,-618.09 363.5,-618.09"/>
<ellipse fill="none" stroke="black" cx="360.33" cy="-618.53" rx="3.2" ry="3.2"/>
</g>
<!-- media_types -->
<g id="node8" class="node">
<title>media_types</title>
<g id="a_node8"><a xlink:href="tables/media_types.html" xlink:title="media_types" target="_top">
<polygon fill="#ffffff" stroke="transparent" points="194.43,-177 194.43,-261 323.43,-261 323.43,-177 194.43,-177"/>
<polygon fill="#f5f5f5" stroke="transparent" points="194.93,-239 194.93,-261 323.93,-261 323.93,-239 194.93,-239"/>
<polygon fill="none" stroke="black" points="194.93,-239 194.93,-261 323.93,-261 323.93,-239 194.93,-239"/>
<text text-anchor="start" x="199.93" y="-248.2" font-family="Helvetica,sans-Serif" font-weight="bold" font-size="11.00">media_types</text>
<text text-anchor="start" x="281.93" y="-247.2" font-family="Helvetica,sans-Serif" font-size="11.00">[table]</text>
<polygon fill="none" stroke="black" points="194.93,-217 194.93,-239 323.93,-239 323.93,-217 194.93,-217"/>
<image xlink:href="../../images/primaryKeys.png" width="11px" height="12px" preserveAspectRatio="xMinYMin meet" x="199.928" y="-234"/>
<text text-anchor="start" x="230.93" y="-225.2" font-family="Helvetica,sans-Serif" font-size="11.00">MediaTypeId</text>
<polygon fill="none" stroke="black" points="194.93,-195 194.93,-217 323.93,-217 323.93,-195 194.93,-195"/>
<text text-anchor="start" x="230.93" y="-203.2" font-family="Helvetica,sans-Serif" font-size="11.00">Name</text>
<polygon fill="#ffffff" stroke="transparent" points="194.93,-177 194.93,-195 231.93,-195 231.93,-177 194.93,-177"/>
<polygon fill="none" stroke="black" points="194.93,-177 194.93,-195 231.93,-195 231.93,-177 194.93,-177"/>
<text text-anchor="start" x="197.93" y="-183.2" font-family="Helvetica,sans-Serif" font-size="11.00"> &#160;</text>
<polygon fill="#ffffff" stroke="transparent" points="231.93,-177 231.93,-195 285.93,-195 285.93,-177 231.93,-177"/>
<polygon fill="none" stroke="black" points="231.93,-177 231.93,-195 285.93,-195 285.93,-177 231.93,-177"/>
<text text-anchor="start" x="245.93" y="-183.2" font-family="Helvetica,sans-Serif" font-size="11.00">5 rows</text>
<polygon fill="#ffffff" stroke="transparent" points="285.93,-177 285.93,-195 323.93,-195 323.93,-177 285.93,-177"/>
<polygon fill="none" stroke="black" points="285.93,-177 285.93,-195 323.93,-195 323.93,-177 285.93,-177"/>
<text text-anchor="start" x="300.93" y="-183.2" font-family="Helvetica,sans-Serif" font-size="11.00">1 &gt;</text>
</a>
</g>
</g>
<!-- playlist_track -->
<g id="node9" class="node">
<title>playlist_track</title>
<g id="a_node9"><a xlink:href="tables/playlist_track.html" xlink:title="playlist_track" target="_top">
<polygon fill="#ffffff" stroke="transparent" points="548.43,-210 548.43,-294 682.43,-294 682.43,-210 548.43,-210"/>
<polygon fill="#f5f5f5" stroke="transparent" points="548.43,-272 548.43,-294 682.43,-294 682.43,-272 548.43,-272"/>
<polygon fill="none" stroke="black" points="548.43,-272 548.43,-294 682.43,-294 682.43,-272 548.43,-272"/>
<text text-anchor="start" x="553.43" y="-281.2" font-family="Helvetica,sans-Serif" font-weight="bold" font-size="11.00">playlist_track</text>
<text text-anchor="start" x="640.43" y="-280.2" font-family="Helvetica,sans-Serif" font-size="11.00">[table]</text>
<polygon fill="none" stroke="black" points="548.43,-250 548.43,-272 682.43,-272 682.43,-250 548.43,-250"/>
<image xlink:href="../../images/primaryKeys.png" width="11px" height="12px" preserveAspectRatio="xMinYMin meet" x="553.428" y="-267"/>
<text text-anchor="start" x="584.43" y="-258.2" font-family="Helvetica,sans-Serif" font-size="11.00">PlaylistId</text>
<polygon fill="none" stroke="black" points="548.43,-228 548.43,-250 682.43,-250 682.43,-228 548.43,-228"/>
<image xlink:href="../../images/primaryKeys.png" width="11px" height="12px" preserveAspectRatio="xMinYMin meet" x="553.428" y="-245"/>
<text text-anchor="start" x="584.43" y="-236.2" font-family="Helvetica,sans-Serif" font-size="11.00">TrackId</text>
<polygon fill="#ffffff" stroke="transparent" points="548.43,-210 548.43,-228 587.43,-228 587.43,-210 548.43,-210"/>
<polygon fill="none" stroke="black" points="548.43,-210 548.43,-228 587.43,-228 587.43,-210 548.43,-210"/>
<text text-anchor="start" x="551.43" y="-216.2" font-family="Helvetica,sans-Serif" font-size="11.00">&lt; 2</text>
<polygon fill="#ffffff" stroke="transparent" points="587.43,-210 587.43,-228 661.43,-228 661.43,-210 587.43,-210"/>
<polygon fill="none" stroke="black" points="587.43,-210 587.43,-228 661.43,-228 661.43,-210 587.43,-210"/>
<text text-anchor="start" x="597.43" y="-216.2" font-family="Helvetica,sans-Serif" font-size="11.00">8,715 rows</text>
<polygon fill="#ffffff" stroke="transparent" points="661.43,-210 661.43,-228 682.43,-228 682.43,-210 661.43,-210"/>
<polygon fill="none" stroke="black" points="661.43,-210 661.43,-228 682.43,-228 682.43,-210 661.43,-210"/>
<text text-anchor="start" x="671.43" y="-216.2" font-family="Helvetica,sans-Serif" font-size="11.00"> &#160;</text>
</a>
</g>
</g>
<!-- playlists -->
<g id="node10" class="node">
<title>playlists</title>
<g id="a_node10"><a xlink:href="tables/playlists.html" xlink:title="playlists" target="_top">
<polygon fill="#ffffff" stroke="transparent" points="383.93,-37 383.93,-121 486.93,-121 486.93,-37 383.93,-37"/>
<polygon fill="#f5f5f5" stroke="transparent" points="384.43,-99 384.43,-121 487.43,-121 487.43,-99 384.43,-99"/>
<polygon fill="none" stroke="black" points="384.43,-99 384.43,-121 487.43,-121 487.43,-99 384.43,-99"/>
<text text-anchor="start" x="389.43" y="-108.2" font-family="Helvetica,sans-Serif" font-weight="bold" font-size="11.00">playlists</text>
<text text-anchor="start" x="445.43" y="-107.2" font-family="Helvetica,sans-Serif" font-size="11.00">[table]</text>
<polygon fill="none" stroke="black" points="384.43,-77 384.43,-99 487.43,-99 487.43,-77 384.43,-77"/>
<image xlink:href="../../images/primaryKeys.png" width="11px" height="12px" preserveAspectRatio="xMinYMin meet" x="389.428" y="-94"/>
<text text-anchor="start" x="418.43" y="-85.2" font-family="Helvetica,sans-Serif" font-size="11.00">PlaylistId</text>
<polygon fill="none" stroke="black" points="384.43,-55 384.43,-77 487.43,-77 487.43,-55 384.43,-55"/>
<text text-anchor="start" x="418.43" y="-63.2" font-family="Helvetica,sans-Serif" font-size="11.00">Name</text>
<polygon fill="#ffffff" stroke="transparent" points="384.43,-37 384.43,-55 404.43,-55 404.43,-37 384.43,-37"/>
<polygon fill="none" stroke="black" points="384.43,-37 384.43,-55 404.43,-55 404.43,-37 384.43,-37"/>
<text text-anchor="start" x="387.43" y="-43.2" font-family="Helvetica,sans-Serif" font-size="11.00"> &#160;</text>
<polygon fill="#ffffff" stroke="transparent" points="404.43,-37 404.43,-55 457.43,-55 457.43,-37 404.43,-37"/>
<polygon fill="none" stroke="black" points="404.43,-37 404.43,-55 457.43,-55 457.43,-37 404.43,-37"/>
<text text-anchor="start" x="410.43" y="-43.2" font-family="Helvetica,sans-Serif" font-size="11.00">18 rows</text>
<polygon fill="#ffffff" stroke="transparent" points="457.43,-37 457.43,-55 487.43,-55 487.43,-37 457.43,-37"/>
<polygon fill="none" stroke="black" points="457.43,-37 457.43,-55 487.43,-55 487.43,-37 457.43,-37"/>
<text text-anchor="start" x="464.43" y="-43.2" font-family="Helvetica,sans-Serif" font-size="11.00">1 &gt;</text>
</a>
</g>
</g>
<!-- playlist_track&#45;&gt;playlists -->
<g id="edge7" class="edge">
<title>playlist_track:w&#45;&gt;playlists:e</title>
<path fill="none" stroke="black" d="M532.9,-258.55C479.83,-237.53 563.95,-88 488.43,-88"/>
<polygon fill="black" stroke="black" points="539.54,-259.67 546.83,-264.55 543.48,-260.34 547.43,-261 547.43,-261 547.43,-261 543.48,-260.34 548.03,-257.45 539.54,-259.67 539.54,-259.67"/>
<ellipse fill="none" stroke="black" cx="536.38" cy="-259.14" rx="3.2" ry="3.2"/>
</g>
<!-- playlist_track&#45;&gt;tracks -->
<g id="edge8" class="edge">
<title>playlist_track:w&#45;&gt;tracks:e</title>
<path fill="none" stroke="black" d="M533.24,-242.84C505.45,-262.08 543.5,-347 496.43,-347"/>
<polygon fill="black" stroke="black" points="539.71,-241.09 548.37,-242.47 543.57,-240.05 547.43,-239 547.43,-239 547.43,-239 543.57,-240.05 546.49,-235.53 539.71,-241.09 539.71,-241.09"/>
<ellipse fill="none" stroke="black" cx="536.62" cy="-241.93" rx="3.2" ry="3.2"/>
</g>
<!-- tracks&#45;&gt;albums -->
<g id="edge9" class="edge">
<title>tracks:w&#45;&gt;albums:e</title>
<path fill="none" stroke="black" d="M361.28,-306.74C342.15,-318.66 344.57,-355 314.93,-355"/>
<polygon fill="black" stroke="black" points="367.69,-305.04 376.35,-306.48 371.56,-304.02 375.43,-303 375.43,-303 375.43,-303 371.56,-304.02 374.51,-299.52 367.69,-305.04 367.69,-305.04"/>
<ellipse fill="none" stroke="black" cx="364.6" cy="-305.86" rx="3.2" ry="3.2"/>
</g>
<!-- tracks&#45;&gt;genres -->
<g id="edge10" class="edge">
<title>tracks:w&#45;&gt;genres:e</title>
<path fill="none" stroke="black" d="M361.06,-256.28C318.03,-237.12 368.92,-123 306.93,-123"/>
<polygon fill="black" stroke="black" points="367.57,-257.51 374.76,-262.54 371.5,-258.26 375.43,-259 375.43,-259 375.43,-259 371.5,-258.26 376.1,-255.46 367.57,-257.51 367.57,-257.51"/>
<ellipse fill="none" stroke="black" cx="364.42" cy="-256.92" rx="3.2" ry="3.2"/>
</g>
<!-- tracks&#45;&gt;media_types -->
<g id="edge11" class="edge">
<title>tracks:w&#45;&gt;media_types:e</title>
<path fill="none" stroke="black" d="M361.47,-276.11C346.7,-262.99 351.36,-228 324.93,-228"/>
<polygon fill="black" stroke="black" points="367.88,-278.35 374.24,-284.4 371.65,-279.68 375.43,-281 375.43,-281 375.43,-281 371.65,-279.68 376.62,-277.6 367.88,-278.35 367.88,-278.35"/>
<ellipse fill="none" stroke="black" cx="364.86" cy="-277.3" rx="3.2" ry="3.2"/>
</g>
</g>
</svg>
