<?xml version="1.0" encoding="UTF-8" standalone="no"?>
<!DOCTYPE svg PUBLIC "-//W3C//DTD SVG 1.1//EN"
 "http://www.w3.org/Graphics/SVG/1.1/DTD/svg11.dtd">
<!-- Generated by graphviz version 2.43.0 (0)
 -->
<!-- Title: largeRelationshipsDiagram Pages: 1 -->
<svg width="889pt" height="771pt"
 viewBox="0.00 0.00 889.00 771.00" xmlns="http://www.w3.org/2000/svg" xmlns:xlink="http://www.w3.org/1999/xlink">
<g id="graph0" class="graph" transform="scale(1 1) rotate(0) translate(4 767)">
<title>largeRelationshipsDiagram</title>
<polygon fill="#ffffff" stroke="transparent" points="-4,4 -4,-767 885,-767 885,4 -4,4"/>
<text text-anchor="middle" x="79.5" y="-7.2" font-family="Helvetica,sans-Serif" font-size="11.00">Generated by SchemaSpy</text>
<!-- customers -->
<g id="node1" class="node">
<title>customers</title>
<g id="a_node1"><a xlink:href="tables/customers.html" xlink:title="customers" target="_top">
<polygon fill="#ffffff" stroke="transparent" points="332,-301 332,-627 512,-627 512,-301 332,-301"/>
<polygon fill="#f5f5f5" stroke="transparent" points="332,-605 332,-627 512,-627 512,-605 332,-605"/>
<polygon fill="none" stroke="black" points="332,-605 332,-627 512,-627 512,-605 332,-605"/>
<text text-anchor="start" x="337" y="-614.2" font-family="Helvetica,sans-Serif" font-weight="bold" font-size="11.00">customers</text>
<text text-anchor="start" x="470" y="-613.2" font-family="Helvetica,sans-Serif" font-size="11.00">[table]</text>
<polygon fill="none" stroke="black" points="332,-583 332,-605 512,-605 512,-583 332,-583"/>
<image xlink:href="../../images/primaryKeys.png" width="11px" height="12px" preserveAspectRatio="xMinYMin meet" x="337" y="-600"/>
<text text-anchor="start" x="352" y="-591.2" font-family="Helvetica,sans-Serif" font-size="11.00">customerNumber</text>
<polygon fill="none" stroke="black" points="332,-561 332,-583 512,-583 512,-561 332,-561"/>
<text text-anchor="start" x="352" y="-569.2" font-family="Helvetica,sans-Serif" font-size="11.00">customerName</text>
<polygon fill="none" stroke="black" points="332,-539 332,-561 512,-561 512,-539 332,-539"/>
<text text-anchor="start" x="352" y="-547.2" font-family="Helvetica,sans-Serif" font-size="11.00">contactLastName</text>
<polygon fill="none" stroke="black" points="332,-517 332,-539 512,-539 512,-517 332,-517"/>
<text text-anchor="start" x="352" y="-525.2" font-family="Helvetica,sans-Serif" font-size="11.00">contactFirstName</text>
<polygon fill="none" stroke="black" points="332,-495 332,-517 512,-517 512,-495 332,-495"/>
<text text-anchor="start" x="352" y="-503.2" font-family="Helvetica,sans-Serif" font-size="11.00">phone</text>
<polygon fill="none" stroke="black" points="332,-473 332,-495 512,-495 512,-473 332,-473"/>
<text text-anchor="start" x="352" y="-481.2" font-family="Helvetica,sans-Serif" font-size="11.00">addressLine1</text>
<polygon fill="none" stroke="black" points="332,-451 332,-473 512,-473 512,-451 332,-451"/>
<text text-anchor="start" x="352" y="-459.2" font-family="Helvetica,sans-Serif" font-size="11.00">addressLine2</text>
<polygon fill="none" stroke="black" points="332,-429 332,-451 512,-451 512,-429 332,-429"/>
<text text-anchor="start" x="352" y="-437.2" font-family="Helvetica,sans-Serif" font-size="11.00">city</text>
<polygon fill="none" stroke="black" points="332,-407 332,-429 512,-429 512,-407 332,-407"/>
<text text-anchor="start" x="352" y="-415.2" font-family="Helvetica,sans-Serif" font-size="11.00">state</text>
<polygon fill="none" stroke="black" points="332,-385 332,-407 512,-407 512,-385 332,-385"/>
<text text-anchor="start" x="352" y="-393.2" font-family="Helvetica,sans-Serif" font-size="11.00">postalCode</text>
<polygon fill="none" stroke="black" points="332,-363 332,-385 512,-385 512,-363 332,-363"/>
<text text-anchor="start" x="352" y="-371.2" font-family="Helvetica,sans-Serif" font-size="11.00">country</text>
<polygon fill="#ffffff" stroke="transparent" points="332,-341 332,-363 512,-363 512,-341 332,-341"/>
<polygon fill="none" stroke="black" points="332,-341 332,-363 512,-363 512,-341 332,-341"/>
<image xlink:href="../../images/foreignKeys.png" width="11px" height="12px" preserveAspectRatio="xMinYMin meet" x="337" y="-358"/>
<text text-anchor="start" x="352" y="-349.2" font-family="Helvetica,sans-Serif" font-size="11.00">salesRepEmployeeNumber</text>
<polygon fill="none" stroke="black" points="332,-319 332,-341 512,-341 512,-319 332,-319"/>
<text text-anchor="start" x="352" y="-327.2" font-family="Helvetica,sans-Serif" font-size="11.00">creditLimit</text>
<polygon fill="#ffffff" stroke="transparent" points="332,-301 332,-319 393,-319 393,-301 332,-301"/>
<polygon fill="none" stroke="black" points="332,-301 332,-319 393,-319 393,-301 332,-301"/>
<text text-anchor="start" x="335" y="-307.2" font-family="Helvetica,sans-Serif" font-size="11.00">&lt; 1</text>
<polygon fill="#ffffff" stroke="transparent" points="393,-301 393,-319 468,-319 468,-301 393,-301"/>
<polygon fill="none" stroke="black" points="393,-301 393,-319 468,-319 468,-301 393,-301"/>
<text text-anchor="start" x="414" y="-307.2" font-family="Helvetica,sans-Serif" font-size="11.00">122 rows</text>
<polygon fill="#ffffff" stroke="transparent" points="468,-301 468,-319 512,-319 512,-301 468,-301"/>
<polygon fill="none" stroke="black" points="468,-301 468,-319 512,-319 512,-301 468,-301"/>
<text text-anchor="start" x="489" y="-307.2" font-family="Helvetica,sans-Serif" font-size="11.00">2 &gt;</text>
</a>
</g>
</g>
<!-- employees -->
<g id="node2" class="node">
<title>employees</title>
<g id="a_node2"><a xlink:href="tables/employees.html" xlink:title="employees" target="_top">
<polygon fill="#ffffff" stroke="transparent" points="156,-169 156,-385 283,-385 283,-169 156,-169"/>
<polygon fill="#f5f5f5" stroke="transparent" points="156.5,-363 156.5,-385 283.5,-385 283.5,-363 156.5,-363"/>
<polygon fill="none" stroke="black" points="156.5,-363 156.5,-385 283.5,-385 283.5,-363 156.5,-363"/>
<text text-anchor="start" x="161.5" y="-372.2" font-family="Helvetica,sans-Serif" font-weight="bold" font-size="11.00">employees</text>
<text text-anchor="start" x="241.5" y="-371.2" font-family="Helvetica,sans-Serif" font-size="11.00">[table]</text>
<polygon fill="none" stroke="black" points="156.5,-341 156.5,-363 283.5,-363 283.5,-341 156.5,-341"/>
<image xlink:href="../../images/primaryKeys.png" width="11px" height="12px" preserveAspectRatio="xMinYMin meet" x="161.5" y="-358"/>
<text text-anchor="start" x="176.5" y="-349.2" font-family="Helvetica,sans-Serif" font-size="11.00">employeeNumber</text>
<polygon fill="none" stroke="black" points="156.5,-319 156.5,-341 283.5,-341 283.5,-319 156.5,-319"/>
<text text-anchor="start" x="176.5" y="-327.2" font-family="Helvetica,sans-Serif" font-size="11.00">lastName</text>
<polygon fill="none" stroke="black" points="156.5,-297 156.5,-319 283.5,-319 283.5,-297 156.5,-297"/>
<text text-anchor="start" x="176.5" y="-305.2" font-family="Helvetica,sans-Serif" font-size="11.00">firstName</text>
<polygon fill="none" stroke="black" points="156.5,-275 156.5,-297 283.5,-297 283.5,-275 156.5,-275"/>
<text text-anchor="start" x="176.5" y="-283.2" font-family="Helvetica,sans-Serif" font-size="11.00">extension</text>
<polygon fill="none" stroke="black" points="156.5,-253 156.5,-275 283.5,-275 283.5,-253 156.5,-253"/>
<text text-anchor="start" x="176.5" y="-261.2" font-family="Helvetica,sans-Serif" font-size="11.00">email</text>
<polygon fill="#ffffff" stroke="transparent" points="156.5,-231 156.5,-253 283.5,-253 283.5,-231 156.5,-231"/>
<polygon fill="none" stroke="black" points="156.5,-231 156.5,-253 283.5,-253 283.5,-231 156.5,-231"/>
<image xlink:href="../../images/foreignKeys.png" width="11px" height="12px" preserveAspectRatio="xMinYMin meet" x="161.5" y="-248"/>
<text text-anchor="start" x="176.5" y="-239.2" font-family="Helvetica,sans-Serif" font-size="11.00">officeCode</text>
<polygon fill="#ffffff" stroke="transparent" points="156.5,-209 156.5,-231 283.5,-231 283.5,-209 156.5,-209"/>
<polygon fill="none" stroke="black" points="156.5,-209 156.5,-231 283.5,-231 283.5,-209 156.5,-209"/>
<image xlink:href="../../images/foreignKeys.png" width="11px" height="12px" preserveAspectRatio="xMinYMin meet" x="161.5" y="-226"/>
<text text-anchor="start" x="176.5" y="-217.2" font-family="Helvetica,sans-Serif" font-size="11.00">reportsTo</text>
<polygon fill="none" stroke="black" points="156.5,-187 156.5,-209 283.5,-209 283.5,-187 156.5,-187"/>
<text text-anchor="start" x="176.5" y="-195.2" font-family="Helvetica,sans-Serif" font-size="11.00">jobTitle</text>
<polygon fill="#ffffff" stroke="transparent" points="156.5,-169 156.5,-187 194.5,-187 194.5,-169 156.5,-169"/>
<polygon fill="none" stroke="black" points="156.5,-169 156.5,-187 194.5,-187 194.5,-169 156.5,-169"/>
<text text-anchor="start" x="159.5" y="-175.2" font-family="Helvetica,sans-Serif" font-size="11.00">&lt; 2</text>
<polygon fill="#ffffff" stroke="transparent" points="194.5,-169 194.5,-187 250.5,-187 250.5,-169 194.5,-169"/>
<polygon fill="none" stroke="black" points="194.5,-169 194.5,-187 250.5,-187 250.5,-169 194.5,-169"/>
<text text-anchor="start" x="203.5" y="-175.2" font-family="Helvetica,sans-Serif" font-size="11.00">23 rows</text>
<polygon fill="#ffffff" stroke="transparent" points="250.5,-169 250.5,-187 283.5,-187 283.5,-169 250.5,-169"/>
<polygon fill="none" stroke="black" points="250.5,-169 250.5,-187 283.5,-187 283.5,-169 250.5,-169"/>
<text text-anchor="start" x="260.5" y="-175.2" font-family="Helvetica,sans-Serif" font-size="11.00">2 &gt;</text>
</a>
</g>
</g>
<!-- customers&#45;&gt;employees -->
<g id="edge1" class="edge">
<title>customers:w&#45;&gt;employees:e</title>
<path fill="none" stroke="black" d="M316.55,-352C306.2,-352 299.35,-352 284.5,-352"/>
<polygon fill="black" stroke="black" points="323,-352 331,-355.6 327,-352 331,-352 331,-352 331,-352 327,-352 331,-348.4 323,-352 323,-352"/>
<ellipse fill="none" stroke="black" cx="319.8" cy="-352" rx="3.2" ry="3.2"/>
</g>
<!-- employees&#45;&gt;employees -->
<g id="edge3" class="edge">
<title>employees:w&#45;&gt;employees:e</title>
<path fill="none" stroke="black" d="M147.58,-231.79C116.67,-283.24 124.33,-402 220,-402 324,-402 324,-393.33 283.5,-352"/>
<polygon fill="black" stroke="black" points="151.67,-226.38 159.37,-222.17 154.09,-223.19 156.5,-220 156.5,-220 156.5,-220 154.09,-223.19 153.63,-217.83 151.67,-226.38 151.67,-226.38"/>
<ellipse fill="none" stroke="black" cx="149.74" cy="-228.93" rx="3.2" ry="3.2"/>
</g>
<!-- offices -->
<g id="node3" class="node">
<title>offices</title>
<g id="a_node3"><a xlink:href="tables/offices.html" xlink:title="offices" target="_top">
<polygon fill="#ffffff" stroke="transparent" points="8,-37 8,-275 107,-275 107,-37 8,-37"/>
<polygon fill="#f5f5f5" stroke="transparent" points="8.5,-253 8.5,-275 107.5,-275 107.5,-253 8.5,-253"/>
<polygon fill="none" stroke="black" points="8.5,-253 8.5,-275 107.5,-275 107.5,-253 8.5,-253"/>
<text text-anchor="start" x="13.5" y="-262.2" font-family="Helvetica,sans-Serif" font-weight="bold" font-size="11.00">offices</text>
<text text-anchor="start" x="65.5" y="-261.2" font-family="Helvetica,sans-Serif" font-size="11.00">[table]</text>
<polygon fill="none" stroke="black" points="8.5,-231 8.5,-253 107.5,-253 107.5,-231 8.5,-231"/>
<image xlink:href="../../images/primaryKeys.png" width="11px" height="12px" preserveAspectRatio="xMinYMin meet" x="13.5" y="-248"/>
<text text-anchor="start" x="28.5" y="-239.2" font-family="Helvetica,sans-Serif" font-size="11.00">officeCode</text>
<polygon fill="none" stroke="black" points="8.5,-209 8.5,-231 107.5,-231 107.5,-209 8.5,-209"/>
<text text-anchor="start" x="28.5" y="-217.2" font-family="Helvetica,sans-Serif" font-size="11.00">city</text>
<polygon fill="none" stroke="black" points="8.5,-187 8.5,-209 107.5,-209 107.5,-187 8.5,-187"/>
<text text-anchor="start" x="28.5" y="-195.2" font-family="Helvetica,sans-Serif" font-size="11.00">phone</text>
<polygon fill="none" stroke="black" points="8.5,-165 8.5,-187 107.5,-187 107.5,-165 8.5,-165"/>
<text text-anchor="start" x="28.5" y="-173.2" font-family="Helvetica,sans-Serif" font-size="11.00">addressLine1</text>
<polygon fill="none" stroke="black" points="8.5,-143 8.5,-165 107.5,-165 107.5,-143 8.5,-143"/>
<text text-anchor="start" x="28.5" y="-151.2" font-family="Helvetica,sans-Serif" font-size="11.00">addressLine2</text>
<polygon fill="none" stroke="black" points="8.5,-121 8.5,-143 107.5,-143 107.5,-121 8.5,-121"/>
<text text-anchor="start" x="28.5" y="-129.2" font-family="Helvetica,sans-Serif" font-size="11.00">state</text>
<polygon fill="none" stroke="black" points="8.5,-99 8.5,-121 107.5,-121 107.5,-99 8.5,-99"/>
<text text-anchor="start" x="28.5" y="-107.2" font-family="Helvetica,sans-Serif" font-size="11.00">country</text>
<polygon fill="none" stroke="black" points="8.5,-77 8.5,-99 107.5,-99 107.5,-77 8.5,-77"/>
<text text-anchor="start" x="28.5" y="-85.2" font-family="Helvetica,sans-Serif" font-size="11.00">postalCode</text>
<polygon fill="none" stroke="black" points="8.5,-55 8.5,-77 107.5,-77 107.5,-55 8.5,-55"/>
<text text-anchor="start" x="28.5" y="-63.2" font-family="Helvetica,sans-Serif" font-size="11.00">territory</text>
<polygon fill="#ffffff" stroke="transparent" points="8.5,-37 8.5,-55 30.5,-55 30.5,-37 8.5,-37"/>
<polygon fill="none" stroke="black" points="8.5,-37 8.5,-55 30.5,-55 30.5,-37 8.5,-37"/>
<text text-anchor="start" x="11.5" y="-43.2" font-family="Helvetica,sans-Serif" font-size="11.00"> &#160;</text>
<polygon fill="#ffffff" stroke="transparent" points="30.5,-37 30.5,-55 77.5,-55 77.5,-37 30.5,-37"/>
<polygon fill="none" stroke="black" points="30.5,-37 30.5,-55 77.5,-55 77.5,-37 30.5,-37"/>
<text text-anchor="start" x="37.5" y="-43.2" font-family="Helvetica,sans-Serif" font-size="11.00">7 rows</text>
<polygon fill="#ffffff" stroke="transparent" points="77.5,-37 77.5,-55 107.5,-55 107.5,-37 77.5,-37"/>
<polygon fill="none" stroke="black" points="77.5,-37 77.5,-55 107.5,-55 107.5,-37 77.5,-37"/>
<text text-anchor="start" x="84.5" y="-43.2" font-family="Helvetica,sans-Serif" font-size="11.00">1 &gt;</text>
</a>
</g>
</g>
<!-- employees&#45;&gt;offices -->
<g id="edge2" class="edge">
<title>employees:w&#45;&gt;offices:e</title>
<path fill="none" stroke="black" d="M140.9,-242C130.43,-242 123.51,-242 108.5,-242"/>
<polygon fill="black" stroke="black" points="147.5,-242 155.5,-245.6 151.5,-242 155.5,-242 155.5,-242 155.5,-242 151.5,-242 155.5,-238.4 147.5,-242 147.5,-242"/>
<ellipse fill="none" stroke="black" cx="144.3" cy="-242" rx="3.2" ry="3.2"/>
</g>
<!-- orderdetails -->
<g id="node4" class="node">
<title>orderdetails</title>
<g id="a_node4"><a xlink:href="tables/orderdetails.html" xlink:title="orderdetails" target="_top">
<polygon fill="#ffffff" stroke="transparent" points="746,-403 746,-553 873,-553 873,-403 746,-403"/>
<polygon fill="#f5f5f5" stroke="transparent" points="746.5,-531 746.5,-553 873.5,-553 873.5,-531 746.5,-531"/>
<polygon fill="none" stroke="black" points="746.5,-531 746.5,-553 873.5,-553 873.5,-531 746.5,-531"/>
<text text-anchor="start" x="751.5" y="-540.2" font-family="Helvetica,sans-Serif" font-weight="bold" font-size="11.00">orderdetails</text>
<text text-anchor="start" x="831.5" y="-539.2" font-family="Helvetica,sans-Serif" font-size="11.00">[table]</text>
<polygon fill="none" stroke="black" points="746.5,-509 746.5,-531 873.5,-531 873.5,-509 746.5,-509"/>
<image xlink:href="../../images/primaryKeys.png" width="11px" height="12px" preserveAspectRatio="xMinYMin meet" x="751.5" y="-526"/>
<text text-anchor="start" x="766.5" y="-517.2" font-family="Helvetica,sans-Serif" font-size="11.00">orderNumber</text>
<polygon fill="none" stroke="black" points="746.5,-487 746.5,-509 873.5,-509 873.5,-487 746.5,-487"/>
<image xlink:href="../../images/primaryKeys.png" width="11px" height="12px" preserveAspectRatio="xMinYMin meet" x="751.5" y="-504"/>
<text text-anchor="start" x="766.5" y="-495.2" font-family="Helvetica,sans-Serif" font-size="11.00">productCode</text>
<polygon fill="none" stroke="black" points="746.5,-465 746.5,-487 873.5,-487 873.5,-465 746.5,-465"/>
<text text-anchor="start" x="766.5" y="-473.2" font-family="Helvetica,sans-Serif" font-size="11.00">quantityOrdered</text>
<polygon fill="none" stroke="black" points="746.5,-443 746.5,-465 873.5,-465 873.5,-443 746.5,-443"/>
<text text-anchor="start" x="766.5" y="-451.2" font-family="Helvetica,sans-Serif" font-size="11.00">priceEach</text>
<polygon fill="none" stroke="black" points="746.5,-421 746.5,-443 873.5,-443 873.5,-421 746.5,-421"/>
<text text-anchor="start" x="766.5" y="-429.2" font-family="Helvetica,sans-Serif" font-size="11.00">orderLineNumber</text>
<polygon fill="#ffffff" stroke="transparent" points="746.5,-403 746.5,-421 782.5,-421 782.5,-403 746.5,-403"/>
<polygon fill="none" stroke="black" points="746.5,-403 746.5,-421 782.5,-421 782.5,-403 746.5,-403"/>
<text text-anchor="start" x="749.5" y="-409.2" font-family="Helvetica,sans-Serif" font-size="11.00">&lt; 2</text>
<polygon fill="#ffffff" stroke="transparent" points="782.5,-403 782.5,-421 854.5,-421 854.5,-403 782.5,-403"/>
<polygon fill="none" stroke="black" points="782.5,-403 782.5,-421 854.5,-421 854.5,-403 782.5,-403"/>
<text text-anchor="start" x="790.5" y="-409.2" font-family="Helvetica,sans-Serif" font-size="11.00">2,996 rows</text>
<polygon fill="#ffffff" stroke="transparent" points="854.5,-403 854.5,-421 873.5,-421 873.5,-403 854.5,-403"/>
<polygon fill="none" stroke="black" points="854.5,-403 854.5,-421 873.5,-421 873.5,-403 854.5,-403"/>
<text text-anchor="start" x="862.5" y="-409.2" font-family="Helvetica,sans-Serif" font-size="11.00"> &#160;</text>
</a>
</g>
</g>
<!-- orders -->
<g id="node5" class="node">
<title>orders</title>
<g id="a_node5"><a xlink:href="tables/orders.html" xlink:title="orders" target="_top">
<polygon fill="#ffffff" stroke="transparent" points="566.5,-565 566.5,-759 691.5,-759 691.5,-565 566.5,-565"/>
<polygon fill="#f5f5f5" stroke="transparent" points="567,-737 567,-759 692,-759 692,-737 567,-737"/>
<polygon fill="none" stroke="black" points="567,-737 567,-759 692,-759 692,-737 567,-737"/>
<text text-anchor="start" x="572" y="-746.2" font-family="Helvetica,sans-Serif" font-weight="bold" font-size="11.00">orders</text>
<text text-anchor="start" x="650" y="-745.2" font-family="Helvetica,sans-Serif" font-size="11.00">[table]</text>
<polygon fill="none" stroke="black" points="567,-715 567,-737 692,-737 692,-715 567,-715"/>
<image xlink:href="../../images/primaryKeys.png" width="11px" height="12px" preserveAspectRatio="xMinYMin meet" x="572" y="-732"/>
<text text-anchor="start" x="587" y="-723.2" font-family="Helvetica,sans-Serif" font-size="11.00">orderNumber</text>
<polygon fill="none" stroke="black" points="567,-693 567,-715 692,-715 692,-693 567,-693"/>
<text text-anchor="start" x="587" y="-701.2" font-family="Helvetica,sans-Serif" font-size="11.00">orderDate</text>
<polygon fill="none" stroke="black" points="567,-671 567,-693 692,-693 692,-671 567,-671"/>
<text text-anchor="start" x="587" y="-679.2" font-family="Helvetica,sans-Serif" font-size="11.00">requiredDate</text>
<polygon fill="none" stroke="black" points="567,-649 567,-671 692,-671 692,-649 567,-649"/>
<text text-anchor="start" x="587" y="-657.2" font-family="Helvetica,sans-Serif" font-size="11.00">shippedDate</text>
<polygon fill="none" stroke="black" points="567,-627 567,-649 692,-649 692,-627 567,-627"/>
<text text-anchor="start" x="587" y="-635.2" font-family="Helvetica,sans-Serif" font-size="11.00">status</text>
<polygon fill="none" stroke="black" points="567,-605 567,-627 692,-627 692,-605 567,-605"/>
<text text-anchor="start" x="587" y="-613.2" font-family="Helvetica,sans-Serif" font-size="11.00">comments</text>
<polygon fill="#ffffff" stroke="transparent" points="567,-583 567,-605 692,-605 692,-583 567,-583"/>
<polygon fill="none" stroke="black" points="567,-583 567,-605 692,-605 692,-583 567,-583"/>
<image xlink:href="../../images/foreignKeys.png" width="11px" height="12px" preserveAspectRatio="xMinYMin meet" x="572" y="-600"/>
<text text-anchor="start" x="587" y="-591.2" font-family="Helvetica,sans-Serif" font-size="11.00">customerNumber</text>
<polygon fill="#ffffff" stroke="transparent" points="567,-565 567,-583 601,-583 601,-565 567,-565"/>
<polygon fill="none" stroke="black" points="567,-565 567,-583 601,-583 601,-565 567,-565"/>
<text text-anchor="start" x="570" y="-571.2" font-family="Helvetica,sans-Serif" font-size="11.00">&lt; 1</text>
<polygon fill="#ffffff" stroke="transparent" points="601,-565 601,-583 662,-583 662,-565 601,-565"/>
<polygon fill="none" stroke="black" points="601,-565 601,-583 662,-583 662,-565 601,-565"/>
<text text-anchor="start" x="608" y="-571.2" font-family="Helvetica,sans-Serif" font-size="11.00">326 rows</text>
<polygon fill="#ffffff" stroke="transparent" points="662,-565 662,-583 692,-583 692,-565 662,-565"/>
<polygon fill="none" stroke="black" points="662,-565 662,-583 692,-583 692,-565 662,-565"/>
<text text-anchor="start" x="669" y="-571.2" font-family="Helvetica,sans-Serif" font-size="11.00">1 &gt;</text>
</a>
</g>
</g>
<!-- orderdetails&#45;&gt;orders -->
<g id="edge4" class="edge">
<title>orderdetails:w&#45;&gt;orders:e</title>
<path fill="none" stroke="black" d="M731.18,-522.04C666.22,-543.43 781.95,-726 693,-726"/>
<polygon fill="black" stroke="black" points="737.58,-521.13 746.01,-523.56 741.54,-520.56 745.5,-520 745.5,-520 745.5,-520 741.54,-520.56 744.99,-516.44 737.58,-521.13 737.58,-521.13"/>
<ellipse fill="none" stroke="black" cx="734.41" cy="-521.58" rx="3.2" ry="3.2"/>
</g>
<!-- products -->
<g id="node8" class="node">
<title>products</title>
<g id="a_node8"><a xlink:href="tables/products.html" xlink:title="products" target="_top">
<polygon fill="#ffffff" stroke="transparent" points="561,-122 561,-360 697,-360 697,-122 561,-122"/>
<polygon fill="#f5f5f5" stroke="transparent" points="561,-338 561,-360 697,-360 697,-338 561,-338"/>
<polygon fill="none" stroke="black" points="561,-338 561,-360 697,-360 697,-338 561,-338"/>
<text text-anchor="start" x="566" y="-347.2" font-family="Helvetica,sans-Serif" font-weight="bold" font-size="11.00">products</text>
<text text-anchor="start" x="655" y="-346.2" font-family="Helvetica,sans-Serif" font-size="11.00">[table]</text>
<polygon fill="none" stroke="black" points="561,-316 561,-338 697,-338 697,-316 561,-316"/>
<image xlink:href="../../images/primaryKeys.png" width="11px" height="12px" preserveAspectRatio="xMinYMin meet" x="566" y="-333"/>
<text text-anchor="start" x="581" y="-324.2" font-family="Helvetica,sans-Serif" font-size="11.00">productCode</text>
<polygon fill="none" stroke="black" points="561,-294 561,-316 697,-316 697,-294 561,-294"/>
<text text-anchor="start" x="581" y="-302.2" font-family="Helvetica,sans-Serif" font-size="11.00">productName</text>
<polygon fill="#ffffff" stroke="transparent" points="561,-272 561,-294 697,-294 697,-272 561,-272"/>
<polygon fill="none" stroke="black" points="561,-272 561,-294 697,-294 697,-272 561,-272"/>
<image xlink:href="../../images/foreignKeys.png" width="11px" height="12px" preserveAspectRatio="xMinYMin meet" x="566" y="-289"/>
<text text-anchor="start" x="581" y="-280.2" font-family="Helvetica,sans-Serif" font-size="11.00">productLine</text>
<polygon fill="none" stroke="black" points="561,-250 561,-272 697,-272 697,-250 561,-250"/>
<text text-anchor="start" x="581" y="-258.2" font-family="Helvetica,sans-Serif" font-size="11.00">productScale</text>
<polygon fill="none" stroke="black" points="561,-228 561,-250 697,-250 697,-228 561,-228"/>
<text text-anchor="start" x="581" y="-236.2" font-family="Helvetica,sans-Serif" font-size="11.00">productVendor</text>
<polygon fill="none" stroke="black" points="561,-206 561,-228 697,-228 697,-206 561,-206"/>
<text text-anchor="start" x="581" y="-214.2" font-family="Helvetica,sans-Serif" font-size="11.00">productDescription</text>
<polygon fill="none" stroke="black" points="561,-184 561,-206 697,-206 697,-184 561,-184"/>
<text text-anchor="start" x="581" y="-192.2" font-family="Helvetica,sans-Serif" font-size="11.00">quantityInStock</text>
<polygon fill="none" stroke="black" points="561,-162 561,-184 697,-184 697,-162 561,-162"/>
<text text-anchor="start" x="581" y="-170.2" font-family="Helvetica,sans-Serif" font-size="11.00">buyPrice</text>
<polygon fill="none" stroke="black" points="561,-140 561,-162 697,-162 697,-140 561,-140"/>
<text text-anchor="start" x="581" y="-148.2" font-family="Helvetica,sans-Serif" font-size="11.00">MSRP</text>
<polygon fill="#ffffff" stroke="transparent" points="561,-122 561,-140 600,-140 600,-122 561,-122"/>
<polygon fill="none" stroke="black" points="561,-122 561,-140 600,-140 600,-122 561,-122"/>
<text text-anchor="start" x="564" y="-128.2" font-family="Helvetica,sans-Serif" font-size="11.00">&lt; 1</text>
<polygon fill="#ffffff" stroke="transparent" points="600,-122 600,-140 664,-140 664,-122 600,-122"/>
<polygon fill="none" stroke="black" points="600,-122 600,-140 664,-140 664,-122 600,-122"/>
<text text-anchor="start" x="610" y="-128.2" font-family="Helvetica,sans-Serif" font-size="11.00">110 rows</text>
<polygon fill="#ffffff" stroke="transparent" points="664,-122 664,-140 697,-140 697,-122 664,-122"/>
<polygon fill="none" stroke="black" points="664,-122 664,-140 697,-140 697,-122 664,-122"/>
<text text-anchor="start" x="674" y="-128.2" font-family="Helvetica,sans-Serif" font-size="11.00">1 &gt;</text>
</a>
</g>
</g>
<!-- orderdetails&#45;&gt;products -->
<g id="edge5" class="edge">
<title>orderdetails:w&#45;&gt;products:e</title>
<path fill="none" stroke="black" d="M731.22,-495.45C681.57,-474.18 771.18,-327 698,-327"/>
<polygon fill="black" stroke="black" points="737.62,-496.59 744.87,-501.54 741.56,-497.3 745.5,-498 745.5,-498 745.5,-498 741.56,-497.3 746.13,-494.46 737.62,-496.59 737.62,-496.59"/>
<ellipse fill="none" stroke="black" cx="734.47" cy="-496.03" rx="3.2" ry="3.2"/>
</g>
<!-- orders&#45;&gt;customers -->
<g id="edge6" class="edge">
<title>orders:w&#45;&gt;customers:e</title>
<path fill="none" stroke="black" d="M551.49,-594C538.56,-594 530.85,-594 513,-594"/>
<polygon fill="black" stroke="black" points="558,-594 566,-597.6 562,-594 566,-594 566,-594 566,-594 562,-594 566,-590.4 558,-594 558,-594"/>
<ellipse fill="none" stroke="black" cx="554.8" cy="-594" rx="3.2" ry="3.2"/>
</g>
<!-- payments -->
<g id="node6" class="node">
<title>payments</title>
<g id="a_node6"><a xlink:href="tables/payments.html" xlink:title="payments" target="_top">
<polygon fill="#ffffff" stroke="transparent" points="566.5,-416 566.5,-544 691.5,-544 691.5,-416 566.5,-416"/>
<polygon fill="#f5f5f5" stroke="transparent" points="567,-522 567,-544 692,-544 692,-522 567,-522"/>
<polygon fill="none" stroke="black" points="567,-522 567,-544 692,-544 692,-522 567,-522"/>
<text text-anchor="start" x="572" y="-531.2" font-family="Helvetica,sans-Serif" font-weight="bold" font-size="11.00">payments</text>
<text text-anchor="start" x="650" y="-530.2" font-family="Helvetica,sans-Serif" font-size="11.00">[table]</text>
<polygon fill="none" stroke="black" points="567,-500 567,-522 692,-522 692,-500 567,-500"/>
<image xlink:href="../../images/primaryKeys.png" width="11px" height="12px" preserveAspectRatio="xMinYMin meet" x="572" y="-517"/>
<text text-anchor="start" x="587" y="-508.2" font-family="Helvetica,sans-Serif" font-size="11.00">customerNumber</text>
<polygon fill="none" stroke="black" points="567,-478 567,-500 692,-500 692,-478 567,-478"/>
<image xlink:href="../../images/primaryKeys.png" width="11px" height="12px" preserveAspectRatio="xMinYMin meet" x="572" y="-495"/>
<text text-anchor="start" x="587" y="-486.2" font-family="Helvetica,sans-Serif" font-size="11.00">checkNumber</text>
<polygon fill="none" stroke="black" points="567,-456 567,-478 692,-478 692,-456 567,-456"/>
<text text-anchor="start" x="587" y="-464.2" font-family="Helvetica,sans-Serif" font-size="11.00">paymentDate</text>
<polygon fill="none" stroke="black" points="567,-434 567,-456 692,-456 692,-434 567,-434"/>
<text text-anchor="start" x="587" y="-442.2" font-family="Helvetica,sans-Serif" font-size="11.00">amount</text>
<polygon fill="#ffffff" stroke="transparent" points="567,-416 567,-434 607,-434 607,-416 567,-416"/>
<polygon fill="none" stroke="black" points="567,-416 567,-434 607,-434 607,-416 567,-416"/>
<text text-anchor="start" x="570" y="-422.2" font-family="Helvetica,sans-Serif" font-size="11.00">&lt; 1</text>
<polygon fill="#ffffff" stroke="transparent" points="607,-416 607,-434 671,-434 671,-416 607,-416"/>
<polygon fill="none" stroke="black" points="607,-416 607,-434 671,-434 671,-416 607,-416"/>
<text text-anchor="start" x="617" y="-422.2" font-family="Helvetica,sans-Serif" font-size="11.00">273 rows</text>
<polygon fill="#ffffff" stroke="transparent" points="671,-416 671,-434 692,-434 692,-416 671,-416"/>
<polygon fill="none" stroke="black" points="671,-416 671,-434 692,-434 692,-416 671,-416"/>
<text text-anchor="start" x="681" y="-422.2" font-family="Helvetica,sans-Serif" font-size="11.00"> &#160;</text>
</a>
</g>
</g>
<!-- payments&#45;&gt;customers -->
<g id="edge7" class="edge">
<title>payments:w&#45;&gt;customers:e</title>
<path fill="none" stroke="black" d="M552.04,-515.23C530.21,-532.14 550.78,-594 513,-594"/>
<polygon fill="black" stroke="black" points="558.34,-513.32 567.04,-514.45 562.17,-512.16 566,-511 566,-511 566,-511 562.17,-512.16 564.96,-507.55 558.34,-513.32 558.34,-513.32"/>
<ellipse fill="none" stroke="black" cx="555.28" cy="-514.25" rx="3.2" ry="3.2"/>
</g>
<!-- productlines -->
<g id="node7" class="node">
<title>productlines</title>
<g id="a_node7"><a xlink:href="tables/productlines.html" xlink:title="productlines" target="_top">
<polygon fill="#ffffff" stroke="transparent" points="358,-152 358,-280 486,-280 486,-152 358,-152"/>
<polygon fill="#f5f5f5" stroke="transparent" points="358,-258 358,-280 486,-280 486,-258 358,-258"/>
<polygon fill="none" stroke="black" points="358,-258 358,-280 486,-280 486,-258 358,-258"/>
<text text-anchor="start" x="363" y="-267.2" font-family="Helvetica,sans-Serif" font-weight="bold" font-size="11.00">productlines</text>
<text text-anchor="start" x="444" y="-266.2" font-family="Helvetica,sans-Serif" font-size="11.00">[table]</text>
<polygon fill="none" stroke="black" points="358,-236 358,-258 486,-258 486,-236 358,-236"/>
<image xlink:href="../../images/primaryKeys.png" width="11px" height="12px" preserveAspectRatio="xMinYMin meet" x="363" y="-253"/>
<text text-anchor="start" x="384" y="-244.2" font-family="Helvetica,sans-Serif" font-size="11.00">productLine</text>
<polygon fill="none" stroke="black" points="358,-214 358,-236 486,-236 486,-214 358,-214"/>
<text text-anchor="start" x="384" y="-222.2" font-family="Helvetica,sans-Serif" font-size="11.00">textDescription</text>
<polygon fill="none" stroke="black" points="358,-192 358,-214 486,-214 486,-192 358,-192"/>
<text text-anchor="start" x="384" y="-200.2" font-family="Helvetica,sans-Serif" font-size="11.00">htmlDescription</text>
<polygon fill="none" stroke="black" points="358,-170 358,-192 486,-192 486,-170 358,-170"/>
<text text-anchor="start" x="384" y="-178.2" font-family="Helvetica,sans-Serif" font-size="11.00">image</text>
<polygon fill="#ffffff" stroke="transparent" points="358,-152 358,-170 394,-170 394,-152 358,-152"/>
<polygon fill="none" stroke="black" points="358,-152 358,-170 394,-170 394,-152 358,-152"/>
<text text-anchor="start" x="361" y="-158.2" font-family="Helvetica,sans-Serif" font-size="11.00"> &#160;</text>
<polygon fill="#ffffff" stroke="transparent" points="394,-152 394,-170 448,-170 448,-152 394,-152"/>
<polygon fill="none" stroke="black" points="394,-152 394,-170 448,-170 448,-152 394,-152"/>
<text text-anchor="start" x="408" y="-158.2" font-family="Helvetica,sans-Serif" font-size="11.00">7 rows</text>
<polygon fill="#ffffff" stroke="transparent" points="448,-152 448,-170 486,-170 486,-152 448,-152"/>
<polygon fill="none" stroke="black" points="448,-152 448,-170 486,-170 486,-152 448,-152"/>
<text text-anchor="start" x="463" y="-158.2" font-family="Helvetica,sans-Serif" font-size="11.00">1 &gt;</text>
</a>
</g>
</g>
<!-- products&#45;&gt;productlines -->
<g id="edge8" class="edge">
<title>products:w&#45;&gt;productlines:e</title>
<path fill="none" stroke="black" d="M545.69,-280.75C522.8,-272.87 517.66,-247 487,-247"/>
<polygon fill="black" stroke="black" points="552.1,-281.76 559.44,-286.56 556.05,-282.38 560,-283 560,-283 560,-283 556.05,-282.38 560.56,-279.44 552.1,-281.76 552.1,-281.76"/>
<ellipse fill="none" stroke="black" cx="548.94" cy="-281.26" rx="3.2" ry="3.2"/>
</g>
</g>
</svg>
