<?xml version="1.0" encoding="UTF-8" standalone="no"?>
<!DOCTYPE svg PUBLIC "-//W3C//DTD SVG 1.1//EN"
 "http://www.w3.org/Graphics/SVG/1.1/DTD/svg11.dtd">
<!-- Generated by graphviz version 2.43.0 (0)
 -->
<!-- Title: linux boot process Pages: 1 -->
<svg width="342pt" height="654pt"
 viewBox="0.00 0.00 341.75 654.44" xmlns="http://www.w3.org/2000/svg" xmlns:xlink="http://www.w3.org/1999/xlink">
<g id="graph0" class="graph" transform="scale(1 1) rotate(0) translate(4 650.44)">
<title>linux boot process</title>
<polygon fill="white" stroke="transparent" points="-4,4 -4,-650.44 337.75,-650.44 337.75,4 -4,4"/>
<!-- power -->
<g id="node1" class="node">
<title>power</title>
<ellipse fill="none" stroke="black" cx="166.88" cy="-18" rx="55.79" ry="18"/>
<text text-anchor="middle" x="166.88" y="-14.3" font-family="Times,serif" font-size="14.00">Power On</text>
</g>
<!-- UEFI_menu -->
<g id="node2" class="node">
<title>UEFI_menu</title>
<ellipse fill="none" stroke="black" cx="166.88" cy="-90" rx="87.18" ry="18"/>
<text text-anchor="middle" x="166.88" y="-86.3" font-family="Times,serif" font-size="14.00">UEFI boot menu</text>
</g>
<!-- power&#45;&gt;UEFI_menu -->
<g id="edge1" class="edge">
<title>power&#45;&gt;UEFI_menu</title>
<path fill="none" stroke="black" d="M166.88,-36.3C166.88,-44.02 166.88,-53.29 166.88,-61.89"/>
<polygon fill="black" stroke="black" points="163.38,-61.9 166.88,-71.9 170.38,-61.9 163.38,-61.9"/>
</g>
<!-- uefi_boot -->
<g id="node3" class="node">
<title>uefi_boot</title>
<ellipse fill="none" stroke="black" cx="93.88" cy="-170.87" rx="58.49" ry="18"/>
<text text-anchor="middle" x="93.88" y="-167.17" font-family="Times,serif" font-size="14.00">UEFI boot</text>
</g>
<!-- UEFI_menu&#45;&gt;uefi_boot -->
<g id="edge2" class="edge">
<title>UEFI_menu&#45;&gt;uefi_boot</title>
<path fill="none" stroke="black" d="M151.4,-107.73C141.16,-118.78 127.59,-133.44 116.2,-145.75"/>
<polygon fill="black" stroke="black" points="113.31,-143.72 109.09,-153.44 118.45,-148.48 113.31,-143.72"/>
</g>
<!-- legacy_boot -->
<g id="node4" class="node">
<title>legacy_boot</title>
<ellipse fill="none" stroke="black" cx="239.88" cy="-170.87" rx="69.09" ry="26.74"/>
<text text-anchor="middle" x="239.88" y="-174.67" font-family="Times,serif" font-size="14.00">legacy boot</text>
<text text-anchor="middle" x="239.88" y="-159.67" font-family="Times,serif" font-size="14.00">(to MBR)</text>
</g>
<!-- UEFI_menu&#45;&gt;legacy_boot -->
<g id="edge3" class="edge">
<title>UEFI_menu&#45;&gt;legacy_boot</title>
<path fill="none" stroke="black" d="M182.36,-107.73C190.51,-116.53 200.78,-127.63 210.38,-138"/>
<polygon fill="black" stroke="black" points="207.85,-140.42 217.21,-145.38 212.99,-135.66 207.85,-140.42"/>
</g>
<!-- boot_loader -->
<g id="node5" class="node">
<title>boot_loader</title>
<ellipse fill="none" stroke="black" cx="166.88" cy="-260.61" rx="166.75" ry="26.74"/>
<text text-anchor="middle" x="166.88" y="-264.41" font-family="Times,serif" font-size="14.00">boot loader menu</text>
<text text-anchor="middle" x="166.88" y="-249.41" font-family="Times,serif" font-size="14.00">(eg： grub/isolinux/extlinux/...)</text>
</g>
<!-- uefi_boot&#45;&gt;boot_loader -->
<g id="edge4" class="edge">
<title>uefi_boot&#45;&gt;boot_loader</title>
<path fill="none" stroke="black" d="M107.61,-188.37C116.43,-198.98 128.21,-213.14 138.95,-226.04"/>
<polygon fill="black" stroke="black" points="136.37,-228.42 145.46,-233.87 141.75,-223.94 136.37,-228.42"/>
</g>
<!-- legacy_boot&#45;&gt;boot_loader -->
<g id="edge5" class="edge">
<title>legacy_boot&#45;&gt;boot_loader</title>
<path fill="none" stroke="black" d="M219.15,-196.78C211.65,-205.8 203.03,-216.15 195,-225.81"/>
<polygon fill="black" stroke="black" points="192.12,-223.8 188.42,-233.72 197.5,-228.27 192.12,-223.8"/>
</g>
<!-- config -->
<g id="node6" class="node">
<title>config</title>
<ellipse fill="none" stroke="black" cx="166.88" cy="-350.35" rx="103.48" ry="26.74"/>
<text text-anchor="middle" x="166.88" y="-354.15" font-family="Times,serif" font-size="14.00">config file</text>
<text text-anchor="middle" x="166.88" y="-339.15" font-family="Times,serif" font-size="14.00">(eg. extlinux.conf)</text>
</g>
<!-- boot_loader&#45;&gt;config -->
<g id="edge6" class="edge">
<title>boot_loader&#45;&gt;config</title>
<path fill="none" stroke="black" d="M166.88,-287.94C166.88,-295.9 166.88,-304.79 166.88,-313.28"/>
<polygon fill="black" stroke="black" points="163.38,-313.35 166.88,-323.35 170.38,-313.35 163.38,-313.35"/>
</g>
<!-- kernel -->
<g id="node7" class="node">
<title>kernel</title>
<ellipse fill="none" stroke="black" cx="166.88" cy="-440.09" rx="84.29" ry="26.74"/>
<text text-anchor="middle" x="166.88" y="-443.89" font-family="Times,serif" font-size="14.00">kernel</text>
<text text-anchor="middle" x="166.88" y="-428.89" font-family="Times,serif" font-size="14.00">(vmlinuz&#45;x.y.z)</text>
</g>
<!-- config&#45;&gt;kernel -->
<g id="edge7" class="edge">
<title>config&#45;&gt;kernel</title>
<path fill="none" stroke="black" d="M166.88,-377.68C166.88,-385.64 166.88,-394.53 166.88,-403.02"/>
<polygon fill="black" stroke="black" points="163.38,-403.09 166.88,-413.09 170.38,-403.09 163.38,-403.09"/>
</g>
<!-- initrd -->
<g id="node8" class="node">
<title>initrd</title>
<ellipse fill="none" stroke="black" cx="166.88" cy="-529.83" rx="94.51" ry="26.74"/>
<text text-anchor="middle" x="166.88" y="-533.63" font-family="Times,serif" font-size="14.00">initrd</text>
<text text-anchor="middle" x="166.88" y="-518.63" font-family="Times,serif" font-size="14.00">(initrd.img&#45;x.y.z)</text>
</g>
<!-- kernel&#45;&gt;initrd -->
<g id="edge8" class="edge">
<title>kernel&#45;&gt;initrd</title>
<path fill="none" stroke="black" d="M166.88,-467.42C166.88,-475.38 166.88,-484.27 166.88,-492.76"/>
<polygon fill="black" stroke="black" points="163.38,-492.83 166.88,-502.83 170.38,-492.83 163.38,-492.83"/>
</g>
<!-- rootfs -->
<g id="node9" class="node">
<title>rootfs</title>
<ellipse fill="none" stroke="black" cx="166.88" cy="-619.57" rx="152.06" ry="26.74"/>
<text text-anchor="middle" x="166.88" y="-623.37" font-family="Times,serif" font-size="14.00">root file system</text>
<text text-anchor="middle" x="166.88" y="-608.37" font-family="Times,serif" font-size="14.00">(*.squashfs or root=/dev/...)</text>
</g>
<!-- initrd&#45;&gt;rootfs -->
<g id="edge9" class="edge">
<title>initrd&#45;&gt;rootfs</title>
<path fill="none" stroke="black" d="M166.88,-557.16C166.88,-565.12 166.88,-574.01 166.88,-582.5"/>
<polygon fill="black" stroke="black" points="163.38,-582.57 166.88,-592.57 170.38,-582.57 163.38,-582.57"/>
</g>
</g>
</svg>
