<?xml version="1.0" encoding="UTF-8" standalone="no"?>
<!DOCTYPE svg PUBLIC "-//W3C//DTD SVG 1.1//EN"
 "http://www.w3.org/Graphics/SVG/1.1/DTD/svg11.dtd">
<!-- Generated by graphviz version 2.43.0 (0)
 -->
<!-- Title: bus apps: inefficient Pages: 1 -->
<svg width="338pt" height="637pt"
 viewBox="0.00 0.00 337.51 636.70" xmlns="http://www.w3.org/2000/svg" xmlns:xlink="http://www.w3.org/1999/xlink">
<g id="graph0" class="graph" transform="scale(1 1) rotate(0) translate(4 632.7)">
<title>bus apps: inefficient</title>
<polygon fill="white" stroke="transparent" points="-4,4 -4,-632.7 333.51,-632.7 333.51,4 -4,4"/>
<!-- power -->
<g id="node1" class="node">
<title>power</title>
<ellipse fill="none" stroke="black" cx="164.76" cy="-18" rx="48.19" ry="18"/>
<text text-anchor="middle" x="164.76" y="-14.3" font-family="Times,serif" font-size="14.00">電源開關</text>
</g>
<!-- UEFI_menu -->
<g id="node2" class="node">
<title>UEFI_menu</title>
<ellipse fill="none" stroke="black" cx="164.76" cy="-90" rx="75.29" ry="18"/>
<text text-anchor="middle" x="164.76" y="-86.3" font-family="Times,serif" font-size="14.00">UEFI 開機選單</text>
</g>
<!-- power&#45;&gt;UEFI_menu -->
<g id="edge1" class="edge">
<title>power&#45;&gt;UEFI_menu</title>
<path fill="none" stroke="black" d="M164.76,-36.3C164.76,-44.02 164.76,-53.29 164.76,-61.89"/>
<polygon fill="black" stroke="black" points="161.26,-61.9 164.76,-71.9 168.26,-61.9 161.26,-61.9"/>
</g>
<!-- uefi_boot -->
<g id="node3" class="node">
<title>uefi_boot</title>
<ellipse fill="none" stroke="black" cx="94.76" cy="-162" rx="58.49" ry="18"/>
<text text-anchor="middle" x="94.76" y="-158.3" font-family="Times,serif" font-size="14.00">UEFI boot</text>
</g>
<!-- UEFI_menu&#45;&gt;uefi_boot -->
<g id="edge2" class="edge">
<title>UEFI_menu&#45;&gt;uefi_boot</title>
<path fill="none" stroke="black" d="M148.17,-107.59C139.27,-116.48 128.17,-127.59 118.39,-137.37"/>
<polygon fill="black" stroke="black" points="115.82,-134.98 111.23,-144.53 120.77,-139.93 115.82,-134.98"/>
</g>
<!-- legacy_boot -->
<g id="node4" class="node">
<title>legacy_boot</title>
<ellipse fill="none" stroke="black" cx="234.76" cy="-162" rx="63.89" ry="18"/>
<text text-anchor="middle" x="234.76" y="-158.3" font-family="Times,serif" font-size="14.00">legacy boot</text>
</g>
<!-- UEFI_menu&#45;&gt;legacy_boot -->
<g id="edge3" class="edge">
<title>UEFI_menu&#45;&gt;legacy_boot</title>
<path fill="none" stroke="black" d="M181.34,-107.59C190.24,-116.48 201.35,-127.59 211.12,-137.37"/>
<polygon fill="black" stroke="black" points="208.74,-139.93 218.29,-144.53 213.69,-134.98 208.74,-139.93"/>
</g>
<!-- boot_loader -->
<g id="node5" class="node">
<title>boot_loader</title>
<ellipse fill="none" stroke="black" cx="164.76" cy="-242.87" rx="164.51" ry="26.74"/>
<text text-anchor="middle" x="164.76" y="-246.67" font-family="Times,serif" font-size="14.00">boot loader</text>
<text text-anchor="middle" x="164.76" y="-231.67" font-family="Times,serif" font-size="14.00">(例： grub/isolinux/extlinux/...)</text>
</g>
<!-- uefi_boot&#45;&gt;boot_loader -->
<g id="edge4" class="edge">
<title>uefi_boot&#45;&gt;boot_loader</title>
<path fill="none" stroke="black" d="M109.6,-179.73C117.08,-188.16 126.43,-198.69 135.29,-208.68"/>
<polygon fill="black" stroke="black" points="132.68,-211.01 141.94,-216.16 137.92,-206.36 132.68,-211.01"/>
</g>
<!-- legacy_boot&#45;&gt;boot_loader -->
<g id="edge5" class="edge">
<title>legacy_boot&#45;&gt;boot_loader</title>
<path fill="none" stroke="black" d="M219.91,-179.73C212.43,-188.16 203.08,-198.69 194.22,-208.68"/>
<polygon fill="black" stroke="black" points="191.59,-206.36 187.57,-216.16 196.83,-211.01 191.59,-206.36"/>
</g>
<!-- config -->
<g id="node6" class="node">
<title>config</title>
<ellipse fill="none" stroke="black" cx="164.76" cy="-332.61" rx="107.46" ry="26.74"/>
<text text-anchor="middle" x="164.76" y="-336.41" font-family="Times,serif" font-size="14.00">開機設定檔</text>
<text text-anchor="middle" x="164.76" y="-321.41" font-family="Times,serif" font-size="14.00">(例： extlinux.conf)</text>
</g>
<!-- boot_loader&#45;&gt;config -->
<g id="edge6" class="edge">
<title>boot_loader&#45;&gt;config</title>
<path fill="none" stroke="black" d="M164.76,-270.19C164.76,-278.16 164.76,-287.05 164.76,-295.54"/>
<polygon fill="black" stroke="black" points="161.26,-295.61 164.76,-305.61 168.26,-295.61 161.26,-295.61"/>
</g>
<!-- kernel -->
<g id="node7" class="node">
<title>kernel</title>
<ellipse fill="none" stroke="black" cx="164.76" cy="-422.35" rx="125.73" ry="26.74"/>
<text text-anchor="middle" x="164.76" y="-426.15" font-family="Times,serif" font-size="14.00">kernel</text>
<text text-anchor="middle" x="164.76" y="-411.15" font-family="Times,serif" font-size="14.00">(通常名為 vmlinuz&#45;版本)</text>
</g>
<!-- config&#45;&gt;kernel -->
<g id="edge7" class="edge">
<title>config&#45;&gt;kernel</title>
<path fill="none" stroke="black" d="M164.76,-359.94C164.76,-367.9 164.76,-376.79 164.76,-385.28"/>
<polygon fill="black" stroke="black" points="161.26,-385.35 164.76,-395.35 168.26,-385.35 161.26,-385.35"/>
</g>
<!-- initrd -->
<g id="node8" class="node">
<title>initrd</title>
<ellipse fill="none" stroke="black" cx="164.76" cy="-512.09" rx="136.44" ry="26.74"/>
<text text-anchor="middle" x="164.76" y="-515.89" font-family="Times,serif" font-size="14.00">initrd</text>
<text text-anchor="middle" x="164.76" y="-500.89" font-family="Times,serif" font-size="14.00">(通常名為 initrd.img&#45;版本)</text>
</g>
<!-- kernel&#45;&gt;initrd -->
<g id="edge8" class="edge">
<title>kernel&#45;&gt;initrd</title>
<path fill="none" stroke="black" d="M164.76,-449.68C164.76,-457.64 164.76,-466.53 164.76,-475.02"/>
<polygon fill="black" stroke="black" points="161.26,-475.09 164.76,-485.09 168.26,-475.09 161.26,-475.09"/>
</g>
<!-- rootfs -->
<g id="node9" class="node">
<title>rootfs</title>
<ellipse fill="none" stroke="black" cx="164.76" cy="-601.83" rx="164.51" ry="26.74"/>
<text text-anchor="middle" x="164.76" y="-605.63" font-family="Times,serif" font-size="14.00">root file system</text>
<text text-anchor="middle" x="164.76" y="-590.63" font-family="Times,serif" font-size="14.00">(live squashfs 或 root=/dev/...)</text>
</g>
<!-- initrd&#45;&gt;rootfs -->
<g id="edge9" class="edge">
<title>initrd&#45;&gt;rootfs</title>
<path fill="none" stroke="black" d="M164.76,-539.42C164.76,-547.38 164.76,-556.27 164.76,-564.76"/>
<polygon fill="black" stroke="black" points="161.26,-564.83 164.76,-574.83 168.26,-564.83 161.26,-564.83"/>
</g>
</g>
</svg>
