<?xml version="1.0" encoding="UTF-8" standalone="no"?>
<!DOCTYPE svg PUBLIC "-//W3C//DTD SVG 1.1//EN"
 "http://www.w3.org/Graphics/SVG/1.1/DTD/svg11.dtd">
<!-- Generated by graphviz version 2.43.0 (0)
 -->
<!-- Title: linux 開機流程 Pages: 1 -->
<svg width="450pt" height="654pt"
 viewBox="0.00 0.00 450.13 654.44" xmlns="http://www.w3.org/2000/svg" xmlns:xlink="http://www.w3.org/1999/xlink">
<g id="graph0" class="graph" transform="scale(1 1) rotate(0) translate(4 650.44)">
<title>linux 開機流程</title>
<polygon fill="white" stroke="transparent" points="-4,4 -4,-650.44 446.13,-650.44 446.13,4 -4,4"/>
<!-- power -->
<g id="node1" class="node">
<title>power</title>
<ellipse fill="none" stroke="black" cx="243.69" cy="-18" rx="48.19" ry="18"/>
<text text-anchor="middle" x="243.69" y="-14.3" font-family="Times,serif" font-size="14.00">電源開關</text>
</g>
<!-- UEFI_menu -->
<g id="node2" class="node">
<title>UEFI_menu</title>
<ellipse fill="none" stroke="black" cx="243.69" cy="-90" rx="75.29" ry="18"/>
<text text-anchor="middle" x="243.69" y="-86.3" font-family="Times,serif" font-size="14.00">UEFI 開機選單</text>
</g>
<!-- power&#45;&gt;UEFI_menu -->
<g id="edge1" class="edge">
<title>power&#45;&gt;UEFI_menu</title>
<path fill="none" stroke="black" d="M243.69,-36.3C243.69,-44.02 243.69,-53.29 243.69,-61.89"/>
<polygon fill="black" stroke="black" points="240.19,-61.9 243.69,-71.9 247.19,-61.9 240.19,-61.9"/>
</g>
<!-- uefi_boot -->
<g id="node3" class="node">
<title>uefi_boot</title>
<ellipse fill="none" stroke="black" cx="128.69" cy="-170.87" rx="128.89" ry="26.74"/>
<text text-anchor="middle" x="128.69" y="-174.67" font-family="Times,serif" font-size="14.00">UEFI boot</text>
<text text-anchor="middle" x="128.69" y="-159.67" font-family="Times,serif" font-size="14.00">(EFI/BOOT/BOOT*.EFI)</text>
</g>
<!-- UEFI_menu&#45;&gt;uefi_boot -->
<g id="edge2" class="edge">
<title>UEFI_menu&#45;&gt;uefi_boot</title>
<path fill="none" stroke="black" d="M220.14,-107.15C206.73,-116.35 189.47,-128.19 173.56,-139.1"/>
<polygon fill="black" stroke="black" points="171.17,-136.5 164.9,-145.04 175.13,-142.27 171.17,-136.5"/>
</g>
<!-- legacy_boot -->
<g id="node4" class="node">
<title>legacy_boot</title>
<ellipse fill="none" stroke="black" cx="358.69" cy="-170.87" rx="83.38" ry="26.74"/>
<text text-anchor="middle" x="358.69" y="-174.67" font-family="Times,serif" font-size="14.00">legacy boot</text>
<text text-anchor="middle" x="358.69" y="-159.67" font-family="Times,serif" font-size="14.00">(MBR =&gt; ???)</text>
</g>
<!-- UEFI_menu&#45;&gt;legacy_boot -->
<g id="edge3" class="edge">
<title>UEFI_menu&#45;&gt;legacy_boot</title>
<path fill="none" stroke="black" d="M267.24,-107.15C281.23,-116.75 299.4,-129.2 315.85,-140.49"/>
<polygon fill="black" stroke="black" points="314.04,-143.49 324.27,-146.26 318,-137.72 314.04,-143.49"/>
</g>
<!-- boot_loader -->
<g id="node5" class="node">
<title>boot_loader</title>
<ellipse fill="none" stroke="black" cx="243.69" cy="-260.61" rx="164.51" ry="26.74"/>
<text text-anchor="middle" x="243.69" y="-264.41" font-family="Times,serif" font-size="14.00">boot loader 開機管理員</text>
<text text-anchor="middle" x="243.69" y="-249.41" font-family="Times,serif" font-size="14.00">(例： grub/isolinux/extlinux/...)</text>
</g>
<!-- uefi_boot&#45;&gt;boot_loader -->
<g id="edge4" class="edge">
<title>uefi_boot&#45;&gt;boot_loader</title>
<path fill="none" stroke="black" d="M161.65,-197.01C174.29,-206.66 188.88,-217.79 202.22,-227.97"/>
<polygon fill="black" stroke="black" points="200.26,-230.88 210.34,-234.16 204.51,-225.31 200.26,-230.88"/>
</g>
<!-- legacy_boot&#45;&gt;boot_loader -->
<g id="edge5" class="edge">
<title>legacy_boot&#45;&gt;boot_loader</title>
<path fill="none" stroke="black" d="M327.27,-195.85C314.26,-205.77 298.99,-217.42 285.09,-228.03"/>
<polygon fill="black" stroke="black" points="282.92,-225.28 277.09,-234.13 287.16,-230.85 282.92,-225.28"/>
</g>
<!-- config -->
<g id="node6" class="node">
<title>config</title>
<ellipse fill="none" stroke="black" cx="243.69" cy="-350.35" rx="107.46" ry="26.74"/>
<text text-anchor="middle" x="243.69" y="-354.15" font-family="Times,serif" font-size="14.00">開機設定檔</text>
<text text-anchor="middle" x="243.69" y="-339.15" font-family="Times,serif" font-size="14.00">(例： extlinux.conf)</text>
</g>
<!-- boot_loader&#45;&gt;config -->
<g id="edge6" class="edge">
<title>boot_loader&#45;&gt;config</title>
<path fill="none" stroke="black" d="M243.69,-287.94C243.69,-295.9 243.69,-304.79 243.69,-313.28"/>
<polygon fill="black" stroke="black" points="240.19,-313.35 243.69,-323.35 247.19,-313.35 240.19,-313.35"/>
</g>
<!-- kernel -->
<g id="node7" class="node">
<title>kernel</title>
<ellipse fill="none" stroke="black" cx="243.69" cy="-440.09" rx="125.73" ry="26.74"/>
<text text-anchor="middle" x="243.69" y="-443.89" font-family="Times,serif" font-size="14.00">kernel</text>
<text text-anchor="middle" x="243.69" y="-428.89" font-family="Times,serif" font-size="14.00">(通常名為 vmlinuz&#45;版本)</text>
</g>
<!-- config&#45;&gt;kernel -->
<g id="edge7" class="edge">
<title>config&#45;&gt;kernel</title>
<path fill="none" stroke="black" d="M243.69,-377.68C243.69,-385.64 243.69,-394.53 243.69,-403.02"/>
<polygon fill="black" stroke="black" points="240.19,-403.09 243.69,-413.09 247.19,-403.09 240.19,-403.09"/>
</g>
<!-- initrd -->
<g id="node8" class="node">
<title>initrd</title>
<ellipse fill="none" stroke="black" cx="243.69" cy="-529.83" rx="136.44" ry="26.74"/>
<text text-anchor="middle" x="243.69" y="-533.63" font-family="Times,serif" font-size="14.00">initrd</text>
<text text-anchor="middle" x="243.69" y="-518.63" font-family="Times,serif" font-size="14.00">(通常名為 initrd.img&#45;版本)</text>
</g>
<!-- kernel&#45;&gt;initrd -->
<g id="edge8" class="edge">
<title>kernel&#45;&gt;initrd</title>
<path fill="none" stroke="black" d="M243.69,-467.42C243.69,-475.38 243.69,-484.27 243.69,-492.76"/>
<polygon fill="black" stroke="black" points="240.19,-492.83 243.69,-502.83 247.19,-492.83 240.19,-492.83"/>
</g>
<!-- rootfs -->
<g id="node9" class="node">
<title>rootfs</title>
<ellipse fill="none" stroke="black" cx="243.69" cy="-619.57" rx="152.06" ry="26.74"/>
<text text-anchor="middle" x="243.69" y="-623.37" font-family="Times,serif" font-size="14.00">root file system</text>
<text text-anchor="middle" x="243.69" y="-608.37" font-family="Times,serif" font-size="14.00">(*.squashfs or root=/dev/...)</text>
</g>
<!-- initrd&#45;&gt;rootfs -->
<g id="edge9" class="edge">
<title>initrd&#45;&gt;rootfs</title>
<path fill="none" stroke="black" d="M243.69,-557.16C243.69,-565.12 243.69,-574.01 243.69,-582.5"/>
<polygon fill="black" stroke="black" points="240.19,-582.57 243.69,-592.57 247.19,-582.57 240.19,-582.57"/>
</g>
</g>
</svg>
