<?xml version="1.0" encoding="UTF-8" standalone="no"?>
<!DOCTYPE svg PUBLIC "-//W3C//DTD SVG 1.1//EN"
 "http://www.w3.org/Graphics/SVG/1.1/DTD/svg11.dtd">
<!-- Generated by graphviz version 2.43.0 (0)
 -->
<!-- Title: linux 開機流程 Pages: 1 -->
<svg width="338pt" height="654pt"
 viewBox="0.00 0.00 337.51 654.44" xmlns="http://www.w3.org/2000/svg" xmlns:xlink="http://www.w3.org/1999/xlink">
<g id="graph0" class="graph" transform="scale(1 1) rotate(0) translate(4 650.44)">
<title>linux 開機流程</title>
<polygon fill="white" stroke="transparent" points="-4,4 -4,-650.44 333.51,-650.44 333.51,4 -4,4"/>
<!-- power -->
<g id="node1" class="node">
<title>power</title>
<ellipse fill="none" stroke="black" cx="164.76" cy="-18" rx="48.19" ry="18"/>
<text text-anchor="middle" x="164.76" y="-14.3" font-family="Times,serif" font-size="14.00">電源開關</text>
</g>
<!-- UEFI_menu -->
<g id="node2" class="node">
<title>UEFI_menu</title>
<ellipse fill="none" stroke="black" cx="164.76" cy="-90" rx="75.29" ry="18"/>
<text text-anchor="middle" x="164.76" y="-86.3" font-family="Times,serif" font-size="14.00">UEFI 開機選單</text>
</g>
<!-- power&#45;&gt;UEFI_menu -->
<g id="edge1" class="edge">
<title>power&#45;&gt;UEFI_menu</title>
<path fill="none" stroke="black" d="M164.76,-36.3C164.76,-44.02 164.76,-53.29 164.76,-61.89"/>
<polygon fill="black" stroke="black" points="161.26,-61.9 164.76,-71.9 168.26,-61.9 161.26,-61.9"/>
</g>
<!-- uefi_boot -->
<g id="node3" class="node">
<title>uefi_boot</title>
<ellipse fill="none" stroke="black" cx="91.76" cy="-170.87" rx="58.49" ry="18"/>
<text text-anchor="middle" x="91.76" y="-167.17" font-family="Times,serif" font-size="14.00">UEFI boot</text>
</g>
<!-- UEFI_menu&#45;&gt;uefi_boot -->
<g id="edge2" class="edge">
<title>UEFI_menu&#45;&gt;uefi_boot</title>
<path fill="none" stroke="black" d="M149.27,-107.73C139.04,-118.78 125.47,-133.44 114.08,-145.75"/>
<polygon fill="black" stroke="black" points="111.19,-143.72 106.96,-153.44 116.33,-148.48 111.19,-143.72"/>
</g>
<!-- legacy_boot -->
<g id="node4" class="node">
<title>legacy_boot</title>
<ellipse fill="none" stroke="black" cx="237.76" cy="-170.87" rx="69.09" ry="26.74"/>
<text text-anchor="middle" x="237.76" y="-174.67" font-family="Times,serif" font-size="14.00">legacy boot</text>
<text text-anchor="middle" x="237.76" y="-159.67" font-family="Times,serif" font-size="14.00">(to MBR)</text>
</g>
<!-- UEFI_menu&#45;&gt;legacy_boot -->
<g id="edge3" class="edge">
<title>UEFI_menu&#45;&gt;legacy_boot</title>
<path fill="none" stroke="black" d="M180.24,-107.73C188.39,-116.53 198.66,-127.63 208.26,-138"/>
<polygon fill="black" stroke="black" points="205.73,-140.42 215.09,-145.38 210.87,-135.66 205.73,-140.42"/>
</g>
<!-- boot_loader -->
<g id="node5" class="node">
<title>boot_loader</title>
<ellipse fill="none" stroke="black" cx="164.76" cy="-260.61" rx="164.51" ry="26.74"/>
<text text-anchor="middle" x="164.76" y="-264.41" font-family="Times,serif" font-size="14.00">boot loader 開機選單</text>
<text text-anchor="middle" x="164.76" y="-249.41" font-family="Times,serif" font-size="14.00">(例： grub/isolinux/extlinux/...)</text>
</g>
<!-- uefi_boot&#45;&gt;boot_loader -->
<g id="edge4" class="edge">
<title>uefi_boot&#45;&gt;boot_loader</title>
<path fill="none" stroke="black" d="M105.49,-188.37C114.31,-198.98 126.09,-213.14 136.82,-226.04"/>
<polygon fill="black" stroke="black" points="134.25,-228.42 143.34,-233.87 139.63,-223.94 134.25,-228.42"/>
</g>
<!-- legacy_boot&#45;&gt;boot_loader -->
<g id="edge5" class="edge">
<title>legacy_boot&#45;&gt;boot_loader</title>
<path fill="none" stroke="black" d="M217.03,-196.78C209.52,-205.8 200.91,-216.15 192.87,-225.81"/>
<polygon fill="black" stroke="black" points="190,-223.8 186.29,-233.72 195.38,-228.27 190,-223.8"/>
</g>
<!-- config -->
<g id="node6" class="node">
<title>config</title>
<ellipse fill="none" stroke="black" cx="164.76" cy="-350.35" rx="107.46" ry="26.74"/>
<text text-anchor="middle" x="164.76" y="-354.15" font-family="Times,serif" font-size="14.00">開機設定檔</text>
<text text-anchor="middle" x="164.76" y="-339.15" font-family="Times,serif" font-size="14.00">(例： extlinux.conf)</text>
</g>
<!-- boot_loader&#45;&gt;config -->
<g id="edge6" class="edge">
<title>boot_loader&#45;&gt;config</title>
<path fill="none" stroke="black" d="M164.76,-287.94C164.76,-295.9 164.76,-304.79 164.76,-313.28"/>
<polygon fill="black" stroke="black" points="161.26,-313.35 164.76,-323.35 168.26,-313.35 161.26,-313.35"/>
</g>
<!-- kernel -->
<g id="node7" class="node">
<title>kernel</title>
<ellipse fill="none" stroke="black" cx="164.76" cy="-440.09" rx="125.73" ry="26.74"/>
<text text-anchor="middle" x="164.76" y="-443.89" font-family="Times,serif" font-size="14.00">kernel</text>
<text text-anchor="middle" x="164.76" y="-428.89" font-family="Times,serif" font-size="14.00">(通常名為 vmlinuz&#45;版本)</text>
</g>
<!-- config&#45;&gt;kernel -->
<g id="edge7" class="edge">
<title>config&#45;&gt;kernel</title>
<path fill="none" stroke="black" d="M164.76,-377.68C164.76,-385.64 164.76,-394.53 164.76,-403.02"/>
<polygon fill="black" stroke="black" points="161.26,-403.09 164.76,-413.09 168.26,-403.09 161.26,-403.09"/>
</g>
<!-- initrd -->
<g id="node8" class="node">
<title>initrd</title>
<ellipse fill="none" stroke="black" cx="164.76" cy="-529.83" rx="136.44" ry="26.74"/>
<text text-anchor="middle" x="164.76" y="-533.63" font-family="Times,serif" font-size="14.00">initrd</text>
<text text-anchor="middle" x="164.76" y="-518.63" font-family="Times,serif" font-size="14.00">(通常名為 initrd.img&#45;版本)</text>
</g>
<!-- kernel&#45;&gt;initrd -->
<g id="edge8" class="edge">
<title>kernel&#45;&gt;initrd</title>
<path fill="none" stroke="black" d="M164.76,-467.42C164.76,-475.38 164.76,-484.27 164.76,-492.76"/>
<polygon fill="black" stroke="black" points="161.26,-492.83 164.76,-502.83 168.26,-492.83 161.26,-492.83"/>
</g>
<!-- rootfs -->
<g id="node9" class="node">
<title>rootfs</title>
<ellipse fill="none" stroke="black" cx="164.76" cy="-619.57" rx="152.06" ry="26.74"/>
<text text-anchor="middle" x="164.76" y="-623.37" font-family="Times,serif" font-size="14.00">root file system</text>
<text text-anchor="middle" x="164.76" y="-608.37" font-family="Times,serif" font-size="14.00">(*.squashfs or root=/dev/...)</text>
</g>
<!-- initrd&#45;&gt;rootfs -->
<g id="edge9" class="edge">
<title>initrd&#45;&gt;rootfs</title>
<path fill="none" stroke="black" d="M164.76,-557.16C164.76,-565.12 164.76,-574.01 164.76,-582.5"/>
<polygon fill="black" stroke="black" points="161.26,-582.57 164.76,-592.57 168.26,-582.57 161.26,-582.57"/>
</g>
</g>
</svg>
