<?xml version="1.0" encoding="UTF-8" standalone="no"?>
<!DOCTYPE svg PUBLIC "-//W3C//DTD SVG 1.1//EN"
 "http://www.w3.org/Graphics/SVG/1.1/DTD/svg11.dtd">
<!-- Generated by graphviz version 2.43.0 (0)
 -->
<!-- Title: linux 開機流程 Pages: 1 -->
<svg width="342pt" height="637pt"
 viewBox="0.00 0.00 341.75 636.70" xmlns="http://www.w3.org/2000/svg" xmlns:xlink="http://www.w3.org/1999/xlink">
<g id="graph0" class="graph" transform="scale(1 1) rotate(0) translate(4 632.7)">
<title>linux 開機流程</title>
<polygon fill="white" stroke="transparent" points="-4,4 -4,-632.7 337.75,-632.7 337.75,4 -4,4"/>
<!-- power -->
<g id="node1" class="node">
<title>power</title>
<ellipse fill="none" stroke="black" cx="166.88" cy="-18" rx="55.79" ry="18"/>
<text text-anchor="middle" x="166.88" y="-14.3" font-family="Times,serif" font-size="14.00">Power On</text>
</g>
<!-- UEFI_menu -->
<g id="node2" class="node">
<title>UEFI_menu</title>
<ellipse fill="none" stroke="black" cx="166.88" cy="-90" rx="87.18" ry="18"/>
<text text-anchor="middle" x="166.88" y="-86.3" font-family="Times,serif" font-size="14.00">UEFI boot menu</text>
</g>
<!-- power&#45;&gt;UEFI_menu -->
<g id="edge1" class="edge">
<title>power&#45;&gt;UEFI_menu</title>
<path fill="none" stroke="black" d="M166.88,-36.3C166.88,-44.02 166.88,-53.29 166.88,-61.89"/>
<polygon fill="black" stroke="black" points="163.38,-61.9 166.88,-71.9 170.38,-61.9 163.38,-61.9"/>
</g>
<!-- uefi_boot -->
<g id="node3" class="node">
<title>uefi_boot</title>
<ellipse fill="none" stroke="black" cx="96.88" cy="-162" rx="58.49" ry="18"/>
<text text-anchor="middle" x="96.88" y="-158.3" font-family="Times,serif" font-size="14.00">UEFI boot</text>
</g>
<!-- UEFI_menu&#45;&gt;uefi_boot -->
<g id="edge2" class="edge">
<title>UEFI_menu&#45;&gt;uefi_boot</title>
<path fill="none" stroke="black" d="M149.93,-107.95C141.03,-116.84 129.99,-127.89 120.29,-137.59"/>
<polygon fill="black" stroke="black" points="117.78,-135.15 113.18,-144.69 122.73,-140.1 117.78,-135.15"/>
</g>
<!-- legacy_boot -->
<g id="node4" class="node">
<title>legacy_boot</title>
<ellipse fill="none" stroke="black" cx="236.88" cy="-162" rx="63.89" ry="18"/>
<text text-anchor="middle" x="236.88" y="-158.3" font-family="Times,serif" font-size="14.00">legacy boot</text>
</g>
<!-- UEFI_menu&#45;&gt;legacy_boot -->
<g id="edge3" class="edge">
<title>UEFI_menu&#45;&gt;legacy_boot</title>
<path fill="none" stroke="black" d="M183.82,-107.95C192.51,-116.63 203.23,-127.36 212.76,-136.89"/>
<polygon fill="black" stroke="black" points="210.54,-139.61 220.09,-144.21 215.49,-134.67 210.54,-139.61"/>
</g>
<!-- boot_loader -->
<g id="node5" class="node">
<title>boot_loader</title>
<ellipse fill="none" stroke="black" cx="166.88" cy="-242.87" rx="166.75" ry="26.74"/>
<text text-anchor="middle" x="166.88" y="-246.67" font-family="Times,serif" font-size="14.00">boot loader menu</text>
<text text-anchor="middle" x="166.88" y="-231.67" font-family="Times,serif" font-size="14.00">(eg： grub/isolinux/extlinux/...)</text>
</g>
<!-- uefi_boot&#45;&gt;boot_loader -->
<g id="edge4" class="edge">
<title>uefi_boot&#45;&gt;boot_loader</title>
<path fill="none" stroke="black" d="M111.72,-179.73C119.21,-188.16 128.55,-198.69 137.42,-208.68"/>
<polygon fill="black" stroke="black" points="134.8,-211.01 144.06,-216.16 140.04,-206.36 134.8,-211.01"/>
</g>
<!-- legacy_boot&#45;&gt;boot_loader -->
<g id="edge5" class="edge">
<title>legacy_boot&#45;&gt;boot_loader</title>
<path fill="none" stroke="black" d="M222.03,-179.73C214.55,-188.16 205.2,-198.69 196.34,-208.68"/>
<polygon fill="black" stroke="black" points="193.72,-206.36 189.69,-216.16 198.95,-211.01 193.72,-206.36"/>
</g>
<!-- config -->
<g id="node6" class="node">
<title>config</title>
<ellipse fill="none" stroke="black" cx="166.88" cy="-332.61" rx="103.48" ry="26.74"/>
<text text-anchor="middle" x="166.88" y="-336.41" font-family="Times,serif" font-size="14.00">config file</text>
<text text-anchor="middle" x="166.88" y="-321.41" font-family="Times,serif" font-size="14.00">(eg. extlinux.conf)</text>
</g>
<!-- boot_loader&#45;&gt;config -->
<g id="edge6" class="edge">
<title>boot_loader&#45;&gt;config</title>
<path fill="none" stroke="black" d="M166.88,-270.19C166.88,-278.16 166.88,-287.05 166.88,-295.54"/>
<polygon fill="black" stroke="black" points="163.38,-295.61 166.88,-305.61 170.38,-295.61 163.38,-295.61"/>
</g>
<!-- kernel -->
<g id="node7" class="node">
<title>kernel</title>
<ellipse fill="none" stroke="black" cx="166.88" cy="-422.35" rx="84.29" ry="26.74"/>
<text text-anchor="middle" x="166.88" y="-426.15" font-family="Times,serif" font-size="14.00">kernel</text>
<text text-anchor="middle" x="166.88" y="-411.15" font-family="Times,serif" font-size="14.00">(vmlinuz&#45;x.y.z)</text>
</g>
<!-- config&#45;&gt;kernel -->
<g id="edge7" class="edge">
<title>config&#45;&gt;kernel</title>
<path fill="none" stroke="black" d="M166.88,-359.94C166.88,-367.9 166.88,-376.79 166.88,-385.28"/>
<polygon fill="black" stroke="black" points="163.38,-385.35 166.88,-395.35 170.38,-385.35 163.38,-385.35"/>
</g>
<!-- initrd -->
<g id="node8" class="node">
<title>initrd</title>
<ellipse fill="none" stroke="black" cx="166.88" cy="-512.09" rx="94.51" ry="26.74"/>
<text text-anchor="middle" x="166.88" y="-515.89" font-family="Times,serif" font-size="14.00">initrd</text>
<text text-anchor="middle" x="166.88" y="-500.89" font-family="Times,serif" font-size="14.00">(initrd.img&#45;x.y.z)</text>
</g>
<!-- kernel&#45;&gt;initrd -->
<g id="edge8" class="edge">
<title>kernel&#45;&gt;initrd</title>
<path fill="none" stroke="black" d="M166.88,-449.68C166.88,-457.64 166.88,-466.53 166.88,-475.02"/>
<polygon fill="black" stroke="black" points="163.38,-475.09 166.88,-485.09 170.38,-475.09 163.38,-475.09"/>
</g>
<!-- rootfs -->
<g id="node9" class="node">
<title>rootfs</title>
<ellipse fill="none" stroke="black" cx="166.88" cy="-601.83" rx="152.06" ry="26.74"/>
<text text-anchor="middle" x="166.88" y="-605.63" font-family="Times,serif" font-size="14.00">root file system</text>
<text text-anchor="middle" x="166.88" y="-590.63" font-family="Times,serif" font-size="14.00">(*.squashfs or root=/dev/...)</text>
</g>
<!-- initrd&#45;&gt;rootfs -->
<g id="edge9" class="edge">
<title>initrd&#45;&gt;rootfs</title>
<path fill="none" stroke="black" d="M166.88,-539.42C166.88,-547.38 166.88,-556.27 166.88,-564.76"/>
<polygon fill="black" stroke="black" points="163.38,-564.83 166.88,-574.83 170.38,-564.83 163.38,-564.83"/>
</g>
</g>
</svg>
