<?xml version="1.0" encoding="UTF-8" standalone="no"?>
<!-- Created with Inkscape (http://www.inkscape.org/) -->

<svg
   xmlns:dc="http://purl.org/dc/elements/1.1/"
   xmlns:cc="http://creativecommons.org/ns#"
   xmlns:rdf="http://www.w3.org/1999/02/22-rdf-syntax-ns#"
   xmlns:svg="http://www.w3.org/2000/svg"
   xmlns="http://www.w3.org/2000/svg"
   xmlns:xlink="http://www.w3.org/1999/xlink"
   xmlns:sodipodi="http://sodipodi.sourceforge.net/DTD/sodipodi-0.dtd"
   xmlns:inkscape="http://www.inkscape.org/namespaces/inkscape"
   width="480"
   height="240"
   viewBox="0 0 479.99999 240.00001"
   id="svg2"
   version="1.1"
   inkscape:version="0.92.5 (2060ec1f9f, 2020-04-08)"
   sodipodi:docname="network.svg">
  <defs
     id="defs4">
    <linearGradient
       x1="271.01999"
       y1="-441.04999"
       x2="285.03"
       gradientUnits="userSpaceOnUse"
       y2="-431.97"
       id="linearGradient6712">
      <stop
         offset="0"
         stop-color="#fff"
         id="stop6472" />
      <stop
         offset="1"
         stop-opacity="0"
         stop-color="#fff"
         id="stop6474" />
    </linearGradient>
    <linearGradient
       x1="287.51999"
       y1="-439.75"
       x2="289.67999"
       gradientUnits="userSpaceOnUse"
       y2="-436.32001"
       id="linearGradient6714">
      <stop
         offset="0"
         stop-color="#fff"
         id="stop6499" />
      <stop
         offset="1"
         stop-opacity="0"
         stop-color="#fff"
         id="stop6501" />
    </linearGradient>
    <linearGradient
       x1="286.51001"
       y1="-441.29001"
       x2="289.85001"
       gradientUnits="userSpaceOnUse"
       y2="-436.14001"
       id="linearGradient6716">
      <stop
         offset="0"
         stop-color="#fff"
         id="stop6515" />
      <stop
         offset="1"
         stop-opacity="0"
         stop-color="#fff"
         id="stop6517" />
    </linearGradient>
    <linearGradient
       x1="285.94"
       y1="-439.94"
       x2="289.39001"
       gradientUnits="userSpaceOnUse"
       xlink:href="#linearGradient6538"
       y2="-436.44"
       id="linearGradient6718" />
    <linearGradient
       id="linearGradient6538">
      <stop
         offset="0"
         stop-color="#fff"
         id="stop6540" />
      <stop
         offset="1"
         stop-opacity="0"
         stop-color="#fff"
         id="stop6542" />
    </linearGradient>
    <linearGradient
       x1="275.94"
       y1="-437.10999"
       x2="279.98001"
       gradientUnits="userSpaceOnUse"
       y2="-431.92001"
       id="linearGradient6720">
      <stop
         offset="0"
         stop-color="#fff"
         id="stop6530" />
      <stop
         offset="1"
         stop-opacity="0"
         stop-color="#fff"
         id="stop6532" />
    </linearGradient>
    <linearGradient
       x1="286.67001"
       y1="-439.48001"
       x2="289.76999"
       gradientUnits="userSpaceOnUse"
       y2="-436.70999"
       id="linearGradient6722">
      <stop
         offset="0"
         stop-color="#fff"
         id="stop6551" />
      <stop
         offset="1"
         stop-opacity="0"
         stop-color="#fff"
         id="stop6553" />
    </linearGradient>
    <linearGradient
       x1="284.79999"
       y1="-441.23001"
       x2="288.89999"
       gradientUnits="userSpaceOnUse"
       xlink:href="#linearGradient6538"
       y2="-436.82999"
       id="linearGradient6724" />
  </defs>
  <sodipodi:namedview
     id="base"
     pagecolor="#ffffff"
     bordercolor="#666666"
     borderopacity="1.0"
     inkscape:pageopacity="0.0"
     inkscape:pageshadow="2"
     inkscape:zoom="3.4791667"
     inkscape:cx="256.99998"
     inkscape:cy="126.99999"
     inkscape:document-units="px"
     inkscape:current-layer="layer1"
     showgrid="false"
     fit-margin-top="27"
     fit-margin-left="37"
     fit-margin-right="37"
     fit-margin-bottom="27"
     units="px"
     inkscape:window-width="1920"
     inkscape:window-height="1023"
     inkscape:window-x="0"
     inkscape:window-y="0"
     inkscape:window-maximized="1" />
  <metadata
     id="metadata7">
    <rdf:RDF>
      <cc:Work
         rdf:about="">
        <dc:format>image/svg+xml</dc:format>
        <dc:type
           rdf:resource="http://purl.org/dc/dcmitype/StillImage" />
        <dc:title />
      </cc:Work>
    </rdf:RDF>
  </metadata>
  <g
     inkscape:label="Layer 1"
     inkscape:groupmode="layer"
     id="layer1"
     transform="translate(-97.353613,-239.95271)">
    <circle
       style="fill:none;fill-rule:evenodd;stroke:#000000;stroke-width:1px;stroke-linecap:butt;stroke-linejoin:miter;stroke-opacity:1"
       id="path3336"
       cx="228.11684"
       cy="359.18948"
       r="93.263237" />
    <path
       style="fill:none;fill-rule:evenodd;stroke:#000000;stroke-width:1px;stroke-linecap:butt;stroke-linejoin:miter;stroke-opacity:1"
       d="m 233.68034,356.10286 42.32843,-78.83378"
       id="path4138"
       inkscape:connector-curvature="0"
       sodipodi:nodetypes="cc" />
    <path
       style="fill:none;fill-rule:evenodd;stroke:#000000;stroke-width:1px;stroke-linecap:butt;stroke-linejoin:miter;stroke-opacity:1"
       d="m 321.33008,358.05021 85.75135,-0.12103"
       id="path4140"
       inkscape:connector-curvature="0"
       sodipodi:nodetypes="cc" />
    <g
       transform="translate(245.85825,-160.59916)"
       id="layer1-7">
      <g
         transform="matrix(5.1724,0,0,5.1724,-1230.4,2772.5)"
         id="g6668">
        <path
           stroke-miterlimit="2"
           d="m 280.5,-445.5 c -2.2708,0 -4.1099,1.5503 -4.7188,3.625 -0.69323,-0.36383 -1.4445,-0.625 -2.2812,-0.625 -2.76,0 -5,2.24 -5,5 0,0.57893 0.16252,1.1077 0.34375,1.625 -1.3735,0.77074 -2.3438,2.189 -2.3438,3.875 0,2.484 2.016,4.5 4.5,4.5 l 19,0 c 2.484,0 4.5,-2.016 4.5,-4.5 0,-1.686 -0.97028,-3.1043 -2.3438,-3.875 0.18124,-0.51729 0.34375,-1.0461 0.34375,-1.625 0,-2.76 -2.24,-5 -5,-5 -0.83674,0 -1.588,0.26117 -2.2812,0.625 -0.60884,-2.0747 -2.4479,-3.625 -4.7188,-3.625 z"
           id="path6670"
           inkscape:connector-curvature="0"
           style="fill:#c4c5c2;stroke:#888a85;stroke-miterlimit:2" />
        <path
           d="m 280.5,-445 c -2.1897,0 -3.7236,1.3358 -4.3956,3.8435 -0.66846,-0.34362 -1.5476,-0.83335 -2.3544,-0.83335 -2.7165,0 -4.7551,1.9388 -4.7551,4.5455 0,0.54677 0.26721,1.3334 0.44196,1.822 -1.3244,0.72795 -2.4368,1.8905 -2.4368,3.3726 0,2.346 1.5462,4.2501 4.3393,4.2501 l 18.321,0 c 2.771,0 4.3393,-1.904 4.3393,-4.2501 0,-1.5924 -1.1124,-2.6667 -2.4368,-3.3946 0.17476,-0.48856 0.46407,-1.2532 0.46407,-1.7999 0,-2.6067 -2.1158,-4.5676 -4.7772,-4.5676 -0.80687,0 -1.6418,0.48974 -2.3103,0.83336 -0.65,-2.42 -2.25,-3.82 -4.44,-3.82 z"
           id="path6672"
           inkscape:connector-curvature="0"
           style="fill:url(#linearGradient6712)" />
        <g
           id="g6674">
          <path
             transform="matrix(1.0566,0,0,1.0566,-24.198,21.863)"
             d="m 291.69,-437.59 c 0,1.8294 -1.4831,3.3125 -3.3125,3.3125 -1.8294,0 -3.3125,-1.4831 -3.3125,-3.3125 0,-1.8294 1.4831,-3.3125 3.3125,-3.3125 1.8294,0 3.3125,1.4831 3.3125,3.3125 z"
             id="path6676"
             inkscape:connector-curvature="0"
             style="fill:#c4c5c2" />
          <path
             transform="matrix(1.0566,0,0,1.0566,-24.198,21.863)"
             d="m 291.69,-437.59 c 0,1.8294 -1.4831,3.3125 -3.3125,3.3125 -1.8294,0 -3.3125,-1.4831 -3.3125,-3.3125 0,-1.8294 1.4831,-3.3125 3.3125,-3.3125 1.8294,0 3.3125,1.4831 3.3125,3.3125 z"
             id="path6678"
             inkscape:connector-curvature="0"
             style="fill:url(#linearGradient6714)" />
        </g>
        <rect
           x="271"
           y="-438"
           width="20"
           height="9"
           id="rect6680"
           style="fill:#c4c5c2" />
        <path
           transform="matrix(0.90566,0,0,0.90566,9.8302,-35.689)"
           d="m 291.69,-437.59 c 0,1.8294 -1.4831,3.3125 -3.3125,3.3125 -1.8294,0 -3.3125,-1.4831 -3.3125,-3.3125 0,-1.8294 1.4831,-3.3125 3.3125,-3.3125 1.8294,0 3.3125,1.4831 3.3125,3.3125 z"
           id="path6682"
           inkscape:connector-curvature="0"
           style="fill:#c4c5c2" />
        <g
           id="g6684">
          <path
             transform="matrix(1.0566,0,0,1.0566,-17.198,24.863)"
             d="m 291.69,-437.59 c 0,1.8294 -1.4831,3.3125 -3.3125,3.3125 -1.8294,0 -3.3125,-1.4831 -3.3125,-3.3125 0,-1.8294 1.4831,-3.3125 3.3125,-3.3125 1.8294,0 3.3125,1.4831 3.3125,3.3125 z"
             id="path6686"
             inkscape:connector-curvature="0"
             style="fill:#c4c5c2" />
          <path
             transform="matrix(1.0566,0,0,1.0566,-17.198,24.863)"
             d="m 291.69,-437.59 c 0,1.8294 -1.4831,3.3125 -3.3125,3.3125 -1.8294,0 -3.3125,-1.4831 -3.3125,-3.3125 0,-1.8294 1.4831,-3.3125 3.3125,-3.3125 1.8294,0 3.3125,1.4831 3.3125,3.3125 z"
             id="path6688"
             inkscape:connector-curvature="0"
             style="fill:url(#linearGradient6716)" />
        </g>
        <g
           id="g6690">
          <path
             transform="matrix(1.0566,0,0,1.0566,-31.198,24.863)"
             d="m 291.69,-437.59 c 0,1.8294 -1.4831,3.3125 -3.3125,3.3125 -1.8294,0 -3.3125,-1.4831 -3.3125,-3.3125 0,-1.8294 1.4831,-3.3125 3.3125,-3.3125 1.8294,0 3.3125,1.4831 3.3125,3.3125 z"
             id="path6692"
             inkscape:connector-curvature="0"
             style="fill:#c4c5c2" />
          <path
             transform="matrix(1.0566,0,0,1.0566,-31.198,24.863)"
             d="m 291.69,-437.59 c 0,1.8294 -1.4831,3.3125 -3.3125,3.3125 -1.8294,0 -3.3125,-1.4831 -3.3125,-3.3125 0,-1.8294 1.4831,-3.3125 3.3125,-3.3125 1.8294,0 3.3125,1.4831 3.3125,3.3125 z"
             id="path6694"
             inkscape:connector-curvature="0"
             style="fill:url(#linearGradient6718)" />
        </g>
        <g
           transform="translate(-1,0)"
           id="g6696">
          <path
             d="m 280.47,-440.97 c -3.5794,0 -6.4688,2.9206 -6.4688,6.5 0,2.3707 1.3494,4.3378 3.25,5.4688 l 6.4688,0 c 1.9006,-1.131 3.25,-3.1293 3.25,-5.5 0,-3.5794 -2.9206,-6.4688 -6.5,-6.4688 z"
             id="path6698"
             inkscape:connector-curvature="0"
             style="fill:#c4c5c2" />
          <path
             d="m 280.5,-441 c -3.588,0 -6.5,2.912 -6.5,6.5 0,2.3764 1.3448,4.3663 3.25,5.5 l 6.5,0 c 1.9052,-1.1337 3.25,-3.1236 3.25,-5.5 0,-3.588 -2.912,-6.5 -6.5,-6.5 z"
             id="path6700"
             inkscape:connector-curvature="0"
             style="fill:url(#linearGradient6720)" />
        </g>
        <path
           transform="matrix(0.90566,0,0,0.90566,9.8303,-35.689)"
           d="m 291.69,-437.59 c 0,1.8294 -1.4831,3.3125 -3.3125,3.3125 -1.8294,0 -3.3125,-1.4831 -3.3125,-3.3125 0,-1.8294 1.4831,-3.3125 3.3125,-3.3125 1.8294,0 3.3125,1.4831 3.3125,3.3125 z"
           id="path6702"
           inkscape:connector-curvature="0"
           style="fill:url(#linearGradient6722)" />
        <path
           d="m 292.96,-437.33 c -0.002,2.6846 -3.2693,3.714 -3.2693,3.714 0,0 2.3487,-1.626 2.3368,-3.705 l 0.93241,-0.009 z"
           id="path6704"
           inkscape:connector-curvature="0"
           style="fill:#888a85;fill-rule:evenodd" />
        <g
           transform="matrix(1.1429,0,0,1.1429,-28.571,67)"
           id="g6706">
          <path
             transform="matrix(1.0566,0,0,1.0566,-31.198,24.863)"
             d="m 291.69,-437.59 c 0,1.8294 -1.4831,3.3125 -3.3125,3.3125 -1.8294,0 -3.3125,-1.4831 -3.3125,-3.3125 0,-1.8294 1.4831,-3.3125 3.3125,-3.3125 1.8294,0 3.3125,1.4831 3.3125,3.3125 z"
             id="path6708"
             inkscape:connector-curvature="0"
             style="fill:#c4c5c2" />
          <path
             transform="matrix(1.0566,0,0,1.0566,-31.198,24.863)"
             d="m 291.69,-437.59 c 0,1.8294 -1.4831,3.3125 -3.3125,3.3125 -1.8294,0 -3.3125,-1.4831 -3.3125,-3.3125 0,-1.8294 1.4831,-3.3125 3.3125,-3.3125 1.8294,0 3.3125,1.4831 3.3125,3.3125 z"
             id="path6710"
             inkscape:connector-curvature="0"
             style="fill:url(#linearGradient6724)" />
        </g>
      </g>
    </g>
    <text
       xml:space="preserve"
       style="font-style:normal;font-weight:normal;line-height:0%;font-family:sans-serif;letter-spacing:0px;word-spacing:0px;fill:#000000;fill-opacity:1;stroke:none;stroke-width:1px;stroke-linecap:butt;stroke-linejoin:miter;stroke-opacity:1;font-size:32px;"
       x="409.60205"
       y="375.57358"
       id="text4323"><tspan
         sodipodi:role="line"
         id="tspan4325"
         x="409.60205"
         y="375.57358"
         style="font-size:32px;line-height:1.25;">Internet</tspan></text>
    <circle
       style="fill:none;stroke:#000000;stroke-opacity:1"
       id="path4327"
       cx="230.62985"
       cy="361.37973"
       r="5.6714129" />
    <text
       xml:space="preserve"
       style="font-style:normal;font-variant:normal;font-weight:normal;font-stretch:normal;font-size:21.33333397px;line-height:0%;font-family:sans-serif;-inkscape-font-specification:sans-serif;letter-spacing:0px;word-spacing:0px;fill:#ff0000;fill-opacity:1;stroke:none;stroke-width:1px;stroke-linecap:butt;stroke-linejoin:miter;stroke-opacity:1"
       x="203.61865"
       y="375.22079"
       id="text4331"><tspan
         sodipodi:role="line"
         id="tspan4333"
         x="203.61865"
         y="375.22079"
         style="font-style:normal;font-variant:normal;font-weight:normal;font-stretch:normal;font-size:21.33333397px;line-height:1.25;font-family:sans-serif;-inkscape-font-specification:sans-serif">IP</tspan></text>
    <text
       xml:space="preserve"
       style="font-style:normal;font-variant:normal;font-weight:normal;font-stretch:normal;font-size:21.33333397px;line-height:0%;font-family:sans-serif;-inkscape-font-specification:sans-serif;letter-spacing:0px;word-spacing:0px;fill:#ff0000;fill-opacity:1;stroke:none;stroke-width:1px;stroke-linecap:butt;stroke-linejoin:miter;stroke-opacity:1;"
       x="-175.53722"
       y="373.00723"
       id="text4335"
       transform="rotate(-60)"><tspan
         sodipodi:role="line"
         id="tspan4337"
         x="-175.53722"
         y="373.00723"
         style="font-size:21.33333397px;line-height:1.25;-inkscape-font-specification:sans-serif;font-family:sans-serif;font-weight:normal;font-style:normal;font-stretch:normal;font-variant:normal;">mask</tspan><tspan
         sodipodi:role="line"
         x="-175.53722"
         y="399.67389"
         style="font-size:21.33333397px;line-height:1.25;-inkscape-font-specification:sans-serif;font-family:sans-serif;font-weight:normal;font-style:normal;font-stretch:normal;font-variant:normal;"
         id="tspan919">(遮罩)</tspan></text>
    <text
       xml:space="preserve"
       style="font-style:normal;font-weight:normal;font-size:21.33333397px;line-height:0%;font-family:sans-serif;letter-spacing:0px;word-spacing:0px;fill:#000000;fill-opacity:1;stroke:none;stroke-width:1px;stroke-linecap:butt;stroke-linejoin:miter;stroke-opacity:1;-inkscape-font-specification:sans-serif;font-stretch:normal;font-variant:normal;"
       x="280.72778"
       y="346.64743"
       id="text4339"><tspan
         sodipodi:role="line"
         id="tspan4341"
         x="280.72778"
         y="346.64743"
         style="font-style:normal;font-variant:normal;font-weight:normal;font-stretch:normal;font-size:21.33333397px;line-height:1.25;font-family:sans-serif;-inkscape-font-specification:sans-serif;fill:#ff0000;">gateway</tspan><tspan
         sodipodi:role="line"
         x="280.72778"
         y="373.31409"
         style="font-style:normal;font-variant:normal;font-weight:normal;font-stretch:normal;font-size:21.33333397px;line-height:1.25;font-family:sans-serif;-inkscape-font-specification:sans-serif;fill:#ff0000;"
         id="tspan921">(閘道器)</tspan></text>
    <text
       xml:space="preserve"
       style="font-style:normal;font-weight:normal;font-size:16px;line-height:1.25;font-family:sans-serif;letter-spacing:0px;word-spacing:0px;fill:#000000;fill-opacity:1;stroke:none"
       x="219.79672"
       y="384.52756"
       id="text904"><tspan
         sodipodi:role="line"
         id="tspan902"
         x="219.79672"
         y="384.52756">我</tspan></text>
    <use
       x="0"
       y="0"
       xlink:href="#path4327"
       id="use906"
       transform="translate(91.113772,-3.7365269)"
       width="100%"
       height="100%" />
    <g
       id="g913"
       transform="translate(3.4491018,8.9101796)">
      <text
         id="text900"
         y="327.61737"
         x="162.88654"
         style="font-style:normal;font-weight:normal;font-size:16px;line-height:1.25;font-family:sans-serif;letter-spacing:0px;word-spacing:0px;fill:#000000;fill-opacity:1;stroke:none"
         xml:space="preserve"><tspan
           y="327.61737"
           x="162.88654"
           id="tspan898"
           sodipodi:role="line">鄰居</tspan></text>
      <use
         height="100%"
         width="100%"
         transform="translate(-51.736526,-55.473053)"
         id="use908"
         xlink:href="#path4327"
         y="0"
         x="0" />
    </g>
    <use
       x="0"
       y="0"
       xlink:href="#g913"
       id="use915"
       transform="translate(20.982036,98.586825)"
       width="100%"
       height="100%" />
    <text
       xml:space="preserve"
       style="font-style:normal;font-weight:normal;font-size:16px;line-height:1.25;font-family:sans-serif;letter-spacing:0px;word-spacing:0px;fill:#000000;fill-opacity:1;stroke:none"
       x="245.09013"
       y="429.36591"
       id="text925"><tspan
         sodipodi:role="line"
         id="tspan923"
         x="245.09013"
         y="429.36591">LAN(區域網路)</tspan></text>
    <use
       x="0"
       y="0"
       xlink:href="#path4327"
       id="use927"
       transform="translate(198.8982,-66.395209)"
       width="100%"
       height="100%" />
    <text
       xml:space="preserve"
       style="font-style:normal;font-weight:normal;font-size:16px;line-height:1.25;font-family:sans-serif;letter-spacing:0px;word-spacing:0px;fill:#000000;fill-opacity:1;stroke:none"
       x="407.48532"
       y="316.98267"
       id="text931"><tspan
         sodipodi:role="line"
         id="tspan929"
         x="407.48532"
         y="316.98267">1.1.1.1</tspan></text>
    <use
       x="0"
       y="0"
       xlink:href="#path4327"
       id="use933"
       transform="translate(272.19162,-66.107784)"
       width="100%"
       height="100%" />
    <text
       xml:space="preserve"
       style="font-style:normal;font-weight:normal;font-size:16px;line-height:1.25;font-family:sans-serif;letter-spacing:0px;word-spacing:0px;fill:#000000;fill-opacity:1;stroke:none"
       x="480.20392"
       y="317.27008"
       id="text937"><tspan
         sodipodi:role="line"
         id="tspan935"
         x="480.20392"
         y="317.27008">8.8.8.8</tspan></text>
    <text
       xml:space="preserve"
       style="font-style:normal;font-variant:normal;font-weight:normal;font-stretch:normal;font-size:21.33333397px;line-height:0%;font-family:sans-serif;-inkscape-font-specification:sans-serif;text-align:center;letter-spacing:0px;word-spacing:0px;text-anchor:middle;fill:#000000;fill-opacity:1;stroke:none;stroke-width:1px;stroke-linecap:butt;stroke-linejoin:miter;stroke-opacity:1"
       x="467.11075"
       y="275.63068"
       id="text4339-7"><tspan
         sodipodi:role="line"
         x="467.11075"
         y="275.63068"
         style="font-style:normal;font-variant:normal;font-weight:normal;font-stretch:normal;font-size:21.33333397px;line-height:1.25;font-family:sans-serif;-inkscape-font-specification:sans-serif;text-align:center;text-anchor:middle;fill:#ff0000"
         id="tspan921-3">網域名稱伺服器</tspan><tspan
         sodipodi:role="line"
         x="467.11075"
         y="302.29733"
         style="font-style:normal;font-variant:normal;font-weight:normal;font-stretch:normal;font-size:21.33333397px;line-height:1.25;font-family:sans-serif;-inkscape-font-specification:sans-serif;text-align:center;text-anchor:middle;fill:#ff0000"
         id="tspan987">(DNS)</tspan><tspan
         sodipodi:role="line"
         x="467.11075"
         y="315.63068"
         style="font-style:normal;font-variant:normal;font-weight:normal;font-stretch:normal;font-size:21.33333397px;line-height:1.25;font-family:sans-serif;-inkscape-font-specification:sans-serif;text-align:center;text-anchor:middle;fill:#ff0000"
         id="tspan985" /></text>
  </g>
</svg>
