<?xml version="1.0" encoding="UTF-8" standalone="no"?>
<!DOCTYPE svg PUBLIC "-//W3C//DTD SVG 1.1//EN"
 "http://www.w3.org/Graphics/SVG/1.1/DTD/svg11.dtd">
<!-- Generated by graphviz version 2.40.1 (20161225.0304)
 -->
<!-- Title: G Pages: 1 -->
<svg width="297pt" height="300pt"
 viewBox="0.00 0.00 296.50 300.00" xmlns="http://www.w3.org/2000/svg" xmlns:xlink="http://www.w3.org/1999/xlink">
<g id="graph0" class="graph" transform="scale(1 1) rotate(0) translate(4 296)">
<title>G</title>
<polygon fill="#ffffff" stroke="transparent" points="-4,4 -4,-296 292.5,-296 292.5,4 -4,4"/>
<g id="clust1" class="cluster">
<title>cluster</title>
<path fill="none" stroke="#000000" d="M20,-8C20,-8 268.5,-8 268.5,-8 274.5,-8 280.5,-14 280.5,-20 280.5,-20 280.5,-272 280.5,-272 280.5,-278 274.5,-284 268.5,-284 268.5,-284 20,-284 20,-284 14,-284 8,-278 8,-272 8,-272 8,-20 8,-20 8,-14 14,-8 20,-8"/>
<text text-anchor="middle" x="144.25" y="-268.8" font-family="Times,serif" font-size="14.00" fill="#000000">/</text>
</g>
<g id="clust2" class="cluster">
<title>cluster/isolinux</title>
<path fill="none" stroke="#000000" d="M28,-16C28,-16 102,-16 102,-16 108,-16 114,-22 114,-28 114,-28 114,-241 114,-241 114,-247 108,-253 102,-253 102,-253 28,-253 28,-253 22,-253 16,-247 16,-241 16,-241 16,-28 16,-28 16,-22 22,-16 28,-16"/>
<text text-anchor="middle" x="65" y="-237.8" font-family="Times,serif" font-size="14.00" fill="#000000">isolinux</text>
</g>
<g id="clust3" class="cluster">
<title>cluster/live</title>
<path fill="none" stroke="#000000" d="M150.5,-80C150.5,-80 260.5,-80 260.5,-80 266.5,-80 272.5,-86 272.5,-92 272.5,-92 272.5,-197 272.5,-197 272.5,-203 266.5,-209 260.5,-209 260.5,-209 150.5,-209 150.5,-209 144.5,-209 138.5,-203 138.5,-197 138.5,-197 138.5,-92 138.5,-92 138.5,-86 144.5,-80 150.5,-80"/>
<text text-anchor="middle" x="205.5" y="-193.8" font-family="Times,serif" font-size="14.00" fill="#000000">live</text>
</g>
<!-- /initrd.img&#45;*&#45;generic -->
<g id="node1" class="node">
<title>/initrd.img&#45;*&#45;generic</title>
<polygon fill="none" stroke="#0000ff" points="263,-70 142,-70 142,-34 269,-34 269,-64 263,-70"/>
<polyline fill="none" stroke="#0000ff" points="263,-70 263,-64 "/>
<polyline fill="none" stroke="#0000ff" points="269,-64 263,-64 "/>
<text text-anchor="middle" x="205.5" y="-48.3" font-family="Times,serif" font-size="14.00" fill="#0000ff">initrd.img&#45;*&#45;generic</text>
</g>
<!-- /isolinux/cyut&#45;bv.jpg -->
<g id="node2" class="node">
<title>/isolinux/cyut&#45;bv.jpg</title>
<polygon fill="none" stroke="#0000ff" points="98.5,-222 25.5,-222 25.5,-186 104.5,-186 104.5,-216 98.5,-222"/>
<polyline fill="none" stroke="#0000ff" points="98.5,-222 98.5,-216 "/>
<polyline fill="none" stroke="#0000ff" points="104.5,-216 98.5,-216 "/>
<text text-anchor="middle" x="65" y="-200.3" font-family="Times,serif" font-size="14.00" fill="#0000ff">cyut&#45;bv.jpg</text>
</g>
<!-- /isolinux/autumn.jpg -->
<g id="node3" class="node">
<title>/isolinux/autumn.jpg</title>
<polygon fill="none" stroke="#0000ff" points="98.5,-168 25.5,-168 25.5,-132 104.5,-132 104.5,-162 98.5,-168"/>
<polyline fill="none" stroke="#0000ff" points="98.5,-168 98.5,-162 "/>
<polyline fill="none" stroke="#0000ff" points="104.5,-162 98.5,-162 "/>
<text text-anchor="middle" x="65" y="-146.3" font-family="Times,serif" font-size="14.00" fill="#0000ff">autumn.jpg</text>
</g>
<!-- /isolinux/autumn.jpg&#45;&gt;/initrd.img&#45;*&#45;generic -->
<!-- /live/root.squashfs -->
<g id="node7" class="node">
<title>/live/root.squashfs</title>
<polygon fill="none" stroke="#0000ff" points="244,-124 161,-124 161,-88 250,-88 250,-118 244,-124"/>
<polyline fill="none" stroke="#0000ff" points="244,-124 244,-118 "/>
<polyline fill="none" stroke="#0000ff" points="250,-118 244,-118 "/>
<text text-anchor="middle" x="205.5" y="-102.3" font-family="Times,serif" font-size="14.00" fill="#0000ff">root.squashfs</text>
</g>
<!-- /isolinux/autumn.jpg&#45;&gt;/live/root.squashfs -->
<!-- /vmlinuz&#45;*&#45;generic -->
<g id="node8" class="node">
<title>/vmlinuz&#45;*&#45;generic</title>
<polygon fill="none" stroke="#0000ff" points="258,-253 147,-253 147,-217 264,-217 264,-247 258,-253"/>
<polyline fill="none" stroke="#0000ff" points="258,-253 258,-247 "/>
<polyline fill="none" stroke="#0000ff" points="264,-247 258,-247 "/>
<text text-anchor="middle" x="205.5" y="-231.3" font-family="Times,serif" font-size="14.00" fill="#0000ff">vmlinuz&#45;*&#45;generic</text>
</g>
<!-- /isolinux/autumn.jpg&#45;&gt;/vmlinuz&#45;*&#45;generic -->
<!-- /isolinux/boot.cat -->
<g id="node4" class="node">
<title>/isolinux/boot.cat</title>
<polygon fill="none" stroke="#0000ff" points="89,-114 35,-114 35,-78 95,-78 95,-108 89,-114"/>
<polyline fill="none" stroke="#0000ff" points="89,-114 89,-108 "/>
<polyline fill="none" stroke="#0000ff" points="95,-108 89,-108 "/>
<text text-anchor="middle" x="65" y="-92.3" font-family="Times,serif" font-size="14.00" fill="#0000ff">boot.cat</text>
</g>
<!-- /isolinux/[more&#45;files] -->
<g id="node5" class="node">
<title>/isolinux/[more&#45;files]</title>
<polygon fill="none" stroke="#0000ff" points="100,-60 24,-60 24,-24 106,-24 106,-54 100,-60"/>
<polyline fill="none" stroke="#0000ff" points="100,-60 100,-54 "/>
<polyline fill="none" stroke="#0000ff" points="106,-54 100,-54 "/>
<text text-anchor="middle" x="65" y="-38.3" font-family="Times,serif" font-size="14.00" fill="#0000ff">[more&#45;files]</text>
</g>
<!-- /live/filesystem.module -->
<g id="node6" class="node">
<title>/live/filesystem.module</title>
<polygon fill="none" stroke="#0000ff" points="258.5,-178 146.5,-178 146.5,-142 264.5,-142 264.5,-172 258.5,-178"/>
<polyline fill="none" stroke="#0000ff" points="258.5,-178 258.5,-172 "/>
<polyline fill="none" stroke="#0000ff" points="264.5,-172 258.5,-172 "/>
<text text-anchor="middle" x="205.5" y="-156.3" font-family="Times,serif" font-size="14.00" fill="#0000ff">filesystem.module</text>
</g>
</g>
</svg>
