<?xml version="1.0" encoding="UTF-8" standalone="no"?>
<!DOCTYPE svg PUBLIC "-//W3C//DTD SVG 1.1//EN"
 "http://www.w3.org/Graphics/SVG/1.1/DTD/svg11.dtd">
<!-- Generated by graphviz version 2.40.1 (20161225.0304)
 -->
<!-- Title: G Pages: 1 -->
<svg width="183pt" height="368pt"
 viewBox="0.00 0.00 183.00 368.00" xmlns="http://www.w3.org/2000/svg" xmlns:xlink="http://www.w3.org/1999/xlink">
<g id="graph0" class="graph" transform="scale(1 1) rotate(0) translate(4 364)">
<title>G</title>
<polygon fill="#ffffff" stroke="transparent" points="-4,4 -4,-364 179,-364 179,4 -4,4"/>
<g id="clust1" class="cluster">
<title>cluster</title>
<path fill="none" stroke="#000000" d="M20,-8C20,-8 155,-8 155,-8 161,-8 167,-14 167,-20 167,-20 167,-340 167,-340 167,-346 161,-352 155,-352 155,-352 20,-352 20,-352 14,-352 8,-346 8,-340 8,-340 8,-20 8,-20 8,-14 14,-8 20,-8"/>
<text text-anchor="middle" x="87.5" y="-336.8" font-family="Times,serif" font-size="14.00" fill="#000000">/</text>
</g>
<g id="clust2" class="cluster">
<title>cluster/boot</title>
<path fill="none" stroke="#000000" d="M39,-207C39,-207 136,-207 136,-207 142,-207 148,-213 148,-219 148,-219 148,-309 148,-309 148,-315 142,-321 136,-321 136,-321 39,-321 39,-321 33,-321 27,-315 27,-309 27,-309 27,-219 27,-219 27,-213 33,-207 39,-207"/>
<text text-anchor="middle" x="87.5" y="-305.8" font-family="Times,serif" font-size="14.00" fill="#000000">boot</text>
</g>
<g id="clust3" class="cluster">
<title>cluster/boot/syslinux</title>
<path fill="none" stroke="#000000" d="M47,-215C47,-215 128,-215 128,-215 134,-215 140,-221 140,-227 140,-227 140,-278 140,-278 140,-284 134,-290 128,-290 128,-290 47,-290 47,-290 41,-290 35,-284 35,-278 35,-278 35,-227 35,-227 35,-221 41,-215 47,-215"/>
<text text-anchor="middle" x="87.5" y="-274.8" font-family="Times,serif" font-size="14.00" fill="#000000">syslinux</text>
</g>
<g id="clust4" class="cluster">
<title>cluster/bionic&#45;g19A</title>
<path fill="none" stroke="#000000" d="M28,-16C28,-16 147,-16 147,-16 153,-16 159,-22 159,-28 159,-28 159,-187 159,-187 159,-193 153,-199 147,-199 147,-199 28,-199 28,-199 22,-199 16,-193 16,-187 16,-187 16,-28 16,-28 16,-22 22,-16 28,-16"/>
<text text-anchor="middle" x="87.5" y="-183.8" font-family="Times,serif" font-size="14.00" fill="#000000">bionic&#45;g19A</text>
</g>
<!-- /boot/syslinux/extlinux.conf -->
<g id="node1" class="node">
<title>/boot/syslinux/extlinux.conf</title>
<polygon fill="none" stroke="#0000ff" points="126,-259 43,-259 43,-223 132,-223 132,-253 126,-259"/>
<polyline fill="none" stroke="#0000ff" points="126,-259 126,-253 "/>
<polyline fill="none" stroke="#0000ff" points="132,-253 126,-253 "/>
<text text-anchor="middle" x="87.5" y="-237.3" font-family="Times,serif" font-size="14.00" fill="#0000ff">extlinux.conf</text>
</g>
<!-- /bionic&#45;g19A/vmlinuz&#45;*&#45;generic -->
<g id="node2" class="node">
<title>/bionic&#45;g19A/vmlinuz&#45;*&#45;generic</title>
<polygon fill="none" stroke="#0000ff" points="140,-168 29,-168 29,-132 146,-132 146,-162 140,-168"/>
<polyline fill="none" stroke="#0000ff" points="140,-168 140,-162 "/>
<polyline fill="none" stroke="#0000ff" points="146,-162 140,-162 "/>
<text text-anchor="middle" x="87.5" y="-146.3" font-family="Times,serif" font-size="14.00" fill="#0000ff">vmlinuz&#45;*&#45;generic</text>
</g>
<!-- /bionic&#45;g19A/initrd.img&#45;*&#45;generic -->
<g id="node3" class="node">
<title>/bionic&#45;g19A/initrd.img&#45;*&#45;generic</title>
<polygon fill="none" stroke="#0000ff" points="145,-114 24,-114 24,-78 151,-78 151,-108 145,-114"/>
<polyline fill="none" stroke="#0000ff" points="145,-114 145,-108 "/>
<polyline fill="none" stroke="#0000ff" points="151,-108 145,-108 "/>
<text text-anchor="middle" x="87.5" y="-92.3" font-family="Times,serif" font-size="14.00" fill="#0000ff">initrd.img&#45;*&#45;generic</text>
</g>
<!-- /bionic&#45;g19A/root.squashfs -->
<g id="node4" class="node">
<title>/bionic&#45;g19A/root.squashfs</title>
<polygon fill="none" stroke="#0000ff" points="126,-60 43,-60 43,-24 132,-24 132,-54 126,-60"/>
<polyline fill="none" stroke="#0000ff" points="126,-60 126,-54 "/>
<polyline fill="none" stroke="#0000ff" points="132,-54 126,-54 "/>
<text text-anchor="middle" x="87.5" y="-38.3" font-family="Times,serif" font-size="14.00" fill="#0000ff">root.squashfs</text>
</g>
</g>
</svg>
