<?xml version="1.0" encoding="UTF-8" standalone="no"?>
<!-- Generated by graphviz version 2.40.1 (20161225.0304)
 -->

<!-- Title: G Pages: 1 -->

<svg
   xmlns:dc="http://purl.org/dc/elements/1.1/"
   xmlns:cc="http://creativecommons.org/ns#"
   xmlns:rdf="http://www.w3.org/1999/02/22-rdf-syntax-ns#"
   xmlns:svg="http://www.w3.org/2000/svg"
   xmlns="http://www.w3.org/2000/svg"
   xmlns:sodipodi="http://sodipodi.sourceforge.net/DTD/sodipodi-0.dtd"
   xmlns:inkscape="http://www.inkscape.org/namespaces/inkscape"
   width="684.078pt"
   height="455.86719pt"
   viewBox="0 0 682.92636 455.86719"
   version="1.1"
   id="svg116"
   sodipodi:docname="linux-boot-files.svg"
   inkscape:version="0.92.3 (2405546, 2018-03-11)">
  <metadata
     id="metadata122">
    <rdf:RDF>
      <cc:Work
         rdf:about="">
        <dc:format>image/svg+xml</dc:format>
        <dc:type
           rdf:resource="http://purl.org/dc/dcmitype/StillImage" />
        <dc:title />
      </cc:Work>
    </rdf:RDF>
  </metadata>
  <defs
     id="defs120">
    <marker
       inkscape:stockid="Arrow1Mend"
       orient="auto"
       refY="0"
       refX="0"
       id="marker1445"
       style="overflow:visible"
       inkscape:isstock="true">
      <path
         id="path1443"
         d="M 0,0 5,-5 -12.5,0 5,5 Z"
         style="fill:#000000;fill-opacity:1;fill-rule:evenodd;stroke:#000000;stroke-width:1.00000003pt;stroke-opacity:1"
         transform="matrix(-0.4,0,0,-0.4,-4,0)"
         inkscape:connector-curvature="0" />
    </marker>
    <marker
       inkscape:isstock="true"
       style="overflow:visible"
       id="marker1395"
       refX="0"
       refY="0"
       orient="auto"
       inkscape:stockid="Arrow1Mend"
       inkscape:collect="always">
      <path
         inkscape:connector-curvature="0"
         transform="matrix(-0.4,0,0,-0.4,-4,0)"
         style="fill:#000000;fill-opacity:1;fill-rule:evenodd;stroke:#000000;stroke-width:1.00000003pt;stroke-opacity:1"
         d="M 0,0 5,-5 -12.5,0 5,5 Z"
         id="path1393" />
    </marker>
    <marker
       inkscape:stockid="Arrow1Mend"
       orient="auto"
       refY="0"
       refX="0"
       id="Arrow1Mend"
       style="overflow:visible"
       inkscape:isstock="true"
       inkscape:collect="always">
      <path
         id="path1249"
         d="M 0,0 5,-5 -12.5,0 5,5 Z"
         style="fill:#000000;fill-opacity:1;fill-rule:evenodd;stroke:#000000;stroke-width:1.00000003pt;stroke-opacity:1"
         transform="matrix(-0.4,0,0,-0.4,-4,0)"
         inkscape:connector-curvature="0" />
    </marker>
    <marker
       inkscape:stockid="Arrow1Lend"
       orient="auto"
       refY="0"
       refX="0"
       id="Arrow1Lend"
       style="overflow:visible"
       inkscape:isstock="true">
      <path
         id="path1243"
         d="M 0,0 5,-5 -12.5,0 5,5 Z"
         style="fill:#000000;fill-opacity:1;fill-rule:evenodd;stroke:#000000;stroke-width:1.00000003pt;stroke-opacity:1"
         transform="matrix(-0.8,0,0,-0.8,-10,0)"
         inkscape:connector-curvature="0" />
    </marker>
    <marker
       inkscape:stockid="Arrow1Lend"
       orient="auto"
       refY="0"
       refX="0"
       id="Arrow1Lend-2"
       style="overflow:visible"
       inkscape:isstock="true">
      <path
         id="path1243-7"
         d="M 0,0 5,-5 -12.5,0 5,5 Z"
         style="fill:#000000;fill-opacity:1;fill-rule:evenodd;stroke:#000000;stroke-width:1.00000003pt;stroke-opacity:1"
         transform="matrix(-0.8,0,0,-0.8,-10,0)"
         inkscape:connector-curvature="0" />
    </marker>
    <marker
       inkscape:stockid="Arrow1Lend"
       orient="auto"
       refY="0"
       refX="0"
       id="Arrow1Lend-9"
       style="overflow:visible"
       inkscape:isstock="true">
      <path
         id="path1243-3"
         d="M 0,0 5,-5 -12.5,0 5,5 Z"
         style="fill:#000000;fill-opacity:1;fill-rule:evenodd;stroke:#000000;stroke-width:1.00000003pt;stroke-opacity:1"
         transform="matrix(-0.8,0,0,-0.8,-10,0)"
         inkscape:connector-curvature="0" />
    </marker>
  </defs>
  <sodipodi:namedview
     pagecolor="#ffffff"
     bordercolor="#666666"
     borderopacity="1"
     objecttolerance="10"
     gridtolerance="10"
     guidetolerance="10"
     inkscape:pageopacity="0"
     inkscape:pageshadow="2"
     inkscape:window-width="1920"
     inkscape:window-height="1056"
     id="namedview118"
     showgrid="false"
     inkscape:zoom="1"
     inkscape:cx="424.86537"
     inkscape:cy="265.73189"
     inkscape:window-x="0"
     inkscape:window-y="0"
     inkscape:window-maximized="1"
     inkscape:current-layer="svg116"
     fit-margin-top="20"
     fit-margin-left="20"
     fit-margin-right="20"
     fit-margin-bottom="20"
     inkscape:snap-nodes="false"
     inkscape:snap-others="false" />
  <g
     id="graph0"
     class="graph"
     transform="translate(23.424186,431.86719)">
    <title
       id="title2">G</title>
    <polygon
       stroke="transparent"
       points="-4,4 -4,-296 292.5,-296 292.5,4 "
       id="polygon4"
       style="fill:#ffffff" />
    <g
       id="clust1"
       class="cluster">
      <title
         id="title6">cluster</title>
      <path
         d="m 20,-8 c 0,0 248.5,0 248.5,0 6,0 12,-6 12,-12 0,0 0,-252 0,-252 0,-6 -6,-12 -12,-12 0,0 -248.5,0 -248.5,0 -6,0 -12,6 -12,12 0,0 0,252 0,252 0,6 6,12 12,12"
         id="path8"
         inkscape:connector-curvature="0"
         style="fill:none;stroke:#000000" />
      <text
         x="144.25"
         y="-268.79999"
         font-size="14.00"
         id="text10"
         style="font-size:12px;font-family:Times, serif;text-anchor:middle;fill:#000000">/ of bionic-g*.iso</text>
    </g>
    <g
       id="clust2"
       class="cluster">
      <title
         id="title13">cluster/isolinux</title>
      <path
         d="m 28,-16 c 0,0 74,0 74,0 6,0 12,-6 12,-12 0,0 0,-213 0,-213 0,-6 -6,-12 -12,-12 0,0 -74,0 -74,0 -6,0 -12,6 -12,12 0,0 0,213 0,213 0,6 6,12 12,12"
         id="path15"
         inkscape:connector-curvature="0"
         style="fill:none;stroke:#000000" />
      <text
         x="65"
         y="-237.8"
         font-size="14.00"
         id="text17"
         style="font-size:12px;font-family:Times, serif;text-anchor:middle;fill:#000000">isolinux</text>
    </g>
    <g
       id="clust3"
       class="cluster"
       transform="translate(-3,59.25)">
      <title
         id="title20">cluster/live</title>
      <path
         d="m 150.5,-80 c 0,0 110,0 110,0 6,0 12,-6 12,-12 0,0 0,-105 0,-105 0,-6 -6,-12 -12,-12 0,0 -110,0 -110,0 -6,0 -12,6 -12,12 0,0 0,105 0,105 0,6 6,12 12,12"
         id="path22"
         inkscape:connector-curvature="0"
         style="fill:none;stroke:#000000" />
      <text
         x="205.5"
         y="-193.8"
         font-size="14.00"
         id="text24"
         style="font-size:12px;font-family:Times, serif;text-anchor:middle;fill:#000000">live</text>
    </g>
    <!-- /initrd.img&#45;*&#45;generic -->
    <g
       id="node1"
       class="node"
       transform="translate(0,-129.75)">
      <title
         id="title27">/initrd.img-*-generic</title>
      <polygon
         points="269,-64 263,-70 142,-70 142,-34 269,-34 "
         id="polygon29"
         style="fill:none;stroke:#000000" />
      <polyline
         points="263,-70 263,-64 "
         id="polyline31"
         style="fill:none;stroke:#000000" />
      <polyline
         points="269,-64 263,-64 "
         id="polyline33"
         style="fill:none;stroke:#000000" />
      <text
         x="205.5"
         y="-48.299999"
         font-size="14.00"
         id="text35"
         style="font-size:12px;font-family:Times, serif;text-anchor:middle;fill:#ff0000">initrd.img-*-generic</text>
    </g>
    <!-- /isolinux/cyut&#45;bv.jpg -->
    <g
       id="node2"
       class="node">
      <title
         id="title38">/isolinux/cyut-bv.jpg</title>
      <polygon
         points="104.5,-186 104.5,-216 98.5,-222 25.5,-222 25.5,-186 "
         id="polygon40"
         style="fill:none;stroke:#000000" />
      <polyline
         points="98.5,-222 98.5,-216 "
         id="polyline42"
         style="fill:none;stroke:#000000" />
      <polyline
         points="104.5,-216 98.5,-216 "
         id="polyline44"
         style="fill:none;stroke:#000000" />
      <text
         x="65"
         y="-200.3"
         font-size="14.00"
         id="text46"
         style="font-size:12px;font-family:Times, serif;text-anchor:middle;fill:#000000">
        <tspan
           style="font-size:12px"
           id="tspan1722">cyut-bv.jpg</tspan>
      </text>
    </g>
    <!-- /isolinux/autumn.jpg -->
    <g
       id="node3"
       class="node">
      <title
         id="title49">/isolinux/autumn.jpg</title>
      <polygon
         points="104.5,-132 104.5,-162 98.5,-168 25.5,-168 25.5,-132 "
         id="polygon51"
         style="fill:none;stroke:#000000" />
      <polyline
         points="98.5,-168 98.5,-162 "
         id="polyline53"
         style="fill:none;stroke:#000000" />
      <polyline
         points="104.5,-162 98.5,-162 "
         id="polyline55"
         style="fill:none;stroke:#000000" />
      <text
         x="65"
         y="-146.3"
         font-size="14.00"
         id="text57"
         style="font-size:12px;font-family:Times, serif;text-anchor:middle;fill:#000000">autumn.jpg</text>
    </g>
    <!-- /isolinux/autumn.jpg&#45;&gt;/initrd.img&#45;*&#45;generic -->
    <!-- /live/root.squashfs -->
    <g
       id="node7"
       class="node"
       transform="translate(-3,59.25)">
      <title
         id="title60">/live/root.squashfs</title>
      <polygon
         points="244,-124 161,-124 161,-88 250,-88 250,-118 "
         id="polygon62"
         style="fill:none;stroke:#000000" />
      <polyline
         points="244,-124 244,-118 "
         id="polyline64"
         style="fill:none;stroke:#000000" />
      <polyline
         points="250,-118 244,-118 "
         id="polyline66"
         style="fill:none;stroke:#000000" />
      <text
         x="205.5"
         y="-102.3"
         font-size="14.00"
         id="text68"
         style="font-size:12px;font-family:Times, serif;text-anchor:middle;fill:#ff0000">root.squashfs</text>
    </g>
    <!-- /isolinux/autumn.jpg&#45;&gt;/live/root.squashfs -->
    <!-- /vmlinuz&#45;*&#45;generic -->
    <g
       id="node8"
       class="node">
      <title
         id="title71">/vmlinuz-*-generic</title>
      <polygon
         points="264,-217 264,-247 258,-253 147,-253 147,-217 "
         id="polygon73"
         style="fill:none;stroke:#000000" />
      <polyline
         points="258,-253 258,-247 "
         id="polyline75"
         style="fill:none;stroke:#000000" />
      <polyline
         points="264,-247 258,-247 "
         id="polyline77"
         style="fill:none;stroke:#000000" />
      <text
         x="205.5"
         y="-231.3"
         font-size="14.00"
         id="text79"
         style="font-size:12px;font-family:Times, serif;text-anchor:middle;fill:#ff0000">vmlinuz-*-generic</text>
    </g>
    <!-- /isolinux/autumn.jpg&#45;&gt;/vmlinuz&#45;*&#45;generic -->
    <!-- /isolinux/boot.cat -->
    <g
       id="node4"
       class="node">
      <title
         id="title82">/isolinux/boot.cat</title>
      <polygon
         points="95,-78 95,-108 89,-114 35,-114 35,-78 "
         id="polygon84"
         style="fill:none;stroke:#000000" />
      <polyline
         points="89,-114 89,-108 "
         id="polyline86"
         style="fill:none;stroke:#000000" />
      <polyline
         points="95,-108 89,-108 "
         id="polyline88"
         style="fill:none;stroke:#000000" />
      <text
         x="65"
         y="-92.300003"
         font-size="14.00"
         id="text90"
         style="font-size:12px;font-family:Times, serif;text-anchor:middle;fill:#000000">boot.cat</text>
    </g>
    <!-- /isolinux/[more&#45;files] -->
    <g
       id="node5"
       class="node">
      <title
         id="title93">/isolinux/[more-files]</title>
      <polygon
         points="106,-24 106,-54 100,-60 24,-60 24,-24 "
         id="polygon95"
         style="fill:none;stroke:#000000" />
      <polyline
         points="100,-60 100,-54 "
         id="polyline97"
         style="fill:none;stroke:#000000" />
      <polyline
         points="106,-54 100,-54 "
         id="polyline99"
         style="fill:none;stroke:#000000" />
      <text
         x="65"
         y="-38.299999"
         font-size="14.00"
         id="text101"
         style="font-size:12px;font-family:Times, serif;text-anchor:middle;fill:#000000">[more-files]</text>
    </g>
    <!-- /live/filesystem.module -->
    <g
       id="node6"
       class="node"
       transform="translate(-3,59.25)">
      <title
         id="title104">/live/filesystem.module</title>
      <polygon
         points="258.5,-178 146.5,-178 146.5,-142 264.5,-142 264.5,-172 "
         id="polygon106"
         style="fill:none;stroke:#000000" />
      <polyline
         points="258.5,-178 258.5,-172 "
         id="polyline108"
         style="fill:none;stroke:#000000" />
      <polyline
         points="264.5,-172 258.5,-172 "
         id="polyline110"
         style="fill:none;stroke:#000000" />
      <text
         x="205.5"
         y="-156.3"
         font-size="14.00"
         id="text112"
         style="font-size:12px;font-family:Times, serif;text-anchor:middle;fill:#000000">filesystem.module</text>
    </g>
  </g>
  <path
     style="fill:none;stroke:#000000;stroke-width:1.5;stroke-linecap:butt;stroke-linejoin:miter;stroke-miterlimit:4;stroke-dasharray:none;stroke-opacity:1;marker-end:url(#Arrow1Mend)"
     d="m 320.31825,287.68499 120,0"
     id="path1238"
     inkscape:connector-curvature="0"
     sodipodi:nodetypes="cc" />
  <g
     transform="translate(445.63198,422.11719)"
     class="graph"
     id="graph0-36">
    <title
       id="title1147">G</title>
    <polygon
       id="polygon1149"
       points="-4,-364 179,-364 179,4 -4,4 "
       stroke="transparent"
       style="fill:#ffffff" />
    <g
       class="cluster"
       id="clust1-7"
       transform="matrix(1,0,0,1.030479,0,10.728615)">
      <title
         id="title1151">cluster</title>
      <path
         id="path1153"
         d="m 20,-8 h 135 c 6,0 12,-6 12,-12 v -320 c 0,-6 -6,-12 -12,-12 H 20 c -6,0 -12,6 -12,12 v 320 c 0,6 12,12 12,12"
         inkscape:connector-curvature="0"
         style="fill:none;stroke:#000000"
         sodipodi:nodetypes="csssssssc" />
      <text
         id="text1155"
         font-size="14.00"
         y="-336.79999"
         x="87.5"
         style="font-size:14px;font-family:Times, serif;text-anchor:middle;fill:#000000">
        <tspan
           style="font-size:11.82120228px"
           id="tspan1371">/ of usb</tspan>
      </text>
    </g>
    <g
       transform="translate(0.74999732,5.4999983)"
       class="cluster"
       id="clust2-7">
      <title
         id="title1160">cluster/bionic-g19A</title>
      <path
         id="path1162"
         d="m 28,-16 c 0,0 119,0 119,0 6,0 12,-6 12,-12 0,0 0,-159 0,-159 0,-6 -6,-12 -12,-12 0,0 -119,0 -119,0 -6,0 -12,6 -12,12 0,0 0,159 0,159 0,6 6,12 12,12"
         inkscape:connector-curvature="0"
         style="fill:none;stroke:#000000" />
      <text
         id="text1164"
         font-size="14.00"
         y="-183.8"
         x="87.5"
         style="font-size:12px;font-family:Times, serif;text-anchor:middle;fill:#000000">bionic-g*</text>
    </g>
    <g
       class="cluster"
       id="clust2-5">
      <title
         id="title1158">cluster/boot</title>
      <path
         id="path1160"
         d="m 39,-207 c 0,0 97,0 97,0 6,0 12,-6 12,-12 0,0 0,-90 0,-90 0,-6 -6,-12 -12,-12 0,0 -97,0 -97,0 -6,0 -12,6 -12,12 0,0 0,90 0,90 0,6 6,12 12,12"
         inkscape:connector-curvature="0"
         style="fill:none;stroke:#000000" />
      <text
         id="text1162"
         font-size="14.00"
         y="-305.79999"
         x="87.5"
         style="font-size:14px;font-family:Times, serif;text-anchor:middle;fill:#000000">
        <tspan
           style="font-size:12px"
           id="tspan1369">boot</tspan>
      </text>
    </g>
    <g
       transform="translate(0.74999732,5.4999983)"
       class="node"
       id="node1-5">
      <title
         id="title1167">/bionic-g19A/vmlinuz-*-generic</title>
      <polygon
         id="polygon1169"
         points="146,-162 140,-168 29,-168 29,-132 146,-132 "
         style="fill:none;stroke:#000000" />
      <polyline
         id="polyline1171"
         points="140,-168 140,-162 "
         style="fill:none;stroke:#000000" />
      <polyline
         id="polyline1173"
         points="146,-162 140,-162 "
         style="fill:none;stroke:#000000" />
      <text
         id="text1175"
         font-size="14.00"
         y="-146.3"
         x="87.5"
         style="font-size:12px;font-family:Times, serif;text-anchor:middle;fill:#ff0000">vmlinuz-*-generic</text>
    </g>
    <g
       class="cluster"
       id="clust3-3">
      <title
         id="title1165">cluster/boot/syslinux</title>
      <path
         id="path1167"
         d="m 47,-215 c 0,0 81,0 81,0 6,0 12,-6 12,-12 0,0 0,-51 0,-51 0,-6 -6,-12 -12,-12 0,0 -81,0 -81,0 -6,0 -12,6 -12,12 0,0 0,51 0,51 0,6 6,12 12,12"
         inkscape:connector-curvature="0"
         style="fill:none;stroke:#000000" />
      <text
         id="text1169"
         font-size="14.00"
         y="-274.79999"
         x="87.5"
         style="font-size:14px;font-family:Times, serif;text-anchor:middle;fill:#000000">
        <tspan
           style="font-size:12px"
           id="tspan1367">syslinux</tspan>
      </text>
    </g>
    <g
       transform="translate(0.74999732,5.4999983)"
       class="node"
       id="node2-3">
      <title
         id="title1178">/bionic-g19A/initrd.img-*-generic</title>
      <polygon
         id="polygon1180"
         points="151,-108 145,-114 24,-114 24,-78 151,-78 "
         style="fill:none;stroke:#000000" />
      <polyline
         id="polyline1182"
         points="145,-114 145,-108 "
         style="fill:none;stroke:#000000" />
      <polyline
         id="polyline1184"
         points="151,-108 145,-108 "
         style="fill:none;stroke:#000000" />
      <text
         id="text1186"
         font-size="14.00"
         y="-92.300003"
         x="87.5"
         style="font-size:12px;font-family:Times, serif;text-anchor:middle;fill:#ff0000">initrd.img-*-generic</text>
    </g>
    <g
       transform="translate(0.74999732,5.4999983)"
       class="node"
       id="node3-5">
      <title
         id="title1189">/bionic-g19A/root.squashfs</title>
      <polygon
         id="polygon1191"
         points="132,-54 126,-60 43,-60 43,-24 132,-24 "
         style="fill:none;stroke:#000000" />
      <polyline
         id="polyline1193"
         points="126,-60 126,-54 "
         style="fill:none;stroke:#000000" />
      <polyline
         id="polyline1195"
         points="132,-54 126,-54 "
         style="fill:none;stroke:#000000" />
      <text
         id="text1197"
         font-size="14.00"
         y="-38.299999"
         x="87.5"
         style="font-size:12px;font-family:Times, serif;text-anchor:middle;fill:#ff0000">root.squashfs</text>
    </g>
    <!-- /boot/syslinux/extlinux.conf -->
    <g
       class="node"
       id="node1-56">
      <title
         id="title1179">/boot/syslinux/extlinux.conf</title>
      <polygon
         id="polygon1181"
         points="132,-253 126,-259 43,-259 43,-223 132,-223 "
         style="fill:none;stroke:#000000" />
      <polyline
         id="polyline1183"
         points="126,-259 126,-253 "
         style="fill:none;stroke:#000000" />
      <polyline
         id="polyline1185"
         points="132,-253 126,-253 "
         style="fill:none;stroke:#000000" />
      <text
         id="text1187"
         font-size="14.00"
         y="-237.3"
         x="87.5"
         style="font-size:14px;font-family:Times, serif;text-anchor:middle;fill:#ff0000">
        <tspan
           style="font-size:12px"
           id="tspan1365">extlinux.conf</tspan>
      </text>
    </g>
    <!-- /bionic&#45;g19A/vmlinuz&#45;*&#45;generic -->
    <!-- /bionic&#45;g19A/initrd.img&#45;*&#45;generic -->
    <!-- /bionic&#45;g19A/root.squashfs -->
  </g>
  <rect
     style="fill:#ffc0ff;fill-opacity:1;stroke:#000000;stroke-width:1.5;stroke-miterlimit:4;stroke-dasharray:none;stroke-dashoffset:0;stroke-opacity:1"
     id="rect1425"
     width="156.75"
     height="41.25"
     x="453.89056"
     y="27.617188"
     ry="12.75"
     rx="12" />
  <path
     style="fill:none;stroke:#000000;stroke-width:1.5;stroke-linecap:butt;stroke-linejoin:miter;stroke-miterlimit:4;stroke-dasharray:none;stroke-opacity:1;marker-end:url(#marker1395)"
     d="m 289.38199,108.61719 c 0,0 55.77194,49.39807 84.74999,63 33.82729,15.8781 111.75,7.5 111.75,7.5"
     id="path1373"
     inkscape:connector-curvature="0"
     sodipodi:nodetypes="csc" />
  <text
     xml:space="preserve"
     style="font-style:normal;font-weight:normal;font-size:12px;line-height:1.25;font-family:sans-serif;text-align:center;letter-spacing:0px;word-spacing:0px;text-anchor:middle;fill:#000000;fill-opacity:1;stroke:none;stroke-width:0.75"
     x="400.39957"
     y="149.86719"
     id="text1429"><tspan
       sodipodi:role="line"
       id="tspan1427"
       x="400.39957"
       y="149.86719"
       style="text-align:center;text-anchor:middle;stroke-width:0.75">&quot;wget ...&quot;</tspan><tspan
       sodipodi:role="line"
       x="400.39957"
       y="164.86719"
       style="text-align:center;text-anchor:middle;stroke-width:0.75"
       id="tspan1193">downloads</tspan></text>
  <text
     xml:space="preserve"
     style="font-style:normal;font-weight:normal;font-size:12px;line-height:1.25;font-family:sans-serif;letter-spacing:0px;word-spacing:0px;fill:#000000;fill-opacity:1;stroke:none;stroke-width:0.75"
     x="360.63199"
     y="275.11719"
     id="text1433"><tspan
       sodipodi:role="line"
       id="tspan1431"
       x="360.63199"
       y="275.11719"
       style="stroke-width:0.75">copy</tspan></text>
  <path
     style="fill:none;stroke:#000000;stroke-width:0.75;stroke-linecap:butt;stroke-linejoin:miter;stroke-miterlimit:4;stroke-dasharray:5.99999987, 5.99999987;stroke-dashoffset:0;stroke-opacity:1;marker-end:url(#Arrow1Lend)"
     d="m 581.13198,184.36719 c 0,0 54,15.74999 54.75,28.49999 0.75,12.75 -43.50001,52.75001 -43.50001,52.75001"
     id="path1435"
     inkscape:connector-curvature="0"
     sodipodi:nodetypes="csc" />
  <path
     style="fill:none;stroke:#000000;stroke-width:0.75;stroke-linecap:butt;stroke-linejoin:miter;stroke-miterlimit:4;stroke-dasharray:5.99999987, 5.99999987;stroke-dashoffset:0;stroke-opacity:1;marker-end:url(#Arrow1Lend-2)"
     d="m 580.62076,179.05787 c 0,0 68.25,23.99999 69,36.74999 0.75,12.75 -49.50001,109.00001 -49.50001,109.00001"
     id="path1435-0"
     inkscape:connector-curvature="0"
     sodipodi:nodetypes="csc" />
  <path
     style="fill:none;stroke:#000000;stroke-width:0.75;stroke-linecap:butt;stroke-linejoin:miter;stroke-miterlimit:4;stroke-dasharray:5.99999987, 5.99999987;stroke-dashoffset:0;stroke-opacity:1;marker-end:url(#Arrow1Lend-9)"
     d="m 579.87076,174.55786 c 0,0 82.5,25.5 83.25,38.25 0.75,12.75 -69.00001,172.75001 -69.00001,172.75001"
     id="path1435-6"
     inkscape:connector-curvature="0"
     sodipodi:nodetypes="csc" />
  <text
     xml:space="preserve"
     style="font-style:normal;font-weight:normal;font-size:12px;line-height:1.25;font-family:sans-serif;letter-spacing:0px;word-spacing:0px;fill:#000000;fill-opacity:1;stroke:none;stroke-width:0.75"
     x="-94.530304"
     y="716.17548"
     id="text3740"
     transform="rotate(-68.514839)"><tspan
       sodipodi:role="line"
       id="tspan3738"
       x="-94.530304"
       y="716.17548"
       style="stroke-width:0.75">references</tspan></text>
  <text
     xml:space="preserve"
     style="font-style:normal;font-weight:normal;font-size:12px;line-height:1.25;font-family:sans-serif;text-align:center;letter-spacing:0px;word-spacing:0px;text-anchor:middle;fill:#000000;fill-opacity:1;stroke:none;stroke-width:0.75"
     x="528.26068"
     y="44.117188"
     id="text983"><tspan
       sodipodi:role="line"
       id="tspan981"
       x="528.26068"
       y="44.117188"
       style="text-align:center;text-anchor:middle;stroke-width:0.75">MBR and boot</tspan><tspan
       sodipodi:role="line"
       x="528.26068"
       y="59.117188"
       style="text-align:center;text-anchor:middle;stroke-width:0.75"
       id="tspan1428">loader  of usb</tspan></text>
  <path
     style="fill:none;stroke:#000000;stroke-width:1.5;stroke-linecap:butt;stroke-linejoin:miter;stroke-miterlimit:4;stroke-dasharray:none;stroke-opacity:1;marker-end:url(#marker1445)"
     d="m 328.64056,51.617187 h 101.25"
     id="path1021"
     inkscape:connector-curvature="0" />
  <text
     xml:space="preserve"
     style="font-style:normal;font-weight:normal;font-size:12px;line-height:1.25;font-family:sans-serif;text-align:center;letter-spacing:0px;word-spacing:0px;text-anchor:middle;fill:#000000;fill-opacity:1;stroke:none;stroke-width:0.75"
     x="369.89349"
     y="29.117188"
     id="text1037"><tspan
       sodipodi:role="line"
       id="tspan1035"
       x="369.89349"
       y="29.117188"
       style="text-align:center;text-anchor:middle;stroke-width:0.75">&quot;mbootuz mkboot ...&quot;</tspan><tspan
       sodipodi:role="line"
       x="369.89349"
       y="44.117188"
       style="text-align:center;text-anchor:middle;stroke-width:0.75"
       id="tspan1039">installs</tspan></text>
</svg>
