<?xml version="1.0" encoding="UTF-8" standalone="no"?>
<!DOCTYPE svg PUBLIC "-//W3C//DTD SVG 1.1//EN"
 "http://www.w3.org/Graphics/SVG/1.1/DTD/svg11.dtd">
<!-- Generated by graphviz version 2.43.0 (0)
 -->
<!-- Title: android modes Pages: 1 -->
<svg width="832pt" height="137pt"
 viewBox="0.00 0.00 831.72 136.87" xmlns="http://www.w3.org/2000/svg" xmlns:xlink="http://www.w3.org/1999/xlink">
<g id="graph0" class="graph" transform="scale(1 1) rotate(0) translate(4 132.87)">
<title>android modes</title>
<polygon fill="white" stroke="transparent" points="-4,4 -4,-132.87 827.72,-132.87 827.72,4 -4,4"/>
<!-- blfb -->
<g id="node1" class="node">
<title>blfb</title>
<ellipse fill="none" stroke="black" cx="95.5" cy="-26.87" rx="72.25" ry="26.74"/>
<text text-anchor="middle" x="95.5" y="-30.67" font-family="Times,serif" font-size="14.00">boot loader/</text>
<text text-anchor="middle" x="95.5" y="-15.67" font-family="Times,serif" font-size="14.00">fastboot</text>
</g>
<!-- blfb&#45;&gt;blfb -->
<g id="edge1" class="edge">
<title>blfb&#45;&gt;blfb</title>
<path fill="none" stroke="black" d="M62.79,-50.87C59.22,-62.01 70.12,-71.74 95.5,-71.74 112.55,-71.74 123.07,-67.35 127.05,-61.09"/>
<polygon fill="black" stroke="black" points="130.56,-61.21 128.21,-50.87 123.61,-60.42 130.56,-61.21"/>
<text text-anchor="middle" x="95.5" y="-75.54" font-family="Times,serif" font-size="14.00">fastboot reboot&#45;bootloader</text>
</g>
<!-- recovery -->
<g id="node2" class="node">
<title>recovery</title>
<ellipse fill="none" stroke="black" cx="460.12" cy="-73.87" rx="51.2" ry="18"/>
<ellipse fill="none" stroke="black" cx="460.12" cy="-73.87" rx="55.19" ry="22"/>
<text text-anchor="middle" x="460.12" y="-70.17" font-family="Times,serif" font-size="14.00">recovery</text>
</g>
<!-- blfb&#45;&gt;recovery -->
<g id="edge2" class="edge">
<title>blfb&#45;&gt;recovery</title>
<path fill="none" stroke="black" stroke-dasharray="5,2" d="M143.36,-47.25C156.77,-52.24 171.56,-56.98 185.62,-59.87 256.1,-74.37 338.83,-76.62 394.69,-76.03"/>
<polygon fill="black" stroke="black" points="394.85,-79.53 404.8,-75.89 394.76,-72.53 394.85,-79.53"/>
<text text-anchor="middle" x="274.12" y="-94.67" font-family="Times,serif" font-size="14.00">fastboot reboot recovery</text>
<text text-anchor="middle" x="274.12" y="-79.67" font-family="Times,serif" font-size="14.00">fastboot boot twrp.img</text>
</g>
<!-- normal -->
<g id="node3" class="node">
<title>normal</title>
<ellipse fill="none" stroke="black" cx="772.17" cy="-26.87" rx="43.59" ry="18"/>
<ellipse fill="none" stroke="black" cx="772.17" cy="-26.87" rx="47.59" ry="22"/>
<ellipse fill="none" stroke="black" cx="772.17" cy="-26.87" rx="51.59" ry="26"/>
<text text-anchor="middle" x="772.17" y="-23.17" font-family="Times,serif" font-size="14.00">normal</text>
</g>
<!-- blfb&#45;&gt;normal -->
<g id="edge3" class="edge">
<title>blfb&#45;&gt;normal</title>
<path fill="none" stroke="black" d="M167.52,-25.13C173.65,-25.03 179.74,-24.94 185.62,-24.87 415.39,-22.29 472.87,-21.52 702.62,-24.87 705.18,-24.91 707.78,-24.95 710.41,-25"/>
<polygon fill="black" stroke="black" points="710.56,-28.51 720.64,-25.23 710.72,-21.51 710.56,-28.51"/>
<text text-anchor="middle" x="460.12" y="-26.67" font-family="Times,serif" font-size="14.00">fastboot reboot</text>
</g>
<!-- recovery&#45;&gt;blfb -->
<g id="edge4" class="edge">
<title>recovery&#45;&gt;blfb</title>
<path fill="none" stroke="black" d="M420.82,-58.04C403.37,-51.54 382.27,-44.67 362.62,-40.87 301.39,-29.03 230.85,-25.78 177.78,-25.35"/>
<polygon fill="black" stroke="black" points="177.76,-21.85 167.75,-25.3 177.73,-28.85 177.76,-21.85"/>
<text text-anchor="middle" x="274.12" y="-44.67" font-family="Times,serif" font-size="14.00">menu</text>
</g>
<!-- recovery&#45;&gt;recovery -->
<g id="edge5" class="edge">
<title>recovery&#45;&gt;recovery</title>
<path fill="none" stroke="black" d="M430,-92.8C423.85,-103.71 433.89,-113.87 460.12,-113.87 477.75,-113.87 488.06,-109.28 491.07,-102.97"/>
<polygon fill="black" stroke="black" points="494.54,-102.49 490.25,-92.8 487.57,-103.05 494.54,-102.49"/>
<text text-anchor="middle" x="460.12" y="-117.67" font-family="Times,serif" font-size="14.00">menu</text>
</g>
<!-- recovery&#45;&gt;normal -->
<g id="edge6" class="edge">
<title>recovery&#45;&gt;normal</title>
<path fill="none" stroke="black" d="M515.29,-76.68C564.85,-77.86 639.81,-76.13 702.62,-59.87 711.26,-57.63 720.12,-54.28 728.47,-50.55"/>
<polygon fill="black" stroke="black" points="730.1,-53.65 737.65,-46.23 727.12,-47.32 730.1,-53.65"/>
<text text-anchor="middle" x="630.12" y="-79.67" font-family="Times,serif" font-size="14.00">menu</text>
</g>
<!-- normal&#45;&gt;blfb -->
<g id="edge7" class="edge">
<title>normal&#45;&gt;blfb</title>
<path fill="none" stroke="black" d="M722.06,-20.21C675.27,-14.24 602.8,-5.96 539.62,-2.87 382.32,4.83 342.54,-5.39 185.62,-18.87 182.55,-19.13 179.42,-19.41 176.25,-19.68"/>
<polygon fill="black" stroke="black" points="175.73,-16.21 166.07,-20.57 176.34,-23.19 175.73,-16.21"/>
<text text-anchor="middle" x="460.12" y="-6.67" font-family="Times,serif" font-size="14.00">adb reboot bootloader</text>
</g>
<!-- normal&#45;&gt;recovery -->
<g id="edge8" class="edge">
<title>normal&#45;&gt;recovery</title>
<path fill="none" stroke="black" d="M720.63,-26.45C677.05,-26.97 612.64,-29.86 557.62,-40.87 541.53,-44.09 524.44,-49.31 509.18,-54.65"/>
<polygon fill="black" stroke="black" points="507.67,-51.47 499.45,-58.16 510.05,-58.06 507.67,-51.47"/>
<text text-anchor="middle" x="630.12" y="-44.67" font-family="Times,serif" font-size="14.00">adb reboot recovery</text>
</g>
<!-- normal&#45;&gt;normal -->
<g id="edge9" class="edge">
<title>normal&#45;&gt;normal</title>
<path fill="none" stroke="black" d="M746.33,-49.51C742.76,-60.8 751.37,-70.87 772.17,-70.87 786.15,-70.87 794.62,-66.32 797.59,-59.92"/>
<polygon fill="black" stroke="black" points="801.11,-59.64 798.01,-49.51 794.11,-59.36 801.11,-59.64"/>
<text text-anchor="middle" x="772.17" y="-74.67" font-family="Times,serif" font-size="14.00">adb reboot</text>
</g>
</g>
</svg>
