<?xml version="1.0" encoding="UTF-8" standalone="no"?>
<!DOCTYPE svg PUBLIC "-//W3C//DTD SVG 1.1//EN"
 "http://www.w3.org/Graphics/SVG/1.1/DTD/svg11.dtd">
<!-- Generated by graphviz version 2.40.1 (20161225.0304)
 -->
<!-- Title: %3 Pages: 1 -->
<svg width="2026pt" height="376pt"
 viewBox="0.00 0.00 2025.60 375.96" xmlns="http://www.w3.org/2000/svg" xmlns:xlink="http://www.w3.org/1999/xlink">
<g id="graph0" class="graph" transform="scale(1 1) rotate(0) translate(4 371.9605)">
<title>%3</title>
<polygon fill="#ffffff" stroke="transparent" points="-4,4 -4,-371.9605 2021.6016,-371.9605 2021.6016,4 -4,4"/>
<!-- mplfinance -->
<g id="node1" class="node">
<title>mplfinance</title>
<ellipse fill="none" stroke="#000000" cx="472.4975" cy="-341.0904" rx="55.3091" ry="26.7407"/>
<text text-anchor="middle" x="472.4975" y="-344.8904" font-family="Times,serif" font-size="14.00" fill="#000000">mplfinance</text>
<text text-anchor="middle" x="472.4975" y="-329.8904" font-family="Times,serif" font-size="14.00" fill="#000000">0.12.0a3</text>
</g>
<!-- pandas -->
<g id="node2" class="node">
<title>pandas</title>
<ellipse fill="none" stroke="#000000" cx="548.4975" cy="-236.3503" rx="38.3684" ry="26.7407"/>
<text text-anchor="middle" x="548.4975" y="-240.1503" font-family="Times,serif" font-size="14.00" fill="#000000">pandas</text>
<text text-anchor="middle" x="548.4975" y="-225.1503" font-family="Times,serif" font-size="14.00" fill="#000000">0.23.4</text>
</g>
<!-- mplfinance&#45;&gt;pandas -->
<g id="edge1" class="edge">
<title>mplfinance&#45;&gt;pandas</title>
<path fill="none" stroke="#000000" d="M490.895,-315.7357C501.1994,-301.5346 514.1521,-283.6837 525.1638,-268.5078"/>
<polygon fill="#000000" stroke="#000000" points="528.0125,-270.5414 531.0526,-260.3921 522.3468,-266.4304 528.0125,-270.5414"/>
<text text-anchor="middle" x="524.4975" y="-285.0203" font-family="Times,serif" font-size="14.00" fill="#000000">any</text>
</g>
<!-- matplotlib -->
<g id="node3" class="node">
<title>matplotlib</title>
<ellipse fill="none" stroke="#000000" cx="350.4975" cy="-236.3503" rx="51.7379" ry="26.7407"/>
<text text-anchor="middle" x="350.4975" y="-240.1503" font-family="Times,serif" font-size="14.00" fill="#000000">matplotlib</text>
<text text-anchor="middle" x="350.4975" y="-225.1503" font-family="Times,serif" font-size="14.00" fill="#000000">3.0.0</text>
</g>
<!-- mplfinance&#45;&gt;matplotlib -->
<g id="edge2" class="edge">
<title>mplfinance&#45;&gt;matplotlib</title>
<path fill="none" stroke="#000000" d="M445.1183,-317.5847C427.3354,-302.3176 404.0089,-282.2912 384.9664,-265.9428"/>
<polygon fill="#000000" stroke="#000000" points="387.2326,-263.2754 377.3653,-259.417 382.6728,-268.5865 387.2326,-263.2754"/>
<text text-anchor="middle" x="428.4975" y="-285.0203" font-family="Times,serif" font-size="14.00" fill="#000000">any</text>
</g>
<!-- numpy -->
<g id="node5" class="node">
<title>numpy</title>
<ellipse fill="none" stroke="#000000" cx="411.4975" cy="-131.6102" rx="38.7821" ry="26.7407"/>
<text text-anchor="middle" x="411.4975" y="-135.4102" font-family="Times,serif" font-size="14.00" fill="#000000">numpy</text>
<text text-anchor="middle" x="411.4975" y="-120.4102" font-family="Times,serif" font-size="14.00" fill="#000000">1.15.2</text>
</g>
<!-- pandas&#45;&gt;numpy -->
<g id="edge12" class="edge">
<title>pandas&#45;&gt;numpy</title>
<path fill="none" stroke="#000000" d="M529.561,-212.7602C519.367,-200.978 506.1119,-187.0261 492.4975,-176.4802 479.2898,-166.2494 474.12,-166.5607 459.4975,-158.4802 456.6137,-156.8866 453.6354,-155.2346 450.6405,-153.5687"/>
<polygon fill="#000000" stroke="#000000" points="452.1221,-150.3876 441.6835,-148.5745 448.7131,-156.5014 452.1221,-150.3876"/>
<text text-anchor="middle" x="530.9975" y="-180.2802" font-family="Times,serif" font-size="14.00" fill="#000000">&gt;=1.9.0</text>
</g>
<!-- python&#45;dateutil -->
<g id="node8" class="node">
<title>python&#45;dateutil</title>
<ellipse fill="none" stroke="#000000" cx="538.4975" cy="-131.6102" rx="70.0071" ry="26.7407"/>
<text text-anchor="middle" x="538.4975" y="-135.4102" font-family="Times,serif" font-size="14.00" fill="#000000">python&#45;dateutil</text>
<text text-anchor="middle" x="538.4975" y="-120.4102" font-family="Times,serif" font-size="14.00" fill="#000000">2.8.0</text>
</g>
<!-- pandas&#45;&gt;python&#45;dateutil -->
<g id="edge11" class="edge">
<title>pandas&#45;&gt;python&#45;dateutil</title>
<path fill="none" stroke="#000000" d="M558.5656,-210.344C561.3847,-199.8017 563.0605,-187.5298 560.4975,-176.4802 559.7948,-173.4509 558.8576,-170.3902 557.7653,-167.3664"/>
<polygon fill="#000000" stroke="#000000" points="560.9101,-165.8129 553.8457,-157.917 554.4443,-168.4949 560.9101,-165.8129"/>
<text text-anchor="middle" x="583.9975" y="-180.2802" font-family="Times,serif" font-size="14.00" fill="#000000">&gt;=2.5.0</text>
</g>
<!-- pytz -->
<g id="node11" class="node">
<title>pytz</title>
<ellipse fill="none" stroke="#000000" cx="664.4975" cy="-131.6102" rx="38.3684" ry="26.7407"/>
<text text-anchor="middle" x="664.4975" y="-135.4102" font-family="Times,serif" font-size="14.00" fill="#000000">pytz</text>
<text text-anchor="middle" x="664.4975" y="-120.4102" font-family="Times,serif" font-size="14.00" fill="#000000">2018.5</text>
</g>
<!-- pandas&#45;&gt;pytz -->
<g id="edge13" class="edge">
<title>pandas&#45;&gt;pytz</title>
<path fill="none" stroke="#000000" d="M576.6175,-217.8802C587.5872,-210.2004 600.0181,-200.8902 610.4975,-191.4802 620.18,-182.7858 629.9517,-172.5103 638.4708,-162.9489"/>
<polygon fill="#000000" stroke="#000000" points="641.3551,-164.9674 645.3028,-155.1355 636.0855,-160.3597 641.3551,-164.9674"/>
<text text-anchor="middle" x="649.9975" y="-180.2802" font-family="Times,serif" font-size="14.00" fill="#000000">&gt;=2011k</text>
</g>
<!-- cycler -->
<g id="node4" class="node">
<title>cycler</title>
<ellipse fill="none" stroke="#000000" cx="318.4975" cy="-131.6102" rx="36.125" ry="26.7407"/>
<text text-anchor="middle" x="318.4975" y="-135.4102" font-family="Times,serif" font-size="14.00" fill="#000000">cycler</text>
<text text-anchor="middle" x="318.4975" y="-120.4102" font-family="Times,serif" font-size="14.00" fill="#000000">0.10.0</text>
</g>
<!-- matplotlib&#45;&gt;cycler -->
<g id="edge3" class="edge">
<title>matplotlib&#45;&gt;cycler</title>
<path fill="none" stroke="#000000" d="M329.6515,-211.6371C325.5146,-205.4243 321.7549,-198.512 319.4975,-191.4802 317.2036,-184.3351 316.1239,-176.4591 315.756,-168.8325"/>
<polygon fill="#000000" stroke="#000000" points="319.2543,-168.6415 315.6483,-158.6792 312.2547,-168.7158 319.2543,-168.6415"/>
<text text-anchor="middle" x="339.9975" y="-180.2802" font-family="Times,serif" font-size="14.00" fill="#000000">&gt;=0.10</text>
</g>
<!-- matplotlib&#45;&gt;numpy -->
<g id="edge4" class="edge">
<title>matplotlib&#45;&gt;numpy</title>
<path fill="none" stroke="#000000" d="M364.4879,-210.2445C370.2487,-199.6879 377.0685,-187.4319 383.4975,-176.4802 385.6416,-172.8278 387.922,-169.0348 390.2201,-165.2706"/>
<polygon fill="#000000" stroke="#000000" points="393.2857,-166.9675 395.5583,-156.6192 387.3285,-163.2916 393.2857,-166.9675"/>
<text text-anchor="middle" x="409.4975" y="-180.2802" font-family="Times,serif" font-size="14.00" fill="#000000">&gt;=1.10.0</text>
</g>
<!-- kiwisolver -->
<g id="node6" class="node">
<title>kiwisolver</title>
<ellipse fill="none" stroke="#000000" cx="212.4975" cy="-131.6102" rx="52.1524" ry="26.7407"/>
<text text-anchor="middle" x="212.4975" y="-135.4102" font-family="Times,serif" font-size="14.00" fill="#000000">kiwisolver</text>
<text text-anchor="middle" x="212.4975" y="-120.4102" font-family="Times,serif" font-size="14.00" fill="#000000">1.0.1</text>
</g>
<!-- matplotlib&#45;&gt;kiwisolver -->
<g id="edge5" class="edge">
<title>matplotlib&#45;&gt;kiwisolver</title>
<path fill="none" stroke="#000000" d="M311.1479,-218.8831C296.4444,-211.4652 280.0416,-202.0736 266.4975,-191.4802 256.5056,-183.6652 246.8208,-173.8804 238.4779,-164.4998"/>
<polygon fill="#000000" stroke="#000000" points="240.99,-162.0536 231.8081,-156.7674 235.6894,-166.6257 240.99,-162.0536"/>
<text text-anchor="middle" x="288.9975" y="-180.2802" font-family="Times,serif" font-size="14.00" fill="#000000">&gt;=1.0.1</text>
</g>
<!-- pyparsing -->
<g id="node7" class="node">
<title>pyparsing</title>
<ellipse fill="none" stroke="#000000" cx="49.4975" cy="-131.6102" rx="49.4949" ry="26.7407"/>
<text text-anchor="middle" x="49.4975" y="-135.4102" font-family="Times,serif" font-size="14.00" fill="#000000">pyparsing</text>
<text text-anchor="middle" x="49.4975" y="-120.4102" font-family="Times,serif" font-size="14.00" fill="#000000">2.2.2</text>
</g>
<!-- matplotlib&#45;&gt;pyparsing -->
<g id="edge6" class="edge">
<title>matplotlib&#45;&gt;pyparsing</title>
<path fill="none" stroke="#000000" d="M298.7948,-234.5931C226.7282,-231.0946 101.1222,-220.8522 67.4975,-191.4802 60.6675,-185.5141 56.3785,-177.0647 53.6993,-168.3886"/>
<polygon fill="#000000" stroke="#000000" points="57.0849,-167.4987 51.3088,-158.6169 50.2854,-169.1622 57.0849,-167.4987"/>
<text text-anchor="middle" x="156.4975" y="-180.2802" font-family="Times,serif" font-size="14.00" fill="#000000">&gt;=2.0.1,!=2.1.6,!=2.1.2,!=2.0.4</text>
</g>
<!-- matplotlib&#45;&gt;python&#45;dateutil -->
<g id="edge7" class="edge">
<title>matplotlib&#45;&gt;python&#45;dateutil</title>
<path fill="none" stroke="#000000" d="M388.5779,-218.1263C403.552,-210.4805 420.673,-201.1292 435.4975,-191.4802 444.5145,-185.6112 445.4948,-182.3714 454.4975,-176.4802 464.5492,-169.9026 475.6615,-163.4443 486.4227,-157.5674"/>
<polygon fill="#000000" stroke="#000000" points="488.192,-160.5902 495.3486,-152.7778 484.8821,-154.4221 488.192,-160.5902"/>
<text text-anchor="middle" x="471.4975" y="-180.2802" font-family="Times,serif" font-size="14.00" fill="#000000">&gt;=2.1</text>
</g>
<!-- six -->
<g id="node9" class="node">
<title>six</title>
<ellipse fill="none" stroke="#000000" cx="676.4975" cy="-26.8701" rx="36.125" ry="26.7407"/>
<text text-anchor="middle" x="676.4975" y="-30.6701" font-family="Times,serif" font-size="14.00" fill="#000000">six</text>
<text text-anchor="middle" x="676.4975" y="-15.6701" font-family="Times,serif" font-size="14.00" fill="#000000">1.12.0</text>
</g>
<!-- cycler&#45;&gt;six -->
<g id="edge10" class="edge">
<title>cycler&#45;&gt;six</title>
<path fill="none" stroke="#000000" d="M345.9181,-113.5135C351.576,-110.2771 357.6089,-107.168 363.4975,-104.7401 454.7103,-67.1331 568.6325,-44.4061 630.7985,-33.8907"/>
<polygon fill="#000000" stroke="#000000" points="631.3959,-37.3395 640.6868,-32.2476 630.2484,-30.4342 631.3959,-37.3395"/>
<text text-anchor="middle" x="464.4975" y="-75.5401" font-family="Times,serif" font-size="14.00" fill="#000000">any</text>
</g>
<!-- setuptools -->
<g id="node10" class="node">
<title>setuptools</title>
<ellipse fill="none" stroke="#000000" cx="212.4975" cy="-26.8701" rx="50.41" ry="26.7407"/>
<text text-anchor="middle" x="212.4975" y="-30.6701" font-family="Times,serif" font-size="14.00" fill="#000000">setuptools</text>
<text text-anchor="middle" x="212.4975" y="-15.6701" font-family="Times,serif" font-size="14.00" fill="#000000">41.0.1</text>
</g>
<!-- kiwisolver&#45;&gt;setuptools -->
<g id="edge9" class="edge">
<title>kiwisolver&#45;&gt;setuptools</title>
<path fill="none" stroke="#000000" d="M212.4975,-104.637C212.4975,-92.2976 212.4975,-77.4761 212.4975,-64.0972"/>
<polygon fill="#000000" stroke="#000000" points="215.9976,-63.7518 212.4975,-53.7518 208.9976,-63.7519 215.9976,-63.7518"/>
<text text-anchor="middle" x="222.4975" y="-75.5401" font-family="Times,serif" font-size="14.00" fill="#000000">any</text>
</g>
<!-- python&#45;dateutil&#45;&gt;six -->
<g id="edge8" class="edge">
<title>python&#45;dateutil&#45;&gt;six</title>
<path fill="none" stroke="#000000" d="M570.1575,-107.5807C591.8901,-91.0859 620.6949,-69.2234 642.8434,-52.413"/>
<polygon fill="#000000" stroke="#000000" points="645.128,-55.073 650.9775,-46.2394 640.896,-49.4972 645.128,-55.073"/>
<text text-anchor="middle" x="632.4975" y="-75.5401" font-family="Times,serif" font-size="14.00" fill="#000000">&gt;=1.5</text>
</g>
<!-- dash -->
<g id="node12" class="node">
<title>dash</title>
<ellipse fill="none" stroke="#000000" cx="1293.4975" cy="-341.0904" rx="31.2258" ry="26.7407"/>
<text text-anchor="middle" x="1293.4975" y="-344.8904" font-family="Times,serif" font-size="14.00" fill="#000000">dash</text>
<text text-anchor="middle" x="1293.4975" y="-329.8904" font-family="Times,serif" font-size="14.00" fill="#000000">1.4.1</text>
</g>
<!-- dash&#45;renderer -->
<g id="node13" class="node">
<title>dash&#45;renderer</title>
<ellipse fill="none" stroke="#000000" cx="1673.4975" cy="-236.3503" rx="64.1938" ry="26.7407"/>
<text text-anchor="middle" x="1673.4975" y="-240.1503" font-family="Times,serif" font-size="14.00" fill="#000000">dash&#45;renderer</text>
<text text-anchor="middle" x="1673.4975" y="-225.1503" font-family="Times,serif" font-size="14.00" fill="#000000">1.1.2</text>
</g>
<!-- dash&#45;&gt;dash&#45;renderer -->
<g id="edge14" class="edge">
<title>dash&#45;&gt;dash&#45;renderer</title>
<path fill="none" stroke="#000000" d="M1323.9678,-334.8462C1379.59,-323.1212 1501.0137,-296.0131 1600.4975,-263.2203 1605.6279,-261.5292 1610.9373,-259.7105 1616.2445,-257.8455"/>
<polygon fill="#000000" stroke="#000000" points="1617.5111,-261.1098 1625.7559,-254.4558 1615.1612,-254.516 1617.5111,-261.1098"/>
<text text-anchor="middle" x="1555.9975" y="-285.0203" font-family="Times,serif" font-size="14.00" fill="#000000">==1.1.2</text>
</g>
<!-- dash&#45;table -->
<g id="node14" class="node">
<title>dash&#45;table</title>
<ellipse fill="none" stroke="#000000" cx="869.4975" cy="-236.3503" rx="50.8235" ry="26.7407"/>
<text text-anchor="middle" x="869.4975" y="-240.1503" font-family="Times,serif" font-size="14.00" fill="#000000">dash&#45;table</text>
<text text-anchor="middle" x="869.4975" y="-225.1503" font-family="Times,serif" font-size="14.00" fill="#000000">4.4.1</text>
</g>
<!-- dash&#45;&gt;dash&#45;table -->
<g id="edge15" class="edge">
<title>dash&#45;&gt;dash&#45;table</title>
<path fill="none" stroke="#000000" d="M1262.7111,-336.7915C1199.2624,-327.4365 1049.8064,-302.8367 929.4975,-263.2203 925.2356,-261.817 920.8678,-260.211 916.5271,-258.4977"/>
<polygon fill="#000000" stroke="#000000" points="917.6981,-255.1946 907.1193,-254.6125 915.0261,-261.6646 917.6981,-255.1946"/>
<text text-anchor="middle" x="1069.9975" y="-285.0203" font-family="Times,serif" font-size="14.00" fill="#000000">==4.4.1</text>
</g>
<!-- flask&#45;compress -->
<g id="node15" class="node">
<title>flask&#45;compress</title>
<ellipse fill="none" stroke="#000000" cx="1002.4975" cy="-236.3503" rx="64.189" ry="18"/>
<text text-anchor="middle" x="1002.4975" y="-232.6503" font-family="Times,serif" font-size="14.00" fill="#000000">flask&#45;compress</text>
</g>
<!-- dash&#45;&gt;flask&#45;compress -->
<g id="edge16" class="edge">
<title>dash&#45;&gt;flask&#45;compress</title>
<path fill="none" stroke="#000000" d="M1264.7019,-330.7961C1223.1296,-315.9253 1143.8875,-287.5466 1076.4975,-263.2203 1068.4585,-260.3184 1059.9316,-257.231 1051.6347,-254.2218"/>
<polygon fill="#000000" stroke="#000000" points="1052.6379,-250.8626 1042.0437,-250.7411 1050.2498,-257.4426 1052.6379,-250.8626"/>
<text text-anchor="middle" x="1175.4975" y="-285.0203" font-family="Times,serif" font-size="14.00" fill="#000000">any</text>
</g>
<!-- dash&#45;html&#45;components -->
<g id="node16" class="node">
<title>dash&#45;html&#45;components</title>
<ellipse fill="none" stroke="#000000" cx="1185.4975" cy="-236.3503" rx="100.3184" ry="26.7407"/>
<text text-anchor="middle" x="1185.4975" y="-240.1503" font-family="Times,serif" font-size="14.00" fill="#000000">dash&#45;html&#45;components</text>
<text text-anchor="middle" x="1185.4975" y="-225.1503" font-family="Times,serif" font-size="14.00" fill="#000000">1.0.1</text>
</g>
<!-- dash&#45;&gt;dash&#45;html&#45;components -->
<g id="edge17" class="edge">
<title>dash&#45;&gt;dash&#45;html&#45;components</title>
<path fill="none" stroke="#000000" d="M1272.674,-320.8955C1257.6565,-306.3312 1237.0498,-286.3465 1219.6415,-269.4637"/>
<polygon fill="#000000" stroke="#000000" points="1222.0176,-266.8925 1212.4023,-262.443 1217.1443,-271.9175 1222.0176,-266.8925"/>
<text text-anchor="middle" x="1267.9975" y="-285.0203" font-family="Times,serif" font-size="14.00" fill="#000000">==1.0.1</text>
</g>
<!-- dash&#45;core&#45;components -->
<g id="node17" class="node">
<title>dash&#45;core&#45;components</title>
<ellipse fill="none" stroke="#000000" cx="1402.4975" cy="-236.3503" rx="98.9899" ry="26.7407"/>
<text text-anchor="middle" x="1402.4975" y="-240.1503" font-family="Times,serif" font-size="14.00" fill="#000000">dash&#45;core&#45;components</text>
<text text-anchor="middle" x="1402.4975" y="-225.1503" font-family="Times,serif" font-size="14.00" fill="#000000">1.3.1</text>
</g>
<!-- dash&#45;&gt;dash&#45;core&#45;components -->
<g id="edge18" class="edge">
<title>dash&#45;&gt;dash&#45;core&#45;components</title>
<path fill="none" stroke="#000000" d="M1314.5138,-320.8955C1329.6703,-306.3312 1350.4679,-286.3465 1368.0373,-269.4637"/>
<polygon fill="#000000" stroke="#000000" points="1370.558,-271.8955 1375.3435,-262.443 1365.7078,-266.8481 1370.558,-271.8955"/>
<text text-anchor="middle" x="1376.9975" y="-285.0203" font-family="Times,serif" font-size="14.00" fill="#000000">==1.3.1</text>
</g>
<!-- plotly -->
<g id="node18" class="node">
<title>plotly</title>
<ellipse fill="none" stroke="#000000" cx="766.4975" cy="-236.3503" rx="33.8824" ry="26.7407"/>
<text text-anchor="middle" x="766.4975" y="-240.1503" font-family="Times,serif" font-size="14.00" fill="#000000">plotly</text>
<text text-anchor="middle" x="766.4975" y="-225.1503" font-family="Times,serif" font-size="14.00" fill="#000000">4.2.1</text>
</g>
<!-- dash&#45;&gt;plotly -->
<g id="edge19" class="edge">
<title>dash&#45;&gt;plotly</title>
<path fill="none" stroke="#000000" d="M1262.2889,-337.8647C1168.9311,-327.935 893.1278,-296.4821 809.4975,-263.2203 806.6448,-262.0858 803.7713,-260.7616 800.9357,-259.3207"/>
<polygon fill="#000000" stroke="#000000" points="802.5219,-256.1982 792.0792,-254.4093 799.1271,-262.3199 802.5219,-256.1982"/>
<text text-anchor="middle" x="955.4975" y="-285.0203" font-family="Times,serif" font-size="14.00" fill="#000000">any</text>
</g>
<!-- Flask -->
<g id="node19" class="node">
<title>Flask</title>
<ellipse fill="none" stroke="#000000" cx="1798.4975" cy="-236.3503" rx="32.5538" ry="26.7407"/>
<text text-anchor="middle" x="1798.4975" y="-240.1503" font-family="Times,serif" font-size="14.00" fill="#000000">Flask</text>
<text text-anchor="middle" x="1798.4975" y="-225.1503" font-family="Times,serif" font-size="14.00" fill="#000000">1.1.1</text>
</g>
<!-- dash&#45;&gt;Flask -->
<g id="edge20" class="edge">
<title>dash&#45;&gt;Flask</title>
<path fill="none" stroke="#000000" d="M1324.6054,-339.325C1399.3277,-334.3252 1594.0337,-316.7677 1746.4975,-263.2203 1751.8306,-261.3473 1757.3012,-259.0196 1762.5977,-256.5232"/>
<polygon fill="#000000" stroke="#000000" points="1764.4804,-259.4959 1771.8761,-251.9095 1761.3637,-253.2281 1764.4804,-259.4959"/>
<text text-anchor="middle" x="1708.9975" y="-285.0203" font-family="Times,serif" font-size="14.00" fill="#000000">&gt;=1.0.2</text>
</g>
<!-- future -->
<g id="node20" class="node">
<title>future</title>
<ellipse fill="none" stroke="#000000" cx="1555.4975" cy="-236.3503" rx="36.125" ry="26.7407"/>
<text text-anchor="middle" x="1555.4975" y="-240.1503" font-family="Times,serif" font-size="14.00" fill="#000000">future</text>
<text text-anchor="middle" x="1555.4975" y="-225.1503" font-family="Times,serif" font-size="14.00" fill="#000000">0.15.2</text>
</g>
<!-- dash&#45;&gt;future -->
<g id="edge21" class="edge">
<title>dash&#45;&gt;future</title>
<path fill="none" stroke="#000000" d="M1323.0017,-332.5012C1365.4362,-319.7046 1445.7187,-293.829 1510.4975,-263.2203 1513.287,-261.9023 1516.1269,-260.462 1518.9551,-258.955"/>
<polygon fill="#000000" stroke="#000000" points="1520.8425,-261.9099 1527.8715,-253.9825 1517.4331,-255.7964 1520.8425,-261.9099"/>
<text text-anchor="middle" x="1473.4975" y="-285.0203" font-family="Times,serif" font-size="14.00" fill="#000000">any</text>
</g>
<!-- plotly&#45;&gt;six -->
<g id="edge27" class="edge">
<title>plotly&#45;&gt;six</title>
<path fill="none" stroke="#000000" d="M755.9491,-210.5416C745.0228,-183.9438 727.358,-141.3195 711.4975,-104.7401 705.3769,-90.6241 698.4652,-75.1524 692.4104,-61.7455"/>
<polygon fill="#000000" stroke="#000000" points="695.4904,-60.0623 688.1765,-52.3969 689.1139,-62.9502 695.4904,-60.0623"/>
<text text-anchor="middle" x="743.4975" y="-127.9102" font-family="Times,serif" font-size="14.00" fill="#000000">any</text>
</g>
<!-- retrying -->
<g id="node26" class="node">
<title>retrying</title>
<ellipse fill="none" stroke="#000000" cx="818.4975" cy="-131.6102" rx="41.9398" ry="26.7407"/>
<text text-anchor="middle" x="818.4975" y="-135.4102" font-family="Times,serif" font-size="14.00" fill="#000000">retrying</text>
<text text-anchor="middle" x="818.4975" y="-120.4102" font-family="Times,serif" font-size="14.00" fill="#000000">1.3.3</text>
</g>
<!-- plotly&#45;&gt;retrying -->
<g id="edge28" class="edge">
<title>plotly&#45;&gt;retrying</title>
<path fill="none" stroke="#000000" d="M778.9528,-211.2624C785.6076,-197.8581 793.9049,-181.1454 801.1783,-166.495"/>
<polygon fill="#000000" stroke="#000000" points="804.4706,-167.7343 805.7826,-157.221 798.2008,-164.6215 804.4706,-167.7343"/>
<text text-anchor="middle" x="817.9975" y="-180.2802" font-family="Times,serif" font-size="14.00" fill="#000000">&gt;=1.3.3</text>
</g>
<!-- click -->
<g id="node21" class="node">
<title>click</title>
<ellipse fill="none" stroke="#000000" cx="1848.4975" cy="-131.6102" rx="30.3115" ry="26.7407"/>
<text text-anchor="middle" x="1848.4975" y="-135.4102" font-family="Times,serif" font-size="14.00" fill="#000000">click</text>
<text text-anchor="middle" x="1848.4975" y="-120.4102" font-family="Times,serif" font-size="14.00" fill="#000000">6.7</text>
</g>
<!-- Flask&#45;&gt;click -->
<g id="edge22" class="edge">
<title>Flask&#45;&gt;click</title>
<path fill="none" stroke="#000000" d="M1810.4737,-211.2624C1816.9674,-197.6595 1825.0875,-180.6495 1832.1546,-165.8453"/>
<polygon fill="#000000" stroke="#000000" points="1835.4694,-167.0256 1836.619,-156.4933 1829.1523,-164.01 1835.4694,-167.0256"/>
<text text-anchor="middle" x="1842.4975" y="-180.2802" font-family="Times,serif" font-size="14.00" fill="#000000">&gt;=5.1</text>
</g>
<!-- itsdangerous -->
<g id="node22" class="node">
<title>itsdangerous</title>
<ellipse fill="none" stroke="#000000" cx="1957.4975" cy="-131.6102" rx="60.2083" ry="26.7407"/>
<text text-anchor="middle" x="1957.4975" y="-135.4102" font-family="Times,serif" font-size="14.00" fill="#000000">itsdangerous</text>
<text text-anchor="middle" x="1957.4975" y="-120.4102" font-family="Times,serif" font-size="14.00" fill="#000000">1.1.0</text>
</g>
<!-- Flask&#45;&gt;itsdangerous -->
<g id="edge23" class="edge">
<title>Flask&#45;&gt;itsdangerous</title>
<path fill="none" stroke="#000000" d="M1824.0436,-219.522C1848.5464,-203.3809 1885.9963,-178.7111 1914.9943,-159.6088"/>
<polygon fill="#000000" stroke="#000000" points="1917.2731,-162.2989 1923.6986,-153.8749 1913.4223,-156.4532 1917.2731,-162.2989"/>
<text text-anchor="middle" x="1907.9975" y="-180.2802" font-family="Times,serif" font-size="14.00" fill="#000000">&gt;=0.24</text>
</g>
<!-- Jinja2 -->
<g id="node23" class="node">
<title>Jinja2</title>
<ellipse fill="none" stroke="#000000" cx="1642.4975" cy="-131.6102" rx="36.125" ry="26.7407"/>
<text text-anchor="middle" x="1642.4975" y="-135.4102" font-family="Times,serif" font-size="14.00" fill="#000000">Jinja2</text>
<text text-anchor="middle" x="1642.4975" y="-120.4102" font-family="Times,serif" font-size="14.00" fill="#000000">2.10.1</text>
</g>
<!-- Flask&#45;&gt;Jinja2 -->
<g id="edge24" class="edge">
<title>Flask&#45;&gt;Jinja2</title>
<path fill="none" stroke="#000000" d="M1770.9437,-222.0675C1746.3116,-209.285 1713.8754,-192.4113 1712.4975,-191.4802 1698.5847,-182.0795 1684.3088,-170.3185 1672.3081,-159.7148"/>
<polygon fill="#000000" stroke="#000000" points="1674.5555,-157.0289 1664.7772,-152.9502 1669.8778,-162.2365 1674.5555,-157.0289"/>
<text text-anchor="middle" x="1738.4975" y="-180.2802" font-family="Times,serif" font-size="14.00" fill="#000000">&gt;=2.10.1</text>
</g>
<!-- Werkzeug -->
<g id="node24" class="node">
<title>Werkzeug</title>
<ellipse fill="none" stroke="#000000" cx="1748.4975" cy="-131.6102" rx="51.7379" ry="26.7407"/>
<text text-anchor="middle" x="1748.4975" y="-135.4102" font-family="Times,serif" font-size="14.00" fill="#000000">Werkzeug</text>
<text text-anchor="middle" x="1748.4975" y="-120.4102" font-family="Times,serif" font-size="14.00" fill="#000000">0.16.0</text>
</g>
<!-- Flask&#45;&gt;Werkzeug -->
<g id="edge25" class="edge">
<title>Flask&#45;&gt;Werkzeug</title>
<path fill="none" stroke="#000000" d="M1785.3803,-211.3056C1782.0898,-204.8758 1778.6111,-197.9478 1775.4975,-191.4802 1771.7293,-183.653 1767.8126,-175.1819 1764.1696,-167.1435"/>
<polygon fill="#000000" stroke="#000000" points="1767.3378,-165.6548 1760.0439,-157.9704 1760.9537,-168.5261 1767.3378,-165.6548"/>
<text text-anchor="middle" x="1795.9975" y="-180.2802" font-family="Times,serif" font-size="14.00" fill="#000000">&gt;=0.15</text>
</g>
<!-- MarkupSafe -->
<g id="node25" class="node">
<title>MarkupSafe</title>
<ellipse fill="none" stroke="#000000" cx="1642.4975" cy="-26.8701" rx="59.2941" ry="26.7407"/>
<text text-anchor="middle" x="1642.4975" y="-30.6701" font-family="Times,serif" font-size="14.00" fill="#000000">MarkupSafe</text>
<text text-anchor="middle" x="1642.4975" y="-15.6701" font-family="Times,serif" font-size="14.00" fill="#000000">1.1.1</text>
</g>
<!-- Jinja2&#45;&gt;MarkupSafe -->
<g id="edge26" class="edge">
<title>Jinja2&#45;&gt;MarkupSafe</title>
<path fill="none" stroke="#000000" d="M1642.4975,-104.637C1642.4975,-92.2976 1642.4975,-77.4761 1642.4975,-64.0972"/>
<polygon fill="#000000" stroke="#000000" points="1645.9976,-63.7518 1642.4975,-53.7518 1638.9976,-63.7519 1645.9976,-63.7518"/>
<text text-anchor="middle" x="1662.9975" y="-75.5401" font-family="Times,serif" font-size="14.00" fill="#000000">&gt;=0.23</text>
</g>
<!-- retrying&#45;&gt;six -->
<g id="edge29" class="edge">
<title>retrying&#45;&gt;six</title>
<path fill="none" stroke="#000000" d="M795.6681,-108.7745C783.3935,-97.0581 767.6919,-82.9361 752.4975,-71.7401 740.7847,-63.1095 727.305,-54.7083 714.9805,-47.5537"/>
<polygon fill="#000000" stroke="#000000" points="716.6734,-44.49 706.2524,-42.5788 713.2071,-50.5715 716.6734,-44.49"/>
<text text-anchor="middle" x="791.9975" y="-75.5401" font-family="Times,serif" font-size="14.00" fill="#000000">&gt;=1.7.0</text>
</g>
<!-- Flask&#45;Compress -->
<g id="node27" class="node">
<title>Flask&#45;Compress</title>
<ellipse fill="none" stroke="#000000" cx="1803.4975" cy="-341.0904" rx="74.4932" ry="26.7407"/>
<text text-anchor="middle" x="1803.4975" y="-344.8904" font-family="Times,serif" font-size="14.00" fill="#000000">Flask&#45;Compress</text>
<text text-anchor="middle" x="1803.4975" y="-329.8904" font-family="Times,serif" font-size="14.00" fill="#000000">1.4.0</text>
</g>
<!-- Flask&#45;Compress&#45;&gt;Flask -->
<g id="edge30" class="edge">
<title>Flask&#45;Compress&#45;&gt;Flask</title>
<path fill="none" stroke="#000000" d="M1802.2099,-314.1172C1801.6208,-301.7778 1800.9133,-286.9563 1800.2746,-273.5774"/>
<polygon fill="#000000" stroke="#000000" points="1803.7537,-273.0538 1799.7807,-263.2321 1796.7616,-273.3876 1803.7537,-273.0538"/>
<text text-anchor="middle" x="1810.4975" y="-285.0203" font-family="Times,serif" font-size="14.00" fill="#000000">any</text>
</g>
</g>
</svg>

