<?xml version="1.0" encoding="UTF-8" standalone="no"?>
<!DOCTYPE svg PUBLIC "-//W3C//DTD SVG 1.1//EN"
 "http://www.w3.org/Graphics/SVG/1.1/DTD/svg11.dtd">
<!-- Generated by graphviz version 2.43.0 (0)
 -->
<!-- Title: shallow_deep_copy Pages: 1 -->
<svg width="496pt" height="345pt"
 viewBox="0.00 0.00 496.00 345.00" xmlns="http://www.w3.org/2000/svg" xmlns:xlink="http://www.w3.org/1999/xlink">
<g id="graph0" class="graph" transform="scale(1 1) rotate(0) translate(4 341)">
<title>shallow_deep_copy</title>
<polygon fill="white" stroke="transparent" points="-4,4 -4,-341 492,-341 492,4 -4,4"/>
<text text-anchor="middle" x="244" y="-313.8" font-family="times bold" font-size="24.00">Python Shallow Copying</text>
<!-- x -->
<g id="node1" class="node">
<title>x</title>
<text text-anchor="middle" x="27" y="-174.8" font-family="Times,serif" font-size="14.00">x</text>
</g>
<!-- n0 -->
<g id="node4" class="node">
<title>n0</title>
<polygon fill="none" stroke="black" points="90,-152.5 90,-198.5 144,-198.5 144,-152.5 90,-152.5"/>
<text text-anchor="middle" x="117" y="-183.3" font-family="Times,serif" font-size="14.00"> </text>
<polyline fill="none" stroke="black" points="90,-175.5 144,-175.5 "/>
<text text-anchor="middle" x="117" y="-160.3" font-family="Times,serif" font-size="14.00"> </text>
</g>
<!-- x&#45;&gt;n0 -->
<g id="edge1" class="edge">
<title>x&#45;&gt;n0:p0</title>
<path fill="none" stroke="black" d="M54.12,-183.99C62.05,-185.34 70.99,-186.56 79.79,-187.14"/>
<polygon fill="black" stroke="black" points="79.88,-190.65 90,-187.5 80.13,-183.65 79.88,-190.65"/>
</g>
<!-- y -->
<g id="node2" class="node">
<title>y</title>
<text text-anchor="middle" x="27" y="-228.8" font-family="Times,serif" font-size="14.00">y</text>
</g>
<!-- y&#45;&gt;n0 -->
<g id="edge2" class="edge">
<title>y&#45;&gt;n0:p0</title>
<path fill="none" stroke="black" d="M47.42,-214.46C57.83,-205.36 70.5,-195.25 80.35,-190.4"/>
<polygon fill="black" stroke="black" points="81.43,-193.73 90,-187.5 79.42,-187.03 81.43,-193.73"/>
</g>
<!-- z -->
<g id="node3" class="node">
<title>z</title>
<text text-anchor="middle" x="27" y="-112.8" font-family="Times,serif" font-size="14.00">z</text>
</g>
<!-- m0 -->
<g id="node11" class="node">
<title>m0</title>
<polygon fill="none" stroke="black" points="90,-81.5 90,-127.5 144,-127.5 144,-81.5 90,-81.5"/>
<text text-anchor="middle" x="117" y="-112.3" font-family="Times,serif" font-size="14.00"> </text>
<polyline fill="none" stroke="black" points="90,-104.5 144,-104.5 "/>
<text text-anchor="middle" x="117" y="-89.3" font-family="Times,serif" font-size="14.00"> </text>
</g>
<!-- z&#45;&gt;m0 -->
<g id="edge9" class="edge">
<title>z&#45;&gt;m0:p0</title>
<path fill="none" stroke="black" d="M54.25,-116.5C62.18,-116.5 71.12,-116.5 79.88,-116.5"/>
<polygon fill="black" stroke="black" points="80,-120 90,-116.5 80,-113 80,-120"/>
</g>
<!-- n1_0 -->
<g id="node5" class="node">
<title>n1_0</title>
<polygon fill="none" stroke="black" points="262,-153.5 262,-199.5 316,-199.5 316,-153.5 262,-153.5"/>
<text text-anchor="middle" x="289" y="-184.3" font-family="Times,serif" font-size="14.00"> </text>
<polyline fill="none" stroke="black" points="262,-176.5 316,-176.5 "/>
<text text-anchor="middle" x="289" y="-161.3" font-family="Times,serif" font-size="14.00"> </text>
</g>
<!-- n0&#45;&gt;n1_0 -->
<g id="edge3" class="edge">
<title>n0:p0&#45;&gt;n1_0:p0</title>
<path fill="none" stroke="black" d="M144,-187.5C192.45,-187.5 207.04,-188.37 250.86,-188.49"/>
<polygon fill="black" stroke="black" points="251,-191.99 261,-188.5 251,-184.99 251,-191.99"/>
</g>
<!-- n1_1 -->
<g id="node6" class="node">
<title>n1_1</title>
<polygon fill="none" stroke="black" points="262,-66.5 262,-112.5 316,-112.5 316,-66.5 262,-66.5"/>
<text text-anchor="middle" x="289" y="-97.3" font-family="Times,serif" font-size="14.00"> </text>
<polyline fill="none" stroke="black" points="262,-89.5 316,-89.5 "/>
<text text-anchor="middle" x="289" y="-74.3" font-family="Times,serif" font-size="14.00"> </text>
</g>
<!-- n0&#45;&gt;n1_1 -->
<g id="edge4" class="edge">
<title>n0:p1&#45;&gt;n1_1:p0</title>
<path fill="none" stroke="black" d="M144,-163.5C144.77,-163.5 224.62,-120.58 251.95,-106.16"/>
<polygon fill="black" stroke="black" points="253.71,-109.19 261,-101.5 250.51,-102.97 253.71,-109.19"/>
</g>
<!-- n2_00 -->
<g id="node7" class="node">
<title>n2_00</title>
<polygon fill="none" stroke="black" points="434,-195.5 434,-241.5 488,-241.5 488,-195.5 434,-195.5"/>
<text text-anchor="middle" x="461" y="-226.3" font-family="Times,serif" font-size="14.00">1</text>
<polyline fill="none" stroke="black" points="434,-218.5 488,-218.5 "/>
<text text-anchor="middle" x="461" y="-203.3" font-family="Times,serif" font-size="14.00">2</text>
</g>
<!-- n1_0&#45;&gt;n2_00 -->
<g id="edge5" class="edge">
<title>n1_0:p0&#45;&gt;n2_00:p0</title>
<path fill="none" stroke="black" d="M317,-188.5C354.19,-188.5 363.61,-195.33 398,-209.5 411.38,-215.01 414.52,-224.73 424.09,-228.72"/>
<polygon fill="black" stroke="black" points="423.54,-232.17 434,-230.5 424.78,-225.28 423.54,-232.17"/>
</g>
<!-- n2_01 -->
<g id="node8" class="node">
<title>n2_01</title>
<polygon fill="none" stroke="black" points="434,-130.5 434,-176.5 488,-176.5 488,-130.5 434,-130.5"/>
<text text-anchor="middle" x="461" y="-161.3" font-family="Times,serif" font-size="14.00">3</text>
<polyline fill="none" stroke="black" points="434,-153.5 488,-153.5 "/>
<text text-anchor="middle" x="461" y="-138.3" font-family="Times,serif" font-size="14.00">4</text>
</g>
<!-- n1_0&#45;&gt;n2_01 -->
<g id="edge6" class="edge">
<title>n1_0:p1&#45;&gt;n2_01:p0</title>
<path fill="none" stroke="black" d="M317,-164.5C365.45,-164.5 380.04,-165.37 423.86,-165.49"/>
<polygon fill="black" stroke="black" points="424,-168.99 434,-165.5 424,-161.99 424,-168.99"/>
</g>
<!-- n2_10 -->
<g id="node9" class="node">
<title>n2_10</title>
<polygon fill="none" stroke="black" points="434,-65.5 434,-111.5 488,-111.5 488,-65.5 434,-65.5"/>
<text text-anchor="middle" x="461" y="-96.3" font-family="Times,serif" font-size="14.00">5</text>
<polyline fill="none" stroke="black" points="434,-88.5 488,-88.5 "/>
<text text-anchor="middle" x="461" y="-73.3" font-family="Times,serif" font-size="14.00">6</text>
</g>
<!-- n1_1&#45;&gt;n2_10 -->
<g id="edge7" class="edge">
<title>n1_1:p0&#45;&gt;n2_10:p0</title>
<path fill="none" stroke="black" d="M317,-101.5C365.45,-101.5 380.04,-100.63 423.86,-100.51"/>
<polygon fill="black" stroke="black" points="424,-104.01 434,-100.5 424,-97.01 424,-104.01"/>
</g>
<!-- n2_11 -->
<g id="node10" class="node">
<title>n2_11</title>
<polygon fill="none" stroke="black" points="434,-0.5 434,-46.5 488,-46.5 488,-0.5 434,-0.5"/>
<text text-anchor="middle" x="461" y="-31.3" font-family="Times,serif" font-size="14.00">7</text>
<polyline fill="none" stroke="black" points="434,-23.5 488,-23.5 "/>
<text text-anchor="middle" x="461" y="-8.3" font-family="Times,serif" font-size="14.00">8</text>
</g>
<!-- n1_1&#45;&gt;n2_11 -->
<g id="edge8" class="edge">
<title>n1_1:p1&#45;&gt;n2_11:p0</title>
<path fill="none" stroke="black" d="M317,-77.5C368.69,-77.5 377.71,-40.74 423.9,-36"/>
<polygon fill="black" stroke="black" points="424.19,-39.49 434,-35.5 423.84,-32.5 424.19,-39.49"/>
</g>
<!-- m0&#45;&gt;n1_0 -->
<g id="edge10" class="edge">
<title>m0&#45;&gt;n1_0:p0</title>
<path fill="none" stroke="black" d="M140.4,-127.9C164.86,-151.01 206.52,-183.53 250.89,-187.99"/>
<polygon fill="black" stroke="black" points="250.84,-191.49 261,-188.5 251.19,-184.5 250.84,-191.49"/>
</g>
<!-- m0&#45;&gt;n1_1 -->
<g id="edge11" class="edge">
<title>m0&#45;&gt;n1_1:p0</title>
<path fill="none" stroke="black" d="M144.09,-103.62C170.4,-102.81 212.5,-101.7 250.83,-101.52"/>
<polygon fill="black" stroke="black" points="251.01,-105.02 261,-101.5 250.99,-98.02 251.01,-105.02"/>
</g>
<!-- \l\lx=[[[1,2],[3,4]], [[5,6],[7,8]]]\ly=x\lz=x[:]\l -->
<g id="node12" class="node">
<title>\l\lx=[[[1,2],[3,4]], [[5,6],[7,8]]]\ly=x\lz=x[:]\l</title>
<text text-anchor="start" x="188" y="-255.8" font-family="Times,serif" font-size="14.00" fill="#004000">x=[[[1,2],[3,4]], [[5,6],[7,8]]]</text>
<text text-anchor="start" x="188" y="-240.8" font-family="Times,serif" font-size="14.00" fill="#004000">y=x</text>
<text text-anchor="start" x="188" y="-225.8" font-family="Times,serif" font-size="14.00" fill="#004000">z=x[:]</text>
</g>
</g>
</svg>
