<?xml version="1.0" encoding="UTF-8" standalone="no"?>
<!DOCTYPE svg PUBLIC "-//W3C//DTD SVG 1.1//EN"
 "http://www.w3.org/Graphics/SVG/1.1/DTD/svg11.dtd">
<!-- Generated by graphviz version 2.40.1 (20161225.0304)
 -->
<!-- Title: 臺灣前途決策樹 Pages: 1 -->
<svg width="530pt" height="438pt"
 viewBox="0.00 0.00 530.19 437.91" xmlns="http://www.w3.org/2000/svg" xmlns:xlink="http://www.w3.org/1999/xlink">
<g id="graph0" class="graph" transform="scale(1 1) rotate(0) translate(4 433.9066)">
<title>臺灣前途決策樹</title>
<polygon fill="#ffffff" stroke="transparent" points="-4,4 -4,-433.9066 526.1915,-433.9066 526.1915,4 -4,4"/>
<!-- uniteQ -->
<g id="node1" class="node">
<title>uniteQ</title>
<polygon fill="none" stroke="#ff0000" points="348.0957,-429.9066 268.0957,-391.9066 348.0957,-353.9066 428.0957,-391.9066 348.0957,-429.9066"/>
<text text-anchor="middle" x="348.0957" y="-395.7066" font-family="Times,serif" font-size="14.00" fill="#000000">跟中國</text>
<text text-anchor="middle" x="348.0957" y="-380.7066" font-family="Times,serif" font-size="14.00" fill="#000000">變成一國?</text>
</g>
<!-- sameQ -->
<g id="node2" class="node">
<title>sameQ</title>
<polygon fill="none" stroke="#ff0000" points="174.0957,-302.9066 127.3414,-284.9066 174.0957,-266.9066 220.8501,-284.9066 174.0957,-302.9066"/>
<text text-anchor="middle" x="174.0957" y="-281.2066" font-family="Times,serif" font-size="14.00" fill="#000000">幾制?</text>
</g>
<!-- uniteQ&#45;&gt;sameQ -->
<g id="edge2" class="edge">
<title>uniteQ&#45;&gt;sameQ</title>
<path fill="none" stroke="#000000" d="M312.8842,-370.2536C279.7666,-349.8881 230.9073,-319.8425 200.8648,-301.3681"/>
<polygon fill="#000000" stroke="#000000" points="202.5353,-298.2865 192.1836,-296.0296 198.8685,-304.2493 202.5353,-298.2865"/>
<text text-anchor="middle" x="263.5957" y="-324.7066" font-family="Times,serif" font-size="14.00" fill="#000000">要</text>
</g>
<!-- regQ -->
<g id="node3" class="node">
<title>regQ</title>
<polygon fill="none" stroke="#ff0000" points="348.0957,-302.9066 288.1043,-284.9066 348.0957,-266.9066 408.0872,-284.9066 348.0957,-302.9066"/>
<text text-anchor="middle" x="348.0957" y="-281.2066" font-family="Times,serif" font-size="14.00" fill="#000000">正常化?</text>
</g>
<!-- uniteQ&#45;&gt;regQ -->
<g id="edge1" class="edge">
<title>uniteQ&#45;&gt;regQ</title>
<path fill="none" stroke="#000000" d="M348.0957,-353.8812C348.0957,-340.501 348.0957,-325.7079 348.0957,-313.2639"/>
<polygon fill="#000000" stroke="#000000" points="351.5958,-313.0274 348.0957,-303.0275 344.5958,-313.0275 351.5958,-313.0274"/>
<text text-anchor="middle" x="362.5957" y="-324.7066" font-family="Times,serif" font-size="14.00" fill="#000000">不要</text>
</g>
<!-- democraticQ -->
<g id="node4" class="node">
<title>democraticQ</title>
<polygon fill="none" stroke="#ff0000" points="174.0957,-207.0366 114.1043,-189.0366 174.0957,-171.0366 234.0872,-189.0366 174.0957,-207.0366"/>
<text text-anchor="middle" x="174.0957" y="-185.3366" font-family="Times,serif" font-size="14.00" fill="#000000">哪一制?</text>
</g>
<!-- sameQ&#45;&gt;democraticQ -->
<g id="edge3" class="edge">
<title>sameQ&#45;&gt;democraticQ</title>
<path fill="none" stroke="#000000" d="M174.0957,-266.8742C174.0957,-253.0361 174.0957,-233.6622 174.0957,-217.7053"/>
<polygon fill="#000000" stroke="#000000" points="177.5958,-217.3141 174.0957,-207.3141 170.5958,-217.3141 177.5958,-217.3141"/>
<text text-anchor="middle" x="188.5957" y="-237.7066" font-family="Times,serif" font-size="14.00" fill="#000000">一制</text>
</g>
<!-- octs -->
<g id="node5" class="node">
<title>octs</title>
<ellipse fill="none" stroke="#000000" cx="48.0957" cy="-189.0366" rx="48.1917" ry="18"/>
<text text-anchor="middle" x="48.0957" y="-185.3366" font-family="Times,serif" font-size="14.00" fill="#000000">一國兩制</text>
</g>
<!-- sameQ&#45;&gt;octs -->
<g id="edge4" class="edge">
<title>sameQ&#45;&gt;octs</title>
<path fill="none" stroke="#000000" d="M158.1377,-272.7646C137.9095,-257.3735 102.6485,-230.5443 77.4927,-211.4039"/>
<polygon fill="#000000" stroke="#000000" points="79.4629,-208.5051 69.3853,-205.2352 75.2242,-214.0759 79.4629,-208.5051"/>
<text text-anchor="middle" x="140.5957" y="-237.7066" font-family="Times,serif" font-size="14.00" fill="#000000">兩制</text>
</g>
<!-- quo -->
<g id="node8" class="node">
<title>quo</title>
<ellipse fill="none" stroke="#000000" cx="474.0957" cy="-189.0366" rx="48.1917" ry="18"/>
<text text-anchor="middle" x="474.0957" y="-185.3366" font-family="Times,serif" font-size="14.00" fill="#000000">維持現狀</text>
</g>
<!-- regQ&#45;&gt;quo -->
<g id="edge8" class="edge">
<title>regQ&#45;&gt;quo</title>
<path fill="none" stroke="#000000" d="M365.0887,-271.9772C385.4872,-256.4564 420.035,-230.17 444.7721,-211.3481"/>
<polygon fill="#000000" stroke="#000000" points="446.9116,-214.1183 452.7505,-205.2776 442.6729,-208.5475 446.9116,-214.1183"/>
<text text-anchor="middle" x="428.5957" y="-237.7066" font-family="Times,serif" font-size="14.00" fill="#000000">不要</text>
</g>
<!-- taiwan -->
<g id="node9" class="node">
<title>taiwan</title>
<ellipse fill="none" stroke="#000000" cx="330.0957" cy="-189.0366" rx="77.5641" ry="26.7407"/>
<text text-anchor="middle" x="330.0957" y="-192.8366" font-family="Times,serif" font-size="14.00" fill="#000000">修憲/入聯/正名</text>
<text text-anchor="middle" x="330.0957" y="-177.8366" font-family="Times,serif" font-size="14.00" fill="#000000">(之類的)</text>
</g>
<!-- regQ&#45;&gt;taiwan -->
<g id="edge9" class="edge">
<title>regQ&#45;&gt;taiwan</title>
<path fill="none" stroke="#000000" d="M344.8777,-267.767C342.7132,-256.2387 339.775,-240.5894 337.0883,-226.2796"/>
<polygon fill="#000000" stroke="#000000" points="340.4763,-225.357 335.191,-216.1746 333.5965,-226.6488 340.4763,-225.357"/>
<text text-anchor="middle" x="349.5957" y="-237.7066" font-family="Times,serif" font-size="14.00" fill="#000000">要</text>
</g>
<!-- ccp -->
<g id="node6" class="node">
<title>ccp</title>
<ellipse fill="none" stroke="#000000" cx="108.0957" cy="-48.0833" rx="62.4516" ry="48.1667"/>
<text text-anchor="middle" x="108.0957" y="-66.8833" font-family="Times,serif" font-size="14.00" fill="#000000">共產黨</text>
<text text-anchor="middle" x="108.0957" y="-51.8833" font-family="Times,serif" font-size="14.00" fill="#000000">統一兩岸；</text>
<text text-anchor="middle" x="108.0957" y="-36.8833" font-family="Times,serif" font-size="14.00" fill="#000000">三民主義</text>
<text text-anchor="middle" x="108.0957" y="-21.8833" font-family="Times,serif" font-size="14.00" fill="#000000">永久下架</text>
</g>
<!-- democraticQ&#45;&gt;ccp -->
<g id="edge5" class="edge">
<title>democraticQ&#45;&gt;ccp</title>
<path fill="none" stroke="#000000" d="M166.9144,-172.9185C160.1102,-157.7203 149.5536,-134.3286 140.0957,-114.1665 138.2991,-110.3365 136.4305,-106.389 134.5388,-102.4187"/>
<polygon fill="#000000" stroke="#000000" points="137.5805,-100.6667 130.1058,-93.158 131.2666,-103.6891 137.5805,-100.6667"/>
<text text-anchor="middle" x="168.5957" y="-125.4665" font-family="Times,serif" font-size="14.00" fill="#000000">專制</text>
</g>
<!-- demo -->
<g id="node7" class="node">
<title>demo</title>
<ellipse fill="none" stroke="#000000" cx="264.0957" cy="-48.0833" rx="57.3905" ry="18"/>
<text text-anchor="middle" x="264.0957" y="-44.3833" font-family="Times,serif" font-size="14.00" fill="#000000">中國民主化</text>
</g>
<!-- democraticQ&#45;&gt;demo -->
<g id="edge6" class="edge">
<title>democraticQ&#45;&gt;demo</title>
<path fill="none" stroke="#000000" d="M183.8986,-173.6838C199.0924,-149.888 228.5187,-103.8021 247.1899,-74.5603"/>
<polygon fill="#000000" stroke="#000000" points="250.1798,-76.3813 252.6115,-66.0693 244.2799,-72.6142 250.1798,-76.3813"/>
<text text-anchor="middle" x="251.0957" y="-125.4665" font-family="Times,serif" font-size="14.00" fill="#000000">民主制度</text>
</g>
<!-- octs&#45;&gt;ccp -->
<g id="edge7" class="edge">
<title>octs&#45;&gt;ccp</title>
<path fill="none" stroke="#000000" d="M55.6948,-171.1847C62.9605,-154.1158 74.2992,-127.4788 84.5734,-103.3423"/>
<polygon fill="#000000" stroke="#000000" points="87.9003,-104.4628 88.5967,-93.8909 81.4596,-101.7211 87.9003,-104.4628"/>
<text text-anchor="middle" x="109.0957" y="-132.9665" font-family="Times,serif" font-size="14.00" fill="#000000">承諾時限</text>
<text text-anchor="middle" x="109.0957" y="-117.9665" font-family="Times,serif" font-size="14.00" fill="#000000">的一半</text>
</g>
<!-- quo&#45;&gt;uniteQ -->
<g id="edge11" class="edge">
<title>quo&#45;&gt;uniteQ</title>
<path fill="none" stroke="#000000" d="M466.4469,-207.0341C461.2399,-219.018 454.0547,-235.0488 447.0957,-248.9066 434.7749,-273.4418 432.2173,-279.9912 417.0957,-302.9066 404.9915,-321.2496 390.2139,-340.6432 377.4443,-356.6283"/>
<polygon fill="#000000" stroke="#000000" points="374.5261,-354.6714 370.9744,-364.6532 379.9756,-359.065 374.5261,-354.6714"/>
<text text-anchor="middle" x="466.0957" y="-281.2066" font-family="Times,serif" font-size="14.00" fill="#000000">中共出招</text>
</g>
<!-- taiwan&#45;&gt;demo -->
<g id="edge10" class="edge">
<title>taiwan&#45;&gt;demo</title>
<path fill="none" stroke="#000000" stroke-dasharray="5,2" d="M313.2855,-153.1357C301.9055,-128.832 287.1108,-97.2356 276.7304,-75.0666"/>
<polygon fill="#000000" stroke="#000000" points="310.1159,-154.6204 317.5263,-162.1926 316.4554,-151.652 310.1159,-154.6204"/>
<polygon fill="#000000" stroke="#000000" points="279.8478,-73.4704 272.4374,-65.8983 273.5083,-76.4388 279.8478,-73.4704"/>
<text text-anchor="middle" x="352.0957" y="-125.4665" font-family="Times,serif" font-size="14.00" fill="#000000">有籌碼的立場</text>
</g>
</g>
</svg>
