<?xml version="1.0" encoding="UTF-8" standalone="no"?>
<!DOCTYPE svg PUBLIC "-//W3C//DTD SVG 1.1//EN"
 "http://www.w3.org/Graphics/SVG/1.1/DTD/svg11.dtd">
<!-- Generated by graphviz version 2.40.1 (20161225.0304)
 -->
<!-- Title: 臺灣前途決策樹 Pages: 1 -->
<svg width="544pt" height="438pt"
 viewBox="0.00 0.00 544.25 437.91" xmlns="http://www.w3.org/2000/svg" xmlns:xlink="http://www.w3.org/1999/xlink">
<g id="graph0" class="graph" transform="scale(1 1) rotate(0) translate(4 433.9066)">
<title>臺灣前途決策樹</title>
<polygon fill="#ffffff" stroke="transparent" points="-4,4 -4,-433.9066 540.2501,-433.9066 540.2501,4 -4,4"/>
<!-- uniteQ -->
<g id="node1" class="node">
<title>uniteQ</title>
<polygon fill="none" stroke="#ff0000" points="362.1543,-429.9066 282.1543,-391.9066 362.1543,-353.9066 442.1543,-391.9066 362.1543,-429.9066"/>
<text text-anchor="middle" x="362.1543" y="-395.7066" font-family="Times,serif" font-size="14.00" fill="#000000">跟中國</text>
<text text-anchor="middle" x="362.1543" y="-380.7066" font-family="Times,serif" font-size="14.00" fill="#000000">變成一國?</text>
</g>
<!-- sameQ -->
<g id="node2" class="node">
<title>sameQ</title>
<polygon fill="none" stroke="#ff0000" points="188.1543,-302.9066 141.4,-284.9066 188.1543,-266.9066 234.9087,-284.9066 188.1543,-302.9066"/>
<text text-anchor="middle" x="188.1543" y="-281.2066" font-family="Times,serif" font-size="14.00" fill="#000000">幾制?</text>
</g>
<!-- uniteQ&#45;&gt;sameQ -->
<g id="edge2" class="edge">
<title>uniteQ&#45;&gt;sameQ</title>
<path fill="none" stroke="#000000" d="M326.9428,-370.2536C293.8252,-349.8881 244.9659,-319.8425 214.9234,-301.3681"/>
<polygon fill="#000000" stroke="#000000" points="216.5939,-298.2865 206.2422,-296.0296 212.9271,-304.2493 216.5939,-298.2865"/>
<text text-anchor="middle" x="277.6543" y="-324.7066" font-family="Times,serif" font-size="14.00" fill="#000000">要</text>
</g>
<!-- regQ -->
<g id="node3" class="node">
<title>regQ</title>
<polygon fill="none" stroke="#ff0000" points="362.1543,-302.9066 302.1629,-284.9066 362.1543,-266.9066 422.1458,-284.9066 362.1543,-302.9066"/>
<text text-anchor="middle" x="362.1543" y="-281.2066" font-family="Times,serif" font-size="14.00" fill="#000000">正常化?</text>
</g>
<!-- uniteQ&#45;&gt;regQ -->
<g id="edge1" class="edge">
<title>uniteQ&#45;&gt;regQ</title>
<path fill="none" stroke="#000000" d="M362.1543,-353.8812C362.1543,-340.501 362.1543,-325.7079 362.1543,-313.2639"/>
<polygon fill="#000000" stroke="#000000" points="365.6544,-313.0274 362.1543,-303.0275 358.6544,-313.0275 365.6544,-313.0274"/>
<text text-anchor="middle" x="376.6543" y="-324.7066" font-family="Times,serif" font-size="14.00" fill="#000000">不要</text>
</g>
<!-- democraticQ -->
<g id="node4" class="node">
<title>democraticQ</title>
<polygon fill="none" stroke="#ff0000" points="188.1543,-196.43 128.1629,-178.43 188.1543,-160.43 248.1458,-178.43 188.1543,-196.43"/>
<text text-anchor="middle" x="188.1543" y="-174.73" font-family="Times,serif" font-size="14.00" fill="#000000">哪一制?</text>
</g>
<!-- sameQ&#45;&gt;democraticQ -->
<g id="edge3" class="edge">
<title>sameQ&#45;&gt;democraticQ</title>
<path fill="none" stroke="#000000" d="M188.1543,-266.8443C188.1543,-250.4004 188.1543,-225.8524 188.1543,-206.7922"/>
<polygon fill="#000000" stroke="#000000" points="191.6544,-206.5809 188.1543,-196.5809 184.6544,-206.5809 191.6544,-206.5809"/>
<text text-anchor="middle" x="202.6543" y="-237.7066" font-family="Times,serif" font-size="14.00" fill="#000000">一制</text>
</g>
<!-- octs -->
<g id="node5" class="node">
<title>octs</title>
<ellipse fill="none" stroke="#000000" cx="55.1543" cy="-178.43" rx="55.3091" ry="37.4533"/>
<text text-anchor="middle" x="55.1543" y="-189.73" font-family="Times,serif" font-size="14.00" fill="#000000">一國兩制</text>
<text text-anchor="middle" x="55.1543" y="-174.73" font-family="Times,serif" font-size="14.00" fill="#000000">(共匪版的</text>
<text text-anchor="middle" x="55.1543" y="-159.73" font-family="Times,serif" font-size="14.00" fill="#000000">九二共識)</text>
</g>
<!-- sameQ&#45;&gt;octs -->
<g id="edge4" class="edge">
<title>sameQ&#45;&gt;octs</title>
<path fill="none" stroke="#000000" d="M172.8975,-272.6924C154.981,-258.3489 124.4728,-233.9247 99.0007,-213.5323"/>
<polygon fill="#000000" stroke="#000000" points="100.9237,-210.5884 90.9298,-207.071 96.5489,-216.053 100.9237,-210.5884"/>
<text text-anchor="middle" x="156.6543" y="-237.7066" font-family="Times,serif" font-size="14.00" fill="#000000">兩制</text>
</g>
<!-- quo -->
<g id="node8" class="node">
<title>quo</title>
<ellipse fill="none" stroke="#000000" cx="488.1543" cy="-178.43" rx="48.1917" ry="18"/>
<text text-anchor="middle" x="488.1543" y="-174.73" font-family="Times,serif" font-size="14.00" fill="#000000">維持現狀</text>
</g>
<!-- regQ&#45;&gt;quo -->
<g id="edge8" class="edge">
<title>regQ&#45;&gt;quo</title>
<path fill="none" stroke="#000000" d="M378.1123,-271.4213C398.9066,-253.8491 435.5865,-222.8525 460.8447,-201.5081"/>
<polygon fill="#000000" stroke="#000000" points="463.2305,-204.0744 468.6094,-194.9465 458.7123,-198.7277 463.2305,-204.0744"/>
<text text-anchor="middle" x="435.6543" y="-237.7066" font-family="Times,serif" font-size="14.00" fill="#000000">不要</text>
</g>
<!-- taiwan -->
<g id="node9" class="node">
<title>taiwan</title>
<ellipse fill="none" stroke="#000000" cx="344.1543" cy="-178.43" rx="77.5641" ry="26.7407"/>
<text text-anchor="middle" x="344.1543" y="-182.23" font-family="Times,serif" font-size="14.00" fill="#000000">修憲/入聯/正名</text>
<text text-anchor="middle" x="344.1543" y="-167.23" font-family="Times,serif" font-size="14.00" fill="#000000">(之類的)</text>
</g>
<!-- regQ&#45;&gt;taiwan -->
<g id="edge9" class="edge">
<title>regQ&#45;&gt;taiwan</title>
<path fill="none" stroke="#000000" d="M359.182,-267.3242C356.8114,-253.3013 353.4082,-233.1703 350.4397,-215.6106"/>
<polygon fill="#000000" stroke="#000000" points="353.8712,-214.9111 348.7533,-205.6344 346.9692,-216.0779 353.8712,-214.9111"/>
<text text-anchor="middle" x="363.6543" y="-237.7066" font-family="Times,serif" font-size="14.00" fill="#000000">要</text>
</g>
<!-- ccp -->
<g id="node6" class="node">
<title>ccp</title>
<ellipse fill="none" stroke="#000000" cx="109.1543" cy="-37.4767" rx="82.0488" ry="37.4533"/>
<text text-anchor="middle" x="109.1543" y="-48.7767" font-family="Times,serif" font-size="14.00" fill="#000000">中共統一兩岸；</text>
<text text-anchor="middle" x="109.1543" y="-33.7767" font-family="Times,serif" font-size="14.00" fill="#000000">三民主義</text>
<text text-anchor="middle" x="109.1543" y="-18.7767" font-family="Times,serif" font-size="14.00" fill="#000000">永久下架</text>
</g>
<!-- democraticQ&#45;&gt;ccp -->
<g id="edge5" class="edge">
<title>democraticQ&#45;&gt;ccp</title>
<path fill="none" stroke="#000000" d="M181.8712,-162.208C174.8196,-144.6573 162.5939,-116.0828 149.1543,-92.9533 146.9126,-89.0953 144.4672,-85.1746 141.926,-81.2927"/>
<polygon fill="#000000" stroke="#000000" points="144.7511,-79.2221 136.2523,-72.8959 138.951,-83.1413 144.7511,-79.2221"/>
<text text-anchor="middle" x="179.6543" y="-104.2533" font-family="Times,serif" font-size="14.00" fill="#000000">專制</text>
</g>
<!-- demo -->
<g id="node7" class="node">
<title>demo</title>
<ellipse fill="none" stroke="#000000" cx="280.1543" cy="-37.4767" rx="57.3905" ry="18"/>
<text text-anchor="middle" x="280.1543" y="-33.7767" font-family="Times,serif" font-size="14.00" fill="#000000">中國民主化</text>
</g>
<!-- democraticQ&#45;&gt;demo -->
<g id="edge6" class="edge">
<title>democraticQ&#45;&gt;demo</title>
<path fill="none" stroke="#000000" d="M197.9999,-163.3455C213.4592,-139.6604 243.6355,-93.4272 262.7975,-64.0691"/>
<polygon fill="#000000" stroke="#000000" points="265.8273,-65.8306 268.3622,-55.5434 259.9654,-62.0045 265.8273,-65.8306"/>
<text text-anchor="middle" x="272.1543" y="-104.2533" font-family="Times,serif" font-size="14.00" fill="#000000">民主制度</text>
</g>
<!-- octs&#45;&gt;ccp -->
<g id="edge7" class="edge">
<title>octs&#45;&gt;ccp</title>
<path fill="none" stroke="#000000" d="M69.0607,-142.131C75.8199,-124.4878 84.0236,-103.0741 91.2451,-84.2243"/>
<polygon fill="#000000" stroke="#000000" points="94.6098,-85.2247 94.919,-74.6343 88.0731,-82.7204 94.6098,-85.2247"/>
<text text-anchor="middle" x="116.1543" y="-111.7533" font-family="Times,serif" font-size="14.00" fill="#000000">承諾時限</text>
<text text-anchor="middle" x="116.1543" y="-96.7533" font-family="Times,serif" font-size="14.00" fill="#000000">的一半</text>
</g>
<!-- quo&#45;&gt;uniteQ -->
<g id="edge11" class="edge">
<title>quo&#45;&gt;uniteQ</title>
<path fill="none" stroke="#000000" d="M481.4454,-196.3944C471.8514,-221.1905 452.9446,-266.9192 431.1543,-302.9066 419.7715,-321.7057 405.0818,-341.1549 392.1838,-357.0589"/>
<polygon fill="#000000" stroke="#000000" points="389.277,-355.0832 385.6292,-365.0302 394.6839,-359.529 389.277,-355.0832"/>
<text text-anchor="middle" x="478.1543" y="-281.2066" font-family="Times,serif" font-size="14.00" fill="#000000">中共出招</text>
</g>
<!-- taiwan&#45;&gt;demo -->
<g id="edge10" class="edge">
<title>taiwan&#45;&gt;demo</title>
<path fill="none" stroke="#000000" stroke-dasharray="5,2" d="M328.8634,-142.1307C322.3283,-126.8758 314.5205,-108.984 307.1543,-92.9533 302.8846,-83.6612 298.0445,-73.5844 293.6532,-64.6003"/>
<polygon fill="#000000" stroke="#000000" points="325.8142,-143.9031 332.9567,-151.7285 332.2531,-141.1571 325.8142,-143.9031"/>
<polygon fill="#000000" stroke="#000000" points="296.6671,-62.7977 289.1126,-55.3694 290.3858,-65.8874 296.6671,-62.7977"/>
<text text-anchor="middle" x="363.1543" y="-104.2533" font-family="Times,serif" font-size="14.00" fill="#000000">有籌碼的立場</text>
</g>
</g>
</svg>
