<?xml version="1.0" encoding="UTF-8" standalone="no"?>
<!DOCTYPE svg PUBLIC "-//W3C//DTD SVG 1.1//EN"
 "http://www.w3.org/Graphics/SVG/1.1/DTD/svg11.dtd">
<!-- Generated by graphviz version 2.40.1 (20161225.0304)
 -->
<!-- Title: 臺灣前途決策樹 Pages: 1 -->
<svg width="530pt" height="395pt"
 viewBox="0.00 0.00 529.88 395.48" xmlns="http://www.w3.org/2000/svg" xmlns:xlink="http://www.w3.org/1999/xlink">
<g id="graph0" class="graph" transform="scale(1 1) rotate(0) translate(4 391.4802)">
<title>臺灣前途決策樹</title>
<polygon fill="#ffffff" stroke="transparent" points="-4,4 -4,-391.4802 525.8775,-391.4802 525.8775,4 -4,4"/>
<!-- uniteQ -->
<g id="node1" class="node">
<title>uniteQ</title>
<polygon fill="none" stroke="#ff0000" points="237.0957,-387.4802 157.0957,-349.4802 237.0957,-311.4802 317.0957,-349.4802 237.0957,-387.4802"/>
<text text-anchor="middle" x="237.0957" y="-353.2802" font-family="Times,serif" font-size="14.00" fill="#000000">跟中國</text>
<text text-anchor="middle" x="237.0957" y="-338.2802" font-family="Times,serif" font-size="14.00" fill="#000000">變成一國?</text>
</g>
<!-- sameQ -->
<g id="node2" class="node">
<title>sameQ</title>
<polygon fill="none" stroke="#ff0000" points="174.0957,-260.4802 127.3414,-242.4802 174.0957,-224.4802 220.8501,-242.4802 174.0957,-260.4802"/>
<text text-anchor="middle" x="174.0957" y="-238.7802" font-family="Times,serif" font-size="14.00" fill="#000000">幾制?</text>
</g>
<!-- uniteQ&#45;&gt;sameQ -->
<g id="edge2" class="edge">
<title>uniteQ&#45;&gt;sameQ</title>
<path fill="none" stroke="#000000" d="M219.5467,-319.6748C209.5639,-302.7199 197.2385,-281.7863 187.9425,-265.9977"/>
<polygon fill="#000000" stroke="#000000" points="190.9496,-264.2066 182.8598,-257.3652 184.9175,-267.7583 190.9496,-264.2066"/>
<text text-anchor="middle" x="211.5957" y="-282.2802" font-family="Times,serif" font-size="14.00" fill="#000000">要</text>
</g>
<!-- regQ -->
<g id="node3" class="node">
<title>regQ</title>
<polygon fill="none" stroke="#ff0000" points="300.0957,-260.4802 240.1043,-242.4802 300.0957,-224.4802 360.0872,-242.4802 300.0957,-260.4802"/>
<text text-anchor="middle" x="300.0957" y="-238.7802" font-family="Times,serif" font-size="14.00" fill="#000000">正常化?</text>
</g>
<!-- uniteQ&#45;&gt;regQ -->
<g id="edge1" class="edge">
<title>uniteQ&#45;&gt;regQ</title>
<path fill="none" stroke="#000000" d="M254.6447,-319.6748C264.5058,-302.9267 276.6527,-282.2963 285.9076,-266.5776"/>
<polygon fill="#000000" stroke="#000000" points="288.9256,-268.3499 290.9834,-257.9568 282.8936,-264.7982 288.9256,-268.3499"/>
<text text-anchor="middle" x="292.5957" y="-282.2802" font-family="Times,serif" font-size="14.00" fill="#000000">不要</text>
</g>
<!-- democraticQ -->
<g id="node4" class="node">
<title>democraticQ</title>
<polygon fill="none" stroke="#ff0000" points="174.0957,-164.6102 114.1043,-146.6102 174.0957,-128.6102 234.0872,-146.6102 174.0957,-164.6102"/>
<text text-anchor="middle" x="174.0957" y="-142.9102" font-family="Times,serif" font-size="14.00" fill="#000000">哪一制?</text>
</g>
<!-- sameQ&#45;&gt;democraticQ -->
<g id="edge3" class="edge">
<title>sameQ&#45;&gt;democraticQ</title>
<path fill="none" stroke="#000000" d="M174.0957,-224.4478C174.0957,-210.6097 174.0957,-191.2357 174.0957,-175.2788"/>
<polygon fill="#000000" stroke="#000000" points="177.5958,-174.8877 174.0957,-164.8877 170.5958,-174.8877 177.5958,-174.8877"/>
<text text-anchor="middle" x="188.5957" y="-195.2802" font-family="Times,serif" font-size="14.00" fill="#000000">一制</text>
</g>
<!-- octs -->
<g id="node5" class="node">
<title>octs</title>
<ellipse fill="none" stroke="#000000" cx="48.0957" cy="-146.6102" rx="48.1917" ry="18"/>
<text text-anchor="middle" x="48.0957" y="-142.9102" font-family="Times,serif" font-size="14.00" fill="#000000">一國兩制</text>
</g>
<!-- sameQ&#45;&gt;octs -->
<g id="edge4" class="edge">
<title>sameQ&#45;&gt;octs</title>
<path fill="none" stroke="#000000" d="M158.1377,-230.3382C137.9095,-214.9471 102.6485,-188.1179 77.4927,-168.9775"/>
<polygon fill="#000000" stroke="#000000" points="79.4629,-166.0787 69.3853,-162.8088 75.2242,-171.6495 79.4629,-166.0787"/>
<text text-anchor="middle" x="140.5957" y="-195.2802" font-family="Times,serif" font-size="14.00" fill="#000000">兩制</text>
</g>
<!-- quo -->
<g id="node8" class="node">
<title>quo</title>
<ellipse fill="none" stroke="#000000" cx="300.0957" cy="-146.6102" rx="48.1917" ry="18"/>
<text text-anchor="middle" x="300.0957" y="-142.9102" font-family="Times,serif" font-size="14.00" fill="#000000">維持現狀</text>
</g>
<!-- regQ&#45;&gt;quo -->
<g id="edge8" class="edge">
<title>regQ&#45;&gt;quo</title>
<path fill="none" stroke="#000000" d="M300.0957,-224.4478C300.0957,-210.6097 300.0957,-191.2357 300.0957,-175.2788"/>
<polygon fill="#000000" stroke="#000000" points="303.5958,-174.8877 300.0957,-164.8877 296.5958,-174.8877 303.5958,-174.8877"/>
<text text-anchor="middle" x="314.5957" y="-195.2802" font-family="Times,serif" font-size="14.00" fill="#000000">不要</text>
</g>
<!-- taiwan -->
<g id="node9" class="node">
<title>taiwan</title>
<ellipse fill="none" stroke="#000000" cx="444.0957" cy="-146.6102" rx="77.5641" ry="26.7407"/>
<text text-anchor="middle" x="444.0957" y="-150.4102" font-family="Times,serif" font-size="14.00" fill="#000000">修憲/入聯/正名</text>
<text text-anchor="middle" x="444.0957" y="-135.4102" font-family="Times,serif" font-size="14.00" fill="#000000">(之類的)</text>
</g>
<!-- regQ&#45;&gt;taiwan -->
<g id="edge9" class="edge">
<title>regQ&#45;&gt;taiwan</title>
<path fill="none" stroke="#000000" d="M318.9212,-229.9469C339.2834,-216.3905 372.4656,-194.2989 399.551,-176.2665"/>
<polygon fill="#000000" stroke="#000000" points="401.7224,-179.0256 408.1067,-170.5704 397.8431,-173.1988 401.7224,-179.0256"/>
<text text-anchor="middle" x="383.5957" y="-195.2802" font-family="Times,serif" font-size="14.00" fill="#000000">要</text>
</g>
<!-- ccp -->
<g id="node6" class="node">
<title>ccp</title>
<ellipse fill="none" stroke="#000000" cx="142.0957" cy="-26.8701" rx="52.1524" ry="26.7407"/>
<text text-anchor="middle" x="142.0957" y="-30.6701" font-family="Times,serif" font-size="14.00" fill="#000000">共產黨</text>
<text text-anchor="middle" x="142.0957" y="-15.6701" font-family="Times,serif" font-size="14.00" fill="#000000">統一兩岸</text>
</g>
<!-- democraticQ&#45;&gt;ccp -->
<g id="edge5" class="edge">
<title>democraticQ&#45;&gt;ccp</title>
<path fill="none" stroke="#000000" d="M169.5788,-129.7083C165.0071,-112.6017 157.7919,-85.6033 151.9014,-63.5617"/>
<polygon fill="#000000" stroke="#000000" points="155.2657,-62.5938 149.3024,-53.8365 148.503,-64.4012 155.2657,-62.5938"/>
<text text-anchor="middle" x="176.5957" y="-83.0401" font-family="Times,serif" font-size="14.00" fill="#000000">專制</text>
</g>
<!-- demo -->
<g id="node7" class="node">
<title>demo</title>
<ellipse fill="none" stroke="#000000" cx="272.0957" cy="-26.8701" rx="57.3905" ry="18"/>
<text text-anchor="middle" x="272.0957" y="-23.1701" font-family="Times,serif" font-size="14.00" fill="#000000">中國民主化</text>
</g>
<!-- democraticQ&#45;&gt;demo -->
<g id="edge6" class="edge">
<title>democraticQ&#45;&gt;demo</title>
<path fill="none" stroke="#000000" d="M186.1125,-131.9277C202.2975,-112.1522 231.3527,-76.6514 251.167,-52.4416"/>
<polygon fill="#000000" stroke="#000000" points="254.1288,-54.3489 257.7539,-44.3935 248.7118,-49.9153 254.1288,-54.3489"/>
<text text-anchor="middle" x="264.0957" y="-83.0401" font-family="Times,serif" font-size="14.00" fill="#000000">民主制度</text>
</g>
<!-- octs&#45;&gt;ccp -->
<g id="edge7" class="edge">
<title>octs&#45;&gt;ccp</title>
<path fill="none" stroke="#000000" d="M56.9561,-128.7275C65.2053,-112.9393 78.4108,-89.705 93.0957,-71.7401 97.2158,-66.6998 101.9007,-61.7011 106.7013,-56.9706"/>
<polygon fill="#000000" stroke="#000000" points="109.4262,-59.2102 114.2755,-49.7903 104.6103,-54.1301 109.4262,-59.2102"/>
<text text-anchor="middle" x="122.0957" y="-90.5401" font-family="Times,serif" font-size="14.00" fill="#000000">承諾時限</text>
<text text-anchor="middle" x="122.0957" y="-75.5401" font-family="Times,serif" font-size="14.00" fill="#000000">的一半</text>
</g>
<!-- taiwan&#45;&gt;demo -->
<g id="edge10" class="edge">
<title>taiwan&#45;&gt;demo</title>
<path fill="none" stroke="#000000" stroke-dasharray="5,2" d="M400.6654,-116.3756C370.6539,-95.4827 331.3932,-68.1508 304.19,-49.2129"/>
<polygon fill="#000000" stroke="#000000" points="399.0821,-119.5379 409.289,-122.379 403.0816,-113.793 399.0821,-119.5379"/>
<polygon fill="#000000" stroke="#000000" points="306.0153,-46.219 295.8085,-43.378 302.0158,-51.964 306.0153,-46.219"/>
<text text-anchor="middle" x="421.0957" y="-83.0401" font-family="Times,serif" font-size="14.00" fill="#000000">有籌碼的立場</text>
</g>
</g>
</svg>
