<?xml version="1.0" encoding="UTF-8" standalone="no"?>
<!DOCTYPE svg PUBLIC "-//W3C//DTD SVG 1.1//EN"
 "http://www.w3.org/Graphics/SVG/1.1/DTD/svg11.dtd">
<!-- Generated by graphviz version 2.42.4 (0)
 -->
<!-- Title: 貴哥的政治辯論戰場 Pages: 1 -->
<svg width="236pt" height="409pt"
 viewBox="0.00 0.00 235.50 409.00" xmlns="http://www.w3.org/2000/svg" xmlns:xlink="http://www.w3.org/1999/xlink">
<g id="graph0" class="graph" transform="scale(1 1) rotate(0) translate(4 405)">
<title>貴哥的政治辯論戰場</title>
<polygon fill="white" stroke="transparent" points="-4,4 -4,-405 231.5,-405 231.5,4 -4,4"/>
<text text-anchor="middle" x="113.75" y="-385.8" font-family="Times,serif" font-size="14.00">貴哥的政治辯論戰場</text>
<!-- so -->
<g id="node1" class="node">
<title>so</title>
<polygon fill="none" stroke="black" points="191.5,-378 81.5,-378 81.5,-342 191.5,-342 191.5,-378"/>
<text text-anchor="middle" x="136.5" y="-356.3" font-family="Times,serif" font-size="14.00">聽過國有器官?</text>
</g>
<!-- cases -->
<g id="node2" class="node">
<title>cases</title>
<polygon fill="none" stroke="black" points="140.5,-291 24.5,-291 24.5,-253 140.5,-253 140.5,-291"/>
<text text-anchor="middle" x="82.5" y="-275.8" font-family="Times,serif" font-size="14.00">給關鍵詞、影片</text>
<text text-anchor="middle" x="82.5" y="-260.8" font-family="Times,serif" font-size="14.00">案例、報告</text>
</g>
<!-- so&#45;&gt;cases -->
<g id="edge1" class="edge">
<title>so&#45;&gt;cases</title>
<path fill="none" stroke="black" d="M113.27,-341.95C107.44,-336.74 101.67,-330.62 97.5,-324 93.12,-317.05 89.97,-308.77 87.73,-300.92"/>
<polygon fill="black" stroke="black" points="91.07,-299.87 85.27,-291.01 84.28,-301.55 91.07,-299.87"/>
<text text-anchor="middle" x="130" y="-312.8" font-family="Times,serif" font-size="14.00">那是什麼?</text>
</g>
<!-- fc_difficulty -->
<g id="node3" class="node">
<title>fc_difficulty</title>
<polygon fill="none" stroke="black" points="227.5,-202 125.5,-202 125.5,-164 227.5,-164 227.5,-202"/>
<text text-anchor="middle" x="176.5" y="-186.8" font-family="Times,serif" font-size="14.00">言論管制國家</text>
<text text-anchor="middle" x="176.5" y="-171.8" font-family="Times,serif" font-size="14.00">的事實查核</text>
</g>
<!-- so&#45;&gt;fc_difficulty -->
<g id="edge2" class="edge">
<title>so&#45;&gt;fc_difficulty</title>
<path fill="none" stroke="black" d="M152.02,-341.95C156.1,-336.57 160.04,-330.35 162.5,-324 176.65,-287.44 178.56,-241.69 178.02,-212.65"/>
<polygon fill="black" stroke="black" points="181.51,-212.28 177.71,-202.39 174.51,-212.49 181.51,-212.28"/>
<text text-anchor="middle" x="202" y="-268.3" font-family="Times,serif" font-size="14.00">真的嗎?</text>
</g>
<!-- cases&#45;&gt;fc_difficulty -->
<g id="edge3" class="edge">
<title>cases&#45;&gt;fc_difficulty</title>
<path fill="none" stroke="black" d="M89.82,-252.86C94.75,-242.32 102.08,-229.31 111.5,-220 116.07,-215.48 121.33,-211.35 126.84,-207.63"/>
<polygon fill="black" stroke="black" points="129,-210.41 135.62,-202.14 125.29,-204.48 129,-210.41"/>
<text text-anchor="middle" x="137" y="-223.8" font-family="Times,serif" font-size="14.00">真的嗎?</text>
</g>
<!-- low_emotion -->
<g id="node4" class="node">
<title>low_emotion</title>
<polygon fill="none" stroke="black" points="102.5,-113 14.5,-113 14.5,-75 102.5,-75 102.5,-113"/>
<text text-anchor="middle" x="58.5" y="-97.8" font-family="Times,serif" font-size="14.00">低情緒衝擊</text>
<text text-anchor="middle" x="58.5" y="-82.8" font-family="Times,serif" font-size="14.00">的政治問題</text>
</g>
<!-- cases&#45;&gt;low_emotion -->
<g id="edge4" class="edge">
<title>cases&#45;&gt;low_emotion</title>
<path fill="none" stroke="black" d="M71.86,-252.99C64.52,-239.47 55.41,-220.23 51.5,-202 45.83,-175.56 48.85,-144.68 52.52,-122.91"/>
<polygon fill="black" stroke="black" points="55.97,-123.48 54.34,-113.02 49.09,-122.22 55.97,-123.48"/>
<text text-anchor="middle" x="84" y="-179.3" font-family="Times,serif" font-size="14.00">與我何干?</text>
</g>
<!-- fc_difficulty&#45;&gt;low_emotion -->
<g id="edge5" class="edge">
<title>fc_difficulty&#45;&gt;low_emotion</title>
<path fill="none" stroke="black" d="M152.05,-163.97C134.41,-150.97 110.41,-133.27 91.13,-119.06"/>
<polygon fill="black" stroke="black" points="93.04,-116.12 82.92,-113 88.89,-121.75 93.04,-116.12"/>
<text text-anchor="middle" x="157" y="-134.8" font-family="Times,serif" font-size="14.00">與我何干?</text>
</g>
<!-- accountability -->
<g id="node5" class="node">
<title>accountability</title>
<polygon fill="none" stroke="black" points="117,-38 0,-38 0,0 117,0 117,-38"/>
<text text-anchor="middle" x="58.5" y="-22.8" font-family="Times,serif" font-size="14.00">權責相稱</text>
<text text-anchor="middle" x="58.5" y="-7.8" font-family="Times,serif" font-size="14.00">accountability</text>
</g>
<!-- low_emotion&#45;&gt;accountability -->
<g id="edge6" class="edge">
<title>low_emotion&#45;&gt;accountability</title>
<path fill="none" stroke="black" d="M58.5,-74.96C58.5,-66.88 58.5,-57.18 58.5,-48.18"/>
<polygon fill="black" stroke="black" points="62,-48.09 58.5,-38.09 55,-48.09 62,-48.09"/>
</g>
</g>
</svg>
