<?xml version="1.0" encoding="UTF-8" standalone="no"?>
<!DOCTYPE svg PUBLIC "-//W3C//DTD SVG 1.1//EN"
 "http://www.w3.org/Graphics/SVG/1.1/DTD/svg11.dtd">
<!-- Generated by graphviz version 2.42.4 (0)
 -->
<!-- Title: 貴哥的政治辯論戰場 Pages: 1 -->
<svg width="243pt" height="439pt"
 viewBox="0.00 0.00 242.50 439.00" xmlns="http://www.w3.org/2000/svg" xmlns:xlink="http://www.w3.org/1999/xlink">
<g id="graph0" class="graph" transform="scale(1 1) rotate(0) translate(4 435)">
<title>貴哥的政治辯論戰場</title>
<polygon fill="white" stroke="transparent" points="-4,4 -4,-435 238.5,-435 238.5,4 -4,4"/>
<text text-anchor="middle" x="117.25" y="-415.8" font-family="Times,serif" font-size="14.00">貴哥的政治辯論戰場</text>
<!-- so -->
<g id="node1" class="node">
<title>so</title>
<polygon fill="none" stroke="black" points="198.5,-408 88.5,-408 88.5,-372 198.5,-372 198.5,-408"/>
<text text-anchor="middle" x="143.5" y="-386.3" font-family="Times,serif" font-size="14.00">聽過國有器官?</text>
</g>
<!-- cases -->
<g id="node2" class="node">
<title>cases</title>
<polygon fill="none" stroke="black" points="147.5,-321 31.5,-321 31.5,-283 147.5,-283 147.5,-321"/>
<text text-anchor="middle" x="89.5" y="-305.8" font-family="Times,serif" font-size="14.00">給關鍵詞、影片</text>
<text text-anchor="middle" x="89.5" y="-290.8" font-family="Times,serif" font-size="14.00">案例、報告</text>
</g>
<!-- so&#45;&gt;cases -->
<g id="edge1" class="edge">
<title>so&#45;&gt;cases</title>
<path fill="none" stroke="black" d="M120.27,-371.95C114.44,-366.74 108.67,-360.62 104.5,-354 100.12,-347.05 96.97,-338.77 94.73,-330.92"/>
<polygon fill="black" stroke="black" points="98.07,-329.87 92.27,-321.01 91.28,-331.55 98.07,-329.87"/>
<text text-anchor="middle" x="137" y="-342.8" font-family="Times,serif" font-size="14.00">那是什麼?</text>
</g>
<!-- fc_difficulty -->
<g id="node3" class="node">
<title>fc_difficulty</title>
<polygon fill="none" stroke="black" points="234.5,-232 132.5,-232 132.5,-194 234.5,-194 234.5,-232"/>
<text text-anchor="middle" x="183.5" y="-216.8" font-family="Times,serif" font-size="14.00">言論管制國家</text>
<text text-anchor="middle" x="183.5" y="-201.8" font-family="Times,serif" font-size="14.00">的事實查核</text>
</g>
<!-- so&#45;&gt;fc_difficulty -->
<g id="edge2" class="edge">
<title>so&#45;&gt;fc_difficulty</title>
<path fill="none" stroke="black" d="M159.02,-371.95C163.1,-366.57 167.04,-360.35 169.5,-354 183.65,-317.44 185.56,-271.69 185.02,-242.65"/>
<polygon fill="black" stroke="black" points="188.51,-242.28 184.71,-232.39 181.51,-242.49 188.51,-242.28"/>
<text text-anchor="middle" x="209" y="-298.3" font-family="Times,serif" font-size="14.00">真的嗎?</text>
</g>
<!-- cases&#45;&gt;fc_difficulty -->
<g id="edge3" class="edge">
<title>cases&#45;&gt;fc_difficulty</title>
<path fill="none" stroke="black" d="M96.82,-282.86C101.75,-272.32 109.08,-259.31 118.5,-250 123.07,-245.48 128.33,-241.35 133.84,-237.63"/>
<polygon fill="black" stroke="black" points="136,-240.41 142.62,-232.14 132.29,-234.48 136,-240.41"/>
<text text-anchor="middle" x="144" y="-253.8" font-family="Times,serif" font-size="14.00">真的嗎?</text>
</g>
<!-- low_emotion -->
<g id="node4" class="node">
<title>low_emotion</title>
<polygon fill="none" stroke="black" points="110,-143 21,-143 21,-90 110,-90 110,-143"/>
<text text-anchor="middle" x="65.5" y="-127.8" font-family="Times,serif" font-size="14.00">低情緒衝擊</text>
<text text-anchor="middle" x="65.5" y="-112.8" font-family="Times,serif" font-size="14.00">的政治問題</text>
<text text-anchor="middle" x="65.5" y="-97.8" font-family="Times,serif" font-size="14.00">&#39;誰在主導?&#39;</text>
</g>
<!-- cases&#45;&gt;low_emotion -->
<g id="edge4" class="edge">
<title>cases&#45;&gt;low_emotion</title>
<path fill="none" stroke="black" d="M78.86,-282.99C71.52,-269.47 62.41,-250.23 58.5,-232 52.93,-205.99 55.07,-175.96 58.4,-153.18"/>
<polygon fill="black" stroke="black" points="61.86,-153.69 59.99,-143.26 54.95,-152.58 61.86,-153.69"/>
<text text-anchor="middle" x="91" y="-209.3" font-family="Times,serif" font-size="14.00">與我何干?</text>
</g>
<!-- fc_difficulty&#45;&gt;low_emotion -->
<g id="edge5" class="edge">
<title>fc_difficulty&#45;&gt;low_emotion</title>
<path fill="none" stroke="black" d="M160.75,-193.78C145.18,-181.31 124.12,-164.45 105.77,-149.75"/>
<polygon fill="black" stroke="black" points="107.54,-146.69 97.55,-143.17 103.17,-152.15 107.54,-146.69"/>
<text text-anchor="middle" x="171" y="-164.8" font-family="Times,serif" font-size="14.00">與我何干?</text>
</g>
<!-- accountability -->
<g id="node5" class="node">
<title>accountability</title>
<polygon fill="none" stroke="black" points="131,-53 0,-53 0,0 131,0 131,-53"/>
<text text-anchor="middle" x="65.5" y="-37.8" font-family="Times,serif" font-size="14.00">權責相稱</text>
<text text-anchor="middle" x="65.5" y="-22.8" font-family="Times,serif" font-size="14.00">accountability、</text>
<text text-anchor="middle" x="65.5" y="-7.8" font-family="Times,serif" font-size="14.00">習近平的指示</text>
</g>
<!-- low_emotion&#45;&gt;accountability -->
<g id="edge6" class="edge">
<title>low_emotion&#45;&gt;accountability</title>
<path fill="none" stroke="black" d="M65.5,-89.57C65.5,-81.34 65.5,-72.08 65.5,-63.28"/>
<polygon fill="black" stroke="black" points="69,-63.24 65.5,-53.24 62,-63.24 69,-63.24"/>
</g>
</g>
</svg>
