<?xml version="1.0" encoding="UTF-8" standalone="no"?>
<!DOCTYPE svg PUBLIC "-//W3C//DTD SVG 1.1//EN"
 "http://www.w3.org/Graphics/SVG/1.1/DTD/svg11.dtd">
<!-- Generated by graphviz version 2.42.4 (0)
 -->
<!-- Title: ResidentKey Pages: 1 -->
<svg width="368pt" height="517pt"
 viewBox="0.00 0.00 367.70 516.69" xmlns="http://www.w3.org/2000/svg" xmlns:xlink="http://www.w3.org/1999/xlink">
<g id="graph0" class="graph" transform="scale(1 1) rotate(0) translate(4 512.69)">
<title>ResidentKey</title>
<polygon fill="white" stroke="transparent" points="-4,4 -4,-512.69 363.7,-512.69 363.7,4 -4,4"/>
<text text-anchor="middle" x="179.85" y="-493.49" font-family="Times,serif" font-size="14.00">generating a</text>
<text text-anchor="middle" x="179.85" y="-478.49" font-family="Times,serif" font-size="14.00">Resident Key / Passkey /</text>
<text text-anchor="middle" x="179.85" y="-463.49" font-family="Times,serif" font-size="14.00">Discoverable Credential</text>
<g id="clust1" class="cluster">
<title>cluster_authenticator</title>
<path fill="#ffc0c0" stroke="black" d="M20,-153.74C20,-153.74 264,-153.74 264,-153.74 270,-153.74 276,-159.74 276,-165.74 276,-165.74 276,-399.69 276,-399.69 276,-405.69 270,-411.69 264,-411.69 264,-411.69 20,-411.69 20,-411.69 14,-411.69 8,-405.69 8,-399.69 8,-399.69 8,-165.74 8,-165.74 8,-159.74 14,-153.74 20,-153.74"/>
<text text-anchor="middle" x="142" y="-396.49" font-family="Times,serif" font-size="14.00">Authenticator</text>
</g>
<!-- MasterKey -->
<g id="node1" class="node">
<title>MasterKey</title>
<ellipse fill="none" stroke="black" cx="131" cy="-362.69" rx="96.68" ry="18"/>
<text text-anchor="middle" x="131" y="-358.99" font-family="Times,serif" font-size="14.00">Master Secret Key</text>
</g>
<!-- KDF -->
<g id="node2" class="node">
<title>KDF</title>
<polygon fill="#ffffff" stroke="black" points="252,-308.69 62,-308.69 62,-272.69 252,-272.69 252,-308.69"/>
<text text-anchor="middle" x="157" y="-286.99" font-family="Times,serif" font-size="14.00">Key Derivation Function</text>
</g>
<!-- MasterKey&#45;&gt;KDF -->
<g id="edge1" class="edge">
<title>MasterKey&#45;&gt;KDF</title>
<path fill="none" stroke="black" d="M137.43,-344.39C140.36,-336.51 143.89,-327 147.14,-318.24"/>
<polygon fill="black" stroke="black" points="150.45,-319.39 150.65,-308.8 143.88,-316.95 150.45,-319.39"/>
</g>
<!-- ResidentKey -->
<g id="node3" class="node">
<title>ResidentKey</title>
<ellipse fill="none" stroke="black" cx="142" cy="-199.22" rx="125.73" ry="37.45"/>
<text text-anchor="middle" x="142" y="-210.52" font-family="Times,serif" font-size="14.00">credential data of a</text>
<text text-anchor="middle" x="142" y="-195.52" font-family="Times,serif" font-size="14.00">resident key</text>
<text text-anchor="middle" x="142" y="-180.52" font-family="Times,serif" font-size="14.00">(including private key)</text>
</g>
<!-- KDF&#45;&gt;ResidentKey -->
<g id="edge4" class="edge">
<title>KDF&#45;&gt;ResidentKey</title>
<path fill="none" stroke="black" d="M154.11,-272.44C152.86,-264.98 151.33,-255.86 149.78,-246.64"/>
<polygon fill="black" stroke="black" points="153.22,-245.96 148.11,-236.67 146.31,-247.12 153.22,-245.96"/>
</g>
<!-- PubKey -->
<g id="node6" class="node">
<title>PubKey</title>
<ellipse fill="none" stroke="black" cx="142" cy="-98.87" rx="77.56" ry="26.74"/>
<text text-anchor="middle" x="142" y="-102.67" font-family="Times,serif" font-size="14.00">public key +</text>
<text text-anchor="middle" x="142" y="-87.67" font-family="Times,serif" font-size="14.00">credential ID</text>
</g>
<!-- ResidentKey&#45;&gt;PubKey -->
<g id="edge5" class="edge">
<title>ResidentKey&#45;&gt;PubKey</title>
<path fill="none" stroke="black" d="M142,-161.6C142,-153.23 142,-144.33 142,-135.98"/>
<polygon fill="black" stroke="black" points="145.5,-135.78 142,-125.78 138.5,-135.78 145.5,-135.78"/>
</g>
<!-- RP_ID -->
<g id="node4" class="node">
<title>RP_ID</title>
<ellipse fill="none" stroke="black" cx="322" cy="-362.69" rx="37.89" ry="18"/>
<text text-anchor="middle" x="322" y="-358.99" font-family="Times,serif" font-size="14.00">RP ID</text>
</g>
<!-- RP_ID&#45;&gt;KDF -->
<g id="edge2" class="edge">
<title>RP_ID&#45;&gt;KDF</title>
<path fill="none" stroke="black" d="M294.75,-350.13C270.91,-340.02 235.66,-325.06 206.79,-312.81"/>
<polygon fill="black" stroke="black" points="207.84,-309.46 197.26,-308.78 205.1,-315.9 207.84,-309.46"/>
</g>
<!-- User_ID -->
<g id="node5" class="node">
<title>User_ID</title>
<ellipse fill="none" stroke="black" cx="289" cy="-437.69" rx="46.59" ry="18"/>
<text text-anchor="middle" x="289" y="-433.99" font-family="Times,serif" font-size="14.00">User ID</text>
</g>
<!-- User_ID&#45;&gt;KDF -->
<g id="edge3" class="edge">
<title>User_ID&#45;&gt;KDF</title>
<path fill="none" stroke="black" d="M279.63,-419.99C264.85,-393.69 237.73,-345.47 237,-344.69 226.01,-332.89 211.89,-322.44 198.58,-314"/>
<polygon fill="black" stroke="black" points="200.35,-310.98 190,-308.75 196.7,-316.96 200.35,-310.98"/>
</g>
<!-- User_ID&#45;&gt;RP_ID -->
<!-- RP_DB -->
<g id="node7" class="node">
<title>RP_DB</title>
<path fill="none" stroke="black" d="M196,-32.73C196,-34.53 171.8,-36 142,-36 112.2,-36 88,-34.53 88,-32.73 88,-32.73 88,-3.27 88,-3.27 88,-1.47 112.2,0 142,0 171.8,0 196,-1.47 196,-3.27 196,-3.27 196,-32.73 196,-32.73"/>
<path fill="none" stroke="black" d="M196,-32.73C196,-30.92 171.8,-29.45 142,-29.45 112.2,-29.45 88,-30.92 88,-32.73"/>
<text text-anchor="middle" x="142" y="-14.3" font-family="Times,serif" font-size="14.00">RP Database</text>
</g>
<!-- PubKey&#45;&gt;RP_DB -->
<g id="edge6" class="edge">
<title>PubKey&#45;&gt;RP_DB</title>
<path fill="none" stroke="black" d="M142,-71.61C142,-63.51 142,-54.57 142,-46.39"/>
<polygon fill="black" stroke="black" points="145.5,-46.22 142,-36.22 138.5,-46.22 145.5,-46.22"/>
</g>
</g>
</svg>
