<?xml version="1.0" encoding="UTF-8" standalone="no"?>
<!DOCTYPE svg PUBLIC "-//W3C//DTD SVG 1.1//EN"
 "http://www.w3.org/Graphics/SVG/1.1/DTD/svg11.dtd">
<!-- Generated by graphviz version 2.43.0 (0)
 -->
<!-- Title: PhysicsConcepts Pages: 1 -->
<svg width="766pt" height="396pt"
 viewBox="0.00 0.00 765.50 396.00" xmlns="http://www.w3.org/2000/svg" xmlns:xlink="http://www.w3.org/1999/xlink">
<g id="graph0" class="graph" transform="scale(1 1) rotate(0) translate(4 392)">
<title>PhysicsConcepts</title>
<polygon fill="white" stroke="transparent" points="-4,4 -4,-392 761.5,-392 761.5,4 -4,4"/>
<text text-anchor="middle" x="378.75" y="-372.8" font-family="Times,serif" font-size="14.00">一些物理觀念及因次</text>
<!-- velocity -->
<g id="node1" class="node">
<title>velocity</title>
<polygon fill="none" stroke="black" points="415,-261 340,-261 340,-208 415,-208 415,-261"/>
<text text-anchor="middle" x="377.5" y="-245.8" font-family="Times,serif" font-size="14.00">velocity</text>
<text text-anchor="middle" x="377.5" y="-230.8" font-family="Times,serif" font-size="14.00">速度</text>
<text text-anchor="middle" x="377.5" y="-215.8" font-family="Times,serif" font-size="14.00">[L T^&#45;1]</text>
</g>
<!-- momentum -->
<g id="node4" class="node">
<title>momentum</title>
<polygon fill="none" stroke="black" points="426.5,-157 328.5,-157 328.5,-104 426.5,-104 426.5,-157"/>
<text text-anchor="middle" x="377.5" y="-141.8" font-family="Times,serif" font-size="14.00">momentum</text>
<text text-anchor="middle" x="377.5" y="-126.8" font-family="Times,serif" font-size="14.00">動量</text>
<text text-anchor="middle" x="377.5" y="-111.8" font-family="Times,serif" font-size="14.00">[M L T^&#45;1]</text>
</g>
<!-- velocity&#45;&gt;momentum -->
<g id="edge4" class="edge">
<title>velocity&#45;&gt;momentum</title>
<path fill="none" stroke="black" d="M377.5,-207.76C377.5,-195.56 377.5,-180.78 377.5,-167.49"/>
<polygon fill="black" stroke="black" points="381,-167.23 377.5,-157.23 374,-167.23 381,-167.23"/>
<text text-anchor="middle" x="385" y="-178.8" font-family="Times,serif" font-size="14.00">M</text>
</g>
<!-- acceleration -->
<g id="node2" class="node">
<title>acceleration</title>
<polygon fill="none" stroke="black" points="421.5,-365 317.5,-365 317.5,-312 421.5,-312 421.5,-365"/>
<text text-anchor="middle" x="369.5" y="-349.8" font-family="Times,serif" font-size="14.00">acceleration</text>
<text text-anchor="middle" x="369.5" y="-334.8" font-family="Times,serif" font-size="14.00">加速度</text>
<text text-anchor="middle" x="369.5" y="-319.8" font-family="Times,serif" font-size="14.00">[L T^&#45;2]</text>
</g>
<!-- acceleration&#45;&gt;velocity -->
<g id="edge1" class="edge">
<title>acceleration&#45;&gt;velocity</title>
<path fill="none" stroke="black" d="M371.52,-311.76C372.48,-299.56 373.63,-284.78 374.68,-271.49"/>
<polygon fill="black" stroke="black" points="378.19,-271.47 375.48,-261.23 371.21,-270.93 378.19,-271.47"/>
<text text-anchor="middle" x="378.5" y="-282.8" font-family="Times,serif" font-size="14.00">T</text>
</g>
<!-- force -->
<g id="node3" class="node">
<title>force</title>
<polygon fill="none" stroke="black" points="321.5,-261 227.5,-261 227.5,-208 321.5,-208 321.5,-261"/>
<text text-anchor="middle" x="274.5" y="-245.8" font-family="Times,serif" font-size="14.00">force</text>
<text text-anchor="middle" x="274.5" y="-230.8" font-family="Times,serif" font-size="14.00">力</text>
<text text-anchor="middle" x="274.5" y="-215.8" font-family="Times,serif" font-size="14.00">[M L T^&#45;2]</text>
</g>
<!-- acceleration&#45;&gt;force -->
<g id="edge2" class="edge">
<title>acceleration&#45;&gt;force</title>
<path fill="none" stroke="black" d="M345.53,-311.76C333.38,-298.71 318.48,-282.72 305.47,-268.75"/>
<polygon fill="black" stroke="black" points="307.84,-266.16 298.46,-261.23 302.72,-270.93 307.84,-266.16"/>
<text text-anchor="middle" x="336" y="-282.8" font-family="Times,serif" font-size="14.00">M</text>
</g>
<!-- force&#45;&gt;momentum -->
<g id="edge3" class="edge">
<title>force&#45;&gt;momentum</title>
<path fill="none" stroke="black" d="M300.49,-207.76C313.79,-194.59 330.12,-178.42 344.32,-164.36"/>
<polygon fill="black" stroke="black" points="346.87,-166.75 351.52,-157.23 341.95,-161.78 346.87,-166.75"/>
<text text-anchor="middle" x="336.5" y="-178.8" font-family="Times,serif" font-size="14.00">T</text>
</g>
<!-- torque -->
<g id="node7" class="node">
<title>torque</title>
<polygon fill="none" stroke="black" points="264,-157 149,-157 149,-104 264,-104 264,-157"/>
<text text-anchor="middle" x="206.5" y="-141.8" font-family="Times,serif" font-size="14.00">torque</text>
<text text-anchor="middle" x="206.5" y="-126.8" font-family="Times,serif" font-size="14.00">力矩</text>
<text text-anchor="middle" x="206.5" y="-111.8" font-family="Times,serif" font-size="14.00">[M L^2 T^&#45;2]</text>
</g>
<!-- force&#45;&gt;torque -->
<g id="edge8" class="edge">
<title>force&#45;&gt;torque</title>
<path fill="none" stroke="black" d="M257.34,-207.76C248.88,-195.08 238.57,-179.6 229.45,-165.92"/>
<polygon fill="black" stroke="black" points="232.11,-163.61 223.65,-157.23 226.29,-167.49 232.11,-163.61"/>
<text text-anchor="middle" x="250.5" y="-178.8" font-family="Times,serif" font-size="14.00">L</text>
</g>
<!-- work -->
<g id="node14" class="node">
<title>work</title>
<polygon fill="none" stroke="black" points="358,-53 243,-53 243,0 358,0 358,-53"/>
<text text-anchor="middle" x="300.5" y="-37.8" font-family="Times,serif" font-size="14.00">work</text>
<text text-anchor="middle" x="300.5" y="-22.8" font-family="Times,serif" font-size="14.00">功</text>
<text text-anchor="middle" x="300.5" y="-7.8" font-family="Times,serif" font-size="14.00">[M L^2 T^&#45;2]</text>
</g>
<!-- force&#45;&gt;work -->
<g id="edge5" class="edge">
<title>force&#45;&gt;work</title>
<path fill="none" stroke="black" d="M277.74,-207.83C282.34,-171.41 290.77,-104.61 295.98,-63.34"/>
<polygon fill="black" stroke="black" points="299.48,-63.53 297.26,-53.17 292.54,-62.66 299.48,-63.53"/>
<text text-anchor="middle" x="296.5" y="-126.8" font-family="Times,serif" font-size="14.00">L</text>
</g>
<!-- angular_velocity -->
<g id="node5" class="node">
<title>angular_velocity</title>
<polygon fill="none" stroke="black" points="131,-157 0,-157 0,-104 131,-104 131,-157"/>
<text text-anchor="middle" x="65.5" y="-141.8" font-family="Times,serif" font-size="14.00">angular velocity</text>
<text text-anchor="middle" x="65.5" y="-126.8" font-family="Times,serif" font-size="14.00">角速度</text>
<text text-anchor="middle" x="65.5" y="-111.8" font-family="Times,serif" font-size="14.00">[T^&#45;1]</text>
</g>
<!-- angular_momentum -->
<g id="node8" class="node">
<title>angular_momentum</title>
<polygon fill="none" stroke="black" points="220,-53 63,-53 63,0 220,0 220,-53"/>
<text text-anchor="middle" x="141.5" y="-37.8" font-family="Times,serif" font-size="14.00">angular momentum</text>
<text text-anchor="middle" x="141.5" y="-22.8" font-family="Times,serif" font-size="14.00">角動量</text>
<text text-anchor="middle" x="141.5" y="-7.8" font-family="Times,serif" font-size="14.00">[M L^2 T^&#45;1]</text>
</g>
<!-- angular_velocity&#45;&gt;angular_momentum -->
<g id="edge10" class="edge">
<title>angular_velocity&#45;&gt;angular_momentum</title>
<path fill="none" stroke="black" d="M84.68,-103.76C94.22,-90.96 105.88,-75.31 116.15,-61.53"/>
<polygon fill="black" stroke="black" points="119.16,-63.34 122.33,-53.23 113.55,-59.16 119.16,-63.34"/>
<text text-anchor="middle" x="116" y="-74.8" font-family="Times,serif" font-size="14.00">M</text>
</g>
<!-- angular_acceleration -->
<g id="node6" class="node">
<title>angular_acceleration</title>
<polygon fill="none" stroke="black" points="194,-261 31,-261 31,-208 194,-208 194,-261"/>
<text text-anchor="middle" x="112.5" y="-245.8" font-family="Times,serif" font-size="14.00">angular acceleration</text>
<text text-anchor="middle" x="112.5" y="-230.8" font-family="Times,serif" font-size="14.00">角加速度</text>
<text text-anchor="middle" x="112.5" y="-215.8" font-family="Times,serif" font-size="14.00">[T^&#45;2]</text>
</g>
<!-- angular_acceleration&#45;&gt;angular_velocity -->
<g id="edge9" class="edge">
<title>angular_acceleration&#45;&gt;angular_velocity</title>
<path fill="none" stroke="black" d="M100.64,-207.76C94.91,-195.32 87.94,-180.19 81.72,-166.7"/>
<polygon fill="black" stroke="black" points="84.72,-164.85 77.36,-157.23 78.36,-167.78 84.72,-164.85"/>
<text text-anchor="middle" x="97.5" y="-178.8" font-family="Times,serif" font-size="14.00">T</text>
</g>
<!-- angular_acceleration&#45;&gt;torque -->
<g id="edge11" class="edge">
<title>angular_acceleration&#45;&gt;torque</title>
<path fill="none" stroke="black" d="M136.22,-207.76C148.24,-194.71 162.99,-178.72 175.86,-164.75"/>
<polygon fill="black" stroke="black" points="178.58,-166.96 182.79,-157.23 173.44,-162.21 178.58,-166.96"/>
<text text-anchor="middle" x="173" y="-178.8" font-family="Times,serif" font-size="14.00">M</text>
</g>
<!-- torque&#45;&gt;angular_momentum -->
<g id="edge12" class="edge">
<title>torque&#45;&gt;angular_momentum</title>
<path fill="none" stroke="black" d="M190.1,-103.76C182.01,-91.08 172.15,-75.6 163.43,-61.92"/>
<polygon fill="black" stroke="black" points="166.22,-59.78 157.9,-53.23 160.32,-63.54 166.22,-59.78"/>
<text text-anchor="middle" x="183.5" y="-74.8" font-family="Times,serif" font-size="14.00">T</text>
</g>
<!-- torque&#45;&gt;work -->
<g id="edge6" class="edge">
<title>torque&#45;&gt;work</title>
<path fill="none" stroke="black" d="M230.22,-103.76C242.24,-90.71 256.99,-74.72 269.86,-60.75"/>
<polygon fill="black" stroke="black" points="272.58,-62.96 276.79,-53.23 267.44,-58.21 272.58,-62.96"/>
<text text-anchor="middle" x="264.5" y="-74.8" font-family="Times,serif" font-size="14.00">1</text>
</g>
<!-- voltage -->
<g id="node9" class="node">
<title>voltage</title>
<polygon fill="none" stroke="black" points="589.5,-261 439.5,-261 439.5,-208 589.5,-208 589.5,-261"/>
<text text-anchor="middle" x="514.5" y="-245.8" font-family="Times,serif" font-size="14.00">voltage</text>
<text text-anchor="middle" x="514.5" y="-230.8" font-family="Times,serif" font-size="14.00">電壓</text>
<text text-anchor="middle" x="514.5" y="-215.8" font-family="Times,serif" font-size="14.00">[M L^2 T^&#45;3 I^&#45;1]</text>
</g>
<!-- power -->
<g id="node13" class="node">
<title>power</title>
<polygon fill="none" stroke="black" points="562,-157 447,-157 447,-104 562,-104 562,-157"/>
<text text-anchor="middle" x="504.5" y="-141.8" font-family="Times,serif" font-size="14.00">power</text>
<text text-anchor="middle" x="504.5" y="-126.8" font-family="Times,serif" font-size="14.00">功率</text>
<text text-anchor="middle" x="504.5" y="-111.8" font-family="Times,serif" font-size="14.00">[M L^2 T^&#45;3]</text>
</g>
<!-- voltage&#45;&gt;power -->
<g id="edge13" class="edge">
<title>voltage&#45;&gt;power</title>
<path fill="none" stroke="black" d="M511.98,-207.76C510.78,-195.56 509.33,-180.78 508.03,-167.49"/>
<polygon fill="black" stroke="black" points="511.48,-166.84 507.02,-157.23 504.52,-167.52 511.48,-166.84"/>
<text text-anchor="middle" x="512.5" y="-178.8" font-family="Times,serif" font-size="14.00">I</text>
</g>
<!-- resistance -->
<g id="node10" class="node">
<title>resistance</title>
<polygon fill="none" stroke="black" points="757.5,-365 607.5,-365 607.5,-312 757.5,-312 757.5,-365"/>
<text text-anchor="middle" x="682.5" y="-349.8" font-family="Times,serif" font-size="14.00">resistance</text>
<text text-anchor="middle" x="682.5" y="-334.8" font-family="Times,serif" font-size="14.00">電阻</text>
<text text-anchor="middle" x="682.5" y="-319.8" font-family="Times,serif" font-size="14.00">[M L^2 T^&#45;3 I^&#45;2]</text>
</g>
<!-- resistance&#45;&gt;voltage -->
<g id="edge14" class="edge">
<title>resistance&#45;&gt;voltage</title>
<path fill="none" stroke="black" d="M640.11,-311.76C617.34,-297.94 589.11,-280.8 565.19,-266.28"/>
<polygon fill="black" stroke="black" points="566.95,-263.25 556.59,-261.05 563.32,-269.24 566.95,-263.25"/>
<text text-anchor="middle" x="611.5" y="-282.8" font-family="Times,serif" font-size="14.00">I</text>
</g>
<!-- elastance -->
<g id="node11" class="node">
<title>elastance</title>
<polygon fill="none" stroke="black" points="589.5,-365 439.5,-365 439.5,-312 589.5,-312 589.5,-365"/>
<text text-anchor="middle" x="514.5" y="-349.8" font-family="Times,serif" font-size="14.00">elastance</text>
<text text-anchor="middle" x="514.5" y="-334.8" font-family="Times,serif" font-size="14.00">倒電容</text>
<text text-anchor="middle" x="514.5" y="-319.8" font-family="Times,serif" font-size="14.00">[M L^2 T^&#45;4 I^&#45;2]</text>
</g>
<!-- elastance&#45;&gt;voltage -->
<g id="edge15" class="edge">
<title>elastance&#45;&gt;voltage</title>
<path fill="none" stroke="black" d="M514.5,-311.76C514.5,-299.56 514.5,-284.78 514.5,-271.49"/>
<polygon fill="black" stroke="black" points="518,-271.23 514.5,-261.23 511,-271.23 518,-271.23"/>
<text text-anchor="middle" x="524" y="-282.8" font-family="Times,serif" font-size="14.00">T I</text>
</g>
<!-- pressure -->
<g id="node12" class="node">
<title>pressure</title>
<polygon fill="none" stroke="black" points="299,-365 180,-365 180,-312 299,-312 299,-365"/>
<text text-anchor="middle" x="239.5" y="-349.8" font-family="Times,serif" font-size="14.00">pressure</text>
<text text-anchor="middle" x="239.5" y="-334.8" font-family="Times,serif" font-size="14.00">壓力</text>
<text text-anchor="middle" x="239.5" y="-319.8" font-family="Times,serif" font-size="14.00">[M L^&#45;1 T^&#45;2]</text>
</g>
<!-- pressure&#45;&gt;force -->
<g id="edge16" class="edge">
<title>pressure&#45;&gt;force</title>
<path fill="none" stroke="black" d="M248.25,-311.87C251.74,-301.64 255.81,-289.76 259.5,-279 260.42,-276.31 261.38,-273.52 262.35,-270.72"/>
<polygon fill="black" stroke="black" points="265.66,-271.85 265.61,-261.26 259.04,-269.57 265.66,-271.85"/>
<text text-anchor="middle" x="275" y="-282.8" font-family="Times,serif" font-size="14.00">L^2</text>
</g>
<!-- power&#45;&gt;work -->
<g id="edge7" class="edge">
<title>power&#45;&gt;work</title>
<path fill="none" stroke="black" d="M453.29,-103.89C425.28,-89.89 390.41,-72.45 361.06,-57.78"/>
<polygon fill="black" stroke="black" points="362.25,-54.46 351.74,-53.12 359.11,-60.72 362.25,-54.46"/>
<text text-anchor="middle" x="419.5" y="-74.8" font-family="Times,serif" font-size="14.00">T</text>
</g>
</g>
</svg>
