<?xml version="1.0" encoding="UTF-8" standalone="no"?>
<!DOCTYPE svg PUBLIC "-//W3C//DTD SVG 1.1//EN"
 "http://www.w3.org/Graphics/SVG/1.1/DTD/svg11.dtd">
<!-- Generated by graphviz version 2.38.0 (20140413.2041)
 -->
<!-- Title: hyponym graph of [&#39;ape&#39;] Pages: 1 -->
<svg width="1541pt" height="421pt"
 viewBox="0.00 0.00 1541.16 420.70" xmlns="http://www.w3.org/2000/svg" xmlns:xlink="http://www.w3.org/1999/xlink">
<g id="graph0" class="graph" transform="scale(1 1) rotate(0) translate(4 416.701)">
<title>hyponym graph of [&#39;ape&#39;]</title>
<polygon fill="white" stroke="none" points="-4,4 -4,-416.701 1537.16,-416.701 1537.16,4 -4,4"/>
<!-- anthropoid_ape\nn02470899 -->
<g id="node1" class="node"><title>anthropoid_ape\nn02470899</title>
<ellipse fill="none" stroke="black" cx="1287.39" cy="-296.09" rx="71.3357" ry="26.7407"/>
<text text-anchor="middle" x="1287.39" y="-299.89" font-family="Times,serif" font-size="14.00">anthropoid_ape</text>
<text text-anchor="middle" x="1287.39" y="-284.89" font-family="Times,serif" font-size="14.00">n02470899</text>
</g>
<!-- ape\nn02470325 -->
<g id="node2" class="node"><title>ape\nn02470325</title>
<ellipse fill="none" stroke="black" cx="1287.39" cy="-385.831" rx="54.3945" ry="26.7407"/>
<text text-anchor="middle" x="1287.39" y="-389.631" font-family="Times,serif" font-size="14.00">ape</text>
<text text-anchor="middle" x="1287.39" y="-374.631" font-family="Times,serif" font-size="14.00">n02470325</text>
</g>
<!-- anthropoid_ape\nn02470899&#45;&gt;ape\nn02470325 -->
<g id="edge1" class="edge"><title>anthropoid_ape\nn02470899&#45;&gt;ape\nn02470325</title>
<path fill="none" stroke="black" d="M1287.39,-323.415C1287.39,-331.382 1287.39,-340.273 1287.39,-348.761"/>
<polygon fill="black" stroke="black" points="1283.89,-348.826 1287.39,-358.827 1290.89,-348.827 1283.89,-348.826"/>
</g>
<!-- great_ape\nn02480153 -->
<g id="node3" class="node"><title>great_ape\nn02480153</title>
<ellipse fill="none" stroke="black" cx="1160.39" cy="-206.35" rx="54.3945" ry="26.7407"/>
<text text-anchor="middle" x="1160.39" y="-210.15" font-family="Times,serif" font-size="14.00">great_ape</text>
<text text-anchor="middle" x="1160.39" y="-195.15" font-family="Times,serif" font-size="14.00">n02480153</text>
</g>
<!-- great_ape\nn02480153&#45;&gt;anthropoid_ape\nn02470899 -->
<g id="edge2" class="edge"><title>great_ape\nn02480153&#45;&gt;anthropoid_ape\nn02470899</title>
<path fill="none" stroke="black" d="M1191.13,-228.59C1207.53,-239.922 1227.95,-254.028 1245.76,-266.329"/>
<polygon fill="black" stroke="black" points="1244.04,-269.398 1254.26,-272.202 1248.02,-263.639 1244.04,-269.398"/>
</g>
<!-- lesser_ape\nn02483092 -->
<g id="node4" class="node"><title>lesser_ape\nn02483092</title>
<ellipse fill="none" stroke="black" cx="1351.39" cy="-206.35" rx="54.3945" ry="26.7407"/>
<text text-anchor="middle" x="1351.39" y="-210.15" font-family="Times,serif" font-size="14.00">lesser_ape</text>
<text text-anchor="middle" x="1351.39" y="-195.15" font-family="Times,serif" font-size="14.00">n02483092</text>
</g>
<!-- lesser_ape\nn02483092&#45;&gt;anthropoid_ape\nn02470899 -->
<g id="edge3" class="edge"><title>lesser_ape\nn02483092&#45;&gt;anthropoid_ape\nn02470899</title>
<path fill="none" stroke="black" d="M1333.56,-231.791C1326.8,-241.061 1318.98,-251.781 1311.72,-261.734"/>
<polygon fill="black" stroke="black" points="1308.85,-259.723 1305.79,-269.865 1314.51,-263.848 1308.85,-259.723"/>
</g>
<!-- gibbon\nn02483362 -->
<g id="node5" class="node"><title>gibbon\nn02483362</title>
<ellipse fill="none" stroke="black" cx="1351.39" cy="-116.61" rx="54.3945" ry="26.7407"/>
<text text-anchor="middle" x="1351.39" y="-120.41" font-family="Times,serif" font-size="14.00">gibbon</text>
<text text-anchor="middle" x="1351.39" y="-105.41" font-family="Times,serif" font-size="14.00">n02483362</text>
</g>
<!-- gibbon\nn02483362&#45;&gt;lesser_ape\nn02483092 -->
<g id="edge4" class="edge"><title>gibbon\nn02483362&#45;&gt;lesser_ape\nn02483092</title>
<path fill="none" stroke="black" d="M1351.39,-143.935C1351.39,-151.902 1351.39,-160.793 1351.39,-169.281"/>
<polygon fill="black" stroke="black" points="1347.89,-169.346 1351.39,-179.346 1354.89,-169.346 1347.89,-169.346"/>
</g>
<!-- siamang\nn02483708 -->
<g id="node6" class="node"><title>siamang\nn02483708</title>
<ellipse fill="none" stroke="black" cx="1478.39" cy="-116.61" rx="54.3945" ry="26.7407"/>
<text text-anchor="middle" x="1478.39" y="-120.41" font-family="Times,serif" font-size="14.00">siamang</text>
<text text-anchor="middle" x="1478.39" y="-105.41" font-family="Times,serif" font-size="14.00">n02483708</text>
</g>
<!-- siamang\nn02483708&#45;&gt;lesser_ape\nn02483092 -->
<g id="edge5" class="edge"><title>siamang\nn02483708&#45;&gt;lesser_ape\nn02483092</title>
<path fill="none" stroke="black" d="M1447.65,-138.85C1430.61,-150.617 1409.25,-165.377 1390.98,-178"/>
<polygon fill="black" stroke="black" points="1388.53,-175.439 1382.29,-184.002 1392.51,-181.198 1388.53,-175.439"/>
</g>
<!-- chimpanzee\nn02481823 -->
<g id="node7" class="node"><title>chimpanzee\nn02481823</title>
<ellipse fill="none" stroke="black" cx="482.388" cy="-116.61" rx="57.9655" ry="26.7407"/>
<text text-anchor="middle" x="482.388" y="-120.41" font-family="Times,serif" font-size="14.00">chimpanzee</text>
<text text-anchor="middle" x="482.388" y="-105.41" font-family="Times,serif" font-size="14.00">n02481823</text>
</g>
<!-- chimpanzee\nn02481823&#45;&gt;great_ape\nn02480153 -->
<g id="edge6" class="edge"><title>chimpanzee\nn02481823&#45;&gt;great_ape\nn02480153</title>
<path fill="none" stroke="black" d="M537.872,-124.79C662.889,-140.969 965.932,-180.186 1097.59,-197.223"/>
<polygon fill="black" stroke="black" points="1097.53,-200.745 1107.9,-198.558 1098.43,-193.803 1097.53,-200.745"/>
</g>
<!-- gorilla\nn02480855 -->
<g id="node8" class="node"><title>gorilla\nn02480855</title>
<ellipse fill="none" stroke="black" cx="1097.39" cy="-116.61" rx="54.3945" ry="26.7407"/>
<text text-anchor="middle" x="1097.39" y="-120.41" font-family="Times,serif" font-size="14.00">gorilla</text>
<text text-anchor="middle" x="1097.39" y="-105.41" font-family="Times,serif" font-size="14.00">n02480855</text>
</g>
<!-- gorilla\nn02480855&#45;&gt;great_ape\nn02480153 -->
<g id="edge7" class="edge"><title>gorilla\nn02480855&#45;&gt;great_ape\nn02480153</title>
<path fill="none" stroke="black" d="M1114.94,-142.051C1121.71,-151.479 1129.55,-162.407 1136.8,-172.503"/>
<polygon fill="black" stroke="black" points="1134.04,-174.655 1142.71,-180.737 1139.73,-170.572 1134.04,-174.655"/>
</g>
<!-- orangutan\nn02480495 -->
<g id="node9" class="node"><title>orangutan\nn02480495</title>
<ellipse fill="none" stroke="black" cx="1224.39" cy="-116.61" rx="54.3945" ry="26.7407"/>
<text text-anchor="middle" x="1224.39" y="-120.41" font-family="Times,serif" font-size="14.00">orangutan</text>
<text text-anchor="middle" x="1224.39" y="-105.41" font-family="Times,serif" font-size="14.00">n02480495</text>
</g>
<!-- orangutan\nn02480495&#45;&gt;great_ape\nn02480153 -->
<g id="edge8" class="edge"><title>orangutan\nn02480495&#45;&gt;great_ape\nn02480153</title>
<path fill="none" stroke="black" d="M1206.56,-142.051C1199.68,-151.479 1191.71,-162.407 1184.35,-172.503"/>
<polygon fill="black" stroke="black" points="1181.41,-170.595 1178.34,-180.737 1187.06,-174.72 1181.41,-170.595"/>
</g>
<!-- eastern_lowland_gorilla\nn02481235 -->
<g id="node10" class="node"><title>eastern_lowland_gorilla\nn02481235</title>
<ellipse fill="none" stroke="black" cx="897.388" cy="-26.8701" rx="103.889" ry="26.7407"/>
<text text-anchor="middle" x="897.388" y="-30.6701" font-family="Times,serif" font-size="14.00">eastern_lowland_gorilla</text>
<text text-anchor="middle" x="897.388" y="-15.6701" font-family="Times,serif" font-size="14.00">n02481235</text>
</g>
<!-- eastern_lowland_gorilla\nn02481235&#45;&gt;gorilla\nn02480855 -->
<g id="edge9" class="edge"><title>eastern_lowland_gorilla\nn02481235&#45;&gt;gorilla\nn02480855</title>
<path fill="none" stroke="black" d="M948.634,-50.3514C979.233,-63.7753 1017.9,-80.7367 1048.14,-94.0027"/>
<polygon fill="black" stroke="black" points="1047.07,-97.3585 1057.64,-98.1709 1049.88,-90.9482 1047.07,-97.3585"/>
</g>
<!-- mountain_gorilla\nn02481366 -->
<g id="node11" class="node"><title>mountain_gorilla\nn02481366</title>
<ellipse fill="none" stroke="black" cx="1097.39" cy="-26.8701" rx="77.5641" ry="26.7407"/>
<text text-anchor="middle" x="1097.39" y="-30.6701" font-family="Times,serif" font-size="14.00">mountain_gorilla</text>
<text text-anchor="middle" x="1097.39" y="-15.6701" font-family="Times,serif" font-size="14.00">n02481366</text>
</g>
<!-- mountain_gorilla\nn02481366&#45;&gt;gorilla\nn02480855 -->
<g id="edge10" class="edge"><title>mountain_gorilla\nn02481366&#45;&gt;gorilla\nn02480855</title>
<path fill="none" stroke="black" d="M1097.39,-54.195C1097.39,-62.1617 1097.39,-71.0527 1097.39,-79.5411"/>
<polygon fill="black" stroke="black" points="1093.89,-79.6062 1097.39,-89.6062 1100.89,-79.6062 1093.89,-79.6062"/>
</g>
<!-- silverback\nn02481500 -->
<g id="node12" class="node"><title>silverback\nn02481500</title>
<ellipse fill="none" stroke="black" cx="1247.39" cy="-26.8701" rx="54.3945" ry="26.7407"/>
<text text-anchor="middle" x="1247.39" y="-30.6701" font-family="Times,serif" font-size="14.00">silverback</text>
<text text-anchor="middle" x="1247.39" y="-15.6701" font-family="Times,serif" font-size="14.00">n02481500</text>
</g>
<!-- silverback\nn02481500&#45;&gt;gorilla\nn02480855 -->
<g id="edge11" class="edge"><title>silverback\nn02481500&#45;&gt;gorilla\nn02480855</title>
<path fill="none" stroke="black" d="M1212.98,-47.9994C1191.44,-60.5948 1163.52,-76.9265 1140.52,-90.3831"/>
<polygon fill="black" stroke="black" points="1138.51,-87.5043 1131.64,-95.5745 1142.04,-93.5465 1138.51,-87.5043"/>
</g>
<!-- western_lowland_gorilla\nn02481103 -->
<g id="node13" class="node"><title>western_lowland_gorilla\nn02481103</title>
<ellipse fill="none" stroke="black" cx="1426.39" cy="-26.8701" rx="106.547" ry="26.7407"/>
<text text-anchor="middle" x="1426.39" y="-30.6701" font-family="Times,serif" font-size="14.00">western_lowland_gorilla</text>
<text text-anchor="middle" x="1426.39" y="-15.6701" font-family="Times,serif" font-size="14.00">n02481103</text>
</g>
<!-- western_lowland_gorilla\nn02481103&#45;&gt;gorilla\nn02480855 -->
<g id="edge12" class="edge"><title>western_lowland_gorilla\nn02481103&#45;&gt;gorilla\nn02480855</title>
<path fill="none" stroke="black" d="M1348.79,-45.3443C1277.18,-61.5759 1179.29,-84.0694 1161.39,-89.7401 1156.78,-91.2012 1152.03,-92.845 1147.3,-94.5774"/>
<polygon fill="black" stroke="black" points="1145.78,-91.4094 1137.67,-98.2278 1148.26,-97.9546 1145.78,-91.4094"/>
</g>
<!-- central_chimpanzee\nn02482474 -->
<g id="node14" class="node"><title>central_chimpanzee\nn02482474</title>
<ellipse fill="none" stroke="black" cx="88.3883" cy="-26.8701" rx="88.2768" ry="26.7407"/>
<text text-anchor="middle" x="88.3883" y="-30.6701" font-family="Times,serif" font-size="14.00">central_chimpanzee</text>
<text text-anchor="middle" x="88.3883" y="-15.6701" font-family="Times,serif" font-size="14.00">n02482474</text>
</g>
<!-- central_chimpanzee\nn02482474&#45;&gt;chimpanzee\nn02481823 -->
<g id="edge13" class="edge"><title>central_chimpanzee\nn02482474&#45;&gt;chimpanzee\nn02481823</title>
<path fill="none" stroke="black" d="M152.439,-45.4879C163.405,-48.3505 174.705,-51.2047 185.388,-53.7401 265.684,-72.7956 358.948,-91.7022 419.226,-103.504"/>
<polygon fill="black" stroke="black" points="418.862,-106.999 429.348,-105.479 420.203,-100.128 418.862,-106.999"/>
</g>
<!-- eastern_chimpanzee\nn02482286 -->
<g id="node15" class="node"><title>eastern_chimpanzee\nn02482286</title>
<ellipse fill="none" stroke="black" cx="284.388" cy="-26.8701" rx="89.6056" ry="26.7407"/>
<text text-anchor="middle" x="284.388" y="-30.6701" font-family="Times,serif" font-size="14.00">eastern_chimpanzee</text>
<text text-anchor="middle" x="284.388" y="-15.6701" font-family="Times,serif" font-size="14.00">n02482286</text>
</g>
<!-- eastern_chimpanzee\nn02482286&#45;&gt;chimpanzee\nn02481823 -->
<g id="edge14" class="edge"><title>eastern_chimpanzee\nn02482286&#45;&gt;chimpanzee\nn02481823</title>
<path fill="none" stroke="black" d="M333.332,-49.5586C363.299,-62.838 401.57,-79.7971 431.829,-93.2058"/>
<polygon fill="black" stroke="black" points="430.791,-96.5739 441.351,-97.4254 433.627,-90.1741 430.791,-96.5739"/>
</g>
<!-- pygmy_chimpanzee\nn02482650 -->
<g id="node16" class="node"><title>pygmy_chimpanzee\nn02482650</title>
<ellipse fill="none" stroke="black" cx="482.388" cy="-26.8701" rx="89.6056" ry="26.7407"/>
<text text-anchor="middle" x="482.388" y="-30.6701" font-family="Times,serif" font-size="14.00">pygmy_chimpanzee</text>
<text text-anchor="middle" x="482.388" y="-15.6701" font-family="Times,serif" font-size="14.00">n02482650</text>
</g>
<!-- pygmy_chimpanzee\nn02482650&#45;&gt;chimpanzee\nn02481823 -->
<g id="edge15" class="edge"><title>pygmy_chimpanzee\nn02482650&#45;&gt;chimpanzee\nn02481823</title>
<path fill="none" stroke="black" d="M482.388,-54.195C482.388,-62.1617 482.388,-71.0527 482.388,-79.5411"/>
<polygon fill="black" stroke="black" points="478.888,-79.6062 482.388,-89.6062 485.888,-79.6062 478.888,-79.6062"/>
</g>
<!-- western_chimpanzee\nn02482060 -->
<g id="node17" class="node"><title>western_chimpanzee\nn02482060</title>
<ellipse fill="none" stroke="black" cx="682.388" cy="-26.8701" rx="92.7622" ry="26.7407"/>
<text text-anchor="middle" x="682.388" y="-30.6701" font-family="Times,serif" font-size="14.00">western_chimpanzee</text>
<text text-anchor="middle" x="682.388" y="-15.6701" font-family="Times,serif" font-size="14.00">n02482060</text>
</g>
<!-- western_chimpanzee\nn02482060&#45;&gt;chimpanzee\nn02481823 -->
<g id="edge16" class="edge"><title>western_chimpanzee\nn02482060&#45;&gt;chimpanzee\nn02481823</title>
<path fill="none" stroke="black" d="M632.693,-49.6714C602.184,-63.0558 563.228,-80.146 532.62,-93.5735"/>
<polygon fill="black" stroke="black" points="531.159,-90.3923 523.408,-97.615 533.971,-96.8026 531.159,-90.3923"/>
</g>
</g>
</svg>
