<?xml version="1.0" encoding="UTF-8" standalone="no"?>
<!DOCTYPE svg PUBLIC "-//W3C//DTD SVG 1.1//EN"
 "http://www.w3.org/Graphics/SVG/1.1/DTD/svg11.dtd">
<!-- Generated by graphviz version 2.38.0 (20140413.2041)
 -->
<!-- Title: Docker 常用指令 Pages: 1 -->
<svg width="451pt" height="371pt"
 viewBox="0.00 0.00 450.54 370.91" xmlns="http://www.w3.org/2000/svg" xmlns:xlink="http://www.w3.org/1999/xlink">
<g id="graph0" class="graph" transform="scale(1 1) rotate(0) translate(4 366.907)">
<title>Docker 常用指令</title>
<polygon fill="white" stroke="none" points="-4,4 -4,-366.907 446.539,-366.907 446.539,4 -4,4"/>
<!-- source -->
<g id="node1" class="node"><title>source</title>
<polygon fill="none" stroke="black" points="200.039,-52.2132 123.039,-52.2132 123.039,-14.2132 200.039,-14.2132 200.039,-52.2132"/>
<text text-anchor="middle" x="161.539" y="-37.0132" font-family="Times,serif" font-size="14.00">A: 原始碼</text>
<text text-anchor="middle" x="161.539" y="-22.0132" font-family="Times,serif" font-size="14.00">docker file</text>
</g>
<!-- image -->
<g id="node2" class="node"><title>image</title>
<polygon fill="none" stroke="black" points="377.892,-43.543 311.539,-66.641 245.186,-43.543 245.248,-6.16955 377.83,-6.16955 377.892,-43.543"/>
<text text-anchor="middle" x="311.539" y="-37.0132" font-family="Times,serif" font-size="14.00">B: 映像檔</text>
<text text-anchor="middle" x="311.539" y="-22.0132" font-family="Times,serif" font-size="14.00">image</text>
</g>
<!-- source&#45;&gt;image -->
<g id="edge1" class="edge"><title>source&#45;&gt;image</title>
<path fill="none" stroke="black" d="M200.168,-33.2132C210.883,-33.2132 222.905,-33.2132 234.98,-33.2132"/>
<polygon fill="black" stroke="black" points="235.109,-36.7133 245.109,-33.2132 235.109,-29.7133 235.109,-36.7133"/>
<text text-anchor="middle" x="222.576" y="-19.0132" font-family="Times,serif" font-size="14.00">build</text>
</g>
<!-- attached -->
<g id="node3" class="node"><title>attached</title>
<ellipse fill="none" stroke="black" cx="73.5391" cy="-144.296" rx="73.5782" ry="26.7407"/>
<text text-anchor="middle" x="73.5391" y="-148.096" font-family="Times,serif" font-size="14.00">C: 前景執行中</text>
<text text-anchor="middle" x="73.5391" y="-133.096" font-family="Times,serif" font-size="14.00">up, attached</text>
</g>
<!-- image&#45;&gt;attached -->
<g id="edge3" class="edge"><title>image&#45;&gt;attached</title>
<path fill="none" stroke="black" d="M271.166,-52.7177C231.628,-70.8392 171.129,-98.5676 127.485,-118.571"/>
<polygon fill="black" stroke="black" points="125.798,-115.494 118.165,-122.843 128.714,-121.858 125.798,-115.494"/>
<text text-anchor="middle" x="216.539" y="-88.2264" font-family="Times,serif" font-size="14.00">run &#45;ti</text>
</g>
<!-- detached -->
<g id="node4" class="node"><title>detached</title>
<ellipse fill="none" stroke="black" cx="256.539" cy="-144.296" rx="74.4932" ry="26.7407"/>
<text text-anchor="middle" x="256.539" y="-148.096" font-family="Times,serif" font-size="14.00">D: 背景執行中</text>
<text text-anchor="middle" x="256.539" y="-133.096" font-family="Times,serif" font-size="14.00">up, detached</text>
</g>
<!-- image&#45;&gt;detached -->
<g id="edge4" class="edge"><title>image&#45;&gt;detached</title>
<path fill="none" stroke="black" d="M297.518,-62.0218C290.349,-76.2401 281.557,-93.6785 273.957,-108.752"/>
<polygon fill="black" stroke="black" points="270.781,-107.277 269.404,-117.782 277.031,-110.428 270.781,-107.277"/>
<text text-anchor="middle" x="295.039" y="-88.2264" font-family="Times,serif" font-size="14.00">run</text>
</g>
<!-- removed -->
<g id="node6" class="node"><title>removed</title>
<text text-anchor="middle" x="387.539" y="-341.207" font-family="Times,serif" font-size="14.00">X</text>
</g>
<!-- image&#45;&gt;removed -->
<g id="edge2" class="edge"><title>image&#45;&gt;removed</title>
<path fill="none" stroke="black" d="M347.68,-54.1698C369.738,-68.558 396.028,-90.2105 408.539,-117.426 439.218,-184.165 414.227,-273.49 398.269,-317.343"/>
<polygon fill="black" stroke="black" points="394.982,-316.139 394.735,-326.731 401.534,-318.605 394.982,-316.139"/>
<text text-anchor="middle" x="432.539" y="-192.967" font-family="Times,serif" font-size="14.00">rmi</text>
</g>
<!-- attached&#45;&gt;detached -->
<g id="edge5" class="edge"><title>attached&#45;&gt;detached</title>
<path fill="none" stroke="black" d="M130.369,-161.556C150.045,-164.84 169.72,-165.328 189.396,-163.021"/>
<polygon fill="black" stroke="black" points="189.956,-166.477 199.368,-161.612 188.977,-159.546 189.956,-166.477"/>
<text text-anchor="middle" x="164.955" y="-168.249" font-family="Times,serif" font-size="14.00" fill="red">^p ^q</text>
</g>
<!-- exited -->
<g id="node5" class="node"><title>exited</title>
<ellipse fill="none" stroke="black" cx="293.539" cy="-249.037" rx="53.066" ry="26.7407"/>
<text text-anchor="middle" x="293.539" y="-252.837" font-family="Times,serif" font-size="14.00">E: 收工了</text>
<text text-anchor="middle" x="293.539" y="-237.837" font-family="Times,serif" font-size="14.00">exited</text>
</g>
<!-- attached&#45;&gt;exited -->
<g id="edge6" class="edge"><title>attached&#45;&gt;exited</title>
<path fill="none" stroke="black" d="M117.531,-165.841C154.753,-183.223 207.977,-208.079 246.137,-225.9"/>
<polygon fill="black" stroke="black" points="244.953,-229.21 255.495,-230.27 247.915,-222.867 244.953,-229.21"/>
<text text-anchor="middle" x="179.277" y="-186.745" font-family="Times,serif" font-size="14.00" fill="red">^d</text>
</g>
<!-- detached&#45;&gt;attached -->
<g id="edge7" class="edge"><title>detached&#45;&gt;attached</title>
<path fill="none" stroke="black" d="M199.368,-126.981C179.693,-123.729 160.017,-123.273 140.342,-125.612"/>
<polygon fill="black" stroke="black" points="139.773,-122.158 130.369,-127.037 140.764,-129.087 139.773,-122.158"/>
<text text-anchor="middle" x="164.782" y="-127.944" font-family="Times,serif" font-size="14.00">attach</text>
</g>
<!-- detached&#45;&gt;exited -->
<g id="edge8" class="edge"><title>detached&#45;&gt;exited</title>
<path fill="none" stroke="black" d="M265.876,-171.222C270.424,-183.851 275.96,-199.224 280.882,-212.89"/>
<polygon fill="black" stroke="black" points="277.652,-214.253 284.334,-222.475 284.238,-211.881 277.652,-214.253"/>
<text text-anchor="middle" x="263.549" y="-185.494" font-family="Times,serif" font-size="14.00">stop</text>
</g>
<!-- exited&#45;&gt;image -->
<g id="edge12" class="edge"><title>exited&#45;&gt;image</title>
<path fill="none" stroke="black" d="M329.9,-229.121C338.947,-222.523 347.495,-214.203 352.539,-204.167 374.31,-160.849 352.953,-105.425 333.81,-69.8641"/>
<polygon fill="black" stroke="black" points="336.696,-67.8532 328.764,-60.8296 330.585,-71.2668 336.696,-67.8532"/>
<text text-anchor="middle" x="383.039" y="-140.596" font-family="Times,serif" font-size="14.00">commit</text>
</g>
<!-- exited&#45;&gt;attached -->
<g id="edge9" class="edge"><title>exited&#45;&gt;attached:n</title>
<path fill="none" stroke="black" d="M243.067,-240.731C184.204,-230.9 92.7988,-211.079 76.1777,-180.874"/>
<polygon fill="black" stroke="black" points="79.5395,-179.898 73.5391,-171.167 72.7845,-181.734 79.5395,-179.898"/>
<text text-anchor="middle" x="125.539" y="-192.967" font-family="Times,serif" font-size="14.00">start &#45;ai</text>
</g>
<!-- exited&#45;&gt;detached -->
<g id="edge10" class="edge"><title>exited&#45;&gt;detached:e</title>
<path fill="none" stroke="black" d="M308.132,-222.924C320.834,-200.137 337.347,-167.863 338.173,-152.737"/>
<polygon fill="black" stroke="black" points="341.002,-150.67 332.539,-144.296 335.18,-154.557 341.002,-150.67"/>
<text text-anchor="middle" x="336.539" y="-192.967" font-family="Times,serif" font-size="14.00">start</text>
</g>
<!-- exited&#45;&gt;removed -->
<g id="edge11" class="edge"><title>exited&#45;&gt;removed</title>
<path fill="none" stroke="black" d="M316.775,-273.24C330.942,-287.388 349.018,-305.439 363.355,-319.756"/>
<polygon fill="black" stroke="black" points="360.921,-322.272 370.47,-326.862 365.868,-317.319 360.921,-322.272"/>
<text text-anchor="middle" x="359.539" y="-297.707" font-family="Times,serif" font-size="14.00">rm</text>
</g>
</g>
</svg>
