<?xml version="1.0" encoding="UTF-8" standalone="no"?>
<!DOCTYPE svg PUBLIC "-//W3C//DTD SVG 1.1//EN"
 "http://www.w3.org/Graphics/SVG/1.1/DTD/svg11.dtd">
<!-- Generated by graphviz version 2.38.0 (20140413.2041)
 -->
<!-- Title: Docker 常用指令 Pages: 1 -->
<svg width="404pt" height="371pt"
 viewBox="0.00 0.00 404.23 370.91" xmlns="http://www.w3.org/2000/svg" xmlns:xlink="http://www.w3.org/1999/xlink">
<g id="graph0" class="graph" transform="scale(1 1) rotate(0) translate(4 366.907)">
<title>Docker 常用指令</title>
<polygon fill="white" stroke="none" points="-4,4 -4,-366.907 400.225,-366.907 400.225,4 -4,4"/>
<!-- source -->
<g id="node1" class="node"><title>source</title>
<polygon fill="none" stroke="black" points="195.83,-43.543 130.225,-66.641 64.6205,-43.543 64.6818,-6.16955 195.769,-6.16955 195.83,-43.543"/>
<text text-anchor="middle" x="130.225" y="-37.0132" font-family="Times,serif" font-size="14.00">原始碼</text>
<text text-anchor="middle" x="130.225" y="-22.0132" font-family="Times,serif" font-size="14.00">docker file</text>
</g>
<!-- image -->
<g id="node2" class="node"><title>image</title>
<polygon fill="none" stroke="black" points="300.725,-52.2132 245.725,-52.2132 241.725,-48.2132 241.725,-14.2132 296.725,-14.2132 300.725,-18.2132 300.725,-52.2132"/>
<polyline fill="none" stroke="black" points="296.725,-48.2132 241.725,-48.2132 "/>
<polyline fill="none" stroke="black" points="296.725,-48.2132 296.725,-14.2132 "/>
<polyline fill="none" stroke="black" points="296.725,-48.2132 300.725,-52.2132 "/>
<text text-anchor="middle" x="271.225" y="-37.0132" font-family="Times,serif" font-size="14.00">映像檔</text>
<text text-anchor="middle" x="271.225" y="-22.0132" font-family="Times,serif" font-size="14.00">image</text>
</g>
<!-- source&#45;&gt;image -->
<g id="edge1" class="edge"><title>source&#45;&gt;image</title>
<path fill="none" stroke="black" d="M196.184,-33.2132C208.242,-33.2132 220.478,-33.2132 231.473,-33.2132"/>
<polygon fill="black" stroke="black" points="231.588,-36.7133 241.588,-33.2132 231.588,-29.7133 231.588,-36.7133"/>
<text text-anchor="middle" x="218.752" y="-19.0132" font-family="Times,serif" font-size="14.00">build</text>
</g>
<!-- attached -->
<g id="node3" class="node"><title>attached</title>
<ellipse fill="none" stroke="black" cx="62.2254" cy="-144.296" rx="62.4516" ry="26.7407"/>
<text text-anchor="middle" x="62.2254" y="-148.096" font-family="Times,serif" font-size="14.00">前景執行中</text>
<text text-anchor="middle" x="62.2254" y="-133.096" font-family="Times,serif" font-size="14.00">up, attached</text>
</g>
<!-- image&#45;&gt;attached -->
<g id="edge3" class="edge"><title>image&#45;&gt;attached</title>
<path fill="none" stroke="black" d="M241.724,-49.6108C207.412,-67.5193 150.3,-97.3277 109.718,-118.509"/>
<polygon fill="black" stroke="black" points="108.056,-115.428 100.81,-123.158 111.295,-121.634 108.056,-115.428"/>
<text text-anchor="middle" x="189.225" y="-88.2264" font-family="Times,serif" font-size="14.00">run &#45;ti</text>
</g>
<!-- detached -->
<g id="node4" class="node"><title>detached</title>
<ellipse fill="none" stroke="black" cx="222.225" cy="-144.296" rx="62.4516" ry="26.7407"/>
<text text-anchor="middle" x="222.225" y="-148.096" font-family="Times,serif" font-size="14.00">背景執行中</text>
<text text-anchor="middle" x="222.225" y="-133.096" font-family="Times,serif" font-size="14.00">up, detached</text>
</g>
<!-- image&#45;&gt;detached -->
<g id="edge4" class="edge"><title>image&#45;&gt;detached</title>
<path fill="none" stroke="black" d="M263.134,-52.2261C256.329,-67.3761 246.397,-89.4853 238.024,-108.125"/>
<polygon fill="black" stroke="black" points="234.717,-106.945 233.812,-117.501 241.103,-109.814 234.717,-106.945"/>
<text text-anchor="middle" x="256.725" y="-88.2264" font-family="Times,serif" font-size="14.00">run</text>
</g>
<!-- removed -->
<g id="node6" class="node"><title>removed</title>
<text text-anchor="middle" x="343.225" y="-341.207" font-family="Times,serif" font-size="14.00">X</text>
</g>
<!-- image&#45;&gt;removed -->
<g id="edge2" class="edge"><title>image&#45;&gt;removed</title>
<path fill="none" stroke="black" d="M301.101,-51.8603C322.556,-66.4131 349.795,-89.216 362.225,-117.426 391.758,-184.449 368.475,-273.347 353.441,-317.162"/>
<polygon fill="black" stroke="black" points="350.068,-316.201 350.015,-326.796 356.663,-318.546 350.068,-316.201"/>
<text text-anchor="middle" x="386.225" y="-192.967" font-family="Times,serif" font-size="14.00">rmi</text>
</g>
<!-- attached&#45;&gt;detached -->
<g id="edge5" class="edge"><title>attached&#45;&gt;detached</title>
<path fill="none" stroke="black" d="M110.663,-161.312C128.435,-164.845 146.207,-165.394 163.979,-162.959"/>
<polygon fill="black" stroke="black" points="164.571,-166.409 173.853,-161.299 163.411,-159.505 164.571,-166.409"/>
<text text-anchor="middle" x="142.319" y="-168.249" font-family="Times,serif" font-size="14.00" fill="red">^p ^q</text>
</g>
<!-- exited -->
<g id="node5" class="node"><title>exited</title>
<ellipse fill="none" stroke="black" cx="252.225" cy="-249.037" rx="41.9398" ry="26.7407"/>
<text text-anchor="middle" x="252.225" y="-252.837" font-family="Times,serif" font-size="14.00">收工了</text>
<text text-anchor="middle" x="252.225" y="-237.837" font-family="Times,serif" font-size="14.00">exited</text>
</g>
<!-- attached&#45;&gt;exited -->
<g id="edge6" class="edge"><title>attached&#45;&gt;exited</title>
<path fill="none" stroke="black" d="M100.218,-165.841C132.587,-183.344 178.968,-208.424 211.969,-226.269"/>
<polygon fill="black" stroke="black" points="210.439,-229.42 220.9,-231.098 213.768,-223.262 210.439,-229.42"/>
<text text-anchor="middle" x="153.489" y="-187.231" font-family="Times,serif" font-size="14.00" fill="red">^d</text>
</g>
<!-- detached&#45;&gt;attached -->
<g id="edge7" class="edge"><title>detached&#45;&gt;attached</title>
<path fill="none" stroke="black" d="M173.853,-127.294C156.08,-123.754 138.308,-123.198 120.536,-125.625"/>
<polygon fill="black" stroke="black" points="119.946,-122.175 110.663,-127.281 121.104,-129.079 119.946,-122.175"/>
<text text-anchor="middle" x="142.196" y="-127.944" font-family="Times,serif" font-size="14.00">attach</text>
</g>
<!-- detached&#45;&gt;exited -->
<g id="edge8" class="edge"><title>detached&#45;&gt;exited</title>
<path fill="none" stroke="black" d="M229.796,-171.222C233.447,-183.728 237.885,-198.925 241.846,-212.491"/>
<polygon fill="black" stroke="black" points="238.599,-213.857 244.761,-222.475 245.318,-211.895 238.599,-213.857"/>
<text text-anchor="middle" x="225.852" y="-185.902" font-family="Times,serif" font-size="14.00">stop</text>
</g>
<!-- exited&#45;&gt;image -->
<g id="edge12" class="edge"><title>exited&#45;&gt;image</title>
<path fill="none" stroke="black" d="M283.015,-230.532C292.217,-223.606 301.19,-214.746 306.225,-204.167 328.653,-157.051 304.707,-95.8869 286.874,-61.2556"/>
<polygon fill="black" stroke="black" points="289.849,-59.3964 282.05,-52.2251 283.675,-62.6946 289.849,-59.3964"/>
<text text-anchor="middle" x="336.725" y="-140.596" font-family="Times,serif" font-size="14.00">commit</text>
</g>
<!-- exited&#45;&gt;attached -->
<g id="edge9" class="edge"><title>exited&#45;&gt;attached:n</title>
<path fill="none" stroke="black" d="M210.058,-248.617C157.253,-247.023 72.516,-235.878 63.0863,-181.446"/>
<polygon fill="black" stroke="black" points="66.5478,-180.84 62.2254,-171.167 59.5722,-181.424 66.5478,-180.84"/>
<text text-anchor="middle" x="93.2254" y="-192.967" font-family="Times,serif" font-size="14.00">start &#45;ai</text>
</g>
<!-- exited&#45;&gt;detached -->
<g id="edge10" class="edge"><title>exited&#45;&gt;detached:e</title>
<path fill="none" stroke="black" d="M265.013,-223.452C276.455,-200.444 291.406,-167.423 291.189,-152.35"/>
<polygon fill="black" stroke="black" points="293.989,-150.25 285.225,-144.296 288.364,-154.416 293.989,-150.25"/>
<text text-anchor="middle" x="292.225" y="-192.967" font-family="Times,serif" font-size="14.00">start</text>
</g>
<!-- exited&#45;&gt;removed -->
<g id="edge11" class="edge"><title>exited&#45;&gt;removed</title>
<path fill="none" stroke="black" d="M273.791,-272.283C287.576,-286.502 305.459,-304.949 319.623,-319.56"/>
<polygon fill="black" stroke="black" points="317.177,-322.065 326.65,-326.809 322.203,-317.193 317.177,-322.065"/>
<text text-anchor="middle" x="316.225" y="-297.707" font-family="Times,serif" font-size="14.00">rm</text>
</g>
</g>
</svg>
