<?xml version="1.0" encoding="UTF-8" standalone="no"?>
<!DOCTYPE svg PUBLIC "-//W3C//DTD SVG 1.1//EN"
 "http://www.w3.org/Graphics/SVG/1.1/DTD/svg11.dtd">
<!-- Generated by graphviz version 2.40.1 (20161225.0304)
 -->
<!-- Title: Docker 常用指令 Pages: 1 -->
<svg width="454pt" height="497pt"
 viewBox="0.00 0.00 453.68 496.53" xmlns="http://www.w3.org/2000/svg" xmlns:xlink="http://www.w3.org/1999/xlink">
<g id="graph0" class="graph" transform="scale(1 1) rotate(0) translate(4 492.5288)">
<title>Docker 常用指令</title>
<polygon fill="#ffffff" stroke="transparent" points="-4,4 -4,-492.5288 449.6832,-492.5288 449.6832,4 -4,4"/>
<!-- source -->
<g id="node1" class="node">
<title>source</title>
<polygon fill="none" stroke="#000000" points="227.0391,-177.8353 144.0391,-177.8353 144.0391,-139.8353 227.0391,-139.8353 227.0391,-177.8353"/>
<text text-anchor="middle" x="185.5391" y="-162.6353" font-family="Times,serif" font-size="14.00" fill="#000000">A1: 原始碼</text>
<text text-anchor="middle" x="185.5391" y="-147.6353" font-family="Times,serif" font-size="14.00" fill="#000000">Dockerfile</text>
</g>
<!-- image -->
<g id="node3" class="node">
<title>image</title>
<polygon fill="none" stroke="#000000" points="404.8921,-169.1651 338.5391,-192.2631 272.1862,-169.1651 272.2481,-131.7917 404.8301,-131.7917 404.8921,-169.1651"/>
<text text-anchor="middle" x="338.5391" y="-162.6353" font-family="Times,serif" font-size="14.00" fill="#000000">B: 映像檔</text>
<text text-anchor="middle" x="338.5391" y="-147.6353" font-family="Times,serif" font-size="14.00" fill="#000000">image</text>
</g>
<!-- source&#45;&gt;image -->
<g id="edge1" class="edge">
<title>source&#45;&gt;image</title>
<path fill="none" stroke="#000000" d="M227.347,-158.8353C238.1302,-158.8353 250.0801,-158.8353 262.0304,-158.8353"/>
<polygon fill="#000000" stroke="#000000" points="262.043,-162.3354 272.043,-158.8353 262.043,-155.3354 262.043,-162.3354"/>
<text text-anchor="middle" x="249.5759" y="-144.6353" font-family="Times,serif" font-size="14.00" fill="#000000">build</text>
</g>
<!-- hub -->
<g id="node2" class="node">
<title>hub</title>
<polygon fill="none" stroke="#000000" points="441.8138,-47.5228 338.5391,-70.3569 235.2644,-47.5228 235.3608,-10.5764 441.7174,-10.5764 441.8138,-47.5228"/>
<polygon fill="none" stroke="#000000" points="445.8275,-50.7125 338.5391,-74.4341 231.2507,-50.7125 231.3658,-6.5965 445.7124,-6.5965 445.8275,-50.7125"/>
<text text-anchor="middle" x="338.5391" y="-41.1111" font-family="Times,serif" font-size="14.00" fill="#000000">A2: 映像檔</text>
<text text-anchor="middle" x="338.5391" y="-26.1111" font-family="Times,serif" font-size="14.00" fill="#000000">(位於 Dockerhub)</text>
</g>
<!-- hub&#45;&gt;image -->
<g id="edge2" class="edge">
<title>hub&#45;&gt;image</title>
<path fill="none" stroke="#000000" d="M338.5391,-74.7639C338.5391,-89.5793 338.5391,-106.5737 338.5391,-121.3885"/>
<polygon fill="#000000" stroke="#000000" points="335.0392,-121.7283 338.5391,-131.7283 342.0392,-121.7284 335.0392,-121.7283"/>
<text text-anchor="middle" x="349.5391" y="-96.4221" font-family="Times,serif" font-size="14.00" fill="#000000">pull</text>
</g>
<!-- attached -->
<g id="node4" class="node">
<title>attached</title>
<ellipse fill="none" stroke="#000000" cx="73.5391" cy="-269.9186" rx="73.5782" ry="26.7407"/>
<text text-anchor="middle" x="73.5391" y="-273.7186" font-family="Times,serif" font-size="14.00" fill="#000000">C: 前景執行中</text>
<text text-anchor="middle" x="73.5391" y="-258.7186" font-family="Times,serif" font-size="14.00" fill="#000000">up, attached</text>
</g>
<!-- image&#45;&gt;attached -->
<g id="edge4" class="edge">
<title>image&#45;&gt;attached</title>
<path fill="none" stroke="#000000" d="M294.7797,-177.1785C250.1715,-195.8774 180.728,-224.9869 131.5556,-245.5991"/>
<polygon fill="#000000" stroke="#000000" points="130.1824,-242.3796 122.313,-249.4735 132.8886,-248.8354 130.1824,-242.3796"/>
<text text-anchor="middle" x="231.5391" y="-213.8485" font-family="Times,serif" font-size="14.00" fill="#000000">run &#45;it</text>
</g>
<!-- detached -->
<g id="node5" class="node">
<title>detached</title>
<ellipse fill="none" stroke="#000000" cx="256.5391" cy="-269.9186" rx="74.4932" ry="26.7407"/>
<text text-anchor="middle" x="256.5391" y="-273.7186" font-family="Times,serif" font-size="14.00" fill="#000000">D: 背景執行中</text>
<text text-anchor="middle" x="256.5391" y="-258.7186" font-family="Times,serif" font-size="14.00" fill="#000000">up, detached</text>
</g>
<!-- image&#45;&gt;detached -->
<g id="edge5" class="edge">
<title>image&#45;&gt;detached</title>
<path fill="none" stroke="#000000" d="M318.8981,-185.4425C307.7621,-200.5281 293.7095,-219.5648 281.7646,-235.7462"/>
<polygon fill="#000000" stroke="#000000" points="278.8601,-233.7877 275.737,-243.9118 284.4919,-237.945 278.8601,-233.7877"/>
<text text-anchor="middle" x="317.5391" y="-213.8485" font-family="Times,serif" font-size="14.00" fill="#000000">run &#45;d</text>
</g>
<!-- removed -->
<g id="node7" class="node">
<title>removed</title>
<text text-anchor="middle" x="365.5391" y="-466.8288" font-family="Times,serif" font-size="14.00" fill="#000000">X</text>
</g>
<!-- image&#45;&gt;removed -->
<g id="edge3" class="edge">
<title>image&#45;&gt;removed</title>
<path fill="none" stroke="#000000" d="M367.4189,-182.4761C383.7711,-197.8055 402.679,-219.3006 411.5391,-243.0485 437.4655,-312.5392 402.323,-399.7111 380.5305,-443.2072"/>
<polygon fill="#000000" stroke="#000000" points="377.3146,-441.8073 375.8472,-452.3 383.5376,-445.0125 377.3146,-441.8073"/>
<text text-anchor="middle" x="429.5391" y="-318.5887" font-family="Times,serif" font-size="14.00" fill="#000000">rmi</text>
</g>
<!-- attached&#45;&gt;detached -->
<g id="edge6" class="edge">
<title>attached&#45;&gt;detached</title>
<path fill="none" stroke="#000000" d="M130.3692,-287.1778C150.0447,-290.4618 169.7203,-290.9502 189.3958,-288.6432"/>
<polygon fill="#000000" stroke="#000000" points="189.9562,-292.0988 199.3684,-287.2344 188.9771,-285.1676 189.9562,-292.0988"/>
<text text-anchor="middle" x="164.9551" y="-293.8711" font-family="Times,serif" font-size="14.00" fill="#ff0000">^p ^q</text>
</g>
<!-- exited -->
<g id="node6" class="node">
<title>exited</title>
<ellipse fill="none" stroke="#000000" cx="293.5391" cy="-374.6587" rx="53.066" ry="26.7407"/>
<text text-anchor="middle" x="293.5391" y="-378.4587" font-family="Times,serif" font-size="14.00" fill="#000000">E: 收工了</text>
<text text-anchor="middle" x="293.5391" y="-363.4587" font-family="Times,serif" font-size="14.00" fill="#000000">exited</text>
</g>
<!-- attached&#45;&gt;exited -->
<g id="edge7" class="edge">
<title>attached&#45;&gt;exited</title>
<path fill="none" stroke="#000000" d="M118.3246,-291.2406C155.2709,-308.8304 207.5791,-333.7339 245.4136,-351.7466"/>
<polygon fill="#000000" stroke="#000000" points="244.1691,-355.0305 254.7026,-356.169 247.1782,-348.7102 244.1691,-355.0305"/>
<text text-anchor="middle" x="179.2665" y="-312.3872" font-family="Times,serif" font-size="14.00" fill="#ff0000">^d</text>
</g>
<!-- detached&#45;&gt;attached -->
<g id="edge8" class="edge">
<title>detached&#45;&gt;attached</title>
<path fill="none" stroke="#000000" d="M199.3684,-252.6028C179.6928,-249.3511 160.0173,-248.8949 140.3417,-251.2343"/>
<polygon fill="#000000" stroke="#000000" points="139.7735,-247.7798 130.3692,-252.6594 140.7638,-254.7094 139.7735,-247.7798"/>
<text text-anchor="middle" x="164.7824" y="-253.5662" font-family="Times,serif" font-size="14.00" fill="#000000">attach</text>
</g>
<!-- detached&#45;&gt;exited -->
<g id="edge9" class="edge">
<title>detached&#45;&gt;exited</title>
<path fill="none" stroke="#000000" d="M265.9715,-296.62C270.451,-309.3005 275.8728,-324.6486 280.7188,-338.3667"/>
<polygon fill="#000000" stroke="#000000" points="277.4929,-339.7429 284.1239,-348.0061 284.0932,-337.4113 277.4929,-339.7429"/>
<text text-anchor="middle" x="263.4855" y="-310.9368" font-family="Times,serif" font-size="14.00" fill="#000000">stop</text>
</g>
<!-- exited&#45;&gt;image -->
<g id="edge13" class="edge">
<title>exited&#45;&gt;image</title>
<path fill="none" stroke="#000000" d="M330.2259,-354.9271C339.1586,-348.2143 347.5657,-339.8191 352.5391,-329.7887 373.0946,-288.3315 363.5377,-234.2164 352.8511,-198.0846"/>
<polygon fill="#000000" stroke="#000000" points="356.1484,-196.9012 349.831,-188.3959 349.4656,-198.9844 356.1484,-196.9012"/>
<text text-anchor="middle" x="386.0391" y="-266.2186" font-family="Times,serif" font-size="14.00" fill="#000000">commit</text>
</g>
<!-- exited&#45;&gt;attached -->
<g id="edge10" class="edge">
<title>exited&#45;&gt;attached:n</title>
<path fill="none" stroke="#000000" d="M243.3359,-365.66C208.9601,-358.4659 162.8432,-346.7524 124.5391,-329.7887 103.5179,-320.479 81.3154,-322.6724 75.1871,-306.857"/>
<polygon fill="#000000" stroke="#000000" points="78.6086,-306.0919 73.5391,-296.7887 71.7005,-307.2227 78.6086,-306.0919"/>
<text text-anchor="middle" x="145.5391" y="-318.5887" font-family="Times,serif" font-size="14.00" fill="#000000">start &#45;ai</text>
</g>
<!-- exited&#45;&gt;detached -->
<g id="edge11" class="edge">
<title>exited&#45;&gt;detached:e</title>
<path fill="none" stroke="#000000" d="M308.209,-348.7679C320.6972,-325.7478 336.7163,-293.4646 337.3055,-278.3487"/>
<polygon fill="#000000" stroke="#000000" points="340.0738,-276.1964 331.5391,-269.9186 334.2961,-280.1485 340.0738,-276.1964"/>
<text text-anchor="middle" x="337.5391" y="-318.5887" font-family="Times,serif" font-size="14.00" fill="#000000">start</text>
</g>
<!-- exited&#45;&gt;removed -->
<g id="edge12" class="edge">
<title>exited&#45;&gt;removed</title>
<path fill="none" stroke="#000000" d="M312.4563,-399.8474C322.7383,-413.5383 335.4408,-430.452 345.8416,-444.301"/>
<polygon fill="#000000" stroke="#000000" points="343.1741,-446.5774 351.978,-452.4717 348.7714,-442.3738 343.1741,-446.5774"/>
<text text-anchor="middle" x="345.5391" y="-423.3288" font-family="Times,serif" font-size="14.00" fill="#000000">rm</text>
</g>
</g>
</svg>
