<?xml version="1.0" encoding="UTF-8" standalone="no"?>
<!DOCTYPE svg PUBLIC "-//W3C//DTD SVG 1.1//EN"
 "http://www.w3.org/Graphics/SVG/1.1/DTD/svg11.dtd">
<!-- Generated by graphviz version 2.38.0 (20140413.2041)
 -->
<!-- Title: hypernym graph of [&#39;horse&#39;, &#39;dog&#39;, &#39;cat&#39;, &#39;domestic_ass&#39;, &#39;cow&#39;, &#39;ox&#39;, &#39;sheep&#39;] Pages: 1 -->
<svg width="701pt" height="1587pt"
 viewBox="0.00 0.00 701.23 1587.32" xmlns="http://www.w3.org/2000/svg" xmlns:xlink="http://www.w3.org/1999/xlink">
<g id="graph0" class="graph" transform="scale(1 1) rotate(0) translate(4 1583.32)">
<title>hypernym graph of [&#39;horse&#39;, &#39;dog&#39;, &#39;cat&#39;, &#39;domestic_ass&#39;, &#39;cow&#39;, &#39;ox&#39;, &#39;sheep&#39;]</title>
<polygon fill="white" stroke="none" points="-4,4 -4,-1583.32 697.229,-1583.32 697.229,4 -4,4"/>
<!-- sheep\nn02411705 -->
<g id="node1" class="node"><title>sheep\nn02411705</title>
<ellipse fill="none" stroke="black" cx="638.782" cy="-206.35" rx="54.3945" ry="26.7407"/>
<text text-anchor="middle" x="638.782" y="-210.15" font-family="Times,serif" font-size="14.00">sheep</text>
<text text-anchor="middle" x="638.782" y="-195.15" font-family="Times,serif" font-size="14.00">n02411705</text>
</g>
<!-- bovid\nn02401031 -->
<g id="node2" class="node"><title>bovid\nn02401031</title>
<ellipse fill="none" stroke="black" cx="601.782" cy="-296.09" rx="54.3945" ry="26.7407"/>
<text text-anchor="middle" x="601.782" y="-299.89" font-family="Times,serif" font-size="14.00">bovid</text>
<text text-anchor="middle" x="601.782" y="-284.89" font-family="Times,serif" font-size="14.00">n02401031</text>
</g>
<!-- sheep\nn02411705&#45;&gt;bovid\nn02401031 -->
<g id="edge1" class="edge"><title>sheep\nn02411705&#45;&gt;bovid\nn02401031</title>
<path fill="none" stroke="black" d="M628.08,-232.728C624.468,-241.293 620.371,-251.008 616.504,-260.178"/>
<polygon fill="black" stroke="black" points="613.249,-258.891 612.588,-269.465 619.698,-261.611 613.249,-258.891"/>
</g>
<!-- ruminant\nn02399000 -->
<g id="node3" class="node"><title>ruminant\nn02399000</title>
<ellipse fill="none" stroke="black" cx="601.782" cy="-385.831" rx="54.3945" ry="26.7407"/>
<text text-anchor="middle" x="601.782" y="-389.631" font-family="Times,serif" font-size="14.00">ruminant</text>
<text text-anchor="middle" x="601.782" y="-374.631" font-family="Times,serif" font-size="14.00">n02399000</text>
</g>
<!-- bovid\nn02401031&#45;&gt;ruminant\nn02399000 -->
<g id="edge2" class="edge"><title>bovid\nn02401031&#45;&gt;ruminant\nn02399000</title>
<path fill="none" stroke="black" d="M601.782,-323.415C601.782,-331.382 601.782,-340.273 601.782,-348.761"/>
<polygon fill="black" stroke="black" points="598.282,-348.826 601.782,-358.827 605.282,-348.827 598.282,-348.826"/>
</g>
<!-- even&#45;toed_ungulate\nn02394477 -->
<g id="node4" class="node"><title>even&#45;toed_ungulate\nn02394477</title>
<ellipse fill="none" stroke="black" cx="601.782" cy="-475.571" rx="86.9483" ry="26.7407"/>
<text text-anchor="middle" x="601.782" y="-479.371" font-family="Times,serif" font-size="14.00">even&#45;toed_ungulate</text>
<text text-anchor="middle" x="601.782" y="-464.371" font-family="Times,serif" font-size="14.00">n02394477</text>
</g>
<!-- ruminant\nn02399000&#45;&gt;even&#45;toed_ungulate\nn02394477 -->
<g id="edge3" class="edge"><title>ruminant\nn02399000&#45;&gt;even&#45;toed_ungulate\nn02394477</title>
<path fill="none" stroke="black" d="M601.782,-413.155C601.782,-421.122 601.782,-430.013 601.782,-438.502"/>
<polygon fill="black" stroke="black" points="598.282,-438.567 601.782,-448.567 605.282,-438.567 598.282,-438.567"/>
</g>
<!-- ungulate\nn02370806 -->
<g id="node5" class="node"><title>ungulate\nn02370806</title>
<ellipse fill="none" stroke="black" cx="413.782" cy="-565.311" rx="54.3945" ry="26.7407"/>
<text text-anchor="middle" x="413.782" y="-569.111" font-family="Times,serif" font-size="14.00">ungulate</text>
<text text-anchor="middle" x="413.782" y="-554.111" font-family="Times,serif" font-size="14.00">n02370806</text>
</g>
<!-- even&#45;toed_ungulate\nn02394477&#45;&gt;ungulate\nn02370806 -->
<g id="edge4" class="edge"><title>even&#45;toed_ungulate\nn02394477&#45;&gt;ungulate\nn02370806</title>
<path fill="none" stroke="black" d="M554.826,-498.485C526.49,-511.71 490.468,-528.521 461.921,-541.844"/>
<polygon fill="black" stroke="black" points="460.13,-538.817 452.548,-546.218 463.09,-545.161 460.13,-538.817"/>
</g>
<!-- placental\nn01886756 -->
<g id="node6" class="node"><title>placental\nn01886756</title>
<ellipse fill="none" stroke="black" cx="242.782" cy="-655.051" rx="54.3945" ry="26.7407"/>
<text text-anchor="middle" x="242.782" y="-658.851" font-family="Times,serif" font-size="14.00">placental</text>
<text text-anchor="middle" x="242.782" y="-643.851" font-family="Times,serif" font-size="14.00">n01886756</text>
</g>
<!-- ungulate\nn02370806&#45;&gt;placental\nn01886756 -->
<g id="edge5" class="edge"><title>ungulate\nn02370806&#45;&gt;placental\nn01886756</title>
<path fill="none" stroke="black" d="M376.677,-585.349C350.82,-598.617 316.157,-616.402 288.578,-630.553"/>
<polygon fill="black" stroke="black" points="286.819,-627.521 279.52,-635.201 290.015,-633.749 286.819,-627.521"/>
</g>
<!-- mammal\nn01861778 -->
<g id="node7" class="node"><title>mammal\nn01861778</title>
<ellipse fill="none" stroke="black" cx="231.782" cy="-744.791" rx="54.3945" ry="26.7407"/>
<text text-anchor="middle" x="231.782" y="-748.591" font-family="Times,serif" font-size="14.00">mammal</text>
<text text-anchor="middle" x="231.782" y="-733.591" font-family="Times,serif" font-size="14.00">n01861778</text>
</g>
<!-- placental\nn01886756&#45;&gt;mammal\nn01861778 -->
<g id="edge6" class="edge"><title>placental\nn01886756&#45;&gt;mammal\nn01861778</title>
<path fill="none" stroke="black" d="M239.541,-681.901C238.521,-690.04 237.375,-699.179 236.283,-707.886"/>
<polygon fill="black" stroke="black" points="232.809,-707.464 235.037,-717.822 239.754,-708.335 232.809,-707.464"/>
</g>
<!-- vertebrate\nn01471682 -->
<g id="node8" class="node"><title>vertebrate\nn01471682</title>
<ellipse fill="none" stroke="black" cx="210.782" cy="-834.531" rx="54.3945" ry="26.7407"/>
<text text-anchor="middle" x="210.782" y="-838.331" font-family="Times,serif" font-size="14.00">vertebrate</text>
<text text-anchor="middle" x="210.782" y="-823.331" font-family="Times,serif" font-size="14.00">n01471682</text>
</g>
<!-- mammal\nn01861778&#45;&gt;vertebrate\nn01471682 -->
<g id="edge7" class="edge"><title>mammal\nn01861778&#45;&gt;vertebrate\nn01471682</title>
<path fill="none" stroke="black" d="M225.595,-771.641C223.647,-779.78 221.459,-788.92 219.375,-797.626"/>
<polygon fill="black" stroke="black" points="215.921,-797.022 216.997,-807.562 222.729,-798.652 215.921,-797.022"/>
</g>
<!-- chordate\nn01466257 -->
<g id="node9" class="node"><title>chordate\nn01466257</title>
<ellipse fill="none" stroke="black" cx="205.782" cy="-924.271" rx="54.3945" ry="26.7407"/>
<text text-anchor="middle" x="205.782" y="-928.071" font-family="Times,serif" font-size="14.00">chordate</text>
<text text-anchor="middle" x="205.782" y="-913.071" font-family="Times,serif" font-size="14.00">n01466257</text>
</g>
<!-- vertebrate\nn01471682&#45;&gt;chordate\nn01466257 -->
<g id="edge8" class="edge"><title>vertebrate\nn01471682&#45;&gt;chordate\nn01466257</title>
<path fill="none" stroke="black" d="M209.282,-861.856C208.828,-869.823 208.321,-878.714 207.837,-887.202"/>
<polygon fill="black" stroke="black" points="204.338,-887.084 207.264,-897.267 211.327,-887.483 204.338,-887.084"/>
</g>
<!-- animal\nn00015388 -->
<g id="node10" class="node"><title>animal\nn00015388</title>
<ellipse fill="none" stroke="black" cx="161.782" cy="-1014.01" rx="54.3945" ry="26.7407"/>
<text text-anchor="middle" x="161.782" y="-1017.81" font-family="Times,serif" font-size="14.00">animal</text>
<text text-anchor="middle" x="161.782" y="-1002.81" font-family="Times,serif" font-size="14.00">n00015388</text>
</g>
<!-- chordate\nn01466257&#45;&gt;animal\nn00015388 -->
<g id="edge9" class="edge"><title>chordate\nn01466257&#45;&gt;animal\nn00015388</title>
<path fill="none" stroke="black" d="M193.055,-950.649C188.677,-959.38 183.699,-969.306 179.023,-978.632"/>
<polygon fill="black" stroke="black" points="175.834,-977.182 174.48,-987.69 182.091,-980.32 175.834,-977.182"/>
</g>
<!-- organism\nn00004475 -->
<g id="node11" class="node"><title>organism\nn00004475</title>
<ellipse fill="none" stroke="black" cx="161.782" cy="-1103.75" rx="54.3945" ry="26.7407"/>
<text text-anchor="middle" x="161.782" y="-1107.55" font-family="Times,serif" font-size="14.00">organism</text>
<text text-anchor="middle" x="161.782" y="-1092.55" font-family="Times,serif" font-size="14.00">n00004475</text>
</g>
<!-- animal\nn00015388&#45;&gt;organism\nn00004475 -->
<g id="edge10" class="edge"><title>animal\nn00015388&#45;&gt;organism\nn00004475</title>
<path fill="none" stroke="black" d="M161.782,-1041.34C161.782,-1049.3 161.782,-1058.19 161.782,-1066.68"/>
<polygon fill="black" stroke="black" points="158.282,-1066.75 161.782,-1076.75 165.282,-1066.75 158.282,-1066.75"/>
</g>
<!-- living_thing\nn00004258 -->
<g id="node12" class="node"><title>living_thing\nn00004258</title>
<ellipse fill="none" stroke="black" cx="161.782" cy="-1193.49" rx="58.8803" ry="26.7407"/>
<text text-anchor="middle" x="161.782" y="-1197.29" font-family="Times,serif" font-size="14.00">living_thing</text>
<text text-anchor="middle" x="161.782" y="-1182.29" font-family="Times,serif" font-size="14.00">n00004258</text>
</g>
<!-- organism\nn00004475&#45;&gt;living_thing\nn00004258 -->
<g id="edge11" class="edge"><title>organism\nn00004475&#45;&gt;living_thing\nn00004258</title>
<path fill="none" stroke="black" d="M161.782,-1131.08C161.782,-1139.04 161.782,-1147.93 161.782,-1156.42"/>
<polygon fill="black" stroke="black" points="158.282,-1156.49 161.782,-1166.49 165.282,-1156.49 158.282,-1156.49"/>
</g>
<!-- whole\nn00003553 -->
<g id="node13" class="node"><title>whole\nn00003553</title>
<ellipse fill="none" stroke="black" cx="161.782" cy="-1283.23" rx="54.3945" ry="26.7407"/>
<text text-anchor="middle" x="161.782" y="-1287.03" font-family="Times,serif" font-size="14.00">whole</text>
<text text-anchor="middle" x="161.782" y="-1272.03" font-family="Times,serif" font-size="14.00">n00003553</text>
</g>
<!-- living_thing\nn00004258&#45;&gt;whole\nn00003553 -->
<g id="edge12" class="edge"><title>living_thing\nn00004258&#45;&gt;whole\nn00003553</title>
<path fill="none" stroke="black" d="M161.782,-1220.82C161.782,-1228.78 161.782,-1237.67 161.782,-1246.16"/>
<polygon fill="black" stroke="black" points="158.282,-1246.23 161.782,-1256.23 165.282,-1246.23 158.282,-1246.23"/>
</g>
<!-- object\nn00002684 -->
<g id="node14" class="node"><title>object\nn00002684</title>
<ellipse fill="none" stroke="black" cx="161.782" cy="-1372.97" rx="54.3945" ry="26.7407"/>
<text text-anchor="middle" x="161.782" y="-1376.77" font-family="Times,serif" font-size="14.00">object</text>
<text text-anchor="middle" x="161.782" y="-1361.77" font-family="Times,serif" font-size="14.00">n00002684</text>
</g>
<!-- whole\nn00003553&#45;&gt;object\nn00002684 -->
<g id="edge13" class="edge"><title>whole\nn00003553&#45;&gt;object\nn00002684</title>
<path fill="none" stroke="black" d="M161.782,-1310.56C161.782,-1318.52 161.782,-1327.41 161.782,-1335.9"/>
<polygon fill="black" stroke="black" points="158.282,-1335.97 161.782,-1345.97 165.282,-1335.97 158.282,-1335.97"/>
</g>
<!-- physical_entity\nn00001930 -->
<g id="node15" class="node"><title>physical_entity\nn00001930</title>
<ellipse fill="none" stroke="black" cx="161.782" cy="-1462.71" rx="70.0071" ry="26.7407"/>
<text text-anchor="middle" x="161.782" y="-1466.51" font-family="Times,serif" font-size="14.00">physical_entity</text>
<text text-anchor="middle" x="161.782" y="-1451.51" font-family="Times,serif" font-size="14.00">n00001930</text>
</g>
<!-- object\nn00002684&#45;&gt;physical_entity\nn00001930 -->
<g id="edge14" class="edge"><title>object\nn00002684&#45;&gt;physical_entity\nn00001930</title>
<path fill="none" stroke="black" d="M161.782,-1400.3C161.782,-1408.26 161.782,-1417.15 161.782,-1425.64"/>
<polygon fill="black" stroke="black" points="158.282,-1425.71 161.782,-1435.71 165.282,-1425.71 158.282,-1425.71"/>
</g>
<!-- entity\nn00001740 -->
<g id="node16" class="node"><title>entity\nn00001740</title>
<ellipse fill="none" stroke="black" cx="161.782" cy="-1552.45" rx="54.3945" ry="26.7407"/>
<text text-anchor="middle" x="161.782" y="-1556.25" font-family="Times,serif" font-size="14.00">entity</text>
<text text-anchor="middle" x="161.782" y="-1541.25" font-family="Times,serif" font-size="14.00">n00001740</text>
</g>
<!-- physical_entity\nn00001930&#45;&gt;entity\nn00001740 -->
<g id="edge15" class="edge"><title>physical_entity\nn00001930&#45;&gt;entity\nn00001740</title>
<path fill="none" stroke="black" d="M161.782,-1490.04C161.782,-1498 161.782,-1506.89 161.782,-1515.38"/>
<polygon fill="black" stroke="black" points="158.282,-1515.45 161.782,-1525.45 165.282,-1515.45 158.282,-1515.45"/>
</g>
<!-- ox\nn02403003 -->
<g id="node17" class="node"><title>ox\nn02403003</title>
<ellipse fill="none" stroke="black" cx="448.782" cy="-26.8701" rx="54.3945" ry="26.7407"/>
<text text-anchor="middle" x="448.782" y="-30.6701" font-family="Times,serif" font-size="14.00">ox</text>
<text text-anchor="middle" x="448.782" y="-15.6701" font-family="Times,serif" font-size="14.00">n02403003</text>
</g>
<!-- cattle\nn02402425 -->
<g id="node18" class="node"><title>cattle\nn02402425</title>
<ellipse fill="none" stroke="black" cx="511.782" cy="-116.61" rx="54.3945" ry="26.7407"/>
<text text-anchor="middle" x="511.782" y="-120.41" font-family="Times,serif" font-size="14.00">cattle</text>
<text text-anchor="middle" x="511.782" y="-105.41" font-family="Times,serif" font-size="14.00">n02402425</text>
</g>
<!-- ox\nn02403003&#45;&gt;cattle\nn02402425 -->
<g id="edge16" class="edge"><title>ox\nn02403003&#45;&gt;cattle\nn02402425</title>
<path fill="none" stroke="black" d="M466.331,-52.3106C473.1,-61.7388 480.948,-72.6673 488.197,-82.7631"/>
<polygon fill="black" stroke="black" points="485.433,-84.9149 494.108,-90.9964 491.119,-80.8321 485.433,-84.9149"/>
</g>
<!-- bovine\nn02402010 -->
<g id="node19" class="node"><title>bovine\nn02402010</title>
<ellipse fill="none" stroke="black" cx="511.782" cy="-206.35" rx="54.3945" ry="26.7407"/>
<text text-anchor="middle" x="511.782" y="-210.15" font-family="Times,serif" font-size="14.00">bovine</text>
<text text-anchor="middle" x="511.782" y="-195.15" font-family="Times,serif" font-size="14.00">n02402010</text>
</g>
<!-- cattle\nn02402425&#45;&gt;bovine\nn02402010 -->
<g id="edge17" class="edge"><title>cattle\nn02402425&#45;&gt;bovine\nn02402010</title>
<path fill="none" stroke="black" d="M511.782,-143.935C511.782,-151.902 511.782,-160.793 511.782,-169.281"/>
<polygon fill="black" stroke="black" points="508.282,-169.346 511.782,-179.346 515.282,-169.346 508.282,-169.346"/>
</g>
<!-- bovine\nn02402010&#45;&gt;bovid\nn02401031 -->
<g id="edge18" class="edge"><title>bovine\nn02402010&#45;&gt;bovid\nn02401031</title>
<path fill="none" stroke="black" d="M535.9,-230.863C546.578,-241.273 559.272,-253.648 570.653,-264.744"/>
<polygon fill="black" stroke="black" points="568.305,-267.343 577.909,-271.817 573.192,-262.33 568.305,-267.343"/>
</g>
<!-- cow\nn02403454 -->
<g id="node20" class="node"><title>cow\nn02403454</title>
<ellipse fill="none" stroke="black" cx="575.782" cy="-26.8701" rx="54.3945" ry="26.7407"/>
<text text-anchor="middle" x="575.782" y="-30.6701" font-family="Times,serif" font-size="14.00">cow</text>
<text text-anchor="middle" x="575.782" y="-15.6701" font-family="Times,serif" font-size="14.00">n02403454</text>
</g>
<!-- cow\nn02403454&#45;&gt;cattle\nn02402425 -->
<g id="edge19" class="edge"><title>cow\nn02403454&#45;&gt;cattle\nn02402425</title>
<path fill="none" stroke="black" d="M557.954,-52.3106C551.077,-61.7388 543.105,-72.6673 535.741,-82.7631"/>
<polygon fill="black" stroke="black" points="532.801,-80.8547 529.736,-90.9964 538.456,-84.9799 532.801,-80.8547"/>
</g>
<!-- domestic_ass\nn02389559 -->
<g id="node21" class="node"><title>domestic_ass\nn02389559</title>
<ellipse fill="none" stroke="black" cx="317.782" cy="-206.35" rx="62.8651" ry="26.7407"/>
<text text-anchor="middle" x="317.782" y="-210.15" font-family="Times,serif" font-size="14.00">domestic_ass</text>
<text text-anchor="middle" x="317.782" y="-195.15" font-family="Times,serif" font-size="14.00">n02389559</text>
</g>
<!-- ass\nn02389346 -->
<g id="node22" class="node"><title>ass\nn02389346</title>
<ellipse fill="none" stroke="black" cx="317.782" cy="-296.09" rx="54.3945" ry="26.7407"/>
<text text-anchor="middle" x="317.782" y="-299.89" font-family="Times,serif" font-size="14.00">ass</text>
<text text-anchor="middle" x="317.782" y="-284.89" font-family="Times,serif" font-size="14.00">n02389346</text>
</g>
<!-- domestic_ass\nn02389559&#45;&gt;ass\nn02389346 -->
<g id="edge20" class="edge"><title>domestic_ass\nn02389559&#45;&gt;ass\nn02389346</title>
<path fill="none" stroke="black" d="M317.782,-233.675C317.782,-241.642 317.782,-250.533 317.782,-259.021"/>
<polygon fill="black" stroke="black" points="314.282,-259.086 317.782,-269.086 321.282,-259.086 314.282,-259.086"/>
</g>
<!-- equine\nn02374149 -->
<g id="node23" class="node"><title>equine\nn02374149</title>
<ellipse fill="none" stroke="black" cx="413.782" cy="-385.831" rx="54.3945" ry="26.7407"/>
<text text-anchor="middle" x="413.782" y="-389.631" font-family="Times,serif" font-size="14.00">equine</text>
<text text-anchor="middle" x="413.782" y="-374.631" font-family="Times,serif" font-size="14.00">n02374149</text>
</g>
<!-- ass\nn02389346&#45;&gt;equine\nn02374149 -->
<g id="edge21" class="edge"><title>ass\nn02389346&#45;&gt;equine\nn02374149</title>
<path fill="none" stroke="black" d="M343.005,-320.143C354.69,-330.823 368.72,-343.646 381.195,-355.048"/>
<polygon fill="black" stroke="black" points="378.985,-357.769 388.727,-361.932 383.707,-352.602 378.985,-357.769"/>
</g>
<!-- odd&#45;toed_ungulate\nn02373336 -->
<g id="node24" class="node"><title>odd&#45;toed_ungulate\nn02373336</title>
<ellipse fill="none" stroke="black" cx="413.782" cy="-475.571" rx="83.3772" ry="26.7407"/>
<text text-anchor="middle" x="413.782" y="-479.371" font-family="Times,serif" font-size="14.00">odd&#45;toed_ungulate</text>
<text text-anchor="middle" x="413.782" y="-464.371" font-family="Times,serif" font-size="14.00">n02373336</text>
</g>
<!-- equine\nn02374149&#45;&gt;odd&#45;toed_ungulate\nn02373336 -->
<g id="edge22" class="edge"><title>equine\nn02374149&#45;&gt;odd&#45;toed_ungulate\nn02373336</title>
<path fill="none" stroke="black" d="M413.782,-413.155C413.782,-421.122 413.782,-430.013 413.782,-438.502"/>
<polygon fill="black" stroke="black" points="410.282,-438.567 413.782,-448.567 417.282,-438.567 410.282,-438.567"/>
</g>
<!-- odd&#45;toed_ungulate\nn02373336&#45;&gt;ungulate\nn02370806 -->
<g id="edge23" class="edge"><title>odd&#45;toed_ungulate\nn02373336&#45;&gt;ungulate\nn02370806</title>
<path fill="none" stroke="black" d="M413.782,-502.896C413.782,-510.862 413.782,-519.753 413.782,-528.242"/>
<polygon fill="black" stroke="black" points="410.282,-528.307 413.782,-538.307 417.282,-528.307 410.282,-528.307"/>
</g>
<!-- cat\nn02121620 -->
<g id="node25" class="node"><title>cat\nn02121620</title>
<ellipse fill="none" stroke="black" cx="257.782" cy="-385.831" rx="54.3945" ry="26.7407"/>
<text text-anchor="middle" x="257.782" y="-389.631" font-family="Times,serif" font-size="14.00">cat</text>
<text text-anchor="middle" x="257.782" y="-374.631" font-family="Times,serif" font-size="14.00">n02121620</text>
</g>
<!-- feline\nn02120997 -->
<g id="node26" class="node"><title>feline\nn02120997</title>
<ellipse fill="none" stroke="black" cx="257.782" cy="-475.571" rx="54.3945" ry="26.7407"/>
<text text-anchor="middle" x="257.782" y="-479.371" font-family="Times,serif" font-size="14.00">feline</text>
<text text-anchor="middle" x="257.782" y="-464.371" font-family="Times,serif" font-size="14.00">n02120997</text>
</g>
<!-- cat\nn02121620&#45;&gt;feline\nn02120997 -->
<g id="edge24" class="edge"><title>cat\nn02121620&#45;&gt;feline\nn02120997</title>
<path fill="none" stroke="black" d="M257.782,-413.155C257.782,-421.122 257.782,-430.013 257.782,-438.502"/>
<polygon fill="black" stroke="black" points="254.282,-438.567 257.782,-448.567 261.282,-438.567 254.282,-438.567"/>
</g>
<!-- carnivore\nn02075296 -->
<g id="node27" class="node"><title>carnivore\nn02075296</title>
<ellipse fill="none" stroke="black" cx="242.782" cy="-565.311" rx="54.3945" ry="26.7407"/>
<text text-anchor="middle" x="242.782" y="-569.111" font-family="Times,serif" font-size="14.00">carnivore</text>
<text text-anchor="middle" x="242.782" y="-554.111" font-family="Times,serif" font-size="14.00">n02075296</text>
</g>
<!-- feline\nn02120997&#45;&gt;carnivore\nn02075296 -->
<g id="edge25" class="edge"><title>feline\nn02120997&#45;&gt;carnivore\nn02075296</title>
<path fill="none" stroke="black" d="M253.362,-502.421C251.971,-510.559 250.409,-519.699 248.92,-528.406"/>
<polygon fill="black" stroke="black" points="245.457,-527.895 247.221,-538.342 252.357,-529.075 245.457,-527.895"/>
</g>
<!-- carnivore\nn02075296&#45;&gt;placental\nn01886756 -->
<g id="edge26" class="edge"><title>carnivore\nn02075296&#45;&gt;placental\nn01886756</title>
<path fill="none" stroke="black" d="M242.782,-592.636C242.782,-600.602 242.782,-609.493 242.782,-617.982"/>
<polygon fill="black" stroke="black" points="239.282,-618.047 242.782,-628.047 246.282,-618.047 239.282,-618.047"/>
</g>
<!-- dog\nn02084071 -->
<g id="node28" class="node"><title>dog\nn02084071</title>
<ellipse fill="none" stroke="black" cx="89.7817" cy="-385.831" rx="54.3945" ry="26.7407"/>
<text text-anchor="middle" x="89.7817" y="-389.631" font-family="Times,serif" font-size="14.00">dog</text>
<text text-anchor="middle" x="89.7817" y="-374.631" font-family="Times,serif" font-size="14.00">n02084071</text>
</g>
<!-- canine\nn02083346 -->
<g id="node29" class="node"><title>canine\nn02083346</title>
<ellipse fill="none" stroke="black" cx="130.782" cy="-475.571" rx="54.3945" ry="26.7407"/>
<text text-anchor="middle" x="130.782" y="-479.371" font-family="Times,serif" font-size="14.00">canine</text>
<text text-anchor="middle" x="130.782" y="-464.371" font-family="Times,serif" font-size="14.00">n02083346</text>
</g>
<!-- dog\nn02084071&#45;&gt;canine\nn02083346 -->
<g id="edge27" class="edge"><title>dog\nn02084071&#45;&gt;canine\nn02083346</title>
<path fill="none" stroke="black" d="M101.641,-412.209C105.678,-420.848 110.262,-430.659 114.58,-439.899"/>
<polygon fill="black" stroke="black" points="111.545,-441.672 118.949,-449.25 117.887,-438.708 111.545,-441.672"/>
</g>
<!-- domestic_animal\nn01317541 -->
<g id="node30" class="node"><title>domestic_animal\nn01317541</title>
<ellipse fill="none" stroke="black" cx="77.7817" cy="-655.051" rx="77.5641" ry="26.7407"/>
<text text-anchor="middle" x="77.7817" y="-658.851" font-family="Times,serif" font-size="14.00">domestic_animal</text>
<text text-anchor="middle" x="77.7817" y="-643.851" font-family="Times,serif" font-size="14.00">n01317541</text>
</g>
<!-- dog\nn02084071&#45;&gt;domestic_animal\nn01317541 -->
<g id="edge28" class="edge"><title>dog\nn02084071&#45;&gt;domestic_animal\nn01317541</title>
<path fill="none" stroke="black" d="M78.5568,-412.19C74.2751,-423.182 69.9135,-436.343 67.7817,-448.701 57.651,-507.429 64.9888,-576.902 71.3182,-618.123"/>
<polygon fill="black" stroke="black" points="67.8979,-618.899 72.936,-628.22 74.8097,-617.792 67.8979,-618.899"/>
</g>
<!-- canine\nn02083346&#45;&gt;carnivore\nn02075296 -->
<g id="edge30" class="edge"><title>canine\nn02083346&#45;&gt;carnivore\nn02075296</title>
<path fill="none" stroke="black" d="M159.044,-498.711C173.37,-509.934 190.935,-523.694 206.272,-535.709"/>
<polygon fill="black" stroke="black" points="204.498,-538.766 214.528,-542.177 208.815,-533.255 204.498,-538.766"/>
</g>
<!-- domestic_animal\nn01317541&#45;&gt;animal\nn00015388 -->
<g id="edge29" class="edge"><title>domestic_animal\nn01317541&#45;&gt;animal\nn00015388</title>
<path fill="none" stroke="black" d="M82.7365,-681.876C92.782,-733.393 116.809,-852.469 142.782,-951.141 145.043,-959.732 147.72,-968.918 150.34,-977.512"/>
<polygon fill="black" stroke="black" points="147.057,-978.742 153.361,-987.257 153.743,-976.669 147.057,-978.742"/>
</g>
<!-- horse\nn02374451 -->
<g id="node31" class="node"><title>horse\nn02374451</title>
<ellipse fill="none" stroke="black" cx="444.782" cy="-296.09" rx="54.3945" ry="26.7407"/>
<text text-anchor="middle" x="444.782" y="-299.89" font-family="Times,serif" font-size="14.00">horse</text>
<text text-anchor="middle" x="444.782" y="-284.89" font-family="Times,serif" font-size="14.00">n02374451</text>
</g>
<!-- horse\nn02374451&#45;&gt;equine\nn02374149 -->
<g id="edge31" class="edge"><title>horse\nn02374451&#45;&gt;equine\nn02374149</title>
<path fill="none" stroke="black" d="M435.648,-322.941C432.684,-331.33 429.344,-340.784 426.183,-349.731"/>
<polygon fill="black" stroke="black" points="422.881,-348.57 422.85,-359.165 429.481,-350.902 422.881,-348.57"/>
</g>
</g>
</svg>
