<?xml version="1.0" encoding="UTF-8" standalone="no"?>
<!DOCTYPE svg PUBLIC "-//W3C//DTD SVG 1.1//EN"
 "http://www.w3.org/Graphics/SVG/1.1/DTD/svg11.dtd">
<!-- Generated by graphviz version 2.38.0 (20140413.2041)
 -->
<!-- Title: 不求甚解工程師的 「機器學習」 學習捷徑地圖 Pages: 1 -->
<svg width="468pt" height="332pt"
 viewBox="0.00 0.00 467.94 332.00" xmlns="http://www.w3.org/2000/svg" xmlns:xlink="http://www.w3.org/1999/xlink">
<g id="graph0" class="graph" transform="scale(1 1) rotate(0) translate(4 328)">
<title>不求甚解工程師的 「機器學習」 學習捷徑地圖</title>
<polygon fill="white" stroke="none" points="-4,4 -4,-328 463.939,-328 463.939,4 -4,4"/>
<!-- python -->
<g id="node1" class="node"><title>python</title>
<ellipse fill="none" stroke="black" cx="220.096" cy="-18" rx="35.194" ry="18"/>
<text text-anchor="middle" x="220.096" y="-14.3" font-family="Times,serif" font-size="14.00">python</text>
</g>
<!-- jupyter -->
<g id="node3" class="node"><title>jupyter</title>
<ellipse fill="none" stroke="black" cx="389.096" cy="-162" rx="70.6878" ry="18"/>
<text text-anchor="middle" x="389.096" y="-158.3" font-family="Times,serif" font-size="14.00">jupyter notebook</text>
</g>
<!-- python&#45;&gt;jupyter -->
<g id="edge1" class="edge"><title>python&#45;&gt;jupyter</title>
<path fill="none" stroke="black" d="M254.075,-22.8462C286.489,-28.2951 334.489,-41.2955 363.096,-72 378.65,-88.6949 384.951,-114.188 387.476,-133.618"/>
<polygon fill="black" stroke="black" points="384.009,-134.111 388.526,-143.695 390.971,-133.386 384.009,-134.111"/>
</g>
<!-- cs231n -->
<g id="node5" class="node"><title>cs231n</title>
<ellipse fill="none" stroke="black" cx="102.096" cy="-162" rx="84.485" ry="18"/>
<text text-anchor="middle" x="102.096" y="-158.3" font-family="Times,serif" font-size="14.00">史丹佛大學 cs231n</text>
</g>
<!-- python&#45;&gt;cs231n -->
<g id="edge6" class="edge"><title>python&#45;&gt;cs231n</title>
<path fill="none" stroke="black" d="M195.651,-31.2794C179.077,-40.602 157.625,-54.7443 143.096,-72 127.678,-90.3114 116.822,-115.381 110.171,-134.248"/>
<polygon fill="black" stroke="black" points="106.848,-133.15 106.991,-143.744 113.485,-135.373 106.848,-133.15"/>
</g>
<!-- keras -->
<g id="node6" class="node"><title>keras</title>
<ellipse fill="none" stroke="black" cx="252.096" cy="-234" rx="29.4969" ry="18"/>
<text text-anchor="middle" x="252.096" y="-230.3" font-family="Times,serif" font-size="14.00">keras</text>
</g>
<!-- python&#45;&gt;keras -->
<g id="edge2" class="edge"><title>python&#45;&gt;keras</title>
<path fill="none" stroke="black" d="M224.85,-36.0711C227.585,-46.4025 230.903,-59.8804 233.096,-72 241.523,-118.576 247.078,-173.438 249.897,-205.599"/>
<polygon fill="black" stroke="black" points="246.445,-206.31 250.78,-215.977 253.42,-205.716 246.445,-206.31"/>
</g>
<!-- numpy -->
<g id="node7" class="node"><title>numpy</title>
<ellipse fill="none" stroke="black" cx="188.096" cy="-90" rx="35.9954" ry="18"/>
<text text-anchor="middle" x="188.096" y="-86.3" font-family="Times,serif" font-size="14.00">numpy</text>
</g>
<!-- python&#45;&gt;numpy -->
<g id="edge3" class="edge"><title>python&#45;&gt;numpy</title>
<path fill="none" stroke="black" d="M212.512,-35.589C208.781,-43.7507 204.196,-53.7797 200.011,-62.9347"/>
<polygon fill="black" stroke="black" points="196.822,-61.4939 195.847,-72.0438 203.188,-64.4042 196.822,-61.4939"/>
</g>
<!-- docker -->
<g id="node2" class="node"><title>docker</title>
<ellipse fill="none" stroke="black" cx="320.096" cy="-90" rx="34.394" ry="18"/>
<text text-anchor="middle" x="320.096" y="-86.3" font-family="Times,serif" font-size="14.00">docker</text>
</g>
<!-- docker&#45;&gt;jupyter -->
<g id="edge11" class="edge"><title>docker&#45;&gt;jupyter</title>
<path fill="none" stroke="black" stroke-dasharray="5,2" d="M335.409,-106.535C344.141,-115.394 355.278,-126.692 365.142,-136.699"/>
<polygon fill="black" stroke="black" points="362.864,-139.373 372.376,-144.038 367.849,-134.459 362.864,-139.373"/>
</g>
<!-- docker&#45;&gt;keras -->
<g id="edge12" class="edge"><title>docker&#45;&gt;keras</title>
<path fill="none" stroke="black" stroke-dasharray="5,2" d="M312.162,-107.567C300.39,-132.15 278.199,-178.491 264.334,-207.443"/>
<polygon fill="black" stroke="black" points="261.141,-206.008 259.979,-216.538 267.455,-209.031 261.141,-206.008"/>
</g>
<!-- jupyter&#45;&gt;keras -->
<g id="edge13" class="edge"><title>jupyter&#45;&gt;keras</title>
<path fill="none" stroke="black" stroke-dasharray="5,2" d="M359.031,-178.362C336.562,-189.842 305.938,-205.489 283.219,-217.098"/>
<polygon fill="black" stroke="black" points="281.326,-214.134 274.013,-221.801 284.511,-220.368 281.326,-214.134"/>
</g>
<!-- advanced -->
<g id="node8" class="node"><title>advanced</title>
<ellipse fill="none" stroke="black" cx="252.096" cy="-306" rx="27" ry="18"/>
<text text-anchor="middle" x="252.096" y="-302.3" font-family="Times,serif" font-size="14.00">?</text>
</g>
<!-- jupyter&#45;&gt;advanced -->
<g id="edge8" class="edge"><title>jupyter&#45;&gt;advanced</title>
<path fill="none" stroke="black" d="M373.112,-179.567C348.466,-205.113 301.152,-254.153 273.551,-282.761"/>
<polygon fill="black" stroke="black" points="270.749,-280.625 266.324,-290.252 275.786,-285.486 270.749,-280.625"/>
</g>
<!-- mat_mul -->
<g id="node4" class="node"><title>mat_mul</title>
<ellipse fill="none" stroke="black" cx="48.0957" cy="-90" rx="48.1917" ry="18"/>
<text text-anchor="middle" x="48.0957" y="-86.3" font-family="Times,serif" font-size="14.00">矩陣乘法</text>
</g>
<!-- mat_mul&#45;&gt;cs231n -->
<g id="edge7" class="edge"><title>mat_mul&#45;&gt;cs231n</title>
<path fill="none" stroke="black" d="M60.893,-107.589C67.4543,-116.094 75.5799,-126.628 82.8765,-136.086"/>
<polygon fill="black" stroke="black" points="80.1359,-138.264 89.0152,-144.044 85.6784,-133.988 80.1359,-138.264"/>
</g>
<!-- cs231n&#45;&gt;keras -->
<g id="edge14" class="edge"><title>cs231n&#45;&gt;keras</title>
<path fill="none" stroke="black" stroke-dasharray="5,2" d="M135.759,-178.709C160.923,-190.453 195.115,-206.409 219.915,-217.982"/>
<polygon fill="black" stroke="black" points="218.71,-221.282 229.252,-222.339 221.67,-214.939 218.71,-221.282"/>
</g>
<!-- cs231n&#45;&gt;advanced -->
<g id="edge9" class="edge"><title>cs231n&#45;&gt;advanced</title>
<path fill="none" stroke="black" d="M119.892,-179.847C147.247,-205.743 199.6,-255.304 229.564,-283.67"/>
<polygon fill="black" stroke="black" points="227.358,-286.401 237.026,-290.734 232.17,-281.318 227.358,-286.401"/>
</g>
<!-- keras&#45;&gt;advanced -->
<g id="edge10" class="edge"><title>keras&#45;&gt;advanced</title>
<path fill="none" stroke="black" d="M252.096,-252.303C252.096,-260.017 252.096,-269.288 252.096,-277.888"/>
<polygon fill="black" stroke="black" points="248.596,-277.896 252.096,-287.896 255.596,-277.896 248.596,-277.896"/>
</g>
<!-- numpy&#45;&gt;cs231n -->
<g id="edge4" class="edge"><title>numpy&#45;&gt;cs231n</title>
<path fill="none" stroke="black" stroke-dasharray="5,2" d="M169.857,-105.845C158.343,-115.217 143.235,-127.514 130.207,-138.118"/>
<polygon fill="black" stroke="black" points="127.961,-135.434 122.415,-144.461 132.38,-140.863 127.961,-135.434"/>
</g>
<!-- numpy&#45;&gt;keras -->
<g id="edge5" class="edge"><title>numpy&#45;&gt;keras</title>
<path fill="none" stroke="black" stroke-dasharray="5,2" d="M195.689,-107.847C206.707,-132.294 227.23,-177.829 240.249,-206.714"/>
<polygon fill="black" stroke="black" points="237.213,-208.496 244.513,-216.175 243.594,-205.62 237.213,-208.496"/>
</g>
</g>
</svg>
