<?xml version="1.0" encoding="UTF-8" standalone="no"?>
<!DOCTYPE svg PUBLIC "-//W3C//DTD SVG 1.1//EN"
 "http://www.w3.org/Graphics/SVG/1.1/DTD/svg11.dtd">
<!-- Generated by graphviz version 2.40.1 (20161225.0304)
 -->
<!-- Title: 不求甚解工程師的 「機器學習」 學習捷徑地圖 Pages: 1 -->
<svg width="436pt" height="389pt"
 viewBox="0.00 0.00 435.62 388.69" xmlns="http://www.w3.org/2000/svg" xmlns:xlink="http://www.w3.org/1999/xlink">
<g id="graph0" class="graph" transform="scale(1 1) rotate(0) translate(4 384.6934)">
<title>不求甚解工程師的 「機器學習」 學習捷徑地圖</title>
<polygon fill="#ffffff" stroke="transparent" points="-4,4 -4,-384.6934 431.6153,-384.6934 431.6153,4 -4,4"/>
<!-- python -->
<g id="node1" class="node">
<title>python</title>
<ellipse fill="none" stroke="#000000" cx="220.0957" cy="-18" rx="35.194" ry="18"/>
<text text-anchor="middle" x="220.0957" y="-14.3" font-family="Times,serif" font-size="14.00" fill="#000000">python</text>
</g>
<!-- jupyter -->
<g id="node3" class="node">
<title>jupyter</title>
<ellipse fill="none" stroke="#000000" cx="365.0957" cy="-170.8701" rx="47.2526" ry="26.7407"/>
<text text-anchor="middle" x="365.0957" y="-174.6701" font-family="Times,serif" font-size="14.00" fill="#000000">jupyter</text>
<text text-anchor="middle" x="365.0957" y="-159.6701" font-family="Times,serif" font-size="14.00" fill="#000000">notebook</text>
</g>
<!-- python&#45;&gt;jupyter -->
<g id="edge1" class="edge">
<title>python&#45;&gt;jupyter</title>
<path fill="none" stroke="#000000" d="M254.6826,-21.4661C286.7836,-26.6703 333.1126,-39.6557 357.0957,-72 370.023,-89.434 372.1608,-113.6652 370.9994,-133.7754"/>
<polygon fill="#000000" stroke="#000000" points="367.5021,-133.5949 370.1311,-143.8583 374.4763,-134.1955 367.5021,-133.5949"/>
</g>
<!-- cs231n -->
<g id="node6" class="node">
<title>cs231n</title>
<ellipse fill="none" stroke="#ff0000" cx="124.0957" cy="-170.8701" rx="62.4516" ry="26.7407"/>
<text text-anchor="middle" x="124.0957" y="-174.6701" font-family="Times,serif" font-size="14.00" fill="#ff0000">史丹佛大學</text>
<text text-anchor="middle" x="124.0957" y="-159.6701" font-family="Times,serif" font-size="14.00" fill="#ff0000">cs231n</text>
</g>
<!-- python&#45;&gt;cs231n -->
<g id="edge6" class="edge">
<title>python&#45;&gt;cs231n</title>
<path fill="none" stroke="#000000" d="M193.5297,-29.9846C176.4494,-39.0775 155.2519,-53.2223 143.0957,-72 131.3403,-90.1587 126.5103,-113.8668 124.6571,-133.515"/>
<polygon fill="#000000" stroke="#000000" points="121.154,-133.4332 123.9235,-143.6596 128.1358,-133.9382 121.154,-133.4332"/>
</g>
<!-- hilevel -->
<g id="node7" class="node">
<title>hilevel</title>
<ellipse fill="none" stroke="#ff0000" cx="232.0957" cy="-271.2168" rx="36.5405" ry="37.4533"/>
<text text-anchor="middle" x="232.0957" y="-282.5168" font-family="Times,serif" font-size="14.00" fill="#ff0000">keras</text>
<text text-anchor="middle" x="232.0957" y="-267.5168" font-family="Times,serif" font-size="14.00" fill="#ff0000">tflearn</text>
<text text-anchor="middle" x="232.0957" y="-252.5168" font-family="Times,serif" font-size="14.00" fill="#ff0000">caffe</text>
</g>
<!-- python&#45;&gt;hilevel -->
<g id="edge2" class="edge">
<title>python&#45;&gt;hilevel</title>
<path fill="none" stroke="#000000" d="M225.5048,-35.8074C228.3912,-46.2432 231.6412,-59.7432 233.0957,-72 239.2075,-123.5004 237.8165,-183.0175 235.6151,-223.4913"/>
<polygon fill="#000000" stroke="#000000" points="232.1132,-223.4236 235.0262,-233.6101 239.1014,-223.8304 232.1132,-223.4236"/>
</g>
<!-- numpy -->
<g id="node8" class="node">
<title>numpy</title>
<ellipse fill="none" stroke="#000000" cx="188.0957" cy="-90" rx="35.9954" ry="18"/>
<text text-anchor="middle" x="188.0957" y="-86.3" font-family="Times,serif" font-size="14.00" fill="#000000">numpy</text>
</g>
<!-- python&#45;&gt;numpy -->
<g id="edge3" class="edge">
<title>python&#45;&gt;numpy</title>
<path fill="none" stroke="#000000" d="M212.1856,-35.7978C208.543,-43.9936 204.1412,-53.8976 200.1022,-62.9855"/>
<polygon fill="#000000" stroke="#000000" points="196.778,-61.8473 195.9149,-72.407 203.1746,-64.6904 196.778,-61.8473"/>
</g>
<!-- docker -->
<g id="node2" class="node">
<title>docker</title>
<ellipse fill="none" stroke="#000000" cx="314.0957" cy="-90" rx="34.394" ry="18"/>
<text text-anchor="middle" x="314.0957" y="-86.3" font-family="Times,serif" font-size="14.00" fill="#000000">docker</text>
</g>
<!-- docker&#45;&gt;jupyter -->
<g id="edge13" class="edge">
<title>docker&#45;&gt;jupyter</title>
<path fill="none" stroke="#000000" stroke-dasharray="5,2" d="M324.9115,-107.1505C330.3391,-115.7569 337.113,-126.4982 343.5437,-136.6952"/>
<polygon fill="#000000" stroke="#000000" points="340.7692,-138.8572 349.064,-145.4487 346.6902,-135.1232 340.7692,-138.8572"/>
</g>
<!-- docker&#45;&gt;hilevel -->
<g id="edge14" class="edge">
<title>docker&#45;&gt;hilevel</title>
<path fill="none" stroke="#000000" stroke-dasharray="5,2" d="M306.3573,-107.5763C296.9332,-128.933 280.4889,-166.0437 266.0957,-197.7401 261.6476,-207.5357 256.82,-218.042 252.2375,-227.9583"/>
<polygon fill="#000000" stroke="#000000" points="248.9645,-226.6973 247.9395,-237.2425 255.3168,-229.6381 248.9645,-226.6973"/>
</g>
<!-- colab -->
<g id="node4" class="node">
<title>colab</title>
<ellipse fill="none" stroke="#000000" cx="347.0957" cy="-271.2168" rx="60.2083" ry="26.7407"/>
<text text-anchor="middle" x="347.0957" y="-275.0168" font-family="Times,serif" font-size="14.00" fill="#000000">google</text>
<text text-anchor="middle" x="347.0957" y="-260.0168" font-family="Times,serif" font-size="14.00" fill="#000000">colaboratory</text>
</g>
<!-- jupyter&#45;&gt;colab -->
<g id="edge10" class="edge">
<title>jupyter&#45;&gt;colab</title>
<path fill="none" stroke="#000000" d="M360.2721,-197.7611C358.2544,-209.0092 355.8769,-222.2632 353.7009,-234.3942"/>
<polygon fill="#000000" stroke="#000000" points="350.2534,-233.7906 351.9327,-244.2515 357.1434,-235.0266 350.2534,-233.7906"/>
</g>
<!-- jupyter&#45;&gt;hilevel -->
<g id="edge15" class="edge">
<title>jupyter&#45;&gt;hilevel</title>
<path fill="none" stroke="#000000" stroke-dasharray="5,2" d="M334.9852,-191.9807C318.0877,-203.9887 296.721,-219.4423 278.0957,-233.7401 275.1439,-236.0061 272.1092,-238.3788 269.0738,-240.783"/>
<polygon fill="#000000" stroke="#000000" points="266.7145,-238.1882 261.0935,-247.169 271.0882,-243.6537 266.7145,-238.1882"/>
</g>
<!-- fun -->
<g id="node9" class="node">
<title>fun</title>
<ellipse fill="none" stroke="#000000" cx="289.0957" cy="-362.6934" rx="57.3905" ry="18"/>
<text text-anchor="middle" x="289.0957" y="-358.9934" font-family="Times,serif" font-size="14.00" fill="#000000">好玩的東東</text>
</g>
<!-- jupyter&#45;&gt;fun -->
<g id="edge11" class="edge">
<title>jupyter&#45;&gt;fun</title>
<path fill="none" stroke="#000000" d="M390.0891,-193.7938C400.2291,-204.7679 410.7879,-218.7716 416.0957,-233.7401 427.2291,-265.1372 434.4737,-280.9089 416.0957,-308.6934 401.2764,-331.0979 375.078,-344.2355 350.3102,-351.9259"/>
<polygon fill="#000000" stroke="#000000" points="349.2087,-348.6005 340.5525,-354.7095 351.129,-355.3319 349.2087,-348.6005"/>
</g>
<!-- colab&#45;&gt;fun -->
<g id="edge12" class="edge">
<title>colab&#45;&gt;fun</title>
<path fill="none" stroke="#000000" stroke-dasharray="5,2" d="M330.6304,-297.1856C322.8689,-309.427 313.624,-324.0078 305.8289,-336.3022"/>
<polygon fill="#000000" stroke="#000000" points="302.8498,-334.4645 300.4509,-344.7842 308.7617,-338.2129 302.8498,-334.4645"/>
</g>
<!-- mat_mul -->
<g id="node5" class="node">
<title>mat_mul</title>
<ellipse fill="none" stroke="#000000" cx="48.0957" cy="-90" rx="48.1917" ry="18"/>
<text text-anchor="middle" x="48.0957" y="-86.3" font-family="Times,serif" font-size="14.00" fill="#000000">矩陣乘法</text>
</g>
<!-- mat_mul&#45;&gt;cs231n -->
<g id="edge7" class="edge">
<title>mat_mul&#45;&gt;cs231n</title>
<path fill="none" stroke="#000000" d="M64.2134,-107.1505C72.6984,-116.1792 83.3916,-127.5576 93.3857,-138.1922"/>
<polygon fill="#000000" stroke="#000000" points="91.0992,-140.8699 100.4979,-145.7601 96.2001,-136.0761 91.0992,-140.8699"/>
</g>
<!-- cs231n&#45;&gt;hilevel -->
<g id="edge16" class="edge">
<title>cs231n&#45;&gt;hilevel</title>
<path fill="none" stroke="#000000" stroke-dasharray="5,2" d="M150.5155,-195.4176C164.5545,-208.4618 181.9933,-224.6648 197.1396,-238.7377"/>
<polygon fill="#000000" stroke="#000000" points="195.1127,-241.6321 204.821,-245.8748 199.8774,-236.504 195.1127,-241.6321"/>
</g>
<!-- cs231n&#45;&gt;fun -->
<g id="edge8" class="edge">
<title>cs231n&#45;&gt;fun</title>
<path fill="none" stroke="#000000" stroke-dasharray="5,2" d="M130.4749,-197.6947C138.8263,-227.8616 156.0586,-276.7931 186.0957,-308.6934 201.0741,-324.6009 221.7946,-336.709 240.726,-345.3872"/>
<polygon fill="#000000" stroke="#000000" points="239.5667,-348.7001 250.1318,-349.4939 242.3677,-342.2849 239.5667,-348.7001"/>
</g>
<!-- hilevel&#45;&gt;fun -->
<g id="edge9" class="edge">
<title>hilevel&#45;&gt;fun</title>
<path fill="none" stroke="#000000" stroke-dasharray="5,2" d="M251.8716,-302.9541C258.636,-313.8101 266.1262,-325.8306 272.6036,-336.2259"/>
<polygon fill="#000000" stroke="#000000" points="269.7324,-338.2364 277.9914,-344.8726 275.6735,-334.5345 269.7324,-338.2364"/>
</g>
<!-- numpy&#45;&gt;cs231n -->
<g id="edge4" class="edge">
<title>numpy&#45;&gt;cs231n</title>
<path fill="none" stroke="#000000" stroke-dasharray="5,2" d="M174.8349,-106.7563C167.8326,-115.6044 158.982,-126.788 150.6408,-137.3278"/>
<polygon fill="#000000" stroke="#000000" points="147.8619,-135.1993 144.4007,-145.2128 153.351,-139.5433 147.8619,-135.1993"/>
</g>
<!-- numpy&#45;&gt;hilevel -->
<g id="edge5" class="edge">
<title>numpy&#45;&gt;hilevel</title>
<path fill="none" stroke="#000000" stroke-dasharray="5,2" d="M192.4755,-108.0383C199.0203,-134.9936 211.5694,-186.6776 220.7974,-224.6838"/>
<polygon fill="#000000" stroke="#000000" points="217.4243,-225.6258 223.1851,-234.5176 224.2267,-223.9741 217.4243,-225.6258"/>
</g>
</g>
</svg>
