<?xml version="1.0" encoding="UTF-8" standalone="no"?>
<!DOCTYPE svg PUBLIC "-//W3C//DTD SVG 1.1//EN"
 "http://www.w3.org/Graphics/SVG/1.1/DTD/svg11.dtd">
<!-- Generated by graphviz version 2.38.0 (20140413.2041)
 -->
<!-- Title: 不求甚解工程師的 「機器學習」 學習捷徑地圖 Pages: 1 -->
<svg width="468pt" height="371pt"
 viewBox="0.00 0.00 467.94 370.95" xmlns="http://www.w3.org/2000/svg" xmlns:xlink="http://www.w3.org/1999/xlink">
<g id="graph0" class="graph" transform="scale(1 1) rotate(0) translate(4 366.953)">
<title>不求甚解工程師的 「機器學習」 學習捷徑地圖</title>
<polygon fill="white" stroke="none" points="-4,4 -4,-366.953 463.939,-366.953 463.939,4 -4,4"/>
<!-- python -->
<g id="node1" class="node"><title>python</title>
<ellipse fill="none" stroke="black" cx="220.096" cy="-18" rx="35.194" ry="18"/>
<text text-anchor="middle" x="220.096" y="-14.3" font-family="Times,serif" font-size="14.00">python</text>
</g>
<!-- jupyter -->
<g id="node3" class="node"><title>jupyter</title>
<ellipse fill="none" stroke="black" cx="389.096" cy="-162" rx="70.6878" ry="18"/>
<text text-anchor="middle" x="389.096" y="-158.3" font-family="Times,serif" font-size="14.00">jupyter notebook</text>
</g>
<!-- python&#45;&gt;jupyter -->
<g id="edge1" class="edge"><title>python&#45;&gt;jupyter</title>
<path fill="none" stroke="black" d="M254.075,-22.8462C286.489,-28.2951 334.489,-41.2955 363.096,-72 378.65,-88.6949 384.951,-114.188 387.476,-133.618"/>
<polygon fill="black" stroke="black" points="384.009,-134.111 388.526,-143.695 390.971,-133.386 384.009,-134.111"/>
</g>
<!-- cs231n -->
<g id="node5" class="node"><title>cs231n</title>
<ellipse fill="none" stroke="red" cx="102.096" cy="-162" rx="84.485" ry="18"/>
<text text-anchor="middle" x="102.096" y="-158.3" font-family="Times,serif" font-size="14.00" fill="red">史丹佛大學 cs231n</text>
</g>
<!-- python&#45;&gt;cs231n -->
<g id="edge6" class="edge"><title>python&#45;&gt;cs231n</title>
<path fill="none" stroke="black" d="M195.651,-31.2794C179.077,-40.602 157.625,-54.7443 143.096,-72 127.678,-90.3114 116.822,-115.381 110.171,-134.248"/>
<polygon fill="black" stroke="black" points="106.848,-133.15 106.991,-143.744 113.485,-135.373 106.848,-133.15"/>
</g>
<!-- hilevel -->
<g id="node6" class="node"><title>hilevel</title>
<ellipse fill="none" stroke="red" cx="252.096" cy="-253.477" rx="36.5405" ry="37.4533"/>
<text text-anchor="middle" x="252.096" y="-264.777" font-family="Times,serif" font-size="14.00" fill="red">keras</text>
<text text-anchor="middle" x="252.096" y="-249.777" font-family="Times,serif" font-size="14.00" fill="red">tflearn</text>
<text text-anchor="middle" x="252.096" y="-234.777" font-family="Times,serif" font-size="14.00" fill="red">caffe</text>
</g>
<!-- python&#45;&gt;hilevel -->
<g id="edge2" class="edge"><title>python&#45;&gt;hilevel</title>
<path fill="none" stroke="black" d="M224.905,-36.0612C227.66,-46.3891 230.979,-59.8669 233.096,-72 240.956,-117.057 246.011,-169.048 248.915,-205.621"/>
<polygon fill="black" stroke="black" points="245.456,-206.278 249.713,-215.979 252.435,-205.74 245.456,-206.278"/>
</g>
<!-- numpy -->
<g id="node7" class="node"><title>numpy</title>
<ellipse fill="none" stroke="black" cx="188.096" cy="-90" rx="35.9954" ry="18"/>
<text text-anchor="middle" x="188.096" y="-86.3" font-family="Times,serif" font-size="14.00">numpy</text>
</g>
<!-- python&#45;&gt;numpy -->
<g id="edge3" class="edge"><title>python&#45;&gt;numpy</title>
<path fill="none" stroke="black" d="M212.512,-35.589C208.781,-43.7507 204.196,-53.7797 200.011,-62.9347"/>
<polygon fill="black" stroke="black" points="196.822,-61.4939 195.847,-72.0438 203.188,-64.4042 196.822,-61.4939"/>
</g>
<!-- docker -->
<g id="node2" class="node"><title>docker</title>
<ellipse fill="none" stroke="black" cx="320.096" cy="-90" rx="34.394" ry="18"/>
<text text-anchor="middle" x="320.096" y="-86.3" font-family="Times,serif" font-size="14.00">docker</text>
</g>
<!-- docker&#45;&gt;jupyter -->
<g id="edge11" class="edge"><title>docker&#45;&gt;jupyter</title>
<path fill="none" stroke="black" stroke-dasharray="5,2" d="M335.409,-106.535C344.141,-115.394 355.278,-126.692 365.142,-136.699"/>
<polygon fill="black" stroke="black" points="362.864,-139.373 372.376,-144.038 367.849,-134.459 362.864,-139.373"/>
</g>
<!-- docker&#45;&gt;hilevel -->
<g id="edge12" class="edge"><title>docker&#45;&gt;hilevel</title>
<path fill="none" stroke="black" stroke-dasharray="5,2" d="M313.075,-107.673C303.068,-131.435 284.36,-175.861 270.293,-209.265"/>
<polygon fill="black" stroke="black" points="266.931,-208.229 266.276,-218.804 273.383,-210.946 266.931,-208.229"/>
</g>
<!-- jupyter&#45;&gt;hilevel -->
<g id="edge13" class="edge"><title>jupyter&#45;&gt;hilevel</title>
<path fill="none" stroke="black" stroke-dasharray="5,2" d="M364.603,-178.997C344.176,-192.338 314.695,-211.592 291.035,-227.045"/>
<polygon fill="black" stroke="black" points="289.068,-224.149 282.609,-232.548 292.896,-230.01 289.068,-224.149"/>
</g>
<!-- advanced -->
<g id="node8" class="node"><title>advanced</title>
<ellipse fill="none" stroke="black" cx="252.096" cy="-344.953" rx="57.3905" ry="18"/>
<text text-anchor="middle" x="252.096" y="-341.253" font-family="Times,serif" font-size="14.00">好玩的東東</text>
</g>
<!-- jupyter&#45;&gt;advanced -->
<g id="edge8" class="edge"><title>jupyter&#45;&gt;advanced</title>
<path fill="none" stroke="black" d="M377.818,-179.939C361.096,-204.797 328.431,-252.388 298.096,-290.953 290.599,-300.485 281.978,-310.616 274.24,-319.44"/>
<polygon fill="black" stroke="black" points="271.448,-317.314 267.44,-327.122 276.689,-321.954 271.448,-317.314"/>
</g>
<!-- mat_mul -->
<g id="node4" class="node"><title>mat_mul</title>
<ellipse fill="none" stroke="black" cx="48.0957" cy="-90" rx="48.1917" ry="18"/>
<text text-anchor="middle" x="48.0957" y="-86.3" font-family="Times,serif" font-size="14.00">矩陣乘法</text>
</g>
<!-- mat_mul&#45;&gt;cs231n -->
<g id="edge7" class="edge"><title>mat_mul&#45;&gt;cs231n</title>
<path fill="none" stroke="black" d="M60.893,-107.589C67.4543,-116.094 75.5799,-126.628 82.8765,-136.086"/>
<polygon fill="black" stroke="black" points="80.1359,-138.264 89.0152,-144.044 85.6784,-133.988 80.1359,-138.264"/>
</g>
<!-- cs231n&#45;&gt;hilevel -->
<g id="edge14" class="edge"><title>cs231n&#45;&gt;hilevel</title>
<path fill="none" stroke="black" stroke-dasharray="5,2" d="M129.26,-179.204C152.294,-192.944 185.659,-212.846 211.805,-228.443"/>
<polygon fill="black" stroke="black" points="210.342,-231.645 220.723,-233.762 213.928,-225.634 210.342,-231.645"/>
</g>
<!-- cs231n&#45;&gt;advanced -->
<g id="edge9" class="edge"><title>cs231n&#45;&gt;advanced</title>
<path fill="none" stroke="black" d="M115.717,-180.115C135.423,-204.793 173.138,-251.717 206.096,-290.953 214.015,-300.382 222.851,-310.626 230.645,-319.572"/>
<polygon fill="black" stroke="black" points="228.238,-322.137 237.454,-327.363 233.509,-317.53 228.238,-322.137"/>
</g>
<!-- hilevel&#45;&gt;advanced -->
<g id="edge10" class="edge"><title>hilevel&#45;&gt;advanced</title>
<path fill="none" stroke="black" d="M252.096,-291.128C252.096,-299.623 252.096,-308.519 252.096,-316.537"/>
<polygon fill="black" stroke="black" points="248.596,-316.807 252.096,-326.807 255.596,-316.807 248.596,-316.807"/>
</g>
<!-- numpy&#45;&gt;cs231n -->
<g id="edge4" class="edge"><title>numpy&#45;&gt;cs231n</title>
<path fill="none" stroke="black" stroke-dasharray="5,2" d="M169.857,-105.845C158.343,-115.217 143.235,-127.514 130.207,-138.118"/>
<polygon fill="black" stroke="black" points="127.961,-135.434 122.415,-144.461 132.38,-140.863 127.961,-135.434"/>
</g>
<!-- numpy&#45;&gt;hilevel -->
<g id="edge5" class="edge"><title>numpy&#45;&gt;hilevel</title>
<path fill="none" stroke="black" stroke-dasharray="5,2" d="M194.824,-107.976C204.229,-131.707 221.632,-175.615 234.795,-208.827"/>
<polygon fill="black" stroke="black" points="231.619,-210.313 238.558,-218.32 238.127,-207.733 231.619,-210.313"/>
</g>
</g>
</svg>
