<?xml version="1.0" encoding="UTF-8" standalone="no"?>
<!DOCTYPE svg PUBLIC "-//W3C//DTD SVG 1.1//EN"
 "http://www.w3.org/Graphics/SVG/1.1/DTD/svg11.dtd">
<!-- Generated by graphviz version 2.38.0 (20140413.2041)
 -->
<!-- Title: 遮罩上色流程 Pages: 1 -->
<svg width="177pt" height="260pt"
 viewBox="0.00 0.00 176.83 260.00" xmlns="http://www.w3.org/2000/svg" xmlns:xlink="http://www.w3.org/1999/xlink">
<g id="graph0" class="graph" transform="scale(1 1) rotate(0) translate(4 256)">
<title>遮罩上色流程</title>
<polygon fill="white" stroke="none" points="-4,4 -4,-256 172.83,-256 172.83,4 -4,4"/>
<!-- orig -->
<g id="node1" class="node"><title>orig</title>
<ellipse fill="none" stroke="black" cx="105.247" cy="-234" rx="29.4969" ry="18"/>
<text text-anchor="middle" x="105.247" y="-230.3" font-family="Times,serif" font-size="14.00">原圖</text>
</g>
<!-- gray -->
<g id="node2" class="node"><title>gray</title>
<ellipse fill="none" stroke="black" cx="29.2474" cy="-90" rx="29.4969" ry="18"/>
<text text-anchor="middle" x="29.2474" y="-86.3" font-family="Times,serif" font-size="14.00">黑白</text>
</g>
<!-- orig&#45;&gt;gray -->
<g id="edge1" class="edge"><title>orig&#45;&gt;gray</title>
<path fill="none" stroke="black" d="M86.2198,-220.145C73.5234,-210.558 57.5154,-196.337 48.2474,-180 37.4943,-161.045 32.8129,-136.68 30.7821,-118.236"/>
<polygon fill="black" stroke="black" points="34.256,-117.79 29.8668,-108.147 27.2847,-118.422 34.256,-117.79"/>
</g>
<!-- semseg -->
<g id="node3" class="node"><title>semseg</title>
<ellipse fill="none" stroke="black" cx="105.247" cy="-162" rx="48.1917" ry="18"/>
<text text-anchor="middle" x="105.247" y="-158.3" font-family="Times,serif" font-size="14.00">語義切割</text>
</g>
<!-- orig&#45;&gt;semseg -->
<g id="edge2" class="edge"><title>orig&#45;&gt;semseg</title>
<path fill="none" stroke="black" d="M105.247,-215.697C105.247,-207.983 105.247,-198.712 105.247,-190.112"/>
<polygon fill="black" stroke="black" points="108.748,-190.104 105.247,-180.104 101.748,-190.104 108.748,-190.104"/>
</g>
<!-- hilight -->
<g id="node5" class="node"><title>hilight</title>
<ellipse fill="none" stroke="black" cx="105.247" cy="-18" rx="57.3905" ry="18"/>
<text text-anchor="middle" x="105.247" y="-14.3" font-family="Times,serif" font-size="14.00">選擇性著色</text>
</g>
<!-- orig&#45;&gt;hilight -->
<g id="edge4" class="edge"><title>orig&#45;&gt;hilight</title>
<path fill="none" stroke="black" d="M125.382,-220.698C138.586,-211.365 154.745,-197.219 162.247,-180 182.707,-133.038 149.595,-76.1395 125.898,-44.102"/>
<polygon fill="black" stroke="black" points="128.37,-41.5728 119.516,-35.754 122.809,-45.8242 128.37,-41.5728"/>
</g>
<!-- gray&#45;&gt;hilight -->
<g id="edge5" class="edge"><title>gray&#45;&gt;hilight</title>
<path fill="none" stroke="black" d="M44.9947,-74.496C55.0979,-65.1903 68.4416,-52.9001 80.0031,-42.2513"/>
<polygon fill="black" stroke="black" points="82.6765,-44.5474 87.6608,-35.1982 77.9341,-39.3986 82.6765,-44.5474"/>
</g>
<!-- mask -->
<g id="node4" class="node"><title>mask</title>
<ellipse fill="none" stroke="black" cx="105.247" cy="-90" rx="29.4969" ry="18"/>
<text text-anchor="middle" x="105.247" y="-86.3" font-family="Times,serif" font-size="14.00">遮罩</text>
</g>
<!-- semseg&#45;&gt;mask -->
<g id="edge3" class="edge"><title>semseg&#45;&gt;mask</title>
<path fill="none" stroke="black" d="M105.247,-143.697C105.247,-135.983 105.247,-126.712 105.247,-118.112"/>
<polygon fill="black" stroke="black" points="108.748,-118.104 105.247,-108.104 101.748,-118.104 108.748,-118.104"/>
</g>
<!-- mask&#45;&gt;hilight -->
<g id="edge6" class="edge"><title>mask&#45;&gt;hilight</title>
<path fill="none" stroke="black" d="M105.247,-71.6966C105.247,-63.9827 105.247,-54.7125 105.247,-46.1124"/>
<polygon fill="black" stroke="black" points="108.748,-46.1043 105.247,-36.1043 101.748,-46.1044 108.748,-46.1043"/>
</g>
</g>
</svg>
