<?xml version="1.0" encoding="UTF-8" standalone="no"?>
<!DOCTYPE svg PUBLIC "-//W3C//DTD SVG 1.1//EN"
 "http://www.w3.org/Graphics/SVG/1.1/DTD/svg11.dtd">
<!-- Generated by graphviz version 2.38.0 (20140413.2041)
 -->
<!-- Title: 遮罩上色流程 Pages: 1 -->
<svg width="239pt" height="331pt"
 viewBox="0.00 0.00 239.26 330.96" xmlns="http://www.w3.org/2000/svg" xmlns:xlink="http://www.w3.org/1999/xlink">
<g id="graph0" class="graph" transform="scale(1 1) rotate(0) translate(4 326.96)">
<title>遮罩上色流程</title>
<polygon fill="white" stroke="none" points="-4,4 -4,-326.96 235.26,-326.96 235.26,4 -4,4"/>
<!-- orig -->
<g id="node1" class="node"><title>orig</title>
<ellipse fill="none" stroke="black" cx="146.841" cy="-296.09" rx="41.9398" ry="26.7407"/>
<text text-anchor="middle" x="146.841" y="-299.89" font-family="Times,serif" font-size="14.00">原圖</text>
<text text-anchor="middle" x="146.841" y="-284.89" font-family="Times,serif" font-size="14.00">orig.jpg</text>
</g>
<!-- gray -->
<g id="node2" class="node"><title>gray</title>
<ellipse fill="none" stroke="black" cx="43.8406" cy="-116.61" rx="43.6818" ry="26.7407"/>
<text text-anchor="middle" x="43.8406" y="-120.41" font-family="Times,serif" font-size="14.00">黑白</text>
<text text-anchor="middle" x="43.8406" y="-105.41" font-family="Times,serif" font-size="14.00">gray.jpg</text>
</g>
<!-- orig&#45;&gt;gray -->
<g id="edge1" class="edge"><title>orig&#45;&gt;gray</title>
<path fill="none" stroke="black" d="M119.937,-275.295C106.548,-264.227 91.0789,-249.417 80.8406,-233.22 65.4406,-208.858 55.9351,-177.531 50.4212,-153.634"/>
<polygon fill="black" stroke="black" points="53.7753,-152.586 48.2294,-143.559 46.9353,-154.075 53.7753,-152.586"/>
</g>
<!-- semseg -->
<g id="node3" class="node"><title>semseg</title>
<ellipse fill="none" stroke="black" cx="146.841" cy="-206.35" rx="57.0522" ry="26.7407"/>
<text text-anchor="middle" x="146.841" y="-210.15" font-family="Times,serif" font-size="14.00">語義切割</text>
<text text-anchor="middle" x="146.841" y="-195.15" font-family="Times,serif" font-size="14.00">semseg.png</text>
</g>
<!-- orig&#45;&gt;semseg -->
<g id="edge2" class="edge"><title>orig&#45;&gt;semseg</title>
<path fill="none" stroke="black" d="M146.841,-268.765C146.841,-260.799 146.841,-251.908 146.841,-243.419"/>
<polygon fill="black" stroke="black" points="150.341,-243.354 146.841,-233.354 143.341,-243.354 150.341,-243.354"/>
</g>
<!-- hilight -->
<g id="node5" class="node"><title>hilight</title>
<ellipse fill="none" stroke="black" cx="154.841" cy="-26.8701" rx="62.4516" ry="26.7407"/>
<text text-anchor="middle" x="154.841" y="-30.6701" font-family="Times,serif" font-size="14.00">選擇性著色</text>
<text text-anchor="middle" x="154.841" y="-15.6701" font-family="Times,serif" font-size="14.00">hilight.jpg</text>
</g>
<!-- orig&#45;&gt;hilight -->
<g id="edge4" class="edge"><title>orig&#45;&gt;hilight</title>
<path fill="none" stroke="black" d="M175.898,-276.433C189.877,-265.678 205.223,-250.802 212.841,-233.22 238.192,-174.707 236.29,-149.041 212.841,-89.7401 208.141,-77.8563 199.961,-66.9186 191.201,-57.6516"/>
<polygon fill="black" stroke="black" points="193.664,-55.1645 184.106,-50.5917 188.726,-60.1264 193.664,-55.1645"/>
</g>
<!-- gray&#45;&gt;hilight -->
<g id="edge5" class="edge"><title>gray&#45;&gt;hilight</title>
<path fill="none" stroke="black" d="M70.1461,-94.817C84.3404,-83.5971 102.096,-69.5619 117.679,-57.2444"/>
<polygon fill="black" stroke="black" points="119.925,-59.9307 125.6,-50.9837 115.584,-54.4391 119.925,-59.9307"/>
</g>
<!-- mask -->
<g id="node4" class="node"><title>mask</title>
<ellipse fill="none" stroke="black" cx="154.841" cy="-116.61" rx="49.4949" ry="26.7407"/>
<text text-anchor="middle" x="154.841" y="-120.41" font-family="Times,serif" font-size="14.00">遮罩</text>
<text text-anchor="middle" x="154.841" y="-105.41" font-family="Times,serif" font-size="14.00">mask.png</text>
</g>
<!-- semseg&#45;&gt;mask -->
<g id="edge3" class="edge"><title>semseg&#45;&gt;mask</title>
<path fill="none" stroke="black" d="M149.198,-179.5C149.932,-171.45 150.755,-162.42 151.541,-153.799"/>
<polygon fill="black" stroke="black" points="155.05,-153.856 152.473,-143.579 148.079,-153.22 155.05,-153.856"/>
</g>
<!-- mask&#45;&gt;hilight -->
<g id="edge6" class="edge"><title>mask&#45;&gt;hilight</title>
<path fill="none" stroke="black" d="M154.841,-89.2852C154.841,-81.3185 154.841,-72.4275 154.841,-63.9391"/>
<polygon fill="black" stroke="black" points="158.341,-63.874 154.841,-53.874 151.341,-63.8741 158.341,-63.874"/>
</g>
</g>
</svg>
