<?xml version="1.0" encoding="UTF-8" standalone="no"?>
<!DOCTYPE svg PUBLIC "-//W3C//DTD SVG 1.1//EN"
 "http://www.w3.org/Graphics/SVG/1.1/DTD/svg11.dtd">
<!-- Generated by graphviz version 2.38.0 (20140413.2041)
 -->
<!-- Title: javascript 學習地圖 Pages: 1 -->
<svg width="996pt" height="532pt"
 viewBox="0.00 0.00 996.00 532.00" xmlns="http://www.w3.org/2000/svg" xmlns:xlink="http://www.w3.org/1999/xlink">
<g id="graph0" class="graph" transform="scale(1 1) rotate(0) translate(4 528)">
<title>javascript 學習地圖</title>
<polygon fill="white" stroke="none" points="-4,4 -4,-528 991.997,-528 991.997,4 -4,4"/>
<!-- basics -->
<g id="node1" class="node"><title>basics</title>
<ellipse fill="none" stroke="black" cx="152.061" cy="-506" rx="48.1917" ry="18"/>
<text text-anchor="middle" x="152.061" y="-502.3" font-family="Times,serif" font-size="14.00">基礎概念</text>
</g>
<!-- neural_network -->
<g id="node2" class="node"><title>neural_network</title>
<ellipse fill="none" stroke="black" cx="152.061" cy="-452" rx="118.079" ry="18"/>
<text text-anchor="middle" x="152.061" y="-448.3" font-family="Times,serif" font-size="14.00">類神經網路 (neural network)</text>
</g>
<!-- basics&#45;&gt;neural_network -->
<g id="edge1" class="edge"><title>basics&#45;&gt;neural_network</title>
<path fill="none" stroke="black" d="M152.061,-487.79C152.061,-485.308 152.061,-482.826 152.061,-480.344"/>
<polygon fill="black" stroke="black" points="155.562,-480.141 152.061,-470.141 148.562,-480.141 155.562,-480.141"/>
</g>
<!-- training -->
<g id="node3" class="node"><title>training</title>
<ellipse fill="none" stroke="black" cx="152.061" cy="-290" rx="64.9885" ry="18"/>
<text text-anchor="middle" x="152.061" y="-286.3" font-family="Times,serif" font-size="14.00">訓練 (training)</text>
</g>
<!-- neural_network&#45;&gt;training -->
<g id="edge2" class="edge"><title>neural_network&#45;&gt;training</title>
<path fill="none" stroke="black" d="M48.6286,-443.117C35.2727,-437.247 23.556,-428.595 15.7719,-416 -5.25731,-381.974 -5.25731,-360.026 15.7719,-326 28.7763,-304.958 52.7572,-294.92 77.0199,-290.477"/>
<polygon fill="black" stroke="black" points="77.6808,-293.917 87.0366,-288.945 76.6223,-286.997 77.6808,-293.917"/>
</g>
<!-- network_types -->
<g id="node4" class="node"><title>network_types</title>
<ellipse fill="none" stroke="black" cx="152.061" cy="-344" rx="94.4839" ry="18"/>
<text text-anchor="middle" x="152.061" y="-340.3" font-family="Times,serif" font-size="14.00">常見類神經網路類別</text>
</g>
<!-- neural_network&#45;&gt;network_types -->
<g id="edge8" class="edge"><title>neural_network&#45;&gt;network_types</title>
<path fill="none" stroke="black" d="M48.6286,-443.117C35.2727,-437.247 23.556,-428.595 15.7719,-416 7.36024,-402.39 7.36024,-393.61 15.7719,-380 24.0043,-366.68 36.6354,-357.769 50.9521,-351.896"/>
<polygon fill="black" stroke="black" points="52.3343,-355.119 60.5744,-348.459 49.9798,-348.527 52.3343,-355.119"/>
</g>
<!-- applications -->
<g id="node5" class="node"><title>applications</title>
<ellipse fill="none" stroke="black" cx="152.061" cy="-398" rx="48.1917" ry="18"/>
<text text-anchor="middle" x="152.061" y="-394.3" font-family="Times,serif" font-size="14.00">應用領域</text>
</g>
<!-- neural_network&#45;&gt;applications -->
<g id="edge3" class="edge"><title>neural_network&#45;&gt;applications</title>
<path fill="none" stroke="black" d="M152.061,-433.79C152.061,-431.308 152.061,-428.826 152.061,-426.344"/>
<polygon fill="black" stroke="black" points="155.562,-426.141 152.061,-416.141 148.562,-426.141 155.562,-426.141"/>
</g>
<!-- fully_connected_network -->
<g id="node9" class="node"><title>fully_connected_network</title>
<ellipse fill="none" stroke="black" cx="403.192" cy="-137" rx="57.3905" ry="18"/>
<text text-anchor="middle" x="403.192" y="-133.3" font-family="Times,serif" font-size="14.00">全連接網路</text>
</g>
<!-- network_types&#45;&gt;fully_connected_network -->
<g id="edge9" class="edge"><title>network_types&#45;&gt;fully_connected_network</title>
<path fill="none" stroke="black" d="M237.82,-336.519C249.928,-332.23 261.316,-325.991 270.351,-317 319.867,-267.723 258.041,-214.459 306.351,-164 315.029,-154.936 326.493,-148.841 338.464,-144.76"/>
<polygon fill="black" stroke="black" points="339.533,-148.094 348.129,-141.901 337.547,-141.381 339.533,-148.094"/>
</g>
<!-- convolutional_network -->
<g id="node10" class="node"><title>convolutional_network</title>
<ellipse fill="none" stroke="black" cx="638.075" cy="-72" rx="48.1917" ry="18"/>
<text text-anchor="middle" x="638.075" y="-68.3" font-family="Times,serif" font-size="14.00">卷積網路</text>
</g>
<!-- network_types&#45;&gt;convolutional_network -->
<g id="edge10" class="edge"><title>network_types&#45;&gt;convolutional_network</title>
<path fill="none" stroke="black" d="M238.88,-336.76C250.705,-332.42 261.729,-326.102 270.351,-317 334.572,-249.209 238.44,-174.095 306.351,-110 381.765,-38.8227 513.93,-48.7522 586.248,-61.0608"/>
<polygon fill="black" stroke="black" points="586.01,-64.5736 596.47,-62.8847 587.24,-57.6824 586.01,-64.5736"/>
</g>
<!-- recurrent_network -->
<g id="node11" class="node"><title>recurrent_network</title>
<ellipse fill="none" stroke="black" cx="403.192" cy="-348" rx="96.6831" ry="18"/>
<text text-anchor="middle" x="403.192" y="-344.3" font-family="Times,serif" font-size="14.00">遞歸網路/回饋式網路</text>
</g>
<!-- network_types&#45;&gt;recurrent_network -->
<g id="edge11" class="edge"><title>network_types&#45;&gt;recurrent_network</title>
<path fill="none" stroke="black" d="M246.183,-345.495C262.55,-345.758 279.691,-346.033 296.374,-346.301"/>
<polygon fill="black" stroke="black" points="296.636,-349.806 306.691,-346.467 296.748,-342.806 296.636,-349.806"/>
</g>
<!-- image_labeling -->
<g id="node6" class="node"><title>image_labeling</title>
<ellipse fill="none" stroke="black" cx="638.075" cy="-256" rx="48.1917" ry="18"/>
<text text-anchor="middle" x="638.075" y="-252.3" font-family="Times,serif" font-size="14.00">圖形辨識</text>
</g>
<!-- applications&#45;&gt;image_labeling -->
<g id="edge4" class="edge"><title>applications&#45;&gt;image_labeling</title>
<path fill="none" stroke="black" d="M199.515,-394.986C222.39,-391.678 249.467,-384.878 270.351,-371 293.158,-355.845 283.303,-335.786 306.351,-321 390.557,-266.977 509.804,-256.121 579.726,-254.869"/>
<polygon fill="black" stroke="black" points="580.135,-258.365 590.094,-254.748 580.053,-251.366 580.135,-258.365"/>
</g>
<!-- text_analysis -->
<g id="node7" class="node"><title>text_analysis</title>
<ellipse fill="none" stroke="black" cx="403.192" cy="-500" rx="48.1917" ry="18"/>
<text text-anchor="middle" x="403.192" y="-496.3" font-family="Times,serif" font-size="14.00">文本分析</text>
</g>
<!-- applications&#45;&gt;text_analysis -->
<g id="edge5" class="edge"><title>applications&#45;&gt;text_analysis</title>
<path fill="none" stroke="black" d="M199.569,-401.413C222.325,-404.826 249.282,-411.599 270.351,-425 292.256,-438.933 284.929,-456.335 306.351,-471 318.939,-479.617 334.158,-485.734 348.725,-490.052"/>
<polygon fill="black" stroke="black" points="348.097,-493.509 358.666,-492.763 349.939,-486.755 348.097,-493.509"/>
</g>
<!-- speech_recognition -->
<g id="node8" class="node"><title>speech_recognition</title>
<ellipse fill="none" stroke="black" cx="638.075" cy="-402" rx="48.1917" ry="18"/>
<text text-anchor="middle" x="638.075" y="-398.3" font-family="Times,serif" font-size="14.00">語音辨識</text>
</g>
<!-- applications&#45;&gt;speech_recognition -->
<g id="edge6" class="edge"><title>applications&#45;&gt;speech_recognition</title>
<path fill="none" stroke="black" d="M200.352,-398.391C289.746,-399.13 483.195,-400.728 579.786,-401.527"/>
<polygon fill="black" stroke="black" points="579.92,-405.028 589.949,-401.611 579.978,-398.028 579.92,-405.028"/>
</g>
<!-- t_sne -->
<g id="node14" class="node"><title>t_sne</title>
<ellipse fill="none" stroke="black" cx="403.192" cy="-444" rx="81.4863" ry="18"/>
<text text-anchor="middle" x="403.192" y="-440.3" font-family="Times,serif" font-size="14.00">t&#45;SNE 資料視覺化</text>
</g>
<!-- applications&#45;&gt;t_sne -->
<g id="edge7" class="edge"><title>applications&#45;&gt;t_sne</title>
<path fill="none" stroke="black" d="M195.605,-405.855C232.48,-412.664 286.616,-422.66 330.221,-430.711"/>
<polygon fill="black" stroke="black" points="329.736,-434.181 340.205,-432.555 331.007,-427.297 329.736,-434.181"/>
</g>
<!-- eg001 -->
<g id="node21" class="node"><title>eg001</title>
<ellipse fill="none" stroke="black" cx="882.056" cy="-160" rx="96.6831" ry="18"/>
<text text-anchor="middle" x="882.056" y="-156.3" font-family="Times,serif" font-size="14.00">實作範例： 圖像識別</text>
</g>
<!-- image_labeling&#45;&gt;eg001 -->
<g id="edge21" class="edge"><title>image_labeling&#45;&gt;eg001</title>
<path fill="none" stroke="black" d="M668.078,-241.737C695.545,-228.505 738.122,-208.697 776.116,-194 790.265,-188.527 805.707,-183.185 820.285,-178.418"/>
<polygon fill="black" stroke="black" points="821.772,-181.616 830.214,-175.214 819.623,-174.954 821.772,-181.616"/>
</g>
<!-- eg003 -->
<g id="node23" class="node"><title>eg003</title>
<ellipse fill="none" stroke="black" cx="882.056" cy="-456" rx="105.881" ry="18"/>
<text text-anchor="middle" x="882.056" y="-452.3" font-family="Times,serif" font-size="14.00">實作範例： 文字生成器</text>
</g>
<!-- text_analysis&#45;&gt;eg003 -->
<g id="edge29" class="edge"><title>text_analysis&#45;&gt;eg003</title>
<path fill="none" stroke="black" d="M451.378,-499.671C516.539,-498.749 637.644,-495.348 740.116,-483 761.896,-480.376 785.368,-476.362 806.791,-472.226"/>
<polygon fill="black" stroke="black" points="807.664,-475.621 816.8,-470.256 806.312,-468.753 807.664,-475.621"/>
</g>
<!-- eg002 -->
<g id="node22" class="node"><title>eg002</title>
<ellipse fill="none" stroke="black" cx="882.056" cy="-221" rx="96.6831" ry="18"/>
<text text-anchor="middle" x="882.056" y="-217.3" font-family="Times,serif" font-size="14.00">實作範例： 語音辨識</text>
</g>
<!-- speech_recognition&#45;&gt;eg002 -->
<g id="edge25" class="edge"><title>speech_recognition&#45;&gt;eg002</title>
<path fill="none" stroke="black" d="M683.268,-395.835C701.792,-391.861 722.962,-385.408 740.116,-375 794.3,-342.122 840.224,-282.302 863.889,-247.69"/>
<polygon fill="black" stroke="black" points="867.021,-249.305 869.69,-239.052 861.21,-245.402 867.021,-249.305"/>
</g>
<!-- convolutional_network&#45;&gt;eg001 -->
<g id="edge22" class="edge"><title>convolutional_network&#45;&gt;eg001</title>
<path fill="none" stroke="black" d="M680.552,-80.8566C699.086,-85.3783 721.011,-91.516 740.116,-99 756.961,-105.599 759.695,-110.406 776.116,-118 792.866,-125.746 811.471,-133.469 828.309,-140.141"/>
<polygon fill="black" stroke="black" points="827.403,-143.545 837.99,-143.939 829.96,-137.028 827.403,-143.545"/>
</g>
<!-- lstm_network -->
<g id="node12" class="node"><title>lstm_network</title>
<ellipse fill="none" stroke="black" cx="638.075" cy="-456" rx="75.2868" ry="18"/>
<text text-anchor="middle" x="638.075" y="-452.3" font-family="Times,serif" font-size="14.00">長短期記憶網路</text>
</g>
<!-- recurrent_network&#45;&gt;lstm_network -->
<g id="edge12" class="edge"><title>recurrent_network&#45;&gt;lstm_network</title>
<path fill="none" stroke="black" d="M427.822,-365.455C453.356,-383.596 495.806,-411.706 536.034,-429 547.111,-433.762 559.24,-437.871 571.13,-441.344"/>
<polygon fill="black" stroke="black" points="570.46,-444.791 581.034,-444.112 572.345,-438.049 570.46,-444.791"/>
</g>
<!-- gru_network -->
<g id="node13" class="node"><title>gru_network</title>
<ellipse fill="none" stroke="black" cx="638.075" cy="-348" rx="102.082" ry="18"/>
<text text-anchor="middle" x="638.075" y="-344.3" font-family="Times,serif" font-size="14.00">Gated Recurrent Network</text>
</g>
<!-- recurrent_network&#45;&gt;gru_network -->
<g id="edge13" class="edge"><title>recurrent_network&#45;&gt;gru_network</title>
<path fill="none" stroke="black" d="M500.259,-348C508.724,-348 517.338,-348 525.913,-348"/>
<polygon fill="black" stroke="black" points="525.95,-351.5 535.95,-348 525.95,-344.5 525.95,-351.5"/>
</g>
<!-- lstm_network&#45;&gt;eg002 -->
<g id="edge26" class="edge"><title>lstm_network&#45;&gt;eg002</title>
<path fill="none" stroke="black" d="M702.273,-446.509C715.573,-442.552 728.944,-436.945 740.116,-429 806.377,-381.876 850.868,-293.1 870.161,-248.313"/>
<polygon fill="black" stroke="black" points="873.452,-249.517 874.105,-238.943 867,-246.802 873.452,-249.517"/>
</g>
<!-- lstm_network&#45;&gt;eg003 -->
<g id="edge30" class="edge"><title>lstm_network&#45;&gt;eg003</title>
<path fill="none" stroke="black" d="M713.652,-456C730.136,-456 747.974,-456 765.654,-456"/>
<polygon fill="black" stroke="black" points="766.033,-459.5 776.033,-456 766.033,-452.5 766.033,-459.5"/>
</g>
<!-- docker -->
<g id="node15" class="node"><title>docker</title>
<ellipse fill="none" stroke="black" cx="403.192" cy="-191" rx="34.394" ry="18"/>
<text text-anchor="middle" x="403.192" y="-187.3" font-family="Times,serif" font-size="14.00">docker</text>
</g>
<!-- keras -->
<g id="node17" class="node"><title>keras</title>
<ellipse fill="none" stroke="black" cx="638.075" cy="-18" rx="29.4969" ry="18"/>
<text text-anchor="middle" x="638.075" y="-14.3" font-family="Times,serif" font-size="14.00">keras</text>
</g>
<!-- docker&#45;&gt;keras -->
<g id="edge14" class="edge"><title>docker&#45;&gt;keras</title>
<path fill="none" stroke="black" d="M437.94,-189.441C458.394,-186.76 483.621,-180.101 500.034,-164 539.478,-125.304 496.329,-83.4289 536.034,-45 552.553,-29.0119 577.446,-22.2341 598.391,-19.467"/>
<polygon fill="black" stroke="black" points="599.034,-22.9185 608.609,-18.3828 598.295,-15.9576 599.034,-22.9185"/>
</g>
<!-- tflearn -->
<g id="node18" class="node"><title>tflearn</title>
<ellipse fill="none" stroke="black" cx="638.075" cy="-126" rx="33.5952" ry="18"/>
<text text-anchor="middle" x="638.075" y="-122.3" font-family="Times,serif" font-size="14.00">tflearn</text>
</g>
<!-- docker&#45;&gt;tflearn -->
<g id="edge15" class="edge"><title>docker&#45;&gt;tflearn</title>
<path fill="none" stroke="black" d="M434.161,-182.635C475.935,-170.976 551.726,-149.822 597.922,-136.928"/>
<polygon fill="black" stroke="black" points="598.897,-140.29 607.588,-134.23 597.015,-133.547 598.897,-140.29"/>
</g>
<!-- docker&#45;&gt;eg001 -->
<g id="edge23" class="edge"><title>docker&#45;&gt;eg001</title>
<path fill="none" stroke="black" d="M437.724,-188.82C507.86,-184.261 672.454,-173.561 780.156,-166.559"/>
<polygon fill="black" stroke="black" points="780.645,-170.035 790.396,-165.894 780.19,-163.05 780.645,-170.035"/>
</g>
<!-- docker&#45;&gt;eg002 -->
<g id="edge27" class="edge"><title>docker&#45;&gt;eg002</title>
<path fill="none" stroke="black" d="M437.724,-193.11C507.758,-197.515 671.973,-207.846 779.683,-214.622"/>
<polygon fill="black" stroke="black" points="779.725,-218.132 789.925,-215.267 780.165,-211.146 779.725,-218.132"/>
</g>
<!-- docker&#45;&gt;eg003 -->
<g id="edge31" class="edge"><title>docker&#45;&gt;eg003</title>
<path fill="none" stroke="black" d="M421.091,-206.423C444.885,-227.24 490.467,-263.913 536.034,-283 621.132,-318.646 658.025,-278.889 740.116,-321 791.371,-347.293 836.71,-398.206 861.384,-429.44"/>
<polygon fill="black" stroke="black" points="858.889,-431.934 867.783,-437.691 864.42,-427.644 858.889,-431.934"/>
</g>
<!-- python -->
<g id="node16" class="node"><title>python</title>
<ellipse fill="none" stroke="black" cx="403.192" cy="-22" rx="35.194" ry="18"/>
<text text-anchor="middle" x="403.192" y="-18.3" font-family="Times,serif" font-size="14.00">python</text>
</g>
<!-- python&#45;&gt;keras -->
<g id="edge16" class="edge"><title>python&#45;&gt;keras</title>
<path fill="none" stroke="black" d="M438.555,-21.4098C481.309,-20.6754 554.099,-19.4252 598.657,-18.6599"/>
<polygon fill="black" stroke="black" points="598.86,-22.157 608.799,-18.4857 598.74,-15.158 598.86,-22.157"/>
</g>
<!-- python&#45;&gt;tflearn -->
<g id="edge17" class="edge"><title>python&#45;&gt;tflearn</title>
<path fill="none" stroke="black" d="M424.75,-36.3621C449.948,-53.3982 494.439,-81.6658 536.034,-99 555.125,-106.956 577.23,-113.177 595.889,-117.633"/>
<polygon fill="black" stroke="black" points="595.329,-121.095 605.859,-119.926 596.898,-114.273 595.329,-121.095"/>
</g>
<!-- tensorflow -->
<g id="node19" class="node"><title>tensorflow</title>
<ellipse fill="none" stroke="black" cx="882.056" cy="-91" rx="48.1917" ry="18"/>
<text text-anchor="middle" x="882.056" y="-87.3" font-family="Times,serif" font-size="14.00">tensorflow</text>
</g>
<!-- keras&#45;&gt;tensorflow -->
<g id="edge19" class="edge"><title>keras&#45;&gt;tensorflow</title>
<path fill="none" stroke="black" d="M665.353,-24.6044C685.811,-29.8465 714.874,-37.5144 740.116,-45 772.423,-54.5811 808.548,-66.3934 836.135,-75.6489"/>
<polygon fill="black" stroke="black" points="835.296,-79.0593 845.89,-78.9343 837.53,-72.4255 835.296,-79.0593"/>
</g>
<!-- theano -->
<g id="node20" class="node"><title>theano</title>
<ellipse fill="none" stroke="black" cx="882.056" cy="-18" rx="34.394" ry="18"/>
<text text-anchor="middle" x="882.056" y="-14.3" font-family="Times,serif" font-size="14.00">theano</text>
</g>
<!-- keras&#45;&gt;theano -->
<g id="edge20" class="edge"><title>keras&#45;&gt;theano</title>
<path fill="none" stroke="black" d="M667.783,-18C709.743,-18 788.159,-18 837.321,-18"/>
<polygon fill="black" stroke="black" points="837.344,-21.5001 847.344,-18 837.344,-14.5001 837.344,-21.5001"/>
</g>
<!-- keras&#45;&gt;eg001 -->
<g id="edge24" class="edge"><title>keras&#45;&gt;eg001</title>
<path fill="none" stroke="black" d="M667.655,-19.3599C689.636,-21.7715 719.618,-28.1895 740.116,-45 768.087,-67.9397 749.565,-93.4298 776.116,-118 786.94,-128.017 800.454,-135.773 814.145,-141.731"/>
<polygon fill="black" stroke="black" points="813.038,-145.059 823.62,-145.575 815.669,-138.572 813.038,-145.059"/>
</g>
<!-- tflearn&#45;&gt;tensorflow -->
<g id="edge18" class="edge"><title>tflearn&#45;&gt;tensorflow</title>
<path fill="none" stroke="black" d="M670.958,-121.388C710.617,-115.652 778.937,-105.77 826.875,-98.8368"/>
<polygon fill="black" stroke="black" points="827.381,-102.3 836.777,-97.4045 826.379,-95.3721 827.381,-102.3"/>
</g>
<!-- tflearn&#45;&gt;eg002 -->
<g id="edge28" class="edge"><title>tflearn&#45;&gt;eg002</title>
<path fill="none" stroke="black" d="M663.999,-138.049C691.21,-150.978 736.236,-171.713 776.116,-187 790.282,-192.43 805.73,-197.756 820.309,-202.521"/>
<polygon fill="black" stroke="black" points="819.646,-205.985 830.238,-205.725 821.796,-199.323 819.646,-205.985"/>
</g>
</g>
</svg>
