<?xml version="1.0" encoding="UTF-8" standalone="no"?>
<!DOCTYPE svg PUBLIC "-//W3C//DTD SVG 1.1//EN"
 "http://www.w3.org/Graphics/SVG/1.1/DTD/svg11.dtd">
<!-- Generated by graphviz version 2.38.0 (20140413.2041)
 -->
<!-- Title: javascript 學習地圖 Pages: 1 -->
<svg width="1035pt" height="611pt"
 viewBox="0.00 0.00 1034.62 611.00" xmlns="http://www.w3.org/2000/svg" xmlns:xlink="http://www.w3.org/1999/xlink">
<g id="graph0" class="graph" transform="scale(1 1) rotate(0) translate(4 607)">
<title>javascript 學習地圖</title>
<polygon fill="white" stroke="none" points="-4,4 -4,-607 1030.62,-607 1030.62,4 -4,4"/>
<!-- basics -->
<g id="node1" class="node"><title>basics</title>
<ellipse fill="none" stroke="black" cx="48.0957" cy="-207" rx="48.1917" ry="18"/>
<text text-anchor="middle" x="48.0957" y="-203.3" font-family="Times,serif" font-size="14.00">基礎概念</text>
</g>
<!-- neural_network -->
<g id="node2" class="node"><title>neural_network</title>
<ellipse fill="none" stroke="black" cx="241.382" cy="-207" rx="109.381" ry="18"/>
<text text-anchor="middle" x="241.382" y="-203.3" font-family="Times,serif" font-size="14.00">神經網路 (neural network)</text>
</g>
<!-- basics&#45;&gt;neural_network -->
<g id="edge1" class="edge"><title>basics&#45;&gt;neural_network</title>
<path fill="none" stroke="black" d="M96.3799,-207C104.338,-207 112.902,-207 121.745,-207"/>
<polygon fill="black" stroke="black" points="121.83,-210.5 131.83,-207 121.83,-203.5 121.83,-210.5"/>
</g>
<!-- training -->
<g id="node3" class="node"><title>training</title>
<ellipse fill="none" stroke="black" cx="471.715" cy="-18" rx="64.9885" ry="18"/>
<text text-anchor="middle" x="471.715" y="-14.3" font-family="Times,serif" font-size="14.00">訓練 (training)</text>
</g>
<!-- neural_network&#45;&gt;training -->
<g id="edge2" class="edge"><title>neural_network&#45;&gt;training</title>
<path fill="none" stroke="black" d="M253.551,-189.082C275.171,-155.843 325.984,-84.4361 386.572,-45 394.046,-40.1355 402.463,-36.088 411.011,-32.7374"/>
<polygon fill="black" stroke="black" points="412.459,-35.9356 420.673,-29.2441 410.079,-29.3526 412.459,-35.9356"/>
</g>
<!-- network_types -->
<g id="node4" class="node"><title>network_types</title>
<ellipse fill="none" stroke="black" cx="471.715" cy="-396" rx="85.2851" ry="18"/>
<text text-anchor="middle" x="471.715" y="-392.3" font-family="Times,serif" font-size="14.00">常見神經網路類別</text>
</g>
<!-- neural_network&#45;&gt;network_types -->
<g id="edge8" class="edge"><title>neural_network&#45;&gt;network_types</title>
<path fill="none" stroke="black" d="M263.863,-224.781C305.021,-258.849 395.031,-333.354 441.565,-371.872"/>
<polygon fill="black" stroke="black" points="439.522,-374.724 449.457,-378.404 443.985,-369.332 439.522,-374.724"/>
</g>
<!-- applications -->
<g id="node5" class="node"><title>applications</title>
<ellipse fill="none" stroke="black" cx="471.715" cy="-207" rx="48.1917" ry="18"/>
<text text-anchor="middle" x="471.715" y="-203.3" font-family="Times,serif" font-size="14.00">應用領域</text>
</g>
<!-- neural_network&#45;&gt;applications -->
<g id="edge3" class="edge"><title>neural_network&#45;&gt;applications</title>
<path fill="none" stroke="black" d="M350.864,-207C372.417,-207 394.241,-207 413.253,-207"/>
<polygon fill="black" stroke="black" points="413.507,-210.5 423.507,-207 413.507,-203.5 413.507,-210.5"/>
</g>
<!-- fully_connected_network -->
<g id="node9" class="node"><title>fully_connected_network</title>
<ellipse fill="none" stroke="black" cx="689.698" cy="-504" rx="57.3905" ry="18"/>
<text text-anchor="middle" x="689.698" y="-500.3" font-family="Times,serif" font-size="14.00">全連接網路</text>
</g>
<!-- network_types&#45;&gt;fully_connected_network -->
<g id="edge9" class="edge"><title>network_types&#45;&gt;fully_connected_network</title>
<path fill="none" stroke="black" d="M494.031,-413.478C517.119,-431.637 555.653,-459.761 592.857,-477 605.106,-482.676 618.8,-487.401 631.919,-491.228"/>
<polygon fill="black" stroke="black" points="631.232,-494.67 641.805,-493.98 633.11,-487.926 631.232,-494.67"/>
</g>
<!-- convolutional_network -->
<g id="node10" class="node"><title>convolutional_network</title>
<ellipse fill="none" stroke="black" cx="689.698" cy="-288" rx="48.1917" ry="18"/>
<text text-anchor="middle" x="689.698" y="-284.3" font-family="Times,serif" font-size="14.00">卷積網路</text>
</g>
<!-- network_types&#45;&gt;convolutional_network -->
<g id="edge10" class="edge"><title>network_types&#45;&gt;convolutional_network</title>
<path fill="none" stroke="black" d="M494.031,-378.522C517.119,-360.363 555.653,-332.239 592.857,-315 606.748,-308.564 622.498,-303.349 637.159,-299.282"/>
<polygon fill="black" stroke="black" points="638.328,-302.593 647.098,-296.648 636.535,-295.826 638.328,-302.593"/>
</g>
<!-- recurrent_network -->
<g id="node11" class="node"><title>recurrent_network</title>
<ellipse fill="none" stroke="black" cx="689.698" cy="-558" rx="96.6831" ry="18"/>
<text text-anchor="middle" x="689.698" y="-554.3" font-family="Times,serif" font-size="14.00">遞歸網路/回饋式網路</text>
</g>
<!-- network_types&#45;&gt;recurrent_network -->
<g id="edge11" class="edge"><title>network_types&#45;&gt;recurrent_network</title>
<path fill="none" stroke="black" d="M483.958,-414.288C502.821,-443.422 543.651,-500.213 592.857,-531 599.154,-534.94 606.037,-538.318 613.132,-541.211"/>
<polygon fill="black" stroke="black" points="612.312,-544.641 622.904,-544.864 614.763,-538.084 612.312,-544.641"/>
</g>
<!-- image_labeling -->
<g id="node6" class="node"><title>image_labeling</title>
<ellipse fill="none" stroke="black" cx="689.698" cy="-342" rx="48.1917" ry="18"/>
<text text-anchor="middle" x="689.698" y="-338.3" font-family="Times,serif" font-size="14.00">圖形辨識</text>
</g>
<!-- applications&#45;&gt;image_labeling -->
<g id="edge4" class="edge"><title>applications&#45;&gt;image_labeling</title>
<path fill="none" stroke="black" d="M487.199,-224.261C508.125,-248.11 549.127,-290.916 592.857,-315 606.144,-322.318 621.583,-327.791 636.138,-331.825"/>
<polygon fill="black" stroke="black" points="635.477,-335.269 646.035,-334.392 637.234,-328.494 635.477,-335.269"/>
</g>
<!-- text_analysis -->
<g id="node7" class="node"><title>text_analysis</title>
<ellipse fill="none" stroke="black" cx="689.698" cy="-234" rx="48.1917" ry="18"/>
<text text-anchor="middle" x="689.698" y="-230.3" font-family="Times,serif" font-size="14.00">文本分析</text>
</g>
<!-- applications&#45;&gt;text_analysis -->
<g id="edge5" class="edge"><title>applications&#45;&gt;text_analysis</title>
<path fill="none" stroke="black" d="M517.467,-212.594C551.092,-216.798 597.347,-222.58 633.307,-227.076"/>
<polygon fill="black" stroke="black" points="633.276,-230.599 643.633,-228.366 634.144,-223.653 633.276,-230.599"/>
</g>
<!-- speech_recognition -->
<g id="node8" class="node"><title>speech_recognition</title>
<ellipse fill="none" stroke="black" cx="689.698" cy="-180" rx="48.1917" ry="18"/>
<text text-anchor="middle" x="689.698" y="-176.3" font-family="Times,serif" font-size="14.00">語音辨識</text>
</g>
<!-- applications&#45;&gt;speech_recognition -->
<g id="edge6" class="edge"><title>applications&#45;&gt;speech_recognition</title>
<path fill="none" stroke="black" d="M517.467,-201.406C551.092,-197.202 597.347,-191.42 633.307,-186.924"/>
<polygon fill="black" stroke="black" points="634.144,-190.347 643.633,-185.634 633.276,-183.401 634.144,-190.347"/>
</g>
<!-- t_sne -->
<g id="node14" class="node"><title>t_sne</title>
<ellipse fill="none" stroke="black" cx="689.698" cy="-126" rx="81.4863" ry="18"/>
<text text-anchor="middle" x="689.698" y="-122.3" font-family="Times,serif" font-size="14.00">t&#45;SNE 資料視覺化</text>
</g>
<!-- applications&#45;&gt;t_sne -->
<g id="edge7" class="edge"><title>applications&#45;&gt;t_sne</title>
<path fill="none" stroke="black" d="M501.351,-192.683C525.386,-181.02 560.832,-164.636 592.857,-153 603.413,-149.165 614.784,-145.537 625.876,-142.259"/>
<polygon fill="black" stroke="black" points="626.889,-145.609 635.525,-139.471 624.946,-138.884 626.889,-145.609"/>
</g>
<!-- eg001 -->
<g id="node20" class="node"><title>eg001</title>
<ellipse fill="none" stroke="black" cx="924.581" cy="-288" rx="96.6831" ry="18"/>
<text text-anchor="middle" x="924.581" y="-284.3" font-family="Times,serif" font-size="14.00">實作範例： 圖像識別</text>
</g>
<!-- image_labeling&#45;&gt;eg001 -->
<g id="edge19" class="edge"><title>image_labeling&#45;&gt;eg001</title>
<path fill="none" stroke="black" d="M730.998,-332.656C764.601,-324.864 813.271,-313.578 853.274,-304.302"/>
<polygon fill="black" stroke="black" points="854.292,-307.659 863.243,-301.991 852.711,-300.84 854.292,-307.659"/>
</g>
<!-- eg002 -->
<g id="node22" class="node"><title>eg002</title>
<ellipse fill="none" stroke="black" cx="924.581" cy="-369" rx="96.6831" ry="18"/>
<text text-anchor="middle" x="924.581" y="-365.3" font-family="Times,serif" font-size="14.00">實作範例： 語音辨識</text>
</g>
<!-- image_labeling&#45;&gt;eg002 -->
<g id="edge23" class="edge"><title>image_labeling&#45;&gt;eg002</title>
<path fill="none" stroke="black" d="M735.877,-347.238C763.087,-350.393 798.735,-354.526 831.646,-358.341"/>
<polygon fill="black" stroke="black" points="831.423,-361.839 841.76,-359.514 832.229,-354.885 831.423,-361.839"/>
</g>
<!-- convolutional_network&#45;&gt;eg001 -->
<g id="edge20" class="edge"><title>convolutional_network&#45;&gt;eg001</title>
<path fill="none" stroke="black" d="M737.826,-288C760.79,-288 789.409,-288 817.251,-288"/>
<polygon fill="black" stroke="black" points="817.462,-291.5 827.461,-288 817.461,-284.5 817.462,-291.5"/>
</g>
<!-- lstm_network -->
<g id="node12" class="node"><title>lstm_network</title>
<ellipse fill="none" stroke="black" cx="924.581" cy="-585" rx="75.2868" ry="18"/>
<text text-anchor="middle" x="924.581" y="-581.3" font-family="Times,serif" font-size="14.00">長短期記憶網路</text>
</g>
<!-- recurrent_network&#45;&gt;lstm_network -->
<g id="edge12" class="edge"><title>recurrent_network&#45;&gt;lstm_network</title>
<path fill="none" stroke="black" d="M772.149,-567.443C796.251,-570.238 822.557,-573.288 846.382,-576.05"/>
<polygon fill="black" stroke="black" points="846.09,-579.539 856.427,-577.214 846.896,-572.586 846.09,-579.539"/>
</g>
<!-- gru_network -->
<g id="node13" class="node"><title>gru_network</title>
<ellipse fill="none" stroke="black" cx="924.581" cy="-531" rx="102.082" ry="18"/>
<text text-anchor="middle" x="924.581" y="-527.3" font-family="Times,serif" font-size="14.00">Gated Recurrent Network</text>
</g>
<!-- recurrent_network&#45;&gt;gru_network -->
<g id="edge13" class="edge"><title>recurrent_network&#45;&gt;gru_network</title>
<path fill="none" stroke="black" d="M772.149,-548.557C790.383,-546.443 809.879,-544.182 828.608,-542.011"/>
<polygon fill="black" stroke="black" points="829.089,-545.479 838.619,-540.85 828.283,-538.525 829.089,-545.479"/>
</g>
<!-- python -->
<g id="node15" class="node"><title>python</title>
<ellipse fill="none" stroke="black" cx="471.715" cy="-72" rx="35.194" ry="18"/>
<text text-anchor="middle" x="471.715" y="-68.3" font-family="Times,serif" font-size="14.00">python</text>
</g>
<!-- keras -->
<g id="node16" class="node"><title>keras</title>
<ellipse fill="none" stroke="black" cx="689.698" cy="-18" rx="29.4969" ry="18"/>
<text text-anchor="middle" x="689.698" y="-14.3" font-family="Times,serif" font-size="14.00">keras</text>
</g>
<!-- python&#45;&gt;keras -->
<g id="edge14" class="edge"><title>python&#45;&gt;keras</title>
<path fill="none" stroke="black" d="M503.66,-64.2631C542.992,-54.4294 610.775,-37.4823 652.474,-27.0567"/>
<polygon fill="black" stroke="black" points="653.374,-30.4396 662.226,-24.6185 651.676,-23.6486 653.374,-30.4396"/>
</g>
<!-- tflearn -->
<g id="node17" class="node"><title>tflearn</title>
<ellipse fill="none" stroke="black" cx="689.698" cy="-72" rx="33.5952" ry="18"/>
<text text-anchor="middle" x="689.698" y="-68.3" font-family="Times,serif" font-size="14.00">tflearn</text>
</g>
<!-- python&#45;&gt;tflearn -->
<g id="edge15" class="edge"><title>python&#45;&gt;tflearn</title>
<path fill="none" stroke="black" d="M506.938,-72C544.47,-72 604.774,-72 645.527,-72"/>
<polygon fill="black" stroke="black" points="645.698,-75.5001 655.698,-72 645.698,-68.5001 645.698,-75.5001"/>
</g>
<!-- tensorflow -->
<g id="node18" class="node"><title>tensorflow</title>
<ellipse fill="none" stroke="black" cx="924.581" cy="-72" rx="48.1917" ry="18"/>
<text text-anchor="middle" x="924.581" y="-68.3" font-family="Times,serif" font-size="14.00">tensorflow</text>
</g>
<!-- keras&#45;&gt;tensorflow -->
<g id="edge17" class="edge"><title>keras&#45;&gt;tensorflow</title>
<path fill="none" stroke="black" d="M717.413,-24.1945C755.337,-32.9881 825.479,-49.2526 873.316,-60.3447"/>
<polygon fill="black" stroke="black" points="872.633,-63.7792 883.165,-62.6286 874.214,-56.9602 872.633,-63.7792"/>
</g>
<!-- theano -->
<g id="node19" class="node"><title>theano</title>
<ellipse fill="none" stroke="black" cx="924.581" cy="-18" rx="34.394" ry="18"/>
<text text-anchor="middle" x="924.581" y="-14.3" font-family="Times,serif" font-size="14.00">theano</text>
</g>
<!-- keras&#45;&gt;theano -->
<g id="edge18" class="edge"><title>keras&#45;&gt;theano</title>
<path fill="none" stroke="black" d="M719.254,-18C759.34,-18 832.648,-18 879.691,-18"/>
<polygon fill="black" stroke="black" points="879.889,-21.5001 889.889,-18 879.889,-14.5001 879.889,-21.5001"/>
</g>
<!-- keras&#45;&gt;eg001 -->
<g id="edge21" class="edge"><title>keras&#45;&gt;eg001</title>
<path fill="none" stroke="black" d="M718.872,-20.2109C739.474,-23.0927 767.102,-29.7277 786.54,-45 796.142,-52.5446 875.691,-199.061 909,-260.866"/>
<polygon fill="black" stroke="black" points="906.109,-262.879 913.931,-270.024 912.272,-259.56 906.109,-262.879"/>
</g>
<!-- tflearn&#45;&gt;tensorflow -->
<g id="edge16" class="edge"><title>tflearn&#45;&gt;tensorflow</title>
<path fill="none" stroke="black" d="M723.571,-72C760.56,-72 821.329,-72 866.192,-72"/>
<polygon fill="black" stroke="black" points="866.368,-75.5001 876.368,-72 866.368,-68.5001 866.368,-75.5001"/>
</g>
<!-- tflearn&#45;&gt;eg002 -->
<g id="edge24" class="edge"><title>tflearn&#45;&gt;eg002</title>
<path fill="none" stroke="black" d="M723.79,-72.6948C744.781,-74.9656 770.85,-81.4915 786.54,-99 851.491,-171.48 765.788,-235.935 822.54,-315 833.156,-329.79 849.099,-340.908 865.201,-349.088"/>
<polygon fill="black" stroke="black" points="864.126,-352.451 874.661,-353.57 867.123,-346.125 864.126,-352.451"/>
</g>
<!-- docker -->
<g id="node21" class="node"><title>docker</title>
<ellipse fill="none" stroke="black" cx="689.698" cy="-396" rx="34.394" ry="18"/>
<text text-anchor="middle" x="689.698" y="-392.3" font-family="Times,serif" font-size="14.00">docker</text>
</g>
<!-- docker&#45;&gt;eg001 -->
<g id="edge22" class="edge"><title>docker&#45;&gt;eg001</title>
<path fill="none" stroke="black" d="M722.414,-390.152C741.618,-385.869 766.239,-379.034 786.54,-369 804.469,-360.138 805.671,-352.745 822.54,-342 840.682,-330.444 861.529,-319.014 879.557,-309.667"/>
<polygon fill="black" stroke="black" points="881.397,-312.656 888.698,-304.979 878.202,-306.428 881.397,-312.656"/>
</g>
<!-- docker&#45;&gt;eg002 -->
<g id="edge25" class="edge"><title>docker&#45;&gt;eg002</title>
<path fill="none" stroke="black" d="M723.571,-392.189C751.654,-388.933 793.444,-384.088 831.573,-379.667"/>
<polygon fill="black" stroke="black" points="832.165,-383.122 841.695,-378.494 831.359,-376.169 832.165,-383.122"/>
</g>
<!-- lstm -->
<g id="node23" class="node"><title>lstm</title>
<ellipse fill="none" stroke="black" cx="689.698" cy="-450" rx="27" ry="18"/>
<text text-anchor="middle" x="689.698" y="-446.3" font-family="Times,serif" font-size="14.00">lstm</text>
</g>
<!-- lstm&#45;&gt;eg002 -->
<g id="edge26" class="edge"><title>lstm&#45;&gt;eg002</title>
<path fill="none" stroke="black" d="M715.33,-443.792C734.813,-438.707 762.622,-431.058 786.54,-423 816.433,-412.928 849.335,-400.025 875.407,-389.358"/>
<polygon fill="black" stroke="black" points="876.77,-392.582 884.685,-385.538 874.105,-386.109 876.77,-392.582"/>
</g>
</g>
</svg>
