<?xml version="1.0" encoding="UTF-8" standalone="no"?>
<!-- Created with Inkscape (http://www.inkscape.org/) -->

<svg
   xmlns:dc="http://purl.org/dc/elements/1.1/"
   xmlns:cc="http://creativecommons.org/ns#"
   xmlns:rdf="http://www.w3.org/1999/02/22-rdf-syntax-ns#"
   xmlns:svg="http://www.w3.org/2000/svg"
   xmlns="http://www.w3.org/2000/svg"
   xmlns:xlink="http://www.w3.org/1999/xlink"
   xmlns:sodipodi="http://sodipodi.sourceforge.net/DTD/sodipodi-0.dtd"
   xmlns:inkscape="http://www.inkscape.org/namespaces/inkscape"
   width="600"
   height="300"
   viewBox="0 0 600 300.00002"
   id="svg2"
   version="1.1"
   inkscape:version="0.91 r13725"
   sodipodi:docname="port-forwarding.svg">
  <defs
     id="defs4">
    <marker
       inkscape:stockid="Arrow1Lend"
       orient="auto"
       refY="0"
       refX="0"
       id="Arrow1Lend"
       style="overflow:visible"
       inkscape:isstock="true">
      <path
         id="path4197"
         d="M 0,0 5,-5 -12.5,0 5,5 0,0 Z"
         style="fill:#000000;fill-opacity:1;fill-rule:evenodd;stroke:#000000;stroke-width:1pt;stroke-opacity:1"
         transform="matrix(-0.8,0,0,-0.8,-10,0)"
         inkscape:connector-curvature="0" />
    </marker>
    <linearGradient
       x1="271.01999"
       y1="-441.04999"
       x2="285.03"
       gradientUnits="userSpaceOnUse"
       y2="-431.97"
       id="linearGradient6712">
      <stop
         offset="0"
         stop-color="#fff"
         id="stop6472" />
      <stop
         offset="1"
         stop-opacity="0"
         stop-color="#fff"
         id="stop6474" />
    </linearGradient>
    <linearGradient
       x1="287.51999"
       y1="-439.75"
       x2="289.67999"
       gradientUnits="userSpaceOnUse"
       y2="-436.32001"
       id="linearGradient6714">
      <stop
         offset="0"
         stop-color="#fff"
         id="stop6499" />
      <stop
         offset="1"
         stop-opacity="0"
         stop-color="#fff"
         id="stop6501" />
    </linearGradient>
    <linearGradient
       x1="286.51001"
       y1="-441.29001"
       x2="289.85001"
       gradientUnits="userSpaceOnUse"
       y2="-436.14001"
       id="linearGradient6716">
      <stop
         offset="0"
         stop-color="#fff"
         id="stop6515" />
      <stop
         offset="1"
         stop-opacity="0"
         stop-color="#fff"
         id="stop6517" />
    </linearGradient>
    <linearGradient
       x1="285.94"
       y1="-439.94"
       x2="289.39001"
       gradientUnits="userSpaceOnUse"
       xlink:href="#linearGradient6538"
       y2="-436.44"
       id="linearGradient6718" />
    <linearGradient
       id="linearGradient6538">
      <stop
         offset="0"
         stop-color="#fff"
         id="stop6540" />
      <stop
         offset="1"
         stop-opacity="0"
         stop-color="#fff"
         id="stop6542" />
    </linearGradient>
    <linearGradient
       x1="275.94"
       y1="-437.10999"
       x2="279.98001"
       gradientUnits="userSpaceOnUse"
       y2="-431.92001"
       id="linearGradient6720">
      <stop
         offset="0"
         stop-color="#fff"
         id="stop6530" />
      <stop
         offset="1"
         stop-opacity="0"
         stop-color="#fff"
         id="stop6532" />
    </linearGradient>
    <linearGradient
       x1="286.67001"
       y1="-439.48001"
       x2="289.76999"
       gradientUnits="userSpaceOnUse"
       y2="-436.70999"
       id="linearGradient6722">
      <stop
         offset="0"
         stop-color="#fff"
         id="stop6551" />
      <stop
         offset="1"
         stop-opacity="0"
         stop-color="#fff"
         id="stop6553" />
    </linearGradient>
    <linearGradient
       x1="284.79999"
       y1="-441.23001"
       x2="288.89999"
       gradientUnits="userSpaceOnUse"
       xlink:href="#linearGradient6538"
       y2="-436.82999"
       id="linearGradient6724" />
  </defs>
  <sodipodi:namedview
     id="base"
     pagecolor="#ffffff"
     bordercolor="#666666"
     borderopacity="1.0"
     inkscape:pageopacity="1"
     inkscape:pageshadow="2"
     inkscape:zoom="1"
     inkscape:cx="409.00955"
     inkscape:cy="150"
     inkscape:document-units="px"
     inkscape:current-layer="layer1"
     showgrid="false"
     units="px"
     fit-margin-top="30"
     fit-margin-left="30"
     fit-margin-right="30"
     fit-margin-bottom="30"
     inkscape:window-width="1184"
     inkscape:window-height="907"
     inkscape:window-x="520"
     inkscape:window-y="11"
     inkscape:window-maximized="0" />
  <metadata
     id="metadata7">
    <rdf:RDF>
      <cc:Work
         rdf:about="">
        <dc:format>image/svg+xml</dc:format>
        <dc:type
           rdf:resource="http://purl.org/dc/dcmitype/StillImage" />
        <dc:title></dc:title>
      </cc:Work>
    </rdf:RDF>
  </metadata>
  <g
     inkscape:label="Layer 1"
     inkscape:groupmode="layer"
     id="layer1"
     transform="translate(26.497394,-415.32964)">
    <rect
       style="opacity:0.5;fill:none;stroke:#000000;stroke-width:0.82774317;stroke-miterlimit:4;stroke-dasharray:none;stroke-opacity:1"
       id="rect4136"
       width="141.10054"
       height="116.18418"
       x="107.93074"
       y="568.73157" />
    <g
       id="g4155">
      <rect
         y="528.3114"
         x="320.67511"
         height="54.852245"
         width="156.11816"
         id="rect4138"
         style="opacity:0.5;fill:none;stroke:#000000;stroke-width:1;stroke-miterlimit:4;stroke-dasharray:none;stroke-opacity:1" />
      <text
         sodipodi:linespacing="125%"
         id="text4142"
         y="564.59833"
         x="335.02109"
         style="font-style:normal;font-variant:normal;font-weight:normal;font-stretch:normal;font-size:20px;line-height:125%;font-family:'AR PL UKai TW';-inkscape-font-specification:'AR PL UKai TW';letter-spacing:0px;word-spacing:0px;fill:#000000;fill-opacity:1;stroke:none;stroke-width:1px;stroke-linecap:butt;stroke-linejoin:miter;stroke-opacity:1"
         xml:space="preserve"><tspan
           y="564.59833"
           x="335.02109"
           id="tspan4144"
           sodipodi:role="line">192.168.79.5</tspan></text>
    </g>
    <path
       style="fill:none;fill-rule:evenodd;stroke:#000000;stroke-width:1px;stroke-linecap:butt;stroke-linejoin:miter;stroke-opacity:1"
       d="m 107.173,589.91477 c 55.6962,1.68776 151.05485,-46.4135 211.81434,-45.56962"
       id="path4146"
       inkscape:connector-curvature="0"
       sodipodi:nodetypes="cc" />
    <path
       sodipodi:nodetypes="cc"
       inkscape:connector-curvature="0"
       id="path4148"
       d="m 107.173,616.07511 c 55.6962,1.68776 151.05485,-46.4135 211.81434,-45.56962"
       style="fill:none;fill-rule:evenodd;stroke:#000000;stroke-width:1px;stroke-linecap:butt;stroke-linejoin:miter;stroke-opacity:1" />
    <g
       id="g4160"
       transform="translate(1.6877637,97.046413)">
      <rect
         style="opacity:0.5;fill:none;stroke:#000000;stroke-width:1;stroke-miterlimit:4;stroke-dasharray:none;stroke-opacity:1"
         id="rect4162"
         width="156.11816"
         height="54.852245"
         x="320.67511"
         y="528.3114" />
      <text
         xml:space="preserve"
         style="font-style:normal;font-variant:normal;font-weight:normal;font-stretch:normal;font-size:20px;line-height:125%;font-family:'AR PL UKai TW';-inkscape-font-specification:'AR PL UKai TW';letter-spacing:0px;word-spacing:0px;fill:#000000;fill-opacity:1;stroke:none;stroke-width:1px;stroke-linecap:butt;stroke-linejoin:miter;stroke-opacity:1"
         x="335.02109"
         y="564.59833"
         id="text4164"
         sodipodi:linespacing="125%"><tspan
           sodipodi:role="line"
           id="tspan4166"
           x="335.02109"
           y="564.59833">192.168.79.6</tspan></text>
    </g>
    <path
       style="fill:none;fill-rule:evenodd;stroke:#000000;stroke-width:1px;stroke-linecap:butt;stroke-linejoin:miter;stroke-opacity:1"
       d="m 107.173,638.85992 214.34599,0"
       id="path4168"
       inkscape:connector-curvature="0" />
    <path
       inkscape:connector-curvature="0"
       id="path4170"
       d="m 108.86076,663.33249 214.34599,0"
       style="fill:none;fill-rule:evenodd;stroke:#000000;stroke-width:1px;stroke-linecap:butt;stroke-linejoin:miter;stroke-opacity:1" />
    <text
       xml:space="preserve"
       style="font-style:normal;font-variant:normal;font-weight:normal;font-stretch:normal;font-size:20px;line-height:125%;font-family:'AR PL UKai TW';-inkscape-font-specification:'AR PL UKai TW';letter-spacing:0px;word-spacing:0px;fill:#000000;fill-opacity:1;stroke:none;stroke-width:1px;stroke-linecap:butt;stroke-linejoin:miter;stroke-opacity:1"
       x="1.8027262e-06"
       y="597.50964"
       id="text4172"
       sodipodi:linespacing="125%"><tspan
         sodipodi:role="line"
         id="tspan4174"
         x="1.8027262e-06"
         y="597.50964">門神:7952</tspan></text>
    <text
       sodipodi:linespacing="125%"
       id="text4176"
       y="622.82611"
       x="0.84388363"
       style="font-style:normal;font-variant:normal;font-weight:normal;font-stretch:normal;font-size:20px;line-height:125%;font-family:'AR PL UKai TW';-inkscape-font-specification:'AR PL UKai TW';letter-spacing:0px;word-spacing:0px;fill:#000000;fill-opacity:1;stroke:none;stroke-width:1px;stroke-linecap:butt;stroke-linejoin:miter;stroke-opacity:1"
       xml:space="preserve"><tspan
         y="622.82611"
         x="0.84388363"
         id="tspan4178"
         sodipodi:role="line">門神:7958</tspan></text>
    <text
       xml:space="preserve"
       style="font-style:normal;font-variant:normal;font-weight:normal;font-stretch:normal;font-size:20px;line-height:125%;font-family:'AR PL UKai TW';-inkscape-font-specification:'AR PL UKai TW';letter-spacing:0px;word-spacing:0px;fill:#000000;fill-opacity:1;stroke:none;stroke-width:1px;stroke-linecap:butt;stroke-linejoin:miter;stroke-opacity:1"
       x="1.6877655"
       y="648.14258"
       id="text4180"
       sodipodi:linespacing="125%"><tspan
         sodipodi:role="line"
         id="tspan4182"
         x="1.6877655"
         y="648.14258">門神:7962</tspan></text>
    <text
       sodipodi:linespacing="125%"
       id="text4184"
       y="671.77124"
       x="1.6877655"
       style="font-style:normal;font-variant:normal;font-weight:normal;font-stretch:normal;font-size:20px;line-height:125%;font-family:'AR PL UKai TW';-inkscape-font-specification:'AR PL UKai TW';letter-spacing:0px;word-spacing:0px;fill:#000000;fill-opacity:1;stroke:none;stroke-width:1px;stroke-linecap:butt;stroke-linejoin:miter;stroke-opacity:1"
       xml:space="preserve"><tspan
         y="671.77124"
         x="1.6877655"
         id="tspan4186"
         sodipodi:role="line">門神:7968</tspan></text>
    <path
       style="fill:none;fill-rule:evenodd;stroke:#000000;stroke-width:1px;stroke-linecap:butt;stroke-linejoin:miter;stroke-opacity:1;marker-end:url(#Arrow1Lend)"
       d="m 56.540089,530.84303 -0.84389,44.72575"
       id="path4188"
       inkscape:connector-curvature="0"
       sodipodi:nodetypes="cc" />
    <g
       transform="matrix(0.72758828,0,0,0.72758828,-101.50855,121.83611)"
       id="layer1-5">
      <g
         transform="matrix(5.1724,0,0,5.1724,-1230.4,2772.5)"
         id="g6668">
        <path
           stroke-miterlimit="2"
           d="m 280.5,-445.5 c -2.2708,0 -4.1099,1.5503 -4.7188,3.625 -0.69323,-0.36383 -1.4445,-0.625 -2.2812,-0.625 -2.76,0 -5,2.24 -5,5 0,0.57893 0.16252,1.1077 0.34375,1.625 -1.3735,0.77074 -2.3438,2.189 -2.3438,3.875 0,2.484 2.016,4.5 4.5,4.5 l 19,0 c 2.484,0 4.5,-2.016 4.5,-4.5 0,-1.686 -0.97028,-3.1043 -2.3438,-3.875 0.18124,-0.51729 0.34375,-1.0461 0.34375,-1.625 0,-2.76 -2.24,-5 -5,-5 -0.83674,0 -1.588,0.26117 -2.2812,0.625 -0.60884,-2.0747 -2.4479,-3.625 -4.7188,-3.625 z"
           id="path6670"
           inkscape:connector-curvature="0"
           style="fill:#c4c5c2;stroke:#888a85;stroke-miterlimit:2" />
        <path
           d="m 280.5,-445 c -2.1897,0 -3.7236,1.3358 -4.3956,3.8435 -0.66846,-0.34362 -1.5476,-0.83335 -2.3544,-0.83335 -2.7165,0 -4.7551,1.9388 -4.7551,4.5455 0,0.54677 0.26721,1.3334 0.44196,1.822 -1.3244,0.72795 -2.4368,1.8905 -2.4368,3.3726 0,2.346 1.5462,4.2501 4.3393,4.2501 l 18.321,0 c 2.771,0 4.3393,-1.904 4.3393,-4.2501 0,-1.5924 -1.1124,-2.6667 -2.4368,-3.3946 0.17476,-0.48856 0.46407,-1.2532 0.46407,-1.7999 0,-2.6067 -2.1158,-4.5676 -4.7772,-4.5676 -0.80687,0 -1.6418,0.48974 -2.3103,0.83336 -0.65,-2.42 -2.25,-3.82 -4.44,-3.82 z"
           id="path6672"
           inkscape:connector-curvature="0"
           style="fill:url(#linearGradient6712)" />
        <g
           id="g6674">
          <path
             transform="matrix(1.0566,0,0,1.0566,-24.198,21.863)"
             d="m 291.69,-437.59 c 0,1.8294 -1.4831,3.3125 -3.3125,3.3125 -1.8294,0 -3.3125,-1.4831 -3.3125,-3.3125 0,-1.8294 1.4831,-3.3125 3.3125,-3.3125 1.8294,0 3.3125,1.4831 3.3125,3.3125 z"
             id="path6676"
             inkscape:connector-curvature="0"
             style="fill:#c4c5c2" />
          <path
             transform="matrix(1.0566,0,0,1.0566,-24.198,21.863)"
             d="m 291.69,-437.59 c 0,1.8294 -1.4831,3.3125 -3.3125,3.3125 -1.8294,0 -3.3125,-1.4831 -3.3125,-3.3125 0,-1.8294 1.4831,-3.3125 3.3125,-3.3125 1.8294,0 3.3125,1.4831 3.3125,3.3125 z"
             id="path6678"
             inkscape:connector-curvature="0"
             style="fill:url(#linearGradient6714)" />
        </g>
        <rect
           x="271"
           y="-438"
           width="20"
           height="9"
           id="rect6680"
           style="fill:#c4c5c2" />
        <path
           transform="matrix(0.90566,0,0,0.90566,9.8302,-35.689)"
           d="m 291.69,-437.59 c 0,1.8294 -1.4831,3.3125 -3.3125,3.3125 -1.8294,0 -3.3125,-1.4831 -3.3125,-3.3125 0,-1.8294 1.4831,-3.3125 3.3125,-3.3125 1.8294,0 3.3125,1.4831 3.3125,3.3125 z"
           id="path6682"
           inkscape:connector-curvature="0"
           style="fill:#c4c5c2" />
        <g
           id="g6684">
          <path
             transform="matrix(1.0566,0,0,1.0566,-17.198,24.863)"
             d="m 291.69,-437.59 c 0,1.8294 -1.4831,3.3125 -3.3125,3.3125 -1.8294,0 -3.3125,-1.4831 -3.3125,-3.3125 0,-1.8294 1.4831,-3.3125 3.3125,-3.3125 1.8294,0 3.3125,1.4831 3.3125,3.3125 z"
             id="path6686"
             inkscape:connector-curvature="0"
             style="fill:#c4c5c2" />
          <path
             transform="matrix(1.0566,0,0,1.0566,-17.198,24.863)"
             d="m 291.69,-437.59 c 0,1.8294 -1.4831,3.3125 -3.3125,3.3125 -1.8294,0 -3.3125,-1.4831 -3.3125,-3.3125 0,-1.8294 1.4831,-3.3125 3.3125,-3.3125 1.8294,0 3.3125,1.4831 3.3125,3.3125 z"
             id="path6688"
             inkscape:connector-curvature="0"
             style="fill:url(#linearGradient6716)" />
        </g>
        <g
           id="g6690">
          <path
             transform="matrix(1.0566,0,0,1.0566,-31.198,24.863)"
             d="m 291.69,-437.59 c 0,1.8294 -1.4831,3.3125 -3.3125,3.3125 -1.8294,0 -3.3125,-1.4831 -3.3125,-3.3125 0,-1.8294 1.4831,-3.3125 3.3125,-3.3125 1.8294,0 3.3125,1.4831 3.3125,3.3125 z"
             id="path6692"
             inkscape:connector-curvature="0"
             style="fill:#c4c5c2" />
          <path
             transform="matrix(1.0566,0,0,1.0566,-31.198,24.863)"
             d="m 291.69,-437.59 c 0,1.8294 -1.4831,3.3125 -3.3125,3.3125 -1.8294,0 -3.3125,-1.4831 -3.3125,-3.3125 0,-1.8294 1.4831,-3.3125 3.3125,-3.3125 1.8294,0 3.3125,1.4831 3.3125,3.3125 z"
             id="path6694"
             inkscape:connector-curvature="0"
             style="fill:url(#linearGradient6718)" />
        </g>
        <g
           transform="translate(-1,0)"
           id="g6696">
          <path
             d="m 280.47,-440.97 c -3.5794,0 -6.4688,2.9206 -6.4688,6.5 0,2.3707 1.3494,4.3378 3.25,5.4688 l 6.4688,0 c 1.9006,-1.131 3.25,-3.1293 3.25,-5.5 0,-3.5794 -2.9206,-6.4688 -6.5,-6.4688 z"
             id="path6698"
             inkscape:connector-curvature="0"
             style="fill:#c4c5c2" />
          <path
             d="m 280.5,-441 c -3.588,0 -6.5,2.912 -6.5,6.5 0,2.3764 1.3448,4.3663 3.25,5.5 l 6.5,0 c 1.9052,-1.1337 3.25,-3.1236 3.25,-5.5 0,-3.588 -2.912,-6.5 -6.5,-6.5 z"
             id="path6700"
             inkscape:connector-curvature="0"
             style="fill:url(#linearGradient6720)" />
        </g>
        <path
           transform="matrix(0.90566,0,0,0.90566,9.8303,-35.689)"
           d="m 291.69,-437.59 c 0,1.8294 -1.4831,3.3125 -3.3125,3.3125 -1.8294,0 -3.3125,-1.4831 -3.3125,-3.3125 0,-1.8294 1.4831,-3.3125 3.3125,-3.3125 1.8294,0 3.3125,1.4831 3.3125,3.3125 z"
           id="path6702"
           inkscape:connector-curvature="0"
           style="fill:url(#linearGradient6722)" />
        <path
           d="m 292.96,-437.33 c -0.002,2.6846 -3.2693,3.714 -3.2693,3.714 0,0 2.3487,-1.626 2.3368,-3.705 l 0.93241,-0.009 z"
           id="path6704"
           inkscape:connector-curvature="0"
           style="fill:#888a85;fill-rule:evenodd" />
        <g
           transform="matrix(1.1429,0,0,1.1429,-28.571,67)"
           id="g6706">
          <path
             transform="matrix(1.0566,0,0,1.0566,-31.198,24.863)"
             d="m 291.69,-437.59 c 0,1.8294 -1.4831,3.3125 -3.3125,3.3125 -1.8294,0 -3.3125,-1.4831 -3.3125,-3.3125 0,-1.8294 1.4831,-3.3125 3.3125,-3.3125 1.8294,0 3.3125,1.4831 3.3125,3.3125 z"
             id="path6708"
             inkscape:connector-curvature="0"
             style="fill:#c4c5c2" />
          <path
             transform="matrix(1.0566,0,0,1.0566,-31.198,24.863)"
             d="m 291.69,-437.59 c 0,1.8294 -1.4831,3.3125 -3.3125,3.3125 -1.8294,0 -3.3125,-1.4831 -3.3125,-3.3125 0,-1.8294 1.4831,-3.3125 3.3125,-3.3125 1.8294,0 3.3125,1.4831 3.3125,3.3125 z"
             id="path6710"
             inkscape:connector-curvature="0"
             style="fill:url(#linearGradient6724)" />
        </g>
      </g>
    </g>
    <text
       xml:space="preserve"
       style="font-style:normal;font-variant:normal;font-weight:normal;font-stretch:normal;font-size:20px;line-height:125%;font-family:'AR PL UKai TW';-inkscape-font-specification:'AR PL UKai TW';letter-spacing:0px;word-spacing:0px;fill:#000000;fill-opacity:1;stroke:none;stroke-width:1px;stroke-linecap:butt;stroke-linejoin:miter;stroke-opacity:1"
       x="17.721519"
       y="508.05823"
       id="text4743"
       sodipodi:linespacing="125%"><tspan
         sodipodi:role="line"
         id="tspan4745"
         x="17.721519"
         y="508.05823">Internet</tspan></text>
    <text
       sodipodi:linespacing="125%"
       id="text4921"
       y="631.26495"
       x="157.80591"
       style="font-style:normal;font-variant:normal;font-weight:normal;font-stretch:normal;font-size:20px;line-height:125%;font-family:'AR PL UKai TW';-inkscape-font-specification:'AR PL UKai TW';letter-spacing:0px;word-spacing:0px;fill:#000000;fill-opacity:1;stroke:none;stroke-width:1px;stroke-linecap:butt;stroke-linejoin:miter;stroke-opacity:1"
       xml:space="preserve"><tspan
         y="631.26495"
         x="157.80591"
         id="tspan4923"
         sodipodi:role="line">門神</tspan></text>
    <text
       xml:space="preserve"
       style="font-style:normal;font-variant:normal;font-weight:normal;font-stretch:normal;font-size:20px;line-height:125%;font-family:'AR PL UKai TW';-inkscape-font-specification:'AR PL UKai TW';letter-spacing:0px;word-spacing:0px;fill:#000000;fill-opacity:1;stroke:none;stroke-width:1px;stroke-linecap:butt;stroke-linejoin:miter;stroke-opacity:1"
       x="280.66714"
       y="541.51617"
       id="text4925"
       sodipodi:linespacing="125%"><tspan
         sodipodi:role="line"
         id="tspan4927"
         x="280.66714"
         y="541.51617">:22</tspan></text>
    <text
       sodipodi:linespacing="125%"
       id="text4929"
       y="565.48193"
       x="281.80838"
       style="font-style:normal;font-variant:normal;font-weight:normal;font-stretch:normal;font-size:20px;line-height:125%;font-family:'AR PL UKai TW';-inkscape-font-specification:'AR PL UKai TW';letter-spacing:0px;word-spacing:0px;fill:#000000;fill-opacity:1;stroke:none;stroke-width:1px;stroke-linecap:butt;stroke-linejoin:miter;stroke-opacity:1"
       xml:space="preserve"><tspan
         y="565.48193"
         x="281.80838"
         id="tspan4931"
         sodipodi:role="line">:80</tspan></text>
    <text
       xml:space="preserve"
       style="font-style:normal;font-variant:normal;font-weight:normal;font-stretch:normal;font-size:20px;line-height:125%;font-family:'AR PL UKai TW';-inkscape-font-specification:'AR PL UKai TW';letter-spacing:0px;word-spacing:0px;fill:#000000;fill-opacity:1;stroke:none;stroke-width:1px;stroke-linecap:butt;stroke-linejoin:miter;stroke-opacity:1"
       x="284.09082"
       y="632.81433"
       id="text4933"
       sodipodi:linespacing="125%"><tspan
         sodipodi:role="line"
         id="tspan4935"
         x="284.09082"
         y="632.81433">:22</tspan></text>
    <text
       sodipodi:linespacing="125%"
       id="text4937"
       y="657.92133"
       x="285.23206"
       style="font-style:normal;font-variant:normal;font-weight:normal;font-stretch:normal;font-size:20px;line-height:125%;font-family:'AR PL UKai TW';-inkscape-font-specification:'AR PL UKai TW';letter-spacing:0px;word-spacing:0px;fill:#000000;fill-opacity:1;stroke:none;stroke-width:1px;stroke-linecap:butt;stroke-linejoin:miter;stroke-opacity:1"
       xml:space="preserve"><tspan
         y="657.92133"
         x="285.23206"
         id="tspan4939"
         sodipodi:role="line">:80</tspan></text>
    <text
       sodipodi:linespacing="125%"
       id="text4941"
       y="470.50961"
       x="114.00002"
       style="font-style:normal;font-variant:normal;font-weight:normal;font-stretch:normal;font-size:20px;line-height:125%;font-family:'AR PL UKai TW';-inkscape-font-specification:'AR PL UKai TW';letter-spacing:0px;word-spacing:0px;fill:#008000;fill-opacity:1;stroke:none;stroke-width:1px;stroke-linecap:butt;stroke-linejoin:miter;stroke-opacity:1"
       xml:space="preserve"><tspan
         y="470.50961"
         x="114.00002"
         id="tspan4943"
         sodipodi:role="line">forward-port set 192.168.79.5 7952:22 7958:80</tspan><tspan
         y="495.50961"
         x="114.00002"
         sodipodi:role="line"
         id="tspan4955">forward-port set 192.168.79.6 7962:22 7968:80</tspan></text>
  </g>
</svg>
