<?xml version="1.0" encoding="UTF-8" standalone="no"?>
<!DOCTYPE svg PUBLIC "-//W3C//DTD SVG 1.1//EN"
 "http://www.w3.org/Graphics/SVG/1.1/DTD/svg11.dtd">
<!-- Generated by graphviz version 2.38.0 (20140413.2041)
 -->
<!-- Title: G Pages: 1 -->
<svg width="446pt" height="515pt"
 viewBox="0.00 0.00 446.00 515.00" xmlns="http://www.w3.org/2000/svg" xmlns:xlink="http://www.w3.org/1999/xlink">
<g id="graph0" class="graph" transform="scale(1 1) rotate(0) translate(4 511)">
<title>G</title>
<polygon fill="white" stroke="none" points="-4,4 -4,-511 442,-511 442,4 -4,4"/>
<g id="clust1" class="cluster"><title>cluster</title>
<path fill="none" stroke="black" d="M20,-8C20,-8 418,-8 418,-8 424,-8 430,-14 430,-20 430,-20 430,-487 430,-487 430,-493 424,-499 418,-499 418,-499 20,-499 20,-499 14,-499 8,-493 8,-487 8,-487 8,-20 8,-20 8,-14 14,-8 20,-8"/>
<text text-anchor="middle" x="219" y="-483.8" font-family="Times,serif" font-size="14.00">/</text>
</g>
<g id="clust2" class="cluster"><title>cluster/home</title>
<path fill="none" stroke="black" d="M28,-16C28,-16 410,-16 410,-16 416,-16 422,-22 422,-28 422,-28 422,-456 422,-456 422,-462 416,-468 410,-468 410,-468 28,-468 28,-468 22,-468 16,-462 16,-456 16,-456 16,-28 16,-28 16,-22 22,-16 28,-16"/>
<text text-anchor="middle" x="219" y="-452.8" font-family="Times,serif" font-size="14.00">home</text>
</g>
<g id="clust3" class="cluster"><title>cluster/home/ckhung</title>
<path fill="none" stroke="black" d="M36,-24C36,-24 402,-24 402,-24 408,-24 414,-30 414,-36 414,-36 414,-425 414,-425 414,-431 408,-437 402,-437 402,-437 36,-437 36,-437 30,-437 24,-431 24,-425 24,-425 24,-36 24,-36 24,-30 30,-24 36,-24"/>
<text text-anchor="middle" x="219" y="-421.8" font-family="Times,serif" font-size="14.00">ckhung</text>
</g>
<g id="clust4" class="cluster"><title>cluster/home/ckhung/work</title>
<path fill="none" stroke="black" d="M287,-70C287,-70 394,-70 394,-70 400,-70 406,-76 406,-82 406,-82 406,-348 406,-348 406,-354 400,-360 394,-360 394,-360 287,-360 287,-360 281,-360 275,-354 275,-348 275,-348 275,-82 275,-82 275,-76 281,-70 287,-70"/>
<text text-anchor="middle" x="340.5" y="-344.8" font-family="Times,serif" font-size="14.00">work</text>
</g>
<g id="clust5" class="cluster"><title>cluster/home/ckhung/work/config</title>
<path fill="none" stroke="black" d="M295,-78C295,-78 386,-78 386,-78 392,-78 398,-84 398,-90 398,-90 398,-317 398,-317 398,-323 392,-329 386,-329 386,-329 295,-329 295,-329 289,-329 283,-323 283,-317 283,-317 283,-90 283,-90 283,-84 289,-78 295,-78"/>
<text text-anchor="middle" x="340.5" y="-313.8" font-family="Times,serif" font-size="14.00">config</text>
</g>
<g id="clust6" class="cluster"><title>cluster/home/ckhung/work/config/.ssh</title>
<path fill="none" stroke="black" d="M306.5,-86C306.5,-86 374.5,-86 374.5,-86 380.5,-86 386.5,-92 386.5,-98 386.5,-98 386.5,-203 386.5,-203 386.5,-209 380.5,-215 374.5,-215 374.5,-215 306.5,-215 306.5,-215 300.5,-215 294.5,-209 294.5,-203 294.5,-203 294.5,-98 294.5,-98 294.5,-92 300.5,-86 306.5,-86"/>
<text text-anchor="middle" x="340.5" y="-199.8" font-family="Times,serif" font-size="14.00">.ssh</text>
</g>
<g id="clust7" class="cluster"><title>cluster/home/ckhung/work/config/.gnupg</title>
<path fill="none" stroke="black" d="M303,-223C303,-223 378,-223 378,-223 384,-223 390,-229 390,-235 390,-235 390,-286 390,-286 390,-292 384,-298 378,-298 378,-298 303,-298 303,-298 297,-298 291,-292 291,-286 291,-286 291,-235 291,-235 291,-229 297,-223 303,-223"/>
<text text-anchor="middle" x="340.5" y="-282.8" font-family="Times,serif" font-size="14.00">.gnupg</text>
</g>
<g id="clust8" class="cluster"><title>cluster/home/ckhung/secret</title>
<path fill="none" stroke="black" d="M44,-116C44,-116 148,-116 148,-116 154,-116 160,-122 160,-128 160,-128 160,-394 160,-394 160,-400 154,-406 148,-406 148,-406 44,-406 44,-406 38,-406 32,-400 32,-394 32,-394 32,-128 32,-128 32,-122 38,-116 44,-116"/>
<text text-anchor="middle" x="96" y="-390.8" font-family="Times,serif" font-size="14.00">secret</text>
</g>
<g id="clust9" class="cluster"><title>cluster/home/ckhung/secret/config</title>
<path fill="none" stroke="black" d="M52,-124C52,-124 140,-124 140,-124 146,-124 152,-130 152,-136 152,-136 152,-363 152,-363 152,-369 146,-375 140,-375 140,-375 52,-375 52,-375 46,-375 40,-369 40,-363 40,-363 40,-136 40,-136 40,-130 46,-124 52,-124"/>
<text text-anchor="middle" x="96" y="-359.8" font-family="Times,serif" font-size="14.00">config</text>
</g>
<g id="clust10" class="cluster"><title>cluster/home/ckhung/secret/config/.ssh</title>
<path fill="none" stroke="black" d="M73,-132C73,-132 119,-132 119,-132 125,-132 131,-138 131,-144 131,-144 131,-249 131,-249 131,-255 125,-261 119,-261 119,-261 73,-261 73,-261 67,-261 61,-255 61,-249 61,-249 61,-144 61,-144 61,-138 67,-132 73,-132"/>
<text text-anchor="middle" x="96" y="-245.8" font-family="Times,serif" font-size="14.00">.ssh</text>
</g>
<g id="clust11" class="cluster"><title>cluster/home/ckhung/secret/config/.gnupg</title>
<path fill="none" stroke="black" d="M60,-269C60,-269 132,-269 132,-269 138,-269 144,-275 144,-281 144,-281 144,-332 144,-332 144,-338 138,-344 132,-344 132,-344 60,-344 60,-344 54,-344 48,-338 48,-332 48,-332 48,-281 48,-281 48,-275 54,-269 60,-269"/>
<text text-anchor="middle" x="96" y="-328.8" font-family="Times,serif" font-size="14.00">.gnupg</text>
</g>
<g id="clust12" class="cluster"><title>cluster/home/ckhung/.gnupg</title>
<path fill="none" stroke="black" d="M180,-277C180,-277 255,-277 255,-277 261,-277 267,-283 267,-289 267,-289 267,-394 267,-394 267,-400 261,-406 255,-406 255,-406 180,-406 180,-406 174,-406 168,-400 168,-394 168,-394 168,-289 168,-289 168,-283 174,-277 180,-277"/>
<text text-anchor="middle" x="217.5" y="-390.8" font-family="Times,serif" font-size="14.00">.gnupg</text>
</g>
<g id="clust13" class="cluster"><title>cluster/home/ckhung/.ssh</title>
<path fill="none" stroke="black" d="M183.5,-32C183.5,-32 251.5,-32 251.5,-32 257.5,-32 263.5,-38 263.5,-44 263.5,-44 263.5,-257 263.5,-257 263.5,-263 257.5,-269 251.5,-269 251.5,-269 183.5,-269 183.5,-269 177.5,-269 171.5,-263 171.5,-257 171.5,-257 171.5,-44 171.5,-44 171.5,-38 177.5,-32 183.5,-32"/>
<text text-anchor="middle" x="217.5" y="-253.8" font-family="Times,serif" font-size="14.00">.ssh</text>
</g>
<!-- /home/ckhung/work/config/.ssh/id_dsa.pub -->
<g id="node1" class="node"><title>/home/ckhung/work/config/.ssh/id_dsa.pub</title>
<polygon fill="none" stroke="blue" points="372.5,-184 302.5,-184 302.5,-148 378.5,-148 378.5,-178 372.5,-184"/>
<polyline fill="none" stroke="blue" points="372.5,-184 372.5,-178 "/>
<polyline fill="none" stroke="blue" points="378.5,-178 372.5,-178 "/>
<text text-anchor="middle" x="340.5" y="-162.3" font-family="Times,serif" font-size="14.00" fill="blue">id_dsa.pub</text>
</g>
<!-- /home/ckhung/work/config/.ssh/id_rsa.pub -->
<g id="node2" class="node"><title>/home/ckhung/work/config/.ssh/id_rsa.pub</title>
<polygon fill="none" stroke="blue" points="371.5,-130 303.5,-130 303.5,-94 377.5,-94 377.5,-124 371.5,-130"/>
<polyline fill="none" stroke="blue" points="371.5,-130 371.5,-124 "/>
<polyline fill="none" stroke="blue" points="377.5,-124 371.5,-124 "/>
<text text-anchor="middle" x="340.5" y="-108.3" font-family="Times,serif" font-size="14.00" fill="blue">id_rsa.pub</text>
</g>
<!-- /home/ckhung/work/config/.gnupg/pubring.gpg -->
<g id="node3" class="node"><title>/home/ckhung/work/config/.gnupg/pubring.gpg</title>
<polygon fill="none" stroke="blue" points="376,-267 299,-267 299,-231 382,-231 382,-261 376,-267"/>
<polyline fill="none" stroke="blue" points="376,-267 376,-261 "/>
<polyline fill="none" stroke="blue" points="382,-261 376,-261 "/>
<text text-anchor="middle" x="340.5" y="-245.3" font-family="Times,serif" font-size="14.00" fill="blue">pubring.gpg</text>
</g>
<!-- /home/ckhung/secret/config/.ssh/id_dsa -->
<g id="node4" class="node"><title>/home/ckhung/secret/config/.ssh/id_dsa</title>
<polygon fill="none" stroke="blue" points="117,-230 69,-230 69,-194 123,-194 123,-224 117,-230"/>
<polyline fill="none" stroke="blue" points="117,-230 117,-224 "/>
<polyline fill="none" stroke="blue" points="123,-224 117,-224 "/>
<text text-anchor="middle" x="96" y="-208.3" font-family="Times,serif" font-size="14.00" fill="blue">id_dsa</text>
</g>
<!-- /home/ckhung/.ssh/id_dsa -->
<g id="node11" class="node"><title>/home/ckhung/.ssh/id_dsa</title>
<polygon fill="none" stroke="blue" points="238.5,-238 190.5,-238 190.5,-202 244.5,-202 244.5,-232 238.5,-238"/>
<polyline fill="none" stroke="blue" points="238.5,-238 238.5,-232 "/>
<polyline fill="none" stroke="blue" points="244.5,-232 238.5,-232 "/>
<text text-anchor="middle" x="217.5" y="-216.3" font-family="Times,serif" font-size="14.00" fill="blue">id_dsa</text>
</g>
<!-- /home/ckhung/secret/config/.ssh/id_dsa&#45;&gt;/home/ckhung/.ssh/id_dsa -->
<g id="edge3" class="edge"><title>/home/ckhung/secret/config/.ssh/id_dsa&#45;&gt;/home/ckhung/.ssh/id_dsa</title>
<path fill="none" stroke="black" d="M133.303,-214.43C151.698,-215.662 173.616,-217.129 190.336,-218.248"/>
<polygon fill="black" stroke="black" points="133.436,-210.932 123.225,-213.756 132.969,-217.916 133.436,-210.932"/>
</g>
<!-- /home/ckhung/secret/config/.ssh/id_rsa -->
<g id="node5" class="node"><title>/home/ckhung/secret/config/.ssh/id_rsa</title>
<polygon fill="none" stroke="blue" points="117,-176 69,-176 69,-140 123,-140 123,-170 117,-176"/>
<polyline fill="none" stroke="blue" points="117,-176 117,-170 "/>
<polyline fill="none" stroke="blue" points="123,-170 117,-170 "/>
<text text-anchor="middle" x="96" y="-154.3" font-family="Times,serif" font-size="14.00" fill="blue">id_rsa</text>
</g>
<!-- /home/ckhung/.ssh/id_rsa -->
<g id="node9" class="node"><title>/home/ckhung/.ssh/id_rsa</title>
<polygon fill="none" stroke="blue" points="238.5,-130 190.5,-130 190.5,-94 244.5,-94 244.5,-124 238.5,-130"/>
<polyline fill="none" stroke="blue" points="238.5,-130 238.5,-124 "/>
<polyline fill="none" stroke="blue" points="244.5,-124 238.5,-124 "/>
<text text-anchor="middle" x="217.5" y="-108.3" font-family="Times,serif" font-size="14.00" fill="blue">id_rsa</text>
</g>
<!-- /home/ckhung/secret/config/.ssh/id_rsa&#45;&gt;/home/ckhung/.ssh/id_rsa -->
<g id="edge5" class="edge"><title>/home/ckhung/secret/config/.ssh/id_rsa&#45;&gt;/home/ckhung/.ssh/id_rsa</title>
<path fill="none" stroke="black" d="M132.791,-144.223C151.289,-137.102 173.46,-128.568 190.336,-122.071"/>
<polygon fill="black" stroke="black" points="131.3,-141.046 123.225,-147.905 133.815,-147.579 131.3,-141.046"/>
</g>
<!-- /home/ckhung/secret/config/.gnupg/secring.gpg -->
<g id="node6" class="node"><title>/home/ckhung/secret/config/.gnupg/secring.gpg</title>
<polygon fill="none" stroke="blue" points="130,-313 56,-313 56,-277 136,-277 136,-307 130,-313"/>
<polyline fill="none" stroke="blue" points="130,-313 130,-307 "/>
<polyline fill="none" stroke="blue" points="136,-307 130,-307 "/>
<text text-anchor="middle" x="96" y="-291.3" font-family="Times,serif" font-size="14.00" fill="blue">secring.gpg</text>
</g>
<!-- /home/ckhung/.gnupg/secring.gpg -->
<g id="node7" class="node"><title>/home/ckhung/.gnupg/secring.gpg</title>
<polygon fill="none" stroke="blue" points="251.5,-375 177.5,-375 177.5,-339 257.5,-339 257.5,-369 251.5,-375"/>
<polyline fill="none" stroke="blue" points="251.5,-375 251.5,-369 "/>
<polyline fill="none" stroke="blue" points="257.5,-369 251.5,-369 "/>
<text text-anchor="middle" x="217.5" y="-353.3" font-family="Times,serif" font-size="14.00" fill="blue">secring.gpg</text>
</g>
<!-- /home/ckhung/secret/config/.gnupg/secring.gpg&#45;&gt;/home/ckhung/.gnupg/secring.gpg -->
<g id="edge2" class="edge"><title>/home/ckhung/secret/config/.gnupg/secring.gpg&#45;&gt;/home/ckhung/.gnupg/secring.gpg</title>
<path fill="none" stroke="black" d="M140.978,-317.817C154.43,-324.797 169.031,-332.372 181.778,-338.985"/>
<polygon fill="black" stroke="black" points="142.374,-314.598 131.886,-313.1 139.15,-320.812 142.374,-314.598"/>
</g>
<!-- /home/ckhung/.gnupg/pubring.gpg -->
<g id="node8" class="node"><title>/home/ckhung/.gnupg/pubring.gpg</title>
<polygon fill="none" stroke="blue" points="253,-321 176,-321 176,-285 259,-285 259,-315 253,-321"/>
<polyline fill="none" stroke="blue" points="253,-321 253,-315 "/>
<polyline fill="none" stroke="blue" points="259,-315 253,-315 "/>
<text text-anchor="middle" x="217.5" y="-299.3" font-family="Times,serif" font-size="14.00" fill="blue">pubring.gpg</text>
</g>
<!-- /home/ckhung/.gnupg/pubring.gpg&#45;&gt;/home/ckhung/work/config/.gnupg/pubring.gpg -->
<g id="edge1" class="edge"><title>/home/ckhung/.gnupg/pubring.gpg&#45;&gt;/home/ckhung/work/config/.gnupg/pubring.gpg</title>
<path fill="none" stroke="black" d="M259.128,-284.869C268.905,-280.505 279.461,-275.794 289.606,-271.267"/>
<polygon fill="black" stroke="black" points="291.068,-274.447 298.773,-267.176 288.215,-268.055 291.068,-274.447"/>
</g>
<!-- /home/ckhung/.ssh/id_rsa.pub -->
<g id="node10" class="node"><title>/home/ckhung/.ssh/id_rsa.pub</title>
<polygon fill="none" stroke="blue" points="248.5,-76 180.5,-76 180.5,-40 254.5,-40 254.5,-70 248.5,-76"/>
<polyline fill="none" stroke="blue" points="248.5,-76 248.5,-70 "/>
<polyline fill="none" stroke="blue" points="254.5,-70 248.5,-70 "/>
<text text-anchor="middle" x="217.5" y="-54.3" font-family="Times,serif" font-size="14.00" fill="blue">id_rsa.pub</text>
</g>
<!-- /home/ckhung/.ssh/id_rsa.pub&#45;&gt;/home/ckhung/work/config/.ssh/id_rsa.pub -->
<g id="edge6" class="edge"><title>/home/ckhung/.ssh/id_rsa.pub&#45;&gt;/home/ckhung/work/config/.ssh/id_rsa.pub</title>
<path fill="none" stroke="black" d="M254.804,-74.2018C267.127,-79.7015 281.055,-85.9169 294.003,-91.6956"/>
<polygon fill="black" stroke="black" points="292.663,-94.9304 303.222,-95.8097 295.516,-88.538 292.663,-94.9304"/>
</g>
<!-- /home/ckhung/.ssh/id_dsa.pub -->
<g id="node12" class="node"><title>/home/ckhung/.ssh/id_dsa.pub</title>
<polygon fill="none" stroke="blue" points="249.5,-184 179.5,-184 179.5,-148 255.5,-148 255.5,-178 249.5,-184"/>
<polyline fill="none" stroke="blue" points="249.5,-184 249.5,-178 "/>
<polyline fill="none" stroke="blue" points="255.5,-178 249.5,-178 "/>
<text text-anchor="middle" x="217.5" y="-162.3" font-family="Times,serif" font-size="14.00" fill="blue">id_dsa.pub</text>
</g>
<!-- /home/ckhung/.ssh/id_dsa.pub&#45;&gt;/home/ckhung/work/config/.ssh/id_dsa.pub -->
<g id="edge4" class="edge"><title>/home/ckhung/.ssh/id_dsa.pub&#45;&gt;/home/ckhung/work/config/.ssh/id_dsa.pub</title>
<path fill="none" stroke="black" d="M255.791,-166C267.177,-166 279.856,-166 291.831,-166"/>
<polygon fill="black" stroke="black" points="292.124,-169.5 302.124,-166 292.123,-162.5 292.124,-169.5"/>
</g>
</g>
</svg>
