<?xml version="1.0" encoding="UTF-8" standalone="no"?>
<!DOCTYPE svg PUBLIC "-//W3C//DTD SVG 1.1//EN"
 "http://www.w3.org/Graphics/SVG/1.1/DTD/svg11.dtd">
<!-- Generated by graphviz version 2.43.0 (0)
 -->
<!-- Title: Energy Mix Categories Pages: 1 -->
<svg width="591pt" height="332pt"
 viewBox="0.00 0.00 590.99 332.00" xmlns="http://www.w3.org/2000/svg" xmlns:xlink="http://www.w3.org/1999/xlink">
<g id="graph0" class="graph" transform="scale(1 1) rotate(0) translate(4 328)">
<title>Energy Mix Categories</title>
<polygon fill="white" stroke="transparent" points="-4,4 -4,-328 586.99,-328 586.99,4 -4,4"/>
<!-- demand -->
<g id="node1" class="node">
<title>demand</title>
<ellipse fill="none" stroke="black" cx="134.25" cy="-306" rx="48.19" ry="18"/>
<text text-anchor="middle" x="134.25" y="-302.3" font-family="Times,serif" font-size="14.00">demand</text>
</g>
<!-- import -->
<g id="node2" class="node">
<title>import</title>
<ellipse fill="none" stroke="black" cx="74.25" cy="-234" rx="42.49" ry="18"/>
<text text-anchor="middle" x="74.25" y="-230.3" font-family="Times,serif" font-size="14.00">import</text>
</g>
<!-- demand&#45;&#45;import -->
<g id="edge1" class="edge">
<title>demand&#45;&#45;import</title>
<path fill="none" stroke="black" d="M120.33,-288.76C110.64,-277.46 97.76,-262.44 88.09,-251.15"/>
</g>
<!-- generation -->
<g id="node3" class="node">
<title>generation</title>
<ellipse fill="none" stroke="black" cx="195.25" cy="-234" rx="61.19" ry="18"/>
<text text-anchor="middle" x="195.25" y="-230.3" font-family="Times,serif" font-size="14.00">generation</text>
</g>
<!-- demand&#45;&#45;generation -->
<g id="edge2" class="edge">
<title>demand&#45;&#45;generation</title>
<path fill="none" stroke="black" d="M148.4,-288.76C158.11,-277.62 170.97,-262.87 180.75,-251.63"/>
</g>
<!-- fossil -->
<g id="node4" class="node">
<title>fossil</title>
<ellipse fill="none" stroke="black" cx="126.25" cy="-162" rx="35.19" ry="18"/>
<text text-anchor="middle" x="126.25" y="-158.3" font-family="Times,serif" font-size="14.00">fossil</text>
</g>
<!-- generation&#45;&#45;fossil -->
<g id="edge3" class="edge">
<title>generation&#45;&#45;fossil</title>
<path fill="none" stroke="black" d="M178.9,-216.41C167.58,-204.93 152.62,-189.75 141.54,-178.51"/>
</g>
<!-- low_carbon -->
<g id="node5" class="node">
<title>low_carbon</title>
<ellipse fill="none" stroke="black" cx="265.25" cy="-162" rx="63.09" ry="18"/>
<text text-anchor="middle" x="265.25" y="-158.3" font-family="Times,serif" font-size="14.00">low_carbon</text>
</g>
<!-- generation&#45;&#45;low_carbon -->
<g id="edge4" class="edge">
<title>generation&#45;&#45;low_carbon</title>
<path fill="none" stroke="black" d="M211.84,-216.41C222.99,-205.25 237.64,-190.6 248.78,-179.47"/>
</g>
<!-- coal -->
<g id="node6" class="node">
<title>coal</title>
<ellipse fill="none" stroke="black" cx="29.25" cy="-90" rx="29.5" ry="18"/>
<text text-anchor="middle" x="29.25" y="-86.3" font-family="Times,serif" font-size="14.00">coal</text>
</g>
<!-- fossil&#45;&#45;coal -->
<g id="edge5" class="edge">
<title>fossil&#45;&#45;coal</title>
<path fill="none" stroke="black" d="M106.62,-146.83C89.35,-134.37 64.39,-116.36 47.54,-104.2"/>
</g>
<!-- oil -->
<g id="node7" class="node">
<title>oil</title>
<ellipse fill="none" stroke="black" cx="103.25" cy="-90" rx="27" ry="18"/>
<text text-anchor="middle" x="103.25" y="-86.3" font-family="Times,serif" font-size="14.00">oil</text>
</g>
<!-- fossil&#45;&#45;oil -->
<g id="edge6" class="edge">
<title>fossil&#45;&#45;oil</title>
<path fill="none" stroke="black" d="M120.68,-144.05C117.06,-133.05 112.37,-118.76 108.76,-107.79"/>
</g>
<!-- gas -->
<g id="node8" class="node">
<title>gas</title>
<ellipse fill="none" stroke="black" cx="175.25" cy="-90" rx="27" ry="18"/>
<text text-anchor="middle" x="175.25" y="-86.3" font-family="Times,serif" font-size="14.00">gas</text>
</g>
<!-- fossil&#45;&#45;gas -->
<g id="edge7" class="edge">
<title>fossil&#45;&#45;gas</title>
<path fill="none" stroke="black" d="M137.61,-144.76C145.64,-133.29 156.34,-118.01 164.28,-106.67"/>
</g>
<!-- nuclear -->
<g id="node9" class="node">
<title>nuclear</title>
<ellipse fill="none" stroke="black" cx="265.25" cy="-90" rx="45.49" ry="18"/>
<text text-anchor="middle" x="265.25" y="-86.3" font-family="Times,serif" font-size="14.00">nuclear</text>
</g>
<!-- low_carbon&#45;&#45;nuclear -->
<g id="edge8" class="edge">
<title>low_carbon&#45;&#45;nuclear</title>
<path fill="none" stroke="black" d="M265.25,-143.7C265.25,-132.85 265.25,-118.92 265.25,-108.1"/>
</g>
<!-- renewable -->
<g id="node10" class="node">
<title>renewable</title>
<ellipse fill="none" stroke="black" cx="388.25" cy="-90" rx="59.29" ry="18"/>
<text text-anchor="middle" x="388.25" y="-86.3" font-family="Times,serif" font-size="14.00">renewable</text>
</g>
<!-- low_carbon&#45;&#45;renewable -->
<g id="edge9" class="edge">
<title>low_carbon&#45;&#45;renewable</title>
<path fill="none" stroke="black" d="M292.24,-145.64C312.75,-133.97 340.83,-117.99 361.32,-106.33"/>
</g>
<!-- hydro -->
<g id="node11" class="node">
<title>hydro</title>
<ellipse fill="none" stroke="black" cx="214.25" cy="-18" rx="37.89" ry="18"/>
<text text-anchor="middle" x="214.25" y="-14.3" font-family="Times,serif" font-size="14.00">hydro</text>
</g>
<!-- renewable&#45;&#45;hydro -->
<g id="edge10" class="edge">
<title>renewable&#45;&#45;hydro</title>
<path fill="none" stroke="black" d="M353.87,-75.17C321.19,-62.02 272.63,-42.49 242.24,-30.26"/>
</g>
<!-- solar -->
<g id="node12" class="node">
<title>solar</title>
<ellipse fill="none" stroke="black" cx="303.25" cy="-18" rx="33.6" ry="18"/>
<text text-anchor="middle" x="303.25" y="-14.3" font-family="Times,serif" font-size="14.00">solar</text>
</g>
<!-- renewable&#45;&#45;solar -->
<g id="edge11" class="edge">
<title>renewable&#45;&#45;solar</title>
<path fill="none" stroke="black" d="M368.53,-72.76C354.11,-60.89 334.73,-44.93 320.83,-33.48"/>
</g>
<!-- wind -->
<g id="node13" class="node">
<title>wind</title>
<ellipse fill="none" stroke="black" cx="388.25" cy="-18" rx="33.29" ry="18"/>
<text text-anchor="middle" x="388.25" y="-14.3" font-family="Times,serif" font-size="14.00">wind</text>
</g>
<!-- renewable&#45;&#45;wind -->
<g id="edge12" class="edge">
<title>renewable&#45;&#45;wind</title>
<path fill="none" stroke="black" d="M388.25,-71.7C388.25,-60.85 388.25,-46.92 388.25,-36.1"/>
</g>
<!-- bio -->
<g id="node14" class="node">
<title>bio</title>
<ellipse fill="none" stroke="black" cx="466.25" cy="-18" rx="27" ry="18"/>
<text text-anchor="middle" x="466.25" y="-14.3" font-family="Times,serif" font-size="14.00">bio</text>
</g>
<!-- renewable&#45;&#45;bio -->
<g id="edge13" class="edge">
<title>renewable&#45;&#45;bio</title>
<path fill="none" stroke="black" d="M406.34,-72.76C419.75,-60.73 437.84,-44.49 450.63,-33.02"/>
</g>
<!-- other -->
<g id="node15" class="node">
<title>other</title>
<ellipse fill="none" stroke="black" cx="547.25" cy="-18" rx="36" ry="18"/>
<text text-anchor="middle" x="547.25" y="-14.3" font-family="Times,serif" font-size="14.00">other</text>
</g>
<!-- renewable&#45;&#45;other -->
<g id="edge14" class="edge">
<title>renewable&#45;&#45;other</title>
<path fill="none" stroke="black" d="M420.42,-74.83C450.1,-61.77 493.6,-42.62 521.16,-30.48"/>
</g>
</g>
</svg>
