<?xml version="1.0" encoding="iso-8859-1"?>
<!-- Generator: Adobe Illustrator 13.0.2, SVG Export Plug-In . SVG Version: 6.00 Build 14948)  -->
<!DOCTYPE svg PUBLIC "-//W3C//DTD SVG 1.1//EN" "http://www.w3.org/Graphics/SVG/1.1/DTD/svg11.dtd">
<svg version="1.1" id="businessman_xA0_Image_1_" xmlns="http://www.w3.org/2000/svg" xmlns:xlink="http://www.w3.org/1999/xlink"
	 x="0px" y="0px" width="238.775px" height="486.166px" viewBox="0 0 238.775 486.166"
	 style="enable-background:new 0 0 238.775 486.166;" xml:space="preserve">
<g>
	<path style="fill-rule:evenodd;clip-rule:evenodd;" d="M36.3,36.068c3.363-6.718,7.224-12.938,16.418-13.826
		c2.74,5.421-4.125,7.527-5.185,12.962c-1.046,5.365,2.56,11.296,1.728,17.282c-0.802,5.769-6.135,7.819-5.185,13.826
		c-9.322,6.232-19.618,11.49-31.972,14.69c0.519-7.546,7.377-8.753,11.233-12.962c-1.176-4.576-7.277-6.319-10.369-12.098
		c-1.071-2.001-0.933-4.729-1.728-6.913C9.54,44.358,6.852,38.52,5.192,35.204C2.8,30.425-2.836,26.987,1.736,21.378
		C16.969,19.148,23.77,32.727,36.3,36.068z M15.562,36.932c3.81,1.168,7.428-2.299,8.641-0.864
		c-7.445,4.416-2.181,14.543-6.049,19.875c3.816,4.825,10.451,6.832,12.098,13.826C42.294,70.578,40.54,57.59,45.806,51.622
		c-1.385-3.512-0.492-9.302-1.729-12.962c-7.774,3.459-8.302,14.166-12.098,21.603c-1.819-4.659,0.254-12.4-0.864-14.69
		c1.362,0.078,0.676,2.204,2.592,1.729c1.749-1.419,3.447-2.89,3.457-6.049c-7.918-5.62-15.987-11.089-26.788-13.826
		C10.69,32.01,13.236,34.361,15.562,36.932z M43.213,37.796c1.946-2.663,3.391-5.826,4.32-9.505
		C43.348,28.179,39.024,35.042,43.213,37.796z M21.61,74.953c2.592-0.865,6.014-0.899,5.185-5.185
		C23.043,69.473,22.261,72.147,21.61,74.953z"/>
	<path style="fill-rule:evenodd;clip-rule:evenodd;" d="M136.537,54.214c0.416,6.068,9.412,7.67,6.049,14.69
		c-4.888-8.914-20.48-8.043-27.651-1.728C116.092,56.812,127.688,56.886,136.537,54.214z"/>
	<path style="fill-rule:evenodd;clip-rule:evenodd;" d="M163.324,57.671c-0.107,4.227-6.225,9.895-6.048,17.282
		C150.681,70.181,160.273,61.222,163.324,57.671z"/>
	<path style="fill-rule:evenodd;clip-rule:evenodd;" d="M138.266,83.594c-1.152,0-2.305,0-3.457,0
		C134.128,80.267,138.946,80.267,138.266,83.594z"/>
	<path style="fill-rule:evenodd;clip-rule:evenodd;" d="M95.924,141.49c5.795,0.542,8.34,4.334,13.826,5.185
		C106.733,152.69,95.028,147.731,95.924,141.49z"/>
	<path style="fill-rule:evenodd;clip-rule:evenodd;" d="M188.384,21.378c-2.677,1.799-6.163,0.859-6.913,6.049
		c1.915,1.83,4.135,3.355,6.049,5.185c1.654-1.992-3.526-4.5-4.32-6.913c6.881-1.429,9.112,6.617,11.233,13.826
		c1.115,3.79,3.953,7.183,4.32,9.505c1.355,8.56-1.684,18.59-2.592,25.923c-3.854-1.908-7.173-4.349-12.962-4.321
		c1.656,7.273,12.319,5.539,17.282,9.505c2.846,7.458,0.922,23.814-3.456,30.244c-2.69,3.951-7.677,5.225-10.369,8.641
		c-1.707,2.165-4.296,6.208-5.186,8.641c-1.521,4.164-0.779,11.815-2.592,17.282c-1.297,3.91-3.545,7.561-1.729,14.69
		c1.124,4.411,4.723,9.244,7.777,12.961c6.992,8.513,18.888,15.621,28.516,21.603c-0.522,2.069-1.242,3.942-0.864,6.913
		c1.943,1.513,4.859,2.054,6.913,3.457c-1.985,9.756,5.418,15.688,8.641,22.467c1.067,2.245,0.858,4.365,1.729,6.049
		c3.026,5.855,10.423,12.772,8.641,25.059c-0.588,4.059-4.799,10.175-7.776,14.69c-8.446,12.807-17.77,25.888-25.06,39.749
		c-8.008-6.43-12.255-21.108-24.195-20.739c0.04,4.908,5.4,5.985,7.777,8.642c0.555,0.62,0.925,2.361,1.729,3.456
		c1.854,2.529,4.484,5.269,6.049,9.506c-0.654,2.515-3.077,3.26-5.185,4.32c3.144,3.873,10.019,7.55,16.418,10.369
		c4.202,1.852,8.22,1.048,10.369,4.32c5.533,8.425-3.709,19.427-14.69,20.739c-11.044-11.135-21.779-22.578-38.021-28.516
		c-1.805,2.516-4.941,3.699-8.641,4.32c-1.821,3.076-4.761,5.033-7.777,6.913c1.539,13.366-5.35,23.164-4.32,35.429
		c0.866,10.327,6.938,19.387,7.776,29.38c1.84,21.938-3.334,43.116-0.864,63.944c-3.618,5.021-10.234,7.047-12.097,13.825
		c-11.263,2.414-26.558,12.196-38.886,5.185c1.476-14.654,17.117-15.144,19.875-28.516c-3.392-2.547-5.792,1.872-8.641,2.593
		c-13.069-0.922-25.805,2.932-36.293,1.728c0.191-3.508,0.081-6.998,1.729-9.505c3.167-4.819,9.354-3.364,15.554-5.185
		c8.176-2.4,13.895-8.987,19.011-10.369c2.085-15.376,3.369-31.966,0-44.934c-1.921-7.394-6.637-14.714-9.505-22.468
		c-4.327-11.694-8.502-21.315-11.233-35.428c-5.686-2.092-11.597-3.957-19.011-4.321c-1.689-4.07-1.736-9.785-7.777-9.505
		c-1.427-12.362-1.179-22.402-1.728-34.564c-0.204-4.505-1.913-9.185-1.729-13.826c0.073-1.835,1.45-3.431,1.729-5.185
		c0.908-5.721-0.544-12.3,0.864-19.01c0.358-1.704,2.104-2.846,2.592-4.321c1.151-3.473,1.461-8.132,2.593-12.097
		c2.151-7.543,3.16-12.938,4.32-23.331c0.468-4.192,2.167-8.821,1.729-11.233c-1.294-7.105-16.892-19.653-22.467-25.06
		c-4.007-3.886-8.281-7.962-12.097-12.097c-3.963-4.294-9.167-8.487-11.234-12.098c-2.65-4.632-2.793-10.937-4.32-16.418
		c-3.99-14.319-10.736-30.241-13.826-44.069c8.659-1.18,18.032-5.142,25.923-9.505c3.398-0.922,3.604-5.037,8.641-4.321
		c1.694,22.79,7.235,41.731,9.505,63.944c4.012,1.173,3.338,7.032,9.505,6.049c-1.494,6.678,7.799,2.571,6.913,8.641
		c3.561-0.472,5.057-3.008,7.777-4.32c-7.443-13.47-13.41-34.052-7.777-50.983C66.14,89.235,62.392,74.596,70,68.904
		c-0.895-2.273-1.034-5.303-0.864-8.641c6.447-5.231,6.379-16.971,11.233-25.923c2.854-5.263,8.211-7.788,8.641-13.826
		c2.917-0.54,3.846-3.066,6.913-3.457c0.627-2.643-1.491-2.542-0.864-5.185c3.57-3.444,8.849-3.779,13.826-6.049
		c2.303-1.051,3.513-2.854,7.777-3.457c4.608-0.65,9.141,1.151,13.826,0.864c4.662-0.286,8.629-3.71,12.962-1.729
		c8.234-5.216,13.441,4.857,22.467,4.321c2.574,5.49,8.576,7.554,11.233,12.961C182.146,18.399,185.984,19.169,188.384,21.378z
		 M144.314,11.873c1.129,3.479,2.984,6.232,7.776,6.049c0.819-1.786-0.47-4.807,1.729-6.913c-4.555,1.818-4.813,1.26-8.641-0.864
		C144.984,10.815,145.154,11.849,144.314,11.873z M136.537,16.193c-2.841,0.629-1.323-1.717,0-1.728
		c4.795,1.044,8.158,11.497,12.098,7.777c-1.768-3.129-5.505-4.288-6.049-8.641c-2.489-0.103-5.656,0.472-6.913-0.864
		C133.286,13.657,134.12,18.831,136.537,16.193z M112.342,18.786c1.97,0.242,3.248-0.208,3.457-1.728
		C114.267,17.254,111.471,16.187,112.342,18.786z M79.506,51.622c7.215,2.65,17.643,6.456,14.69,16.418
		c-4.815-6.45-16.958-10.967-21.603-1.728c4.176,3.163,9.101,0.382,13.826,0.864c7.971,0.812,15.969,6.349,25.923,4.32
		c11.725-7.229,35.708-5.784,37.157,9.505c9.04-0.177,16.774-1.66,25.923-1.729c-4.293-3.942-2.597-11.116-2.592-13.826
		c7.949,0.691,13.733,3.549,20.738,5.185c0.201-12.01-21.187-2.432-23.331-12.097c4.5,1.798,11.979,2.393,16.419,1.728
		c1.246,3.362,5.317,3.899,9.505,4.321c-3.072-8.738-16.27-7.35-25.924-9.505c3.954-3.338-3.14-2.708-0.864-6.049
		c3.738-0.583,10.612,1.971,9.506-3.457c-2.626-2.017-10.769,4.368-11.233-2.592c3.771,0.604,3.842-2.495,6.913-2.592
		c-1.439-1.442,0.548-6.31-2.593-6.049c-3.554,1.441,3.139,4.158,0,5.185c-1.7-1.18-4.936-0.825-6.913-1.728
		c-1.378-0.638,0.197-4.23-2.592-3.457c-2.699,1.046-5.394,2.096-7.777,3.457c-1.148-0.868-3.215-0.817-3.456-2.592
		c-7.512,3.57-8.638-6.432-9.506-9.505c-7.525,4.042-15.138-3.086-24.195-3.457c-5.431-0.222-10.293,1.813-16.418,1.729
		c-1.216-2.475,2.682-4.716-0.864-4.321C88.513,25.488,81.803,36.349,79.506,51.622z M123.576,21.378c0.576,0,1.152,0,1.728,0
		c1.344-2.126-2.935-2.541-2.592-0.864C123.239,20.563,123.734,20.643,123.576,21.378z M175.422,34.34
		c2.483-0.179,4.39,0.219,5.186,1.728c-1.113,4.349-1.508,9.751,3.456,11.234c0.19-0.674,0.724-1.005,1.729-0.864
		c0.532-2.776-3.11-1.184-0.864-3.457c3.976,0.92,1.943,7.85,7.776,6.913c0.706-6.752-9.421-10.582-3.456-14.69
		c-3.245-0.5-6.736-0.752-6.049-5.185c-2.715,1.326-5.338,0.326-6.913-1.729C174.699,29.512,177.641,32.488,175.422,34.34z
		 M176.286,41.253C171.842,43.34,179.262,43.486,176.286,41.253L176.286,41.253z M175.422,53.35
		c7.116,0.373,11.78,3.198,18.146,4.321C191.358,50.82,180.213,48.341,175.422,53.35z M115.799,81.866
		c0.306,9.041,14.303,13.083,25.059,9.505c2.801-2.892,3.568-10.698,1.729-15.554C134.188,68.714,115.437,71.188,115.799,81.866z
		 M94.196,76.681c-3.695-5.69-16.675-5.188-22.467-1.728c-0.587,3.158-1.206,6.283-0.864,10.369
		c4.037,3.546,10.883,6.776,18.146,6.049c2.175-0.218,3.914-3.388,6.049-0.864c-0.945,7.697-6.903,10.379-8.641,17.282
		c1.197,1.395,2.448,2.736,3.456,4.321c8.083,0.635,14.243-6.026,20.739-1.728c-0.604,6.309-7.237,6.588-10.369,10.369
		c6.623,6.669,23.062-0.456,25.923,6.913c3.278,8.442-6.757,13.613-15.554,14.69c-12.427-2.55-18.218-11.738-23.331-21.603
		c0.083-2.221,3.373-1.235,3.457-3.457c-4.479-2.449-8.701-6.417-7.777-12.097c0.694-4.268,5.062-3.803,6.049-7.777
		c-4.283-0.902-8.838-1.532-13.826-1.728c-2.216,8.382-3.243,22.095-0.864,28.516c1.26,3.401,3.56,9.701,6.049,13.826
		c1.896,3.143,5.651,5.658,7.777,8.641c3.093,4.341,3.939,9.581,5.185,11.233c3.921,5.202,15.223,7.381,19.875,6.049
		c10.378-2.972,18.327-22.302,19.011-36.292c-2.96-9.138-13.094-11.102-16.418-19.875c6.241,0.146,18.472,3.354,22.467,8.642
		c-2.916,1.299-6.613,5.414-2.593,8.641c4.059,0.891,2.302-4.035,6.049-3.456c2.41,4.515,2.787,15.552-4.32,15.554
		c-0.146-3.716,2.854-7.534,0.864-10.369c-6.618,0.553-4.421,8.862-5.185,12.962c-2.211,11.863-7.811,17.653-12.962,24.195
		c12.847,1.563,24.054-5.865,37.157-6.913c-7.395,6.72-21.47,6.759-31.108,11.233c-0.615,4.359,2.657,4.832,1.729,9.505
		c-2.644,0.627-2.542-1.491-5.185-0.864c-6.883,6.058-6.686,18.307-2.592,25.059c6.307-4.638,11.486-10.405,19.875-12.962
		c9.078-14.252,25.989-20.672,30.243-39.749c6.683-4.263,3.163-18.728,8.642-24.195c-0.587-3.255-5.181-9.421-0.864-12.097
		c3.239-0.647,4.211,0.974,4.32,3.457c11.562-4.28,14.85-16.835,17.282-30.244c-5.1,0.085-7.454,2.916-10.369,5.185
		c6.116,5.213,3.126,12.627-3.456,13.826c-0.255-1.762-2.339-1.695-2.593-3.457c4.143-5.754-0.698-17.26,7.777-19.011
		c1.859-0.384,3.541,2.698,6.049,0c-2.891-1.43-5.585-3.057-10.369-2.592c-3.413,0.445-2.332,6.064-6.049,6.913
		c0.746-0.171-3.582-3.5-3.457-3.457c-1.295-0.45-5.875-0.09-8.641,0c-6.301,0.205-14.177,1.029-19.011,1.728
		c-1.621,18.065-44.347,16.549-37.157-8.641C105.604,77.762,99.527,74.195,94.196,76.681z M177.15,74.953
		c1.238,1.931,1.784,4.553,4.32,5.185c2.817,0.225,4.159-1.026,4.321-3.457C185.142,73.999,179.539,73.195,177.15,74.953z
		 M112.342,127.664c-4.174-1.483-9.951-5.352-14.69-3.457c2.043,7.001,15.206,5.125,21.603,5.185
		C118.845,125.497,115.182,127.428,112.342,127.664z M107.157,189.016c4.713-1.047,4.708-6.813,8.642-8.641
		c-0.84-5.161,2.035-6.606,1.728-11.234C105.575,165.733,110.17,181.712,107.157,189.016z M114.07,198.521c0-1.152,0-2.304,0-3.457
		c-1.152,0-2.304,0-3.457,0C110.213,197.77,111.365,198.922,114.07,198.521z M188.384,227.037
		c-3.669,3.596-4.962,8.998-8.641,13.826c-4.224,5.543-11.163,9.422-14.69,14.69c-7.221,10.787-0.714,26.104,0,42.341
		c4.438,0.781,7.927-6.328,15.555-5.185c-0.685-2.988,0.96-3.647,1.728-5.185c7.886-5.651,13.852-13.224,19.011-21.603
		c2.149,0.133,2.675-1.357,4.32-1.729c0.961-3.936,3.568-6.225,6.049-8.641C205.48,244.505,201.435,231.269,188.384,227.037z
		 M107.157,274.562c6.746,0.63,7.787-6.166,11.233-8.641c1.791-1.286,2.05,1.347,2.593-1.729
		C115.029,259.763,107.557,267.779,107.157,274.562z M107.157,284.068c16.574,7.909,31.021,17.945,46.662,26.787
		c3.336-3.577,5.958-7.867,7.777-12.962c-11.585-12.322-24.054-23.761-37.157-34.564
		C123.019,274.582,114.957,279.194,107.157,284.068z M116.663,273.699c0.482-2.111,3.344-1.842,2.592-5.186
		C116.495,268.425,113.444,273.002,116.663,273.699z M178.879,296.166c-7.032,1.77-16.28,4.221-16.418,9.505
		c0.004-0.152,2.676,2.72,2.592,2.593c3.585,5.477,10.404,6.911,12.962,12.098c-0.352,1.664-3.35,0.682-2.593,3.456
		C191.035,321.946,194.56,301.599,178.879,296.166z M153.819,319.497c1.136,0.881,3.186,0.847,4.32,1.728
		c1.671-3.514,5.073-5.296,4.321-11.233C157.882,308.258,155.43,315.449,153.819,319.497z M193.568,311.72
		c-0.764-0.664-2.467,0.531-2.592,0.864C189.755,315.842,195.276,313.204,193.568,311.72z M161.597,320.361
		c3.31,3.032,7.773-2.319,5.185-5.186C163.987,315.839,162.26,317.567,161.597,320.361z M167.646,324.682
		c3.266,0.097,4.646-1.691,5.185-4.32C170.354,317.979,165.533,322.476,167.646,324.682z M188.384,321.225
		c-2.755-1.275-6.814,2.335-6.913,4.321c6.015,9.539,16.486,14.622,24.195,22.467c4.627-2.286,8.283-5.544,8.642-12.098
		C208.388,333.484,195.477,324.509,188.384,321.225z M126.168,477.629c0.01-1.142,1.515-0.789,1.729-1.728
		c-0.674-0.19-1.005-0.724-0.864-1.729c-0.864,0-1.729,0-2.593,0C124.198,476.143,124.648,477.421,126.168,477.629z"/>
</g>
</svg>
