<?xml version="1.0" encoding="UTF-8" standalone="no"?>
<!-- Created with Inkscape (http://www.inkscape.org/) -->
<svg
   xmlns:dc="http://purl.org/dc/elements/1.1/"
   xmlns:cc="http://web.resource.org/cc/"
   xmlns:rdf="http://www.w3.org/1999/02/22-rdf-syntax-ns#"
   xmlns:svg="http://www.w3.org/2000/svg"
   xmlns="http://www.w3.org/2000/svg"
   xmlns:xlink="http://www.w3.org/1999/xlink"
   xmlns:sodipodi="http://sodipodi.sourceforge.net/DTD/sodipodi-0.dtd"
   xmlns:inkscape="http://www.inkscape.org/namespaces/inkscape"
   width="744.09448819"
   height="1052.3622047"
   id="svg2"
   sodipodi:version="0.32"
   inkscape:version="0.45"
   sodipodi:docbase="/home/ckhung"
   sodipodi:docname="mantis.svg"
   inkscape:output_extension="org.inkscape.output.svg.inkscape"
   sodipodi:modified="true">
  <defs
     id="defs4">
    <clipPath
       clipPathUnits="userSpaceOnUse"
       id="clipPath3463">
      <path
         sodipodi:nodetypes="cccccccccccccccccccccccccscscssscccccccccccccccccccccccccccccccccccccc"
         id="path3465"
         d="M 551.64282,646.6908 C 529.53099,641.82221 530.97012,613.939 518.51617,598.30563 C 501.74824,571.57029 487.52497,543.09356 469.82068,516.82831 C 451.35568,510.80653 431.36507,491.12675 419.52637,514.89718 C 394.51932,515.59945 389.02665,483.17614 374.98762,467.8597 C 371.23623,454.49187 353.01967,446.4988 361.57628,466.05734 C 354.94333,492.32291 321.34143,490.03908 301.53858,501.24082 C 287.72362,506.82357 270.71365,512.57162 278.0919,530.47618 C 279.84324,548.22398 289.00309,577.48733 266.95345,585.42775 C 262.55343,604.99563 262.9252,638.833 234.59245,637.72239 C 209.17767,639.83415 230.7702,626.19587 243.93202,628.6205 C 258.41618,617.40976 263.87791,583.4852 248.37341,577.13416 C 273.67892,575.21542 259.51261,535.95823 267.55937,517.56019 C 272.29778,499.40304 250.66895,467.68442 273.72505,458.79829 C 295.60645,456.14454 326.777,470.15048 342.81585,463.1841 C 338.37424,440.92 325.1026,422.32737 317.77957,401.30518 C 303.57128,381.4916 297.90177,357.32258 285.0681,336.58011 C 273.7086,322.22573 266.65297,297.1697 249.80113,291.30377 C 244.57694,324.03649 253.1903,358.55408 242.86965,390.60398 C 216.46966,407.7644 212.16205,364.1343 193.56205,355.59446 C 178.35032,379.06074 150.51067,363.27796 153.51598,338.39229 C 150.03827,316.02359 138.67183,291.92297 137.78603,273.34308 C 137.25445,252.46758 135.10851,221.37525 157.28594,210.61418 C 164.40975,217.05935 165.08479,227.55853 176.87446,216.60045 C 180.68711,208.58911 192.13119,190.58577 192.08277,190.50468 C 192.03435,191.51465 182.67553,142.80192 179.7959,132.28841 C 175.15717,115.35242 173.98355,105.36644 172.25776,105.65887 C 173.99253,103.9252 180.90452,113.8532 186.36491,131.69327 C 191.44905,148.30404 193.61293,161.89591 193.82737,161.75823 C 194.0418,160.5295 196.13627,132.28357 192.10085,105.39087 C 188.06542,78.498165 178.99115,54.049742 180.87115,54.960797 C 185.41246,57.161529 197.7366,85.548983 200.16866,118.38788 C 202.57152,150.83254 200.62829,185.07083 200.5795,185.09216 C 200.4819,185.13484 206.4618,196.57856 208.74675,195.96948 C 220.6643,208.60557 211.97849,228.06692 234.63549,228.488 C 251.19101,245.24971 264.32471,265.80978 277.27744,285.78257 C 291.47662,311.29252 303.96352,339.28384 326.75215,358.36219 C 338.22214,375.47391 363.16266,378.49141 380.1604,390.41634 C 402.24813,403.52817 423.83626,415.26181 446.64285,427.30387 C 467.11706,437.05836 486.88027,449.18436 505.48466,461.36219 C 527.92061,469.86793 547.00897,484.67707 568.28782,495.69035 C 588.8887,508.84749 610.66891,520.62921 631.18156,533.99501 C 656.04955,538.24834 652.47857,562.26291 627.06508,554.61924 C 608.87666,548.25111 593.03151,543.26496 576.25825,541.42478 C 564.0776,538.47163 535.58293,533.16124 530.55032,538.09801 C 547.07432,552.31005 560.09142,575.79061 584.36851,573.14561 C 564.8163,592.82861 551.41289,560.16686 534.3488,552.87517 C 522.46834,538.86281 500.54585,517.00607 483.85472,524.6294 C 496.981,546.10983 508.34133,568.33978 522.35636,589.18362 C 531.00321,608.67785 536.12379,635.71786 559.28823,642.78814 C 573.49809,648.97513 556.22178,649.45793 551.64282,646.6908 z M 272.19739,573.91925 C 276.06312,563.33039 272.39585,528.46555 269.63855,557.38114 C 269.42733,559.62931 264.14542,584.57093 272.19739,573.91925 z M 282.98703,497.36218 C 293.57191,489.27585 325.98969,486.23523 323.85907,475.35877 C 305.22502,473.28889 261.35089,455.42375 273.7545,490.36219 C 274.38271,496.67853 274.55738,503.97608 282.98703,497.36218 z M 226.91228,344.18839 C 227.67529,330.93832 226.14575,299.16508 213.46501,326.61049 C 209.18661,330.00768 231.37832,366.1323 226.91228,344.18839 z M 201.10822,300.61218 C 206.32465,280.16869 245.5888,263.7102 212.1585,248.36219 C 200.54463,235.66582 176.92808,240.21976 167.5356,248.31122 C 165.71353,270.38058 184.61068,285.25143 194.37549,303.05408 C 197.16396,311.77517 199.92158,302.2015 201.10822,300.61218 z M 190.83035,211.67908 C 185.23982,210.81575 192.54967,213.39359 190.83035,211.67908 z M 207.49124,208.47705 C 211.90625,194.68228 195.95702,210.95255 207.49124,208.47705 z "
         style="fill:#000000;fill-opacity:0" />
    </clipPath>
  </defs>
  <sodipodi:namedview
     id="base"
     pagecolor="#ffffff"
     bordercolor="#666666"
     borderopacity="1.0"
     gridtolerance="10000"
     guidetolerance="10"
     objecttolerance="10"
     inkscape:pageopacity="0.0"
     inkscape:pageshadow="2"
     inkscape:zoom="0.91655027"
     inkscape:cx="372.04724"
     inkscape:cy="661.08992"
     inkscape:document-units="px"
     inkscape:current-layer="layer1"
     inkscape:window-width="1272"
     inkscape:window-height="949"
     inkscape:window-x="0"
     inkscape:window-y="26" />
  <metadata
     id="metadata7">
    <rdf:RDF>
      <cc:Work
         rdf:about="">
        <dc:format>image/svg+xml</dc:format>
        <dc:type
           rdf:resource="http://purl.org/dc/dcmitype/StillImage" />
      </cc:Work>
    </rdf:RDF>
  </metadata>
  <g
     inkscape:label="Layer 1"
     inkscape:groupmode="layer"
     id="layer1">
    <path
       style="fill:#000000;fill-opacity:0"
       d="M 183.90625 60.6875 C 182.54038 60.718971 180.83974 61.153657 178.71875 62.125 C 184.63281 96.691362 190.55469 131.27738 196.46875 165.84375 C 187.4641 160.48092 178.86578 122.37453 170 105.59375 C 177.37802 134.01536 187.36584 161.67935 195.125 190 C 187.12695 196.40351 172.18586 227.33424 163.15625 216.21875 C 136.74581 200.36473 137.97592 249.59592 135.90625 266.46875 C 136.12126 287.7999 148.19168 309.79594 152.40625 334.21875 C 148.86619 360.40663 175.52861 380.02159 194.21875 356.5 C 211.18679 364.82432 219.42883 411.04604 243.625 389.0625 C 251.82116 361.70615 247.45564 332.89602 248.46875 304.78125 C 244.0018 277.61578 265.66892 302.21557 270.75 312.875 C 284.53299 335.12649 295.97381 358.37369 307.21875 381.78125 C 319.74174 408.10266 334.03105 433.41053 342.3125 461.75 C 332.86258 470.94702 301.24177 457.57435 283.375 457.875 C 248.09533 452.60511 270.71552 496.92061 267.53125 516 C 258.74661 534.73513 273.89202 573.88035 247.875 576.84375 C 259.45593 581.22837 259.14171 600.43866 253.5625 615.125 C 258.143 635.69994 207.99375 626.7648 226.84375 637.96875 C 260.09083 645.36849 263.57112 608.65201 267.375 585.625 C 293.73153 573.56749 275.09835 538.47047 277.3125 516.71875 C 296.41084 498.13303 325.26733 495.42881 348.40625 483.59375 C 371.59402 482.60336 350.18997 439.85542 369.40625 459.09375 C 386.96443 476.60452 390.23452 516.41437 419.84375 514.21875 C 431.80249 492.43581 450.50192 510.31176 467.65625 516.25 C 485.84797 538.64036 498.18953 565.16942 512.5625 590.09375 C 530.55792 606.78428 526.10668 641.77742 553.15625 647.625 C 556.58183 648.44292 560.30421 649.87486 563.875 648.84375 C 553.72215 638.77301 533.51337 626.85387 529.65625 607.46875 C 521.05149 582.671 505.02488 561.32402 492.59375 538.65625 C 467.89605 511.58283 516.43096 526.45935 524 541.75 C 541.89729 553.25761 558.38463 588.90594 582.4375 575.375 C 574.58917 571.97289 549.97431 564.4766 541.375 548.5 C 511.1349 526.90028 559.67129 539.20875 573.3125 540.40625 C 594.95062 541.67309 613.8767 555.09727 637.625 555.375 C 662.7338 554.82377 647.12755 538.18239 633.625 534.375 C 605.4161 518.91587 577.77881 500.61326 549.65625 484.375 C 524.85462 468.7666 497.96468 456.90532 473.625 440.53125 C 440.24922 425.50086 409.77593 404.67408 377.1875 388 C 360.00539 377.36568 336.84547 372.76342 325.125 357.65625 C 306.02492 338.44542 293.29895 314.91491 280.75 291.375 C 267.82423 268.61475 252.08431 246.67082 234.40625 227.75 C 208.63529 227.88773 225.7248 196.00229 200.90625 191.21875 C 198.76206 154.01935 193.73672 116.88417 190.34375 79.71875 C 188.92186 72.478183 191.28196 60.517559 183.90625 60.6875 z M 205.96875 204.46875 C 206.36712 204.43219 206.94804 204.93515 207.65625 206.375 C 205.12695 211.51737 204.54601 204.59933 205.96875 204.46875 z M 187.78125 240.40625 C 199.90771 240.41532 214.00698 247.21263 222.5 255.84375 C 235.15043 273.93275 202.90778 280.74377 200.8125 300.5625 L 198.46875 304.4375 C 186.84748 292.77422 168.6937 271.54012 168.0625 251.53125 C 172.1187 243.5716 179.4842 240.40004 187.78125 240.40625 z M 221.78125 315.25 C 225.8775 314.72756 226.92174 327.64827 225.90625 337.625 C 233.21335 364.18367 210.17544 336.62505 214.21875 325.8125 C 217.43672 318.48441 219.91932 315.48747 221.78125 315.25 z M 283.96875 469.40625 C 291.86296 469.43812 301.7992 471.90825 309.03125 472.71875 C 348.17171 477.14194 295.22399 490.46715 282.71875 496.78125 C 275.03537 502.85151 274.17322 496.39965 273.75 490.03125 C 267.04565 473.35778 273.81906 469.36527 283.96875 469.40625 z M 271.40625 551.09375 C 273.48937 550.73001 275.3317 565.40549 271.9375 573.59375 C 264.94767 580.54701 268.94079 565.38255 268.875 562.9375 C 269.46076 554.52848 270.45938 551.25909 271.40625 551.09375 z "
       id="path3392" />
    <rect
       style="fill:#ff0000;fill-opacity:1;stroke:#000000;stroke-opacity:1"
       id="rect3422"
       width="639.35394"
       height="643.71808"
       x="48.0061"
       y="70.419319" />
    <image
       y="52.362186"
       x="45.642849"
       id="image2416"
       height="600"
       width="663"
       sodipodi:absref="/mnt/worksp/home/ckhung/mantis.jpg"
       xlink:href="/mnt/worksp/home/ckhung/mantis.jpg"
       clip-path="url(#clipPath3463)"
       transform="translate(14.183628,26.185145)" />
  </g>
</svg>
