<?xml version="1.0" encoding="UTF-8" standalone="no"?>
<svg
   xmlns:dc="http://purl.org/dc/elements/1.1/"
   xmlns:cc="http://web.resource.org/cc/"
   xmlns:rdf="http://www.w3.org/1999/02/22-rdf-syntax-ns#"
   xmlns:svg="http://www.w3.org/2000/svg"
   xmlns="http://www.w3.org/2000/svg"
   xmlns:xlink="http://www.w3.org/1999/xlink"
   xmlns:sodipodi="http://sodipodi.sourceforge.net/DTD/sodipodi-0.dtd"
   xmlns:inkscape="http://www.inkscape.org/namespaces/inkscape"
   width="600"
   height="200"
   viewBox="0 0 600 480"
   id="svg2277"
   sodipodi:version="0.32"
   inkscape:version="0.45.1"
   sodipodi:docname="normal-cake.svg"
   sodipodi:docbase="/mnt/worksp/home/ckhung"
   inkscape:output_extension="org.inkscape.output.svg.inkscape"
   version="1.0"
   inkscape:export-filename="/mnt/worksp/home/ckhung/normal-cake.png"
   inkscape:export-xdpi="50.580475"
   inkscape:export-ydpi="50.580475">
  <metadata
     id="metadata2320">
    <rdf:RDF>
      <cc:Work
         rdf:about="">
        <dc:format>image/svg+xml</dc:format>
        <dc:type
           rdf:resource="http://purl.org/dc/dcmitype/StillImage" />
      </cc:Work>
    </rdf:RDF>
  </metadata>
  <sodipodi:namedview
     inkscape:cy="123.65814"
     inkscape:cx="252.20997"
     inkscape:zoom="0.8525"
     inkscape:window-height="626"
     inkscape:window-width="772"
     inkscape:pageshadow="2"
     inkscape:pageopacity="0.0"
     guidetolerance="10.0"
     gridtolerance="10.0"
     objecttolerance="10.0"
     borderopacity="1.0"
     bordercolor="#666666"
     pagecolor="#ffffff"
     id="base"
     height="200px"
     width="600px"
     inkscape:window-x="122"
     inkscape:window-y="46"
     inkscape:current-layer="svg2277" />
  <desc
     id="desc2279">Produced by GNUPLOT 4.2 patchlevel 0 </desc>
  <defs
     id="defs2281">
    <marker
       inkscape:stockid="Arrow2Mend"
       orient="auto"
       refY="0.0"
       refX="0.0"
       id="Arrow2Mend"
       style="overflow:visible;">
      <path
         id="path4607"
         style="font-size:12.0;fill-rule:evenodd;stroke-width:0.62500000;stroke-linejoin:round;"
         d="M 8.7185878,4.0337352 L -2.2072895,0.016013256 L 8.7185884,-4.0017078 C 6.9730900,-1.6296469 6.9831476,1.6157441 8.7185878,4.0337352 z "
         transform="scale(0.6) rotate(180) translate(0,0)" />
    </marker>
    <marker
       inkscape:stockid="Arrow2Mstart"
       orient="auto"
       refY="0.0"
       refX="0.0"
       id="Arrow2Mstart"
       style="overflow:visible">
      <path
         id="path4604"
         style="font-size:12.0;fill-rule:evenodd;stroke-width:0.62500000;stroke-linejoin:round"
         d="M 8.7185878,4.0337352 L -2.2072895,0.016013256 L 8.7185884,-4.0017078 C 6.9730900,-1.6296469 6.9831476,1.6157441 8.7185878,4.0337352 z "
         transform="scale(0.6) translate(0,0)" />
    </marker>
    <marker
       inkscape:stockid="Arrow1Sstart"
       orient="auto"
       refY="0.0"
       refX="0.0"
       id="Arrow1Sstart"
       style="overflow:visible">
      <path
         id="path4592"
         d="M 0.0,0.0 L 5.0,-5.0 L -12.5,0.0 L 5.0,5.0 L 0.0,0.0 z "
         style="fill-rule:evenodd;stroke:#000000;stroke-width:1.0pt;marker-start:none"
         transform="scale(0.2) translate(6,0)" />
    </marker>
    <marker
       inkscape:stockid="Arrow2Lend"
       orient="auto"
       refY="0.0"
       refX="0.0"
       id="Arrow2Lend"
       style="overflow:visible;">
      <path
         id="path4601"
         style="font-size:12.0;fill-rule:evenodd;stroke-width:0.62500000;stroke-linejoin:round;"
         d="M 8.7185878,4.0337352 L -2.2072895,0.016013256 L 8.7185884,-4.0017078 C 6.9730900,-1.6296469 6.9831476,1.6157441 8.7185878,4.0337352 z "
         transform="scale(1.1) rotate(180) translate(1,0)" />
    </marker>
    <marker
       inkscape:stockid="Arrow1Lstart"
       orient="auto"
       refY="0.0"
       refX="0.0"
       id="Arrow1Lstart"
       style="overflow:visible">
      <path
         id="path4580"
         d="M 0.0,0.0 L 5.0,-5.0 L -12.5,0.0 L 5.0,5.0 L 0.0,0.0 z "
         style="fill-rule:evenodd;stroke:#000000;stroke-width:1.0pt;marker-start:none"
         transform="scale(0.8) translate(12.5,0)" />
    </marker>
    <circle
       id="gpDot"
       r="1"
       cx="0"
       cy="0"
       sodipodi:cx="0"
       sodipodi:cy="0"
       sodipodi:rx="1"
       sodipodi:ry="1" />
    <path
       id="gpPt0"
       style="stroke-width:0.222"
       d="M -1,0 L 1,0 M 0,-1 L 0,1" />
    <path
       id="gpPt1"
       style="stroke-width:0.222"
       d="M -1,-1 L 1,1 M 1,-1 L -1,1" />
    <path
       id="gpPt2"
       style="stroke-width:0.222"
       d="M -1,0 L 1,0 M 0,-1 L 0,1 M -1,-1 L 1,1 M -1,1 L 1,-1" />
    <rect
       id="gpPt3"
       style="stroke-width:0.222"
       x="-1"
       y="-1"
       width="2"
       height="2" />
    <use
       xlink:href="#gpPt3"
       id="gpPt4"
       style="fill:currentColor;stroke:none"
       x="0"
       y="0"
       width="600"
       height="480" />
    <circle
       id="gpPt5"
       style="stroke-width:0.222"
       cx="0"
       cy="0"
       r="1"
       sodipodi:cx="0"
       sodipodi:cy="0"
       sodipodi:rx="1"
       sodipodi:ry="1" />
    <use
       xlink:href="#gpPt5"
       id="gpPt6"
       style="fill:currentColor;stroke:none"
       x="0"
       y="0"
       width="600"
       height="480" />
    <path
       id="gpPt7"
       style="stroke-width:0.222"
       d="M 0,-1.33 L -1.33,0.67 L 1.33,0.67 L 0,-1.33 z " />
    <use
       xlink:href="#gpPt7"
       id="gpPt8"
       style="fill:currentColor;stroke:none"
       x="0"
       y="0"
       width="600"
       height="480" />
    <use
       xlink:href="#gpPt7"
       id="gpPt9"
       transform="scale(-1,-1)"
       x="0"
       y="0"
       width="600"
       height="480" />
    <use
       xlink:href="#gpPt9"
       id="gpPt10"
       style="fill:currentColor;stroke:none"
       x="0"
       y="0"
       width="600"
       height="480" />
    <use
       xlink:href="#gpPt3"
       id="gpPt11"
       transform="matrix(0.7071068,0.7071068,-0.7071068,0.7071068,0,0)"
       x="0"
       y="0"
       width="600"
       height="480" />
    <use
       xlink:href="#gpPt11"
       id="gpPt12"
       style="fill:currentColor;stroke:none"
       x="0"
       y="0"
       width="600"
       height="480" />
    <use
       style="fill:currentColor;stroke:none"
       id="use2393"
       xlink:href="#gpPt11"
       x="0"
       y="0"
       width="600"
       height="480" />
    <use
       transform="matrix(0.7071068,0.7071068,-0.7071068,0.7071068,0,0)"
       id="use2391"
       xlink:href="#gpPt3"
       x="0"
       y="0"
       width="600"
       height="480" />
    <use
       style="fill:currentColor;stroke:none"
       id="use2389"
       xlink:href="#gpPt9"
       x="0"
       y="0"
       width="600"
       height="480" />
    <use
       transform="scale(-1,-1)"
       id="use2387"
       xlink:href="#gpPt7"
       x="0"
       y="0"
       width="600"
       height="480" />
    <use
       style="fill:currentColor;stroke:none"
       id="use2385"
       xlink:href="#gpPt7"
       x="0"
       y="0"
       width="600"
       height="480" />
    <path
       d="M 0,-1.33 L -1.33,0.67 L 1.33,0.67 L 0,-1.33 z "
       style="stroke-width:0.222"
       id="path2383" />
    <use
       style="fill:currentColor;stroke:none"
       id="use2381"
       xlink:href="#gpPt5"
       x="0"
       y="0"
       width="600"
       height="480" />
    <circle
       r="1"
       cy="0"
       cx="0"
       style="stroke-width:0.222"
       id="circle2379"
       sodipodi:cx="0"
       sodipodi:cy="0"
       sodipodi:rx="1"
       sodipodi:ry="1" />
    <use
       style="fill:currentColor;stroke:none"
       id="use2377"
       xlink:href="#gpPt3"
       x="0"
       y="0"
       width="600"
       height="480" />
    <rect
       height="2"
       width="2"
       y="-1"
       x="-1"
       style="stroke-width:0.222"
       id="rect2375" />
    <path
       d="M -1,0 L 1,0 M 0,-1 L 0,1 M -1,-1 L 1,1 M -1,1 L 1,-1"
       style="stroke-width:0.222"
       id="path2373" />
    <path
       d="M -1,-1 L 1,1 M 1,-1 L -1,1"
       style="stroke-width:0.222"
       id="path2371" />
    <path
       d="M -1,0 L 1,0 M 0,-1 L 0,1"
       style="stroke-width:0.222"
       id="path2369" />
    <circle
       r="1"
       id="circle2367"
       cx="0"
       cy="0"
       sodipodi:cx="0"
       sodipodi:cy="0"
       sodipodi:rx="1"
       sodipodi:ry="1" />
    <use
       style="fill:currentColor;stroke:none"
       id="use2479"
       xlink:href="#gpPt11"
       x="0"
       y="0"
       width="600"
       height="480" />
    <use
       transform="matrix(0.7071068,0.7071068,-0.7071068,0.7071068,0,0)"
       id="use2477"
       xlink:href="#gpPt3"
       x="0"
       y="0"
       width="600"
       height="480" />
    <use
       style="fill:currentColor;stroke:none"
       id="use2475"
       xlink:href="#gpPt9"
       x="0"
       y="0"
       width="600"
       height="480" />
    <use
       transform="scale(-1,-1)"
       id="use2473"
       xlink:href="#gpPt7"
       x="0"
       y="0"
       width="600"
       height="480" />
    <use
       style="fill:currentColor;stroke:none"
       id="use2471"
       xlink:href="#gpPt7"
       x="0"
       y="0"
       width="600"
       height="480" />
    <path
       d="M 0,-1.33 L -1.33,0.67 L 1.33,0.67 L 0,-1.33 z "
       style="stroke-width:0.222"
       id="path2469" />
    <use
       style="fill:currentColor;stroke:none"
       id="use2467"
       xlink:href="#gpPt5"
       x="0"
       y="0"
       width="600"
       height="480" />
    <circle
       r="1"
       cy="0"
       cx="0"
       style="stroke-width:0.222"
       id="circle2465"
       sodipodi:cx="0"
       sodipodi:cy="0"
       sodipodi:rx="1"
       sodipodi:ry="1" />
    <use
       style="fill:currentColor;stroke:none"
       id="use2463"
       xlink:href="#gpPt3"
       x="0"
       y="0"
       width="600"
       height="480" />
    <rect
       height="2"
       width="2"
       y="-1"
       x="-1"
       style="stroke-width:0.222"
       id="rect2461" />
    <path
       d="M -1,0 L 1,0 M 0,-1 L 0,1 M -1,-1 L 1,1 M -1,1 L 1,-1"
       style="stroke-width:0.222"
       id="path2459" />
    <path
       d="M -1,-1 L 1,1 M 1,-1 L -1,1"
       style="stroke-width:0.222"
       id="path2457" />
    <path
       d="M -1,0 L 1,0 M 0,-1 L 0,1"
       style="stroke-width:0.222"
       id="path2455" />
    <circle
       r="1"
       id="circle2453"
       cx="0"
       cy="0"
       sodipodi:cx="0"
       sodipodi:cy="0"
       sodipodi:rx="1"
       sodipodi:ry="1" />
    <use
       style="fill:currentColor;stroke:none"
       id="use2565"
       xlink:href="#gpPt11"
       x="0"
       y="0"
       width="600"
       height="480" />
    <use
       transform="matrix(0.7071068,0.7071068,-0.7071068,0.7071068,0,0)"
       id="use2563"
       xlink:href="#gpPt3"
       x="0"
       y="0"
       width="600"
       height="480" />
    <use
       style="fill:currentColor;stroke:none"
       id="use2561"
       xlink:href="#gpPt9"
       x="0"
       y="0"
       width="600"
       height="480" />
    <use
       transform="scale(-1,-1)"
       id="use2559"
       xlink:href="#gpPt7"
       x="0"
       y="0"
       width="600"
       height="480" />
    <use
       style="fill:currentColor;stroke:none"
       id="use2557"
       xlink:href="#gpPt7"
       x="0"
       y="0"
       width="600"
       height="480" />
    <path
       d="M 0,-1.33 L -1.33,0.67 L 1.33,0.67 L 0,-1.33 z "
       style="stroke-width:0.222"
       id="path2555" />
    <use
       style="fill:currentColor;stroke:none"
       id="use2553"
       xlink:href="#gpPt5"
       x="0"
       y="0"
       width="600"
       height="480" />
    <circle
       r="1"
       cy="0"
       cx="0"
       style="stroke-width:0.222"
       id="circle2551"
       sodipodi:cx="0"
       sodipodi:cy="0"
       sodipodi:rx="1"
       sodipodi:ry="1" />
    <use
       style="fill:currentColor;stroke:none"
       id="use2549"
       xlink:href="#gpPt3"
       x="0"
       y="0"
       width="600"
       height="480" />
    <rect
       height="2"
       width="2"
       y="-1"
       x="-1"
       style="stroke-width:0.222"
       id="rect2547" />
    <path
       d="M -1,0 L 1,0 M 0,-1 L 0,1 M -1,-1 L 1,1 M -1,1 L 1,-1"
       style="stroke-width:0.222"
       id="path2545" />
    <path
       d="M -1,-1 L 1,1 M 1,-1 L -1,1"
       style="stroke-width:0.222"
       id="path2543" />
    <path
       d="M -1,0 L 1,0 M 0,-1 L 0,1"
       style="stroke-width:0.222"
       id="path2541" />
    <circle
       r="1"
       id="circle2539"
       cx="0"
       cy="0"
       sodipodi:cx="0"
       sodipodi:cy="0"
       sodipodi:rx="1"
       sodipodi:ry="1" />
  </defs>
  <rect
     style="fill:#ffffff;fill-opacity:1;fill-rule:evenodd;stroke:none;stroke-width:3;stroke-linejoin:miter;stroke-miterlimit:4;stroke-dasharray:none;stroke-dashoffset:0;stroke-opacity:1"
     id="rect2254"
     width="1455.4849"
     height="503.9296"
     x="-420"
     y="-9.8533726" />
  <g
     style="color:#ffffff;fill:none;stroke:currentColor;stroke-width:1;stroke-linecap:butt;stroke-linejoin:miter"
     id="g2297"
     transform="matrix(0.6636747,0,0,0.5820062,96.655177,69.610526)" />
  <g
     style="color:#000000;fill:none;stroke:currentColor;stroke-width:1;stroke-linecap:butt;stroke-linejoin:miter"
     id="g2299"
     transform="matrix(0.6636747,0,0,0.5820062,96.655177,69.610526)" />
  <g
     style="color:#000000;fill:none;stroke:currentColor;stroke-width:1;stroke-linecap:butt;stroke-linejoin:miter"
     id="g2317"
     transform="matrix(0.6636747,0,0,0.5820062,96.655177,69.610526)" />
  <g
     style="color:#ffffff;fill:none;stroke-width:1;stroke-linecap:butt;stroke-linejoin:miter"
     id="g2342"
     transform="matrix(0.6636747,0,0,0.5820062,-327.88011,68.041355)" />
  <g
     style="color:#000000;fill:none;stroke-width:1;stroke-linecap:butt;stroke-linejoin:miter"
     id="g2344"
     transform="matrix(0.6636747,0,0,0.5820062,-327.88011,68.041355)" />
  <polygon
     style="color:#ff0000;fill:none;stroke:#000000;stroke-width:4.80000019;stroke-linecap:butt;stroke-linejoin:miter;stroke-miterlimit:4;stroke-dasharray:none;stroke-opacity:1"
     points="25.6,463.3 25.6,463.3 31.1,463.3 36.7,463.3 42.2,463.2 47.8,463.2 53.3,463.1 58.9,463 64.4,462.8 69.9,462.6 75.5,462.3 81,461.9 86.6,461.5 92.1,460.8 97.7,460 103.2,459 108.8,457.8 114.3,456.2 119.8,454.2 125.4,451.7 130.9,448.7 136.5,445.1 142,440.8 147.6,435.6 153.1,429.5 158.6,422.4 164.2,414.1 169.7,404.6 175.3,393.7 180.8,381.5 186.4,367.9 191.9,352.8 197.4,336.2 203,318.2 208.5,298.9 214.1,278.4 219.6,256.8 225.2,234.4 230.7,211.5 236.3,188.3 241.8,165.1 247.3,142.4 252.9,120.4 258.4,99.7 264,80.5 269.5,63.2 275.1,48.2 280.6,35.9 286.1,26.3 291.7,19.9 297.2,16.6 302.8,16.6 308.3,19.9 313.9,26.3 319.4,35.9 324.9,48.2 330.5,63.2 336,80.5 341.6,99.7 347.1,120.4 352.7,142.4 358.2,165.1 363.7,188.3 369.3,211.5 374.8,234.4 380.4,256.8 385.9,278.4 391.5,298.9 397,318.2 402.6,336.2 408.1,352.8 413.6,367.9 419.2,381.5 424.7,393.7 430.3,404.6 435.8,414.1 441.4,422.4 446.9,429.5 452.4,435.6 458,440.8 463.5,445.1 469.1,448.7 474.6,451.7 480.2,454.2 485.7,456.2 491.2,457.8 496.8,459 502.3,460 507.9,460.8 513.4,461.5 519,461.9 524.5,462.3 530.1,462.6 535.6,462.8 541.1,463 546.7,463.1 552.2,463.2 557.8,463.2 563.3,463.3 568.9,463.3 574.4,463.3 25.6,463.3 "
     id="polygon2350"
     transform="matrix(0.6636747,0,0,0.5820062,-327.88011,68.041355)" />
  <path
     style="color:#ff0000;fill:none;stroke-width:1;stroke-linecap:butt;stroke-linejoin:miter"
     id="path2352"
     d="M -310.89004,337.68482 L -307.23983,337.68482 L -303.52325,337.68482 L -299.87304,337.62662 L -296.15645,337.62662 L -292.50624,337.56842 L -288.78967,337.51022 L -285.13946,337.39382 L -281.48925,337.27742 L -277.77267,337.10282 L -274.12245,336.87002 L -270.40587,336.63721 L -266.75567,336.2298 L -263.03909,335.7642 L -259.38888,335.1822 L -255.67229,334.48379 L -252.02208,333.55258 L -248.37187,332.38856 L -244.6553,330.93355 L -241.00509,329.18753 L -237.2885,327.09231 L -233.63829,324.58968 L -229.92171,321.56325 L -226.2715,318.01301 L -222.62129,313.88077 L -218.90472,309.05012 L -215.2545,303.52105 L -211.53792,297.17719 L -207.88771,290.07672 L -204.17114,282.16143 L -200.52093,273.37314 L -196.87071,263.71183 L -193.15413,253.23572 L -189.50392,242.00301 L -185.78734,230.07188 L -182.13713,217.50055 L -178.42056,204.4636 L -174.77034,191.13566 L -171.05376,177.63312 L -167.40355,164.13058 L -163.75334,150.91904 L -160.03676,138.1149 L -156.38655,126.06737 L -152.66997,114.89285 L -149.01976,104.82415 L -145.30318,96.094053 L -141.65297,88.935377 L -138.00276,83.348118 L -134.28618,79.623278 L -130.63597,77.702658 L -126.91939,77.702658 L -123.26918,79.623278 L -119.5526,83.348118 L -115.90239,88.935377 L -112.25218,96.094053 L -108.5356,104.82415 L -104.88539,114.89285 L -101.16881,126.06737 L -97.518595,138.1149 L -93.802015,150.91904 L -90.151805,164.13058 L -86.501595,177.63312 L -82.785015,191.13566 L -79.134805,204.4636 L -75.418215,217.50055 L -71.768005,230.07188 L -68.051435,242.00301 L -64.401225,253.23572 L -60.684645,263.71183 L -57.034425,273.37314 L -53.384215,282.16143 L -49.667645,290.07672 L -46.017435,297.17719 L -42.300855,303.52105 L -38.650644,309.05012 L -34.934059,313.88077 L -31.283849,318.01301 L -27.633639,321.56325 L -23.917062,324.58968 L -20.266852,327.09231 L -16.550267,329.18753 L -12.900057,330.93355 L -9.1834804,332.38856 L -5.5332704,333.55258 L -1.8830614,334.48379 L 1.8335166,335.1822 L 5.4837346,335.7642 L 9.2003116,336.2298 L 12.850522,336.63721 L 16.567099,336.87002 L 20.217308,337.10282 L 23.933894,337.27742 L 27.584104,337.39382 L 31.234313,337.51022 L 34.950891,337.56842 L 38.6011,337.62662 L 42.317678,337.62662 L 45.967896,337.68482 L 49.684472,337.68482 L 53.334682,337.68482" />
  <polygon
     style="color:#008000;fill:currentColor;stroke:none;stroke-width:1;stroke-linecap:butt;stroke-linejoin:miter"
     points="25.6,463.4 25.6,463.4 31.1,463.3 36.7,463.3 42.2,463.2 47.8,463.2 53.3,463.1 58.9,463 64.4,462.8 69.9,462.6 75.5,462.3 81,461.9 86.6,461.5 92.1,460.8 97.7,460 103.2,459 108.8,457.8 114.3,456.2 119.8,454.2 125.4,451.7 130.9,448.7 136.5,445.1 142,440.8 147.6,435.6 153.1,429.5 158.6,422.4 164.2,414.1 169.7,404.6 175.3,393.7 180.8,381.5 186.4,367.9 191.9,352.8 197.4,336.2 203,318.2 208.5,463.4 214.1,463.4 219.6,463.4 225.2,463.4 230.7,463.4 236.3,463.4 241.8,463.4 247.3,463.4 252.9,463.4 258.4,463.4 264,463.4 269.5,463.4 275.1,463.4 280.6,463.4 286.1,463.4 291.7,463.4 297.2,463.4 302.8,463.4 308.3,463.4 313.9,463.4 319.4,463.4 324.9,463.4 330.5,463.4 336,463.4 341.6,463.4 347.1,463.4 352.7,463.4 358.2,463.4 363.7,463.4 369.3,463.4 374.8,463.4 380.4,463.4 385.9,463.4 391.5,463.4 397,463.4 402.6,463.4 408.1,463.4 413.6,463.4 419.2,463.4 424.7,463.4 430.3,463.4 435.8,463.4 441.4,463.4 446.9,463.4 452.4,463.4 458,463.4 463.5,463.4 469.1,463.4 474.6,463.4 480.2,463.4 485.7,463.4 491.2,463.4 496.8,463.4 502.3,463.4 507.9,463.4 513.4,463.4 519,463.4 524.5,463.4 530.1,463.4 535.6,463.4 541.1,463.4 546.7,463.4 552.2,463.4 557.8,463.4 563.3,463.4 568.9,463.4 574.4,463.4 25.6,463.4 "
     id="polygon2358"
     transform="matrix(0.6636747,0,0,0.5820062,-327.88011,68.041355)" />
  <path
     style="color:#008000;fill:none;stroke-width:1;stroke-linecap:butt;stroke-linejoin:miter"
     id="path2360"
     d="M -310.89004,337.74302 L -307.23983,337.68482 L -303.52325,337.68482 L -299.87304,337.62662 L -296.15645,337.62662 L -292.50624,337.56842 L -288.78967,337.51022 L -285.13946,337.39382 L -281.48925,337.27742 L -277.77267,337.10282 L -274.12245,336.87002 L -270.40587,336.63721 L -266.75567,336.2298 L -263.03909,335.7642 L -259.38888,335.1822 L -255.67229,334.48379 L -252.02208,333.55258 L -248.37187,332.38856 L -244.6553,330.93355 L -241.00509,329.18753 L -237.2885,327.09231 L -233.63829,324.58968 L -229.92171,321.56325 L -226.2715,318.01301 L -222.62129,313.88077 L -218.90472,309.05012 L -215.2545,303.52105 L -211.53792,297.17719 L -207.88771,290.07672 L -204.17114,282.16143 L -200.52093,273.37314 L -196.87071,263.71183 L -193.15413,253.23572 L -189.50392,337.74302 L -185.78734,337.74302 L -182.13713,337.74302 L -178.42056,337.74302 L -174.77034,337.74302 L -171.05376,337.74302 L -167.40355,337.74302 L -163.75334,337.74302 L -160.03676,337.74302 L -156.38655,337.74302 L -152.66997,337.74302 L -149.01976,337.74302 L -145.30318,337.74302 L -141.65297,337.74302 L -138.00276,337.74302 L -134.28618,337.74302 L -130.63597,337.74302 L -126.91939,337.74302 L -123.26918,337.74302 L -119.5526,337.74302 L -115.90239,337.74302 L -112.25218,337.74302 L -108.5356,337.74302 L -104.88539,337.74302 L -101.16881,337.74302 L -97.518595,337.74302 L -93.802015,337.74302 L -90.151805,337.74302 L -86.501595,337.74302 L -82.785015,337.74302 L -79.134805,337.74302 L -75.418215,337.74302 L -71.768005,337.74302 L -68.051435,337.74302 L -64.401225,337.74302 L -60.684645,337.74302 L -57.034425,337.74302 L -53.384215,337.74302 L -49.667645,337.74302 L -46.017435,337.74302 L -42.300855,337.74302 L -38.650644,337.74302 L -34.934059,337.74302 L -31.283849,337.74302 L -27.633639,337.74302 L -23.917062,337.74302 L -20.266852,337.74302 L -16.550267,337.74302 L -12.900057,337.74302 L -9.1834804,337.74302 L -5.5332704,337.74302 L -1.8830614,337.74302 L 1.8335166,337.74302 L 5.4837346,337.74302 L 9.2003116,337.74302 L 12.850522,337.74302 L 16.567099,337.74302 L 20.217308,337.74302 L 23.933894,337.74302 L 27.584104,337.74302 L 31.234313,337.74302 L 34.950891,337.74302 L 38.6011,337.74302 L 42.317678,337.74302 L 45.967896,337.74302 L 49.684472,337.74302 L 53.334682,337.74302" />
  <g
     style="color:#000000;fill:none;stroke-width:1;stroke-linecap:butt;stroke-linejoin:miter"
     id="g2362"
     transform="matrix(0.6636747,0,0,0.5820062,-327.88011,68.041355)" />
  <g
     style="color:#ffffff;fill:none;stroke-width:1;stroke-linecap:butt;stroke-linejoin:miter"
     id="g2428"
     transform="matrix(0.6636747,0,0,0.5820062,107.72738,68.041355)" />
  <g
     style="color:#000000;fill:none;stroke-width:1;stroke-linecap:butt;stroke-linejoin:miter"
     id="g2430"
     transform="matrix(0.6636747,0,0,0.5820062,107.72738,68.041355)" />
  <polygon
     style="color:#ff0000;fill:none;stroke:#000000;stroke-width:4.80000019;stroke-linecap:butt;stroke-linejoin:miter;stroke-miterlimit:4;stroke-dasharray:none;stroke-opacity:1"
     points="25.6,463.3 25.6,463.3 31.1,463.3 36.7,463.3 42.2,463.2 47.8,463.2 53.3,463.1 58.9,463 64.4,462.8 69.9,462.6 75.5,462.3 81,461.9 86.6,461.5 92.1,460.8 97.7,460 103.2,459 108.8,457.8 114.3,456.2 119.8,454.2 125.4,451.7 130.9,448.7 136.5,445.1 142,440.8 147.6,435.6 153.1,429.5 158.6,422.4 164.2,414.1 169.7,404.6 175.3,393.7 180.8,381.5 186.4,367.9 191.9,352.8 197.4,336.2 203,318.2 208.5,298.9 214.1,278.4 219.6,256.8 225.2,234.4 230.7,211.5 236.3,188.3 241.8,165.1 247.3,142.4 252.9,120.4 258.4,99.7 264,80.5 269.5,63.2 275.1,48.2 280.6,35.9 286.1,26.3 291.7,19.9 297.2,16.6 302.8,16.6 308.3,19.9 313.9,26.3 319.4,35.9 324.9,48.2 330.5,63.2 336,80.5 341.6,99.7 347.1,120.4 352.7,142.4 358.2,165.1 363.7,188.3 369.3,211.5 374.8,234.4 380.4,256.8 385.9,278.4 391.5,298.9 397,318.2 402.6,336.2 408.1,352.8 413.6,367.9 419.2,381.5 424.7,393.7 430.3,404.6 435.8,414.1 441.4,422.4 446.9,429.5 452.4,435.6 458,440.8 463.5,445.1 469.1,448.7 474.6,451.7 480.2,454.2 485.7,456.2 491.2,457.8 496.8,459 502.3,460 507.9,460.8 513.4,461.5 519,461.9 524.5,462.3 530.1,462.6 535.6,462.8 541.1,463 546.7,463.1 552.2,463.2 557.8,463.2 563.3,463.3 568.9,463.3 574.4,463.3 25.6,463.3 "
     id="polygon2436"
     transform="matrix(0.6636747,0,0,0.5820062,107.72738,68.041355)" />
  <path
     style="color:#ff0000;fill:none;stroke-width:1;stroke-linecap:butt;stroke-linejoin:miter"
     id="path2438"
     d="M 124.71745,337.68482 L 128.36766,337.68482 L 132.08424,337.68482 L 135.73445,337.62662 L 139.45103,337.62662 L 143.10124,337.56842 L 146.81782,337.51022 L 150.46803,337.39382 L 154.11825,337.27742 L 157.83482,337.10282 L 161.48503,336.87002 L 165.20161,336.63721 L 168.85182,336.2298 L 172.5684,335.7642 L 176.21861,335.1822 L 179.93519,334.48379 L 183.5854,333.55258 L 187.23561,332.38856 L 190.95219,330.93355 L 194.60241,329.18753 L 198.31898,327.09231 L 201.9692,324.58968 L 205.68577,321.56325 L 209.33598,318.01301 L 212.98619,313.88077 L 216.70277,309.05012 L 220.35298,303.52105 L 224.06957,297.17719 L 227.71978,290.07672 L 231.43636,282.16143 L 235.08657,273.37314 L 238.73678,263.71183 L 242.45336,253.23572 L 246.10357,242.00301 L 249.82014,230.07188 L 253.47035,217.50055 L 257.18693,204.4636 L 260.83714,191.13566 L 264.55373,177.63312 L 268.20394,164.13058 L 271.85415,150.91904 L 275.57072,138.1149 L 279.22093,126.06737 L 282.93752,114.89285 L 286.58773,104.82415 L 290.30431,96.094053 L 293.95452,88.935377 L 297.60473,83.348118 L 301.3213,79.623278 L 304.97152,77.702658 L 308.6881,77.702658 L 312.33831,79.623278 L 316.05488,83.348118 L 319.70509,88.935377 L 323.35531,96.094053 L 327.07189,104.82415 L 330.7221,114.89285 L 334.43868,126.06737 L 338.08889,138.1149 L 341.80546,150.91904 L 345.45568,164.13058 L 349.10589,177.63312 L 352.82247,191.13566 L 356.47268,204.4636 L 360.18925,217.50055 L 363.83947,230.07188 L 367.55606,242.00301 L 371.20627,253.23572 L 374.92284,263.71183 L 378.57305,273.37314 L 382.22326,282.16143 L 385.93984,290.07672 L 389.59005,297.17719 L 393.30663,303.52105 L 396.95684,309.05012 L 400.67341,313.88077 L 404.32363,318.01301 L 407.97384,321.56325 L 411.69043,324.58968 L 415.34064,327.09231 L 419.05721,329.18753 L 422.70742,330.93355 L 426.424,332.38856 L 430.07421,333.55258 L 433.72442,334.48379 L 437.441,335.1822 L 441.09121,335.7642 L 444.80779,336.2298 L 448.458,336.63721 L 452.17459,336.87002 L 455.8248,337.10282 L 459.54137,337.27742 L 463.19158,337.39382 L 466.84179,337.51022 L 470.55838,337.56842 L 474.20859,337.62662 L 477.92516,337.62662 L 481.57537,337.68482 L 485.29195,337.68482 L 488.94216,337.68482" />
  <polygon
     style="color:#008000;fill:currentColor;stroke:none;stroke-width:1;stroke-linecap:butt;stroke-linejoin:miter"
     points="25.6,463.4 25.6,463.4 31.1,463.4 36.7,463.4 42.2,463.4 47.8,463.4 53.3,463.4 58.9,463.4 64.4,463.4 69.9,463.4 75.5,463.4 81,463.4 86.6,463.4 92.1,463.4 97.7,463.4 103.2,463.4 108.8,463.4 114.3,463.4 119.8,454.2 125.4,451.7 130.9,448.7 136.5,445.1 142,440.8 147.6,435.6 153.1,429.5 158.6,422.4 164.2,414.1 169.7,404.6 175.3,393.7 180.8,381.5 186.4,367.9 191.9,352.8 197.4,336.2 203,318.2 208.5,298.9 214.1,278.4 219.6,256.8 225.2,234.4 230.7,211.5 236.3,188.3 241.8,165.1 247.3,142.4 252.9,120.4 258.4,99.7 264,80.5 269.5,63.2 275.1,48.2 280.6,35.9 286.1,26.3 291.7,19.9 297.2,16.6 302.8,463.4 308.3,463.4 313.9,463.4 319.4,463.4 324.9,463.4 330.5,463.4 336,463.4 341.6,463.4 347.1,463.4 352.7,463.4 358.2,463.4 363.7,463.4 369.3,463.4 374.8,463.4 380.4,463.4 385.9,463.4 391.5,463.4 397,463.4 402.6,463.4 408.1,463.4 413.6,463.4 419.2,463.4 424.7,463.4 430.3,463.4 435.8,463.4 441.4,463.4 446.9,463.4 452.4,463.4 458,463.4 463.5,463.4 469.1,463.4 474.6,463.4 480.2,463.4 485.7,463.4 491.2,463.4 496.8,463.4 502.3,463.4 507.9,463.4 513.4,463.4 519,463.4 524.5,463.4 530.1,463.4 535.6,463.4 541.1,463.4 546.7,463.4 552.2,463.4 557.8,463.4 563.3,463.4 568.9,463.4 574.4,463.4 25.6,463.4 "
     id="polygon2444"
     transform="matrix(0.6636747,0,0,0.5820062,107.72738,68.041355)" />
  <path
     style="color:#008000;fill:none;stroke-width:1;stroke-linecap:butt;stroke-linejoin:miter"
     id="path2446"
     d="M 124.71745,337.74302 L 128.36766,337.74302 L 132.08424,337.74302 L 135.73445,337.74302 L 139.45103,337.74302 L 143.10124,337.74302 L 146.81782,337.74302 L 150.46803,337.74302 L 154.11825,337.74302 L 157.83482,337.74302 L 161.48503,337.74302 L 165.20161,337.74302 L 168.85182,337.74302 L 172.5684,337.74302 L 176.21861,337.74302 L 179.93519,337.74302 L 183.5854,337.74302 L 187.23561,332.38856 L 190.95219,330.93355 L 194.60241,329.18753 L 198.31898,327.09231 L 201.9692,324.58968 L 205.68577,321.56325 L 209.33598,318.01301 L 212.98619,313.88077 L 216.70277,309.05012 L 220.35298,303.52105 L 224.06957,297.17719 L 227.71978,290.07672 L 231.43636,282.16143 L 235.08657,273.37314 L 238.73678,263.71183 L 242.45336,253.23572 L 246.10357,242.00301 L 249.82014,230.07188 L 253.47035,217.50055 L 257.18693,204.4636 L 260.83714,191.13566 L 264.55373,177.63312 L 268.20394,164.13058 L 271.85415,150.91904 L 275.57072,138.1149 L 279.22093,126.06737 L 282.93752,114.89285 L 286.58773,104.82415 L 290.30431,96.094053 L 293.95452,88.935377 L 297.60473,83.348118 L 301.3213,79.623278 L 304.97152,77.702658 L 308.6881,337.74302 L 312.33831,337.74302 L 316.05488,337.74302 L 319.70509,337.74302 L 323.35531,337.74302 L 327.07189,337.74302 L 330.7221,337.74302 L 334.43868,337.74302 L 338.08889,337.74302 L 341.80546,337.74302 L 345.45568,337.74302 L 349.10589,337.74302 L 352.82247,337.74302 L 356.47268,337.74302 L 360.18925,337.74302 L 363.83947,337.74302 L 367.55606,337.74302 L 371.20627,337.74302 L 374.92284,337.74302 L 378.57305,337.74302 L 382.22326,337.74302 L 385.93984,337.74302 L 389.59005,337.74302 L 393.30663,337.74302 L 396.95684,337.74302 L 400.67341,337.74302 L 404.32363,337.74302 L 407.97384,337.74302 L 411.69043,337.74302 L 415.34064,337.74302 L 419.05721,337.74302 L 422.70742,337.74302 L 426.424,337.74302 L 430.07421,337.74302 L 433.72442,337.74302 L 437.441,337.74302 L 441.09121,337.74302 L 444.80779,337.74302 L 448.458,337.74302 L 452.17459,337.74302 L 455.8248,337.74302 L 459.54137,337.74302 L 463.19158,337.74302 L 466.84179,337.74302 L 470.55838,337.74302 L 474.20859,337.74302 L 477.92516,337.74302 L 481.57537,337.74302 L 485.29195,337.74302 L 488.94216,337.74302" />
  <g
     style="color:#000000;fill:none;stroke-width:1;stroke-linecap:butt;stroke-linejoin:miter"
     id="g2448"
     transform="matrix(0.6636747,0,0,0.5820062,107.72738,68.041355)" />
  <g
     style="color:#ffffff;fill:none;stroke-width:1;stroke-linecap:butt;stroke-linejoin:miter"
     id="g2514"
     transform="matrix(0.6636747,0,0,0.5820062,543.3349,68.041355)" />
  <g
     style="color:#000000;fill:none;stroke-width:1;stroke-linecap:butt;stroke-linejoin:miter"
     id="g2516"
     transform="matrix(0.6636747,0,0,0.5820062,543.3349,68.041355)" />
  <polygon
     style="color:#ff0000;fill:none;stroke:#000000;stroke-width:4.80000019;stroke-linecap:butt;stroke-linejoin:miter;stroke-miterlimit:4;stroke-dasharray:none;stroke-opacity:1"
     points="25.6,463.3 25.6,463.3 31.1,463.3 36.7,463.3 42.2,463.2 47.8,463.2 53.3,463.1 58.9,463 64.4,462.8 69.9,462.6 75.5,462.3 81,461.9 86.6,461.5 92.1,460.8 97.7,460 103.2,459 108.8,457.8 114.3,456.2 119.8,454.2 125.4,451.7 130.9,448.7 136.5,445.1 142,440.8 147.6,435.6 153.1,429.5 158.6,422.4 164.2,414.1 169.7,404.6 175.3,393.7 180.8,381.5 186.4,367.9 191.9,352.8 197.4,336.2 203,318.2 208.5,298.9 214.1,278.4 219.6,256.8 225.2,234.4 230.7,211.5 236.3,188.3 241.8,165.1 247.3,142.4 252.9,120.4 258.4,99.7 264,80.5 269.5,63.2 275.1,48.2 280.6,35.9 286.1,26.3 291.7,19.9 297.2,16.6 302.8,16.6 308.3,19.9 313.9,26.3 319.4,35.9 324.9,48.2 330.5,63.2 336,80.5 341.6,99.7 347.1,120.4 352.7,142.4 358.2,165.1 363.7,188.3 369.3,211.5 374.8,234.4 380.4,256.8 385.9,278.4 391.5,298.9 397,318.2 402.6,336.2 408.1,352.8 413.6,367.9 419.2,381.5 424.7,393.7 430.3,404.6 435.8,414.1 441.4,422.4 446.9,429.5 452.4,435.6 458,440.8 463.5,445.1 469.1,448.7 474.6,451.7 480.2,454.2 485.7,456.2 491.2,457.8 496.8,459 502.3,460 507.9,460.8 513.4,461.5 519,461.9 524.5,462.3 530.1,462.6 535.6,462.8 541.1,463 546.7,463.1 552.2,463.2 557.8,463.2 563.3,463.3 568.9,463.3 574.4,463.3 25.6,463.3 "
     id="polygon2522"
     transform="matrix(0.6636747,0,0,0.5820062,543.3349,68.041355)" />
  <path
     style="color:#ff0000;fill:none;stroke-width:1;stroke-linecap:butt;stroke-linejoin:miter"
     id="path2524"
     d="M 560.32498,337.68482 L 563.97519,337.68482 L 567.69176,337.68482 L 571.34197,337.62662 L 575.05856,337.62662 L 578.70877,337.56842 L 582.42534,337.51022 L 586.07555,337.39382 L 589.72576,337.27742 L 593.44235,337.10282 L 597.09256,336.87002 L 600.80914,336.63721 L 604.45935,336.2298 L 608.17592,335.7642 L 611.82614,335.1822 L 615.54272,334.48379 L 619.19293,333.55258 L 622.84314,332.38856 L 626.55972,330.93355 L 630.20992,329.18753 L 633.92651,327.09231 L 637.57672,324.58968 L 641.2933,321.56325 L 644.94351,318.01301 L 648.59372,313.88077 L 652.3103,309.05012 L 655.96051,303.52105 L 659.67709,297.17719 L 663.3273,290.07672 L 667.04388,282.16143 L 670.69409,273.37314 L 674.3443,263.71183 L 678.06088,253.23572 L 681.71109,242.00301 L 685.42767,230.07188 L 689.07788,217.50055 L 692.79446,204.4636 L 696.44467,191.13566 L 700.16125,177.63312 L 703.81146,164.13058 L 707.46167,150.91904 L 711.17825,138.1149 L 714.82846,126.06737 L 718.54504,114.89285 L 722.19525,104.82415 L 725.91183,96.094053 L 729.56204,88.935377 L 733.21226,83.348118 L 736.92883,79.623278 L 740.57904,77.702658 L 744.29562,77.702658 L 747.94583,79.623278 L 751.66242,83.348118 L 755.31263,88.935377 L 758.96284,96.094053 L 762.67942,104.82415 L 766.32963,114.89285 L 770.04621,126.06737 L 773.69642,138.1149 L 777.413,150.91904 L 781.06321,164.13058 L 784.71342,177.63312 L 788.43,191.13566 L 792.08021,204.4636 L 795.79679,217.50055 L 799.447,230.07188 L 803.16358,242.00301 L 806.81379,253.23572 L 810.53037,263.71183 L 814.18058,273.37314 L 817.8308,282.16143 L 821.54737,290.07672 L 825.19758,297.17719 L 828.91416,303.52105 L 832.56437,309.05012 L 836.28096,313.88077 L 839.93117,318.01301 L 843.58138,321.56325 L 847.29795,324.58968 L 850.94816,327.09231 L 854.66474,329.18753 L 858.31496,330.93355 L 862.03153,332.38856 L 865.68174,333.55258 L 869.33195,334.48379 L 873.04853,335.1822 L 876.69875,335.7642 L 880.41533,336.2298 L 884.06554,336.63721 L 887.78211,336.87002 L 891.43232,337.10282 L 895.1489,337.27742 L 898.79912,337.39382 L 902.44933,337.51022 L 906.16591,337.56842 L 909.81611,337.62662 L 913.53269,337.62662 L 917.18291,337.68482 L 920.89949,337.68482 L 924.5497,337.68482" />
  <polygon
     style="color:#008000;fill:currentColor;stroke:none;stroke-width:1;stroke-linecap:butt;stroke-linejoin:miter"
     points="25.6,463.4 25.6,463.4 31.1,463.4 36.7,463.4 42.2,463.4 47.8,463.4 53.3,463.4 58.9,463.4 64.4,463.4 69.9,463.4 75.5,463.4 81,463.4 86.6,463.4 92.1,463.4 97.7,463.4 103.2,463.4 108.8,463.4 114.3,463.4 119.8,463.4 125.4,463.4 130.9,463.4 136.5,463.4 142,463.4 147.6,463.4 153.1,463.4 158.6,463.4 164.2,463.4 169.7,463.4 175.3,463.4 180.8,463.4 186.4,463.4 191.9,463.4 197.4,463.4 203,463.4 208.5,463.4 214.1,278.4 219.6,256.8 225.2,234.4 230.7,211.5 236.3,188.3 241.8,165.1 247.3,142.4 252.9,120.4 258.4,99.7 264,80.5 269.5,63.2 275.1,48.2 280.6,35.9 286.1,26.3 291.7,19.9 297.2,16.6 302.8,16.6 308.3,19.9 313.9,26.3 319.4,35.9 324.9,48.2 330.5,63.2 336,80.5 341.6,99.7 347.1,120.4 352.7,142.4 358.2,165.1 363.7,188.3 369.3,211.5 374.8,234.4 380.4,256.8 385.9,278.4 391.5,463.4 397,463.4 402.6,463.4 408.1,463.4 413.6,463.4 419.2,463.4 424.7,463.4 430.3,463.4 435.8,463.4 441.4,463.4 446.9,463.4 452.4,463.4 458,463.4 463.5,463.4 469.1,463.4 474.6,463.4 480.2,463.4 485.7,463.4 491.2,463.4 496.8,463.4 502.3,463.4 507.9,463.4 513.4,463.4 519,463.4 524.5,463.4 530.1,463.4 535.6,463.4 541.1,463.4 546.7,463.4 552.2,463.4 557.8,463.4 563.3,463.4 568.9,463.4 574.4,463.4 25.6,463.4 "
     id="polygon2530"
     transform="matrix(0.6636747,0,0,0.5820062,543.3349,68.041355)" />
  <path
     style="color:#008000;fill:none;stroke-width:1;stroke-linecap:butt;stroke-linejoin:miter"
     id="path2532"
     d="M 560.32498,337.74302 L 563.97519,337.74302 L 567.69176,337.74302 L 571.34197,337.74302 L 575.05856,337.74302 L 578.70877,337.74302 L 582.42534,337.74302 L 586.07555,337.74302 L 589.72576,337.74302 L 593.44235,337.74302 L 597.09256,337.74302 L 600.80914,337.74302 L 604.45935,337.74302 L 608.17592,337.74302 L 611.82614,337.74302 L 615.54272,337.74302 L 619.19293,337.74302 L 622.84314,337.74302 L 626.55972,337.74302 L 630.20992,337.74302 L 633.92651,337.74302 L 637.57672,337.74302 L 641.2933,337.74302 L 644.94351,337.74302 L 648.59372,337.74302 L 652.3103,337.74302 L 655.96051,337.74302 L 659.67709,337.74302 L 663.3273,337.74302 L 667.04388,337.74302 L 670.69409,337.74302 L 674.3443,337.74302 L 678.06088,337.74302 L 681.71109,337.74302 L 685.42767,230.07188 L 689.07788,217.50055 L 692.79446,204.4636 L 696.44467,191.13566 L 700.16125,177.63312 L 703.81146,164.13058 L 707.46167,150.91904 L 711.17825,138.1149 L 714.82846,126.06737 L 718.54504,114.89285 L 722.19525,104.82415 L 725.91183,96.094053 L 729.56204,88.935377 L 733.21226,83.348118 L 736.92883,79.623278 L 740.57904,77.702658 L 744.29562,77.702658 L 747.94583,79.623278 L 751.66242,83.348118 L 755.31263,88.935377 L 758.96284,96.094053 L 762.67942,104.82415 L 766.32963,114.89285 L 770.04621,126.06737 L 773.69642,138.1149 L 777.413,150.91904 L 781.06321,164.13058 L 784.71342,177.63312 L 788.43,191.13566 L 792.08021,204.4636 L 795.79679,217.50055 L 799.447,230.07188 L 803.16358,337.74302 L 806.81379,337.74302 L 810.53037,337.74302 L 814.18058,337.74302 L 817.8308,337.74302 L 821.54737,337.74302 L 825.19758,337.74302 L 828.91416,337.74302 L 832.56437,337.74302 L 836.28096,337.74302 L 839.93117,337.74302 L 843.58138,337.74302 L 847.29795,337.74302 L 850.94816,337.74302 L 854.66474,337.74302 L 858.31496,337.74302 L 862.03153,337.74302 L 865.68174,337.74302 L 869.33195,337.74302 L 873.04853,337.74302 L 876.69875,337.74302 L 880.41533,337.74302 L 884.06554,337.74302 L 887.78211,337.74302 L 891.43232,337.74302 L 895.1489,337.74302 L 898.79912,337.74302 L 902.44933,337.74302 L 906.16591,337.74302 L 909.81611,337.74302 L 913.53269,337.74302 L 917.18291,337.74302 L 920.89949,337.74302 L 924.5497,337.74302" />
  <g
     style="color:#000000;fill:none;stroke-width:1;stroke-linecap:butt;stroke-linejoin:miter"
     id="g2534"
     transform="matrix(0.6636747,0,0,0.5820062,543.3349,68.041355)" />
  <path
     style="fill:none;fill-opacity:0.75;fill-rule:evenodd;stroke:#000000;stroke-width:7.2;stroke-linecap:butt;stroke-linejoin:miter;stroke-opacity:1;stroke-miterlimit:4;stroke-dasharray:none;marker-start:url(#Arrow2Mstart);marker-end:url(#Arrow2Mend)"
     d="M -315.83578,373.02053 L -200.41056,373.02053"
     id="path3606"
     sodipodi:nodetypes="cc" />
  <text
     xml:space="preserve"
     style="font-size:57.59999847px;font-style:normal;font-variant:normal;font-weight:normal;font-stretch:normal;text-align:center;line-height:100%;writing-mode:lr-tb;text-anchor:middle;fill:#000000;fill-opacity:1;stroke:none;stroke-width:1pt;stroke-linecap:butt;stroke-linejoin:miter;stroke-opacity:1;font-family:Bitstream Vera Sans"
     x="-239.82404"
     y="446.21701"
     id="text4783"
     sodipodi:linespacing="100%"><tspan
       sodipodi:role="line"
       id="tspan4785"
       x="-239.82404"
       y="446.21701">2 單位寬</tspan></text>
  <use
     x="0"
     y="0"
     xlink:href="#path3606"
     id="use4793"
     transform="translate(503.92962,0)"
     width="600"
     height="480" />
  <use
     x="0"
     y="0"
     xlink:href="#text4783"
     id="use4795"
     transform="translate(498.29912,0)"
     width="600"
     height="480" />
  <use
     x="0"
     y="0"
     xlink:href="#path3606"
     id="use4799"
     transform="translate(1005.044,2.8152492)"
     width="600"
     height="480" />
  <use
     x="0"
     y="0"
     xlink:href="#text4783"
     id="use4801"
     transform="translate(996.59824,5.6304985)"
     width="600"
     height="480" />
  <text
     xml:space="preserve"
     style="font-size:57.6px;font-style:normal;font-variant:normal;font-weight:normal;font-stretch:normal;text-align:center;line-height:100%;writing-mode:lr;text-anchor:middle;fill:#000000;fill-opacity:1;stroke:none;stroke-width:1pt;stroke-linecap:butt;stroke-linejoin:miter;stroke-opacity:1;font-family:Bitstream Vera Sans"
     x="-265.16129"
     y="190.02933"
     id="text2263"
     sodipodi:linespacing="100%"><tspan
       sodipodi:role="line"
       id="tspan2265"
       x="-265.16128"
       y="190.02933">A</tspan></text>
  <text
     xml:space="preserve"
     style="font-size:57.6px;font-style:normal;font-variant:normal;font-weight:normal;font-stretch:normal;text-align:center;line-height:100%;writing-mode:lr;text-anchor:middle;fill:#000000;fill-opacity:1;stroke:none;stroke-width:1pt;stroke-linecap:butt;stroke-linejoin:miter;stroke-opacity:1;font-family:Bitstream Vera Sans"
     x="168.3871"
     y="178.76833"
     id="text2267"
     sodipodi:linespacing="100%"><tspan
       sodipodi:role="line"
       id="tspan2269"
       x="168.3871"
       y="178.76833">B</tspan></text>
  <text
     xml:space="preserve"
     style="font-size:57.6px;font-style:normal;font-variant:normal;font-weight:normal;font-stretch:normal;text-align:center;line-height:100%;writing-mode:lr;text-anchor:middle;fill:#000000;fill-opacity:1;stroke:none;stroke-width:1pt;stroke-linecap:butt;stroke-linejoin:miter;stroke-opacity:1;font-family:Bitstream Vera Sans"
     x="596.30499"
     y="178.76833"
     id="text2271"
     sodipodi:linespacing="100%"><tspan
       sodipodi:role="line"
       id="tspan2273"
       x="596.30499"
       y="178.76833">C</tspan></text>
</svg>
