<?xml version="1.0" encoding="UTF-8" standalone="no"?>
<svg
   xmlns:dc="http://purl.org/dc/elements/1.1/"
   xmlns:cc="http://creativecommons.org/ns#"
   xmlns:rdf="http://www.w3.org/1999/02/22-rdf-syntax-ns#"
   xmlns:svg="http://www.w3.org/2000/svg"
   xmlns="http://www.w3.org/2000/svg"
   xmlns:xlink="http://www.w3.org/1999/xlink"
   xmlns:sodipodi="http://sodipodi.sourceforge.net/DTD/sodipodi-0.dtd"
   xmlns:inkscape="http://www.inkscape.org/namespaces/inkscape"
   width="800"
   height="600"
   viewBox="0 0 211.66666 158.75"
   version="1.1"
   id="svg8"
   inkscape:version="1.0.2 (e86c870879, 2021-01-15)"
   sodipodi:docname="fs-persist.svg"
   inkscape:export-filename="/home/ckhung/git/ckhung.github.io/a/m/23/antix/fs-persist.png"
   inkscape:export-xdpi="96"
   inkscape:export-ydpi="96">
  <defs
     id="defs2">
    <marker
       style="overflow:visible;"
       id="Arrow1Lend"
       refX="0.0"
       refY="0.0"
       orient="auto"
       inkscape:stockid="Arrow1Lend"
       inkscape:isstock="true">
      <path
         transform="scale(0.8) rotate(180) translate(12.5,0)"
         style="fill-rule:evenodd;stroke:#000000;stroke-width:1pt;stroke-opacity:1;fill:#000000;fill-opacity:1"
         d="M 0.0,0.0 L 5.0,-5.0 L -12.5,0.0 L 5.0,5.0 L 0.0,0.0 z "
         id="path1137" />
    </marker>
    <marker
       style="overflow:visible"
       id="Arrow1Lend-3"
       refX="0"
       refY="0"
       orient="auto"
       inkscape:stockid="Arrow1Lend"
       inkscape:isstock="true">
      <path
         transform="matrix(-0.8,0,0,-0.8,-10,0)"
         style="fill:#000000;fill-opacity:1;fill-rule:evenodd;stroke:#000000;stroke-width:1pt;stroke-opacity:1"
         d="M 0,0 5,-5 -12.5,0 5,5 Z"
         id="path1137-6" />
    </marker>
    <marker
       style="overflow:visible"
       id="Arrow1Lend-3-3"
       refX="0"
       refY="0"
       orient="auto"
       inkscape:stockid="Arrow1Lend"
       inkscape:isstock="true">
      <path
         transform="matrix(-0.8,0,0,-0.8,-10,0)"
         style="fill:#000000;fill-opacity:1;fill-rule:evenodd;stroke:#000000;stroke-width:1pt;stroke-opacity:1"
         d="M 0,0 5,-5 -12.5,0 5,5 Z"
         id="path1137-6-6" />
    </marker>
    <marker
       style="overflow:visible"
       id="marker980"
       refX="0"
       refY="0"
       orient="auto"
       inkscape:stockid="Arrow1Lend"
       inkscape:isstock="true">
      <path
         transform="matrix(-0.8,0,0,-0.8,-10,0)"
         style="fill:#000000;fill-opacity:1;fill-rule:evenodd;stroke:#000000;stroke-width:1pt;stroke-opacity:1"
         d="M 0,0 5,-5 -12.5,0 5,5 Z"
         id="path978" />
    </marker>
    <marker
       style="overflow:visible"
       id="marker984"
       refX="0"
       refY="0"
       orient="auto"
       inkscape:stockid="Arrow1Lend"
       inkscape:isstock="true">
      <path
         transform="matrix(-0.8,0,0,-0.8,-10,0)"
         style="fill:#000000;fill-opacity:1;fill-rule:evenodd;stroke:#000000;stroke-width:1pt;stroke-opacity:1"
         d="M 0,0 5,-5 -12.5,0 5,5 Z"
         id="path982" />
    </marker>
    <marker
       style="overflow:visible"
       id="marker988"
       refX="0"
       refY="0"
       orient="auto"
       inkscape:stockid="Arrow1Lend"
       inkscape:isstock="true">
      <path
         transform="matrix(-0.8,0,0,-0.8,-10,0)"
         style="fill:#000000;fill-opacity:1;fill-rule:evenodd;stroke:#000000;stroke-width:1pt;stroke-opacity:1"
         d="M 0,0 5,-5 -12.5,0 5,5 Z"
         id="path986" />
    </marker>
    <marker
       style="overflow:visible"
       id="marker992"
       refX="0"
       refY="0"
       orient="auto"
       inkscape:stockid="Arrow1Lend"
       inkscape:isstock="true">
      <path
         transform="matrix(-0.8,0,0,-0.8,-10,0)"
         style="fill:#000000;fill-opacity:1;fill-rule:evenodd;stroke:#000000;stroke-width:1pt;stroke-opacity:1"
         d="M 0,0 5,-5 -12.5,0 5,5 Z"
         id="path990" />
    </marker>
    <marker
       style="overflow:visible"
       id="Arrow1Lend-3-7"
       refX="0"
       refY="0"
       orient="auto"
       inkscape:stockid="Arrow1Lend"
       inkscape:isstock="true">
      <path
         transform="matrix(-0.8,0,0,-0.8,-10,0)"
         style="fill:#000000;fill-opacity:1;fill-rule:evenodd;stroke:#000000;stroke-width:1pt;stroke-opacity:1"
         d="M 0,0 5,-5 -12.5,0 5,5 Z"
         id="path1137-6-5" />
    </marker>
    <marker
       style="overflow:visible"
       id="marker1190"
       refX="0"
       refY="0"
       orient="auto"
       inkscape:stockid="Arrow1Lend"
       inkscape:isstock="true">
      <path
         transform="matrix(-0.8,0,0,-0.8,-10,0)"
         style="fill:#000000;fill-opacity:1;fill-rule:evenodd;stroke:#000000;stroke-width:1pt;stroke-opacity:1"
         d="M 0,0 5,-5 -12.5,0 5,5 Z"
         id="path1188" />
    </marker>
    <marker
       style="overflow:visible"
       id="marker1194"
       refX="0"
       refY="0"
       orient="auto"
       inkscape:stockid="Arrow1Lend"
       inkscape:isstock="true">
      <path
         transform="matrix(-0.8,0,0,-0.8,-10,0)"
         style="fill:#000000;fill-opacity:1;fill-rule:evenodd;stroke:#000000;stroke-width:1pt;stroke-opacity:1"
         d="M 0,0 5,-5 -12.5,0 5,5 Z"
         id="path1192" />
    </marker>
    <marker
       style="overflow:visible"
       id="marker1198"
       refX="0"
       refY="0"
       orient="auto"
       inkscape:stockid="Arrow1Lend"
       inkscape:isstock="true">
      <path
         transform="matrix(-0.8,0,0,-0.8,-10,0)"
         style="fill:#000000;fill-opacity:1;fill-rule:evenodd;stroke:#000000;stroke-width:1pt;stroke-opacity:1"
         d="M 0,0 5,-5 -12.5,0 5,5 Z"
         id="path1196" />
    </marker>
    <marker
       style="overflow:visible"
       id="marker1202"
       refX="0"
       refY="0"
       orient="auto"
       inkscape:stockid="Arrow1Lend"
       inkscape:isstock="true">
      <path
         transform="matrix(-0.8,0,0,-0.8,-10,0)"
         style="fill:#000000;fill-opacity:1;fill-rule:evenodd;stroke:#000000;stroke-width:1pt;stroke-opacity:1"
         d="M 0,0 5,-5 -12.5,0 5,5 Z"
         id="path1200" />
    </marker>
  </defs>
  <sodipodi:namedview
     id="base"
     pagecolor="#ffffff"
     bordercolor="#666666"
     borderopacity="1.0"
     inkscape:pageopacity="1"
     inkscape:pageshadow="2"
     inkscape:zoom="1.3383333"
     inkscape:cx="400.7472"
     inkscape:cy="240.22416"
     inkscape:document-units="px"
     inkscape:current-layer="g1404"
     inkscape:document-rotation="0"
     showgrid="false"
     units="px"
     inkscape:window-width="1920"
     inkscape:window-height="1009"
     inkscape:window-x="0"
     inkscape:window-y="0"
     inkscape:window-maximized="1" />
  <metadata
     id="metadata5">
    <rdf:RDF>
      <cc:Work
         rdf:about="">
        <dc:format>image/svg+xml</dc:format>
        <dc:type
           rdf:resource="http://purl.org/dc/dcmitype/StillImage" />
        <dc:title />
      </cc:Work>
    </rdf:RDF>
  </metadata>
  <g
     inkscape:label="Layer 1"
     inkscape:groupmode="layer"
     id="layer1">
    <g
       id="g1599"
       transform="translate(-2.4153306,25.439222)">
      <rect
         style="fill:none;stroke:#000000;stroke-width:0.154083;stroke-opacity:1;stop-color:#000000"
         id="rect10"
         width="34.630283"
         height="16.887415"
         x="9.6427622"
         y="21.342054" />
      <use
         x="0"
         y="0"
         xlink:href="#rect10"
         id="use851"
         transform="translate(0,16.887417)"
         width="100%"
         height="100%" />
      <text
         xml:space="preserve"
         style="font-size:5.64444px;line-height:1.25;font-family:'AR PL UKai TW MBE';-inkscape-font-specification:'AR PL UKai TW MBE, Normal';letter-spacing:0px;word-spacing:0px;fill:#0000ff;stroke-width:0.264583"
         x="18.187954"
         y="31.63629"
         id="text855"><tspan
           sodipodi:role="line"
           id="tspan853"
           x="18.187954"
           y="31.63629"
           style="fill:#0000ff;stroke-width:0.264583">tmpfs</tspan></text>
      <text
         xml:space="preserve"
         style="font-size:5.64444px;line-height:1.25;font-family:'AR PL UKai TW MBE';-inkscape-font-specification:'AR PL UKai TW MBE, Normal';letter-spacing:0px;word-spacing:0px;stroke-width:0.264583"
         x="16.809568"
         y="15.011394"
         id="text865"><tspan
           sodipodi:role="line"
           id="tspan863"
           x="16.809568"
           y="15.011394"
           style="stroke-width:0.264583">live CD</tspan></text>
      <g
         id="g1114"
         transform="translate(2.3373833,-22.175987)">
        <g
           id="g1494"
           transform="translate(-6.6725826,2.2763352)">
          <text
             xml:space="preserve"
             style="font-size:5.64444px;line-height:1.25;font-family:'AR PL UKai TW MBE';-inkscape-font-specification:'AR PL UKai TW MBE, Normal';letter-spacing:0px;word-spacing:0px;fill:#008000;stroke-width:0.264583"
             x="11.08799"
             y="45.084518"
             id="text859"
             transform="translate(4.2572521,23.162887)"><tspan
               sodipodi:role="line"
               x="11.08799"
               y="45.084518"
               style="fill:#008000;stroke-width:0.264583"
               id="tspan861">squashfs</tspan></text>
          <use
             x="0"
             y="0"
             xlink:href="#g1070"
             id="use1468"
             transform="translate(-126.0032,-33.255319)"
             width="100%"
             height="100%" />
        </g>
      </g>
    </g>
    <g
       id="g1610"
       transform="translate(-2.7549806,11.025879)">
      <use
         x="0"
         y="0"
         xlink:href="#rect10"
         id="use867"
         transform="translate(1.1716223,80.248898)"
         width="100%"
         height="100%" />
      <use
         x="0"
         y="0"
         xlink:href="#rect10"
         id="use869"
         transform="translate(1.1716223,97.136314)"
         width="100%"
         height="100%" />
      <text
         xml:space="preserve"
         style="font-size:5.64444px;line-height:1.25;font-family:'AR PL UKai TW MBE';-inkscape-font-specification:'AR PL UKai TW MBE, Normal';letter-spacing:0px;word-spacing:0px;fill:#0000ff;stroke-width:0.264583"
         x="19.493595"
         y="111.30055"
         id="text855-6"><tspan
           sodipodi:role="line"
           id="tspan853-7"
           x="19.493595"
           y="111.30055"
           style="fill:#0000ff;stroke-width:0.264583">tmpfs</tspan></text>
      <text
         xml:space="preserve"
         style="font-size:5.64444px;line-height:1.25;font-family:'AR PL UKai TW MBE';-inkscape-font-specification:'AR PL UKai TW MBE, Normal';letter-spacing:0px;word-spacing:0px;stroke-width:0.264583"
         x="18.899275"
         y="94.278511"
         id="text865-6"><tspan
           sodipodi:role="line"
           id="tspan863-2"
           x="18.899275"
           y="94.278511"
           style="stroke-width:0.264583">frugal</tspan></text>
      <g
         id="g1273">
        <text
           xml:space="preserve"
           style="font-size:5.64444px;line-height:1.25;font-family:'AR PL UKai TW MBE';-inkscape-font-specification:'AR PL UKai TW MBE, Normal';letter-spacing:0px;word-spacing:0px;stroke-width:0.264583"
           x="12.797186"
           y="129.69667"
           id="text859-5"><tspan
             sodipodi:role="line"
             x="12.797186"
             y="129.69667"
             style="fill:#ff0000;stroke-width:0.264583"
             id="tspan861-5">squashfs</tspan></text>
        <g
           style="fill:#000000"
           id="use1247"
           transform="matrix(0.01386964,0,0,0.01386964,36.351559,124.95436)">
          <g
             id="g1373">
            <g
               id="g1371">
              <path
                 d="m 452.608,92.3 -93.882,93.882 h 36.911 c 12.87,0 23.273,10.426 23.273,23.273 0,12.847 -10.403,23.273 -23.273,23.273 h -93.091 c -3.025,0 -6.051,-0.628 -8.89,-1.792 -5.702,-2.351 -10.24,-6.889 -12.591,-12.591 -1.187,-2.839 -1.792,-5.865 -1.792,-8.89 v -93.091 c 0,-12.847 10.403,-23.273 23.273,-23.273 12.87,0 23.273,10.426 23.273,23.273 v 36.911 L 419.7,59.392 C 375.273,22.365 318.208,0 256,0 114.851,0 0,114.851 0,256 0,318.208 22.342,375.273 59.392,419.7 l 93.882,-93.882 h -36.911 c -12.87,0 -23.273,-10.426 -23.273,-23.273 0,-12.847 10.403,-23.273 23.273,-23.273 h 93.091 c 3.025,0 6.051,0.628 8.89,1.792 5.702,2.351 10.24,6.889 12.591,12.591 1.164,2.839 1.792,5.865 1.792,8.89 v 93.091 c 0,12.847 -10.403,23.273 -23.273,23.273 -12.87,0 -23.273,-10.426 -23.273,-23.273 V 358.725 L 92.3,452.608 C 136.704,489.635 193.792,512 256,512 397.149,512 512,397.149 512,256 512,193.792 489.635,136.727 452.608,92.3 Z"
                 id="path1369" />
            </g>
          </g>
        </g>
      </g>
    </g>
    <g
       id="g1588"
       transform="translate(4.5380824,24.663262)">
      <use
         x="0"
         y="0"
         xlink:href="#rect10"
         id="use867-9"
         transform="translate(50.089333,0.77596074)"
         width="100%"
         height="100%" />
      <use
         x="0"
         y="0"
         xlink:href="#rect10"
         id="use869-1"
         transform="translate(50.089333,17.663377)"
         width="100%"
         height="100%" />
      <text
         xml:space="preserve"
         style="font-size:5.64444px;line-height:1.25;font-family:'AR PL UKai TW MBE';-inkscape-font-specification:'AR PL UKai TW MBE, Normal';letter-spacing:0px;word-spacing:0px;fill:#ff0000;stroke-width:0.264583"
         x="65.480461"
         y="32.693485"
         id="text855-6-2"><tspan
           sodipodi:role="line"
           id="tspan853-7-7"
           x="65.480461"
           y="32.693485"
           style="fill:#ff0000;stroke-width:0.264583">&quot;rootfs&quot;</tspan></text>
      <text
         xml:space="preserve"
         style="font-size:5.64444px;line-height:1.25;font-family:'AR PL UKai TW MBE';-inkscape-font-specification:'AR PL UKai TW MBE, Normal';letter-spacing:0px;word-spacing:0px;stroke-width:0.264583"
         x="61.414066"
         y="11.766275"
         id="text865-6-6"><tspan
           sodipodi:role="line"
           id="tspan863-2-0"
           x="61.414066"
           y="11.766275"
           style="stroke-width:0.264583">static</tspan><tspan
           sodipodi:role="line"
           x="61.414066"
           y="18.821825"
           style="stroke-width:0.264583"
           id="tspan999">persistence</tspan></text>
      <g
         id="use1514"
         transform="translate(52.73386,-21.735532)">
        <g
           id="g1046"
           transform="translate(-6.6725826,2.2763352)">
          <text
             xml:space="preserve"
             style="font-size:5.64444px;line-height:1.25;font-family:'AR PL UKai TW MBE';-inkscape-font-specification:'AR PL UKai TW MBE, Normal';letter-spacing:0px;word-spacing:0px;fill:#008000;stroke-width:0.264583"
             x="11.08799"
             y="45.084518"
             id="text1042"
             transform="translate(4.2572521,23.162887)"><tspan
               sodipodi:role="line"
               x="11.08799"
               y="45.084518"
               style="fill:#008000;stroke-width:0.264583"
               id="tspan1040">squashfs</tspan></text>
          <use
             x="0"
             y="0"
             xlink:href="#g1070"
             id="use1044"
             transform="translate(-126.0032,-33.255319)"
             width="100%"
             height="100%" />
        </g>
      </g>
    </g>
    <g
       id="g1622"
       transform="translate(3.6856184,10.882928)">
      <use
         x="0"
         y="0"
         xlink:href="#rect10"
         id="use867-9-6"
         transform="translate(50.660851,80.391848)"
         width="100%"
         height="100%" />
      <use
         x="0"
         y="0"
         xlink:href="#rect10"
         id="use869-1-2"
         transform="translate(50.660851,97.279265)"
         width="100%"
         height="100%" />
      <text
         xml:space="preserve"
         style="font-size:5.64444px;line-height:1.25;font-family:'AR PL UKai TW MBE';-inkscape-font-specification:'AR PL UKai TW MBE, Normal';letter-spacing:0px;word-spacing:0px;fill:#ff0000;stroke-width:0.264583"
         x="66.530716"
         y="112.61174"
         id="text855-6-2-6"><tspan
           sodipodi:role="line"
           id="tspan853-7-7-1"
           x="66.530716"
           y="112.61174"
           style="fill:#ff0000;stroke-width:0.264583">&quot;rootfs&quot;</tspan></text>
      <text
         xml:space="preserve"
         style="font-size:5.64444px;line-height:1.25;font-family:'AR PL UKai TW MBE';-inkscape-font-specification:'AR PL UKai TW MBE, Normal';letter-spacing:0px;word-spacing:0px;stroke-width:0.264583"
         x="61.985584"
         y="91.382164"
         id="text865-6-6-2"><tspan
           sodipodi:role="line"
           id="tspan863-2-0-0"
           x="61.985584"
           y="91.382164"
           style="stroke-width:0.264583">frugal static</tspan><tspan
           sodipodi:role="line"
           x="61.985584"
           y="98.437714"
           style="stroke-width:0.264583"
           id="tspan999-2">persistence</tspan></text>
      <use
         x="0"
         y="0"
         xlink:href="#g1273"
         id="use1275"
         transform="translate(49.075105,-0.19972636)"
         width="100%"
         height="100%" />
    </g>
    <g
       id="g1644"
       transform="translate(7.0067304,10.304872)">
      <use
         x="0"
         y="0"
         xlink:href="#rect10"
         id="use867-3"
         transform="translate(103.26957,80.969908)"
         width="100%"
         height="100%" />
      <use
         x="0"
         y="0"
         xlink:href="#rect10"
         id="use869-7"
         transform="translate(103.26957,97.857321)"
         width="100%"
         height="100%" />
      <text
         xml:space="preserve"
         style="font-size:5.64444px;line-height:1.25;font-family:'AR PL UKai TW MBE';-inkscape-font-specification:'AR PL UKai TW MBE, Normal';letter-spacing:0px;word-spacing:0px;fill:#0000ff;stroke-width:0.264583"
         x="118.30733"
         y="112.4062"
         id="text855-6-5"><tspan
           sodipodi:role="line"
           id="tspan853-7-9"
           x="118.30733"
           y="112.4062"
           style="fill:#0000ff;stroke-width:0.264583">tmpfs</tspan></text>
      <text
         xml:space="preserve"
         style="font-size:5.64444px;line-height:1.25;font-family:'AR PL UKai TW MBE';-inkscape-font-specification:'AR PL UKai TW MBE, Normal';letter-spacing:0px;word-spacing:0px;stroke-width:0.264583"
         x="114.45161"
         y="91.207909"
         id="text865-6-9"><tspan
           sodipodi:role="line"
           id="tspan863-2-7"
           x="114.45161"
           y="91.207909"
           style="stroke-width:0.264583">frugal root</tspan><tspan
           sodipodi:role="line"
           x="114.45161"
           y="98.263458"
           style="stroke-width:0.264583"
           id="tspan1128">persistence</tspan></text>
      <use
         x="0"
         y="0"
         xlink:href="#rect10"
         id="use1130"
         transform="translate(141.25825,89.459922)"
         width="100%"
         height="100%" />
      <text
         xml:space="preserve"
         style="font-size:5.64444px;line-height:1.25;font-family:'AR PL UKai TW MBE';-inkscape-font-specification:'AR PL UKai TW MBE, Normal';letter-spacing:0px;word-spacing:0px;fill:#ff0000;stroke-width:0.264583"
         x="161.28203"
         y="121.85383"
         id="text1700-1"><tspan
           sodipodi:role="line"
           id="tspan1698-0"
           x="161.28203"
           y="121.85383"
           style="fill:#ff0000;stroke-width:0.264583">&quot;rootfs&quot;</tspan></text>
      <use
         x="0"
         y="0"
         xlink:href="#g952"
         id="use1176"
         transform="translate(-14.510387,74.040161)"
         width="100%"
         height="100%" />
      <use
         x="0"
         y="0"
         xlink:href="#g1273"
         id="use1301"
         transform="translate(102.18871,0.3645742)"
         width="100%"
         height="100%" />
    </g>
    <g
       id="g1564"
       transform="translate(-4.5842309,20.073037)">
      <use
         x="0"
         y="0"
         xlink:href="#rect10"
         id="use867-3-1"
         transform="translate(116.25439,5.3661883)"
         width="100%"
         height="100%" />
      <use
         x="0"
         y="0"
         xlink:href="#rect10"
         id="use869-7-2"
         transform="translate(116.25439,22.253602)"
         width="100%"
         height="100%" />
      <text
         xml:space="preserve"
         style="font-size:5.64444px;line-height:1.25;font-family:'AR PL UKai TW MBE';-inkscape-font-specification:'AR PL UKai TW MBE, Normal';letter-spacing:0px;word-spacing:0px;fill:#0000ff;stroke-width:0.264583"
         x="133.58606"
         y="36.776951"
         id="text855-6-5-9"><tspan
           sodipodi:role="line"
           id="tspan853-7-9-3"
           x="133.58606"
           y="36.776951"
           style="fill:#0000ff;stroke-width:0.264583">tmpfs</tspan></text>
      <text
         xml:space="preserve"
         style="font-size:5.64444px;line-height:1.25;font-family:'AR PL UKai TW MBE';-inkscape-font-specification:'AR PL UKai TW MBE, Normal';letter-spacing:0px;word-spacing:0px;stroke-width:0.264583"
         x="127.43642"
         y="15.60419"
         id="text865-6-9-7"><tspan
           sodipodi:role="line"
           id="tspan863-2-7-8"
           x="127.43642"
           y="15.60419"
           style="stroke-width:0.264583">root</tspan><tspan
           sodipodi:role="line"
           x="127.43642"
           y="22.65974"
           style="stroke-width:0.264583"
           id="tspan1128-4">persistence</tspan></text>
      <use
         x="0"
         y="0"
         xlink:href="#rect10"
         id="use1130-5"
         transform="translate(154.24308,13.856203)"
         width="100%"
         height="100%" />
      <g
         id="g952">
        <path
           style="fill:none;stroke:#000000;stroke-width:0.264583;stroke-linecap:butt;stroke-linejoin:miter;stroke-miterlimit:4;stroke-dasharray:none;stroke-opacity:1;marker-end:url(#Arrow1Lend-3)"
           d="m 155.68496,35.444003 13.77354,7.82846"
           id="path1132-0"
           sodipodi:nodetypes="cc" />
        <use
           x="0"
           y="0"
           xlink:href="#path1132-0"
           id="use942"
           transform="rotate(180,163.05491,38.558517)"
           width="100%"
           height="100%" />
        <text
           xml:space="preserve"
           style="font-size:5.64444px;line-height:1.25;font-family:'AR PL UKai TW MBE';-inkscape-font-specification:'AR PL UKai TW MBE, Normal';text-align:center;letter-spacing:0px;word-spacing:0px;text-anchor:middle;stroke-width:0.264583"
           x="161.21968"
           y="-50.674397"
           id="text1418-3"
           transform="rotate(30)"><tspan
             sodipodi:role="line"
             x="161.21968"
             y="-50.674397"
             style="font-size:4.23333px;text-align:center;text-anchor:middle;stroke-width:0.264583"
             id="tspan1104">(boot)</tspan><tspan
             sodipodi:role="line"
             x="161.21968"
             y="-43.618847"
             style="font-size:4.23333px;text-align:center;text-anchor:middle;stroke-width:0.264583"
             id="tspan1102">persist-save</tspan></text>
      </g>
      <g
         id="use1540"
         transform="translate(119.12688,-16.925101)">
        <g
           id="g1057"
           transform="translate(-6.6725826,2.2763352)">
          <text
             xml:space="preserve"
             style="font-size:5.64444px;line-height:1.25;font-family:'AR PL UKai TW MBE';-inkscape-font-specification:'AR PL UKai TW MBE, Normal';letter-spacing:0px;word-spacing:0px;fill:#008000;stroke-width:0.264583"
             x="11.08799"
             y="45.084518"
             id="text1052"
             transform="translate(4.2572521,23.162887)"><tspan
               sodipodi:role="line"
               x="11.08799"
               y="45.084518"
               style="fill:#008000;stroke-width:0.264583"
               id="tspan1050">squashfs</tspan></text>
          <use
             x="0"
             y="0"
             xlink:href="#g1070"
             id="use1054"
             transform="translate(-126.0032,-33.255319)"
             width="100%"
             height="100%" />
        </g>
      </g>
      <text
         xml:space="preserve"
         style="font-size:5.64444px;line-height:1.25;font-family:'AR PL UKai TW MBE';-inkscape-font-specification:'AR PL UKai TW MBE, Normal';letter-spacing:0px;word-spacing:0px;fill:#ff0000;stroke-width:0.264583"
         x="173.51784"
         y="45.476974"
         id="text855-6-2-3"><tspan
           sodipodi:role="line"
           id="tspan853-7-7-6"
           x="173.51784"
           y="45.476974"
           style="fill:#ff0000;stroke-width:0.264583">&quot;rootfs&quot;</tspan></text>
    </g>
    <text
       xml:space="preserve"
       style="font-size:5.64444px;line-height:1.25;font-family:'AR PL UKai TW MBE';-inkscape-font-specification:'AR PL UKai TW MBE, Normal';letter-spacing:0px;word-spacing:0px;stroke-width:0.264583"
       x="26.515282"
       y="17.937681"
       id="text1678"><tspan
         sodipodi:role="line"
         id="tspan1676"
         x="26.515282"
         y="17.937681"
         style="font-size:8.46667px;stroke-width:0.264583">Some of the antiX persistence schemes</tspan></text>
    <g
       id="g1404"
       transform="translate(5.702933,10.031998)">
      <g
         id="g1036"
         transform="translate(-2.7222556,-0.52293429)">
        <rect
           style="fill:#ffffe0;fill-opacity:1;stroke:none;stroke-width:0.264583;stop-color:#000000"
           id="rect1022"
           width="43.322903"
           height="37.645103"
           x="166.32005"
           y="78.354401"
           transform="translate(-5.702933,-10.031998)" />
        <text
           xml:space="preserve"
           style="font-size:5.64444px;line-height:1.25;font-family:'AR PL UKai TW MBE';-inkscape-font-specification:'AR PL UKai TW MBE, Normal';letter-spacing:0px;word-spacing:0px;stroke-width:0.264583"
           x="161.91795"
           y="74.307915"
           id="text1347"><tspan
             sodipodi:role="line"
             id="tspan1345"
             x="161.91795"
             y="74.307915"
             style="stroke-width:0.264583"> legend:</tspan><tspan
             sodipodi:role="line"
             x="161.91795"
             y="81.363464"
             style="fill:#0000ff;stroke-width:0.264583"
             id="tspan1349">  RAM</tspan><tspan
             sodipodi:role="line"
             x="161.91795"
             y="88.419014"
             style="fill:#ff0000;stroke-width:0.264583"
             id="tspan1351">  hdd</tspan><tspan
             sodipodi:role="line"
             x="161.91795"
             y="95.474564"
             style="fill:#008000;stroke-width:0.264583"
             id="tspan1090">  cdrom</tspan><tspan
             sodipodi:role="line"
             x="161.91795"
             y="102.53011"
             style="stroke-width:0.264583"
             id="tspan1353">    compressed</tspan></text>
        <g
           style="fill:#000000"
           id="g1070"
           transform="matrix(0.01386964,0,0,0.01386964,165.07303,96.897506)">
          <g
             id="g1058">
            <g
               id="g1056">
              <path
                 d="m 452.608,92.3 -93.882,93.882 h 36.911 c 12.87,0 23.273,10.426 23.273,23.273 0,12.847 -10.403,23.273 -23.273,23.273 h -93.091 c -3.025,0 -6.051,-0.628 -8.89,-1.792 -5.702,-2.351 -10.24,-6.889 -12.591,-12.591 -1.187,-2.839 -1.792,-5.865 -1.792,-8.89 v -93.091 c 0,-12.847 10.403,-23.273 23.273,-23.273 12.87,0 23.273,10.426 23.273,23.273 v 36.911 L 419.7,59.392 C 375.273,22.365 318.208,0 256,0 114.851,0 0,114.851 0,256 0,318.208 22.342,375.273 59.392,419.7 l 93.882,-93.882 h -36.911 c -12.87,0 -23.273,-10.426 -23.273,-23.273 0,-12.847 10.403,-23.273 23.273,-23.273 h 93.091 c 3.025,0 6.051,0.628 8.89,1.792 5.702,2.351 10.24,6.889 12.591,12.591 1.164,2.839 1.792,5.865 1.792,8.89 v 93.091 c 0,12.847 -10.403,23.273 -23.273,23.273 -12.87,0 -23.273,-10.426 -23.273,-23.273 V 358.725 L 92.3,452.608 C 136.704,489.635 193.792,512 256,512 397.149,512 512,397.149 512,256 512,193.792 489.635,136.727 452.608,92.3 Z"
                 id="path1054" />
            </g>
          </g>
        </g>
      </g>
    </g>
  </g>
</svg>
