<?xml version="1.0" encoding="UTF-8" standalone="no"?>
<!-- Created with Inkscape (http://www.inkscape.org/) -->

<svg
   xmlns:dc="http://purl.org/dc/elements/1.1/"
   xmlns:cc="http://creativecommons.org/ns#"
   xmlns:rdf="http://www.w3.org/1999/02/22-rdf-syntax-ns#"
   xmlns:svg="http://www.w3.org/2000/svg"
   xmlns="http://www.w3.org/2000/svg"
   xmlns:xlink="http://www.w3.org/1999/xlink"
   xmlns:sodipodi="http://sodipodi.sourceforge.net/DTD/sodipodi-0.dtd"
   xmlns:inkscape="http://www.inkscape.org/namespaces/inkscape"
   width="1024"
   height="768"
   viewBox="0 0 1024 768.00001"
   id="svg2"
   version="1.1"
   inkscape:version="0.91 r13725"
   sodipodi:docname="asymmetric-encryption.svg"
   inkscape:export-filename="asymmetric-encryption.png"
   inkscape:export-xdpi="90"
   inkscape:export-ydpi="90">
  <defs
     id="defs4">
    <marker
       inkscape:stockid="Arrow2Mend"
       orient="auto"
       refY="0.0"
       refX="0.0"
       id="marker14462"
       style="overflow:visible;"
       inkscape:isstock="true">
      <path
         id="path14464"
         style="fill-rule:evenodd;stroke-width:0.625;stroke-linejoin:round;stroke:#000000;stroke-opacity:1;fill:#000000;fill-opacity:1"
         d="M 8.7185878,4.0337352 L -2.2072895,0.016013256 L 8.7185884,-4.0017078 C 6.9730900,-1.6296469 6.9831476,1.6157441 8.7185878,4.0337352 z "
         transform="scale(0.6) rotate(180) translate(0,0)" />
    </marker>
    <marker
       inkscape:stockid="Arrow2Mend"
       orient="auto"
       refY="0.0"
       refX="0.0"
       id="marker13676"
       style="overflow:visible;"
       inkscape:isstock="true">
      <path
         id="path13678"
         style="fill-rule:evenodd;stroke-width:0.625;stroke-linejoin:round;stroke:#000000;stroke-opacity:1;fill:#000000;fill-opacity:1"
         d="M 8.7185878,4.0337352 L -2.2072895,0.016013256 L 8.7185884,-4.0017078 C 6.9730900,-1.6296469 6.9831476,1.6157441 8.7185878,4.0337352 z "
         transform="scale(0.6) rotate(180) translate(0,0)" />
    </marker>
    <marker
       inkscape:stockid="Arrow2Mend"
       orient="auto"
       refY="0.0"
       refX="0.0"
       id="marker6535"
       style="overflow:visible;"
       inkscape:isstock="true">
      <path
         id="path6537"
         style="fill-rule:evenodd;stroke-width:0.625;stroke-linejoin:round;stroke:#000000;stroke-opacity:1;fill:#000000;fill-opacity:1"
         d="M 8.7185878,4.0337352 L -2.2072895,0.016013256 L 8.7185884,-4.0017078 C 6.9730900,-1.6296469 6.9831476,1.6157441 8.7185878,4.0337352 z "
         transform="scale(0.6) rotate(180) translate(0,0)" />
    </marker>
    <marker
       inkscape:stockid="Arrow2Mend"
       orient="auto"
       refY="0.0"
       refX="0.0"
       id="marker5255"
       style="overflow:visible;"
       inkscape:isstock="true">
      <path
         id="path5257"
         style="fill-rule:evenodd;stroke-width:0.625;stroke-linejoin:round;stroke:#000000;stroke-opacity:1;fill:#000000;fill-opacity:1"
         d="M 8.7185878,4.0337352 L -2.2072895,0.016013256 L 8.7185884,-4.0017078 C 6.9730900,-1.6296469 6.9831476,1.6157441 8.7185878,4.0337352 z "
         transform="scale(0.6) rotate(180) translate(0,0)" />
    </marker>
    <marker
       inkscape:isstock="true"
       style="overflow:visible;"
       id="marker5081"
       refX="0.0"
       refY="0.0"
       orient="auto"
       inkscape:stockid="Arrow2Mend"
       inkscape:collect="always">
      <path
         transform="scale(0.6) rotate(180) translate(0,0)"
         d="M 8.7185878,4.0337352 L -2.2072895,0.016013256 L 8.7185884,-4.0017078 C 6.9730900,-1.6296469 6.9831476,1.6157441 8.7185878,4.0337352 z "
         style="fill-rule:evenodd;stroke-width:0.625;stroke-linejoin:round;stroke:#000000;stroke-opacity:1;fill:#000000;fill-opacity:1"
         id="path5083" />
    </marker>
    <marker
       inkscape:stockid="Arrow2Mend"
       orient="auto"
       refY="0.0"
       refX="0.0"
       id="Arrow2Mend"
       style="overflow:visible;"
       inkscape:isstock="true"
       inkscape:collect="always">
      <path
         id="path4798"
         style="fill-rule:evenodd;stroke-width:0.625;stroke-linejoin:round;stroke:#000000;stroke-opacity:1;fill:#000000;fill-opacity:1"
         d="M 8.7185878,4.0337352 L -2.2072895,0.016013256 L 8.7185884,-4.0017078 C 6.9730900,-1.6296469 6.9831476,1.6157441 8.7185878,4.0337352 z "
         transform="scale(0.6) rotate(180) translate(0,0)" />
    </marker>
    <marker
       inkscape:stockid="Arrow1Lend"
       orient="auto"
       refY="0.0"
       refX="0.0"
       id="Arrow1Lend"
       style="overflow:visible;"
       inkscape:isstock="true">
      <path
         id="path4774"
         d="M 0.0,0.0 L 5.0,-5.0 L -12.5,0.0 L 5.0,5.0 L 0.0,0.0 z "
         style="fill-rule:evenodd;stroke:#000000;stroke-width:1pt;stroke-opacity:1;fill:#000000;fill-opacity:1"
         transform="scale(0.8) rotate(180) translate(12.5,0)" />
    </marker>
    <linearGradient
       id="linearGradient22422">
      <stop
         offset="0"
         style="stop-color:#000000"
         id="stop22424" />
      <stop
         offset=".5"
         style="stop-color:#29272a"
         id="stop22430" />
      <stop
         offset="1"
         style="stop-color:#534f54"
         id="stop22426" />
    </linearGradient>
    <filter
       inkscape:collect="always"
       id="filter36535">
      <feGaussianBlur
         inkscape:collect="always"
         stdDeviation="0.57386989"
         id="feGaussianBlur36537" />
    </filter>
    <filter
       inkscape:collect="always"
       x="-.19543"
       y="-.21096"
       width="1.3909"
       height="1.4219"
       id="filter4470">
      <feGaussianBlur
         inkscape:collect="always"
         stdDeviation="0.23147484"
         id="feGaussianBlur4472" />
    </filter>
    <filter
       inkscape:collect="always"
       x="-.79970"
       y="-1.5238"
       width="2.5994"
       height="4.0476"
       id="filter7457">
      <feGaussianBlur
         inkscape:collect="always"
         stdDeviation="1.9444744"
         id="feGaussianBlur7459" />
    </filter>
    <filter
       inkscape:collect="always"
       x="-.49725"
       y="-.25399"
       width="1.9945"
       height="1.508"
       id="filter4331">
      <feGaussianBlur
         inkscape:collect="always"
         stdDeviation="12.741397"
         id="feGaussianBlur4333" />
    </filter>
    <linearGradient
       inkscape:collect="always"
       xlink:href="#linearGradient22422"
       id="linearGradient13174"
       gradientUnits="userSpaceOnUse"
       gradientTransform="translate(773.54,-519.98)"
       x1="-495.24"
       y1="989.96"
       x2="-384.07"
       y2="989.96" />
    <linearGradient
       inkscape:collect="always"
       xlink:href="#linearGradient22422"
       id="linearGradient13176"
       gradientUnits="userSpaceOnUse"
       gradientTransform="translate(773.54,-519.98)"
       x1="-391.48"
       y1="964.89"
       x2="-257.55"
       y2="964.89" />
    <linearGradient
       inkscape:collect="always"
       xlink:href="#linearGradient22422"
       id="linearGradient13178"
       gradientUnits="userSpaceOnUse"
       gradientTransform="translate(773.54,-519.98)"
       x1="-495.24"
       y1="989.96"
       x2="-384.07"
       y2="989.96" />
    <linearGradient
       inkscape:collect="always"
       xlink:href="#linearGradient22422"
       id="linearGradient13180"
       gradientUnits="userSpaceOnUse"
       gradientTransform="translate(773.54,-519.98)"
       x1="-391.48"
       y1="964.89"
       x2="-257.55"
       y2="964.89" />
  </defs>
  <sodipodi:namedview
     id="base"
     pagecolor="#ffffff"
     bordercolor="#666666"
     borderopacity="1.0"
     inkscape:pageopacity="1"
     inkscape:pageshadow="2"
     inkscape:zoom="0.97395833"
     inkscape:cx="303.57219"
     inkscape:cy="384"
     inkscape:document-units="px"
     inkscape:current-layer="g6712"
     showgrid="false"
     units="px"
     inkscape:window-width="1280"
     inkscape:window-height="976"
     inkscape:window-x="0"
     inkscape:window-y="0"
     inkscape:window-maximized="1" />
  <metadata
     id="metadata7">
    <rdf:RDF>
      <cc:Work
         rdf:about="">
        <dc:format>image/svg+xml</dc:format>
        <dc:type
           rdf:resource="http://purl.org/dc/dcmitype/StillImage" />
        <dc:title />
      </cc:Work>
    </rdf:RDF>
  </metadata>
  <g
     inkscape:label="Layer 1"
     inkscape:groupmode="layer"
     id="layer1"
     transform="translate(0,-284.36216)">
    <g
       id="g6689"
       transform="translate(-28.611765,-72.282353)">
      <g
         transform="matrix(0.22549289,0,0,0.22549289,476.52434,366.11359)"
         id="g3913"
         style="overflow:visible">
        <g
           style="clip-rule:evenodd;fill-rule:evenodd"
           id="g3871">
          <path
             inkscape:connector-curvature="0"
             d="m 213.66,155.04 c 4.895,3.826 12.058,0.924 16.796,2.016 8.25,1.9 9.411,10.649 14.108,17.468 -1.665,10.693 -0.21,18.816 -4.03,31.576 14.501,18.194 32.206,37.237 48.372,58.45 7.709,10.116 15.295,20.344 23.514,30.232 4.062,4.886 8.761,9.185 12.766,14.108 4.015,4.937 6.751,11.032 10.749,15.452 2.754,3.044 6.303,4.073 8.062,8.733 2.526,6.688 2.147,15.145 3.359,25.53 1.201,10.288 2.229,24.323 -10.077,22.842 -0.425,13.359 -13.312,16.961 -26.202,16.796 -6.353,-0.081 -17.252,-0.456 -20.154,-3.358 -6.836,-6.836 -1.405,-14.216 -5.375,-21.499 -9.208,0.329 -21.4,-5.082 -20.155,-17.468 -8.819,-2.118 -17.438,-3.36 -22.842,-4.031 -1.521,-3.629 -3.513,-6.789 -3.359,-12.093 -3.189,-3.081 -9.838,-2.703 -13.437,-5.375 0.004,-9.304 3.991,-17.359 0,-24.186 -4.752,-8.126 -15.229,-7.586 -23.515,-12.765 2.25,-12.762 -0.433,-26.937 -14.108,-23.515 -7.922,-8.426 -15.169,-17.527 -21.499,-27.545 -5.738,2.466 -12.326,2.196 -18.139,0 -7.528,-4.992 -9.549,-14.843 -15.453,-22.171 -7.896,-9.801 -19.275,-19.6 -32.92,-22.171 -12.851,-2.421 -35.349,2.096 -52.403,-0.672 -8.3,-1.346 -18.624,-3.823 -25.53,-8.062 C 7.51,184.322 -0.365,163.004 0.018,144.96 0.495,122.434 13.442,109.005 16.142,89.869 13.533,69.39 6.117,43.06 23.528,18.663 33.082,5.276 54.025,-4.183 79.291,1.867 c 10.659,2.552 19.245,9.732 30.232,10.75 14.119,1.307 26.518,-3.475 40.31,-1.344 6.407,0.99 17.307,3.729 22.843,6.718 17.152,9.263 32.838,22.736 42.325,36.951 6.795,14.375 9.9,24.941 5.375,42.326 -2.416,9.283 -7.397,15.749 -10.077,24.858 -1.392,4.73 -4.125,9.526 -4.031,12.765 0.21,7.48 5.83,12.85 7.39,20.14 z M 200.89,153.7 C 178.022,126.588 216.586,92.248 208.952,58.971 202.412,45.51 189.19,36.874 177.376,28.739 176.149,27.894 175.189,26.142 174.017,25.38 152.302,11.258 132.722,19.527 104.146,17.318 93.94,16.53 87.141,11.668 79.296,8.585 69.457,4.719 59.658,5.611 49.064,7.241 37.959,14.365 23.605,22.197 24.205,36.13 c 0.43,9.986 8.951,19.483 8.734,30.904 -3.464,27.894 -27.43,52.86 -23.514,83.979 6.358,17.093 17.829,37.452 38.294,39.638 6.974,0.745 12.436,0.49 18.812,0 12.107,-0.931 23.91,-8.797 38.966,-6.718 13.083,1.807 24.327,11.416 28.889,20.155 2.928,5.609 4.706,7.837 7.39,13.437 5.629,11.742 6.545,26.472 22.843,16.796 7.97,7.931 14.124,17.678 21.499,26.202 2.03,-10.25 17.738,-11.124 22.843,-3.359 4.339,6.601 2.193,17.948 3.358,26.873 14.938,-1.315 34.966,12.555 28.218,34.936 3.6,4.91 7.483,9.536 9.405,16.124 8.037,0.09 13.765,-1.597 21.499,2.016 1.714,6.309 1.166,8.546 2.688,13.437 6.981,1.764 11.819,1.51 20.154,3.359 -38.018,-54.021 -85.381,-98.702 -122.94,-153.18 -3.983,-7.438 -8.695,-14.147 -14.78,-19.483 -4.258,3.132 -8.812,5.969 -12.093,10.078 14.161,21.67 29.661,42.002 45.013,62.48 -8.334,-3.087 -11.016,-11.827 -16.124,-18.14 -5.974,-5.672 -9.651,-13.639 -15.452,-19.483 -4.895,-9.662 -12.907,-16.205 -17.468,-26.201 5.111,-3.847 10.25,-7.666 14.78,-12.093 -7.612,-10.642 -19.132,-21.833 -18.14,-36.951 -19.521,14.924 -47.262,30.568 -75.917,24.858 -2.472,-1.559 -5.097,-2.964 -8.734,-3.359 -14.561,-17.71 -18.362,-41.708 -8.734,-61.809 4.199,-8.766 12.42,-8.996 21.499,-12.093 18.341,-6.256 31.881,-20.508 40.982,-34.263 0.203,-4.647 0.147,-5.565 1.344,-9.406 19.649,-4.381 34.438,-5.968 53.075,5.375 5.78,6.965 12.535,11.588 15.453,20.155 8.375,24.596 -15.432,48.531 -27.545,63.152 3.07,5.215 9.28,7.292 12.093,12.765 16.595,12.827 28.037,30.876 40.31,47.701 12.272,16.823 25.859,33.038 38.295,49.716 25.208,33.808 51.848,66.182 78.604,98.088 2.468,4.64 6.734,9.634 10.749,14.108 3.547,3.952 8.284,11.671 12.094,10.749 -0.238,-5.417 -2.719,-21.422 -4.703,-31.576 -28.586,-32.519 -55.406,-71.044 -85.323,-105.48 -4.228,-4.866 -9.807,-10.305 -14.78,-16.796 -3.904,-5.096 -13.25,-13.786 -14.108,-18.14 -3.1,-15.718 20.304,-22.658 6.047,-31.577 -8.8,2.16 -20.84,-2.24 -26.89,-9.41 z M 22.85,56.957 c 1.198,6.366 1.271,14.427 5.375,18.812 2.948,-13.466 -0.521,-23.585 -6.046,-34.936 -2.434,6.681 -0.202,11.481 0.671,16.124 z M 144.45,46.88 c -7.442,-2.185 -23.813,-0.745 -30.904,5.375 -4.495,3.879 -6.111,12.186 -10.75,17.468 -0.871,0.992 -2.84,1.539 -4.031,2.687 -7.93,7.647 -18.246,15.424 -28.889,19.483 -5.573,2.125 -11.582,1.774 -15.452,5.375 -6.414,5.967 -8.902,25.063 -8.062,36.279 0.56,7.468 2.946,20.325 6.718,24.858 5.089,6.115 27.036,6.278 32.92,5.375 16.969,-2.606 32.628,-12.606 45.685,-22.17 13.524,-9.907 25.696,-21.329 34.263,-33.592 14.46,-27.062 3.94,-53.672 -21.5,-61.14 z m 51.73,80.62 c 7.651,-15.91 25.282,-37.069 15.452,-58.45 1.14,22.929 -12.63,36.83 -15.45,58.45 z m 129.66,228.42 c -30.701,-38.469 -62.52,-75.772 -92.042,-114.88 -22.446,-29.736 -43.888,-60.003 -67.855,-88.01 -4.379,-1.893 -6.552,-4.948 -10.749,-8.734 -2.74,-2.472 -7.888,-9.031 -12.093,-8.062 -6.067,1.397 -3.227,13.018 -2.015,16.124 5.137,13.175 18.795,27.446 26.873,38.294 9.312,12.507 20.048,28.774 27.545,39.639 43.878,50.403 86.709,101.85 127.65,155.19 5.909,-4.145 -1.765,-10.136 -4.031,-14.108 -3.742,-4.319 -6.604,-9.52 -11.421,-12.765 -36.698,-46.663 -77.2,-92.771 -112.87,-140.41 -12.206,-16.302 -25.34,-31.738 -36.951,-47.7 -5.746,-7.897 -14.797,-20.249 -13.437,-30.232 5.635,2.891 10.894,6.965 14.78,11.421 6.173,7.076 11.808,15.797 17.468,23.514 39.261,53.526 84.062,103.05 122.94,156.54 8.669,10.72 18.401,22.49 26.873,32.92 2.663,3.278 5.464,8.507 10.078,8.734 0.36,-7.43 -6.82,-12.54 -10.75,-17.46 z M 153.85,156.39 c 11.538,19.814 25.71,36.994 40.982,53.075 14.26,18.884 28.65,37.637 42.325,57.105 16.106,16.362 30.521,35.901 45.685,54.419 13.045,15.932 27.688,32.159 40.311,47.7 1.102,1.356 3.306,5.565 6.046,4.031 -6.933,-11.275 -16.419,-20.988 -24.857,-31.576 -13.444,-16.868 -27.216,-34.146 -39.639,-51.06 -4.764,-6.486 -9.639,-13.405 -14.78,-19.483 -27.239,-32.207 -51.572,-62.943 -77.261,-96.744 -3.701,-4.869 -12.311,-18.562 -16.124,-19.483 -0.981,-0.237 -2.345,-0.308 -3.359,0.672 0.54,0.15 0.79,0.57 0.68,1.35 z m -78.601,40.98 c 6.866,-0.748 14.566,-3.732 21.499,-4.031 9.489,-0.41 22.825,3.864 32.248,8.733 -6.141,-8.311 -14.275,-14.168 -24.858,-15.452 -18.212,-2.21 -36.195,9.972 -57.778,6.718 -19.085,-2.878 -28.133,-17.652 -36.279,-32.92 3.656,33.11 44.251,39.23 65.166,36.95 z m 153.18,1.34 c 0.396,-6.728 4.096,-16.658 3.359,-24.186 -3.6,5.28 -12.46,18.61 -3.36,24.19 z m -38.3,62.49 c 8.052,-0.886 13.319,1.012 18.14,3.359 -1.629,-8.474 -6.955,-10.101 -16.796,-9.406 -0.5,2.43 -2.64,3.61 -1.34,6.05 z m 21.5,27.54 c 13.495,4.829 25.629,12.432 24.858,29.561 10.82,-13.45 -10.04,-37.4 -24.86,-29.56 z m 23.52,38.3 c 5.407,1.535 8.195,5.689 11.421,9.405 0.36,-7.71 -7.08,-18.38 -11.42,-9.4 z m 14.78,11.42 c 2.808,7.685 12.863,5.246 20.155,7.391 0.918,-1.991 -0.394,-2.926 0,-6.047 -5.34,-2.61 -10.77,-2.4 -20.16,-1.34 z m 39.63,25.52 c 0.821,-3.622 -0.111,-3.242 0.672,-7.39 -3.7,-3.257 -11.541,-1.139 -14.78,-3.359 -1.37,7.79 7.76,8.71 14.11,10.75 z m 5.38,15.46 c 7.53,-0.193 7.857,-1.38 18.14,-1.344 -5.724,-7.938 -11.153,-16.168 -18.14,-22.843 -5.04,6.38 -1.06,13.1 0,24.18 z m 0,2.68 c -0.288,3.199 0.8,5.024 2.016,6.719 11.778,-0.573 15.608,1.291 22.171,-2.688 -5.19,-8.8 -14.08,-4.1 -24.19,-4.03 z"
             id="path3873" />
          <path
             style="fill:#b1953a"
             inkscape:connector-curvature="0"
             d="m 227.77,163.11 c 14.257,8.918 -9.146,15.858 -6.047,31.577 0.858,4.354 10.204,13.044 14.108,18.14 4.974,6.491 10.553,11.93 14.78,16.796 29.917,34.434 56.737,72.959 85.323,105.48 1.984,10.154 4.465,26.159 4.703,31.576 -3.81,0.922 -8.547,-6.797 -12.094,-10.749 -4.015,-4.475 -8.281,-9.469 -10.749,-14.108 -26.757,-31.906 -53.396,-64.28 -78.604,-98.088 -12.436,-16.678 -26.022,-32.893 -38.295,-49.716 -12.273,-16.825 -23.715,-34.874 -40.31,-47.701 -2.812,-5.473 -9.022,-7.549 -12.093,-12.765 C 160.606,118.93 184.412,94.996 176.037,70.4 173.12,61.833 166.364,57.21 160.584,50.245 141.947,38.903 127.158,40.49 107.509,44.87 c -1.196,3.84 -1.141,4.759 -1.344,9.406 -9.101,13.755 -22.641,28.007 -40.982,34.263 -9.079,3.097 -17.3,3.327 -21.499,12.093 -9.628,20.101 -5.827,44.099 8.734,61.809 3.637,0.395 6.262,1.8 8.734,3.359 28.655,5.71 56.396,-9.934 75.917,-24.858 -0.993,15.118 10.527,26.309 18.14,36.951 -4.53,4.427 -9.669,8.246 -14.78,12.093 4.561,9.996 12.573,16.539 17.468,26.201 5.801,5.845 9.479,13.812 15.452,19.483 5.108,6.312 7.79,15.053 16.124,18.14 -15.353,-20.479 -30.852,-40.811 -45.013,-62.48 3.281,-4.109 7.835,-6.946 12.093,-10.078 6.085,5.336 10.797,12.045 14.78,19.483 37.564,54.477 84.928,99.158 122.94,153.18 -8.335,-1.85 -13.173,-1.596 -20.154,-3.359 -1.521,-4.891 -0.974,-7.128 -2.688,-13.437 -7.734,-3.612 -13.462,-1.926 -21.499,-2.016 -1.922,-6.588 -5.806,-11.214 -9.405,-16.124 6.748,-22.381 -13.28,-36.251 -28.218,-34.936 -1.165,-8.925 0.98,-20.272 -3.358,-26.873 -5.104,-7.765 -20.812,-6.891 -22.843,3.359 -7.375,-8.524 -13.529,-18.271 -21.499,-26.202 -16.298,9.676 -17.213,-5.054 -22.843,-16.796 -2.684,-5.6 -4.462,-7.827 -7.39,-13.437 -4.562,-8.739 -15.806,-18.348 -28.889,-20.155 -15.057,-2.079 -26.859,5.788 -38.966,6.718 -6.376,0.49 -11.838,0.745 -18.812,0 C 27.244,188.47 15.773,168.112 9.415,151.019 5.499,119.9 29.465,94.934 32.929,67.04 33.146,55.619 24.625,46.122 24.195,36.136 23.595,22.203 37.949,14.37 49.053,7.247 59.647,5.617 69.447,4.725 79.285,8.591 c 7.845,3.083 14.645,7.945 24.858,8.734 28.576,2.209 48.156,-6.06 69.871,8.062 1.173,0.763 2.133,2.515 3.359,3.359 11.814,8.136 25.036,16.771 31.576,30.232 7.634,33.277 -30.931,67.617 -8.062,94.729 6.03,7.18 18.07,11.58 26.86,9.42 z M 51.74,65.691 C 63.385,70.963 82.577,60.431 84.66,44.192 86.312,31.313 78.717,24.7 71.223,19.334 65.053,18.712 60.405,18.598 58.458,19.334 34.533,26.44 30.769,56.198 51.74,65.691 Z"
             id="path3875" />
          <path
             inkscape:connector-curvature="0"
             d="m 58.463,19.334 c 1.946,-0.736 6.594,-0.622 12.765,0 C 78.721,24.7 86.317,31.313 84.665,44.192 82.582,60.43 63.39,70.963 51.745,65.691 30.773,56.198 34.537,26.44 58.463,19.334 Z m -9.406,8.734 C 66.737,24.735 76.698,34.292 79.289,48.223 91.125,27.37 60.679,12.857 49.057,28.068 Z m -2.015,12.093 c -3.99,6.278 1.59,19.235 9.406,20.827 21.22,4.323 15.756,-30.062 -0.672,-26.202 -2.932,0.689 -7.38,3.243 -8.734,5.375 z"
             id="path3877" />
          <path
             style="fill:#9c7d0d"
             inkscape:connector-curvature="0"
             d="M 79.29,48.223 C 76.699,34.292 66.737,24.736 49.058,28.068 60.679,12.857 91.125,27.37 79.29,48.223 Z"
             id="path3879" />
          <path
             style="fill:#9c7d0d"
             inkscape:connector-curvature="0"
             d="m 22.184,40.833 c 5.525,11.351 8.995,21.47 6.046,34.936 C 24.126,71.385 24.053,63.323 22.855,56.957 21.982,52.314 19.75,47.514 22.184,40.833 Z"
             id="path3881" />
          <path
             style="fill:#9c7d0d"
             inkscape:connector-curvature="0"
             d="m 211.64,69.05 c 9.83,21.38 -7.801,42.54 -15.452,58.45 2.82,-21.62 16.59,-35.521 15.45,-58.45 z"
             id="path3883" />
          <path
             style="fill:#b1953a"
             inkscape:connector-curvature="0"
             d="m 336.6,373.39 c -4.614,-0.228 -7.415,-5.456 -10.078,-8.734 -8.472,-10.43 -18.204,-22.2 -26.873,-32.92 -38.884,-53.49 -83.685,-103.01 -122.94,-156.54 -5.661,-7.717 -11.295,-16.438 -17.468,-23.514 -3.887,-4.456 -9.146,-8.53 -14.78,-11.421 -1.36,9.984 7.691,22.335 13.437,30.232 11.611,15.962 24.745,31.398 36.951,47.7 35.668,47.643 76.17,93.751 112.87,140.41 4.816,3.245 7.679,8.445 11.421,12.765 2.267,3.973 9.94,9.964 4.031,14.108 -40.94,-53.341 -83.771,-104.79 -127.65,-155.19 -7.497,-10.864 -18.232,-27.132 -27.545,-39.639 -8.078,-10.849 -21.736,-25.12 -26.873,-38.294 -1.211,-3.106 -4.052,-14.727 2.015,-16.124 4.205,-0.969 9.354,5.59 12.093,8.062 4.197,3.786 6.37,6.841 10.749,8.734 23.968,28.007 45.409,58.274 67.855,88.01 29.522,39.111 61.341,76.415 92.042,114.88 3.92,4.91 11.1,10.02 10.74,17.46 z"
             id="path3885" />
          <path
             style="fill:#9c7d0d"
             inkscape:connector-curvature="0"
             d="m 153.19,155.04 c 1.015,-0.979 2.378,-0.909 3.359,-0.672 3.813,0.921 12.423,14.614 16.124,19.483 25.688,33.801 50.021,64.537 77.261,96.744 5.142,6.078 10.017,12.997 14.78,19.483 12.423,16.913 26.194,34.191 39.639,51.06 8.438,10.588 17.925,20.301 24.857,31.576 -2.74,1.534 -4.944,-2.675 -6.046,-4.031 -12.623,-15.541 -27.266,-31.769 -40.311,-47.7 -15.163,-18.518 -29.578,-38.057 -45.685,-54.419 -13.675,-19.469 -28.065,-38.222 -42.325,-57.105 -15.272,-16.081 -29.444,-33.261 -40.982,-53.075 0.11,-0.77 -0.14,-1.19 -0.67,-1.34 z"
             id="path3887" />
          <path
             style="fill:#9c7d0d"
             inkscape:connector-curvature="0"
             d="m 231.8,174.53 c 0.736,7.528 -2.964,17.458 -3.359,24.186 -9.1,-5.59 -0.24,-18.92 3.36,-24.19 z"
             id="path3889" />
          <path
             style="fill:#9c7d0d"
             inkscape:connector-curvature="0"
             d="m 191.49,255.15 c 9.841,-0.694 15.167,0.933 16.796,9.406 -4.82,-2.348 -10.088,-4.245 -18.14,-3.359 -1.31,-2.44 0.83,-3.62 1.34,-6.05 z"
             id="path3891" />
          <path
             style="fill:#9c7d0d"
             inkscape:connector-curvature="0"
             d="m 236.5,318.3 c 0.771,-17.129 -11.363,-24.731 -24.858,-29.561 14.82,-7.84 35.68,16.11 24.86,29.56 z"
             id="path3893" />
          <path
             style="fill:#9c7d0d"
             inkscape:connector-curvature="0"
             d="m 246.58,336.44 c -3.226,-3.716 -6.014,-7.87 -11.421,-9.405 4.34,-8.98 11.78,1.69 11.42,9.4 z"
             id="path3895" />
          <path
             style="fill:#9c7d0d"
             inkscape:connector-curvature="0"
             d="m 270.09,339.8 c -0.394,3.121 0.918,4.056 0,6.047 -7.292,-2.145 -17.348,0.294 -20.155,-7.391 9.39,-1.06 14.82,-1.27 20.15,1.34 z"
             id="path3897" />
          <path
             style="fill:#9c7d0d"
             inkscape:connector-curvature="0"
             d="m 275.47,353.24 c 3.239,2.221 11.08,0.103 14.78,3.359 -0.783,4.147 0.149,3.768 -0.672,7.39 -6.36,-2.05 -15.49,-2.97 -14.11,-10.75 z"
             id="path3899" />
          <path
             style="fill:#b1953a"
             inkscape:connector-curvature="0"
             d="m 294.95,355.25 c 6.986,6.675 12.416,14.905 18.14,22.843 -10.282,-0.036 -10.609,1.15 -18.14,1.344 -1.06,-11.07 -5.04,-17.79 0,-24.18 z"
             id="path3901" />
          <path
             style="fill:#9c7d0d"
             inkscape:connector-curvature="0"
             d="m 319.14,386.16 c -6.562,3.979 -10.393,2.114 -22.171,2.688 -1.216,-1.694 -2.304,-3.52 -2.016,-6.719 10.11,-0.08 19,-4.78 24.19,4.03 z"
             id="path3903" />
          <path
             style="fill:#9c7d0d"
             inkscape:connector-curvature="0"
             d="m 10.09,160.42 c 8.146,15.268 17.194,30.042 36.279,32.92 21.583,3.254 39.565,-8.928 57.778,-6.718 10.583,1.284 18.717,7.141 24.858,15.452 -9.423,-4.87 -22.759,-9.143 -32.248,-8.733 -6.932,0.299 -14.633,3.283 -21.499,4.031 -20.919,2.28 -61.514,-3.84 -65.173,-36.95 z"
             id="path3905" />
        </g>
      </g>
      <text
         xml:space="preserve"
         style="font-style:normal;font-variant:normal;font-weight:normal;font-stretch:normal;font-size:22.5px;line-height:125%;font-family:'AR PL UKai TW';-inkscape-font-specification:'AR PL UKai TW';letter-spacing:0px;word-spacing:0px;fill:#000000;fill-opacity:1;stroke:none;stroke-width:1px;stroke-linecap:butt;stroke-linejoin:miter;stroke-opacity:1"
         x="461.03391"
         y="485.72018"
         id="text3937"
         sodipodi:linespacing="125%"><tspan
           sodipodi:role="line"
           id="tspan3939"
           x="461.03391"
           y="485.72018">共用的密鑰</tspan></text>
    </g>
    <g
       id="g6807"
       transform="translate(21.082353,48.188236)">
      <use
         height="100%"
         width="100%"
         transform="translate(-121.97648,468.32941)"
         id="use3933"
         xlink:href="#g3913"
         y="0"
         x="0" />
      <text
         sodipodi:linespacing="125%"
         id="text3941"
         y="916.40253"
         x="350.65335"
         style="font-style:normal;font-variant:normal;font-weight:normal;font-stretch:normal;font-size:22.5px;line-height:125%;font-family:'AR PL UKai TW';-inkscape-font-specification:'AR PL UKai TW';text-align:center;letter-spacing:0px;word-spacing:0px;text-anchor:middle;fill:#000000;fill-opacity:1;stroke:none;stroke-width:1px;stroke-linecap:butt;stroke-linejoin:miter;stroke-opacity:1"
         xml:space="preserve"><tspan
           y="916.40253"
           x="350.65335"
           id="tspan3943"
           sodipodi:role="line">收件人的</tspan><tspan
           id="tspan3949"
           y="944.52753"
           x="350.65335"
           sodipodi:role="line">公鑰</tspan><tspan
           id="tspan3957"
           y="972.65253"
           x="350.65335"
           sodipodi:role="line">(p*q)</tspan></text>
    </g>
    <g
       id="g6814"
       transform="translate(-12.047059,51.199999)">
      <use
         height="100%"
         width="100%"
         transform="translate(155.10589,466.82353)"
         id="use3935"
         xlink:href="#g3913"
         y="0"
         x="0" />
      <text
         xml:space="preserve"
         style="font-style:normal;font-variant:normal;font-weight:normal;font-stretch:normal;font-size:22.5px;line-height:125%;font-family:'AR PL UKai TW';-inkscape-font-specification:'AR PL UKai TW';text-align:center;letter-spacing:0px;word-spacing:0px;text-anchor:middle;fill:#000000;fill-opacity:1;stroke:none;stroke-width:1px;stroke-linecap:butt;stroke-linejoin:miter;stroke-opacity:1"
         x="626.13892"
         y="916.40253"
         id="text3951"
         sodipodi:linespacing="125%"><tspan
           sodipodi:role="line"
           id="tspan3953"
           x="626.13892"
           y="916.40253">收件人的</tspan><tspan
           sodipodi:role="line"
           x="626.13892"
           y="944.52753"
           id="tspan3955">私鑰</tspan><tspan
           id="tspan3959"
           sodipodi:role="line"
           x="626.13892"
           y="972.65253">(p 及 q)</tspan></text>
    </g>
    <path
       inkscape:connector-curvature="0"
       id="path5531"
       d="m 397.55295,870.1504 0,-72.28235"
       style="fill:none;fill-rule:evenodd;stroke:#000000;stroke-width:5;stroke-linecap:butt;stroke-linejoin:miter;stroke-miterlimit:4;stroke-dasharray:none;stroke-opacity:1;marker-end:url(#marker14462)"
       sodipodi:nodetypes="cc" />
    <path
       inkscape:connector-curvature="0"
       id="path6161"
       d="m 417.62867,353.5273 -47.0661,68.14846"
       style="fill:none;fill-rule:evenodd;stroke:#000000;stroke-width:5;stroke-linecap:butt;stroke-linejoin:miter;stroke-miterlimit:4;stroke-dasharray:none;stroke-opacity:1;marker-end:url(#marker13676)"
       sodipodi:nodetypes="cc" />
    <g
       id="g7279"
       transform="translate(-10.541177,-150.58824)">
      <g
         transform="matrix(-0.15810323,0,0,0.15810323,1016.3992,603.93743)"
         id="layer1-6"
         inkscape:label="Capa 1">
        <g
           id="conejito"
           inkscape:export-ydpi="70.904648"
           inkscape:export-xdpi="70.904648"
           transform="matrix(3.4286,0,0,3.4286,-820.31,-1210.1)">
          <path
             inkscape:connector-curvature="0"
             id="culo"
             style="fill:url(#linearGradient13174);fill-rule:evenodd;stroke:#000000;stroke-width:0.29166999px"
             d="m 362.94,390.3 c -3.48,0.1 -7.09,0.51 -10.84,1.38 -19.97,4.63 -31.19,14.32 -49.47,28.75 -10.18,8.03 -17.84,15.87 -21.59,28.9 -5.85,20.34 0.65,38.16 9.47,53.75 9.28,16.43 15.49,22.41 23.75,38.6 0.16,0.32 0.23,0.59 0.37,0.9 0.05,0.02 0.11,0.04 0.16,0.06 l -0.03,-0.06 c 0.2,-0.14 0.41,-0.22 0.62,-0.28 0.51,-0.5 2.71,0.18 5.81,1.31 7.02,2.56 11.28,1.86 15.72,1.91 5.68,0.07 8.26,1.63 14.22,0.53 3.04,-0.56 3.67,-0.86 5.53,-0.41 1.86,0.46 1.91,2.22 1.91,2.22 0.76,-0.15 1.56,-0.27 3,-0.22 3.3,0.13 6.03,0.96 8.62,2.04 l 0.82,-0.13 -8.1,-6.56 c 0,0 -2.77,-2.22 -6.69,-5.44 -3.91,-3.22 -8.98,-7.43 -13.53,-11.47 -1.13,-1.01 -2.13,-2.19 -3.06,-3.5 -0.93,-1.3 -1.76,-2.74 -2.5,-4.28 -0.74,-1.54 -1.4,-3.18 -1.97,-4.91 -0.57,-1.72 -1.04,-3.52 -1.47,-5.37 -0.85,-3.69 -1.44,-7.59 -1.84,-11.44 -0.4,-3.84 -0.62,-7.65 -0.75,-11.19 -0.06,-1.76 -0.06,-3.57 0.03,-5.43 0.09,-1.87 0.26,-3.76 0.53,-5.72 0.27,-1.96 0.63,-3.98 1.1,-6.03 0.46,-2.05 1.06,-4.15 1.75,-6.28 0.68,-2.14 1.47,-4.32 2.4,-6.54 0.93,-2.21 1.99,-4.45 3.19,-6.75 1.2,-2.29 2.52,-4.65 4,-7.03 1.48,-2.37 3.11,-4.77 4.91,-7.22 3.58,-4.89 6.61,-9.63 9.43,-13.84 1.42,-2.1 2.8,-4.05 4.16,-5.84 1.36,-1.79 2.69,-3.4 4.09,-4.78 1.4,-1.39 2.85,-2.55 4.38,-3.44 1.53,-0.89 3.16,-1.52 4.9,-1.81 0.88,-0.15 1.78,-0.21 2.72,-0.19 0.95,0.02 1.94,0.12 2.97,0.31 2.06,0.39 4.29,1.15 6.75,2.31 0,0 0.28,0.05 0.44,-0.31 0.16,-0.36 0.2,-1.13 -0.19,-2.72 -0.7,-2.87 -1.68,-5.44 -2.47,-7.22 -0.79,-1.78 -1.39,-2.76 -1.31,-2.37 -0.03,-0.01 -0.03,-0.02 -0.06,-0.03 -2.86,-1.06 -3.47,-2.44 -5.56,-2.78 -4.07,-0.68 -8.36,-1.26 -12.88,-1.38 -1.13,-0.03 -2.28,-0.03 -3.44,0 z" />
          <g
             id="g2349"
             inkscape:label="#cuerpo"
             transform="translate(773.54,-519.98)">
            <path
               inkscape:connector-curvature="0"
               id="cuerpo base"
               style="fill:#e6e6e6;stroke:#000000;stroke-width:0.29166999px"
               d="m -394.84,924.47 c -0.95,-0.02 -1.85,0.04 -2.72,0.19 -1.75,0.29 -3.38,0.92 -4.91,1.81 -1.53,0.89 -2.97,2.05 -4.37,3.44 -1.4,1.38 -2.74,2.99 -4.1,4.78 -1.36,1.79 -2.74,3.74 -4.15,5.84 -2.83,4.21 -5.86,8.95 -9.44,13.85 -1.79,2.44 -3.42,4.84 -4.91,7.21 -1.48,2.38 -2.8,4.74 -4,7.03 -1.19,2.3 -2.25,4.54 -3.18,6.76 -0.94,2.21 -1.72,4.39 -2.41,6.53 -0.69,2.13 -1.28,4.23 -1.75,6.28 -0.47,2.05 -0.83,4.07 -1.1,6.03 -0.26,1.96 -0.43,3.85 -0.53,5.72 -0.09,1.86 -0.09,3.66 -0.03,5.46 0.13,3.5 0.35,7.3 0.75,11.2 0.4,3.8 0.99,7.7 1.85,11.4 0.42,1.8 0.89,3.7 1.46,5.4 0.58,1.7 1.24,3.3 1.97,4.9 0.74,1.5 1.58,3 2.5,4.3 0.93,1.3 1.93,2.5 3.07,3.5 4.54,4 9.61,8.2 13.53,11.4 3.91,3.3 6.69,5.5 6.69,5.5 l 8.09,6.5 c 0.61,1 9.41,5.9 12.53,7.9 1.69,1 1.97,2.8 3.16,4.5 l 0.06,-0.2 c 2.54,-0.2 4.65,-0.3 6.5,-0.2 1.85,0.1 3.44,0.3 4.97,0.5 1.53,0.2 2.99,0.4 4.59,0.6 1.6,0.2 3.33,0.3 5.38,0.3 4.08,0 6.84,-0.1 8.81,-0.3 1.97,-0.2 3.12,-0.4 4.06,-0.7 1.13,-0.3 2.19,-0.8 3.41,-1.3 1.21,-0.4 2.58,-0.7 4.4,-0.7 0.86,0 1.45,0.2 2.19,0.3 0.51,-1.1 0.81,-2.2 0.72,-3.6 -0.02,-0.4 0.23,-0.6 0.56,-0.7 l 0,-0.1 c -0.44,-0.2 -0.67,1.2 -0.9,0.8 -0.24,-0.4 -0.38,-0.9 -0.41,-1.4 -0.03,-0.4 0.04,-1 0.22,-1.5 0.18,-0.5 0.49,-1 0.87,-1.4 0.6,-0.6 1.2,-1 1.85,-1.3 0.64,-0.3 1.31,-0.4 2,-0.5 1.36,-0.2 2.79,0 4.25,0.3 1.45,0.2 2.92,0.7 4.37,1 1.45,0.3 2.87,0.5 4.22,0.4 1.73,-0.8 3.06,-1.4 4.13,-1.7 1.06,-0.3 1.88,-0.5 2.65,-0.5 1.54,-0.1 2.72,-1.5 5.22,-1.3 0.02,0 0.16,0.1 0.19,0.1 0.46,-3.8 -1.31,-8 1.81,-12.1 0.64,-0.9 1.25,-1.6 1.84,-2.1 -0.18,0 -1.06,-0.1 -2.84,-0.3 -1.95,-0.3 -4.69,-0.8 -7.87,-1.7 -1.59,-0.4 -3.31,-0.9 -5.07,-1.5 -1.76,-0.6 -3.56,-1.4 -5.4,-2.2 -1.84,-0.8 -3.71,-1.8 -5.53,-2.9 -1.83,-1.1 -3.63,-2.4 -5.35,-3.8 -2.26,-1.8 -4.43,-3.7 -6.5,-5.7 -2.06,-1.9 -4.02,-4 -5.87,-6.1 -1.86,-2.1 -3.62,-4.2 -5.25,-6.5 -1.64,-2.2 -3.14,-4.5 -4.53,-6.8 -1.4,-2.3 -2.69,-4.6 -3.85,-7 -1.15,-2.4 -2.16,-4.9 -3.06,-7.3 -0.9,-2.5 -1.65,-4.97 -2.28,-7.49 -0.63,-2.51 -1.12,-5.03 -1.47,-7.59 -0.35,-2.56 -0.52,-4.98 -0.53,-7.28 -0.02,-2.3 0.12,-4.5 0.34,-6.53 0.23,-2.04 0.54,-3.95 0.91,-5.72 0.37,-1.77 0.77,-3.38 1.19,-4.88 0.83,-2.99 1.66,-5.43 2.12,-7.28 0.23,-0.93 0.38,-1.71 0.38,-2.34 -0.01,-0.64 -0.17,-1.14 -0.5,-1.47 -0.63,-0.63 -3.07,-3.67 -5.97,-8.19 -1.45,-2.26 -3.01,-4.89 -4.53,-7.75 -1.53,-2.86 -3.02,-5.97 -4.28,-9.19 l -0.07,-0.31 c -0.16,0.36 -0.43,0.31 -0.43,0.31 -2.47,-1.16 -4.7,-1.92 -6.76,-2.31 -1.02,-0.19 -2.02,-0.29 -2.96,-0.31 z"
               inkscape:export-ydpi="300"
               sodipodi:nodetypes="cssssssssssssssssssssscccccsssssssscsccssscsssscssccscssssssssssssssssssssssscccsc"
               inkscape:export-filename="C:\Documents and Settings\Darío\Escritorio\conejo.png"
               inkscape:export-xdpi="300" />
            <path
               inkscape:connector-curvature="0"
               id="sombra cuello"
               style="fill:#b3b3b3;fill-rule:evenodd"
               d="m -367.51,963.15 c -1.77,-1.27 -0.86,-0.38 -4.4,6.7 -5.65,46.95 7.56,63.25 27.4,82.85 19.85,19.5 27.04,10.6 35.15,2.4 -6.2,-6.7 -11.23,-6 -15.91,-8.3 -34.22,-22.1 -34.3,-47.38 -42.24,-83.65 z"
               inkscape:export-ydpi="300"
               sodipodi:nodetypes="cczccc"
               inkscape:export-filename="C:\Documents and Settings\Darío\Escritorio\conejo.png"
               inkscape:export-xdpi="300"
               inkscape:label="#sombracuello" />
            <path
               inkscape:connector-curvature="0"
               id="sombra piernas"
               style="fill:#b3b3b3;fill-rule:evenodd"
               d="m -387.2,1078.4 c 0.39,-0.9 1.64,0.5 14.81,0.1 15.22,1.9 28.37,-0.5 26.9,-2.6 -3.47,-5.1 8.51,-9.3 16.73,-7.2 4.06,1.1 8.3,-1 9.36,-1.2 2.11,-1.4 6.32,-2.7 6.39,0.5 0,0.9 0.62,1.7 0.62,2.5 -5.4,6.9 -17.51,4.2 -25.13,4.2 l -2.4,0 c -1.05,0 -1.89,0.9 -2.27,1.7 -0.07,2.6 -1.03,4.2 -3.28,5.5 -1.05,0.8 -2.63,0.9 -3.92,0.9 -6.04,0 -11.92,0.3 -17.8,1.6 -6.45,1.6 -12.73,-2.5 -19.02,-3.2 -0.9,-0.5 -1.56,-1.5 -0.99,-2.8 z"
               inkscape:export-ydpi="300"
               sodipodi:nodetypes="ccssccccscccccs"
               inkscape:export-filename="C:\Documents and Settings\Darío\Escritorio\conejo.png"
               inkscape:export-xdpi="300"
               inkscape:label="#sombrapiernas" />
            <path
               inkscape:connector-curvature="0"
               id="textura cuerpo"
               sodipodi:nodetypes="ccccscs"
               style="fill:#b3b3b3;fill-rule:evenodd;filter:url(#filter4331)"
               d="m -399.96,955.55 c -22.56,36.7 -22.79,61.55 -2.1,91.65 8.89,8.8 16.83,17.2 29.69,18.7 1.65,0 13.33,0.1 14.39,1.3 10.02,-1.9 -16.6,-23.5 -21.14,-35.4 -25.67,-67.03 10.16,-84.95 -6.93,-85.01 -6.9,0.2 -11.77,5.29 -13.91,8.76 z" />
          </g>
          <path
             inkscape:connector-curvature="0"
             id="path13636"
             sodipodi:nodetypes="csssscccssccssssssssssssssssssssssscccssssssssssssssssssscsssssssssssssssccsssccsz"
             style="fill:url(#linearGradient13176);stroke:#000000;stroke-width:0.29166999px"
             d="m 474,358.8 c -0.94,1.38 -3.78,5.73 -6.18,9.84 -12.13,20.84 -17.87,41.13 -21.44,42.16 -7.83,2.27 -10.53,-6.27 -15.72,-16.62 -10.23,-20.42 -24.28,-30.2 -34.28,-32.88 -10,-2.68 -12.49,1.43 -13.56,5 -0.41,9.44 -0.88,21.81 3.37,30.56 l 1.78,5.22 c 0.23,0.74 0.5,1.21 0.69,2 0.39,1.58 0.35,2.32 0.19,2.69 l 0,0.03 0.06,0.31 c 1.26,3.22 2.76,6.33 4.28,9.19 1.53,2.86 3.08,5.49 4.53,7.75 2.91,4.52 5.34,7.56 5.97,8.19 0.34,0.33 0.5,0.83 0.5,1.47 0.01,0.63 -0.14,1.41 -0.37,2.34 -0.46,1.85 -1.3,4.29 -2.13,7.28 -0.41,1.5 -0.82,3.11 -1.18,4.88 -0.37,1.77 -0.69,3.68 -0.91,5.72 -0.22,2.03 -0.36,4.23 -0.34,6.53 0.01,2.3 0.18,4.72 0.53,7.28 0.34,2.56 0.84,5.08 1.47,7.59 0.62,2.52 1.38,5.01 2.28,7.47 0.89,2.46 1.91,4.92 3.06,7.31 1.15,2.4 2.44,4.72 3.84,7.03 1.4,2.31 2.9,4.6 4.53,6.82 1.64,2.21 3.4,4.36 5.25,6.47 1.86,2.1 3.81,4.14 5.88,6.12 2.07,1.98 4.23,3.88 6.5,5.72 1.72,1.4 3.52,2.65 5.34,3.75 1.83,1.1 3.7,2.06 5.53,2.91 1.84,0.84 3.65,1.57 5.41,2.18 1.76,0.62 3.47,1.11 5.06,1.53 3.18,0.85 5.92,1.37 7.88,1.66 1.78,0.26 2.65,0.3 2.84,0.31 1.61,-1.47 3.19,-1.94 4.97,-2.25 l -6.97,-2.25 c 0,0 -0.75,-0.41 -1.75,-1.15 -1,-0.74 -2.25,-1.82 -3.22,-3.13 -0.48,-0.65 -0.87,-1.36 -1.15,-2.12 -0.28,-0.77 -0.43,-1.58 -0.38,-2.44 0.06,-0.86 0.3,-1.76 0.81,-2.69 0.52,-0.93 1.31,-1.89 2.41,-2.87 4.42,-3.92 10.05,-8.58 14.72,-13.19 2.34,-2.3 4.44,-4.58 6.03,-6.75 0.8,-1.09 1.46,-2.14 1.97,-3.16 0.51,-1.01 0.87,-1.99 1.03,-2.9 0.32,-1.83 0.56,-4.21 0.72,-6.94 0.16,-2.73 0.23,-5.83 0.19,-9.06 -0.05,-3.24 -0.23,-6.63 -0.53,-9.97 -0.31,-3.34 -0.74,-6.64 -1.35,-9.69 -0.19,-0.96 -0.55,-2.06 -1.06,-3.28 -0.51,-1.22 -1.18,-2.56 -1.91,-3.94 -1.45,-2.75 -3.21,-5.7 -4.9,-8.47 -1.69,-2.76 -3.3,-5.33 -4.38,-7.28 -0.54,-0.97 -0.95,-1.78 -1.19,-2.4 -0.23,-0.62 -0.27,-1.06 -0.09,-1.22 0.57,-0.24 1.3,-0.18 2.16,0.09 0.85,0.27 1.82,0.75 2.87,1.41 2.11,1.31 4.52,3.28 6.88,5.43 2.35,2.16 4.65,4.49 6.53,6.57 1.88,2.07 3.34,3.87 4.03,4.93 1.44,2.22 3.04,5.62 4.44,8.97 1.39,3.36 2.59,6.67 3.25,8.82 1.01,3.28 2.03,8.14 2.93,12.5 0.91,4.35 1.67,8.21 2.1,9.5 0.12,0.37 0.55,0.81 1.15,1.37 0.61,0.56 1.39,1.21 2.22,1.97 0.84,0.76 1.74,1.63 2.57,2.62 0.82,1 1.58,2.13 2.15,3.38 0.57,1.25 0.93,2.52 1.13,3.75 0.2,1.23 0.23,2.39 0.22,3.41 -0.04,2.02 -0.35,3.43 -0.35,3.43 l -0.5,6.13 c 0.14,-0.32 0.26,-0.44 0.41,-0.78 3.75,-8.75 2.86,-11.44 1.44,-22.16 -1.43,-10.71 -5.37,-13.22 -7.16,-20.72 -1.79,-7.5 -1.53,-6.31 -2.78,-12.56 -4.31,-21.93 -12.07,-18.33 -21.5,-31.72 -4.21,-17.84 6.14,-46.62 -2.32,-66.79 -1.91,-4.53 -5.78,0.74 -6.5,1.79 z" />
          <g
             id="hocico"
             transform="translate(773.54,-519.98)">
            <g
               id="morro">
              <path
                 inkscape:connector-curvature="0"
                 id="path13660"
                 style="fill:#e6e6e6;fill-rule:evenodd;stroke:#000000;stroke-width:0.29166999px"
                 d="m -261.12,1031.7 0.5,-6.1 c 0,0 0.31,-1.4 0.34,-3.4 0.01,-1.1 -0.02,-2.2 -0.22,-3.4 -0.2,-1.3 -0.56,-2.6 -1.12,-3.8 -0.57,-1.2 -1.34,-2.4 -2.16,-3.4 -0.83,-1 -1.73,-1.8 -2.56,-2.6 -0.84,-0.8 -1.62,-1.4 -2.22,-2 -0.61,-0.5 -1.03,-1 -1.16,-1.3 -0.43,-1.3 -1.19,-5.2 -2.09,-9.54 -0.91,-4.36 -1.93,-9.22 -2.94,-12.5 -0.66,-2.15 -1.86,-5.46 -3.25,-8.82 -1.39,-3.35 -3,-6.74 -4.44,-8.96 -0.69,-1.07 -2.15,-2.87 -4.03,-4.94 -1.88,-2.08 -4.18,-4.41 -6.53,-6.56 -2.35,-2.16 -4.77,-4.13 -6.88,-5.44 -1.05,-0.66 -2.02,-1.14 -2.87,-1.41 -0.85,-0.27 -1.59,-0.33 -2.16,-0.09 -0.18,0.16 -0.13,0.6 0.1,1.22 0.23,0.62 0.64,1.43 1.19,2.4 1.08,1.95 2.68,4.52 4.37,7.28 1.69,2.77 3.45,5.72 4.91,8.47 0.72,1.38 1.39,2.72 1.9,3.94 0.51,1.22 0.87,2.32 1.06,3.28 0.61,3.05 1.05,6.35 1.35,9.69 0.3,3.34 0.48,6.73 0.53,9.97 0.05,3.23 -0.03,6.31 -0.19,9.11 -0.16,2.7 -0.4,5.1 -0.72,6.9 -0.15,0.9 -0.52,1.9 -1.03,2.9 -0.51,1 -1.17,2.1 -1.97,3.2 -1.59,2.1 -3.69,4.4 -6.03,6.7 -4.67,4.6 -10.3,9.3 -14.72,13.2 -1.1,1 -1.89,1.9 -2.4,2.9 -0.52,0.9 -0.76,1.8 -0.82,2.6 -0.05,0.9 0.1,1.7 0.38,2.5 0.28,0.8 0.67,1.5 1.16,2.1 0.96,1.3 2.22,2.4 3.22,3.1 0.99,0.8 1.74,1.2 1.74,1.2 l 6.97,2.2 c 2.59,-0.4 5.66,-0.4 10.35,-2.1 9.1,-3.2 11.06,-1.6 19.28,-6.4 7.89,-4.7 9.7,-4.4 13.16,-12.1 z" />
              <path
                 inkscape:connector-curvature="0"
                 id="path19493"
                 sodipodi:nodetypes="csszss"
                 style="fill:#e9afaf;fill-rule:evenodd;stroke:#483737;stroke-width:0.26249999"
                 d="m -287.34,1038.3 c 0.05,-1.9 2.99,-3.5 5.51,-3.7 1.17,-0.1 4.44,-0.2 4.48,2.3 0.01,1 -1.44,2.1 -2.47,2.6 -0.99,0.5 -2.06,0.3 -3.05,-0.2 -0.49,-0.2 -4.51,0.2 -4.47,-1 z" />
            </g>
            <path
               inkscape:connector-curvature="0"
               id="sight"
               sodipodi:nodetypes="cscsc"
               style="fill:#ffffff;fill-rule:evenodd;filter:url(#filter36535)"
               transform="matrix(1.5069,0.096635,-0.085274,1.3298,229.13,-292.21)"
               d="m -298.61,955.51 c 8.82,9.96 11.97,16.75 13.92,22.45 2.5,7.29 3.59,19.43 3.59,19.43 0,0 -0.41,-9.48 -1.1,-17.1 -0.45,-5 -16.14,-25.21 -16.41,-24.78 z" />
          </g>
          <g
             id="g37673"
             transform="translate(773.54,-519.98)">
            <path
               inkscape:connector-curvature="0"
               id="shadow"
               sodipodi:nodetypes="csczzc"
               style="fill:#666666;fill-rule:evenodd;stroke:#000000;stroke-width:0.29166999px"
               d="m -351.14,947.53 c -21.02,-12.08 -24.12,-28.27 -24.62,-29.79 -3.74,-11.31 -2.66,-23.4 -2.66,-23.4 5.62,0.56 19.98,7.73 25.34,16.4 5.36,8.67 5.66,14.62 5.25,21.88 -0.41,7.27 -1.69,14.7 -3.31,14.91 z" />
            <path
               inkscape:connector-curvature="0"
               id="earshadow"
               sodipodi:nodetypes="cscccsscc"
               style="fill:#4d4d4d;fill-rule:evenodd"
               d="m -358.69,905.84 c 1.73,16.56 2.05,22.03 0.54,25.33 -1.8,3.94 -4.26,6.82 -4.26,6.82 l 3.94,4.1 c 2.08,1.58 4.44,3.14 7.07,4.64 1.58,-0.21 2.8,-7.37 3.2,-14.38 0.4,-7 0.11,-12.73 -5.12,-21.09 -1.19,-1.9 -2.83,-3.73 -4.73,-5.42 l -0.64,0 z" />
          </g>
          <g
             id="g3370"
             inkscape:label="#eye"
             transform="translate(773.54,-519.98)">
            <g
               id="eye">
              <path
                 inkscape:connector-curvature="0"
                 id="path13662"
                 sodipodi:nodetypes="csssc"
                 style="fill:#666666;fill-rule:evenodd;stroke:#000000;stroke-width:0.23333"
                 d="m -311.26,1000.8 c -6.64,-1.17 -11.07,1.4 -17.46,-4.86 -1.56,-1.54 -4.53,-13.38 -0.97,-17.35 7.17,-8.01 16.42,-1.94 18.64,4.17 2.35,6.43 -0.6,14.26 -0.21,18.04 z" />
              <path
                 inkscape:connector-curvature="0"
                 id="path14633"
                 sodipodi:nodetypes="cszssssc"
                 style="fill:#000000;fill-rule:evenodd;stroke:#000000;stroke-width:0.11667"
                 d="m -328.68,990.3 c -1.07,-7.26 0.39,-9.57 0.82,-10.16 1.01,-1.39 3.6,-2.56 5.37,-2.4 1.77,0.16 7.51,1.13 8.9,5.87 1.63,5.54 0.19,9.97 0.32,11.93 0.12,1.96 1.64,3.92 0.88,3.85 -0.76,-0.06 -7.74,-0.83 -8.46,-1.07 -3.73,-1.25 -7.71,-3.75 -7.83,-8.02 z" />
              <path
                 inkscape:connector-curvature="0"
                 id="path15606"
                 sodipodi:nodetypes="czssssz"
                 style="fill:#cccccc;fill-rule:evenodd;stroke-width:0"
                 d="m -322.88,983.1 c -0.65,1.86 0.18,3.23 1.27,4.31 1.07,1.05 3.71,0.11 4.32,0.06 0.94,-0.07 2.7,-0.4 2.94,-1.41 0.32,-1.31 -0.47,-2.87 -1.11,-3.5 -0.63,-0.64 -1.79,-1.32 -2.88,-1.35 -1.32,-0.03 -3.89,0.01 -4.54,1.89 z" />
            </g>
            <path
               inkscape:connector-curvature="0"
               id="path2399"
               sodipodi:nodetypes="csssc"
               style="fill:#c8ab37;fill-rule:evenodd;filter:url(#filter4470)"
               d="m -312.59,999.55 c -0.26,-0.16 -2.01,-0.36 -2.3,-0.55 -0.63,-0.43 1.08,-1.97 1.32,-2.05 0.65,-0.23 0.82,0.84 1.14,1.27 0.38,0.52 0.32,1.2 -0.16,1.33 z" />
          </g>
          <path
             inkscape:connector-curvature="0"
             id="path5005"
             d="m -284.31,1036.2 c 0.92,-0.3 6.41,-1.9 5.2,1.1 -1.21,3 -7.38,-0.2 -5.2,-1.1 z"
             sodipodi:nodetypes="css"
             style="opacity:0.89371996;fill:#c83737;fill-rule:evenodd;filter:url(#filter7457)"
             transform="matrix(0.95501,0,0,0.90436,760.63,-420.84)" />
          <g
             id="pata3"
             transform="translate(773.54,-519.98)">
            <path
               inkscape:connector-curvature="0"
               id="path22435"
               style="fill:#e9ddaf;fill-rule:evenodd;stroke:#000000;stroke-width:0.29166999px"
               d="m -458.28,1062.7 c 0.73,4.4 6.79,5.4 9.01,5.7 5.5,0.8 14.62,1.5 23.91,1.3 8.21,-0.2 7.39,-1.2 10.39,-1.9 0,0 -0.05,-1.7 -1.91,-2.2 -1.86,-0.4 -2.49,-0.1 -5.53,0.4 -5.97,1.1 -8.54,-0.4 -14.21,-0.5 -4.45,-0.1 -8.71,0.7 -15.73,-1.9 -3.7,-1.3 -6.12,-2.1 -5.93,-0.9 z"
               inkscape:export-ydpi="300"
               sodipodi:nodetypes="csscsssss"
               inkscape:export-filename="C:\Documents and Settings\Darío\Escritorio\conejo.png"
               inkscape:export-xdpi="300" />
            <path
               inkscape:connector-curvature="0"
               id="pezuña3"
               style="fill:#ffd5d5;fill-rule:evenodd"
               d="m -456.46,1065.1 c -2.02,-1.9 -1.18,-2.4 -1.18,-2.4 0,0 5.24,5.7 15.68,4.7 2.38,0.7 13.88,1.5 17.27,1.2 3.4,-0.4 3.93,-0.7 6.12,-1.1 2.19,-0.4 2.68,-0.3 2.68,-0.3 l 0.35,0.7 c 0,0 -2.74,1.1 -6.09,1.5 -3.35,0.4 -7.61,0 -7.61,0 l -6.83,0 c -1.14,-0.1 -5.55,-0.8 -10.7,-1.2 -3.66,-0.3 -7.56,-1.1 -9.69,-3.1 z"
               inkscape:export-ydpi="300"
               sodipodi:nodetypes="cccssccsczss"
               inkscape:export-filename="C:\Documents and Settings\Darío\Escritorio\conejo.png"
               inkscape:export-xdpi="300" />
          </g>
          <g
             id="pata1"
             inkscape:export-ydpi="300"
             inkscape:export-filename="C:\Documents and Settings\Darío\Escritorio\conejo.png"
             transform="translate(773.54,-519.98)"
             inkscape:export-xdpi="300">
            <path
               inkscape:connector-curvature="0"
               id="path23420"
               sodipodi:nodetypes="cccccccccsc"
               style="fill:#fff6d5;fill-rule:evenodd;stroke:#000000;stroke-width:0.29166999px"
               d="m -312.53,1068.8 c -0.03,0 -0.17,-0.1 -0.19,-0.1 -4.51,-0.9 -7,2.2 -11.08,4 -1.35,0.2 -2.77,0 -4.22,-0.3 -2.85,-0.8 -5.67,-1.5 -8.63,-1.3 -1.52,0.1 -2.67,0.9 -3.84,1.8 -1.13,1.3 -2.25,0.5 -1.7,2 0.24,0.4 0.56,0.7 1,0.9 l 0,0.1 c 2.89,-1.4 17.71,2.9 24.75,-1.4 2.78,-1.7 3.66,-3.6 3.91,-5.7 z" />
            <path
               inkscape:connector-curvature="0"
               id="pezuña1"
               sodipodi:nodetypes="csssscsssc"
               style="fill:#ffd5d5;fill-rule:evenodd"
               d="m -341.79,1073.9 c 10.09,0.2 9.36,0.6 11.38,0.8 2.21,0.4 9.06,0.6 10.49,-0.1 1.43,-0.7 3.65,-2.3 3.91,-2.9 0.27,-0.5 1.19,-2.6 2.53,-2.6 1.34,0 -0.48,2.2 -0.48,2.2 0,0 -1.18,2.6 -5.33,3.9 -4.15,1.4 -3.22,0.8 -9.11,0.8 -5.9,0.1 -9.1,-1.3 -12.31,-0.7 -1.7,0.3 -1.08,-1.4 -1.08,-1.4 z" />
          </g>
          <g
             id="pata2"
             inkscape:export-ydpi="300"
             inkscape:export-filename="C:\Documents and Settings\Darío\Escritorio\conejo.png"
             transform="translate(773.54,-519.98)"
             inkscape:export-xdpi="300"
             inkscape:label="#pata2">
            <path
               inkscape:connector-curvature="0"
               id="path26334"
               style="fill:#fff6d5;fill-rule:evenodd;stroke:#000000;stroke-width:0.29166999px"
               d="m -342.47,1080.2 c -0.74,-0.1 -1.33,-0.3 -2.19,-0.3 -1.82,0 -3.19,0.3 -4.4,0.7 -1.22,0.5 -2.28,1 -3.41,1.3 -0.94,0.3 -2.09,0.5 -4.06,0.7 -1.97,0.2 -4.73,0.3 -8.81,0.3 -2.05,0 -3.78,-0.1 -5.38,-0.3 -1.6,-0.2 -3.06,-0.4 -4.59,-0.6 -1.53,-0.2 -3.12,-0.4 -4.97,-0.5 -1.85,-0.1 -3.96,0 -6.5,0.2 l -0.06,0.2 c 1.06,1.5 2.85,2.9 7.31,3.5 12.3,1.8 18.65,1.6 28.81,-0.2 2.16,-0.4 6.54,-1.6 8.25,-5 z" />
            <path
               inkscape:connector-curvature="0"
               id="pezuña2"
               sodipodi:nodetypes="csssccssc"
               style="fill:#ffd5d5;fill-rule:evenodd"
               d="m -384.87,1083 c 0.25,-0.5 3.44,0.7 7.64,1.2 4.2,0.5 7.14,0.6 9.47,0.9 1.15,0.2 9.14,-0.4 11.11,-0.3 4.75,0 8.31,-2.2 12.88,-3.5 -2.15,2.9 -4.37,3 -7.76,3.7 -0.45,0.1 -7.14,1.4 -14.27,1.2 -7.14,-0.2 -9.72,-0.5 -13.51,-1.2 -3.79,-0.7 -5.56,-2 -5.56,-2 z" />
          </g>
        </g>
      </g>
      <g
         id="g6712"
         transform="translate(38.040161,4.1124498)">
        <text
           xml:space="preserve"
           style="font-style:normal;font-variant:normal;font-weight:normal;font-stretch:normal;font-size:22.5px;line-height:125%;font-family:'AR PL UKai TW';-inkscape-font-specification:'AR PL UKai TW';letter-spacing:0px;word-spacing:0px;fill:#000000;fill-opacity:1;stroke:none;stroke-width:1px;stroke-linecap:butt;stroke-linejoin:miter;stroke-opacity:1"
           x="54.211769"
           y="585.53864"
           id="text3638"
           sodipodi:linespacing="125%"><tspan
             sodipodi:role="line"
             id="tspan3640"
             x="54.211769"
             y="585.53864">寄件人</tspan></text>
        <image
           sodipodi:absref="/home/ckhung/public_html/m/13/shh.png"
           y="608.42249"
           x="47.272446"
           id="image3802"
           xlink:href="file:///home/ckhung/public_html/m/13/shh.png"
           preserveAspectRatio="none"
           height="119.43285"
           width="122.28621" />
      </g>
      <text
         sodipodi:linespacing="125%"
         id="text3638-9"
         y="579.0849"
         x="891.71625"
         style="font-style:normal;font-variant:normal;font-weight:normal;font-stretch:normal;font-size:22.5px;line-height:125%;font-family:'AR PL UKai TW';-inkscape-font-specification:'AR PL UKai TW';letter-spacing:0px;word-spacing:0px;fill:#000000;fill-opacity:1;stroke:none;stroke-width:1px;stroke-linecap:butt;stroke-linejoin:miter;stroke-opacity:1"
         xml:space="preserve"><tspan
           y="579.0849"
           x="891.71625"
           id="tspan3640-3"
           sodipodi:role="line">收件人</tspan></text>
      <g
         transform="translate(-1.5058824,4.5176471)"
         id="g6787">
        <g
           transform="matrix(0.23824943,0,0,0.23824943,323.28588,527.89294)"
           inkscape:label="Calque 1"
           id="layer1-0">
          <path
             d="m 537.14,475.22 c 0.37512,0.50015 -7.6392,7.2559 -22.677,19.154 -15.037,11.898 -37.099,28.938 -64.765,50.011 -27.666,21.073 -60.938,46.178 -98.338,74.211 -37.401,28.032 -78.93,58.992 -123.06,91.777 -1e-5,10e-6 -2e-5,10e-6 -3e-5,2e-5 -16.502,-16.86 -33.415,-34.163 -50.624,-51.782 -9.7535,-9.9855 -19.407,-19.872 -28.94,-29.636 2e-5,0 3e-5,-10e-6 4e-5,-10e-6 54.152,-22.166 105.46,-43.106 151.97,-61.942 46.506,-18.836 88.208,-35.568 123.16,-49.395 34.951,-13.826 63.152,-24.748 82.671,-32.042 19.52,-7.2942 30.358,-10.962 30.601,-10.356 0.24262,0.60655 -10.13,5.423 -29.179,13.556 -19.049,8.133 -46.773,19.582 -81.247,33.526 -34.475,13.944 -75.7,30.383 -121.77,48.576 -46.067,18.193 -96.977,38.142 -150.84,59.179 -1e-5,10e-6 -2e-5,10e-6 -3e-5,2e-5 8.9661,8.7347 18.035,17.57 27.193,26.496 16.159,15.75 32.026,31.226 47.528,46.371 1e-5,-10e-6 2e-5,-10e-6 3e-5,-2e-5 43.203,-32.712 83.909,-63.429 120.74,-91.07 36.831,-27.641 69.786,-52.206 97.43,-72.616 27.644,-20.41 49.978,-36.666 65.507,-47.693 15.529,-11.027 24.254,-16.826 24.629,-16.326 z"
             style="fill:#000000;fill-rule:evenodd"
             inkscape:original-d="M 537.14286,475.21933 228.57143,706.6479 151.42857,629.50504 537.14286,475.21933 Z"
             id="path2816"
             inkscape:connector-curvature="0" />
          <path
             d="m 535.71,475.22 c 0.16084,0.61674 -10.972,4.1483 -31.467,10.031 -20.495,5.8829 -50.351,14.117 -87.593,24.153 -37.242,10.036 -81.87,21.875 -131.86,34.983 -49.989,13.108 -105.34,27.486 -163.98,42.617 -1e-5,10e-6 -2e-5,10e-6 -3e-5,10e-6 -12.44,-16.83 -25.122,-34.01 -37.98,-51.44 -4.558,-6.18 -9.092,-12.32 -13.6,-18.43 128.05,-12.18 243.51,-23 327.46,-30.55 83.948,-7.5493 136.39,-11.831 139.02,-11.412 0.005,0.0508 0.005,0.0509 0.005,0.0509 0,0 10e-6,9e-5 0.005,0.0509 -2.5134,0.89431 -54.727,6.2729 -137.89,14.149 -83.164,7.8764 -197.28,18.25 -324.2,29.608 4.3606,5.2553 8.7448,10.539 13.151,15.85 12.429,14.981 24.674,29.748 36.695,44.273 2e-5,-10e-6 3e-5,-10e-6 4e-5,-10e-6 57.873,-15.256 112.48,-29.553 161.88,-42.366 49.402,-12.813 93.602,-24.14 130.62,-33.472 37.022,-9.3315 66.865,-16.667 87.504,-21.512 20.639,-4.8446 32.074,-7.1986 32.235,-6.5818 z"
             style="fill:#000000;fill-rule:evenodd"
             inkscape:original-d="m 535.71429,475.21932 -413.57143,107.85715 -50.714288,-65 464.285718,-42.85715 z"
             id="path2820"
             inkscape:connector-curvature="0" />
          <path
             d="m 124.29,580.93 c 0.66648,0.1786 0.59133,2.9759 -0.21125,7.8272 -0.80258,4.8512 -2.3334,11.756 -4.504,20.191 -2.1705,8.4347 -4.9808,18.399 -8.2615,29.416 -3.2807,11.016 -7.031,23.085 -11.007,35.768 -1.6034,5.1144 -3.1817,10.135 -4.7166,15.034 l 5e-6,0 c 7.293595,-8.7132 14.183995,-16.865 20.506995,-24.131 6.32301,-7.2659 12.079,-13.645 17.035,-18.852 4.9553,-5.207 9.1094,-9.2416 12.155,-11.859 3.0453,-2.6172 4.9812,-3.8174 5.4333,-3.3925 0.45212,0.42489 -0.62749,2.4334 -3.0925,5.6798 -2.46501,3.2464 -6.3162,7.7302 -11.341,13.143 -5.0244,5.4124 -11.222,11.753 -18.307,18.755 -7.0851,7.0016 -15.057,14.664 -23.558995,22.759 -2e-6,0 -4e-6,10e-6 -5e-6,10e-6 1.1424,-5.0927 2.3125,-10.328 3.5107,-15.668 2.9712,-13.243 5.8412,-25.879 8.5829,-37.337 2.7417,-11.458 5.3561,-21.736 7.7417,-30.303 2.3856,-8.5675 4.5424,-15.424 6.2885,-20.084 1.7461,-4.6596 3.0806,-7.1226 3.7471,-6.944 z"
             style="fill:#000000;fill-rule:evenodd"
             inkscape:original-d="M 124.28571,580.93361 95,690.21933 150.71429,630.93361"
             id="path2852"
             inkscape:connector-curvature="0" />
          <path
             d="m 94.843,690.68 c -0.59913,-0.93389 17.858,-9.5921 41.2,-19.326 23.341,-9.7342 42.771,-16.877 43.37,-15.943 0.59913,0.9339 -17.858,9.5921 -41.2,19.326 -23.341,9.7342 -42.771,16.877 -43.37,15.943 z"
             style="fill:#000000;fill-rule:evenodd"
             id="path2864"
             inkscape:connector-curvature="0" />
        </g>
        <text
           xml:space="preserve"
           style="font-style:normal;font-variant:normal;font-weight:normal;font-stretch:normal;font-size:22.5px;line-height:125%;font-family:'AR PL UKai TW';-inkscape-font-specification:'AR PL UKai TW';text-align:center;letter-spacing:0px;word-spacing:0px;text-anchor:middle;fill:#000000;fill-opacity:1;stroke:none;stroke-width:1px;stroke-linecap:butt;stroke-linejoin:miter;stroke-opacity:1"
           x="387.97086"
           y="607.69666"
           id="text3638-5"
           sodipodi:linespacing="125%"><tspan
             sodipodi:role="line"
             id="tspan3640-6"
             x="387.97086"
             y="607.69666">加密</tspan><tspan
             sodipodi:role="line"
             x="387.97086"
             y="635.82166"
             id="tspan3961">encrypt</tspan></text>
      </g>
      <g
         id="g6797">
        <g
           id="g3733"
           inkscape:label="Calque 1"
           transform="matrix(0.16846779,0.16846779,-0.16846779,0.16846779,700.3022,534.7427)">
          <path
             inkscape:connector-curvature="0"
             id="path3735"
             inkscape:original-d="M 537.14286,475.21933 228.57143,706.6479 151.42857,629.50504 537.14286,475.21933 Z"
             style="fill:#000000;fill-rule:evenodd"
             d="m 537.14,475.22 c 0.37512,0.50015 -7.6392,7.2559 -22.677,19.154 -15.037,11.898 -37.099,28.938 -64.765,50.011 -27.666,21.073 -60.938,46.178 -98.338,74.211 -37.401,28.032 -78.93,58.992 -123.06,91.777 -1e-5,10e-6 -2e-5,10e-6 -3e-5,2e-5 -16.502,-16.86 -33.415,-34.163 -50.624,-51.782 -9.7535,-9.9855 -19.407,-19.872 -28.94,-29.636 2e-5,0 3e-5,-10e-6 4e-5,-10e-6 54.152,-22.166 105.46,-43.106 151.97,-61.942 46.506,-18.836 88.208,-35.568 123.16,-49.395 34.951,-13.826 63.152,-24.748 82.671,-32.042 19.52,-7.2942 30.358,-10.962 30.601,-10.356 0.24262,0.60655 -10.13,5.423 -29.179,13.556 -19.049,8.133 -46.773,19.582 -81.247,33.526 -34.475,13.944 -75.7,30.383 -121.77,48.576 -46.067,18.193 -96.977,38.142 -150.84,59.179 -1e-5,10e-6 -2e-5,10e-6 -3e-5,2e-5 8.9661,8.7347 18.035,17.57 27.193,26.496 16.159,15.75 32.026,31.226 47.528,46.371 1e-5,-10e-6 2e-5,-10e-6 3e-5,-2e-5 43.203,-32.712 83.909,-63.429 120.74,-91.07 36.831,-27.641 69.786,-52.206 97.43,-72.616 27.644,-20.41 49.978,-36.666 65.507,-47.693 15.529,-11.027 24.254,-16.826 24.629,-16.326 z" />
          <path
             inkscape:connector-curvature="0"
             id="path3737"
             inkscape:original-d="m 535.71429,475.21932 -413.57143,107.85715 -50.714288,-65 464.285718,-42.85715 z"
             style="fill:#000000;fill-rule:evenodd"
             d="m 535.71,475.22 c 0.16084,0.61674 -10.972,4.1483 -31.467,10.031 -20.495,5.8829 -50.351,14.117 -87.593,24.153 -37.242,10.036 -81.87,21.875 -131.86,34.983 -49.989,13.108 -105.34,27.486 -163.98,42.617 -1e-5,10e-6 -2e-5,10e-6 -3e-5,10e-6 -12.44,-16.83 -25.122,-34.01 -37.98,-51.44 -4.558,-6.18 -9.092,-12.32 -13.6,-18.43 128.05,-12.18 243.51,-23 327.46,-30.55 83.948,-7.5493 136.39,-11.831 139.02,-11.412 0.005,0.0508 0.005,0.0509 0.005,0.0509 0,0 10e-6,9e-5 0.005,0.0509 -2.5134,0.89431 -54.727,6.2729 -137.89,14.149 -83.164,7.8764 -197.28,18.25 -324.2,29.608 4.3606,5.2553 8.7448,10.539 13.151,15.85 12.429,14.981 24.674,29.748 36.695,44.273 2e-5,-10e-6 3e-5,-10e-6 4e-5,-10e-6 57.873,-15.256 112.48,-29.553 161.88,-42.366 49.402,-12.813 93.602,-24.14 130.62,-33.472 37.022,-9.3315 66.865,-16.667 87.504,-21.512 20.639,-4.8446 32.074,-7.1986 32.235,-6.5818 z" />
          <path
             inkscape:connector-curvature="0"
             id="path3739"
             inkscape:original-d="M 124.28571,580.93361 95,690.21933 150.71429,630.93361"
             style="fill:#000000;fill-rule:evenodd"
             d="m 124.29,580.93 c 0.66648,0.1786 0.59133,2.9759 -0.21125,7.8272 -0.80258,4.8512 -2.3334,11.756 -4.504,20.191 -2.1705,8.4347 -4.9808,18.399 -8.2615,29.416 -3.2807,11.016 -7.031,23.085 -11.007,35.768 -1.6034,5.1144 -3.1817,10.135 -4.7166,15.034 l 5e-6,0 c 7.293595,-8.7132 14.183995,-16.865 20.506995,-24.131 6.32301,-7.2659 12.079,-13.645 17.035,-18.852 4.9553,-5.207 9.1094,-9.2416 12.155,-11.859 3.0453,-2.6172 4.9812,-3.8174 5.4333,-3.3925 0.45212,0.42489 -0.62749,2.4334 -3.0925,5.6798 -2.46501,3.2464 -6.3162,7.7302 -11.341,13.143 -5.0244,5.4124 -11.222,11.753 -18.307,18.755 -7.0851,7.0016 -15.057,14.664 -23.558995,22.759 -2e-6,0 -4e-6,10e-6 -5e-6,10e-6 1.1424,-5.0927 2.3125,-10.328 3.5107,-15.668 2.9712,-13.243 5.8412,-25.879 8.5829,-37.337 2.7417,-11.458 5.3561,-21.736 7.7417,-30.303 2.3856,-8.5675 4.5424,-15.424 6.2885,-20.084 1.7461,-4.6596 3.0806,-7.1226 3.7471,-6.944 z" />
          <path
             inkscape:connector-curvature="0"
             id="path3741"
             style="fill:#000000;fill-rule:evenodd"
             d="m 94.843,690.68 c -0.59913,-0.93389 17.858,-9.5921 41.2,-19.326 23.341,-9.7342 42.771,-16.877 43.37,-15.943 0.59913,0.9339 -17.858,9.5921 -41.2,19.326 -23.341,9.7342 -42.771,16.877 -43.37,15.943 z" />
        </g>
        <text
           xml:space="preserve"
           style="font-style:normal;font-variant:normal;font-weight:normal;font-stretch:normal;font-size:22.5px;line-height:125%;font-family:'AR PL UKai TW';-inkscape-font-specification:'AR PL UKai TW';text-align:center;letter-spacing:0px;word-spacing:0px;text-anchor:middle;fill:#000000;fill-opacity:1;stroke:none;stroke-width:1px;stroke-linecap:butt;stroke-linejoin:miter;stroke-opacity:1"
           x="648.4256"
           y="606.1908"
           id="text3638-5-6"
           sodipodi:linespacing="125%"><tspan
             sodipodi:role="line"
             id="tspan3640-6-4"
             x="648.4256"
             y="606.1908">解密</tspan><tspan
             sodipodi:role="line"
             x="648.4256"
             y="634.3158"
             id="tspan3963">decrypt</tspan></text>
      </g>
      <g
         id="g7259"
         transform="translate(9.253012,0)">
        <path
           style="fill:none;fill-rule:evenodd;stroke:#000000;stroke-width:5;stroke-linecap:butt;stroke-linejoin:miter;stroke-miterlimit:4;stroke-dasharray:none;stroke-opacity:1;marker-end:url(#Arrow2Mend)"
           d="m 174.90007,662.33863 138.10574,0"
           id="path3965"
           inkscape:connector-curvature="0"
           sodipodi:nodetypes="cc" />
        <text
           xml:space="preserve"
           style="font-style:normal;font-variant:normal;font-weight:normal;font-stretch:normal;font-size:22.5px;line-height:125%;font-family:'AR PL UKai TW';-inkscape-font-specification:'AR PL UKai TW';text-align:center;letter-spacing:0px;word-spacing:0px;text-anchor:middle;fill:#000000;fill-opacity:1;stroke:none;stroke-width:1px;stroke-linecap:butt;stroke-linejoin:miter;stroke-opacity:1"
           x="233.36781"
           y="619.49652"
           id="text3638-5-67"
           sodipodi:linespacing="125%"><tspan
             sodipodi:role="line"
             id="tspan3640-6-5"
             x="233.36781"
             y="619.49652">明文</tspan><tspan
             sodipodi:role="line"
             x="233.36781"
             y="647.62152"
             id="tspan3961-6">plain text</tspan></text>
      </g>
      <g
         id="g7265">
        <path
           inkscape:connector-curvature="0"
           id="path5079"
           d="m 439.71765,665.35039 138.54117,0"
           style="fill:none;fill-rule:evenodd;stroke:#000000;stroke-width:5;stroke-linecap:butt;stroke-linejoin:miter;stroke-miterlimit:4;stroke-dasharray:none;stroke-opacity:1;marker-end:url(#marker5081)"
           sodipodi:nodetypes="cc" />
        <text
           xml:space="preserve"
           style="font-style:normal;font-variant:normal;font-weight:normal;font-stretch:normal;font-size:22.5px;line-height:125%;font-family:'AR PL UKai TW';-inkscape-font-specification:'AR PL UKai TW';text-align:center;letter-spacing:0px;word-spacing:0px;text-anchor:middle;fill:#000000;fill-opacity:1;stroke:none;stroke-width:1px;stroke-linecap:butt;stroke-linejoin:miter;stroke-opacity:1"
           x="507.43839"
           y="611.9671"
           id="text5519"
           sodipodi:linespacing="125%"><tspan
             sodipodi:role="line"
             id="tspan5521"
             x="507.43839"
             y="611.9671">密文</tspan><tspan
             sodipodi:role="line"
             x="507.43839"
             y="640.0921"
             id="tspan5523">ciphertext</tspan></text>
      </g>
      <g
         inkscape:label="Capa 1"
         id="g6717"
         transform="matrix(-0.15810323,0,0,0.15810323,1016.3992,603.93743)">
        <g
           transform="matrix(3.4286,0,0,3.4286,-820.31,-1210.1)"
           inkscape:export-xdpi="70.904648"
           inkscape:export-ydpi="70.904648"
           id="g6719">
          <path
             d="m 362.94,390.3 c -3.48,0.1 -7.09,0.51 -10.84,1.38 -19.97,4.63 -31.19,14.32 -49.47,28.75 -10.18,8.03 -17.84,15.87 -21.59,28.9 -5.85,20.34 0.65,38.16 9.47,53.75 9.28,16.43 15.49,22.41 23.75,38.6 0.16,0.32 0.23,0.59 0.37,0.9 0.05,0.02 0.11,0.04 0.16,0.06 l -0.03,-0.06 c 0.2,-0.14 0.41,-0.22 0.62,-0.28 0.51,-0.5 2.71,0.18 5.81,1.31 7.02,2.56 11.28,1.86 15.72,1.91 5.68,0.07 8.26,1.63 14.22,0.53 3.04,-0.56 3.67,-0.86 5.53,-0.41 1.86,0.46 1.91,2.22 1.91,2.22 0.76,-0.15 1.56,-0.27 3,-0.22 3.3,0.13 6.03,0.96 8.62,2.04 l 0.82,-0.13 -8.1,-6.56 c 0,0 -2.77,-2.22 -6.69,-5.44 -3.91,-3.22 -8.98,-7.43 -13.53,-11.47 -1.13,-1.01 -2.13,-2.19 -3.06,-3.5 -0.93,-1.3 -1.76,-2.74 -2.5,-4.28 -0.74,-1.54 -1.4,-3.18 -1.97,-4.91 -0.57,-1.72 -1.04,-3.52 -1.47,-5.37 -0.85,-3.69 -1.44,-7.59 -1.84,-11.44 -0.4,-3.84 -0.62,-7.65 -0.75,-11.19 -0.06,-1.76 -0.06,-3.57 0.03,-5.43 0.09,-1.87 0.26,-3.76 0.53,-5.72 0.27,-1.96 0.63,-3.98 1.1,-6.03 0.46,-2.05 1.06,-4.15 1.75,-6.28 0.68,-2.14 1.47,-4.32 2.4,-6.54 0.93,-2.21 1.99,-4.45 3.19,-6.75 1.2,-2.29 2.52,-4.65 4,-7.03 1.48,-2.37 3.11,-4.77 4.91,-7.22 3.58,-4.89 6.61,-9.63 9.43,-13.84 1.42,-2.1 2.8,-4.05 4.16,-5.84 1.36,-1.79 2.69,-3.4 4.09,-4.78 1.4,-1.39 2.85,-2.55 4.38,-3.44 1.53,-0.89 3.16,-1.52 4.9,-1.81 0.88,-0.15 1.78,-0.21 2.72,-0.19 0.95,0.02 1.94,0.12 2.97,0.31 2.06,0.39 4.29,1.15 6.75,2.31 0,0 0.28,0.05 0.44,-0.31 0.16,-0.36 0.2,-1.13 -0.19,-2.72 -0.7,-2.87 -1.68,-5.44 -2.47,-7.22 -0.79,-1.78 -1.39,-2.76 -1.31,-2.37 -0.03,-0.01 -0.03,-0.02 -0.06,-0.03 -2.86,-1.06 -3.47,-2.44 -5.56,-2.78 -4.07,-0.68 -8.36,-1.26 -12.88,-1.38 -1.13,-0.03 -2.28,-0.03 -3.44,0 z"
             style="fill:url(#linearGradient13178);fill-rule:evenodd;stroke:#000000;stroke-width:0.29166999px"
             id="path6721"
             inkscape:connector-curvature="0" />
          <g
             transform="translate(773.54,-519.98)"
             inkscape:label="#cuerpo"
             id="g6723">
            <path
               inkscape:export-xdpi="300"
               inkscape:export-filename="C:\Documents and Settings\Darío\Escritorio\conejo.png"
               sodipodi:nodetypes="cssssssssssssssssssssscccccsssssssscsccssscsssscssccscssssssssssssssssssssssscccsc"
               inkscape:export-ydpi="300"
               d="m -394.84,924.47 c -0.95,-0.02 -1.85,0.04 -2.72,0.19 -1.75,0.29 -3.38,0.92 -4.91,1.81 -1.53,0.89 -2.97,2.05 -4.37,3.44 -1.4,1.38 -2.74,2.99 -4.1,4.78 -1.36,1.79 -2.74,3.74 -4.15,5.84 -2.83,4.21 -5.86,8.95 -9.44,13.85 -1.79,2.44 -3.42,4.84 -4.91,7.21 -1.48,2.38 -2.8,4.74 -4,7.03 -1.19,2.3 -2.25,4.54 -3.18,6.76 -0.94,2.21 -1.72,4.39 -2.41,6.53 -0.69,2.13 -1.28,4.23 -1.75,6.28 -0.47,2.05 -0.83,4.07 -1.1,6.03 -0.26,1.96 -0.43,3.85 -0.53,5.72 -0.09,1.86 -0.09,3.66 -0.03,5.46 0.13,3.5 0.35,7.3 0.75,11.2 0.4,3.8 0.99,7.7 1.85,11.4 0.42,1.8 0.89,3.7 1.46,5.4 0.58,1.7 1.24,3.3 1.97,4.9 0.74,1.5 1.58,3 2.5,4.3 0.93,1.3 1.93,2.5 3.07,3.5 4.54,4 9.61,8.2 13.53,11.4 3.91,3.3 6.69,5.5 6.69,5.5 l 8.09,6.5 c 0.61,1 9.41,5.9 12.53,7.9 1.69,1 1.97,2.8 3.16,4.5 l 0.06,-0.2 c 2.54,-0.2 4.65,-0.3 6.5,-0.2 1.85,0.1 3.44,0.3 4.97,0.5 1.53,0.2 2.99,0.4 4.59,0.6 1.6,0.2 3.33,0.3 5.38,0.3 4.08,0 6.84,-0.1 8.81,-0.3 1.97,-0.2 3.12,-0.4 4.06,-0.7 1.13,-0.3 2.19,-0.8 3.41,-1.3 1.21,-0.4 2.58,-0.7 4.4,-0.7 0.86,0 1.45,0.2 2.19,0.3 0.51,-1.1 0.81,-2.2 0.72,-3.6 -0.02,-0.4 0.23,-0.6 0.56,-0.7 l 0,-0.1 c -0.44,-0.2 -0.67,1.2 -0.9,0.8 -0.24,-0.4 -0.38,-0.9 -0.41,-1.4 -0.03,-0.4 0.04,-1 0.22,-1.5 0.18,-0.5 0.49,-1 0.87,-1.4 0.6,-0.6 1.2,-1 1.85,-1.3 0.64,-0.3 1.31,-0.4 2,-0.5 1.36,-0.2 2.79,0 4.25,0.3 1.45,0.2 2.92,0.7 4.37,1 1.45,0.3 2.87,0.5 4.22,0.4 1.73,-0.8 3.06,-1.4 4.13,-1.7 1.06,-0.3 1.88,-0.5 2.65,-0.5 1.54,-0.1 2.72,-1.5 5.22,-1.3 0.02,0 0.16,0.1 0.19,0.1 0.46,-3.8 -1.31,-8 1.81,-12.1 0.64,-0.9 1.25,-1.6 1.84,-2.1 -0.18,0 -1.06,-0.1 -2.84,-0.3 -1.95,-0.3 -4.69,-0.8 -7.87,-1.7 -1.59,-0.4 -3.31,-0.9 -5.07,-1.5 -1.76,-0.6 -3.56,-1.4 -5.4,-2.2 -1.84,-0.8 -3.71,-1.8 -5.53,-2.9 -1.83,-1.1 -3.63,-2.4 -5.35,-3.8 -2.26,-1.8 -4.43,-3.7 -6.5,-5.7 -2.06,-1.9 -4.02,-4 -5.87,-6.1 -1.86,-2.1 -3.62,-4.2 -5.25,-6.5 -1.64,-2.2 -3.14,-4.5 -4.53,-6.8 -1.4,-2.3 -2.69,-4.6 -3.85,-7 -1.15,-2.4 -2.16,-4.9 -3.06,-7.3 -0.9,-2.5 -1.65,-4.97 -2.28,-7.49 -0.63,-2.51 -1.12,-5.03 -1.47,-7.59 -0.35,-2.56 -0.52,-4.98 -0.53,-7.28 -0.02,-2.3 0.12,-4.5 0.34,-6.53 0.23,-2.04 0.54,-3.95 0.91,-5.72 0.37,-1.77 0.77,-3.38 1.19,-4.88 0.83,-2.99 1.66,-5.43 2.12,-7.28 0.23,-0.93 0.38,-1.71 0.38,-2.34 -0.01,-0.64 -0.17,-1.14 -0.5,-1.47 -0.63,-0.63 -3.07,-3.67 -5.97,-8.19 -1.45,-2.26 -3.01,-4.89 -4.53,-7.75 -1.53,-2.86 -3.02,-5.97 -4.28,-9.19 l -0.07,-0.31 c -0.16,0.36 -0.43,0.31 -0.43,0.31 -2.47,-1.16 -4.7,-1.92 -6.76,-2.31 -1.02,-0.19 -2.02,-0.29 -2.96,-0.31 z"
               style="fill:#e6e6e6;stroke:#000000;stroke-width:0.29166999px"
               id="path6725"
               inkscape:connector-curvature="0" />
            <path
               inkscape:label="#sombracuello"
               inkscape:export-xdpi="300"
               inkscape:export-filename="C:\Documents and Settings\Darío\Escritorio\conejo.png"
               sodipodi:nodetypes="cczccc"
               inkscape:export-ydpi="300"
               d="m -367.51,963.15 c -1.77,-1.27 -0.86,-0.38 -4.4,6.7 -5.65,46.95 7.56,63.25 27.4,82.85 19.85,19.5 27.04,10.6 35.15,2.4 -6.2,-6.7 -11.23,-6 -15.91,-8.3 -34.22,-22.1 -34.3,-47.38 -42.24,-83.65 z"
               style="fill:#b3b3b3;fill-rule:evenodd"
               id="path6727"
               inkscape:connector-curvature="0" />
            <path
               inkscape:label="#sombrapiernas"
               inkscape:export-xdpi="300"
               inkscape:export-filename="C:\Documents and Settings\Darío\Escritorio\conejo.png"
               sodipodi:nodetypes="ccssccccscccccs"
               inkscape:export-ydpi="300"
               d="m -387.2,1078.4 c 0.39,-0.9 1.64,0.5 14.81,0.1 15.22,1.9 28.37,-0.5 26.9,-2.6 -3.47,-5.1 8.51,-9.3 16.73,-7.2 4.06,1.1 8.3,-1 9.36,-1.2 2.11,-1.4 6.32,-2.7 6.39,0.5 0,0.9 0.62,1.7 0.62,2.5 -5.4,6.9 -17.51,4.2 -25.13,4.2 l -2.4,0 c -1.05,0 -1.89,0.9 -2.27,1.7 -0.07,2.6 -1.03,4.2 -3.28,5.5 -1.05,0.8 -2.63,0.9 -3.92,0.9 -6.04,0 -11.92,0.3 -17.8,1.6 -6.45,1.6 -12.73,-2.5 -19.02,-3.2 -0.9,-0.5 -1.56,-1.5 -0.99,-2.8 z"
               style="fill:#b3b3b3;fill-rule:evenodd"
               id="path6729"
               inkscape:connector-curvature="0" />
            <path
               d="m -399.96,955.55 c -22.56,36.7 -22.79,61.55 -2.1,91.65 8.89,8.8 16.83,17.2 29.69,18.7 1.65,0 13.33,0.1 14.39,1.3 10.02,-1.9 -16.6,-23.5 -21.14,-35.4 -25.67,-67.03 10.16,-84.95 -6.93,-85.01 -6.9,0.2 -11.77,5.29 -13.91,8.76 z"
               style="fill:#b3b3b3;fill-rule:evenodd;filter:url(#filter4331)"
               sodipodi:nodetypes="ccccscs"
               id="path6731"
               inkscape:connector-curvature="0" />
          </g>
          <path
             d="m 474,358.8 c -0.94,1.38 -3.78,5.73 -6.18,9.84 -12.13,20.84 -17.87,41.13 -21.44,42.16 -7.83,2.27 -10.53,-6.27 -15.72,-16.62 -10.23,-20.42 -24.28,-30.2 -34.28,-32.88 -10,-2.68 -12.49,1.43 -13.56,5 -0.41,9.44 -0.88,21.81 3.37,30.56 l 1.78,5.22 c 0.23,0.74 0.5,1.21 0.69,2 0.39,1.58 0.35,2.32 0.19,2.69 l 0,0.03 0.06,0.31 c 1.26,3.22 2.76,6.33 4.28,9.19 1.53,2.86 3.08,5.49 4.53,7.75 2.91,4.52 5.34,7.56 5.97,8.19 0.34,0.33 0.5,0.83 0.5,1.47 0.01,0.63 -0.14,1.41 -0.37,2.34 -0.46,1.85 -1.3,4.29 -2.13,7.28 -0.41,1.5 -0.82,3.11 -1.18,4.88 -0.37,1.77 -0.69,3.68 -0.91,5.72 -0.22,2.03 -0.36,4.23 -0.34,6.53 0.01,2.3 0.18,4.72 0.53,7.28 0.34,2.56 0.84,5.08 1.47,7.59 0.62,2.52 1.38,5.01 2.28,7.47 0.89,2.46 1.91,4.92 3.06,7.31 1.15,2.4 2.44,4.72 3.84,7.03 1.4,2.31 2.9,4.6 4.53,6.82 1.64,2.21 3.4,4.36 5.25,6.47 1.86,2.1 3.81,4.14 5.88,6.12 2.07,1.98 4.23,3.88 6.5,5.72 1.72,1.4 3.52,2.65 5.34,3.75 1.83,1.1 3.7,2.06 5.53,2.91 1.84,0.84 3.65,1.57 5.41,2.18 1.76,0.62 3.47,1.11 5.06,1.53 3.18,0.85 5.92,1.37 7.88,1.66 1.78,0.26 2.65,0.3 2.84,0.31 1.61,-1.47 3.19,-1.94 4.97,-2.25 l -6.97,-2.25 c 0,0 -0.75,-0.41 -1.75,-1.15 -1,-0.74 -2.25,-1.82 -3.22,-3.13 -0.48,-0.65 -0.87,-1.36 -1.15,-2.12 -0.28,-0.77 -0.43,-1.58 -0.38,-2.44 0.06,-0.86 0.3,-1.76 0.81,-2.69 0.52,-0.93 1.31,-1.89 2.41,-2.87 4.42,-3.92 10.05,-8.58 14.72,-13.19 2.34,-2.3 4.44,-4.58 6.03,-6.75 0.8,-1.09 1.46,-2.14 1.97,-3.16 0.51,-1.01 0.87,-1.99 1.03,-2.9 0.32,-1.83 0.56,-4.21 0.72,-6.94 0.16,-2.73 0.23,-5.83 0.19,-9.06 -0.05,-3.24 -0.23,-6.63 -0.53,-9.97 -0.31,-3.34 -0.74,-6.64 -1.35,-9.69 -0.19,-0.96 -0.55,-2.06 -1.06,-3.28 -0.51,-1.22 -1.18,-2.56 -1.91,-3.94 -1.45,-2.75 -3.21,-5.7 -4.9,-8.47 -1.69,-2.76 -3.3,-5.33 -4.38,-7.28 -0.54,-0.97 -0.95,-1.78 -1.19,-2.4 -0.23,-0.62 -0.27,-1.06 -0.09,-1.22 0.57,-0.24 1.3,-0.18 2.16,0.09 0.85,0.27 1.82,0.75 2.87,1.41 2.11,1.31 4.52,3.28 6.88,5.43 2.35,2.16 4.65,4.49 6.53,6.57 1.88,2.07 3.34,3.87 4.03,4.93 1.44,2.22 3.04,5.62 4.44,8.97 1.39,3.36 2.59,6.67 3.25,8.82 1.01,3.28 2.03,8.14 2.93,12.5 0.91,4.35 1.67,8.21 2.1,9.5 0.12,0.37 0.55,0.81 1.15,1.37 0.61,0.56 1.39,1.21 2.22,1.97 0.84,0.76 1.74,1.63 2.57,2.62 0.82,1 1.58,2.13 2.15,3.38 0.57,1.25 0.93,2.52 1.13,3.75 0.2,1.23 0.23,2.39 0.22,3.41 -0.04,2.02 -0.35,3.43 -0.35,3.43 l -0.5,6.13 c 0.14,-0.32 0.26,-0.44 0.41,-0.78 3.75,-8.75 2.86,-11.44 1.44,-22.16 -1.43,-10.71 -5.37,-13.22 -7.16,-20.72 -1.79,-7.5 -1.53,-6.31 -2.78,-12.56 -4.31,-21.93 -12.07,-18.33 -21.5,-31.72 -4.21,-17.84 6.14,-46.62 -2.32,-66.79 -1.91,-4.53 -5.78,0.74 -6.5,1.79 z"
             style="fill:url(#linearGradient13180);stroke:#000000;stroke-width:0.29166999px"
             sodipodi:nodetypes="csssscccssccssssssssssssssssssssssscccssssssssssssssssssscsssssssssssssssccsssccsz"
             id="path6733"
             inkscape:connector-curvature="0" />
          <g
             transform="translate(773.54,-519.98)"
             id="g6735">
            <g
               id="g6737">
              <path
                 d="m -261.12,1031.7 0.5,-6.1 c 0,0 0.31,-1.4 0.34,-3.4 0.01,-1.1 -0.02,-2.2 -0.22,-3.4 -0.2,-1.3 -0.56,-2.6 -1.12,-3.8 -0.57,-1.2 -1.34,-2.4 -2.16,-3.4 -0.83,-1 -1.73,-1.8 -2.56,-2.6 -0.84,-0.8 -1.62,-1.4 -2.22,-2 -0.61,-0.5 -1.03,-1 -1.16,-1.3 -0.43,-1.3 -1.19,-5.2 -2.09,-9.54 -0.91,-4.36 -1.93,-9.22 -2.94,-12.5 -0.66,-2.15 -1.86,-5.46 -3.25,-8.82 -1.39,-3.35 -3,-6.74 -4.44,-8.96 -0.69,-1.07 -2.15,-2.87 -4.03,-4.94 -1.88,-2.08 -4.18,-4.41 -6.53,-6.56 -2.35,-2.16 -4.77,-4.13 -6.88,-5.44 -1.05,-0.66 -2.02,-1.14 -2.87,-1.41 -0.85,-0.27 -1.59,-0.33 -2.16,-0.09 -0.18,0.16 -0.13,0.6 0.1,1.22 0.23,0.62 0.64,1.43 1.19,2.4 1.08,1.95 2.68,4.52 4.37,7.28 1.69,2.77 3.45,5.72 4.91,8.47 0.72,1.38 1.39,2.72 1.9,3.94 0.51,1.22 0.87,2.32 1.06,3.28 0.61,3.05 1.05,6.35 1.35,9.69 0.3,3.34 0.48,6.73 0.53,9.97 0.05,3.23 -0.03,6.31 -0.19,9.11 -0.16,2.7 -0.4,5.1 -0.72,6.9 -0.15,0.9 -0.52,1.9 -1.03,2.9 -0.51,1 -1.17,2.1 -1.97,3.2 -1.59,2.1 -3.69,4.4 -6.03,6.7 -4.67,4.6 -10.3,9.3 -14.72,13.2 -1.1,1 -1.89,1.9 -2.4,2.9 -0.52,0.9 -0.76,1.8 -0.82,2.6 -0.05,0.9 0.1,1.7 0.38,2.5 0.28,0.8 0.67,1.5 1.16,2.1 0.96,1.3 2.22,2.4 3.22,3.1 0.99,0.8 1.74,1.2 1.74,1.2 l 6.97,2.2 c 2.59,-0.4 5.66,-0.4 10.35,-2.1 9.1,-3.2 11.06,-1.6 19.28,-6.4 7.89,-4.7 9.7,-4.4 13.16,-12.1 z"
                 style="fill:#e6e6e6;fill-rule:evenodd;stroke:#000000;stroke-width:0.29166999px"
                 id="path6739"
                 inkscape:connector-curvature="0" />
              <path
                 d="m -287.34,1038.3 c 0.05,-1.9 2.99,-3.5 5.51,-3.7 1.17,-0.1 4.44,-0.2 4.48,2.3 0.01,1 -1.44,2.1 -2.47,2.6 -0.99,0.5 -2.06,0.3 -3.05,-0.2 -0.49,-0.2 -4.51,0.2 -4.47,-1 z"
                 style="fill:#e9afaf;fill-rule:evenodd;stroke:#483737;stroke-width:0.26249999"
                 sodipodi:nodetypes="csszss"
                 id="path6741"
                 inkscape:connector-curvature="0" />
            </g>
            <path
               d="m -298.61,955.51 c 8.82,9.96 11.97,16.75 13.92,22.45 2.5,7.29 3.59,19.43 3.59,19.43 0,0 -0.41,-9.48 -1.1,-17.1 -0.45,-5 -16.14,-25.21 -16.41,-24.78 z"
               transform="matrix(1.5069,0.096635,-0.085274,1.3298,229.13,-292.21)"
               style="fill:#ffffff;fill-rule:evenodd;filter:url(#filter36535)"
               sodipodi:nodetypes="cscsc"
               id="path6743"
               inkscape:connector-curvature="0" />
          </g>
          <g
             transform="translate(773.54,-519.98)"
             id="g6745">
            <path
               d="m -351.14,947.53 c -21.02,-12.08 -24.12,-28.27 -24.62,-29.79 -3.74,-11.31 -2.66,-23.4 -2.66,-23.4 5.62,0.56 19.98,7.73 25.34,16.4 5.36,8.67 5.66,14.62 5.25,21.88 -0.41,7.27 -1.69,14.7 -3.31,14.91 z"
               style="fill:#666666;fill-rule:evenodd;stroke:#000000;stroke-width:0.29166999px"
               sodipodi:nodetypes="csczzc"
               id="path6747"
               inkscape:connector-curvature="0" />
            <path
               d="m -358.69,905.84 c 1.73,16.56 2.05,22.03 0.54,25.33 -1.8,3.94 -4.26,6.82 -4.26,6.82 l 3.94,4.1 c 2.08,1.58 4.44,3.14 7.07,4.64 1.58,-0.21 2.8,-7.37 3.2,-14.38 0.4,-7 0.11,-12.73 -5.12,-21.09 -1.19,-1.9 -2.83,-3.73 -4.73,-5.42 l -0.64,0 z"
               style="fill:#4d4d4d;fill-rule:evenodd"
               sodipodi:nodetypes="cscccsscc"
               id="path6749"
               inkscape:connector-curvature="0" />
          </g>
          <g
             transform="translate(773.54,-519.98)"
             inkscape:label="#eye"
             id="g6751">
            <g
               id="g6753">
              <path
                 d="m -311.26,1000.8 c -6.64,-1.17 -11.07,1.4 -17.46,-4.86 -1.56,-1.54 -4.53,-13.38 -0.97,-17.35 7.17,-8.01 16.42,-1.94 18.64,4.17 2.35,6.43 -0.6,14.26 -0.21,18.04 z"
                 style="fill:#666666;fill-rule:evenodd;stroke:#000000;stroke-width:0.23333"
                 sodipodi:nodetypes="csssc"
                 id="path6755"
                 inkscape:connector-curvature="0" />
              <path
                 d="m -328.68,990.3 c -1.07,-7.26 0.39,-9.57 0.82,-10.16 1.01,-1.39 3.6,-2.56 5.37,-2.4 1.77,0.16 7.51,1.13 8.9,5.87 1.63,5.54 0.19,9.97 0.32,11.93 0.12,1.96 1.64,3.92 0.88,3.85 -0.76,-0.06 -7.74,-0.83 -8.46,-1.07 -3.73,-1.25 -7.71,-3.75 -7.83,-8.02 z"
                 style="fill:#000000;fill-rule:evenodd;stroke:#000000;stroke-width:0.11667"
                 sodipodi:nodetypes="cszssssc"
                 id="path6757"
                 inkscape:connector-curvature="0" />
              <path
                 d="m -322.88,983.1 c -0.65,1.86 0.18,3.23 1.27,4.31 1.07,1.05 3.71,0.11 4.32,0.06 0.94,-0.07 2.7,-0.4 2.94,-1.41 0.32,-1.31 -0.47,-2.87 -1.11,-3.5 -0.63,-0.64 -1.79,-1.32 -2.88,-1.35 -1.32,-0.03 -3.89,0.01 -4.54,1.89 z"
                 style="fill:#cccccc;fill-rule:evenodd;stroke-width:0"
                 sodipodi:nodetypes="czssssz"
                 id="path6759"
                 inkscape:connector-curvature="0" />
            </g>
            <path
               d="m -312.59,999.55 c -0.26,-0.16 -2.01,-0.36 -2.3,-0.55 -0.63,-0.43 1.08,-1.97 1.32,-2.05 0.65,-0.23 0.82,0.84 1.14,1.27 0.38,0.52 0.32,1.2 -0.16,1.33 z"
               style="fill:#c8ab37;fill-rule:evenodd;filter:url(#filter4470)"
               sodipodi:nodetypes="csssc"
               id="path6761"
               inkscape:connector-curvature="0" />
          </g>
          <path
             transform="matrix(0.95501,0,0,0.90436,760.63,-420.84)"
             style="opacity:0.89371996;fill:#c83737;fill-rule:evenodd;filter:url(#filter7457)"
             sodipodi:nodetypes="css"
             d="m -284.31,1036.2 c 0.92,-0.3 6.41,-1.9 5.2,1.1 -1.21,3 -7.38,-0.2 -5.2,-1.1 z"
             id="path6763"
             inkscape:connector-curvature="0" />
          <g
             transform="translate(773.54,-519.98)"
             id="g6765">
            <path
               inkscape:export-xdpi="300"
               inkscape:export-filename="C:\Documents and Settings\Darío\Escritorio\conejo.png"
               sodipodi:nodetypes="csscsssss"
               inkscape:export-ydpi="300"
               d="m -458.28,1062.7 c 0.73,4.4 6.79,5.4 9.01,5.7 5.5,0.8 14.62,1.5 23.91,1.3 8.21,-0.2 7.39,-1.2 10.39,-1.9 0,0 -0.05,-1.7 -1.91,-2.2 -1.86,-0.4 -2.49,-0.1 -5.53,0.4 -5.97,1.1 -8.54,-0.4 -14.21,-0.5 -4.45,-0.1 -8.71,0.7 -15.73,-1.9 -3.7,-1.3 -6.12,-2.1 -5.93,-0.9 z"
               style="fill:#e9ddaf;fill-rule:evenodd;stroke:#000000;stroke-width:0.29166999px"
               id="path6767"
               inkscape:connector-curvature="0" />
            <path
               inkscape:export-xdpi="300"
               inkscape:export-filename="C:\Documents and Settings\Darío\Escritorio\conejo.png"
               sodipodi:nodetypes="cccssccsczss"
               inkscape:export-ydpi="300"
               d="m -456.46,1065.1 c -2.02,-1.9 -1.18,-2.4 -1.18,-2.4 0,0 5.24,5.7 15.68,4.7 2.38,0.7 13.88,1.5 17.27,1.2 3.4,-0.4 3.93,-0.7 6.12,-1.1 2.19,-0.4 2.68,-0.3 2.68,-0.3 l 0.35,0.7 c 0,0 -2.74,1.1 -6.09,1.5 -3.35,0.4 -7.61,0 -7.61,0 l -6.83,0 c -1.14,-0.1 -5.55,-0.8 -10.7,-1.2 -3.66,-0.3 -7.56,-1.1 -9.69,-3.1 z"
               style="fill:#ffd5d5;fill-rule:evenodd"
               id="path6769"
               inkscape:connector-curvature="0" />
          </g>
          <g
             inkscape:export-xdpi="300"
             transform="translate(773.54,-519.98)"
             inkscape:export-filename="C:\Documents and Settings\Darío\Escritorio\conejo.png"
             inkscape:export-ydpi="300"
             id="g6771">
            <path
               d="m -312.53,1068.8 c -0.03,0 -0.17,-0.1 -0.19,-0.1 -4.51,-0.9 -7,2.2 -11.08,4 -1.35,0.2 -2.77,0 -4.22,-0.3 -2.85,-0.8 -5.67,-1.5 -8.63,-1.3 -1.52,0.1 -2.67,0.9 -3.84,1.8 -1.13,1.3 -2.25,0.5 -1.7,2 0.24,0.4 0.56,0.7 1,0.9 l 0,0.1 c 2.89,-1.4 17.71,2.9 24.75,-1.4 2.78,-1.7 3.66,-3.6 3.91,-5.7 z"
               style="fill:#fff6d5;fill-rule:evenodd;stroke:#000000;stroke-width:0.29166999px"
               sodipodi:nodetypes="cccccccccsc"
               id="path6773"
               inkscape:connector-curvature="0" />
            <path
               d="m -341.79,1073.9 c 10.09,0.2 9.36,0.6 11.38,0.8 2.21,0.4 9.06,0.6 10.49,-0.1 1.43,-0.7 3.65,-2.3 3.91,-2.9 0.27,-0.5 1.19,-2.6 2.53,-2.6 1.34,0 -0.48,2.2 -0.48,2.2 0,0 -1.18,2.6 -5.33,3.9 -4.15,1.4 -3.22,0.8 -9.11,0.8 -5.9,0.1 -9.1,-1.3 -12.31,-0.7 -1.7,0.3 -1.08,-1.4 -1.08,-1.4 z"
               style="fill:#ffd5d5;fill-rule:evenodd"
               sodipodi:nodetypes="csssscsssc"
               id="path6775"
               inkscape:connector-curvature="0" />
          </g>
          <g
             inkscape:label="#pata2"
             inkscape:export-xdpi="300"
             transform="translate(773.54,-519.98)"
             inkscape:export-filename="C:\Documents and Settings\Darío\Escritorio\conejo.png"
             inkscape:export-ydpi="300"
             id="g6777">
            <path
               d="m -342.47,1080.2 c -0.74,-0.1 -1.33,-0.3 -2.19,-0.3 -1.82,0 -3.19,0.3 -4.4,0.7 -1.22,0.5 -2.28,1 -3.41,1.3 -0.94,0.3 -2.09,0.5 -4.06,0.7 -1.97,0.2 -4.73,0.3 -8.81,0.3 -2.05,0 -3.78,-0.1 -5.38,-0.3 -1.6,-0.2 -3.06,-0.4 -4.59,-0.6 -1.53,-0.2 -3.12,-0.4 -4.97,-0.5 -1.85,-0.1 -3.96,0 -6.5,0.2 l -0.06,0.2 c 1.06,1.5 2.85,2.9 7.31,3.5 12.3,1.8 18.65,1.6 28.81,-0.2 2.16,-0.4 6.54,-1.6 8.25,-5 z"
               style="fill:#fff6d5;fill-rule:evenodd;stroke:#000000;stroke-width:0.29166999px"
               id="path6779"
               inkscape:connector-curvature="0" />
            <path
               d="m -384.87,1083 c 0.25,-0.5 3.44,0.7 7.64,1.2 4.2,0.5 7.14,0.6 9.47,0.9 1.15,0.2 9.14,-0.4 11.11,-0.3 4.75,0 8.31,-2.2 12.88,-3.5 -2.15,2.9 -4.37,3 -7.76,3.7 -0.45,0.1 -7.14,1.4 -14.27,1.2 -7.14,-0.2 -9.72,-0.5 -13.51,-1.2 -3.79,-0.7 -5.56,-2 -5.56,-2 z"
               style="fill:#ffd5d5;fill-rule:evenodd"
               sodipodi:nodetypes="csssccssc"
               id="path6781"
               inkscape:connector-curvature="0" />
          </g>
        </g>
      </g>
      <text
         xml:space="preserve"
         style="font-style:normal;font-variant:normal;font-weight:normal;font-stretch:normal;font-size:22.5px;line-height:125%;font-family:'AR PL UKai TW';-inkscape-font-specification:'AR PL UKai TW';letter-spacing:0px;word-spacing:0px;fill:#000000;fill-opacity:1;stroke:none;stroke-width:1px;stroke-linecap:butt;stroke-linejoin:miter;stroke-opacity:1"
         x="891.71625"
         y="579.0849"
         id="text6783"
         sodipodi:linespacing="125%"><tspan
           sodipodi:role="line"
           id="tspan6785"
           x="891.71625"
           y="579.0849">收件人</tspan></text>
      <use
         height="100%"
         width="100%"
         transform="translate(519.3117,1.5058824)"
         id="use7277"
         xlink:href="#g7259"
         y="0"
         x="0" />
    </g>
    <use
       x="0"
       y="0"
       xlink:href="#g7279"
       id="use7384"
       transform="translate(4.5176463,227.38824)"
       width="100%"
       height="100%" />
    <use
       x="0"
       y="0"
       xlink:href="#path5531"
       id="use7642"
       transform="translate(245.45882,1.5058822)"
       width="100%"
       height="100%" />
    <use
       x="0"
       y="0"
       xlink:href="#path6161"
       id="use7874"
       transform="matrix(-1,0,0,1,967.02131,3.0117644)"
       width="100%"
       height="100%" />
    <text
       xml:space="preserve"
       style="font-style:normal;font-variant:normal;font-weight:normal;font-stretch:normal;font-size:40px;line-height:125%;font-family:'AR PL UKai TW';-inkscape-font-specification:'AR PL UKai TW';text-align:center;letter-spacing:0px;word-spacing:0px;text-anchor:middle;fill:#000080;fill-opacity:1;stroke:none;stroke-width:1px;stroke-linecap:butt;stroke-linejoin:miter;stroke-opacity:1"
       x="721.7207"
       y="337.28577"
       id="text13168"
       sodipodi:linespacing="125%"><tspan
         sodipodi:role="line"
         id="tspan13170"
         x="721.7207"
         y="337.28577">symmetric encryption</tspan><tspan
         sodipodi:role="line"
         x="721.7207"
         y="387.28577"
         id="tspan13172">對稱式加解密</tspan></text>
    <text
       sodipodi:linespacing="125%"
       id="text13728"
       y="801.22449"
       x="646.04559"
       style="font-style:normal;font-variant:normal;font-weight:normal;font-stretch:normal;font-size:40px;line-height:125%;font-family:'AR PL UKai TW';-inkscape-font-specification:'AR PL UKai TW';text-align:center;letter-spacing:0px;word-spacing:0px;text-anchor:middle;fill:#000080;fill-opacity:1;stroke:none;stroke-width:1px;stroke-linecap:butt;stroke-linejoin:miter;stroke-opacity:1"
       xml:space="preserve"><tspan
         y="801.22449"
         x="646.04559"
         id="tspan13730"
         sodipodi:role="line">asymmetric encryption</tspan><tspan
         id="tspan13732"
         y="851.22449"
         x="646.04559"
         sodipodi:role="line">非對稱式加解密</tspan></text>
  </g>
</svg>
