<?xml version="1.0" encoding="UTF-8" standalone="no"?>
<!-- Created with Inkscape (http://www.inkscape.org/) -->

<svg
   xmlns:dc="http://purl.org/dc/elements/1.1/"
   xmlns:cc="http://creativecommons.org/ns#"
   xmlns:rdf="http://www.w3.org/1999/02/22-rdf-syntax-ns#"
   xmlns:svg="http://www.w3.org/2000/svg"
   xmlns="http://www.w3.org/2000/svg"
   xmlns:sodipodi="http://sodipodi.sourceforge.net/DTD/sodipodi-0.dtd"
   xmlns:inkscape="http://www.inkscape.org/namespaces/inkscape"
   width="1024"
   height="768"
   viewBox="0 0 1024 768.00001"
   id="svg2"
   version="1.1"
   inkscape:version="0.91 r13725"
   sodipodi:docname="certtool.svg">
  <defs
     id="defs4" />
  <sodipodi:namedview
     id="base"
     pagecolor="#ffffff"
     bordercolor="#666666"
     borderopacity="1.0"
     inkscape:pageopacity="0.0"
     inkscape:pageshadow="2"
     inkscape:zoom="0.78125"
     inkscape:cx="512"
     inkscape:cy="384"
     inkscape:document-units="px"
     inkscape:current-layer="layer1"
     showgrid="false"
     units="px"
     inkscape:window-width="1123"
     inkscape:window-height="796"
     inkscape:window-x="102"
     inkscape:window-y="138"
     inkscape:window-maximized="0" />
  <metadata
     id="metadata7">
    <rdf:RDF>
      <cc:Work
         rdf:about="">
        <dc:format>image/svg+xml</dc:format>
        <dc:type
           rdf:resource="http://purl.org/dc/dcmitype/StillImage" />
        <dc:title></dc:title>
      </cc:Work>
    </rdf:RDF>
  </metadata>
  <g
     inkscape:label="Layer 1"
     inkscape:groupmode="layer"
     id="layer1"
     transform="translate(0,-284.36216)">
    <text
       xml:space="preserve"
       style="font-style:normal;font-weight:normal;font-size:22.5px;line-height:125%;font-family:sans-serif;letter-spacing:0px;word-spacing:0px;fill:#000000;fill-opacity:1;stroke:none;stroke-width:1px;stroke-linecap:butt;stroke-linejoin:miter;stroke-opacity:1"
       x="75.519997"
       y="371.40216"
       id="text3336"
       sodipodi:linespacing="125%"><tspan
         sodipodi:role="line"
         id="tspan3338"
         x="75.519997"
         y="371.40216">姓名：資訊人權貴</tspan><tspan
         sodipodi:role="line"
         x="75.519997"
         y="399.52716"
         id="tspan3340">學歷：USC 電腦博士</tspan><tspan
         sodipodi:role="line"
         x="75.519997"
         y="427.65216"
         id="tspan3460">身份：憑證發放人</tspan><tspan
         sodipodi:role="line"
         x="75.519997"
         y="455.77716"
         id="tspan3342">專長：...</tspan></text>
    <g
       transform="matrix(0.19697553,0,0,0.19697553,51.10033,438.40089)"
       inkscape:label="Layer 1"
       id="layer1-7">
      <path
         d="M 377.66,670.85 C 496.19,594.1 548.23,378.89 531.23,329.41 514.05,279.43 490.69,257.02 445.09,251.16 398.92,245.23 365,242.21 303.21,308.75 240.9,375.85 200.08,478.63 193.4,519.36 c -6.68,40.73 -7.28,69.9 -2.05,80.52"
         style="fill:none;stroke:#000000;stroke-width:12"
         sodipodi:nodetypes="czzzzz"
         id="path1293"
         inkscape:connector-curvature="0" />
      <path
         d="m 210.33,597.59 c 24.34,1.78 72.38,4.12 107.44,3.07 22.86,18.19 42.33,35.25 70.83,46.1"
         style="fill:none;stroke:#000000;stroke-width:4"
         sodipodi:nodetypes="ccc"
         id="path2055"
         inkscape:connector-curvature="0" />
      <path
         d="m 210.65,582.32 c 106.42,3.35 119.86,2.26 123.81,0 17.92,15.1 35.27,27.93 60.53,38.52"
         style="fill:none;stroke:#000000;stroke-width:4"
         sodipodi:nodetypes="ccc"
         id="path2057"
         inkscape:connector-curvature="0" />
      <path
         d="m 210.97,554.38 c 49.43,5.61 134.6,-6.84 151.53,-22.08 3.6,30.55 41.62,47.55 64.4,67.93"
         style="fill:none;stroke:#000000;stroke-width:4"
         sodipodi:nodetypes="ccc"
         id="path2059"
         inkscape:connector-curvature="0" />
      <path
         d="m 206.98,566.38 c 75.95,3.91 115.53,3.77 139.22,-5.82 15.42,15.34 47.2,43.1 70.51,54.49"
         style="fill:none;stroke:#000000;stroke-width:4"
         sodipodi:nodetypes="ccc"
         id="path2061"
         inkscape:connector-curvature="0" />
      <path
         d="m 209.1,542.84 c 92.46,-3.23 192.67,-56.27 207.81,-73.27 15.91,-17.88 5.98,-47.04 -6.4,-59.42 -12.38,-12.38 -50.18,-27.18 -65.31,-14.8 -15.14,12.38 -34.45,58.54 -41.25,73.18 -7.02,15.09 -23.59,63.03 -61.29,71.04"
         style="fill:none;stroke:#000000;stroke-width:4"
         sodipodi:nodetypes="czzzzc"
         id="path4365"
         inkscape:connector-curvature="0" />
      <path
         d="m 294.39,511.74 c 46.77,-6.88 113.06,-39.99 116.45,-53.32 6.81,-26.83 -17.41,-51.98 -35.29,-51.98 -17.88,0 -29.7,4.7 -37.95,22.58 -11.66,35.49 -43.21,82.72 -43.21,82.72 z"
         style="fill:none;stroke:#000000;stroke-width:4"
         sodipodi:nodetypes="csccc"
         id="path5883"
         inkscape:connector-curvature="0" />
      <path
         d="m 323.27,493.85 c 42.65,-6.87 65.55,-28.15 70.16,-38.51 10.71,-24.07 -8.34,-35.62 -24.85,-34.24 -21.62,2.51 -27.7,56.85 -45.31,72.75 z"
         style="fill:none;stroke:#000000;stroke-width:4"
         sodipodi:nodetypes="cscc"
         id="path5885"
         inkscape:connector-curvature="0" />
      <path
         d="m 349.41,474.59 c 34.39,-13.75 42.4,-34.64 31.07,-39.17 -19.68,-7.88 -23.68,30.65 -31.07,39.17 z"
         style="fill:none;stroke:#000000;stroke-width:4"
         sodipodi:nodetypes="csc"
         id="path5887"
         inkscape:connector-curvature="0" />
      <path
         d="m 279.33,541.79 c 14.03,-1.41 84.48,-18.05 96.25,-32.43 -3.52,31.54 55.06,77.37 60.71,79.06"
         style="fill:none;stroke:#000000;stroke-width:4"
         sodipodi:nodetypes="ccc"
         id="path2847"
         inkscape:connector-curvature="0" />
      <path
         d="m 396.57,493.54 c -9.38,23.14 36.3,77.77 49.84,81.72"
         style="fill:none;stroke:#000000;stroke-width:4"
         sodipodi:nodetypes="cc"
         id="path6649"
         inkscape:connector-curvature="0" />
      <path
         d="m 204.83,521.82 c 20.63,1.38 48.79,-6.32 61.59,-18.76 8.41,-8.19 24.58,-39.96 31.46,-57.85 6.88,-17.88 30.9,-66.91 51.53,-69.66 20.64,-2.75 55.03,6.88 71.53,27.51 16.51,20.64 18.21,57.5 17.89,60.53 -2.43,23.1 -20.64,17.88 -24.76,31.64 -4.13,13.76 34.39,64.65 34.39,64.65"
         style="fill:none;stroke:#000000;stroke-width:4"
         sodipodi:nodetypes="csssssss"
         id="path6651"
         inkscape:connector-curvature="0" />
      <path
         d="m 213.22,497.98 c 42.65,-2.75 56.4,-28.89 68.79,-56.4 12.38,-27.51 25.63,-69.32 53.14,-76.2 27.51,-6.88 58.58,-7.45 87.47,13.19 28.89,20.63 33.58,44.95 35.14,67.53 1.54,22.34 -6.55,43.63 -14.8,50.5 -8.26,6.88 13.75,50.9 13.75,50.9"
         style="fill:none;stroke:#000000;stroke-width:4"
         sodipodi:nodetypes="csssssc"
         id="path7416"
         inkscape:connector-curvature="0" />
      <path
         d="m 215.97,478.72 c 35.77,0 59.73,-64.39 66.04,-85.29 4.09,-13.56 41.88,-57.07 67.46,-64.74 44.89,-13.46 95.43,-4.13 111.79,13.58 17.95,19.43 25.72,60.79 20.21,92.43 -5.5,31.64 -24.76,56.4 -23.38,66.03 1.37,9.63 9.63,20.64 9.63,20.64"
         style="fill:none;stroke:#000000;stroke-width:4"
         sodipodi:nodetypes="csssssc"
         id="path7418"
         inkscape:connector-curvature="0" />
      <path
         d="m 228.12,449.83 c 12.38,0 45.52,-71.73 65.13,-95.55 21.39,-25.97 70.49,-46.16 95.25,-46.68 54.3,-1.13 91.35,23.79 100.81,42.56 9.37,18.58 16.22,44.22 13.52,68.36 -2.95,26.36 -19.81,57.86 -20.22,67.08 -0.42,9.39 -2.36,15.85 2.75,19.26"
         style="fill:none;stroke:#000000;stroke-width:4"
         sodipodi:nodetypes="cssssss"
         id="path8178"
         inkscape:connector-curvature="0" />
      <path
         d="m 327.4,299.89 c 34.39,-30.27 64.1,-30.22 92.17,-26.14 24.84,3.61 65.96,17.14 77.03,31.64 11.96,15.65 20.39,36.09 22.02,53.65 1.78,19.37 0.49,43.88 -1.2,49.52"
         style="fill:none;stroke:#000000;stroke-width:4"
         sodipodi:nodetypes="cssss"
         id="path8180"
         inkscape:connector-curvature="0" />
      <path
         d="m 317.74,362.37 c 34.4,-30.26 57.31,-26.96 85.36,-22.72 27.67,4.17 46.64,14.3 57.72,28.79 11.95,15.66 7.89,55.4 9.51,72.97"
         style="fill:none;stroke:#000000;stroke-width:4"
         sodipodi:nodetypes="csss"
         id="path2075"
         inkscape:connector-curvature="0" />
      <path
         d="m 308.09,325.45 c 34.39,-30.26 76.98,-37.18 105.23,-34.66 27.68,2.48 64.26,16.58 75.33,31.07 11.96,15.66 16.98,27 18.6,44.57"
         style="fill:none;stroke:#000000;stroke-width:4"
         sodipodi:nodetypes="csss"
         id="path2077"
         inkscape:connector-curvature="0" />
      <path
         d="m 350.69,352.15 c 21.9,-6.41 39.27,-2.45 66.61,5.1 25.4,7.02 39.26,33.05 42.38,49.25"
         style="fill:none;stroke:#000000;stroke-width:4"
         sodipodi:nodetypes="css"
         id="path2079"
         inkscape:connector-curvature="0" />
    </g>
    <text
       xml:space="preserve"
       style="font-style:normal;font-weight:normal;font-size:22.5px;line-height:125%;font-family:sans-serif;letter-spacing:0px;word-spacing:0px;fill:#000000;fill-opacity:1;stroke:none;stroke-width:1px;stroke-linecap:butt;stroke-linejoin:miter;stroke-opacity:1"
       x="162.56"
       y="521.16217"
       id="text3454"
       sodipodi:linespacing="125%"><tspan
         sodipodi:role="line"
         id="tspan3456"
         x="162.56"
         y="521.16217">資訊人權貴</tspan><tspan
         sodipodi:role="line"
         x="162.56"
         y="549.28717"
         id="tspan3458">的金鑰</tspan></text>
  </g>
</svg>
