<?xml version="1.0" encoding="UTF-8" standalone="no"?>
<!DOCTYPE svg PUBLIC "-//W3C//DTD SVG 1.1//EN"
 "http://www.w3.org/Graphics/SVG/1.1/DTD/svg11.dtd">
<!-- Generated by graphviz version 2.43.0 (0)
 -->
<!-- Title: 檔案格式為中心的繪圖工作流程 Pages: 1 -->
<svg width="548pt" height="547pt"
 viewBox="0.00 0.00 548.25 547.22" xmlns="http://www.w3.org/2000/svg" xmlns:xlink="http://www.w3.org/1999/xlink">
<g id="graph0" class="graph" transform="scale(1 1) rotate(0) translate(4 543.22)">
<title>檔案格式為中心的繪圖工作流程</title>
<polygon fill="white" stroke="transparent" points="-4,4 -4,-543.22 544.25,-543.22 544.25,4 -4,4"/>
<g id="clust1" class="cluster">
<title>cluster_text</title>
<polygon fill="none" stroke="blue" points="269.25,-288.48 269.25,-460.22 512.25,-460.22 512.25,-288.48 269.25,-288.48"/>
</g>
<!-- text -->
<g id="node1" class="node">
<title>text</title>
<ellipse fill="none" stroke="black" cx="349.25" cy="-425.35" rx="72.25" ry="26.74"/>
<text text-anchor="middle" x="349.25" y="-429.15" font-family="Times,serif" font-size="14.00">any text</text>
<text text-anchor="middle" x="349.25" y="-414.15" font-family="Times,serif" font-size="14.00">任何文字格式</text>
</g>
<!-- csv -->
<g id="node3" class="node">
<title>csv</title>
<ellipse fill="none" stroke="black" cx="304.25" cy="-314.48" rx="27" ry="18"/>
<text text-anchor="middle" x="304.25" y="-310.78" font-family="Times,serif" font-size="14.00">csv</text>
</g>
<!-- text&#45;&gt;csv -->
<g id="edge1" class="edge">
<title>text&#45;&gt;csv</title>
<path fill="none" stroke="black" d="M321.17,-400.1C316.01,-394.22 311.3,-387.57 308.25,-380.48 303.22,-368.79 301.84,-354.82 301.87,-342.83"/>
<polygon fill="black" stroke="black" points="305.38,-342.61 302.23,-332.49 298.38,-342.37 305.38,-342.61"/>
<text text-anchor="middle" x="319.25" y="-361.78" font-family="Times,serif" font-size="14.00">RE</text>
</g>
<!-- html -->
<g id="node2" class="node">
<title>html</title>
<ellipse fill="none" stroke="black" cx="472.25" cy="-425.35" rx="32.49" ry="18"/>
<text text-anchor="middle" x="472.25" y="-421.65" font-family="Times,serif" font-size="14.00">html</text>
</g>
<!-- html&#45;&gt;csv -->
<g id="edge2" class="edge">
<title>html&#45;&gt;csv</title>
<path fill="none" stroke="black" d="M452.83,-410.69C445.94,-406.31 437.98,-401.75 430.25,-398.48 400.27,-385.8 386.86,-397.73 359.25,-380.48 350.28,-374.88 334.16,-355.24 321.68,-339"/>
<polygon fill="black" stroke="black" points="324.38,-336.76 315.54,-330.91 318.8,-340.99 324.38,-336.76"/>
<text text-anchor="middle" x="370.25" y="-361.78" font-family="Times,serif" font-size="14.00">RE</text>
</g>
<!-- html&#45;&gt;csv -->
<g id="edge7" class="edge">
<title>html&#45;&gt;csv</title>
<path fill="none" stroke="black" d="M450.74,-411.83C437.56,-403.69 420.7,-392.4 407.25,-380.48 394.04,-368.78 395.38,-361.04 381.25,-350.48 368.06,-340.63 351.65,-332.69 337.37,-326.88"/>
<polygon fill="black" stroke="black" points="338.49,-323.56 327.9,-323.2 335.95,-330.08 338.49,-323.56"/>
<text text-anchor="middle" x="435.75" y="-361.78" font-family="Times,serif" font-size="14.00">visidata</text>
</g>
<!-- raster -->
<g id="node4" class="node">
<title>raster</title>
<ellipse fill="none" stroke="black" cx="332.25" cy="-26.87" rx="31.23" ry="26.74"/>
<text text-anchor="middle" x="332.25" y="-30.67" font-family="Times,serif" font-size="14.00">png</text>
<text text-anchor="middle" x="332.25" y="-15.67" font-family="Times,serif" font-size="14.00">jpg</text>
</g>
<!-- html&#45;&gt;raster -->
<g id="edge12" class="edge">
<title>html&#45;&gt;raster</title>
<path fill="none" stroke="black" d="M473.79,-407.02C475.57,-385.55 478.25,-347.85 478.25,-315.48 478.25,-315.48 478.25,-315.48 478.25,-121.74 478.25,-71.25 415.69,-46.64 372.48,-35.66"/>
<polygon fill="black" stroke="black" points="373.04,-32.19 362.5,-33.28 371.41,-39 373.04,-32.19"/>
<text text-anchor="middle" x="509.25" y="-214.91" font-family="Times,serif" font-size="14.00">cutycapt</text>
</g>
<!-- view -->
<g id="node5" class="node">
<title>view</title>
<ellipse fill="none" stroke="black" cx="304.25" cy="-218.61" rx="66.44" ry="26.74"/>
<text text-anchor="middle" x="304.25" y="-222.41" font-family="Times,serif" font-size="14.00">view/study</text>
<text text-anchor="middle" x="304.25" y="-207.41" font-family="Times,serif" font-size="14.00">檢視/研究</text>
</g>
<!-- csv&#45;&gt;view -->
<g id="edge8" class="edge">
<title>csv&#45;&gt;view</title>
<path fill="none" stroke="black" d="M304.25,-296.26C304.25,-284.96 304.25,-269.75 304.25,-255.86"/>
<polygon fill="black" stroke="black" points="307.75,-255.58 304.25,-245.58 300.75,-255.58 307.75,-255.58"/>
<text text-anchor="middle" x="332.75" y="-267.28" font-family="Times,serif" font-size="14.00">visidata</text>
</g>
<!-- svg -->
<g id="node9" class="node">
<title>svg</title>
<ellipse fill="none" stroke="black" cx="188.25" cy="-122.74" rx="27" ry="18"/>
<text text-anchor="middle" x="188.25" y="-119.04" font-family="Times,serif" font-size="14.00">svg</text>
</g>
<!-- csv&#45;&gt;svg -->
<g id="edge9" class="edge">
<title>csv&#45;&gt;svg</title>
<path fill="none" stroke="black" d="M278.02,-309.75C243.85,-303.34 185.42,-286.66 159.25,-245.48 140.25,-215.59 157.2,-174.42 172.02,-148.44"/>
<polygon fill="black" stroke="black" points="175.18,-149.98 177.32,-139.61 169.17,-146.38 175.18,-149.98"/>
<text text-anchor="middle" x="194.25" y="-229.91" font-family="Times,serif" font-size="14.00">rawgraph</text>
<text text-anchor="middle" x="194.25" y="-214.91" font-family="Times,serif" font-size="14.00">scatplot</text>
<text text-anchor="middle" x="194.25" y="-199.91" font-family="Times,serif" font-size="14.00">metabase</text>
</g>
<!-- dot -->
<g id="node10" class="node">
<title>dot</title>
<ellipse fill="none" stroke="black" cx="80.25" cy="-218.61" rx="27" ry="18"/>
<text text-anchor="middle" x="80.25" y="-214.91" font-family="Times,serif" font-size="14.00">dot</text>
</g>
<!-- csv&#45;&gt;dot -->
<g id="edge10" class="edge">
<title>csv&#45;&gt;dot</title>
<path fill="none" stroke="blue" d="M269.25,-310.54C221.4,-305.94 138.7,-295.74 114.25,-278.48 102.95,-270.5 94.87,-257.49 89.43,-245.73"/>
<polygon fill="blue" stroke="blue" points="92.56,-244.15 85.47,-236.28 86.11,-246.86 92.56,-244.15"/>
<text text-anchor="middle" x="125.25" y="-267.28" font-family="Times,serif" font-size="14.00">RE</text>
</g>
<!-- gpt -->
<g id="node11" class="node">
<title>gpt</title>
<ellipse fill="none" stroke="black" cx="415.25" cy="-218.61" rx="27" ry="18"/>
<text text-anchor="middle" x="415.25" y="-214.91" font-family="Times,serif" font-size="14.00">gpt</text>
</g>
<!-- csv&#45;&gt;gpt -->
<g id="edge11" class="edge">
<title>csv&#45;&gt;gpt</title>
<path fill="none" stroke="blue" d="M351.68,-288.49C356.42,-285.34 361.03,-281.99 365.25,-278.48 377.49,-268.3 389.13,-254.9 398.1,-243.45"/>
<polygon fill="blue" stroke="blue" points="401.13,-245.25 404.4,-235.17 395.56,-241.01 401.13,-245.25"/>
<text text-anchor="middle" x="391.25" y="-267.28" font-family="Times,serif" font-size="14.00">RE</text>
</g>
<!-- raster&#45;&gt;raster -->
<g id="edge20" class="edge">
<title>raster&#45;&gt;raster</title>
<path fill="none" stroke="black" d="M361.49,-36.6C372.39,-36.92 381.36,-33.67 381.36,-26.87 381.36,-22.4 377.5,-19.47 371.76,-18.08"/>
<polygon fill="black" stroke="black" points="371.77,-14.56 361.49,-17.14 371.13,-21.53 371.77,-14.56"/>
<text text-anchor="middle" x="428.86" y="-30.67" font-family="Times,serif" font-size="14.00">gimp</text>
<text text-anchor="middle" x="428.86" y="-15.67" font-family="Times,serif" font-size="14.00">imagemagick</text>
</g>
<!-- xml -->
<g id="node6" class="node">
<title>xml</title>
<ellipse fill="none" stroke="black" cx="194.25" cy="-521.22" rx="27.9" ry="18"/>
<text text-anchor="middle" x="194.25" y="-517.52" font-family="Times,serif" font-size="14.00">xml</text>
</g>
<!-- json -->
<g id="node7" class="node">
<title>json</title>
<ellipse fill="none" stroke="black" cx="194.25" cy="-425.35" rx="29.8" ry="18"/>
<text text-anchor="middle" x="194.25" y="-421.65" font-family="Times,serif" font-size="14.00">json</text>
</g>
<!-- xml&#45;&gt;json -->
<g id="edge3" class="edge">
<title>xml&#45;&gt;json</title>
<path fill="none" stroke="black" d="M194.25,-503C194.25,-489.24 194.25,-469.69 194.25,-453.78"/>
<polygon fill="black" stroke="black" points="197.75,-453.46 194.25,-443.46 190.75,-453.46 197.75,-453.46"/>
<text text-anchor="middle" x="203.25" y="-474.02" font-family="Times,serif" font-size="14.00">xq</text>
</g>
<!-- json&#45;&gt;csv -->
<g id="edge5" class="edge">
<title>json&#45;&gt;csv</title>
<path fill="none" stroke="black" d="M209.08,-409.67C227.97,-390.98 260.74,-358.54 282.47,-337.04"/>
<polygon fill="black" stroke="black" points="285,-339.45 289.65,-329.93 280.08,-334.48 285,-339.45"/>
<text text-anchor="middle" x="276.75" y="-361.78" font-family="Times,serif" font-size="14.00">zq</text>
</g>
<!-- json&#45;&gt;json -->
<g id="edge4" class="edge">
<title>json&#45;&gt;json</title>
<path fill="none" stroke="black" d="M219.87,-434.91C231.76,-435.95 242.14,-432.76 242.14,-425.35 242.14,-420.25 237.24,-417.15 230.3,-416.05"/>
<polygon fill="black" stroke="black" points="229.96,-412.54 219.87,-415.79 229.78,-419.54 229.96,-412.54"/>
<text text-anchor="middle" x="250.64" y="-429.15" font-family="Times,serif" font-size="14.00">jq</text>
<text text-anchor="middle" x="250.64" y="-414.15" font-family="Times,serif" font-size="14.00">zq</text>
</g>
<!-- xlsx -->
<g id="node8" class="node">
<title>xlsx</title>
<ellipse fill="none" stroke="black" cx="29.25" cy="-425.35" rx="29.5" ry="18"/>
<text text-anchor="middle" x="29.25" y="-421.65" font-family="Times,serif" font-size="14.00">xlsx</text>
</g>
<!-- xlsx&#45;&gt;csv -->
<g id="edge6" class="edge">
<title>xlsx&#45;&gt;csv</title>
<path fill="none" stroke="black" d="M27.3,-407.35C26.39,-390.42 27.99,-364.93 43.25,-350.48 74.69,-320.7 202.54,-315.83 266.88,-315.31"/>
<polygon fill="black" stroke="black" points="267.03,-318.81 277.01,-315.26 266.99,-311.81 267.03,-318.81"/>
<text text-anchor="middle" x="85.25" y="-369.28" font-family="Times,serif" font-size="14.00">Libre Office</text>
<text text-anchor="middle" x="85.25" y="-354.28" font-family="Times,serif" font-size="14.00">visidata</text>
</g>
<!-- svg&#45;&gt;raster -->
<g id="edge16" class="edge">
<title>svg&#45;&gt;raster</title>
<path fill="none" stroke="black" d="M207.07,-109.47C230.49,-94.2 270.88,-67.88 299.43,-49.26"/>
<polygon fill="black" stroke="black" points="301.42,-52.15 307.88,-43.75 297.59,-46.28 301.42,-52.15"/>
<text text-anchor="middle" x="295.75" y="-75.54" font-family="Times,serif" font-size="14.00">inkscape</text>
</g>
<!-- svg&#45;&gt;svg -->
<g id="edge17" class="edge">
<title>svg&#45;&gt;svg</title>
<path fill="none" stroke="black" d="M212.78,-130.49C223.76,-131.23 233.25,-128.65 233.25,-122.74 233.25,-118.77 228.96,-116.3 222.82,-115.33"/>
<polygon fill="black" stroke="black" points="222.89,-111.84 212.78,-114.99 222.65,-118.83 222.89,-111.84"/>
<text text-anchor="middle" x="264.75" y="-119.04" font-family="Times,serif" font-size="14.00">inkscape</text>
</g>
<!-- dot&#45;&gt;raster -->
<g id="edge14" class="edge">
<title>dot&#45;&gt;raster</title>
<path fill="none" stroke="black" d="M75.58,-200.65C69.89,-175.79 63.9,-129.71 89.25,-104.74 144.22,-50.6 237.05,-34.55 290.66,-29.82"/>
<polygon fill="black" stroke="black" points="291.14,-33.29 300.83,-29.02 290.59,-26.31 291.14,-33.29"/>
<text text-anchor="middle" x="120.75" y="-119.04" font-family="Times,serif" font-size="14.00">graphviz</text>
</g>
<!-- dot&#45;&gt;svg -->
<g id="edge15" class="edge">
<title>dot&#45;&gt;svg</title>
<path fill="none" stroke="black" d="M75.68,-200.73C73.29,-187.97 72.45,-170.67 81.25,-158.74 89.93,-146.98 125.02,-137.01 152.67,-130.75"/>
<polygon fill="black" stroke="black" points="153.44,-134.17 162.47,-128.62 151.95,-127.33 153.44,-134.17"/>
<text text-anchor="middle" x="112.75" y="-162.54" font-family="Times,serif" font-size="14.00">graphviz</text>
</g>
<!-- gpt&#45;&gt;raster -->
<g id="edge18" class="edge">
<title>gpt&#45;&gt;raster</title>
<path fill="none" stroke="black" d="M408.03,-201.1C394.48,-170.14 365.01,-102.76 347.07,-61.76"/>
<polygon fill="black" stroke="black" points="350.21,-60.2 342.99,-52.44 343.8,-63 350.21,-60.2"/>
<text text-anchor="middle" x="407.75" y="-119.04" font-family="Times,serif" font-size="14.00">gnuplot</text>
</g>
<!-- gpt&#45;&gt;svg -->
<g id="edge19" class="edge">
<title>gpt&#45;&gt;svg</title>
<path fill="none" stroke="black" d="M399.28,-203.95C393.33,-199.47 386.29,-194.84 379.25,-191.74 343.51,-176.01 330.25,-186.22 293.25,-173.74 266.54,-164.73 237.73,-150.67 217.06,-139.76"/>
<polygon fill="black" stroke="black" points="218.64,-136.63 208.17,-134.99 215.33,-142.8 218.64,-136.63"/>
<text text-anchor="middle" x="320.75" y="-162.54" font-family="Times,serif" font-size="14.00">gnuplot</text>
</g>
<!-- ods -->
<g id="node12" class="node">
<title>ods</title>
<ellipse fill="none" stroke="black" cx="119.25" cy="-425.35" rx="27" ry="18"/>
<text text-anchor="middle" x="119.25" y="-421.65" font-family="Times,serif" font-size="14.00">ods</text>
</g>
<!-- ods&#45;&gt;csv -->
<g id="edge13" class="edge">
<title>ods&#45;&gt;csv</title>
<path fill="none" stroke="black" d="M122.29,-407.32C126.23,-390.36 134.78,-364.85 152.25,-350.48 184.61,-323.85 233.39,-316.63 266.91,-315.08"/>
<polygon fill="black" stroke="black" points="267.33,-318.57 277.22,-314.76 267.12,-311.57 267.33,-318.57"/>
<text text-anchor="middle" x="194.25" y="-361.78" font-family="Times,serif" font-size="14.00">Libre Office</text>
</g>
</g>
</svg>
