<?xml version="1.0" encoding="UTF-8" standalone="no"?>
<!DOCTYPE svg PUBLIC "-//W3C//DTD SVG 1.1//EN"
 "http://www.w3.org/Graphics/SVG/1.1/DTD/svg11.dtd">
<!-- Generated by graphviz version 2.43.0 (0)
 -->
<!-- Title: 檔案格式為中心的繪圖工作流程 Pages: 1 -->
<svg width="1126pt" height="534pt"
 viewBox="0.00 0.00 1125.80 534.00" xmlns="http://www.w3.org/2000/svg" xmlns:xlink="http://www.w3.org/1999/xlink">
<g id="graph0" class="graph" transform="scale(1 1) rotate(0) translate(4 530)">
<title>檔案格式為中心的繪圖工作流程</title>
<polygon fill="white" stroke="transparent" points="-4,4 -4,-530 1121.8,-530 1121.8,4 -4,4"/>
<text text-anchor="middle" x="558.9" y="-510.8" font-family="Times,serif" font-size="14.00">「長線投資的繪圖工具箱」 (請搜尋)</text>
<g id="clust1" class="cluster">
<title>cluster_text</title>
<polygon fill="none" stroke="blue" points="226,-345 226,-493 560.25,-493 560.25,-345 226,-345"/>
<text text-anchor="middle" x="393.12" y="-477.8" font-family="Times,serif" font-size="14.00">「長線投資的繪圖工具箱」 (請搜尋)</text>
</g>
<!-- url_qrcode -->
<g id="node1" class="node">
<title>url_qrcode</title>
<ellipse fill="none" stroke="black" stroke-width="0" cx="90" cy="-90" rx="90" ry="90"/>
<image xlink:href="graphic-workflow-url.png" width="180px" height="180px" preserveAspectRatio="xMinYMin meet" x="0" y="-180"/>
</g>
<!-- text -->
<g id="node2" class="node">
<title>text</title>
<ellipse fill="none" stroke="black" cx="306.12" cy="-381" rx="72.25" ry="26.74"/>
<text text-anchor="middle" x="306.12" y="-384.8" font-family="Times,serif" font-size="14.00">any text</text>
<text text-anchor="middle" x="306.12" y="-369.8" font-family="Times,serif" font-size="14.00">任何文字格式</text>
</g>
<!-- csv -->
<g id="node4" class="node">
<title>csv</title>
<ellipse fill="none" stroke="black" cx="525.25" cy="-371" rx="27" ry="18"/>
<text text-anchor="middle" x="525.25" y="-367.3" font-family="Times,serif" font-size="14.00">csv</text>
</g>
<!-- text&#45;&gt;csv -->
<g id="edge1" class="edge">
<title>text&#45;&gt;csv</title>
<path fill="none" stroke="black" d="M375.68,-373.43C382.62,-372.86 389.57,-372.36 396.25,-372 427.26,-370.32 462.56,-370.17 488.22,-370.39"/>
<polygon fill="black" stroke="black" points="488.2,-373.89 498.24,-370.5 488.28,-366.89 488.2,-373.89"/>
<text text-anchor="middle" x="438.25" y="-375.8" font-family="Times,serif" font-size="14.00">RE</text>
</g>
<!-- html -->
<g id="node3" class="node">
<title>html</title>
<ellipse fill="none" stroke="black" cx="306.12" cy="-444" rx="32.49" ry="18"/>
<text text-anchor="middle" x="306.12" y="-440.3" font-family="Times,serif" font-size="14.00">html</text>
</g>
<!-- html&#45;&gt;csv -->
<g id="edge2" class="edge">
<title>html&#45;&gt;csv</title>
<path fill="none" stroke="black" d="M333.49,-434.05C346.9,-428.97 363.45,-422.68 378.25,-417 386.26,-413.92 388.1,-412.69 396.25,-410 433,-397.86 443.36,-398.73 480.25,-387 484.06,-385.79 488.03,-384.45 491.97,-383.08"/>
<polygon fill="black" stroke="black" points="493.29,-386.32 501.53,-379.66 490.94,-379.73 493.29,-386.32"/>
<text text-anchor="middle" x="438.25" y="-413.8" font-family="Times,serif" font-size="14.00">RE</text>
</g>
<!-- html&#45;&gt;csv -->
<g id="edge7" class="edge">
<title>html&#45;&gt;csv</title>
<path fill="none" stroke="black" d="M338.29,-447.39C374.65,-449.87 435.49,-449.35 480.25,-425 492.28,-418.45 502.28,-407.13 509.69,-396.53"/>
<polygon fill="black" stroke="black" points="512.77,-398.22 515.29,-387.93 506.91,-394.4 512.77,-398.22"/>
<text text-anchor="middle" x="438.25" y="-449.8" font-family="Times,serif" font-size="14.00">visidata</text>
</g>
<!-- raster -->
<g id="node5" class="node">
<title>raster</title>
<ellipse fill="none" stroke="black" cx="1070.3" cy="-387" rx="31.23" ry="26.74"/>
<text text-anchor="middle" x="1070.3" y="-390.8" font-family="Times,serif" font-size="14.00">png</text>
<text text-anchor="middle" x="1070.3" y="-375.8" font-family="Times,serif" font-size="14.00">jpg</text>
</g>
<!-- html&#45;&gt;raster -->
<g id="edge12" class="edge">
<title>html&#45;&gt;raster</title>
<path fill="none" stroke="black" d="M334.19,-453.12C374.92,-466 454.63,-488 524.25,-488 524.25,-488 524.25,-488 909.69,-488 964.1,-488 1015.03,-445.56 1044.14,-415.71"/>
<polygon fill="black" stroke="black" points="1046.71,-418.08 1051.06,-408.42 1041.63,-413.26 1046.71,-418.08"/>
<text text-anchor="middle" x="711.72" y="-491.8" font-family="Times,serif" font-size="14.00">cutycapt</text>
</g>
<!-- view -->
<g id="node6" class="node">
<title>view</title>
<ellipse fill="none" stroke="black" cx="711.72" cy="-371" rx="66.44" ry="26.74"/>
<text text-anchor="middle" x="711.72" y="-374.8" font-family="Times,serif" font-size="14.00">view/study</text>
<text text-anchor="middle" x="711.72" y="-359.8" font-family="Times,serif" font-size="14.00">檢視/研究</text>
</g>
<!-- csv&#45;&gt;view -->
<g id="edge8" class="edge">
<title>csv&#45;&gt;view</title>
<path fill="none" stroke="black" d="M552.29,-371C573.79,-371 605.43,-371 634.79,-371"/>
<polygon fill="black" stroke="black" points="635.06,-374.5 645.06,-371 635.06,-367.5 635.06,-374.5"/>
<text text-anchor="middle" x="598.75" y="-374.8" font-family="Times,serif" font-size="14.00">visidata</text>
</g>
<!-- svg -->
<g id="node10" class="node">
<title>svg</title>
<ellipse fill="none" stroke="black" cx="908.69" cy="-297" rx="27" ry="18"/>
<text text-anchor="middle" x="908.69" y="-293.3" font-family="Times,serif" font-size="14.00">svg</text>
</g>
<!-- csv&#45;&gt;svg -->
<g id="edge9" class="edge">
<title>csv&#45;&gt;svg</title>
<path fill="none" stroke="black" d="M541.18,-356.34C562.27,-336.76 602.97,-303.02 645.25,-290 723.9,-265.77 822.16,-279.2 873.24,-289.22"/>
<polygon fill="black" stroke="black" points="872.6,-292.67 883.1,-291.23 874,-285.81 872.6,-292.67"/>
<text text-anchor="middle" x="711.72" y="-323.8" font-family="Times,serif" font-size="14.00">rawgraph</text>
<text text-anchor="middle" x="711.72" y="-308.8" font-family="Times,serif" font-size="14.00">scatplot</text>
<text text-anchor="middle" x="711.72" y="-293.8" font-family="Times,serif" font-size="14.00">metabase</text>
</g>
<!-- dot -->
<g id="node11" class="node">
<title>dot</title>
<ellipse fill="none" stroke="black" cx="711.72" cy="-434" rx="27" ry="18"/>
<text text-anchor="middle" x="711.72" y="-430.3" font-family="Times,serif" font-size="14.00">dot</text>
</g>
<!-- csv&#45;&gt;dot -->
<g id="edge10" class="edge">
<title>csv&#45;&gt;dot</title>
<path fill="none" stroke="blue" d="M560.25,-386.09C563.61,-387.46 566.98,-388.79 570.25,-390 606.09,-403.31 648.02,-416.09 676.68,-424.42"/>
<polygon fill="blue" stroke="blue" points="676.02,-427.87 686.6,-427.28 677.96,-421.14 676.02,-427.87"/>
<text text-anchor="middle" x="598.75" y="-411.8" font-family="Times,serif" font-size="14.00">RE</text>
</g>
<!-- gpt -->
<g id="node12" class="node">
<title>gpt</title>
<ellipse fill="none" stroke="black" cx="711.72" cy="-227" rx="27" ry="18"/>
<text text-anchor="middle" x="711.72" y="-223.3" font-family="Times,serif" font-size="14.00">gpt</text>
</g>
<!-- csv&#45;&gt;gpt -->
<g id="edge11" class="edge">
<title>csv&#45;&gt;gpt</title>
<path fill="none" stroke="blue" d="M528.46,-345C532.25,-317.58 542.51,-275.2 570.25,-252 599.15,-227.84 643.28,-223.56 674.35,-224.07"/>
<polygon fill="blue" stroke="blue" points="674.64,-227.58 684.75,-224.42 674.87,-220.58 674.64,-227.58"/>
<text text-anchor="middle" x="598.75" y="-255.8" font-family="Times,serif" font-size="14.00">RE</text>
</g>
<!-- raster&#45;&gt;raster -->
<g id="edge20" class="edge">
<title>raster&#45;&gt;raster</title>
<path fill="none" stroke="black" d="M1055.6,-411C1053.99,-422.14 1058.89,-431.87 1070.3,-431.87 1077.96,-431.87 1082.69,-427.48 1084.48,-421.22"/>
<polygon fill="black" stroke="black" points="1087.99,-421.17 1085,-411 1081,-420.81 1087.99,-421.17"/>
<text text-anchor="middle" x="1070.3" y="-450.67" font-family="Times,serif" font-size="14.00">gimp</text>
<text text-anchor="middle" x="1070.3" y="-435.67" font-family="Times,serif" font-size="14.00">imagemagick</text>
</g>
<!-- xml -->
<g id="node7" class="node">
<title>xml</title>
<ellipse fill="none" stroke="black" cx="90" cy="-216" rx="27.9" ry="18"/>
<text text-anchor="middle" x="90" y="-212.3" font-family="Times,serif" font-size="14.00">xml</text>
</g>
<!-- json -->
<g id="node8" class="node">
<title>json</title>
<ellipse fill="none" stroke="black" cx="306.12" cy="-216" rx="29.8" ry="18"/>
<text text-anchor="middle" x="306.12" y="-212.3" font-family="Times,serif" font-size="14.00">json</text>
</g>
<!-- xml&#45;&gt;json -->
<g id="edge3" class="edge">
<title>xml&#45;&gt;json</title>
<path fill="none" stroke="black" d="M118.12,-216C155.55,-216 223.25,-216 266.11,-216"/>
<polygon fill="black" stroke="black" points="266.18,-219.5 276.18,-216 266.18,-212.5 266.18,-219.5"/>
<text text-anchor="middle" x="207" y="-219.8" font-family="Times,serif" font-size="14.00">xq</text>
</g>
<!-- json&#45;&gt;csv -->
<g id="edge5" class="edge">
<title>json&#45;&gt;csv</title>
<path fill="none" stroke="black" d="M331.47,-225.81C366.89,-240.87 433.47,-272.28 480.25,-313 491.08,-322.43 500.97,-334.91 508.61,-345.88"/>
<polygon fill="black" stroke="black" points="505.76,-347.92 514.24,-354.27 511.57,-344.02 505.76,-347.92"/>
<text text-anchor="middle" x="438.25" y="-316.8" font-family="Times,serif" font-size="14.00">zq</text>
</g>
<!-- json&#45;&gt;json -->
<g id="edge4" class="edge">
<title>json&#45;&gt;json</title>
<path fill="none" stroke="black" d="M289.54,-231.17C284.52,-241.66 290.05,-252 306.12,-252 316.93,-252 322.97,-247.33 324.24,-241.09"/>
<polygon fill="black" stroke="black" points="327.7,-240.51 322.71,-231.17 320.78,-241.58 327.7,-240.51"/>
<text text-anchor="middle" x="306.12" y="-270.8" font-family="Times,serif" font-size="14.00">jq</text>
<text text-anchor="middle" x="306.12" y="-255.8" font-family="Times,serif" font-size="14.00">zq</text>
</g>
<!-- xlsx -->
<g id="node9" class="node">
<title>xlsx</title>
<ellipse fill="none" stroke="black" cx="306.12" cy="-162" rx="29.5" ry="18"/>
<text text-anchor="middle" x="306.12" y="-158.3" font-family="Times,serif" font-size="14.00">xlsx</text>
</g>
<!-- xlsx&#45;&gt;csv -->
<g id="edge6" class="edge">
<title>xlsx&#45;&gt;csv</title>
<path fill="none" stroke="black" d="M335.3,-164.54C373.49,-169.49 441.36,-183.86 480.25,-225 510.8,-257.32 520.2,-310.1 523.06,-342.57"/>
<polygon fill="black" stroke="black" points="519.58,-343.02 523.79,-352.74 526.56,-342.51 519.58,-343.02"/>
<text text-anchor="middle" x="438.25" y="-243.8" font-family="Times,serif" font-size="14.00">Libre Office</text>
<text text-anchor="middle" x="438.25" y="-228.8" font-family="Times,serif" font-size="14.00">visidata</text>
</g>
<!-- svg&#45;&gt;raster -->
<g id="edge16" class="edge">
<title>svg&#45;&gt;raster</title>
<path fill="none" stroke="black" d="M929.9,-308.4C956.24,-323.25 1002.7,-349.45 1034.7,-367.49"/>
<polygon fill="black" stroke="black" points="1033.29,-370.71 1043.72,-372.58 1036.73,-364.62 1033.29,-370.71"/>
<text text-anchor="middle" x="989.69" y="-360.8" font-family="Times,serif" font-size="14.00">inkscape</text>
</g>
<!-- svg&#45;&gt;svg -->
<g id="edge17" class="edge">
<title>svg&#45;&gt;svg</title>
<path fill="none" stroke="black" d="M895.01,-312.54C891.16,-322.91 895.72,-333 908.69,-333 917.2,-333 922.09,-328.65 923.35,-322.74"/>
<polygon fill="black" stroke="black" points="926.81,-322.16 922.36,-312.54 919.85,-322.83 926.81,-322.16"/>
<text text-anchor="middle" x="908.69" y="-336.8" font-family="Times,serif" font-size="14.00">inkscape</text>
</g>
<!-- dot&#45;&gt;raster -->
<g id="edge14" class="edge">
<title>dot&#45;&gt;raster</title>
<path fill="none" stroke="black" d="M738.36,-430.62C799.7,-422.54 955.26,-402.03 1029.15,-392.29"/>
<polygon fill="black" stroke="black" points="1029.98,-395.71 1039.44,-390.94 1029.07,-388.77 1029.98,-395.71"/>
<text text-anchor="middle" x="908.69" y="-415.8" font-family="Times,serif" font-size="14.00">graphviz</text>
</g>
<!-- dot&#45;&gt;svg -->
<g id="edge15" class="edge">
<title>dot&#45;&gt;svg</title>
<path fill="none" stroke="black" d="M737.4,-428.3C750.74,-424.19 766.78,-417.49 778.19,-407 791.06,-395.16 784.56,-385.07 796.19,-372 819.04,-346.3 852.55,-325.32 876.86,-312.16"/>
<polygon fill="black" stroke="black" points="878.8,-315.09 886.01,-307.34 875.54,-308.9 878.8,-315.09"/>
<text text-anchor="middle" x="827.69" y="-375.8" font-family="Times,serif" font-size="14.00">graphviz</text>
</g>
<!-- gpt&#45;&gt;raster -->
<g id="edge18" class="edge">
<title>gpt&#45;&gt;raster</title>
<path fill="none" stroke="black" d="M738.7,-224.43C782.89,-221.28 874.27,-220.05 940.19,-255 985.75,-279.16 1025.03,-325.08 1047.94,-355.87"/>
<polygon fill="black" stroke="black" points="1045.24,-358.11 1053.96,-364.13 1050.89,-353.99 1045.24,-358.11"/>
<text text-anchor="middle" x="908.69" y="-258.8" font-family="Times,serif" font-size="14.00">gnuplot</text>
</g>
<!-- gpt&#45;&gt;svg -->
<g id="edge19" class="edge">
<title>gpt&#45;&gt;svg</title>
<path fill="none" stroke="black" d="M738.96,-227.03C769.39,-228.05 820.32,-232.82 859.19,-252 869.91,-257.29 879.93,-265.73 888.05,-273.87"/>
<polygon fill="black" stroke="black" points="885.53,-276.29 894.94,-281.16 890.62,-271.49 885.53,-276.29"/>
<text text-anchor="middle" x="827.69" y="-255.8" font-family="Times,serif" font-size="14.00">gnuplot</text>
</g>
<!-- ods -->
<g id="node13" class="node">
<title>ods</title>
<ellipse fill="none" stroke="black" cx="306.12" cy="-318" rx="27" ry="18"/>
<text text-anchor="middle" x="306.12" y="-314.3" font-family="Times,serif" font-size="14.00">ods</text>
</g>
<!-- ods&#45;&gt;csv -->
<g id="edge13" class="edge">
<title>ods&#45;&gt;csv</title>
<path fill="none" stroke="black" d="M332.83,-320.95C367.05,-325.32 429.22,-334.79 480.25,-351 484.69,-352.41 489.27,-354.15 493.73,-356.01"/>
<polygon fill="black" stroke="black" points="492.61,-359.34 503.17,-360.19 495.44,-352.94 492.61,-359.34"/>
<text text-anchor="middle" x="438.25" y="-354.8" font-family="Times,serif" font-size="14.00">Libre Office</text>
</g>
</g>
</svg>
