<?xml version="1.0" encoding="UTF-8" standalone="no"?>
<!DOCTYPE svg PUBLIC "-//W3C//DTD SVG 1.1//EN"
 "http://www.w3.org/Graphics/SVG/1.1/DTD/svg11.dtd">
<!-- Generated by graphviz version 2.38.0 (20140413.2041)
 -->
<!-- Title: 檔案格式為中心的繪圖工作流程 Pages: 1 -->
<svg width="452pt" height="408pt"
 viewBox="0.00 0.00 452.00 408.00" xmlns="http://www.w3.org/2000/svg" xmlns:xlink="http://www.w3.org/1999/xlink">
<g id="graph0" class="graph" transform="scale(1 1) rotate(0) translate(4 404)">
<title>檔案格式為中心的繪圖工作流程</title>
<polygon fill="white" stroke="none" points="-4,4 -4,-404 448,-404 448,4 -4,4"/>
<g id="clust1" class="cluster"><title>cluster_text</title>
<polygon fill="none" stroke="black" points="92,-253 92,-392 258,-392 258,-253 92,-253"/>
</g>
<!-- text -->
<g id="node1" class="node"><title>text</title>
<ellipse fill="none" stroke="black" cx="139" cy="-366" rx="38.9931" ry="18"/>
<text text-anchor="middle" x="139" y="-362.3" font-family="Times,serif" font-size="14.00">any text</text>
</g>
<!-- csv -->
<g id="node3" class="node"><title>csv</title>
<ellipse fill="none" stroke="black" cx="127" cy="-279" rx="27" ry="18"/>
<text text-anchor="middle" x="127" y="-275.3" font-family="Times,serif" font-size="14.00">csv</text>
</g>
<!-- text&#45;&gt;csv -->
<g id="edge1" class="edge"><title>text&#45;&gt;csv</title>
<path fill="none" stroke="black" d="M127.349,-348.684C123.968,-343.039 120.724,-336.493 119,-330 117.014,-322.523 117.339,-314.278 118.621,-306.677"/>
<polygon fill="black" stroke="black" points="122.053,-307.368 120.834,-296.843 115.224,-305.831 122.053,-307.368"/>
<text text-anchor="middle" x="128" y="-318.8" font-family="Times,serif" font-size="14.00">RE</text>
</g>
<!-- dot -->
<g id="node5" class="node"><title>dot</title>
<ellipse fill="none" stroke="black" cx="298" cy="-192" rx="27" ry="18"/>
<text text-anchor="middle" x="298" y="-188.3" font-family="Times,serif" font-size="14.00">dot</text>
</g>
<!-- text&#45;&gt;dot -->
<g id="edge4" class="edge"><title>text&#45;&gt;dot</title>
<path fill="none" stroke="black" d="M165.204,-352.44C187.612,-340.648 219.549,-321.215 241,-297 261.719,-273.611 277.904,-241.405 287.65,-219.054"/>
<polygon fill="black" stroke="black" points="290.999,-220.12 291.667,-209.546 284.551,-217.395 290.999,-220.12"/>
<text text-anchor="middle" x="280" y="-275.3" font-family="Times,serif" font-size="14.00">RE</text>
</g>
<!-- gpt -->
<g id="node6" class="node"><title>gpt</title>
<ellipse fill="none" stroke="black" cx="190" cy="-192" rx="27" ry="18"/>
<text text-anchor="middle" x="190" y="-188.3" font-family="Times,serif" font-size="14.00">gpt</text>
</g>
<!-- text&#45;&gt;gpt -->
<g id="edge5" class="edge"><title>text&#45;&gt;gpt</title>
<path fill="none" stroke="black" d="M160.676,-350.574C167.366,-344.974 174.015,-337.975 178,-330 187.293,-311.402 189.496,-254.707 189.954,-220.354"/>
<polygon fill="black" stroke="black" points="193.457,-220.094 190.049,-210.063 186.457,-220.03 193.457,-220.094"/>
<text text-anchor="middle" x="199" y="-275.3" font-family="Times,serif" font-size="14.00">RE</text>
</g>
<!-- html -->
<g id="node2" class="node"><title>html</title>
<ellipse fill="none" stroke="black" cx="223" cy="-366" rx="27.0966" ry="18"/>
<text text-anchor="middle" x="223" y="-362.3" font-family="Times,serif" font-size="14.00">html</text>
</g>
<!-- html&#45;&gt;csv -->
<g id="edge2" class="edge"><title>html&#45;&gt;csv</title>
<path fill="none" stroke="black" d="M207.148,-350.964C191.63,-337.225 167.818,-316.14 150.177,-300.521"/>
<polygon fill="black" stroke="black" points="152.365,-297.784 142.557,-293.775 147.724,-303.024 152.365,-297.784"/>
<text text-anchor="middle" x="190" y="-318.8" font-family="Times,serif" font-size="14.00">RE</text>
</g>
<!-- graphic -->
<g id="node4" class="node"><title>graphic</title>
<ellipse fill="none" stroke="black" cx="274" cy="-18" rx="37.8943" ry="18"/>
<text text-anchor="middle" x="274" y="-14.3" font-family="Times,serif" font-size="14.00">png/jpg</text>
</g>
<!-- html&#45;&gt;graphic -->
<g id="edge3" class="edge"><title>html&#45;&gt;graphic</title>
<path fill="none" stroke="black" d="M250.344,-363.878C299.562,-360.238 398,-344.85 398,-280 398,-280 398,-280 398,-104 398,-63.8008 353.116,-41.205 317.356,-29.5817"/>
<polygon fill="black" stroke="black" points="318.142,-26.1625 307.556,-26.5888 316.098,-32.8572 318.142,-26.1625"/>
<text text-anchor="middle" x="421" y="-188.3" font-family="Times,serif" font-size="14.00">cutycapt</text>
</g>
<!-- html&#45;&gt;dot -->
<g id="edge6" class="edge"><title>html&#45;&gt;dot</title>
<path fill="none" stroke="black" d="M249.352,-361.288C269.363,-357.087 296.071,-348.273 312,-330 338.677,-299.397 323.805,-249.117 310.766,-218.727"/>
<polygon fill="black" stroke="black" points="313.786,-216.911 306.477,-209.241 307.407,-219.795 313.786,-216.911"/>
<text text-anchor="middle" x="335" y="-275.3" font-family="Times,serif" font-size="14.00">RE</text>
</g>
<!-- html&#45;&gt;gpt -->
<g id="edge7" class="edge"><title>html&#45;&gt;gpt</title>
<path fill="none" stroke="black" d="M222.438,-347.753C221.459,-325.612 218.841,-286.101 212,-253 209.639,-241.575 207.947,-238.978 204,-228 202.949,-225.077 201.807,-222.034 200.642,-219.017"/>
<polygon fill="black" stroke="black" points="203.868,-217.655 196.936,-209.643 197.358,-220.229 203.868,-217.655"/>
<text text-anchor="middle" x="228" y="-275.3" font-family="Times,serif" font-size="14.00">RE</text>
</g>
<!-- csv&#45;&gt;dot -->
<g id="edge8" class="edge"><title>csv&#45;&gt;dot</title>
<path fill="none" stroke="black" d="M145.925,-265.835C152.779,-261.596 160.644,-256.923 168,-253 200.817,-235.497 239.682,-217.957 266.314,-206.403"/>
<polygon fill="black" stroke="black" points="267.74,-209.6 275.539,-202.428 264.97,-203.171 267.74,-209.6"/>
<text text-anchor="middle" x="227" y="-231.8" font-family="Times,serif" font-size="14.00">RE</text>
</g>
<!-- csv&#45;&gt;gpt -->
<g id="edge9" class="edge"><title>csv&#45;&gt;gpt</title>
<path fill="none" stroke="black" d="M136.047,-261.738C141.877,-251.708 149.864,-238.75 158,-228 161.27,-223.679 164.973,-219.267 168.671,-215.096"/>
<polygon fill="black" stroke="black" points="171.491,-217.199 175.661,-207.459 166.327,-212.473 171.491,-217.199"/>
<text text-anchor="middle" x="167" y="-231.8" font-family="Times,serif" font-size="14.00">RE</text>
</g>
<!-- graphic&#45;&gt;graphic -->
<g id="edge17" class="edge"><title>graphic&#45;&gt;graphic</title>
<path fill="none" stroke="black" d="M307.991,-25.8707C319.974,-25.9966 329.697,-23.373 329.697,-18 329.697,-14.306 325.101,-11.9116 318.335,-10.8168"/>
<polygon fill="black" stroke="black" points="318.201,-7.30024 307.991,-10.1293 317.737,-14.2848 318.201,-7.30024"/>
<text text-anchor="middle" x="367.197" y="-21.8" font-family="Times,serif" font-size="14.00">gimp</text>
<text text-anchor="middle" x="367.197" y="-6.8" font-family="Times,serif" font-size="14.00">imagemagick</text>
</g>
<!-- dot&#45;&gt;graphic -->
<g id="edge11" class="edge"><title>dot&#45;&gt;graphic</title>
<path fill="none" stroke="black" d="M301.514,-173.985C302.529,-168.293 303.498,-161.897 304,-156 307.223,-118.128 291.58,-55.8742 291,-54 290.071,-50.9993 288.919,-47.934 287.655,-44.9265"/>
<polygon fill="black" stroke="black" points="290.747,-43.2743 283.373,-35.6661 284.393,-46.2118 290.747,-43.2743"/>
<text text-anchor="middle" x="328" y="-101.3" font-family="Times,serif" font-size="14.00">graphviz</text>
</g>
<!-- svg -->
<g id="node8" class="node"><title>svg</title>
<ellipse fill="none" stroke="black" cx="193" cy="-105" rx="27" ry="18"/>
<text text-anchor="middle" x="193" y="-101.3" font-family="Times,serif" font-size="14.00">svg</text>
</g>
<!-- dot&#45;&gt;svg -->
<g id="edge12" class="edge"><title>dot&#45;&gt;svg</title>
<path fill="none" stroke="black" d="M281.13,-177.343C263.884,-163.382 236.925,-141.558 217.363,-125.722"/>
<polygon fill="black" stroke="black" points="219.457,-122.914 209.482,-119.343 215.052,-128.355 219.457,-122.914"/>
<text text-anchor="middle" x="276" y="-144.8" font-family="Times,serif" font-size="14.00">graphviz</text>
</g>
<!-- gpt&#45;&gt;graphic -->
<g id="edge15" class="edge"><title>gpt&#45;&gt;graphic</title>
<path fill="none" stroke="black" d="M170.659,-179.37C141.585,-160.378 92.3163,-121.372 115,-87 139.79,-49.4367 190.067,-32.5486 227.482,-25.0023"/>
<polygon fill="black" stroke="black" points="228.469,-28.3789 237.662,-23.1122 227.192,-21.4966 228.469,-28.3789"/>
<text text-anchor="middle" x="136" y="-101.3" font-family="Times,serif" font-size="14.00">gnuplot</text>
</g>
<!-- gpt&#45;&gt;svg -->
<g id="edge16" class="edge"><title>gpt&#45;&gt;svg</title>
<path fill="none" stroke="black" d="M190.607,-173.799C191.018,-162.163 191.569,-146.548 192.039,-133.237"/>
<polygon fill="black" stroke="black" points="195.539,-133.293 192.394,-123.175 188.543,-133.046 195.539,-133.293"/>
<text text-anchor="middle" x="213" y="-144.8" font-family="Times,serif" font-size="14.00">gnuplot</text>
</g>
<!-- ods -->
<g id="node7" class="node"><title>ods</title>
<ellipse fill="none" stroke="black" cx="27" cy="-366" rx="27" ry="18"/>
<text text-anchor="middle" x="27" y="-362.3" font-family="Times,serif" font-size="14.00">ods</text>
</g>
<!-- ods&#45;&gt;csv -->
<g id="edge10" class="edge"><title>ods&#45;&gt;csv</title>
<path fill="none" stroke="black" d="M29.9731,-347.884C32.5974,-337.271 37.4001,-323.993 46,-315 58.2458,-302.194 75.9609,-293.815 91.7033,-288.477"/>
<polygon fill="black" stroke="black" points="93.1652,-291.689 101.686,-285.392 91.0985,-285.001 93.1652,-291.689"/>
<text text-anchor="middle" x="80" y="-318.8" font-family="Times,serif" font-size="14.00">Libre Office</text>
</g>
<!-- svg&#45;&gt;graphic -->
<g id="edge13" class="edge"><title>svg&#45;&gt;graphic</title>
<path fill="none" stroke="black" d="M207.109,-89.1941C219.461,-76.2328 237.612,-57.1846 251.891,-42.2003"/>
<polygon fill="black" stroke="black" points="254.589,-44.4426 258.954,-34.7886 249.522,-39.6135 254.589,-44.4426"/>
<text text-anchor="middle" x="263" y="-57.8" font-family="Times,serif" font-size="14.00">inkscape</text>
</g>
<!-- svg&#45;&gt;svg -->
<g id="edge14" class="edge"><title>svg&#45;&gt;svg</title>
<path fill="none" stroke="black" d="M217.532,-112.752C228.508,-113.49 238,-110.906 238,-105 238,-101.032 233.715,-98.5632 227.574,-97.5944"/>
<polygon fill="black" stroke="black" points="227.647,-94.0949 217.532,-97.248 227.406,-101.091 227.647,-94.0949"/>
<text text-anchor="middle" x="262" y="-101.3" font-family="Times,serif" font-size="14.00">inkscape</text>
</g>
</g>
</svg>
