<?xml version="1.0" encoding="UTF-8" standalone="no"?>
<!DOCTYPE svg PUBLIC "-//W3C//DTD SVG 1.1//EN"
 "http://www.w3.org/Graphics/SVG/1.1/DTD/svg11.dtd">
<!-- Generated by graphviz version 2.43.0 (0)
 -->
<!-- Title: 檔案格式為中心的繪圖工作流程 Pages: 1 -->
<svg width="514pt" height="423pt"
 viewBox="0.00 0.00 514.00 423.00" xmlns="http://www.w3.org/2000/svg" xmlns:xlink="http://www.w3.org/1999/xlink">
<g id="graph0" class="graph" transform="scale(1 1) rotate(0) translate(4 419)">
<title>檔案格式為中心的繪圖工作流程</title>
<polygon fill="white" stroke="transparent" points="-4,4 -4,-419 510,-419 510,4 -4,4"/>
<g id="clust1" class="cluster">
<title>cluster_text</title>
<polygon fill="none" stroke="black" points="108,-268 108,-407 304,-407 304,-268 108,-268"/>
</g>
<!-- text -->
<g id="node1" class="node">
<title>text</title>
<ellipse fill="none" stroke="black" cx="165" cy="-381" rx="48.99" ry="18"/>
<text text-anchor="middle" x="165" y="-377.3" font-family="Times,serif" font-size="14.00">any text</text>
</g>
<!-- csv -->
<g id="node3" class="node">
<title>csv</title>
<ellipse fill="none" stroke="black" cx="143" cy="-294" rx="27" ry="18"/>
<text text-anchor="middle" x="143" y="-290.3" font-family="Times,serif" font-size="14.00">csv</text>
</g>
<!-- text&#45;&gt;csv -->
<g id="edge1" class="edge">
<title>text&#45;&gt;csv</title>
<path fill="none" stroke="black" d="M147.3,-364.17C142.35,-358.65 137.61,-352.06 135,-345 132.24,-337.55 132.43,-329.12 133.83,-321.34"/>
<polygon fill="black" stroke="black" points="137.23,-322.17 136.21,-311.62 130.43,-320.5 137.23,-322.17"/>
<text text-anchor="middle" x="146" y="-333.8" font-family="Times,serif" font-size="14.00">RE</text>
</g>
<!-- dot -->
<g id="node5" class="node">
<title>dot</title>
<ellipse fill="none" stroke="black" cx="328" cy="-207" rx="27" ry="18"/>
<text text-anchor="middle" x="328" y="-203.3" font-family="Times,serif" font-size="14.00">dot</text>
</g>
<!-- text&#45;&gt;dot -->
<g id="edge4" class="edge">
<title>text&#45;&gt;dot</title>
<path fill="none" stroke="black" d="M196.1,-367.06C220.63,-355.57 254.36,-336.77 277,-312 297.59,-289.47 311.69,-257.11 319.76,-234.48"/>
<polygon fill="black" stroke="black" points="323.13,-235.44 323.04,-224.85 316.51,-233.18 323.13,-235.44"/>
<text text-anchor="middle" x="316" y="-290.3" font-family="Times,serif" font-size="14.00">RE</text>
</g>
<!-- gpt -->
<g id="node6" class="node">
<title>gpt</title>
<ellipse fill="none" stroke="black" cx="197" cy="-207" rx="27" ry="18"/>
<text text-anchor="middle" x="197" y="-203.3" font-family="Times,serif" font-size="14.00">gpt</text>
</g>
<!-- text&#45;&gt;gpt -->
<g id="edge5" class="edge">
<title>text&#45;&gt;gpt</title>
<path fill="none" stroke="black" d="M186.75,-364.86C192.85,-359.38 198.71,-352.63 202,-345 217.36,-309.33 211.11,-263.48 204.56,-234.91"/>
<polygon fill="black" stroke="black" points="207.87,-233.74 202.07,-224.87 201.07,-235.42 207.87,-233.74"/>
<text text-anchor="middle" x="222" y="-290.3" font-family="Times,serif" font-size="14.00">RE</text>
</g>
<!-- html -->
<g id="node2" class="node">
<title>html</title>
<ellipse fill="none" stroke="black" cx="264" cy="-381" rx="32.49" ry="18"/>
<text text-anchor="middle" x="264" y="-377.3" font-family="Times,serif" font-size="14.00">html</text>
</g>
<!-- html&#45;&gt;csv -->
<g id="edge2" class="edge">
<title>html&#45;&gt;csv</title>
<path fill="none" stroke="black" d="M244.56,-366.34C224.27,-352.09 192.32,-329.65 169.68,-313.74"/>
<polygon fill="black" stroke="black" points="171.4,-310.67 161.2,-307.79 167.38,-316.4 171.4,-310.67"/>
<text text-anchor="middle" x="221" y="-333.8" font-family="Times,serif" font-size="14.00">RE</text>
</g>
<!-- graphic -->
<g id="node4" class="node">
<title>graphic</title>
<ellipse fill="none" stroke="black" cx="314" cy="-18" rx="46.29" ry="18"/>
<text text-anchor="middle" x="314" y="-14.3" font-family="Times,serif" font-size="14.00">png/jpg</text>
</g>
<!-- html&#45;&gt;graphic -->
<g id="edge3" class="edge">
<title>html&#45;&gt;graphic</title>
<path fill="none" stroke="black" d="M296.6,-378.86C348.47,-375.11 444,-359.45 444,-295 444,-295 444,-295 444,-119 444,-75.22 397.1,-47.95 359.64,-33.16"/>
<polygon fill="black" stroke="black" points="360.46,-29.73 349.87,-29.49 358,-36.28 360.46,-29.73"/>
<text text-anchor="middle" x="475" y="-203.3" font-family="Times,serif" font-size="14.00">cutycapt</text>
</g>
<!-- html&#45;&gt;dot -->
<g id="edge6" class="edge">
<title>html&#45;&gt;dot</title>
<path fill="none" stroke="black" d="M293.3,-372.94C309.57,-367.67 329.07,-358.92 342,-345 365.58,-319.63 361.03,-301.91 354,-268 351.53,-256.08 346.57,-243.63 341.64,-233.17"/>
<polygon fill="black" stroke="black" points="344.77,-231.61 337.19,-224.21 338.5,-234.72 344.77,-231.61"/>
<text text-anchor="middle" x="370" y="-290.3" font-family="Times,serif" font-size="14.00">RE</text>
</g>
<!-- html&#45;&gt;gpt -->
<g id="edge7" class="edge">
<title>html&#45;&gt;gpt</title>
<path fill="none" stroke="black" d="M261.66,-362.74C258.22,-340.25 250.65,-300.02 237,-268 231.83,-255.86 228.29,-254 221,-243 218.62,-239.41 216.07,-235.63 213.56,-231.94"/>
<polygon fill="black" stroke="black" points="216.4,-229.88 207.86,-223.61 210.62,-233.84 216.4,-229.88"/>
<text text-anchor="middle" x="262" y="-290.3" font-family="Times,serif" font-size="14.00">RE</text>
</g>
<!-- csv&#45;&gt;dot -->
<g id="edge8" class="edge">
<title>csv&#45;&gt;dot</title>
<path fill="none" stroke="black" d="M161.84,-280.68C168.69,-276.43 176.57,-271.78 184,-268 221.18,-249.06 265.77,-231.18 295.38,-219.95"/>
<polygon fill="black" stroke="black" points="296.69,-223.2 304.82,-216.4 294.23,-216.65 296.69,-223.2"/>
<text text-anchor="middle" x="245" y="-246.8" font-family="Times,serif" font-size="14.00">RE</text>
</g>
<!-- csv&#45;&gt;gpt -->
<g id="edge9" class="edge">
<title>csv&#45;&gt;gpt</title>
<path fill="none" stroke="black" d="M151.11,-276.4C156.16,-266.48 163.01,-253.75 170,-243 172.51,-239.13 175.34,-235.15 178.18,-231.32"/>
<polygon fill="black" stroke="black" points="181.04,-233.35 184.35,-223.29 175.48,-229.09 181.04,-233.35"/>
<text text-anchor="middle" x="181" y="-246.8" font-family="Times,serif" font-size="14.00">RE</text>
</g>
<!-- graphic&#45;&gt;graphic -->
<g id="edge17" class="edge">
<title>graphic&#45;&gt;graphic</title>
<path fill="none" stroke="black" d="M353.46,-27.37C367.12,-27.47 378.15,-24.35 378.15,-18 378.15,-13.34 372.2,-10.42 363.63,-9.23"/>
<polygon fill="black" stroke="black" points="363.65,-5.73 353.46,-8.63 363.24,-12.71 363.65,-5.73"/>
<text text-anchor="middle" x="425.65" y="-21.8" font-family="Times,serif" font-size="14.00">gimp</text>
<text text-anchor="middle" x="425.65" y="-6.8" font-family="Times,serif" font-size="14.00">imagemagick</text>
</g>
<!-- dot&#45;&gt;graphic -->
<g id="edge11" class="edge">
<title>dot&#45;&gt;graphic</title>
<path fill="none" stroke="black" d="M334.43,-189.16C336.29,-183.48 338.07,-177.04 339,-171 346.89,-119.6 354.87,-103.52 339,-54 337.86,-50.45 336.22,-46.95 334.31,-43.62"/>
<polygon fill="black" stroke="black" points="337.22,-41.69 328.79,-35.28 331.38,-45.55 337.22,-41.69"/>
<text text-anchor="middle" x="379.5" y="-116.3" font-family="Times,serif" font-size="14.00">graphviz</text>
</g>
<!-- svg -->
<g id="node8" class="node">
<title>svg</title>
<ellipse fill="none" stroke="black" cx="209" cy="-120" rx="27" ry="18"/>
<text text-anchor="middle" x="209" y="-116.3" font-family="Times,serif" font-size="14.00">svg</text>
</g>
<!-- dot&#45;&gt;svg -->
<g id="edge12" class="edge">
<title>dot&#45;&gt;svg</title>
<path fill="none" stroke="black" d="M309.08,-193.58C299.15,-186.99 286.83,-178.68 276,-171 262.05,-161.11 246.75,-149.73 234.3,-140.33"/>
<polygon fill="black" stroke="black" points="236.27,-137.43 226.18,-134.18 232.04,-143.01 236.27,-137.43"/>
<text text-anchor="middle" x="307.5" y="-159.8" font-family="Times,serif" font-size="14.00">graphviz</text>
</g>
<!-- gpt&#45;&gt;graphic -->
<g id="edge15" class="edge">
<title>gpt&#45;&gt;graphic</title>
<path fill="none" stroke="black" d="M176.79,-194.51C146.41,-175.71 94.83,-136.97 118,-102 149.37,-54.64 213.74,-34.23 260.16,-25.48"/>
<polygon fill="black" stroke="black" points="260.83,-28.92 270.07,-23.74 259.62,-22.03 260.83,-28.92"/>
<text text-anchor="middle" x="145.5" y="-116.3" font-family="Times,serif" font-size="14.00">gnuplot</text>
</g>
<!-- gpt&#45;&gt;svg -->
<g id="edge16" class="edge">
<title>gpt&#45;&gt;svg</title>
<path fill="none" stroke="black" d="M196.14,-188.77C195.96,-179.08 196.23,-166.8 198,-156 198.45,-153.27 199.06,-150.45 199.77,-147.66"/>
<polygon fill="black" stroke="black" points="203.19,-148.43 202.64,-137.85 196.47,-146.47 203.19,-148.43"/>
<text text-anchor="middle" x="225.5" y="-159.8" font-family="Times,serif" font-size="14.00">gnuplot</text>
</g>
<!-- ods -->
<g id="node7" class="node">
<title>ods</title>
<ellipse fill="none" stroke="black" cx="27" cy="-381" rx="27" ry="18"/>
<text text-anchor="middle" x="27" y="-377.3" font-family="Times,serif" font-size="14.00">ods</text>
</g>
<!-- ods&#45;&gt;csv -->
<g id="edge10" class="edge">
<title>ods&#45;&gt;csv</title>
<path fill="none" stroke="black" d="M29.02,-362.71C31.11,-352.03 35.37,-338.74 44,-330 60.55,-313.25 85.61,-304.49 106.37,-299.92"/>
<polygon fill="black" stroke="black" points="107.32,-303.31 116.46,-297.95 105.98,-296.44 107.32,-303.31"/>
<text text-anchor="middle" x="86" y="-333.8" font-family="Times,serif" font-size="14.00">Libre Office</text>
</g>
<!-- svg&#45;&gt;graphic -->
<g id="edge13" class="edge">
<title>svg&#45;&gt;graphic</title>
<path fill="none" stroke="black" d="M223.53,-104.69C237.03,-91.44 257.75,-71.26 276,-54 280.16,-50.07 284.6,-45.93 288.93,-41.92"/>
<polygon fill="black" stroke="black" points="291.53,-44.29 296.51,-34.94 286.78,-39.14 291.53,-44.29"/>
<text text-anchor="middle" x="307.5" y="-72.8" font-family="Times,serif" font-size="14.00">inkscape</text>
<text text-anchor="middle" x="307.5" y="-57.8" font-family="Times,serif" font-size="14.00">sozi</text>
</g>
<!-- svg&#45;&gt;svg -->
<g id="edge14" class="edge">
<title>svg&#45;&gt;svg</title>
<path fill="none" stroke="black" d="M233.53,-127.75C244.51,-128.49 254,-125.91 254,-120 254,-116.03 249.72,-113.56 243.57,-112.59"/>
<polygon fill="black" stroke="black" points="243.65,-109.09 233.53,-112.25 243.41,-116.09 243.65,-109.09"/>
<text text-anchor="middle" x="285.5" y="-123.8" font-family="Times,serif" font-size="14.00">inkscape</text>
<text text-anchor="middle" x="285.5" y="-108.8" font-family="Times,serif" font-size="14.00">sozi</text>
</g>
</g>
</svg>
